# Blender 5.0.0
# www.blender.org
mtllib Bomb.mtl
o Esfera_geodésica
v 0.000000 0.243149 1.812302
v 0.361804 0.519539 2.075164
v -0.138194 0.519539 2.237626
v -0.447213 0.519541 1.812302
v -0.138194 0.519539 1.386977
v 0.361804 0.519539 1.549439
v 0.138194 0.966759 2.237626
v -0.361804 0.966759 2.075164
v -0.361804 0.966759 1.549439
v 0.138194 0.966759 1.386977
v 0.447213 0.966757 1.812302
v 0.000000 1.243149 1.812302
v -0.081228 0.317822 2.062299
v 0.212661 0.317822 1.966807
v 0.131434 0.480280 2.216807
v 0.425324 0.480281 1.812302
v 0.212661 0.317822 1.657796
v -0.262865 0.317823 1.812302
v -0.344095 0.480281 2.062300
v -0.081228 0.317822 1.562304
v -0.344095 0.480281 1.562303
v 0.131434 0.480280 1.407796
v 0.475529 0.743149 1.966808
v 0.475529 0.743149 1.657795
v 0.000000 0.743149 2.312302
v 0.293893 0.743149 2.216810
v -0.475529 0.743149 1.966808
v -0.293893 0.743149 2.216810
v -0.293893 0.743149 1.407793
v -0.475529 0.743149 1.657795
v 0.293893 0.743149 1.407793
v 0.000000 0.743149 1.312302
v 0.344095 1.006017 2.062300
v -0.131434 1.006018 2.216807
v -0.425324 1.006017 1.812302
v -0.131434 1.006018 1.407796
v 0.344095 1.006017 1.562303
v 0.081228 1.168476 2.062299
v 0.262865 1.168475 1.812302
v -0.212661 1.168476 1.966807
v -0.212661 1.168476 1.657796
v 0.081228 1.168476 1.562304
vn 0.1024 -0.9435 0.3151
vn 0.7002 -0.6617 0.2680
vn -0.2680 -0.9435 0.1947
vn -0.2680 -0.9435 -0.1947
vn 0.1024 -0.9435 -0.3151
vn 0.9050 -0.3304 0.2680
vn 0.0247 -0.3304 0.9435
vn -0.8897 -0.3304 0.3151
vn -0.5746 -0.3304 -0.7488
vn 0.5346 -0.3304 -0.7779
vn 0.8026 -0.1256 0.5831
vn -0.3066 -0.1256 0.9435
vn -0.9921 -0.1256 -0.0000
vn -0.3066 -0.1256 -0.9435
vn 0.8026 -0.1256 -0.5831
vn 0.4089 0.6617 0.6284
vn -0.4713 0.6617 0.5831
vn -0.7002 0.6617 -0.2680
vn 0.0385 0.6617 -0.7488
vn 0.7240 0.6617 -0.1947
vn 0.2680 0.9435 -0.1947
vn 0.4911 0.7947 -0.3568
vn 0.4089 0.6617 -0.6284
vn -0.1024 0.9435 -0.3151
vn -0.1876 0.7947 -0.5773
vn -0.4713 0.6617 -0.5831
vn -0.3313 0.9435 -0.0000
vn -0.6071 0.7947 -0.0000
vn -0.7002 0.6617 0.2680
vn -0.1024 0.9435 0.3151
vn -0.1876 0.7947 0.5773
vn 0.0385 0.6617 0.7488
vn 0.2680 0.9435 0.1947
vn 0.4911 0.7947 0.3568
vn 0.7240 0.6617 0.1947
vn 0.8897 0.3304 -0.3151
vn 0.7947 0.1876 -0.5773
vn 0.5746 0.3304 -0.7488
vn -0.0247 0.3304 -0.9435
vn -0.3035 0.1876 -0.9342
vn -0.5346 0.3304 -0.7779
vn -0.9050 0.3304 -0.2680
vn -0.9822 0.1876 -0.0000
vn -0.9050 0.3304 0.2680
vn -0.5346 0.3304 0.7779
vn -0.3035 0.1876 0.9342
vn -0.0247 0.3304 0.9435
vn 0.5746 0.3304 0.7488
vn 0.7947 0.1876 0.5773
vn 0.8897 0.3304 0.3151
vn 0.3066 0.1256 -0.9435
vn 0.3035 -0.1876 -0.9342
vn 0.0247 -0.3304 -0.9435
vn -0.8026 0.1256 -0.5831
vn -0.7947 -0.1876 -0.5773
vn -0.8897 -0.3304 -0.3151
vn -0.8026 0.1256 0.5831
vn -0.7947 -0.1876 0.5773
vn -0.5746 -0.3304 0.7488
vn 0.3066 0.1256 0.9435
vn 0.3035 -0.1876 0.9342
vn 0.5346 -0.3304 0.7779
vn 0.9921 0.1256 -0.0000
vn 0.9822 -0.1876 -0.0000
vn 0.9050 -0.3304 -0.2680
vn 0.4713 -0.6617 -0.5831
vn 0.1876 -0.7947 -0.5773
vn -0.0385 -0.6617 -0.7488
vn -0.4089 -0.6617 -0.6284
vn -0.4911 -0.7947 -0.3568
vn -0.7240 -0.6617 -0.1947
vn -0.7240 -0.6617 0.1947
vn -0.4911 -0.7947 0.3568
vn -0.4089 -0.6617 0.6284
vn 0.7002 -0.6617 -0.2680
vn 0.6071 -0.7947 -0.0000
vn 0.3313 -0.9435 -0.0000
vn -0.0385 -0.6617 0.7488
vn 0.1876 -0.7947 0.5773
vn 0.4713 -0.6617 0.5831
vt 0.249484 0.623707
vt 0.244601 0.632164
vt 0.254367 0.632164
vt 0.239719 0.640621
vt 0.234836 0.632164
vt 0.229953 0.640621
vt 0.171361 0.623707
vt 0.166478 0.632164
vt 0.176244 0.632164
vt 0.190892 0.623707
vt 0.186009 0.632164
vt 0.195774 0.632164
vt 0.210422 0.623707
vt 0.205540 0.632164
vt 0.215305 0.632164
vt 0.234836 0.649078
vt 0.259249 0.640621
vt 0.249484 0.640621
vt 0.254367 0.649078
vt 0.181126 0.640621
vt 0.171361 0.640621
vt 0.176244 0.649078
vt 0.200657 0.640621
vt 0.190892 0.640621
vt 0.195774 0.649078
vt 0.220188 0.640621
vt 0.210422 0.640621
vt 0.215305 0.649078
vt 0.244601 0.649078
vt 0.264132 0.649078
vt 0.186009 0.649078
vt 0.205540 0.649078
vt 0.225070 0.649078
vt 0.249484 0.657535
vt 0.239719 0.657535
vt 0.244601 0.665992
vt 0.269015 0.657535
vt 0.259249 0.657535
vt 0.264132 0.665992
vt 0.190892 0.657535
vt 0.181126 0.657535
vt 0.186009 0.665992
vt 0.210422 0.657535
vt 0.200657 0.657535
vt 0.205540 0.665992
vt 0.229953 0.657535
vt 0.220188 0.657535
vt 0.225070 0.665992
vt 0.215305 0.665992
vt 0.220188 0.674450
vt 0.195774 0.665992
vt 0.200657 0.674450
vt 0.176244 0.665992
vt 0.181126 0.674450
vt 0.171361 0.657535
vt 0.254367 0.665992
vt 0.259249 0.674450
vt 0.234836 0.665992
vt 0.239719 0.674450
vt 0.166478 0.649078
vt 0.161595 0.640621
vt 0.225070 0.632164
vt 0.229953 0.623707
s 1
usemtl molesAtlas
f 1/1/1 14/2/1 13/3/1
f 2/4/2 14/5/2 16/6/2
f 1/7/3 13/8/3 18/9/3
f 1/10/4 18/11/4 20/12/4
f 1/13/5 20/14/5 17/15/5
f 2/4/6 16/6/6 23/16/6
f 3/17/7 15/18/7 25/19/7
f 4/20/8 19/21/8 27/22/8
f 5/23/9 21/24/9 29/25/9
f 6/26/10 22/27/10 31/28/10
f 2/4/11 23/16/11 26/29/11
f 3/17/12 25/19/12 28/30/12
f 4/20/13 27/22/13 30/31/13
f 5/23/14 29/25/14 32/32/14
f 6/26/15 31/28/15 24/33/15
f 7/34/16 33/35/16 38/36/16
f 8/37/17 34/38/17 40/39/17
f 9/40/18 35/41/18 41/42/18
f 10/43/19 36/44/19 42/45/19
f 11/46/20 37/47/20 39/48/20
f 39/48/21 42/49/21 12/50/21
f 39/48/22 37/47/22 42/49/22
f 37/47/23 10/43/23 42/49/23
f 42/45/24 41/51/24 12/52/24
f 42/45/25 36/44/25 41/51/25
f 36/44/26 9/40/26 41/51/26
f 41/42/27 40/53/27 12/54/27
f 41/42/28 35/41/28 40/53/28
f 35/41/29 8/55/29 40/53/29
f 40/39/30 38/56/30 12/57/30
f 40/39/31 34/38/31 38/56/31
f 34/38/32 7/34/32 38/56/32
f 38/36/33 39/58/33 12/59/33
f 38/36/34 33/35/34 39/58/34
f 33/35/35 11/46/35 39/58/35
f 24/33/36 37/47/36 11/46/36
f 24/33/37 31/28/37 37/47/37
f 31/28/38 10/43/38 37/47/38
f 32/32/39 36/44/39 10/43/39
f 32/32/40 29/25/40 36/44/40
f 29/25/41 9/40/41 36/44/41
f 30/31/42 35/41/42 9/40/42
f 30/31/43 27/22/43 35/41/43
f 27/22/44 8/55/44 35/41/44
f 28/30/45 34/38/45 8/37/45
f 28/30/46 25/19/46 34/38/46
f 25/19/47 7/34/47 34/38/47
f 26/29/48 33/35/48 7/34/48
f 26/29/49 23/16/49 33/35/49
f 23/16/50 11/46/50 33/35/50
f 31/28/51 32/32/51 10/43/51
f 31/28/52 22/27/52 32/32/52
f 22/27/53 5/23/53 32/32/53
f 29/25/54 30/31/54 9/40/54
f 29/25/55 21/24/55 30/31/55
f 21/24/56 4/20/56 30/31/56
f 27/22/57 28/60/57 8/55/57
f 27/22/58 19/21/58 28/60/58
f 19/21/59 3/61/59 28/60/59
f 25/19/60 26/29/60 7/34/60
f 25/19/61 15/18/61 26/29/61
f 15/18/62 2/4/62 26/29/62
f 23/16/63 24/33/63 11/46/63
f 23/16/64 16/6/64 24/33/64
f 16/6/65 6/26/65 24/33/65
f 17/15/66 22/27/66 6/26/66
f 17/15/67 20/14/67 22/27/67
f 20/14/68 5/23/68 22/27/68
f 20/12/69 21/24/69 5/23/69
f 20/12/70 18/11/70 21/24/70
f 18/11/71 4/20/71 21/24/71
f 18/9/72 19/21/72 4/20/72
f 18/9/73 13/8/73 19/21/73
f 13/8/74 3/61/74 19/21/74
f 16/6/75 17/62/75 6/26/75
f 16/6/76 14/5/76 17/62/76
f 14/5/77 1/63/77 17/62/77
f 13/3/78 15/18/78 3/17/78
f 13/3/79 14/2/79 15/18/79
f 14/2/80 2/4/80 15/18/80
