# Blender 5.0.0
# www.blender.org
mtllib Fuse.mtl
o Cilindro.008
v 0.007308 1.117041 1.705892
v -0.201526 1.503630 1.779033
v 0.099194 1.124066 1.759097
v -0.192718 1.531244 1.795610
v 0.099194 1.124066 1.865507
v -0.192718 1.531244 1.828993
v 0.007308 1.117041 1.918711
v -0.201526 1.503630 1.845570
v -0.084577 1.110016 1.865507
v -0.210220 1.476190 1.828871
v -0.084577 1.110016 1.759097
v -0.210220 1.476190 1.795732
v -0.006259 1.294497 1.748456
v -0.025110 1.370567 1.753204
v -0.062659 1.437540 1.756512
v -0.120463 1.481956 1.756695
v -0.100290 1.521280 1.783995
v -0.023535 1.468920 1.783696
v 0.024447 1.386922 1.782453
v 0.048872 1.298712 1.780379
v -0.100290 1.521280 1.840608
v -0.023535 1.468920 1.840907
v 0.024447 1.386922 1.842150
v 0.048872 1.298712 1.844225
v -0.120463 1.481956 1.867908
v -0.062659 1.437540 1.868091
v -0.025110 1.370567 1.871399
v -0.006259 1.294497 1.876148
v -0.138368 1.438802 1.838486
v -0.099960 1.408955 1.838668
v -0.073867 1.355149 1.841365
v -0.061390 1.290282 1.844225
v -0.138368 1.438802 1.786117
v -0.099960 1.408955 1.785936
v -0.073867 1.355149 1.783238
v -0.061390 1.290282 1.780379
vn -0.0501 0.5726 -0.8183
vn -0.0727 0.5502 -0.8319
vn -0.0391 0.5833 -0.8113
vn 0.1072 0.9942 -0.0000
vn -0.0727 0.5502 0.8319
vn -0.0501 0.5726 0.8183
vn -0.0391 0.5833 0.8113
vn -0.3344 -0.4180 0.8447
vn -0.3395 -0.4230 0.8401
vn -0.3396 -0.4296 0.8367
vn -0.9530 0.3030 0.0003
vn -0.9531 0.3027 -0.0001
vn -0.9529 0.3032 -0.0001
vn -0.4616 -0.8871 -0.0000
vn -0.3395 -0.4229 -0.8401
vn -0.3344 -0.4180 -0.8447
vn -0.3396 -0.4296 -0.8367
vn 0.0762 -0.9971 -0.0000
vn -0.5036 0.1649 -0.8480
vn -0.5016 -0.0653 -0.8626
vn -0.5030 -0.0644 -0.8619
vn -0.4960 -0.0689 -0.8656
vn -0.4791 -0.2112 -0.8520
vn -0.4840 -0.2097 -0.8495
vn -0.4616 -0.2163 -0.8603
vn -0.3351 -0.4296 -0.8386
vn -0.3355 -0.4267 -0.8399
vn -0.9918 0.1276 -0.0000
vn -0.9820 -0.1889 -0.0000
vn -0.8998 -0.4363 -0.0000
vn -0.6136 -0.7896 -0.0000
vn -0.5036 0.1649 0.8480
vn -0.5030 -0.0644 0.8619
vn -0.5016 -0.0653 0.8626
vn -0.4960 -0.0689 0.8656
vn -0.4840 -0.2097 0.8495
vn -0.4791 -0.2112 0.8520
vn -0.4616 -0.2163 0.8603
vn -0.3351 -0.4296 0.8386
vn -0.3355 -0.4267 0.8399
vn 0.4727 0.2395 0.8480
vn 0.4710 0.1625 0.8671
vn 0.4764 0.1598 0.8646
vn 0.4862 0.1548 0.8600
vn 0.4089 0.2643 0.8735
vn 0.4156 0.2633 0.8706
vn 0.4250 0.2618 0.8665
vn 0.3029 0.4173 0.8568
vn 0.2907 0.4138 0.8627
vn 0.2759 0.4094 0.8696
vn 0.9609 0.2769 -0.0000
vn 0.9637 0.2671 -0.0000
vn 0.9637 0.2669 -0.0000
vn 0.8631 0.5051 -0.0000
vn 0.5635 0.8261 -0.0000
vn 0.4727 0.2395 -0.8480
vn 0.4764 0.1598 -0.8646
vn 0.4710 0.1625 -0.8671
vn 0.4862 0.1548 -0.8600
vn 0.4156 0.2633 -0.8706
vn 0.4089 0.2643 -0.8735
vn 0.4250 0.2618 -0.8665
vn 0.2907 0.4138 -0.8627
vn 0.3029 0.4173 -0.8568
vn 0.2759 0.4094 -0.8696
vn -0.0892 0.5334 -0.8411
vn -0.0892 0.5334 0.8411
vn -0.3285 -0.4129 0.8495
vn -0.9527 0.3039 -0.0000
vn -0.9533 0.3020 -0.0000
vn -0.9530 0.3030 -0.0017
vn -0.3285 -0.4129 -0.8495
vn -0.5096 -0.0602 -0.8583
vn -0.5057 -0.2032 -0.8385
vn -0.5096 -0.0602 0.8583
vn -0.5057 -0.2032 0.8385
vn 0.4593 0.1683 0.8722
vn 0.3970 0.2660 0.8784
vn 0.3222 0.4228 0.8470
vn 0.4593 0.1683 -0.8722
vn 0.3970 0.2660 -0.8784
vn 0.3222 0.4228 -0.8470
vt 0.250088 0.960201
vt 0.237329 0.967856
vt 0.237329 0.960201
vt 0.224570 0.960201
vt 0.224570 0.967856
vt 0.211811 0.960201
vt 0.211811 0.967856
vt 0.199052 0.960201
vt 0.192673 0.928813
vt 0.176761 0.901253
vt 0.208584 0.901253
vt 0.186293 0.967856
vt 0.186293 0.960201
vt 0.173534 0.967856
vt 0.173534 0.960201
vt 0.246861 0.919627
vt 0.230950 0.892067
vt 0.215038 0.919627
vt 0.186293 0.937234
vt 0.173534 0.929579
vt 0.186293 0.929579
vt 0.173534 0.944890
vt 0.173534 0.937234
vt 0.186293 0.944890
vt 0.173534 0.952545
vt 0.186293 0.952545
vt 0.199052 0.937234
vt 0.199052 0.929579
vt 0.199052 0.944890
vt 0.199052 0.952545
vt 0.211811 0.929579
vt 0.211811 0.944890
vt 0.211811 0.937234
vt 0.211811 0.952545
vt 0.224570 0.937234
vt 0.224570 0.929579
vt 0.224570 0.944890
vt 0.224570 0.952545
vt 0.237329 0.929579
vt 0.237329 0.944890
vt 0.237329 0.937234
vt 0.237329 0.952545
vt 0.250088 0.937234
vt 0.250088 0.929579
vt 0.250088 0.944890
vt 0.250088 0.952545
vt 0.250088 0.967856
vt 0.199052 0.967856
vt 0.208584 0.919627
vt 0.176761 0.919627
vt 0.192673 0.892067
vt 0.230950 0.928813
vt 0.246861 0.901253
vt 0.215038 0.901253
s 1
usemtl molesAtlas
f 16/1/1 4/2/2 17/3/3
f 4/2/4 21/4/4 17/3/4
f 6/5/5 25/6/6 21/4/7
f 8/7/8 29/8/9 25/6/10
f 2/9/11 10/10/12 6/11/13
f 29/8/14 12/12/14 33/13/14
f 33/13/15 2/14/16 16/15/17
f 3/16/18 7/17/18 11/18/18
f 36/19/19 1/20/19 11/21/19
f 36/19/20 14/22/21 13/23/22
f 35/24/23 15/25/24 14/22/25
f 33/13/15 15/25/26 34/26/27
f 32/27/28 11/21/28 9/28/28
f 31/29/29 36/19/29 32/27/29
f 30/30/30 35/24/30 31/29/30
f 29/8/31 34/26/31 30/30/31
f 7/31/32 32/27/32 9/28/32
f 27/32/33 32/27/34 28/33/35
f 26/34/36 31/29/37 27/32/38
f 26/34/39 29/8/9 30/30/40
f 24/35/41 7/31/41 5/36/41
f 23/37/42 28/33/43 24/35/44
f 22/38/45 27/32/46 23/37/47
f 21/4/48 26/34/49 22/38/50
f 3/39/51 24/35/52 5/36/51
f 19/40/53 24/35/52 20/41/52
f 19/40/54 22/38/54 23/37/54
f 18/42/55 21/4/55 22/38/55
f 13/43/56 3/39/56 1/44/56
f 13/43/57 19/40/58 20/41/59
f 14/45/60 18/42/61 19/40/62
f 15/46/63 17/3/64 18/42/65
f 16/1/1 2/47/66 4/2/2
f 4/2/4 6/5/4 21/4/4
f 6/5/5 8/7/67 25/6/6
f 8/7/8 10/48/68 29/8/9
f 6/11/13 4/49/69 2/9/11
f 2/9/11 12/50/70 10/10/12
f 10/10/12 8/51/71 6/11/13
f 29/8/14 10/48/14 12/12/14
f 33/13/15 12/12/72 2/14/16
f 11/18/18 1/52/18 3/16/18
f 3/16/18 5/53/18 7/17/18
f 7/17/18 9/54/18 11/18/18
f 36/19/19 13/23/19 1/20/19
f 36/19/20 35/24/73 14/22/21
f 35/24/23 34/26/74 15/25/24
f 33/13/15 16/15/17 15/25/26
f 32/27/28 36/19/28 11/21/28
f 31/29/29 35/24/29 36/19/29
f 30/30/30 34/26/30 35/24/30
f 29/8/31 33/13/31 34/26/31
f 7/31/32 28/33/32 32/27/32
f 27/32/33 31/29/75 32/27/34
f 26/34/36 30/30/76 31/29/37
f 26/34/39 25/6/10 29/8/9
f 24/35/41 28/33/41 7/31/41
f 23/37/42 27/32/77 28/33/43
f 22/38/45 26/34/78 27/32/46
f 21/4/48 25/6/79 26/34/49
f 3/39/51 20/41/52 24/35/52
f 19/40/53 23/37/53 24/35/52
f 19/40/54 18/42/54 22/38/54
f 18/42/55 17/3/55 21/4/55
f 13/43/56 20/41/56 3/39/56
f 13/43/57 14/45/80 19/40/58
f 14/45/60 15/46/81 18/42/61
f 15/46/63 16/1/82 17/3/64
