# Blender 5.0.0
# www.blender.org
mtllib BombMole.mtl
o Esfera_geodésica
v 0.000000 0.243149 1.812302
v 0.361804 0.519539 2.075164
v -0.138194 0.519539 2.237626
v -0.447213 0.519541 1.812302
v -0.138194 0.519539 1.386977
v 0.361804 0.519539 1.549439
v 0.138194 0.966759 2.237626
v -0.361804 0.966759 2.075164
v -0.361804 0.966759 1.549439
v 0.138194 0.966759 1.386977
v 0.447213 0.966757 1.812302
v 0.000000 1.243149 1.812302
v -0.081228 0.317822 2.062299
v 0.212661 0.317822 1.966807
v 0.131434 0.480280 2.216807
v 0.425324 0.480281 1.812302
v 0.212661 0.317822 1.657796
v -0.262865 0.317823 1.812302
v -0.344095 0.480281 2.062300
v -0.081228 0.317822 1.562304
v -0.344095 0.480281 1.562303
v 0.131434 0.480280 1.407796
v 0.475529 0.743149 1.966808
v 0.475529 0.743149 1.657795
v 0.000000 0.743149 2.312302
v 0.293893 0.743149 2.216810
v -0.475529 0.743149 1.966808
v -0.293893 0.743149 2.216810
v -0.293893 0.743149 1.407793
v -0.475529 0.743149 1.657795
v 0.293893 0.743149 1.407793
v 0.000000 0.743149 1.312302
v 0.344095 1.006017 2.062300
v -0.131434 1.006018 2.216807
v -0.425324 1.006017 1.812302
v -0.131434 1.006018 1.407796
v 0.344095 1.006017 1.562303
v 0.081228 1.168476 2.062299
v 0.262865 1.168475 1.812302
v -0.212661 1.168476 1.966807
v -0.212661 1.168476 1.657796
v 0.081228 1.168476 1.562304
v -0.500000 2.035985 0.660000
v -0.500000 2.035985 0.740000
v -0.437500 2.012539 0.660000
v -0.437500 2.012539 0.740000
v -0.391747 1.948485 0.660000
v -0.391747 1.948485 0.740000
v -0.375000 1.860985 0.660000
v -0.375000 1.860985 0.740000
v -0.391747 1.773485 0.660000
v -0.391747 1.773485 0.740000
v -0.437500 1.709430 0.660000
v -0.437500 1.709430 0.740000
v -0.500000 1.685985 0.660000
v -0.500000 1.685985 0.740000
v -0.562500 1.709430 0.660000
v -0.562500 1.709430 0.740000
v -0.608253 1.773485 0.660000
v -0.608253 1.773484 0.740000
v -0.625000 1.860984 0.660000
v -0.625000 1.860984 0.740000
v -0.608253 1.948485 0.660000
v -0.608253 1.948484 0.740000
v -0.562500 2.012539 0.660000
v -0.562500 2.012539 0.740000
v 0.000000 1.393624 1.494484
v 0.108540 1.476542 1.573342
v -0.041458 1.476542 1.622080
v -0.134164 1.476542 1.494484
v -0.041458 1.476542 1.366888
v 0.108540 1.476542 1.415626
v 0.041458 1.610706 1.622080
v -0.108540 1.610706 1.573342
v -0.108540 1.610706 1.415626
v 0.041458 1.610706 1.366888
v 0.134164 1.610706 1.494484
v 0.000000 1.693624 1.494484
v 0.007308 1.117041 1.705892
v -0.201526 1.503630 1.779033
v 0.099194 1.124066 1.759097
v -0.192718 1.531244 1.795610
v 0.099194 1.124066 1.865507
v -0.192718 1.531244 1.828993
v 0.007308 1.117041 1.918711
v -0.201526 1.503630 1.845570
v -0.084577 1.110016 1.865507
v -0.210220 1.476190 1.828871
v -0.084577 1.110016 1.759097
v -0.210220 1.476190 1.795732
v -0.006259 1.294497 1.748456
v -0.025110 1.370567 1.753204
v -0.062659 1.437540 1.756512
v -0.120463 1.481956 1.756695
v -0.100290 1.521280 1.783995
v -0.023535 1.468920 1.783696
v 0.024447 1.386922 1.782453
v 0.048872 1.298712 1.780379
v -0.100290 1.521280 1.840608
v -0.023535 1.468920 1.840907
v 0.024447 1.386922 1.842150
v 0.048872 1.298712 1.844225
v -0.120463 1.481956 1.867908
v -0.062659 1.437540 1.868091
v -0.025110 1.370567 1.871399
v -0.006259 1.294497 1.876148
v -0.138368 1.438802 1.838486
v -0.099960 1.408955 1.838668
v -0.073867 1.355149 1.841365
v -0.061390 1.290282 1.844225
v -0.138368 1.438802 1.786117
v -0.099960 1.408955 1.785936
v -0.073867 1.355149 1.783238
v -0.061390 1.290282 1.780379
v 0.919037 0.567165 1.016414
v 0.743609 0.349231 0.593304
v 1.271813 0.305395 0.677470
v 1.375216 0.824661 0.952535
v 1.046323 1.226269 1.083506
v 0.520563 0.895581 0.816350
v 1.089087 0.410584 0.237082
v 1.479437 0.704419 0.459101
v 1.256391 1.250769 0.682148
v 0.728187 1.294605 0.597982
v 0.624784 0.775339 0.322917
v 1.079549 0.994856 0.239978
v 0.802540 0.420513 0.845406
v 1.009065 0.244324 0.634976
v 0.567493 0.591226 0.716608
v 0.671438 0.741647 0.976509
v 1.244938 0.671249 1.056719
v 1.380314 0.523775 0.846128
v 0.900878 0.914357 1.107007
v 1.221669 1.057944 1.076087
v 0.665830 1.085073 0.978211
v 0.628750 0.520550 0.426574
v 0.497647 0.841685 0.557677
v 1.212132 0.280385 0.425594
v 0.901661 0.306149 0.376122
v 1.502353 0.758315 0.717775
v 1.441576 0.453096 0.556093
v 1.098340 1.293851 0.899330
v 1.371250 1.079450 0.848878
v 0.558424 1.146904 0.719358
v 0.787868 1.319615 0.849858
v 0.831816 0.556613 0.217193
v 1.334170 0.514927 0.297241
v 1.432507 1.008774 0.558844
v 0.990935 1.355676 0.640476
v 0.619686 1.076225 0.429324
v 1.099122 0.685643 0.168444
v 0.826212 0.900038 0.218896
v 1.328562 0.858353 0.298943
v 1.197460 1.179487 0.430045
v 0.886992 1.205253 0.380574
v 0.983121 0.257856 0.879529
v 1.026833 0.551502 1.032128
v 1.284862 0.309706 0.839746
v 1.219827 0.554868 1.072376
v 0.845354 0.797031 1.069335
v 1.230441 0.733837 1.147187
v 0.745643 1.144323 1.000748
v 1.073048 1.119649 1.131544
v 0.877732 1.299535 0.988065
v -0.827811 0.859759 1.051189
v -0.532575 1.026094 0.673750
v -0.949392 1.339518 0.800376
v -1.344406 0.923478 0.964280
v -1.307124 0.389783 0.984089
v -0.669977 0.416354 0.759394
v -0.828285 1.247071 0.336500
v -1.330023 1.183646 0.516058
v -1.467425 0.573906 0.601703
v -1.050609 0.260482 0.475076
v -0.655594 0.676522 0.311172
v -1.148441 0.773894 0.213717
v -0.638005 0.948239 0.908127
v -0.695508 1.250015 0.754504
v -0.531274 0.707394 0.730415
v -0.718767 0.589845 0.958467
v -1.157788 0.950770 1.089941
v -1.172691 1.189699 0.925274
v -1.013679 0.552565 1.064009
v -1.356854 0.624355 1.024555
v -0.906949 0.311717 0.886297
v -0.522817 0.860315 0.466956
v -0.603580 0.501920 0.517296
v -0.869321 1.379904 0.556273
v -0.624321 1.195679 0.481843
v -1.396420 1.098080 0.758157
v -1.164236 1.342625 0.661815
v -1.375679 0.404321 0.793609
v -1.477183 0.739685 0.808497
v -0.835764 0.257375 0.613638
v -1.130679 0.220096 0.719180
v -0.696631 0.990202 0.268726
v -1.093051 1.288283 0.389155
v -1.468726 0.892606 0.545038
v -1.304492 0.349985 0.520949
v -0.827309 0.410301 0.350179
v -0.986321 1.047435 0.211444
v -0.884815 0.712077 0.196557
v -1.281233 1.010155 0.316985
v -1.361995 0.651761 0.367325
v -1.116999 0.467537 0.292897
v -0.698004 1.172330 0.988215
v -0.909009 0.929407 1.077043
v -0.973398 1.308684 0.958476
v -1.072813 1.026395 1.128417
v -0.899525 0.623287 1.048686
v -1.186978 0.873238 1.163756
v -1.007547 0.304301 0.900912
v -1.272554 0.479761 1.055493
v -1.202772 0.257015 0.864161
v -0.214955 1.030902 2.146039
v 0.285697 0.529253 2.142351
v -0.285697 0.957046 2.142351
v 0.214955 0.455396 2.146039
v -0.171583 1.001204 2.187966
v -0.128211 0.971506 2.229893
v -0.045115 0.885761 2.279320
v 0.146690 0.720338 2.280898
v 0.202314 0.657998 2.263055
v 0.267658 0.564035 2.183980
v 0.171583 0.485094 2.187966
v 0.128211 0.514792 2.229893
v 0.045115 0.600537 2.279320
v -0.146690 0.765961 2.280898
v -0.202314 0.828301 2.263055
v -0.267658 0.922263 2.183980
v -0.226959 1.043092 2.164269
v 0.297701 0.517063 2.160581
v -0.297701 0.969235 2.160581
v 0.226959 0.443206 2.164269
v -0.182663 1.012490 2.207328
v -0.136432 0.980490 2.251726
v -0.048260 0.889569 2.303828
v 0.149715 0.716715 2.305448
v 0.209116 0.650098 2.285778
v 0.278820 0.552670 2.203248
v 0.182663 0.473808 2.207328
v 0.136433 0.505808 2.251726
v 0.048260 0.596729 2.303828
v -0.149715 0.769583 2.305448
v -0.209116 0.836200 2.285778
v -0.278820 0.933628 2.203248
v -0.287753 0.528194 2.146039
v 0.213896 1.028847 2.142351
v -0.213896 0.457452 2.142351
v 0.287753 0.958104 2.146039
v -0.258055 0.571566 2.187966
v -0.228357 0.614938 2.229893
v -0.142612 0.698035 2.279320
v 0.022812 0.889839 2.280898
v 0.085151 0.945463 2.263055
v 0.179114 1.010807 2.183980
v 0.258055 0.914732 2.187966
v 0.228357 0.871360 2.229893
v 0.142612 0.788264 2.279320
v -0.022812 0.596459 2.280898
v -0.085151 0.540835 2.263055
v -0.179114 0.475491 2.183980
v -0.299943 0.516190 2.164269
v 0.226086 1.040850 2.160581
v -0.226086 0.445448 2.160581
v 0.299943 0.970109 2.164269
v -0.269341 0.560486 2.207328
v -0.237341 0.606717 2.251726
v -0.146420 0.694890 2.303828
v 0.026434 0.892864 2.305448
v 0.093051 0.952265 2.285778
v 0.190479 1.021969 2.203248
v 0.269341 0.925812 2.207328
v 0.237341 0.879582 2.251726
v 0.146420 0.791409 2.303828
v -0.026434 0.593434 2.305448
v -0.093051 0.534033 2.285778
v -0.190479 0.464330 2.203248
v -0.102751 0.732737 2.279320
v -0.004316 0.848714 2.279320
v 0.113537 0.754031 2.279320
v 0.008537 0.625391 2.279320
v -0.095317 0.747073 2.315092
v 0.014834 0.638453 2.315092
v 0.100475 0.750480 2.315092
v -0.006523 0.834233 2.313471
v 0.002074 0.741225 2.324774
v 0.596462 1.148754 0.790000
v 0.617168 1.226028 0.790000
v 0.596462 1.148754 0.710000
v 0.617168 1.226028 0.710000
v 0.982833 1.045226 0.790000
v 1.003538 1.122500 0.790000
v 0.982833 1.045226 0.710000
v 1.003538 1.122500 0.710000
v -1.050000 1.360000 0.790000
v -1.050000 1.440000 0.790000
v -1.050000 1.360000 0.710000
v -1.050000 1.440000 0.710000
v -0.550000 1.360000 0.790000
v -0.550000 1.440000 0.790000
v -0.550000 1.360000 0.710000
v -0.550000 1.440000 0.710000
v 0.550000 1.360000 0.790000
v 0.550000 1.440000 0.790000
v 0.550000 1.360000 0.710000
v 0.550000 1.440000 0.710000
v 1.050000 1.360000 0.790000
v 1.050000 1.440000 0.790000
v 1.050000 1.360000 0.710000
v 1.050000 1.440000 0.710000
v -0.982832 1.045226 0.790000
v -1.003538 1.122500 0.790000
v -0.982832 1.045226 0.710000
v -1.003538 1.122500 0.710000
v -0.596462 1.148754 0.790000
v -0.617167 1.226028 0.790000
v -0.596462 1.148754 0.710000
v -0.617167 1.226028 0.710000
v 0.000000 1.804643 0.555880
v 0.000000 1.764305 0.755880
v 0.293893 1.709152 0.555880
v 0.293893 1.668814 0.755880
v 0.475528 1.459152 0.555880
v 0.475528 1.459152 0.755880
v 0.475528 1.150135 0.555880
v 0.475528 1.150135 0.755880
v 0.293893 0.900135 0.555880
v 0.293893 0.900135 0.755880
v -0.000000 0.804643 0.555880
v -0.000000 0.804643 0.755880
v -0.293893 0.900135 0.555880
v -0.293893 0.900135 0.755880
v -0.475528 1.150135 0.555880
v -0.475528 1.150135 0.755880
v -0.475528 1.459152 0.555880
v -0.475528 1.459152 0.755880
v -0.293892 1.709152 0.555880
v -0.293892 1.668814 0.755880
v 0.205725 1.513785 1.005880
v 0.000000 1.580629 1.005880
v 0.332870 1.412799 1.005880
v 0.332870 1.196487 1.005880
v 0.205725 1.021487 1.005880
v 0.000000 0.954643 1.005880
v -0.205725 1.021487 1.005880
v -0.332870 1.196487 1.005880
v -0.332870 1.412799 1.005880
v -0.205725 1.513786 1.005880
v 0.129572 1.449309 1.255880
v -0.000000 1.491410 1.255880
v 0.209653 1.372764 1.255880
v 0.209653 1.236523 1.255880
v 0.129573 1.126302 1.255880
v -0.000000 1.084201 1.255880
v -0.129573 1.126302 1.255880
v -0.209653 1.236523 1.255880
v -0.209653 1.372764 1.255880
v -0.129572 1.449309 1.255880
v 0.041405 1.540349 1.505880
v -0.000000 1.553802 1.505880
v 0.066994 1.505128 1.505880
v 0.066994 1.461592 1.505880
v 0.041405 1.426371 1.505880
v -0.000000 1.412918 1.505880
v -0.041405 1.426371 1.505880
v -0.066994 1.461592 1.505880
v -0.066994 1.505128 1.505880
v -0.041405 1.540349 1.505880
v 0.000000 0.000000 0.000000
v 0.868329 0.329171 0.525725
v -0.331666 0.329170 0.850649
v -1.073312 0.329177 0.000000
v -0.331666 0.329170 -0.850649
v 0.868329 0.329171 -0.525725
v 0.331666 1.670830 0.750649
v -0.868329 1.670829 0.525725
v -0.868329 1.670829 -0.525725
v 0.331666 1.670830 -0.850649
v 1.073312 1.670823 0.000000
v 0.000000 2.500000 0.000000
v -0.194947 -0.025982 0.499995
v 0.510387 -0.025981 0.309011
v 0.315443 0.211394 0.809012
v 1.020777 0.211396 0.000000
v 0.510387 -0.025981 -0.309011
v -0.630876 -0.025977 0.000000
v -0.825827 0.211396 0.499997
v -0.194947 -0.025982 -0.499995
v -0.825827 0.211396 -0.499997
v 0.315443 0.211394 -0.809012
v 1.141269 1.000000 0.309013
v 1.141269 1.000000 -0.309013
v 0.000000 1.000000 0.980175
v 0.705343 1.000000 0.789191
v -1.141269 1.000000 0.309013
v -0.705343 1.000000 0.789191
v -0.705343 1.000000 -0.809017
v -1.141269 1.000000 -0.309013
v 0.705343 1.000000 -0.809017
v 0.000000 1.000000 -1.000000
v 0.825827 1.788604 0.499997
v -0.315443 1.788607 0.709012
v -1.020777 1.788604 0.000000
v -0.315443 1.788607 -0.809012
v 0.825827 1.788604 -0.499997
v 0.194947 2.275981 0.499995
v 0.630876 2.275978 0.000000
v -0.510387 2.275981 0.309011
v -0.510387 2.275981 -0.309011
v 0.194947 2.275981 -0.499995
v 0.500000 2.035985 0.660000
v 0.500000 2.035985 0.740000
v 0.562500 2.012539 0.660000
v 0.562500 2.012539 0.740000
v 0.608253 1.948485 0.660000
v 0.608253 1.948485 0.740000
v 0.625000 1.860985 0.660000
v 0.625000 1.860985 0.740000
v 0.608253 1.773485 0.660000
v 0.608253 1.773485 0.740000
v 0.562500 1.709430 0.660000
v 0.562500 1.709430 0.740000
v 0.500000 1.685985 0.660000
v 0.500000 1.685985 0.740000
v 0.437500 1.709430 0.660000
v 0.437500 1.709430 0.740000
v 0.391747 1.773485 0.660000
v 0.391747 1.773484 0.740000
v 0.375000 1.860984 0.660000
v 0.375000 1.860984 0.740000
v 0.391747 1.948485 0.660000
v 0.391747 1.948484 0.740000
v 0.437500 2.012539 0.660000
v 0.437500 2.012539 0.740000
vn 0.1024 -0.9435 0.3151
vn 0.7002 -0.6617 0.2680
vn -0.2680 -0.9435 0.1947
vn -0.2680 -0.9435 -0.1947
vn 0.1024 -0.9435 -0.3151
vn 0.9050 -0.3304 0.2680
vn 0.0247 -0.3304 0.9435
vn -0.8897 -0.3304 0.3151
vn -0.5746 -0.3304 -0.7488
vn 0.5346 -0.3304 -0.7779
vn 0.8026 -0.1256 0.5831
vn -0.3066 -0.1256 0.9435
vn -0.9921 -0.1256 -0.0000
vn -0.3066 -0.1256 -0.9435
vn 0.8026 -0.1256 -0.5831
vn 0.4089 0.6617 0.6284
vn -0.4713 0.6617 0.5831
vn -0.7002 0.6617 -0.2680
vn 0.0385 0.6617 -0.7488
vn 0.7240 0.6617 -0.1947
vn 0.2680 0.9435 -0.1947
vn 0.4911 0.7947 -0.3568
vn 0.4089 0.6617 -0.6284
vn -0.1024 0.9435 -0.3151
vn -0.1876 0.7947 -0.5773
vn -0.4713 0.6617 -0.5831
vn -0.3313 0.9435 -0.0000
vn -0.6071 0.7947 -0.0000
vn -0.7002 0.6617 0.2680
vn -0.1024 0.9435 0.3151
vn -0.1876 0.7947 0.5773
vn 0.0385 0.6617 0.7488
vn 0.2680 0.9435 0.1947
vn 0.4911 0.7947 0.3568
vn 0.7240 0.6617 0.1947
vn 0.8897 0.3304 -0.3151
vn 0.7947 0.1876 -0.5773
vn 0.5746 0.3304 -0.7488
vn -0.0247 0.3304 -0.9435
vn -0.3035 0.1876 -0.9342
vn -0.5346 0.3304 -0.7779
vn -0.9050 0.3304 -0.2680
vn -0.9822 0.1876 -0.0000
vn -0.9050 0.3304 0.2680
vn -0.5346 0.3304 0.7779
vn -0.3035 0.1876 0.9342
vn -0.0247 0.3304 0.9435
vn 0.5746 0.3304 0.7488
vn 0.7947 0.1876 0.5773
vn 0.8897 0.3304 0.3151
vn 0.3066 0.1256 -0.9435
vn 0.3035 -0.1876 -0.9342
vn 0.0247 -0.3304 -0.9435
vn -0.8026 0.1256 -0.5831
vn -0.7947 -0.1876 -0.5773
vn -0.8897 -0.3304 -0.3151
vn -0.8026 0.1256 0.5831
vn -0.7947 -0.1876 0.5773
vn -0.5746 -0.3304 0.7488
vn 0.3066 0.1256 0.9435
vn 0.3035 -0.1876 0.9342
vn 0.5346 -0.3304 0.7779
vn 0.9921 0.1256 -0.0000
vn 0.9822 -0.1876 -0.0000
vn 0.9050 -0.3304 -0.2680
vn 0.4713 -0.6617 -0.5831
vn 0.1876 -0.7947 -0.5773
vn -0.0385 -0.6617 -0.7488
vn -0.4089 -0.6617 -0.6284
vn -0.4911 -0.7947 -0.3568
vn -0.7240 -0.6617 -0.1947
vn -0.7240 -0.6617 0.1947
vn -0.4911 -0.7947 0.3568
vn -0.4089 -0.6617 0.6284
vn 0.7002 -0.6617 -0.2680
vn 0.6071 -0.7947 -0.0000
vn 0.3313 -0.9435 -0.0000
vn -0.0385 -0.6617 0.7488
vn 0.1876 -0.7947 0.5773
vn 0.4713 -0.6617 0.5831
vn 0.3512 0.9363 -0.0000
vn 0.8137 0.5812 -0.0000
vn 0.9822 0.1880 -0.0000
vn 0.9822 -0.1880 -0.0000
vn 0.8137 -0.5812 -0.0000
vn 0.3512 -0.9363 -0.0000
vn -0.3512 -0.9363 -0.0000
vn -0.8137 -0.5812 -0.0000
vn -0.9822 -0.1880 -0.0000
vn -0.9822 0.1880 -0.0000
vn -0.0000 -0.0000 1.0000
vn -0.8137 0.5812 -0.0000
vn -0.3512 0.9363 -0.0000
vn -0.0000 -0.0000 -1.0000
vn 0.1876 -0.7947 0.5774
vn 0.1876 -0.7947 -0.5774
vn -0.7946 -0.1876 0.5774
vn -0.7946 -0.1876 -0.5774
vn 0.7946 0.1876 0.5774
vn 0.7946 0.1876 -0.5774
vn -0.1876 0.7947 0.5774
vn -0.1876 0.7947 -0.5774
vn -0.0501 0.5726 -0.8183
vn -0.0727 0.5502 -0.8319
vn -0.0391 0.5833 -0.8113
vn 0.1072 0.9942 -0.0000
vn -0.0727 0.5502 0.8319
vn -0.0501 0.5726 0.8183
vn -0.0391 0.5833 0.8113
vn -0.3344 -0.4180 0.8447
vn -0.3395 -0.4230 0.8401
vn -0.3396 -0.4296 0.8367
vn -0.9530 0.3030 0.0003
vn -0.9531 0.3027 -0.0001
vn -0.9529 0.3032 -0.0001
vn -0.4616 -0.8871 -0.0000
vn -0.3395 -0.4229 -0.8401
vn -0.3344 -0.4180 -0.8447
vn -0.3396 -0.4296 -0.8367
vn 0.0762 -0.9971 -0.0000
vn -0.5036 0.1649 -0.8480
vn -0.5016 -0.0653 -0.8626
vn -0.5030 -0.0644 -0.8619
vn -0.4960 -0.0689 -0.8656
vn -0.4791 -0.2112 -0.8520
vn -0.4840 -0.2097 -0.8495
vn -0.4616 -0.2163 -0.8603
vn -0.3351 -0.4296 -0.8386
vn -0.3355 -0.4267 -0.8399
vn -0.9918 0.1276 -0.0000
vn -0.9820 -0.1889 -0.0000
vn -0.8998 -0.4363 -0.0000
vn -0.6136 -0.7896 -0.0000
vn -0.5036 0.1649 0.8480
vn -0.5030 -0.0644 0.8619
vn -0.5016 -0.0653 0.8626
vn -0.4960 -0.0689 0.8656
vn -0.4840 -0.2097 0.8495
vn -0.4791 -0.2112 0.8520
vn -0.4616 -0.2163 0.8603
vn -0.3351 -0.4296 0.8386
vn -0.3355 -0.4267 0.8399
vn 0.4727 0.2395 0.8480
vn 0.4710 0.1625 0.8671
vn 0.4764 0.1598 0.8646
vn 0.4862 0.1548 0.8600
vn 0.4089 0.2643 0.8735
vn 0.4156 0.2633 0.8706
vn 0.4250 0.2618 0.8665
vn 0.3029 0.4173 0.8568
vn 0.2907 0.4138 0.8627
vn 0.2759 0.4094 0.8696
vn 0.9609 0.2769 -0.0000
vn 0.9637 0.2671 -0.0000
vn 0.9637 0.2669 -0.0000
vn 0.8631 0.5051 -0.0000
vn 0.5635 0.8261 -0.0000
vn 0.4727 0.2395 -0.8480
vn 0.4764 0.1598 -0.8646
vn 0.4710 0.1625 -0.8671
vn 0.4862 0.1548 -0.8600
vn 0.4156 0.2633 -0.8706
vn 0.4089 0.2642 -0.8735
vn 0.4250 0.2618 -0.8665
vn 0.2907 0.4138 -0.8627
vn 0.3029 0.4173 -0.8568
vn 0.2759 0.4094 -0.8696
vn 0.1783 -0.9813 0.0732
vn -0.6678 -0.6607 0.3429
vn 0.2252 -0.9743 0.0078
vn -0.8157 -0.5776 -0.0315
vn 0.2193 -0.9746 0.0448
vn 0.8472 -0.1643 0.5052
vn 0.6384 0.6466 0.4176
vn -0.8563 0.2931 0.4253
vn -0.6221 -0.7189 -0.3101
vn 0.6253 -0.7771 -0.0710
vn 0.8850 0.1872 0.4263
vn 0.1773 0.9067 0.3828
vn -0.9843 0.1684 0.0521
vn -0.0611 -0.2396 -0.9690
vn 0.7351 0.0154 -0.6778
vn 0.6678 0.6607 -0.3429
vn -0.1306 0.8798 -0.4570
vn -0.5672 0.2660 -0.7794
vn -0.1081 0.4821 -0.8694
vn -0.3800 0.4909 -0.7840
vn -0.4347 0.6757 -0.5953
vn 0.1718 0.6512 -0.7392
vn 0.1548 0.8270 -0.5405
vn 0.3913 0.8575 -0.3339
vn 0.4454 0.4882 -0.7505
vn 0.6661 0.4985 -0.5549
vn 0.8197 0.2886 -0.4948
vn 0.3429 0.2323 -0.9102
vn 0.4874 0.0123 -0.8731
vn 0.3266 -0.2400 -0.9142
vn -0.0032 0.2252 -0.9743
vn -0.1803 0.0019 -0.9836
vn -0.4573 -0.0031 -0.8893
vn -0.8472 0.1643 -0.5052
vn -0.9067 0.3238 -0.2704
vn -0.7395 0.6012 -0.3027
vn -0.2193 0.9746 -0.0448
vn 0.0469 0.9758 0.2136
vn 0.3564 0.9314 0.0746
vn 0.8157 0.5776 0.0315
vn 0.9352 0.3344 0.1160
vn 0.9734 0.1914 -0.1261
vn 0.8563 -0.2931 -0.4253
vn 0.6862 -0.5899 -0.4256
vn 0.4212 -0.5942 -0.6853
vn -0.2622 -0.5681 -0.7801
vn -0.5493 -0.5515 -0.6278
vn -0.6611 -0.2916 -0.6914
vn -0.6253 0.7771 0.0710
vn -0.6862 0.5899 0.4256
vn -0.6388 0.5845 0.5003
vn 0.6221 0.7189 0.3101
vn 0.6001 0.6563 0.4572
vn 0.8012 0.2362 0.5498
vn 0.9843 -0.1684 -0.0521
vn 0.9067 -0.3238 0.2704
vn 0.7395 -0.6012 0.3027
vn 0.0246 -0.8150 -0.5790
vn -0.0469 -0.9758 -0.2136
vn -0.3564 -0.9314 -0.0746
vn -0.8850 -0.1872 -0.4264
vn -0.9352 -0.3344 -0.1160
vn -0.9734 -0.1914 0.1261
vn -0.7351 -0.0154 0.6778
vn -0.4874 -0.0123 0.8731
vn -0.5965 0.6013 0.5316
vn -0.4518 -0.0717 0.8892
vn 0.6256 -0.0014 0.7802
vn 0.7492 -0.2095 0.6283
vn 0.9122 -0.4049 -0.0626
vn 0.8057 -0.0952 0.5846
vn -0.8197 -0.2886 0.4948
vn -0.6661 -0.4985 0.5549
vn -0.4646 -0.4906 0.7372
vn -0.1374 0.0471 0.9894
vn -0.5279 -0.4328 0.7308
vn -0.3913 -0.8575 0.3339
vn -0.6659 -0.7455 -0.0294
vn 0.7415 -0.3477 0.5738
vn -0.2040 0.1736 0.9635
vn 0.1822 -0.7947 0.5790
vn 0.9911 0.0535 0.1218
vn -0.3654 -0.3185 0.8747
vn -0.0017 0.2142 0.9768
vn 0.2228 -0.2978 0.9283
vn 0.4714 0.4578 0.7538
vn -0.3655 0.3047 0.8795
vn 0.0663 0.9927 0.1011
vn -0.3793 0.1646 0.9105
vn 0.3986 0.8690 0.2931
vn 0.8988 0.0803 0.4310
vn 0.3603 0.9038 0.2310
vn 0.9992 0.0109 0.0384
vn 0.3629 0.8928 0.2668
vn -0.6405 0.4987 0.5840
vn -0.9174 -0.2482 0.3112
vn 0.5136 -0.8058 0.2947
vn 0.9373 0.2921 -0.1900
vn -0.0752 0.9875 0.1387
vn -0.8636 0.2556 0.4345
vn -0.6806 -0.7074 0.1909
vn 0.7142 -0.6981 -0.0509
vn 0.2494 0.3645 -0.8972
vn -0.5699 0.5452 -0.6148
vn -0.8988 -0.0803 -0.4310
vn -0.3554 -0.6791 -0.6423
vn 0.3707 -0.3643 -0.8543
vn -0.1233 -0.2602 -0.9577
vn 0.0903 -0.4381 -0.8944
vn 0.0192 -0.6570 -0.7537
vn -0.4579 -0.2662 -0.8482
vn -0.5557 -0.4588 -0.6933
vn -0.7817 -0.3947 -0.4828
vn -0.5913 0.0200 -0.8062
vn -0.7922 0.0938 -0.6030
vn -0.8052 0.3350 -0.4893
vn -0.3525 0.2013 -0.9139
vn -0.3508 0.4504 -0.8210
vn -0.0738 0.5707 -0.8178
vn -0.0587 0.0265 -0.9979
vn 0.2133 0.1077 -0.9710
vn 0.4384 -0.0640 -0.8965
vn 0.6405 -0.4987 -0.5840
vn 0.5844 -0.7098 -0.3933
vn 0.2930 -0.8310 -0.4729
vn -0.3629 -0.8928 -0.2668
vn -0.6005 -0.7996 0.0026
vn -0.8216 -0.5608 -0.1028
vn -0.9992 -0.0109 -0.0384
vn -0.9670 0.2325 0.1039
vn -0.9021 0.4201 -0.0989
vn -0.5136 0.8058 -0.2947
vn -0.2067 0.9478 -0.2429
vn 0.0316 0.8580 -0.5127
vn 0.5871 0.4740 -0.6562
vn 0.8045 0.2671 -0.5305
vn 0.7551 0.0101 -0.6555
vn 0.0752 -0.9875 -0.1387
vn 0.2067 -0.9478 0.2429
vn 0.1657 -0.9328 0.3199
vn -0.9373 -0.2921 0.1900
vn -0.8939 -0.2859 0.3452
vn -0.8302 0.1431 0.5388
vn -0.7142 0.6981 0.0509
vn -0.5844 0.7098 0.3933
vn -0.2930 0.8310 0.4729
vn 0.4756 0.7893 -0.3883
vn 0.6005 0.7996 -0.0026
vn 0.8216 0.5608 0.1028
vn 0.8636 -0.2556 -0.4345
vn 0.9670 -0.2325 -0.1039
vn 0.9021 -0.4201 0.0989
vn 0.5699 -0.5452 0.6148
vn 0.3508 -0.4504 0.8210
vn 0.1193 -0.9292 0.3497
vn 0.3537 -0.3863 0.8518
vn -0.5674 0.1853 0.8023
vn -0.5425 0.4535 0.7071
vn -0.5213 0.8490 0.0864
vn -0.6503 0.4032 0.6438
vn 0.8052 -0.3350 0.4893
vn 0.7922 -0.0938 0.6030
vn 0.6094 -0.0260 0.7924
vn 0.0210 -0.3263 0.9450
vn 0.6297 -0.1064 0.7696
vn 0.7817 0.3947 0.4828
vn 0.9696 0.2287 0.0864
vn -0.4549 0.5714 0.6830
vn 0.0066 -0.4593 0.8882
vn 0.2570 0.6139 0.7464
vn -0.8559 0.4872 0.1733
vn 0.4219 -0.1374 0.8962
vn -0.1839 -0.3812 0.9060
vn -0.0786 0.1645 0.9832
vn -0.6960 -0.2628 0.6682
vn 0.0720 -0.6368 0.7676
vn -0.6184 -0.7782 -0.1093
vn 0.1599 -0.5392 0.8268
vn -0.5094 0.4934 -0.7051
vn -0.4595 0.4832 -0.7452
vn -0.4219 0.4745 -0.7726
vn 0.4595 -0.4832 -0.7452
vn 0.5094 -0.4934 -0.7051
vn 0.5581 -0.5016 -0.6610
vn 0.4145 -0.4220 -0.8063
vn 0.4170 -0.4387 -0.7960
vn 0.4113 -0.4023 -0.8179
vn 0.1786 -0.2170 -0.9597
vn 0.1956 -0.2681 -0.9433
vn 0.1534 -0.1430 -0.9778
vn -0.1956 0.2681 -0.9433
vn -0.1786 0.2170 -0.9597
vn -0.2138 0.3240 -0.9216
vn -0.4170 0.4387 -0.7960
vn -0.4145 0.4220 -0.8063
vn 0.4603 -0.4833 0.7447
vn 0.5076 -0.4923 0.7071
vn 0.4223 -0.4750 0.7720
vn -0.5076 0.4923 0.7071
vn -0.4603 0.4833 0.7447
vn -0.5566 0.5000 0.6635
vn -0.4134 0.4207 0.8075
vn -0.4152 0.4349 0.7991
vn -0.4193 0.4711 0.7761
vn -0.1814 0.2227 0.9579
vn -0.1942 0.2659 0.9442
vn -0.2110 0.3239 0.9223
vn 0.1942 -0.2659 0.9442
vn 0.1814 -0.2227 0.9579
vn 0.1584 -0.1471 0.9764
vn 0.4152 -0.4348 0.7991
vn 0.4134 -0.4207 0.8076
vn 0.4106 -0.4002 0.8193
vn 0.7984 0.6010 -0.0370
vn 0.7838 0.6157 -0.0817
vn 0.7814 0.6177 -0.0883
vn 0.5092 -0.5219 -0.6843
vn -0.6284 -0.7715 -0.0993
vn -0.6241 -0.7756 -0.0950
vn -0.6236 -0.7759 -0.0954
vn 0.6284 0.7715 -0.0993
vn 0.6241 0.7756 -0.0950
vn 0.6236 0.7759 -0.0954
vn -0.6221 -0.7780 -0.0881
vn -0.6217 -0.7785 -0.0862
vn 0.6221 0.7780 -0.0881
vn 0.6217 0.7785 -0.0862
vn -0.7220 -0.6917 -0.0146
vn -0.7218 -0.6920 -0.0132
vn -0.7220 -0.6917 -0.0148
vn 0.7220 0.6917 -0.0146
vn 0.7218 0.6920 -0.0132
vn 0.7220 0.6917 -0.0148
vn 0.8050 0.5791 -0.1290
vn 0.8027 0.5809 -0.1355
vn 0.8015 0.5817 -0.1388
vn -0.8050 -0.5791 -0.1291
vn -0.8027 -0.5809 -0.1355
vn -0.8015 -0.5817 -0.1388
vn -0.7473 -0.6644 0.0070
vn -0.7471 -0.6647 0.0063
vn -0.7474 -0.6643 0.0072
vn 0.7473 0.6644 0.0070
vn 0.7471 0.6647 0.0063
vn 0.7474 0.6643 0.0072
vn -0.5092 0.5219 -0.6843
vn -0.7984 -0.6010 -0.0370
vn -0.7838 -0.6157 -0.0817
vn -0.7814 -0.6177 -0.0883
vn -0.4934 -0.5094 -0.7051
vn -0.4832 -0.4595 -0.7452
vn -0.4745 -0.4219 -0.7726
vn 0.4832 0.4595 -0.7452
vn 0.4934 0.5094 -0.7051
vn 0.5016 0.5581 -0.6610
vn 0.4220 0.4145 -0.8063
vn 0.4387 0.4170 -0.7960
vn 0.4023 0.4113 -0.8179
vn 0.2170 0.1786 -0.9597
vn 0.2681 0.1956 -0.9433
vn 0.1430 0.1534 -0.9778
vn -0.2681 -0.1956 -0.9433
vn -0.2170 -0.1786 -0.9597
vn -0.3240 -0.2138 -0.9216
vn -0.4387 -0.4170 -0.7960
vn -0.4220 -0.4145 -0.8063
vn 0.4833 0.4603 0.7447
vn 0.4923 0.5076 0.7071
vn 0.4750 0.4223 0.7720
vn -0.4923 -0.5076 0.7071
vn -0.4833 -0.4603 0.7447
vn -0.5000 -0.5566 0.6635
vn -0.4207 -0.4134 0.8076
vn -0.4349 -0.4152 0.7991
vn -0.4711 -0.4193 0.7761
vn -0.2227 -0.1814 0.9579
vn -0.2659 -0.1942 0.9442
vn -0.3239 -0.2110 0.9223
vn 0.2659 0.1942 0.9442
vn 0.2227 0.1814 0.9579
vn 0.1471 0.1584 0.9764
vn 0.4348 0.4152 0.7991
vn 0.4207 0.4134 0.8076
vn 0.4002 0.4106 0.8193
vn -0.6009 0.7984 -0.0370
vn -0.6157 0.7838 -0.0817
vn -0.6177 0.7814 -0.0883
vn 0.5219 0.5092 -0.6843
vn 0.7715 -0.6284 -0.0993
vn 0.7756 -0.6241 -0.0950
vn 0.7759 -0.6236 -0.0954
vn -0.7715 0.6284 -0.0993
vn -0.7756 0.6241 -0.0950
vn -0.7759 0.6236 -0.0954
vn 0.7780 -0.6221 -0.0881
vn 0.7785 -0.6217 -0.0862
vn -0.7780 0.6221 -0.0881
vn -0.7785 0.6217 -0.0862
vn 0.6917 -0.7220 -0.0146
vn 0.6920 -0.7218 -0.0132
vn 0.6917 -0.7220 -0.0148
vn -0.6917 0.7220 -0.0146
vn -0.6920 0.7218 -0.0132
vn -0.6917 0.7220 -0.0148
vn -0.5791 0.8050 -0.1291
vn -0.5809 0.8027 -0.1355
vn -0.5817 0.8015 -0.1388
vn 0.5791 -0.8050 -0.1291
vn 0.5809 -0.8027 -0.1355
vn 0.5817 -0.8015 -0.1388
vn 0.6644 -0.7473 0.0070
vn 0.6647 -0.7471 0.0063
vn 0.6643 -0.7474 0.0072
vn -0.6644 0.7473 0.0070
vn -0.6647 0.7471 0.0063
vn -0.6643 0.7474 0.0072
vn -0.5219 -0.5092 -0.6843
vn 0.6010 -0.7984 -0.0370
vn 0.6157 -0.7838 -0.0817
vn 0.6177 -0.7814 -0.0883
vn -0.0062 0.0023 -1.0000
vn -0.0220 0.0083 -0.9997
vn -0.0279 0.0105 -0.9996
vn 0.0025 0.0060 -1.0000
vn 0.0103 0.0250 -0.9996
vn 0.0124 0.0301 -0.9995
vn 0.0227 -0.0165 -0.9996
vn 0.0096 0.0027 -1.0000
vn 0.0260 -0.0212 -0.9994
vn -0.0193 -0.0229 -0.9996
vn 0.0013 -0.0108 -0.9999
vn -0.0257 -0.0266 -0.9993
vn -0.0980 0.1105 0.9890
vn -0.1159 0.1163 0.9864
vn -0.0870 0.1070 0.9904
vn 0.0911 0.1022 0.9906
vn 0.0994 0.1330 0.9861
vn 0.0869 0.0869 0.9924
vn 0.1329 -0.1077 0.9853
vn 0.1468 -0.1322 0.9803
vn 0.1523 -0.1420 0.9781
vn -0.1086 -0.1107 0.9879
vn -0.1046 -0.1065 0.9888
vn -0.1060 -0.1095 0.9883
vn 0.7323 -0.6790 0.0530
vn 0.7024 -0.7005 0.1259
vn 0.7617 -0.6469 -0.0353
vn 0.6646 0.7357 0.1305
vn 0.6181 0.7543 0.2215
vn 0.5793 0.7628 0.2873
vn -0.8423 0.5307 0.0945
vn -0.8487 0.5113 0.1348
vn -0.8516 0.5002 0.1571
vn 0.7052 0.7030 0.0926
vn 0.7290 0.6425 0.2362
vn 0.6720 0.7400 -0.0288
vn -0.4547 -0.8669 0.2042
vn -0.5081 -0.7988 0.3222
vn -0.3940 -0.9150 0.0865
vn -0.6713 0.7392 -0.0546
vn -0.6861 0.7187 -0.1127
vn -0.6566 0.7542 -0.0052
vn 0.6971 -0.7146 0.0589
vn 0.7095 -0.6982 0.0957
vn 0.7182 -0.6848 0.1236
vn -0.6310 -0.7651 0.1280
vn -0.6622 -0.7080 0.2453
vn -0.5611 -0.8258 -0.0563
vn -0.0917 0.1118 0.9895
vn -0.1066 -0.1075 0.9885
vn -0.1047 -0.1062 0.9888
vn 0.0852 0.1280 0.9881
vn 0.1051 -0.0803 0.9912
vn -0.9659 0.2588 -0.0000
vn 0.9659 -0.2588 -0.0000
vn -0.2588 -0.9659 -0.0000
vn 0.2588 0.9659 -0.0000
vn -1.0000 -0.0000 -0.0000
vn 1.0000 -0.0000 -0.0000
vn -0.0000 -1.0000 -0.0000
vn -0.0000 1.0000 -0.0000
vn -0.9659 -0.2588 -0.0000
vn 0.9659 0.2588 -0.0000
vn 0.2588 -0.9659 -0.0000
vn -0.2588 0.9659 -0.0000
vn 0.3035 0.9340 0.1884
vn 0.7881 0.6109 0.0753
vn 0.7768 0.6280 0.0472
vn 0.8034 0.5837 0.1177
vn 0.8090 -0.5878 -0.0000
vn 0.3090 -0.9511 -0.0000
vn -0.3090 -0.9511 -0.0000
vn -0.8090 -0.5878 -0.0000
vn 0.2533 0.7796 0.5728
vn -0.7768 0.6280 0.0472
vn -0.7881 0.6109 0.0753
vn -0.8034 0.5837 0.1177
vn -0.3035 0.9340 0.1884
vn -0.2772 -0.8531 0.4421
vn 0.8685 -0.0000 0.4956
vn 0.6124 0.5981 0.5170
vn 0.5810 0.6122 0.5363
vn 0.6615 0.5731 0.4837
vn -0.2533 0.7796 0.5728
vn -0.6124 0.5981 0.5170
vn -0.5810 0.6122 0.5363
vn -0.5083 0.6400 0.5762
vn -0.8685 -0.0000 0.4956
vn -0.7027 -0.5105 0.4956
vn -0.2684 -0.8260 0.4956
vn 0.2684 -0.8260 0.4956
vn 0.7027 -0.5105 0.4956
vn 0.8970 -0.0000 0.4421
vn -0.2926 0.9006 0.3214
vn -0.7257 -0.5272 0.4421
vn 0.7257 -0.5272 0.4421
vn 0.2926 0.9006 0.3214
vn -0.8970 -0.0000 0.4421
vn 0.2772 -0.8531 0.4421
vn 0.5885 0.7081 0.3902
vn 0.6198 0.6877 0.3782
vn 0.5710 0.7189 0.3965
vn -0.5885 0.7081 0.3902
vn -0.6198 0.6877 0.3782
vn -0.6422 0.6719 0.3689
vn -0.3007 0.9253 -0.2309
vn -0.5747 -0.4175 0.7038
vn 0.5747 -0.4175 0.7038
vn 0.3007 0.9253 -0.2309
vn 0.1930 -0.5940 0.7810
vn 0.7002 0.7138 0.0159
vn 0.7912 0.6084 0.0622
vn 0.6909 0.7228 0.0116
vn -0.7002 0.7138 0.0159
vn -0.7912 0.6084 0.0622
vn -0.8070 0.5863 0.0711
vn -0.1930 -0.5940 0.7810
vn -0.0157 -0.9982 -0.0580
vn 0.5555 -0.7624 0.3319
vn 0.0411 -0.9985 -0.0359
vn 0.0411 -0.9985 0.0359
vn -0.0157 -0.9982 0.0580
vn 0.9085 -0.2653 0.3229
vn 0.0262 -0.2020 0.9790
vn -0.8878 -0.2637 0.3773
vn -0.5229 -0.2405 -0.8177
vn 0.4826 -0.2386 -0.8427
vn 0.7378 -0.0838 0.6698
vn -0.2609 -0.0571 0.9637
vn -0.9949 -0.1008 -0.0000
vn -0.2604 -0.0854 -0.9617
vn 0.7504 -0.0940 -0.6542
vn 0.3274 0.4238 0.8445
vn -0.3666 0.4982 0.7857
vn -0.7490 0.5662 -0.3440
vn 0.0369 0.5073 -0.8610
vn 0.7812 0.5711 -0.2521
vn 0.3212 0.9046 -0.2801
vn 0.5395 0.6984 -0.4704
vn 0.4057 0.5251 -0.7481
vn -0.1204 0.8876 -0.4446
vn -0.1957 0.6630 -0.7226
vn -0.4732 0.5315 -0.7026
vn -0.4019 0.9157 -0.0000
vn -0.6906 0.7232 -0.0000
vn -0.7490 0.5662 0.3440
vn -0.1204 0.8876 0.4446
vn -0.2154 0.5666 0.7953
vn 0.0106 0.3847 0.9230
vn 0.3212 0.9046 0.2801
vn 0.5395 0.6984 0.4704
vn 0.7812 0.5711 0.2521
vn 0.8878 0.2637 -0.3773
vn 0.7462 0.1409 -0.6506
vn 0.5229 0.2405 -0.8177
vn -0.0213 0.2273 -0.9736
vn -0.2592 0.1282 -0.9573
vn -0.4826 0.2386 -0.8427
vn -0.9085 0.2653 -0.3229
vn -0.9885 0.1510 -0.0000
vn -0.9085 0.2653 0.3229
vn -0.3539 0.2661 0.8966
vn -0.2549 0.2217 0.9412
vn -0.0018 0.3245 0.9459
vn 0.3851 0.2653 0.8839
vn 0.7339 0.1322 0.6663
vn 0.8878 0.2637 0.3773
vn 0.2604 0.0854 -0.9617
vn 0.2592 -0.1282 -0.9573
vn 0.0213 -0.2273 -0.9736
vn -0.7504 0.0940 -0.6542
vn -0.7462 -0.1409 -0.6506
vn -0.8878 -0.2637 -0.3773
vn -0.7378 0.0838 0.6698
vn -0.7339 -0.1322 0.6663
vn -0.5292 -0.2197 0.8196
vn 0.2562 0.1971 0.9463
vn 0.2599 -0.1044 0.9600
vn 0.4813 -0.2166 0.8493
vn 0.9949 0.1008 -0.0000
vn 0.9885 -0.1510 -0.0000
vn 0.9085 -0.2653 -0.3229
vn 0.4237 -0.7431 -0.5180
vn 0.1259 -0.8763 -0.4651
vn -0.0859 -0.7165 -0.6922
vn -0.2736 -0.7271 -0.6297
vn -0.3366 -0.8947 -0.2935
vn -0.6211 -0.7737 -0.1252
vn -0.6211 -0.7737 0.1252
vn -0.3366 -0.8947 0.2935
vn -0.2736 -0.7271 0.6297
vn 0.5555 -0.7624 -0.3319
vn 0.4217 -0.9067 -0.0000
vn -0.0508 -0.9987 -0.0000
vn -0.0859 -0.7165 0.6922
vn 0.1259 -0.8763 0.4651
vn 0.4237 -0.7431 0.5180
vn -0.0892 0.5334 -0.8411
vn -0.0892 0.5334 0.8411
vn -0.3285 -0.4129 0.8495
vn -0.9527 0.3039 -0.0000
vn -0.9533 0.3020 -0.0000
vn -0.9530 0.3030 -0.0017
vn -0.3285 -0.4129 -0.8495
vn -0.5096 -0.0602 -0.8583
vn -0.5057 -0.2032 -0.8385
vn -0.5096 -0.0602 0.8583
vn -0.5057 -0.2032 0.8385
vn 0.4593 0.1683 0.8722
vn 0.3970 0.2660 0.8784
vn 0.3222 0.4228 0.8470
vn 0.4593 0.1683 -0.8722
vn 0.3970 0.2660 -0.8784
vn 0.3222 0.4228 -0.8470
vn -0.5581 0.5016 -0.6610
vn 0.4219 -0.4745 -0.7726
vn 0.2138 -0.3240 -0.9216
vn -0.1534 0.1430 -0.9778
vn -0.4113 0.4023 -0.8179
vn 0.5566 -0.5000 0.6635
vn -0.4223 0.4750 0.7720
vn -0.4106 0.4002 0.8193
vn -0.1584 0.1471 0.9764
vn 0.2110 -0.3239 0.9223
vn 0.4193 -0.4711 0.7761
vn 0.8002 0.5990 -0.0313
vn -0.6297 -0.7703 -0.1004
vn 0.6297 0.7703 -0.1004
vn -0.7218 -0.6920 -0.0129
vn 0.7218 0.6920 -0.0129
vn 0.8061 0.5783 -0.1259
vn -0.8061 -0.5783 -0.1259
vn -0.7470 -0.6648 0.0061
vn 0.7470 0.6648 0.0061
vn -0.8002 -0.5990 -0.0313
vn -0.5016 -0.5581 -0.6610
vn 0.4745 0.4219 -0.7726
vn 0.3240 0.2138 -0.9216
vn -0.1430 -0.1534 -0.9778
vn -0.4023 -0.4113 -0.8179
vn 0.5000 0.5566 0.6635
vn -0.4750 -0.4223 0.7720
vn -0.4002 -0.4106 0.8193
vn -0.1471 -0.1584 0.9764
vn 0.3239 0.2110 0.9223
vn 0.4711 0.4193 0.7761
vn -0.5990 0.8002 -0.0313
vn 0.7703 -0.6297 -0.1004
vn -0.7703 0.6297 -0.1004
vn 0.6920 -0.7218 -0.0129
vn -0.6920 0.7218 -0.0129
vn -0.5783 0.8061 -0.1259
vn 0.5783 -0.8061 -0.1259
vn 0.6648 -0.7470 0.0061
vn -0.6648 0.7470 0.0061
vn 0.5990 -0.8002 -0.0313
vn 0.0057 0.0084 -0.9999
vn 0.0067 -0.0077 -0.9999
vn -0.1253 0.1192 0.9849
vn 0.1048 0.1528 0.9827
vn 0.1268 -0.0970 0.9872
vn 0.6785 -0.7130 0.1770
vn 0.7123 0.7017 0.0158
vn -0.8344 0.5483 0.0556
vn 0.7341 0.6068 0.3047
vn -0.5415 -0.7355 0.4073
vn -0.6922 0.7080 -0.1399
vn 0.6785 -0.7346 0.0096
vn -0.6810 -0.6411 0.3540
vn 0.7558 0.6548 -0.0000
vn -0.7558 0.6548 -0.0000
vn 0.5083 0.6400 0.5762
vn -0.6615 0.5731 0.4837
vn 0.6422 0.6719 0.3689
vn -0.5710 0.7189 0.3965
vn 0.8070 0.5863 0.0711
vn -0.6909 0.7228 0.0116
vt 0.828459 0.161917
vt 0.849506 0.193603
vt 0.807478 0.193972
vt 0.704184 0.933542
vt 0.701794 0.895732
vt 0.734607 0.913870
vt 0.795364 0.150578
vt 0.829906 0.123391
vt 0.863367 0.149982
vt 0.734608 0.956294
vt 0.814827 0.534657
vt 0.794841 0.500144
vt 0.834539 0.502675
vt 0.930578 0.389244
vt 0.964519 0.404044
vt 0.933146 0.427351
vt 0.407308 0.823385
vt 0.436330 0.830582
vt 0.415248 0.861079
vt 0.340851 0.794500
vt 0.373834 0.802698
vt 0.337561 0.826868
vt 0.701794 0.964376
vt 0.851327 0.542935
vt 0.895127 0.404044
vt 0.376623 0.843846
vt 0.769301 0.895876
vt 0.801999 0.906413
vt 0.772882 0.934154
vt 0.852367 0.929189
vt 0.854496 0.897765
vt 0.888465 0.922229
vt 0.650644 0.797581
vt 0.671277 0.828896
vt 0.634835 0.828736
vt 0.574724 0.797581
vt 0.612556 0.792037
vt 0.590210 0.828736
vt 0.345596 0.864506
vt 0.378975 0.885249
vt 0.341366 0.893858
vt 0.863658 0.859726
vt 0.895221 0.838364
vt 0.895101 0.881400
vt 0.929189 0.862829
vt 0.921448 0.901348
vt 0.921652 0.828130
vt 0.576726 0.865594
vt 0.612626 0.860016
vt 0.554447 0.828896
vt 0.648931 0.865594
vt 0.874725 0.505451
vt 0.854633 0.470885
vt 0.883259 0.467150
vt 0.854690 0.828130
vt 0.802000 0.948837
vt 0.315770 0.857777
vt 0.411308 0.893824
vt 0.895061 0.447296
vt 0.865783 0.423176
vt 0.930466 0.462828
vt 0.883194 0.539379
vt 0.818239 0.462659
vt 0.848350 0.440704
vt 0.822884 0.905671
vt 0.829521 0.864841
vt 0.864916 0.386277
vt 0.903002 0.366332
vt 0.964454 0.447295
vt 0.822004 0.565286
vt 0.787095 0.466578
vt 0.769302 0.968052
vt 0.740068 0.873592
vt 0.781719 0.868983
vt 0.865594 0.111912
vt 0.410735 0.794500
vt 0.797591 0.112508
vt 0.832249 0.097148
vt 0.945889 0.366332
vt 0.775163 0.183089
vt 0.794092 0.217229
vt 0.787095 0.538839
vt 0.829305 0.226114
vt 0.865594 0.216601
vt 0.233181 0.626412
vt 0.221656 0.635035
vt 0.222028 0.626336
vt 0.232808 0.635111
vt 0.221656 0.646285
vt 0.233181 0.657145
vt 0.222028 0.657070
vt 0.308324 0.449749
vt 0.319740 0.462321
vt 0.308661 0.462380
vt 0.308324 0.473427
vt 0.268511 0.727447
vt 0.257298 0.736560
vt 0.257342 0.727298
vt 0.268467 0.736709
vt 0.257342 0.745322
vt 0.165867 0.812493
vt 0.154880 0.803515
vt 0.166053 0.803410
vt 0.154880 0.790943
vt 0.166053 0.790837
vt 0.165867 0.778144
vt 0.655379 0.951666
vt 0.633649 0.985718
vt 0.625695 0.945393
vt 0.671238 0.178403
vt 0.660096 0.168404
vt 0.671277 0.168389
vt 0.660057 0.158810
vt 0.671238 0.158794
vt 0.537022 0.968081
vt 0.507336 0.984118
vt 0.515291 0.941178
vt 0.290162 0.963478
vt 0.309141 0.963640
vt 0.296554 0.982185
vt 0.989250 0.091523
vt 0.970408 0.098925
vt 0.970734 0.079156
vt 0.276187 0.974355
vt 0.276187 0.950971
vt 0.296554 0.944349
vt 0.989250 0.068679
vt 0.780187 0.030598
vt 0.780187 0.008327
vt 0.798285 0.018139
vt 0.863828 0.962612
vt 0.863511 0.982184
vt 0.845596 0.974503
vt 0.863511 0.944132
vt 0.845596 0.950985
vt 0.678343 0.358098
vt 0.678343 0.380560
vt 0.660252 0.368097
vt 0.969555 0.045929
vt 0.971770 0.028909
vt 0.989250 0.040203
vt 0.798466 0.040630
vt 0.660050 0.390401
vt 0.970408 0.061963
vt 0.989250 0.017116
vt 0.038863 0.974751
vt 0.020657 0.982184
vt 0.020736 0.962966
vt 0.038863 0.951217
vt 0.020657 0.944106
vt 0.969555 0.008574
vt 0.942578 0.491508
vt 0.935355 0.481146
vt 0.947064 0.487113
vt 0.397718 0.125423
vt 0.391321 0.114081
vt 0.399233 0.114081
vt 0.210715 0.887369
vt 0.203380 0.897787
vt 0.198979 0.893373
vt 0.213104 0.890729
vt 0.207734 0.902687
vt 0.543880 0.149065
vt 0.547621 0.156449
vt 0.540116 0.156563
vt 0.553356 0.022965
vt 0.547376 0.012882
vt 0.554687 0.013029
vt 0.938338 0.496450
vt 0.932917 0.484495
vt 0.966494 0.771243
vt 0.992784 0.769915
vt 0.979639 0.793167
vt 0.930571 0.543938
vt 0.949174 0.522722
vt 0.942885 0.547628
vt 0.941786 0.520508
vt 0.950124 0.511419
vt 0.943067 0.511050
vt 0.948196 0.500429
vt 0.942056 0.502423
vt 0.328944 0.952540
vt 0.340938 0.978651
vt 0.326076 0.978651
vt 0.329421 0.943220
vt 0.337861 0.952540
vt 0.329949 0.935547
vt 0.337539 0.943220
vt 0.547325 0.007661
vt 0.554687 0.007809
vt 0.203023 0.953957
vt 0.204321 0.926757
vt 0.215515 0.950182
vt 0.195866 0.917717
vt 0.196825 0.929022
vt 0.197780 0.906720
vt 0.203028 0.917300
vt 0.204029 0.908668
vt 0.190677 0.957453
vt 0.188639 0.917892
vt 0.189418 0.931120
vt 0.191243 0.904334
vt 0.688240 0.876193
vt 0.699363 0.852980
vt 0.703074 0.876193
vt 0.690369 0.841354
vt 0.690463 0.852980
vt 0.690376 0.828015
vt 0.698691 0.841354
vt 0.698553 0.814877
vt 0.698352 0.828015
vt 0.955424 0.551154
vt 0.957453 0.511609
vt 0.956698 0.524838
vt 0.954823 0.498057
vt 0.637114 0.450871
vt 0.677974 0.459750
vt 0.663246 0.492915
vt 0.862040 0.234302
vt 0.892063 0.257141
vt 0.866299 0.272451
vt 0.631165 0.474275
vt 0.831753 0.248415
vt 0.627126 0.512553
vt 0.460964 0.704911
vt 0.467758 0.664544
vt 0.491075 0.698057
vt 0.290114 0.691734
vt 0.321570 0.678885
vt 0.299841 0.717393
vt 0.865095 0.318561
vt 0.878142 0.353304
vt 0.840868 0.347912
vt 0.694250 0.510677
vt 0.699541 0.538550
vt 0.664206 0.533950
vt 0.486712 0.627099
vt 0.522207 0.614990
vt 0.506210 0.652321
vt 0.363729 0.678885
vt 0.395254 0.702306
vt 0.346887 0.704767
vt 0.273859 0.713312
vt 0.833549 0.297942
vt 0.293534 0.806611
vt 0.272539 0.843448
vt 0.255267 0.804625
vt 0.526382 0.684116
vt 0.545524 0.648504
vt 0.554687 0.691881
vt 0.331078 0.738599
vt 0.376062 0.737405
vt 0.347049 0.770202
vt 0.039886 0.653361
vt 0.043266 0.690468
vt 0.007751 0.665250
vt 0.241243 0.872660
vt 0.198959 0.872520
vt 0.224531 0.843448
vt 0.181687 0.833696
vt 0.211858 0.806610
vt 0.017985 0.624445
vt 0.185943 0.788847
vt 0.012272 0.703074
vt 0.299941 0.757834
vt 0.231418 0.770880
vt 0.395415 0.767741
vt 0.413365 0.734412
vt 0.279427 0.770880
vt 0.806322 0.323875
vt 0.806322 0.277669
vt 0.059827 0.624444
vt 0.075451 0.665249
vt 0.079972 0.703074
vt 0.521036 0.722506
vt 0.553598 0.620605
vt 0.307374 0.833698
vt 0.276638 0.872521
vt 0.096532 0.637051
vt 0.094676 0.676842
vt 0.098682 0.650932
vt 0.632798 0.544088
vt 0.893859 0.306667
vt 0.082171 0.855727
vt 0.090658 0.895925
vt 0.049144 0.890562
vt 0.095720 0.878415
vt 0.575885 0.759603
vt 0.556648 0.738458
vt 0.575885 0.703693
vt 0.443351 0.680714
vt 0.463773 0.632025
vt 0.438218 0.664918
vt 0.126072 0.835429
vt 0.125118 0.861922
vt 0.138116 0.870831
vt 0.150090 0.904458
vt 0.160753 0.836300
vt 0.697987 0.472154
vt 0.158455 0.890018
vt 0.065361 0.324571
vt 0.018581 0.317185
vt 0.063567 0.311002
vt 0.019432 0.586008
vt 0.007531 0.593550
vt 0.007531 0.542943
vt 0.286694 0.472052
vt 0.317973 0.505079
vt 0.273226 0.525937
vt 0.309954 0.527222
vt 0.317973 0.540767
vt 0.309186 0.566682
vt 0.052108 0.904458
vt 0.267502 0.071984
vt 0.276452 0.032434
vt 0.306926 0.049712
vt 0.833821 0.726039
vt 0.805508 0.704870
vt 0.830332 0.682223
vt 0.289420 0.079521
vt 0.864079 0.709251
vt 0.324974 0.086559
vt 0.336229 0.583920
vt 0.331253 0.622016
vt 0.306243 0.588881
vt 0.430066 0.740261
vt 0.460710 0.727838
vt 0.437824 0.767101
vt 0.812985 0.865594
vt 0.778030 0.848636
vt 0.815642 0.833209
vt 0.329084 0.016397
vt 0.361753 0.007967
vt 0.348288 0.049456
vt 0.314096 0.659683
vt 0.279169 0.673044
vt 0.293233 0.633414
vt 0.503436 0.727281
vt 0.533563 0.751420
vt 0.482905 0.755587
vt 0.415909 0.760482
vt 0.833821 0.635753
vt 0.860112 0.609664
vt 0.864079 0.656182
vt 0.102547 0.703333
vt 0.133395 0.676774
vt 0.135183 0.719397
vt 0.271546 0.603311
vt 0.254160 0.639909
vt 0.243021 0.599392
vt 0.466736 0.789639
vt 0.511991 0.788074
vt 0.484887 0.819665
vt 0.814135 0.797444
vt 0.788164 0.773609
vt 0.830947 0.776627
vt 0.174662 0.661057
vt 0.216409 0.676774
vt 0.177571 0.694548
vt 0.218197 0.719397
vt 0.177704 0.733571
vt 0.243780 0.703333
vt 0.200917 0.759603
vt 0.239755 0.741830
vt 0.439050 0.806703
vt 0.149612 0.759603
vt 0.535545 0.815498
vt 0.552920 0.782550
vt 0.105435 0.741830
vt 0.893859 0.636692
vt 0.891234 0.681734
vt 0.847929 0.813461
vt 0.778706 0.808579
vt 0.750552 0.789036
vt 0.247620 0.670734
vt 0.379802 0.044815
vt 0.359790 0.079086
vt 0.893859 0.722560
vt 0.755910 0.813009
vt 0.767962 0.838487
vt 0.805508 0.651802
vt 0.823913 0.606957
vt 0.824391 0.036340
vt 0.832161 0.078329
vt 0.795847 0.074197
vt 0.836582 0.059635
vt 0.571449 0.568819
vt 0.589064 0.547754
vt 0.625348 0.568819
vt 0.544339 0.548629
vt 0.336828 0.654232
vt 0.176384 0.358402
vt 0.187251 0.321534
vt 0.187251 0.363903
vt 0.868656 0.010015
vt 0.864888 0.039678
vt 0.877671 0.047833
vt 0.891445 0.081114
vt 0.900925 0.008582
vt 0.294828 0.008382
vt 0.360999 0.623762
vt 0.897669 0.066143
vt 0.882228 0.088326
vt 0.959333 0.576056
vt 0.971585 0.567440
vt 0.971585 0.616515
vt 0.434564 0.114824
vt 0.397319 0.096115
vt 0.434564 0.062071
vt 0.398144 0.071668
vt 0.440201 0.727281
vt 0.369674 0.125423
vt 0.369674 0.092106
vt 0.378035 0.102777
vt 0.799256 0.088326
vt 0.949576 0.799158
vt 0.941983 0.814460
vt 0.935763 0.810250
vt 0.879489 0.734332
vt 0.872014 0.749471
vt 0.869320 0.744712
vt 0.892189 0.742391
vt 0.881640 0.762387
vt 0.904327 0.754210
vt 0.889745 0.771022
vt 0.917559 0.794009
vt 0.940195 0.785901
vt 0.929544 0.806040
vt 0.960968 0.180290
vt 0.946195 0.188038
vt 0.956940 0.173757
vt 0.895069 0.104559
vt 0.880153 0.112129
vt 0.890188 0.101619
vt 0.888717 0.125881
vt 0.884340 0.118859
vt 0.908349 0.115217
vt 0.901047 0.139222
vt 0.940588 0.153834
vt 0.933219 0.177756
vt 0.924287 0.168889
vt 0.952727 0.166937
vt 0.611286 0.450336
vt 0.611686 0.470928
vt 0.608330 0.470141
vt 0.007764 0.196920
vt 0.010599 0.184147
vt 0.010599 0.197850
vt 0.484731 0.313053
vt 0.487559 0.322847
vt 0.484731 0.321770
vt 0.008230 0.008599
vt 0.013705 0.017151
vt 0.010334 0.017947
vt 0.484731 0.330487
vt 0.487534 0.332106
vt 0.012438 0.027295
vt 0.015899 0.027130
vt 0.388598 0.009072
vt 0.385355 0.022442
vt 0.385355 0.007733
vt 0.011533 0.045989
vt 0.014898 0.046938
vt 0.608774 0.478727
vt 0.605479 0.477718
vt 0.443415 0.015527
vt 0.442222 0.008018
vt 0.445163 0.007717
vt 0.442237 0.033545
vt 0.442193 0.044163
vt 0.439132 0.034753
vt 0.611844 0.437328
vt 0.614749 0.450175
vt 0.867606 0.742978
vt 0.877775 0.732598
vt 0.440425 0.016019
vt 0.936472 0.736780
vt 0.952140 0.744150
vt 0.947947 0.750142
vt 0.869332 0.804642
vt 0.885118 0.811849
vt 0.880043 0.814485
vt 0.877979 0.792296
vt 0.898764 0.802480
vt 0.890379 0.780516
vt 0.907755 0.794623
vt 0.931506 0.767703
vt 0.923072 0.745808
vt 0.943754 0.756135
vt 0.693078 0.351517
vt 0.699541 0.335386
vt 0.699541 0.353304
vt 0.958485 0.118078
vt 0.951478 0.101619
vt 0.960986 0.112681
vt 0.939348 0.111094
vt 0.945543 0.106251
vt 0.949138 0.132753
vt 0.927451 0.124715
vt 0.914184 0.168340
vt 0.892431 0.160220
vt 0.900550 0.150368
vt 0.902095 0.181724
vt 0.882780 0.174519
vt 0.570554 0.644481
vt 0.568586 0.624018
vt 0.571947 0.624375
vt 0.943198 0.732598
vt 0.953920 0.742424
vt 0.250506 0.136089
vt 0.255859 0.144780
vt 0.252477 0.145351
vt 0.973352 0.974333
vt 0.967782 0.966121
vt 0.971131 0.965570
vt 0.254449 0.154613
vt 0.257912 0.154647
vt 0.968910 0.956807
vt 0.965470 0.956761
vt 0.253285 0.171514
vt 0.256636 0.172557
vt 0.970087 0.938877
vt 0.966758 0.937767
vt 0.570803 0.615731
vt 0.574119 0.616306
vt 0.969030 0.686499
vt 0.969254 0.694242
vt 0.966088 0.693793
vt 0.971889 0.667778
vt 0.971978 0.655398
vt 0.975118 0.667061
vt 0.570872 0.657145
vt 0.567136 0.645015
vt 0.878319 0.816132
vt 0.867609 0.806289
vt 0.972240 0.686727
vt 0.896111 0.775637
vt 0.910245 0.759359
vt 0.914136 0.753588
vt 0.932146 0.777190
vt 0.912259 0.790561
vt 0.927332 0.772508
vt 0.920376 0.132328
vt 0.908519 0.145511
vt 0.934989 0.148842
vt 0.941091 0.142695
vt 0.250506 0.176911
vt 0.605479 0.432324
vt 0.609660 0.429053
vt 0.034366 0.007254
vt 0.038863 0.013220
vt 0.034366 0.015899
vt 0.008230 0.053106
vt 0.202781 0.378035
vt 0.206683 0.370337
vt 0.206241 0.378035
vt 0.973352 0.932373
vt 0.966088 0.652210
vt 0.969119 0.647503
vt 0.267696 0.009628
vt 0.272044 0.014132
vt 0.267420 0.013280
vt 0.921115 0.146886
vt 0.919774 0.161540
vt 0.742016 0.174885
vt 0.752537 0.162845
vt 0.752537 0.174774
vt 0.953920 0.007564
vt 0.943076 0.066940
vt 0.943076 0.007376
vt 0.314440 0.779422
vt 0.303693 0.791400
vt 0.303693 0.779573
vt 0.065361 0.978460
vt 0.054516 0.919096
vt 0.065361 0.918905
vt 0.151351 0.923848
vt 0.162520 0.978651
vt 0.151351 0.978457
vt 0.896851 0.475113
vt 0.907991 0.524078
vt 0.896851 0.524656
vt 0.720520 0.812587
vt 0.731339 0.800670
vt 0.731339 0.812599
vt 0.007283 0.723691
vt 0.079493 0.734872
vt 0.007284 0.734872
vt 0.348004 0.443373
vt 0.337956 0.455762
vt 0.337956 0.443934
vt 0.922123 0.200969
vt 0.911301 0.275577
vt 0.911301 0.200971
vt 0.008263 0.856945
vt 0.019432 0.929189
vt 0.008263 0.929040
vt 0.950387 0.953920
vt 0.939206 0.889026
vt 0.950387 0.889125
vt 0.798247 0.247301
vt 0.809066 0.235384
vt 0.809066 0.247313
vt 0.826731 0.361718
vt 0.815910 0.436330
vt 0.815910 0.361720
vt 0.360370 0.591760
vt 0.350321 0.604149
vt 0.350321 0.592322
vt 0.911301 0.644367
vt 0.922123 0.718971
vt 0.911301 0.718973
vt 0.914487 0.016082
vt 0.925656 0.088326
vt 0.914487 0.088177
vt 0.950387 0.713674
vt 0.939206 0.648780
vt 0.950387 0.648879
vt 0.717426 0.545721
vt 0.727806 0.533925
vt 0.727806 0.545854
vt 0.957208 0.264978
vt 0.968052 0.205228
vt 0.968052 0.264786
vt 0.547621 0.708469
vt 0.538147 0.720740
vt 0.538147 0.708833
vt 0.975118 0.286677
vt 0.964274 0.346051
vt 0.964274 0.286490
vt 0.963949 0.813976
vt 0.975118 0.870894
vt 0.963949 0.870788
vt 0.830264 0.978651
vt 0.819083 0.921928
vt 0.830264 0.921980
vt 0.785163 0.433399
vt 0.750944 0.403201
vt 0.787867 0.403201
vt 0.748240 0.433399
vt 0.709583 0.405376
vt 0.036193 0.758878
vt 0.009673 0.798983
vt 0.007575 0.758878
vt 0.036666 0.840863
vt 0.008048 0.840863
vt 0.506403 0.921889
vt 0.535255 0.880127
vt 0.535255 0.922123
vt 0.506403 0.879893
vt 0.534894 0.840099
vt 0.741938 0.223063
vt 0.707170 0.194180
vt 0.740364 0.193288
vt 0.708744 0.223955
vt 0.665444 0.196650
vt 0.768845 0.472663
vt 0.742999 0.472663
vt 0.720109 0.374148
vt 0.754782 0.344585
vt 0.757090 0.374502
vt 0.796159 0.344585
vt 0.798467 0.374502
vt 0.755887 0.022828
vt 0.715576 0.155454
vt 0.650350 0.103847
vt 0.469800 0.853128
vt 0.433742 0.882191
vt 0.433582 0.864543
vt 0.071139 0.800377
vt 0.038291 0.798983
vt 0.721232 0.473343
vt 0.710794 0.435114
vt 0.785315 0.306941
vt 0.734886 0.306830
vt 0.756351 0.306941
vt 0.667017 0.226425
vt 0.704009 0.262413
vt 0.674801 0.264143
vt 0.727245 0.261789
vt 0.506041 0.839866
vt 0.470053 0.881147
vt 0.070002 0.829693
vt 0.103462 0.783899
vt 0.136022 0.779780
vt 0.104386 0.801581
vt 0.069671 0.772303
vt 0.761871 0.269472
vt 0.780113 0.269472
vt 0.714823 0.300310
vt 0.700189 0.300703
vt 0.103670 0.820045
vt 0.745419 0.510852
vt 0.681792 0.301792
vt 0.433742 0.900706
vt 0.730453 0.511428
vt 0.747578 0.269379
vt 0.132489 0.916055
vt 0.114052 0.917915
vt 0.116226 0.906143
vt 0.778138 0.232285
vt 0.783967 0.232285
vt 0.132489 0.960151
vt 0.124103 0.924041
vt 0.129570 0.921516
vt 0.081595 0.929134
vt 0.083926 0.948883
vt 0.761698 0.510852
vt 0.764068 0.547314
vt 0.671322 0.340590
vt 0.665444 0.340938
vt 0.118176 0.922665
vt 0.096831 0.963748
vt 0.758241 0.547621
vt 0.772928 0.232235
vt 0.115380 0.968052
vt 0.131101 0.497899
vt 0.138574 0.414237
vt 0.207320 0.492668
vt 0.142719 0.351733
vt 0.066306 0.365428
vt 0.170840 0.578697
vt 0.079547 0.553434
vt 0.059606 0.451792
vt 0.634417 0.423040
vt 0.569676 0.395477
vt 0.653612 0.315708
vt 0.413129 0.414100
vt 0.319717 0.430147
vt 0.365265 0.320417
vt 0.783384 0.676946
vt 0.798466 0.752977
vt 0.692896 0.722529
vt 0.076505 0.290214
vt 0.007542 0.304240
vt 0.027076 0.191618
vt 0.244663 0.294888
vt 0.166500 0.310024
vt 0.224158 0.197940
vt 0.240555 0.412861
vt 0.201933 0.318550
vt 0.263828 0.319690
vt 0.467543 0.320417
vt 0.692896 0.630374
vt 0.125316 0.195193
vt 0.505391 0.350988
vt 0.499423 0.256006
vt 0.577773 0.273357
vt 0.318191 0.226051
vt 0.247437 0.208858
vt 0.338771 0.141065
vt 0.491975 0.226242
vt 0.411786 0.209845
vt 0.441048 0.141065
vt 0.470543 0.160753
vt 0.458694 0.085176
vt 0.552787 0.130035
vt 0.174598 0.099525
vt 0.084734 0.079534
vt 0.158494 0.010802
vt 0.514039 0.541899
vt 0.461535 0.601500
vt 0.413379 0.516384
vt 0.355233 0.572193
vt 0.333187 0.492040
vt 0.244663 0.083980
vt 0.641246 0.156881
vt 0.630625 0.085231
vt 0.060254 0.007227
vt 0.007461 0.093443
vt 0.552787 0.040786
vt 0.470543 0.008912
vt 0.641246 0.012472
vt 0.391394 0.432765
vt 0.497697 0.462072
vt 0.575618 0.599791
vt 0.583359 0.176237
vt 0.585837 0.677052
vt 0.601243 0.599575
vt 0.601243 0.756359
vt 0.575266 0.432765
vt 0.597967 0.513621
vt 0.691407 0.558387
vt 0.798466 0.603866
vt 0.691407 0.796700
vt 0.485207 0.430147
vt 0.648191 0.215277
vt 0.007278 0.504625
vt 0.008371 0.415626
vt 0.042295 0.588550
vt 0.118513 0.631530
vt 0.197613 0.631530
vt 0.246286 0.570764
vt 0.259678 0.485168
vt 0.499423 0.423081
vt 0.214021 0.406303
vt 0.802000 0.553984
vt 0.790475 0.562608
vt 0.790847 0.553909
vt 0.801627 0.562684
vt 0.790475 0.573857
vt 0.802000 0.584718
vt 0.790847 0.584642
vt 0.262394 0.435617
vt 0.273810 0.448189
vt 0.262732 0.448248
vt 0.262394 0.459295
vt 0.423965 0.692117
vt 0.412751 0.701229
vt 0.412795 0.691968
vt 0.423965 0.710141
vt 0.412795 0.709991
vt 0.685223 0.967947
vt 0.674236 0.958969
vt 0.685409 0.958864
vt 0.674236 0.946396
vt 0.685409 0.946291
vt 0.685223 0.933598
vt 0.602383 0.951666
vt 0.580653 0.985717
vt 0.572700 0.945393
vt 0.036476 0.416898
vt 0.047696 0.406869
vt 0.047657 0.416883
vt 0.036476 0.397290
vt 0.047657 0.397274
vt 0.920356 0.968081
vt 0.890671 0.984118
vt 0.898625 0.941178
vt 0.232808 0.646360
vt 0.319402 0.449690
vt 0.319402 0.473368
vt 0.268511 0.745471
vt 0.154694 0.812599
vt 0.154694 0.778250
vt 0.633649 0.937644
vt 0.642833 0.936133
vt 0.650786 0.941266
vt 0.655379 0.964547
vt 0.650786 0.976458
vt 0.642833 0.984207
vt 0.625695 0.980585
vt 0.621103 0.970185
vt 0.621103 0.957304
vt 0.660057 0.178418
vt 0.524475 0.939668
vt 0.532429 0.944800
vt 0.537022 0.955200
vt 0.532429 0.979991
vt 0.524475 0.987740
vt 0.515291 0.989250
vt 0.502744 0.973718
vt 0.502744 0.960837
vt 0.507336 0.948927
vt 0.393052 0.125423
vt 0.215515 0.893985
vt 0.540116 0.151585
vt 0.547621 0.151508
vt 0.543880 0.158987
vt 0.548730 0.022872
vt 0.930571 0.487774
vt 0.966494 0.786302
vt 0.979639 0.763050
vt 0.992784 0.784973
vt 0.337314 0.935547
vt 0.690661 0.814877
vt 0.952141 0.804096
vt 0.885839 0.738362
vt 0.950920 0.190784
vt 0.917353 0.124173
vt 0.007764 0.183217
vt 0.487534 0.313920
vt 0.011536 0.007562
vt 0.388634 0.022965
vt 0.445163 0.042299
vt 0.608495 0.438347
vt 0.941418 0.734323
vt 0.873656 0.798469
vt 0.693154 0.336750
vt 0.895737 0.186365
vt 0.253826 0.135295
vt 0.970065 0.975118
vt 0.968883 0.656907
vt 0.574119 0.655790
vt 0.254292 0.180185
vt 0.037840 0.007271
vt 0.012089 0.056529
vt 0.201828 0.372130
vt 0.969782 0.928211
vt 0.272044 0.008685
vt 0.742016 0.162956
vt 0.953920 0.067128
vt 0.314440 0.791250
vt 0.054516 0.978652
vt 0.162520 0.924042
vt 0.907991 0.474536
vt 0.720520 0.800658
vt 0.079492 0.723691
vt 0.348004 0.455201
vt 0.922123 0.275575
vt 0.019432 0.857094
vt 0.939206 0.953821
vt 0.798247 0.235373
vt 0.826731 0.436328
vt 0.360370 0.603588
vt 0.922123 0.644365
vt 0.925656 0.016231
vt 0.939206 0.713575
vt 0.717426 0.533792
vt 0.957208 0.205419
vt 0.547621 0.720376
vt 0.975118 0.346238
vt 0.975118 0.814081
vt 0.819083 0.978599
vt 0.720211 0.344305
vt 0.650350 0.058375
vt 0.675264 0.021880
vt 0.715576 0.008302
vt 0.780801 0.059909
vt 0.780801 0.105381
vt 0.755887 0.141876
vt 0.675264 0.140928
vt 0.470053 0.910545
vt 0.135726 0.774130
vt 0.121693 0.903619
vt 0.127620 0.904994
vt 0.131744 0.909744
vt 0.113307 0.911604
vt 0.769270 0.547314
vt 0.801627 0.573933
vt 0.273473 0.435558
vt 0.273473 0.459236
vt 0.423920 0.701378
vt 0.674050 0.968052
vt 0.674050 0.933703
vt 0.580653 0.937644
vt 0.589837 0.936133
vt 0.597791 0.941266
vt 0.602383 0.964547
vt 0.597791 0.976458
vt 0.589837 0.984207
vt 0.572700 0.980585
vt 0.568108 0.970185
vt 0.568108 0.957303
vt 0.036515 0.406884
vt 0.907810 0.939668
vt 0.915764 0.944800
vt 0.920356 0.955200
vt 0.915764 0.979991
vt 0.907810 0.987740
vt 0.898625 0.989250
vt 0.886079 0.973718
vt 0.886079 0.960837
vt 0.890671 0.948927
s 1
usemtl molesAtlas
f 1/1/1 14/2/1 13/3/1
f 2/4/2 14/5/2 16/6/2
f 1/1/3 13/3/3 18/7/3
f 1/1/4 18/7/4 20/8/4
f 1/1/5 20/8/5 17/9/5
f 2/4/6 16/6/6 23/10/6
f 3/11/7 15/12/7 25/13/7
f 4/14/8 19/15/8 27/16/8
f 5/17/9 21/18/9 29/19/9
f 6/20/10 22/21/10 31/22/10
f 2/4/11 23/10/11 26/23/11
f 3/11/12 25/13/12 28/24/12
f 4/14/13 27/16/13 30/25/13
f 5/17/14 29/19/14 32/26/14
f 6/27/15 31/28/15 24/29/15
f 7/30/16 33/31/16 38/32/16
f 8/33/17 34/34/17 40/35/17
f 9/36/18 35/37/18 41/38/18
f 10/39/19 36/40/19 42/41/19
f 11/42/20 37/43/20 39/44/20
f 39/44/21 42/45/21 12/46/21
f 39/44/22 37/43/22 42/45/22
f 37/43/23 10/47/23 42/45/23
f 42/48/24 41/38/24 12/49/24
f 42/48/25 36/50/25 41/38/25
f 36/50/26 9/36/26 41/38/26
f 41/38/27 40/35/27 12/49/27
f 41/38/28 35/37/28 40/35/28
f 35/37/29 8/33/29 40/35/29
f 40/35/30 38/51/30 12/49/30
f 40/35/31 34/34/31 38/51/31
f 34/52/32 7/53/32 38/54/32
f 38/32/33 39/44/33 12/46/33
f 38/32/34 33/31/34 39/44/34
f 33/31/35 11/42/35 39/44/35
f 24/55/36 37/43/36 11/42/36
f 24/29/37 31/28/37 37/56/37
f 31/22/38 10/39/38 37/57/38
f 32/26/39 36/40/39 10/39/39
f 32/26/40 29/19/40 36/40/40
f 29/19/41 9/58/41 36/40/41
f 30/25/42 35/59/42 9/60/42
f 30/25/43 27/16/43 35/59/43
f 27/16/44 8/61/44 35/59/44
f 28/24/45 34/52/45 8/62/45
f 28/24/46 25/13/46 34/52/46
f 25/13/47 7/53/47 34/52/47
f 26/63/48 33/64/48 7/53/48
f 26/65/49 23/66/49 33/31/49
f 23/66/50 11/42/50 33/31/50
f 31/22/51 32/26/51 10/39/51
f 31/22/52 22/21/52 32/26/52
f 22/21/53 5/17/53 32/26/53
f 29/67/54 30/25/54 9/60/54
f 29/67/55 21/68/55 30/25/55
f 21/68/56 4/14/56 30/25/56
f 27/16/57 28/69/57 8/61/57
f 27/16/58 19/15/58 28/69/58
f 19/70/59 3/11/59 28/24/59
f 25/13/60 26/63/60 7/53/60
f 25/13/61 15/12/61 26/63/61
f 15/12/62 2/71/62 26/63/62
f 23/10/63 24/29/63 11/72/63
f 23/10/64 16/6/64 24/29/64
f 16/6/65 6/27/65 24/29/65
f 17/73/66 22/74/66 6/27/66
f 17/9/67 20/8/67 22/75/67
f 20/76/68 5/17/68 22/21/68
f 20/8/69 21/77/69 5/78/69
f 20/8/70 18/7/70 21/77/70
f 18/79/71 4/14/71 21/68/71
f 18/79/72 19/15/72 4/14/72
f 18/7/73 13/3/73 19/80/73
f 13/3/74 3/81/74 19/80/74
f 16/6/75 17/73/75 6/27/75
f 16/6/76 14/5/76 17/73/76
f 14/2/77 1/1/77 17/9/77
f 13/82/78 15/12/78 3/11/78
f 13/3/79 14/2/79 15/83/79
f 14/2/80 2/84/80 15/83/80
f 44/85/81 45/86/81 43/87/81
f 46/88/82 47/89/82 45/86/82
f 47/89/83 50/90/83 49/91/83
f 49/92/84 52/93/84 51/94/84
f 52/93/85 53/95/85 51/94/85
f 54/96/86 55/97/86 53/98/86
f 56/99/87 57/100/87 55/97/87
f 57/101/88 60/102/88 59/103/88
f 59/103/89 62/104/89 61/105/89
f 62/104/90 63/106/90 61/105/90
f 64/107/91 56/108/91 48/109/91
f 63/110/92 66/111/92 65/112/92
f 65/112/93 44/113/93 43/114/93
f 49/115/94 57/116/94 65/117/94
f 67/118/95 68/119/95 69/120/95
f 68/121/76 67/122/76 72/123/76
f 67/118/73 69/120/73 70/124/73
f 67/118/70 70/124/70 71/125/70
f 67/118/96 71/125/96 72/126/96
f 68/121/64 72/123/64 77/127/64
f 69/128/61 68/129/61 73/130/61
f 70/131/97 69/132/97 74/133/97
f 71/134/98 70/131/98 75/135/98
f 72/136/52 71/137/52 76/138/52
f 68/139/99 77/140/99 73/141/99
f 69/128/46 73/130/46 74/142/46
f 70/131/43 74/133/43 75/135/43
f 71/137/40 75/143/40 76/138/40
f 72/123/100 76/144/100 77/127/100
f 73/141/34 77/140/34 78/145/34
f 74/146/101 73/147/101 78/148/101
f 75/149/28 74/146/28 78/148/28
f 76/150/102 75/149/102 78/148/102
f 77/140/22 76/151/22 78/145/22
f 94/152/103 82/153/104 95/154/105
f 82/155/106 99/156/106 95/157/106
f 84/158/107 103/159/108 99/160/109
f 86/161/110 107/162/111 103/159/112
f 80/163/113 88/164/114 84/165/115
f 88/166/116 111/167/116 107/168/116
f 111/169/117 80/170/118 94/152/119
f 81/171/120 85/172/120 89/173/120
f 89/174/121 91/175/121 79/176/121
f 114/177/122 92/178/123 91/175/124
f 113/179/125 93/180/126 92/178/127
f 111/169/117 93/180/128 112/181/129
f 110/182/130 89/183/130 87/184/130
f 109/185/131 114/186/131 110/182/131
f 108/187/132 113/188/132 109/185/132
f 107/168/133 112/189/133 108/190/133
f 85/191/134 110/192/134 87/193/134
f 105/194/135 110/192/136 106/195/137
f 104/196/138 109/197/139 105/194/140
f 104/196/141 107/162/111 108/198/142
f 83/199/143 106/195/143 85/191/143
f 101/200/144 106/195/145 102/201/146
f 100/202/147 105/194/148 101/200/149
f 99/160/150 104/196/151 100/202/152
f 81/203/153 102/204/154 83/205/153
f 97/206/155 102/204/154 98/207/154
f 96/208/156 101/209/156 97/206/156
f 96/208/157 99/210/157 100/211/157
f 91/175/158 81/212/158 79/176/158
f 91/175/159 97/213/160 98/214/161
f 92/178/162 96/215/163 97/213/164
f 93/180/165 95/154/166 96/215/167
f 158/216/168 156/217/168 128/218/168
f 116/219/169 127/220/169 129/221/169
f 158/216/170 128/218/170 117/222/170
f 116/219/171 129/221/171 136/223/171
f 117/222/172 128/218/172 138/224/172
f 118/225/173 132/226/173 140/227/173
f 119/228/174 134/229/174 142/230/174
f 120/231/175 135/232/175 144/233/175
f 116/234/176 136/235/176 139/236/176
f 117/237/177 138/238/177 141/239/177
f 118/240/178 140/241/178 143/242/178
f 164/243/179 119/228/179 142/230/179
f 120/231/180 144/233/180 137/244/180
f 121/245/181 146/246/181 151/247/181
f 122/248/182 147/249/182 153/250/182
f 123/251/183 148/252/183 154/253/183
f 124/254/184 149/255/184 155/256/184
f 125/257/185 150/258/185 152/259/185
f 152/259/186 155/260/186 126/261/186
f 152/259/187 150/258/187 155/260/187
f 150/262/188 124/254/188 155/256/188
f 155/260/189 154/263/189 126/261/189
f 155/256/190 149/255/190 154/264/190
f 149/265/191 123/251/191 154/253/191
f 154/263/192 153/266/192 126/261/192
f 154/253/193 148/252/193 153/267/193
f 148/252/194 122/268/194 153/267/194
f 153/266/195 151/247/195 126/261/195
f 153/266/196 147/269/196 151/247/196
f 147/269/197 121/245/197 151/247/197
f 151/247/198 152/259/198 126/261/198
f 151/247/199 146/246/199 152/259/199
f 146/246/200 125/257/200 152/259/200
f 137/244/201 150/270/201 125/271/201
f 137/244/202 144/233/202 150/270/202
f 144/272/203 124/254/203 150/262/203
f 145/273/204 149/255/204 124/254/204
f 145/273/205 142/274/205 149/255/205
f 142/230/206 123/251/206 149/265/206
f 143/242/207 148/252/207 123/251/207
f 143/242/208 140/241/208 148/252/208
f 140/227/209 122/248/209 148/275/209
f 141/239/210 147/249/210 122/248/210
f 141/239/211 138/238/211 147/249/211
f 138/238/212 121/276/212 147/249/212
f 139/277/213 146/246/213 121/245/213
f 139/277/214 136/278/214 146/246/214
f 136/278/215 125/257/215 146/246/215
f 144/272/216 145/273/216 124/254/216
f 144/272/217 135/279/217 145/273/217
f 164/280/218 145/273/218 162/281/218
f 142/230/219 143/242/219 123/251/219
f 142/230/220 134/229/220 143/242/220
f 134/229/221 118/240/221 143/242/221
f 140/227/222 141/239/222 122/248/222
f 140/227/223 132/226/223 141/239/223
f 132/226/224 117/237/224 141/239/224
f 138/224/225 139/236/225 121/282/225
f 138/224/226 128/218/226 139/236/226
f 128/218/227 116/234/227 139/236/227
f 136/223/228 137/244/228 125/271/228
f 136/223/229 129/221/229 137/244/229
f 129/221/230 120/231/230 137/244/230
f 130/283/231 135/232/231 120/231/231
f 130/284/232 133/285/232 135/286/232
f 162/281/233 145/273/233 135/279/233
f 160/287/234 133/285/234 130/284/234
f 131/288/235 118/289/235 134/290/235
f 131/291/236 132/226/236 118/225/236
f 158/292/237 117/237/237 132/226/237
f 159/293/238 132/226/238 131/291/238
f 129/221/239 130/283/239 120/231/239
f 129/221/240 127/220/240 130/283/240
f 127/294/241 115/295/241 130/284/241
f 157/296/242 131/297/242 115/295/242
f 127/294/243 156/298/243 115/295/243
f 127/299/244 116/234/244 128/218/244
f 156/217/245 127/299/245 128/218/245
f 159/293/246 158/292/246 132/226/246
f 157/296/247 159/300/247 131/297/247
f 161/301/248 115/302/248 131/303/248
f 161/304/249 131/305/249 134/306/249
f 160/287/250 130/284/250 115/295/250
f 161/307/251 134/308/251 133/309/251
f 163/310/252 133/309/252 134/308/252
f 163/310/253 134/308/253 119/311/253
f 164/312/254 163/310/254 119/311/254
f 164/280/255 142/274/255 145/273/255
f 133/285/256 162/313/256 135/286/256
f 208/314/257 206/315/257 178/316/257
f 166/317/258 177/318/258 179/319/258
f 208/314/259 178/316/259 167/320/259
f 166/317/260 179/319/260 186/321/260
f 167/320/261 178/316/261 188/322/261
f 168/323/262 182/324/262 190/325/262
f 169/326/263 184/327/263 192/328/263
f 170/329/264 185/330/264 194/331/264
f 166/332/265 186/333/265 189/334/265
f 167/335/266 188/336/266 191/337/266
f 168/338/267 190/339/267 193/340/267
f 214/341/268 169/326/268 192/328/268
f 170/342/269 194/343/269 187/344/269
f 171/345/270 196/346/270 201/347/270
f 172/348/271 197/349/271 203/350/271
f 173/351/272 198/352/272 204/353/272
f 174/354/273 199/355/273 205/356/273
f 175/357/274 200/358/274 202/359/274
f 202/359/275 205/360/275 176/361/275
f 202/359/276 200/358/276 205/360/276
f 200/358/277 174/362/277 205/360/277
f 205/360/278 204/363/278 176/361/278
f 205/360/279 199/364/279 204/363/279
f 199/365/280 173/351/280 204/353/280
f 204/363/281 203/366/281 176/361/281
f 204/353/282 198/352/282 203/367/282
f 198/352/283 172/368/283 203/367/283
f 203/366/284 201/347/284 176/361/284
f 203/366/285 197/369/285 201/347/285
f 197/369/286 171/345/286 201/347/286
f 201/347/287 202/359/287 176/361/287
f 201/347/288 196/346/288 202/359/288
f 196/346/289 175/357/289 202/359/289
f 187/344/290 200/370/290 175/371/290
f 187/344/291 194/343/291 200/370/291
f 194/331/292 174/354/292 200/372/292
f 195/373/293 199/355/293 174/354/293
f 195/373/294 192/374/294 199/355/294
f 192/328/295 173/351/295 199/365/295
f 193/340/296 198/352/296 173/351/296
f 193/340/297 190/339/297 198/352/297
f 190/339/298 172/368/298 198/352/298
f 191/337/299 197/349/299 172/348/299
f 191/337/300 188/336/300 197/349/300
f 188/336/301 171/375/301 197/349/301
f 189/334/302 196/376/302 171/377/302
f 189/334/303 186/333/303 196/376/303
f 186/321/304 175/371/304 196/378/304
f 194/331/305 195/373/305 174/354/305
f 194/331/306 185/330/306 195/373/306
f 214/379/307 195/373/307 212/380/307
f 192/328/308 193/340/308 173/351/308
f 192/328/309 184/327/309 193/340/309
f 184/327/310 168/338/310 193/340/310
f 190/325/311 191/337/311 172/348/311
f 190/325/312 182/324/312 191/337/312
f 182/324/313 167/335/313 191/337/313
f 188/322/314 189/334/314 171/377/314
f 188/322/315 178/316/315 189/334/315
f 178/316/316 166/332/316 189/334/316
f 186/321/317 187/344/317 175/371/317
f 186/321/318 179/319/318 187/344/318
f 179/319/319 170/342/319 187/344/319
f 180/381/320 185/382/320 170/342/320
f 180/383/321 183/384/321 185/385/321
f 212/380/322 195/373/322 185/330/322
f 210/386/323 183/384/323 180/383/323
f 181/387/324 168/388/324 184/389/324
f 181/387/325 182/390/325 168/388/325
f 208/391/326 167/335/326 182/324/326
f 209/392/327 182/393/327 181/394/327
f 179/319/328 180/381/328 170/342/328
f 179/319/329 177/318/329 180/381/329
f 177/395/330 165/396/330 180/383/330
f 207/397/331 181/398/331 165/396/331
f 177/395/332 206/399/332 165/396/332
f 177/400/333 166/332/333 178/316/333
f 206/315/334 177/400/334 178/316/334
f 209/401/335 208/391/335 182/324/335
f 207/397/336 209/402/336 181/398/336
f 211/403/337 165/396/337 181/398/337
f 211/404/338 181/405/338 184/406/338
f 210/386/339 180/383/339 165/396/339
f 211/407/340 184/408/340 183/409/340
f 213/410/341 183/409/341 184/408/341
f 213/411/342 184/327/342 169/326/342
f 214/412/343 213/413/343 169/414/343
f 214/379/344 192/374/344 195/373/344
f 183/384/345 212/415/345 185/385/345
f 224/416/346 218/417/347 225/418/348
f 215/419/349 230/420/350 217/421/351
f 230/420/352 220/422/353 229/423/354
f 229/423/355 221/424/356 228/425/357
f 227/426/358 223/427/359 226/428/360
f 226/428/361 224/416/362 225/418/348
f 234/429/363 240/430/364 241/431/365
f 246/432/366 231/433/367 233/434/368
f 246/432/369 236/435/370 235/436/371
f 245/437/372 237/438/373 236/435/374
f 243/439/375 239/440/376 238/441/377
f 242/442/378 240/430/379 239/440/380
f 223/443/381 240/444/382 224/445/383
f 218/446/384 232/447/384 234/448/384
f 218/449/385 241/450/386 225/451/387
f 215/452/388 235/453/389 219/454/390
f 226/455/391 241/450/386 242/456/392
f 220/457/393 235/453/389 236/458/394
f 227/459/395 242/460/396 243/461/397
f 221/462/398 236/458/399 237/463/400
f 224/445/401 232/464/402 216/465/403
f 230/466/404 233/467/405 217/468/406
f 229/469/407 244/470/408 245/471/409
f 223/443/410 238/472/411 239/473/412
f 215/419/413 233/474/413 231/475/413
f 229/469/414 246/476/415 230/466/416
f 256/477/417 250/478/418 257/479/419
f 247/480/420 262/481/421 249/482/422
f 262/481/423 252/483/424 261/484/425
f 261/484/426 253/485/427 260/486/428
f 259/487/429 255/488/430 258/489/431
f 258/489/432 256/477/433 257/479/419
f 266/490/434 272/491/435 273/492/436
f 278/493/437 263/494/438 265/495/439
f 278/493/440 268/496/441 267/497/442
f 277/498/443 269/499/444 268/496/445
f 275/500/446 271/501/447 270/502/448
f 274/503/449 272/504/450 271/501/451
f 255/505/452 272/506/453 256/507/454
f 250/478/455 264/508/455 266/509/455
f 250/510/456 273/511/457 257/512/458
f 247/513/459 267/514/460 251/515/461
f 258/516/462 273/511/457 274/517/463
f 252/518/464 267/514/460 268/519/465
f 259/520/466 274/517/467 275/521/468
f 253/522/469 268/519/470 269/523/471
f 256/507/472 264/524/473 248/525/474
f 262/526/475 265/527/476 249/528/477
f 261/529/478 276/530/479 277/531/480
f 255/505/481 270/532/482 271/533/483
f 247/480/484 265/534/484 263/535/484
f 261/529/485 278/536/486 262/526/487
f 221/424/488 279/537/489 228/425/490
f 259/487/491 280/538/492 254/539/493
f 222/540/494 282/541/495 281/542/496
f 260/486/497 279/537/498 282/541/499
f 281/542/94 279/537/94 280/538/94
f 237/438/500 283/543/501 286/544/502
f 286/544/503 275/500/504 270/502/505
f 238/441/506 284/545/507 243/439/508
f 276/546/509 283/543/510 269/499/511
f 275/521/512 281/547/513 259/520/514
f 238/472/515 281/548/516 285/549/517
f 270/550/518 280/551/519 286/552/520
f 237/463/521 280/553/522 221/462/523
f 228/554/524 283/555/525 244/556/526
f 269/523/527 279/557/528 253/522/529
f 276/530/530 282/558/531 284/559/532
f 243/560/533 282/561/534 227/562/535
f 286/544/536 283/543/536 287/563/536
f 284/545/537 287/563/538 283/543/510
f 286/544/539 287/563/539 285/564/539
f 284/545/540 285/564/540 287/563/540
f 289/565/541 290/566/541 288/567/541
f 291/568/94 294/569/94 290/570/94
f 295/571/542 292/572/542 294/573/542
f 292/574/91 289/575/91 288/576/91
f 294/577/543 288/578/543 290/579/543
f 291/580/544 293/581/544 295/582/544
f 297/583/545 298/584/545 296/585/545
f 299/586/94 302/587/94 298/588/94
f 303/589/546 300/590/546 302/591/546
f 301/592/91 296/593/91 300/594/91
f 302/595/547 296/596/547 298/597/547
f 299/598/548 301/599/548 303/600/548
f 305/601/545 306/602/545 304/603/545
f 307/604/94 310/605/94 306/606/94
f 311/607/546 308/608/546 310/609/546
f 308/610/91 305/611/91 304/612/91
f 310/613/547 304/614/547 306/615/547
f 307/616/548 309/617/548 311/618/548
f 313/619/549 314/620/549 312/621/549
f 315/622/94 318/623/94 314/624/94
f 319/625/550 316/626/550 318/627/550
f 317/628/91 312/629/91 316/630/91
f 318/631/551 312/632/551 314/633/551
f 315/634/552 317/635/552 319/636/552
f 321/637/553 322/638/553 320/639/553
f 323/640/554 324/641/555 322/638/556
f 325/642/546 326/643/546 324/644/546
f 326/643/557 329/645/557 328/646/557
f 329/647/558 330/648/558 328/649/558
f 331/650/559 332/651/559 330/648/559
f 333/652/560 334/653/560 332/654/560
f 335/655/545 336/656/545 334/653/545
f 323/640/561 341/657/561 340/658/561
f 336/659/562 339/660/563 338/661/564
f 338/661/565 321/662/565 320/663/565
f 326/664/94 334/665/94 338/666/94
f 346/667/566 355/668/566 356/669/566
f 325/642/567 343/670/567 327/671/567
f 323/640/568 342/672/569 325/673/570
f 339/660/571 341/674/571 321/662/571
f 339/660/572 348/675/573 349/676/574
f 337/677/575 347/678/575 348/679/575
f 335/655/576 346/680/576 347/678/576
f 331/650/577 346/667/577 333/681/577
f 329/647/578 345/682/578 331/650/578
f 327/671/579 344/683/579 329/645/579
f 352/684/567 363/685/567 353/686/567
f 342/687/580 353/686/580 343/670/580
f 341/674/581 359/688/581 351/689/581
f 347/678/582 356/690/582 357/691/582
f 343/670/583 354/692/583 344/683/583
f 341/657/584 350/693/584 340/658/584
f 348/679/585 357/691/585 358/694/585
f 345/682/586 354/695/586 355/668/586
f 340/658/587 352/696/588 342/672/589
f 349/676/590 358/697/591 359/688/592
f 368/698/91 364/699/91 362/700/91
f 351/689/593 369/701/593 361/702/593
f 357/703/594 366/704/594 367/705/594
f 353/706/595 364/699/595 354/707/595
f 351/708/596 360/709/596 350/693/596
f 358/694/575 367/710/575 368/711/575
f 354/707/597 365/712/597 355/713/597
f 350/693/598 362/714/599 352/696/600
f 359/688/601 368/715/602 369/701/603
f 356/716/604 365/712/604 366/704/604
f 370/717/605 383/718/605 382/719/605
f 371/720/606 383/718/606 385/721/606
f 370/717/607 382/719/607 387/722/607
f 370/717/608 387/722/608 389/723/608
f 370/717/609 389/723/609 386/724/609
f 371/725/610 385/726/610 392/727/610
f 372/728/611 384/729/611 394/730/611
f 373/731/612 388/732/612 396/733/612
f 374/734/613 390/735/613 398/736/613
f 375/737/614 391/738/614 400/739/614
f 371/740/615 392/741/615 395/742/615
f 372/728/616 394/730/616 397/743/616
f 373/731/617 396/733/617 399/744/617
f 374/734/618 398/736/618 401/745/618
f 375/746/619 400/747/619 393/748/619
f 376/749/620 402/750/620 407/751/620
f 377/752/621 403/753/621 409/754/621
f 378/755/622 404/756/622 410/757/622
f 379/758/623 405/759/623 411/760/623
f 380/761/624 406/762/624 408/763/624
f 408/763/625 411/764/625 381/765/625
f 408/763/626 406/762/626 411/764/626
f 406/766/627 379/758/627 411/760/627
f 411/767/628 410/757/628 381/768/628
f 411/760/629 405/759/629 410/769/629
f 405/759/630 378/770/630 410/769/630
f 410/757/631 409/771/631 381/768/631
f 410/757/632 404/756/632 409/771/632
f 404/756/633 377/772/633 409/771/633
f 409/771/634 407/773/634 381/768/634
f 409/754/635 403/753/635 407/751/635
f 403/753/636 376/749/636 407/751/636
f 407/774/637 408/763/637 381/765/637
f 407/774/638 402/775/638 408/763/638
f 402/775/639 380/761/639 408/763/639
f 393/776/640 406/762/640 380/761/640
f 393/748/641 400/747/641 406/777/641
f 400/739/642 379/758/642 406/766/642
f 401/745/643 405/759/643 379/758/643
f 401/745/644 398/736/644 405/759/644
f 398/736/645 378/770/645 405/759/645
f 399/744/646 404/778/646 378/779/646
f 399/744/647 396/733/647 404/778/647
f 396/733/648 377/780/648 404/778/648
f 397/743/649 403/753/649 377/752/649
f 397/743/650 394/730/650 403/753/650
f 394/730/651 376/749/651 403/753/651
f 395/742/652 402/750/652 376/749/652
f 395/781/653 392/782/653 402/775/653
f 392/782/654 380/761/654 402/775/654
f 400/739/655 401/745/655 379/758/655
f 400/739/656 391/738/656 401/745/656
f 391/738/657 374/734/657 401/745/657
f 398/783/658 399/744/658 378/779/658
f 398/783/659 390/784/659 399/744/659
f 390/784/660 373/731/660 399/744/660
f 396/733/661 397/785/661 377/780/661
f 396/733/662 388/732/662 397/785/662
f 388/786/663 372/728/663 397/743/663
f 394/730/664 395/742/664 376/749/664
f 394/730/665 384/729/665 395/742/665
f 384/729/666 371/740/666 395/742/666
f 392/727/667 393/748/667 380/787/667
f 392/727/668 385/726/668 393/748/668
f 385/726/669 375/746/669 393/748/669
f 386/724/670 391/788/670 375/789/670
f 386/724/671 389/723/671 391/788/671
f 389/723/672 374/790/672 391/788/672
f 389/723/673 390/791/673 374/790/673
f 389/723/674 387/722/674 390/791/674
f 387/722/675 373/792/675 390/791/675
f 387/722/676 388/793/676 373/792/676
f 387/722/677 382/719/677 388/793/677
f 382/719/678 372/794/678 388/793/678
f 385/726/679 386/795/679 375/746/679
f 385/721/680 383/718/680 386/724/680
f 383/718/681 370/717/681 386/724/681
f 382/719/682 384/796/682 372/794/682
f 382/719/683 383/718/683 384/796/683
f 383/718/684 371/720/684 384/796/684
f 413/797/81 414/798/81 412/799/81
f 415/800/82 416/801/82 414/798/82
f 416/801/83 419/802/83 418/803/83
f 418/804/84 421/805/84 420/806/84
f 421/805/85 422/807/85 420/806/85
f 423/808/86 424/809/86 422/810/86
f 424/809/87 427/811/87 426/812/87
f 426/813/88 429/814/88 428/815/88
f 428/815/89 431/816/89 430/817/89
f 431/816/90 432/818/90 430/817/90
f 433/819/91 425/820/91 417/821/91
f 433/822/92 434/823/92 432/824/92
f 434/823/93 413/825/93 412/826/93
f 418/827/94 426/828/94 434/829/94
f 44/85/81 46/88/81 45/86/81
f 46/88/82 48/830/82 47/89/82
f 47/89/83 48/830/83 50/90/83
f 49/92/84 50/831/84 52/93/84
f 52/93/85 54/832/85 53/95/85
f 54/96/86 56/99/86 55/97/86
f 56/99/87 58/833/87 57/100/87
f 57/101/88 58/834/88 60/102/88
f 59/103/89 60/102/89 62/104/89
f 62/104/90 64/835/90 63/106/90
f 48/109/91 46/836/91 44/837/91
f 44/837/91 66/838/91 64/107/91
f 64/107/91 62/839/91 60/840/91
f 60/840/91 58/841/91 56/108/91
f 56/108/91 54/842/91 52/843/91
f 52/843/91 50/844/91 48/109/91
f 48/109/91 44/837/91 64/107/91
f 64/107/91 60/840/91 56/108/91
f 56/108/91 52/843/91 48/109/91
f 63/110/92 64/845/92 66/111/92
f 65/112/93 66/111/93 44/113/93
f 65/117/94 43/846/94 45/847/94
f 45/847/94 47/848/94 49/115/94
f 49/115/94 51/849/94 53/850/94
f 53/850/94 55/851/94 57/116/94
f 57/116/94 59/852/94 61/853/94
f 61/853/94 63/854/94 65/117/94
f 65/117/94 45/847/94 49/115/94
f 49/115/94 53/850/94 57/116/94
f 57/116/94 61/853/94 65/117/94
f 94/152/103 80/170/685 82/153/104
f 82/155/106 84/855/106 99/156/106
f 84/158/107 86/161/686 103/159/108
f 86/161/110 88/856/687 107/162/111
f 84/165/115 82/857/688 80/163/113
f 80/163/113 90/858/689 88/164/114
f 88/164/114 86/859/690 84/165/115
f 88/166/116 90/860/116 111/167/116
f 111/169/117 90/861/691 80/170/118
f 89/173/120 79/862/120 81/171/120
f 81/171/120 83/863/120 85/172/120
f 85/172/120 87/864/120 89/173/120
f 89/174/121 114/177/121 91/175/121
f 114/177/122 113/179/692 92/178/123
f 113/179/125 112/181/693 93/180/126
f 111/169/117 94/152/119 93/180/128
f 110/182/130 114/186/130 89/183/130
f 109/185/131 113/188/131 114/186/131
f 108/187/132 112/865/132 113/188/132
f 107/168/133 111/167/133 112/189/133
f 85/191/134 106/195/134 110/192/134
f 105/194/135 109/197/694 110/192/136
f 104/196/138 108/198/695 109/197/139
f 104/196/141 103/159/112 107/162/111
f 83/199/143 102/201/143 106/195/143
f 101/200/144 105/194/696 106/195/145
f 100/202/147 104/196/697 105/194/148
f 99/160/150 103/159/698 104/196/151
f 81/203/153 98/207/154 102/204/154
f 97/206/155 101/209/155 102/204/154
f 96/208/156 100/211/156 101/209/156
f 96/208/157 95/866/157 99/210/157
f 91/175/158 98/214/158 81/212/158
f 91/175/159 92/178/699 97/213/160
f 92/178/162 93/180/700 96/215/163
f 93/180/165 94/152/701 95/154/166
f 224/416/346 216/867/702 218/417/347
f 215/419/349 219/868/703 230/420/350
f 230/420/352 219/868/703 220/422/353
f 229/423/355 220/422/704 221/424/356
f 227/426/358 222/540/705 223/427/359
f 226/428/361 223/427/706 224/416/362
f 234/429/363 232/869/707 240/430/364
f 246/432/366 235/436/708 231/433/367
f 246/432/369 245/437/709 236/435/370
f 245/437/372 244/870/710 237/438/373
f 243/439/375 242/442/711 239/440/376
f 242/442/378 241/431/712 240/430/379
f 223/443/381 239/473/713 240/444/382
f 218/446/384 216/871/384 232/447/384
f 218/449/385 234/872/714 241/450/386
f 215/452/388 231/873/715 235/453/389
f 226/455/391 225/451/387 241/450/386
f 220/457/393 219/454/390 235/453/389
f 227/459/395 226/874/716 242/460/396
f 221/462/398 220/457/717 236/458/399
f 224/445/401 240/444/718 232/464/402
f 230/466/404 246/476/719 233/467/405
f 229/469/407 228/875/720 244/470/408
f 223/443/410 222/876/721 238/472/411
f 215/419/413 217/421/413 233/474/413
f 229/469/414 245/471/722 246/476/415
f 256/477/417 248/877/723 250/478/418
f 247/480/420 251/878/724 262/481/421
f 262/481/423 251/878/724 252/483/424
f 261/484/426 252/483/725 253/485/427
f 259/487/429 254/539/726 255/488/430
f 258/489/432 255/488/727 256/477/433
f 266/490/434 264/879/728 272/491/435
f 278/493/437 267/497/729 263/494/438
f 278/493/440 277/498/730 268/496/441
f 277/498/443 276/546/731 269/499/444
f 275/500/446 274/503/732 271/501/447
f 274/503/449 273/880/733 272/504/450
f 255/505/452 271/533/734 272/506/453
f 250/478/455 248/877/455 264/508/455
f 250/510/456 266/881/735 273/511/457
f 247/513/459 263/882/736 267/514/460
f 258/516/462 257/512/458 273/511/457
f 252/518/464 251/515/461 267/514/460
f 259/520/466 258/516/737 274/517/467
f 253/522/469 252/518/738 268/519/470
f 256/507/472 272/506/739 264/524/473
f 262/526/475 278/536/740 265/527/476
f 261/529/478 260/883/741 276/530/479
f 255/505/481 254/884/742 270/532/482
f 247/480/484 249/482/484 265/534/484
f 261/529/485 277/531/743 278/536/486
f 221/424/488 280/538/94 279/537/489
f 259/487/491 281/542/94 280/538/492
f 222/540/494 227/426/744 282/541/495
f 260/486/497 253/485/745 279/537/498
f 281/542/94 282/541/94 279/537/94
f 237/438/500 244/870/746 283/543/501
f 286/544/503 285/564/747 275/500/504
f 238/441/506 285/564/748 284/545/507
f 276/546/509 284/545/537 283/543/510
f 275/521/512 285/885/749 281/547/513
f 238/472/515 222/876/750 281/548/516
f 270/550/518 254/886/751 280/551/519
f 237/463/521 286/887/752 280/553/522
f 228/554/524 279/888/753 283/555/525
f 269/523/527 283/889/754 279/557/528
f 276/530/530 260/883/755 282/558/531
f 243/560/533 284/890/756 282/561/534
f 289/565/541 291/891/541 290/566/541
f 291/568/94 295/892/94 294/569/94
f 295/571/542 293/893/542 292/572/542
f 292/574/91 293/894/91 289/575/91
f 294/577/543 292/895/543 288/578/543
f 291/580/544 289/896/544 293/581/544
f 297/583/545 299/897/545 298/584/545
f 299/586/94 303/898/94 302/587/94
f 303/589/546 301/899/546 300/590/546
f 301/592/91 297/900/91 296/593/91
f 302/595/547 300/901/547 296/596/547
f 299/598/548 297/902/548 301/599/548
f 305/601/545 307/903/545 306/602/545
f 307/604/94 311/904/94 310/605/94
f 311/607/546 309/905/546 308/608/546
f 308/610/91 309/906/91 305/611/91
f 310/613/547 308/907/547 304/614/547
f 307/616/548 305/908/548 309/617/548
f 313/619/549 315/909/549 314/620/549
f 315/622/94 319/910/94 318/623/94
f 319/625/550 317/911/550 316/626/550
f 317/628/91 313/912/91 312/629/91
f 318/631/551 316/913/551 312/632/551
f 315/634/552 313/914/552 317/635/552
f 321/637/553 323/640/553 322/638/553
f 323/640/554 325/673/757 324/641/555
f 325/642/546 327/671/546 326/643/546
f 326/643/557 327/671/557 329/645/557
f 329/647/558 331/650/558 330/648/558
f 331/650/559 333/681/559 332/651/559
f 333/652/560 335/655/560 334/653/560
f 335/655/545 337/677/545 336/656/545
f 323/640/561 321/637/561 341/657/561
f 336/659/562 337/915/758 339/660/563
f 338/661/565 339/660/565 321/662/565
f 338/666/94 320/916/94 322/917/94
f 322/917/94 324/918/94 326/664/94
f 326/664/94 328/919/94 330/920/94
f 330/920/94 332/921/94 334/665/94
f 334/665/94 336/922/94 338/666/94
f 338/666/94 322/917/94 326/664/94
f 326/664/94 330/920/94 334/665/94
f 346/667/566 345/682/566 355/668/566
f 325/642/567 342/687/567 343/670/567
f 323/640/568 340/658/759 342/672/569
f 339/660/571 349/676/571 341/674/571
f 339/660/572 337/915/760 348/675/573
f 337/677/575 335/655/575 347/678/575
f 335/655/576 333/652/576 346/680/576
f 331/650/577 345/682/577 346/667/577
f 329/647/578 344/923/578 345/682/578
f 327/671/579 343/670/579 344/683/579
f 352/684/567 362/924/567 363/685/567
f 342/687/580 352/684/580 353/686/580
f 341/674/581 349/676/581 359/688/581
f 347/678/582 346/680/582 356/690/582
f 343/670/583 353/686/583 354/692/583
f 341/657/584 351/708/584 350/693/584
f 348/679/585 347/678/585 357/691/585
f 345/682/586 344/923/586 354/695/586
f 340/658/587 350/693/761 352/696/588
f 349/676/590 348/675/762 358/697/591
f 362/700/91 360/925/91 361/926/91
f 361/926/91 369/927/91 368/698/91
f 368/698/91 367/705/91 366/704/91
f 366/704/91 365/712/91 364/699/91
f 364/699/91 363/928/91 362/700/91
f 362/700/91 361/926/91 368/698/91
f 368/698/91 366/704/91 364/699/91
f 351/689/593 359/688/593 369/701/593
f 357/703/594 356/716/594 366/704/594
f 353/706/595 363/928/595 364/699/595
f 351/708/596 361/929/596 360/709/596
f 358/694/575 357/691/575 367/710/575
f 354/707/597 364/699/597 365/712/597
f 350/693/598 360/709/763 362/714/599
f 359/688/601 358/697/764 368/715/602
f 356/716/604 355/713/604 365/712/604
f 413/797/81 415/800/81 414/798/81
f 415/800/82 417/930/82 416/801/82
f 416/801/83 417/930/83 419/802/83
f 418/804/84 419/931/84 421/805/84
f 421/805/85 423/932/85 422/807/85
f 423/808/86 425/933/86 424/809/86
f 424/809/87 425/933/87 427/811/87
f 426/813/88 427/934/88 429/814/88
f 428/815/89 429/814/89 431/816/89
f 431/816/90 433/935/90 432/818/90
f 417/821/91 415/936/91 413/937/91
f 413/937/91 435/938/91 433/819/91
f 433/819/91 431/939/91 429/940/91
f 429/940/91 427/941/91 425/820/91
f 425/820/91 423/942/91 421/943/91
f 421/943/91 419/944/91 417/821/91
f 417/821/91 413/937/91 433/819/91
f 433/819/91 429/940/91 425/820/91
f 425/820/91 421/943/91 417/821/91
f 433/822/92 435/945/92 434/823/92
f 434/823/93 435/945/93 413/825/93
f 434/829/94 412/946/94 414/947/94
f 414/947/94 416/948/94 418/827/94
f 418/827/94 420/949/94 422/950/94
f 422/950/94 424/951/94 426/828/94
f 426/828/94 428/952/94 430/953/94
f 430/953/94 432/954/94 434/829/94
f 434/829/94 414/947/94 418/827/94
f 418/827/94 422/950/94 426/828/94
f 426/828/94 430/953/94 434/829/94
o Esfera_geodésica.001
v 0.919037 0.567165 1.016414
v 0.900878 0.914357 1.107007
v 0.983121 0.257856 0.879529
v 1.013490 0.190483 1.406455
v 1.026833 0.551502 1.032128
v 1.284862 0.309706 0.839746
v 1.219827 0.554868 1.072376
v 0.771977 0.774922 1.523114
v 0.845354 0.797031 1.069335
v 1.230441 0.733837 1.147187
v 0.679533 1.221139 1.394471
v 0.745643 1.144323 1.000748
v 1.073048 1.119649 1.131544
v 0.877732 1.299535 0.988065
v -0.827811 0.859759 1.051189
v -1.013679 0.552565 1.064009
v -0.698004 1.172330 0.988215
v -0.720397 1.130541 1.518182
v -0.909009 0.929407 1.077043
v -0.973398 1.308684 0.958476
v -1.072813 1.026395 1.128417
v -0.856839 0.502736 1.490765
v -0.899525 0.623287 1.048686
v -1.186978 0.873238 1.163756
v -1.022360 0.121570 1.263787
v -1.007547 0.304301 0.900912
v -1.272554 0.479761 1.055493
v -1.202772 0.257015 0.864161
vn -0.9913 0.1105 0.0713
vn -0.1549 0.7139 0.6830
vn 0.9041 -0.1425 0.4029
vn 0.1507 -0.9795 -0.1339
vn -0.1911 -0.4301 0.8823
vn -0.9495 -0.2660 -0.1665
vn -0.8818 0.4560 -0.1204
vn 0.4022 0.8233 0.4005
vn 0.2776 -0.8579 0.4323
vn -0.8226 -0.5679 -0.0273
vn -0.7480 0.6165 -0.2459
vn 0.4605 0.8025 0.3794
vn 0.4159 -0.4437 0.7938
vn 0.7511 -0.6599 -0.0203
vn -0.3183 -0.8038 0.5026
vn -0.6928 0.5350 0.4835
vn 0.4342 0.8964 0.0890
vn 0.3402 0.0479 0.9391
vn 0.9437 -0.2844 -0.1687
vn 0.4797 -0.8336 -0.2736
vn -0.8205 -0.5184 0.2410
vn 0.2235 0.7493 0.6234
vn 0.9992 -0.0016 0.0400
vn 0.2876 -0.8601 -0.4214
vn -0.8555 -0.4645 0.2288
vn -0.1472 0.4184 0.8963
vt 0.314440 0.932722
vt 0.242943 0.904705
vt 0.314440 0.885918
vt 0.574119 0.892931
vt 0.553271 0.950387
vt 0.553271 0.879538
vt 0.438218 0.664918
vt 0.383130 0.614990
vt 0.463773 0.632025
vt 0.637114 0.450871
vt 0.699541 0.384755
vt 0.677974 0.459750
vt 0.160753 0.836300
vt 0.138116 0.870831
vt 0.125118 0.861922
vt 0.915057 0.541553
vt 0.915057 0.621815
vt 0.888927 0.560543
vt 0.876029 0.572349
vt 0.385101 0.904105
vt 0.385101 0.968052
vt 0.336700 0.909957
vt 0.065361 0.324571
vt 0.018581 0.395700
vt 0.018581 0.317185
vt 0.433749 0.982184
vt 0.452177 0.925372
vt 0.468127 0.982184
vt 0.098682 0.650932
vt 0.155454 0.651890
vt 0.094676 0.676842
vt 0.908620 0.332970
vt 0.946854 0.283242
vt 0.946854 0.348004
vt 0.309954 0.527222
vt 0.282596 0.579418
vt 0.273226 0.525937
vt 0.602299 0.876217
vt 0.665978 0.918590
vt 0.591698 0.918590
vt 0.090900 0.310596
vt 0.157220 0.332106
vt 0.082126 0.332106
vt 0.360999 0.623762
vt 0.418665 0.673044
vt 0.336828 0.654232
vt 0.267502 0.071984
vt 0.203636 0.007967
vt 0.276452 0.032434
vt 0.900925 0.008582
vt 0.877671 0.047833
vt 0.864888 0.039678
vt 0.481211 0.173660
vt 0.561753 0.173660
vt 0.501603 0.201383
vt 0.937645 0.632414
vt 0.941722 0.566772
vt 0.953920 0.632414
vt 0.639480 0.181026
vt 0.599885 0.231414
vt 0.599885 0.159499
vt 0.256019 0.106859
vt 0.339172 0.106859
vt 0.274258 0.143088
vt 0.438097 0.919200
vt 0.409849 0.978651
vt 0.400843 0.919200
vt 0.767962 0.838487
vt 0.723356 0.865594
vt 0.755910 0.813009
vt 0.268511 0.931224
vt 0.244246 0.989250
vt 0.228696 0.931224
vt 0.398144 0.071668
vt 0.405367 0.007735
vt 0.434564 0.062071
s 1
usemtl molesAtlas
f 438/955/765 439/956/765 440/957/765
f 440/958/766 439/959/766 442/960/766
f 442/961/767 439/962/767 441/963/767
f 441/964/768 439/965/768 438/966/768
f 438/967/769 440/968/769 436/969/769
f 436/970/770 443/971/770 444/972/770
f 444/972/771 443/971/771 437/973/771
f 437/974/772 443/975/772 445/976/772
f 445/977/773 443/978/773 436/979/773
f 437/980/774 446/981/774 447/982/774
f 447/983/775 446/984/775 449/985/775
f 449/986/776 446/987/776 448/988/776
f 448/989/777 446/990/777 437/991/777
f 452/992/778 453/993/778 454/994/778
f 454/995/779 453/996/779 456/997/779
f 456/998/780 453/999/780 455/1000/780
f 455/1001/781 453/1002/781 452/1003/781
f 452/1004/782 454/1005/782 450/1006/782
f 450/1007/783 457/1008/783 458/1009/783
f 458/1010/784 457/1011/784 451/1012/784
f 451/1013/785 457/1014/785 459/1015/785
f 459/1016/786 457/1017/786 450/1018/786
f 451/1019/787 460/1020/787 461/1021/787
f 461/1022/788 460/1023/788 463/1024/788
f 463/1025/789 460/1026/789 462/1027/789
f 462/1028/790 460/1029/790 451/1030/790
