# Blender 5.0.0
# www.blender.org
mtllib Xmark.mtl
o Cubo.019
v -0.214955 1.030902 2.146039
v 0.285697 0.529253 2.142351
v -0.285697 0.957046 2.142351
v 0.214955 0.455396 2.146039
v -0.171583 1.001204 2.187966
v -0.128211 0.971506 2.229893
v -0.045115 0.885761 2.279320
v 0.146690 0.720338 2.280898
v 0.202314 0.657998 2.263055
v 0.267658 0.564035 2.183980
v 0.171583 0.485094 2.187966
v 0.128211 0.514792 2.229893
v 0.045115 0.600537 2.279320
v -0.146690 0.765961 2.280898
v -0.202314 0.828301 2.263055
v -0.267658 0.922263 2.183980
v -0.226959 1.043092 2.164269
v 0.297701 0.517063 2.160581
v -0.297701 0.969235 2.160581
v 0.226959 0.443206 2.164269
v -0.182663 1.012490 2.207328
v -0.136432 0.980490 2.251726
v -0.048260 0.889569 2.303828
v 0.149715 0.716715 2.305448
v 0.209116 0.650098 2.285778
v 0.278820 0.552670 2.203248
v 0.182663 0.473808 2.207328
v 0.136433 0.505808 2.251726
v 0.048260 0.596729 2.303828
v -0.149715 0.769583 2.305448
v -0.209116 0.836200 2.285778
v -0.278820 0.933628 2.203248
v -0.287753 0.528194 2.146039
v 0.213896 1.028847 2.142351
v -0.213896 0.457452 2.142351
v 0.287753 0.958104 2.146039
v -0.258055 0.571566 2.187966
v -0.228357 0.614938 2.229893
v -0.142612 0.698035 2.279320
v 0.022812 0.889839 2.280898
v 0.085151 0.945463 2.263055
v 0.179114 1.010807 2.183980
v 0.258055 0.914732 2.187966
v 0.228357 0.871360 2.229893
v 0.142612 0.788264 2.279320
v -0.022812 0.596459 2.280898
v -0.085151 0.540835 2.263055
v -0.179114 0.475491 2.183980
v -0.299943 0.516190 2.164269
v 0.226086 1.040850 2.160581
v -0.226086 0.445448 2.160581
v 0.299943 0.970109 2.164269
v -0.269341 0.560486 2.207328
v -0.237341 0.606717 2.251726
v -0.146420 0.694890 2.303828
v 0.026434 0.892864 2.305448
v 0.093051 0.952265 2.285778
v 0.190479 1.021969 2.203248
v 0.269341 0.925812 2.207328
v 0.237341 0.879582 2.251726
v 0.146420 0.791409 2.303828
v -0.026434 0.593434 2.305448
v -0.093051 0.534033 2.285778
v -0.190479 0.464330 2.203248
v -0.102751 0.732737 2.279320
v -0.004316 0.848714 2.279320
v 0.113537 0.754031 2.279320
v 0.008537 0.625391 2.279320
v -0.095317 0.747073 2.315091
v 0.014834 0.638453 2.315091
v 0.100475 0.750480 2.315092
v -0.006523 0.834233 2.313471
v 0.002074 0.741225 2.324774
vn -0.5094 0.4934 -0.7051
vn -0.4595 0.4832 -0.7452
vn -0.4219 0.4745 -0.7726
vn 0.4595 -0.4832 -0.7452
vn 0.5094 -0.4934 -0.7051
vn 0.5581 -0.5016 -0.6610
vn 0.4145 -0.4220 -0.8063
vn 0.4170 -0.4387 -0.7960
vn 0.4113 -0.4023 -0.8179
vn 0.1786 -0.2170 -0.9597
vn 0.1956 -0.2681 -0.9433
vn 0.1534 -0.1430 -0.9778
vn -0.1956 0.2681 -0.9433
vn -0.1786 0.2170 -0.9597
vn -0.2138 0.3240 -0.9216
vn -0.4170 0.4387 -0.7960
vn -0.4145 0.4220 -0.8063
vn 0.4603 -0.4833 0.7447
vn 0.5076 -0.4923 0.7071
vn 0.4223 -0.4750 0.7720
vn -0.5076 0.4923 0.7071
vn -0.4603 0.4833 0.7447
vn -0.5566 0.5000 0.6635
vn -0.4134 0.4207 0.8076
vn -0.4152 0.4349 0.7991
vn -0.4193 0.4711 0.7761
vn -0.1814 0.2227 0.9579
vn -0.1942 0.2659 0.9442
vn -0.2110 0.3239 0.9223
vn 0.1942 -0.2659 0.9442
vn 0.1814 -0.2227 0.9579
vn 0.1584 -0.1471 0.9764
vn 0.4152 -0.4348 0.7991
vn 0.4134 -0.4207 0.8076
vn 0.4106 -0.4002 0.8193
vn 0.7984 0.6010 -0.0370
vn 0.7838 0.6157 -0.0817
vn 0.7814 0.6177 -0.0883
vn 0.5092 -0.5219 -0.6843
vn -0.6284 -0.7715 -0.0993
vn -0.6241 -0.7756 -0.0950
vn -0.6236 -0.7759 -0.0954
vn 0.6284 0.7715 -0.0993
vn 0.6241 0.7756 -0.0950
vn 0.6236 0.7759 -0.0954
vn -0.6221 -0.7780 -0.0881
vn -0.6217 -0.7785 -0.0862
vn 0.6221 0.7780 -0.0881
vn 0.6217 0.7785 -0.0862
vn -0.7220 -0.6917 -0.0146
vn -0.7218 -0.6920 -0.0132
vn -0.7220 -0.6917 -0.0148
vn 0.7220 0.6917 -0.0146
vn 0.7218 0.6920 -0.0132
vn 0.7220 0.6917 -0.0148
vn 0.8050 0.5791 -0.1291
vn 0.8027 0.5809 -0.1355
vn 0.8015 0.5817 -0.1388
vn -0.8050 -0.5791 -0.1291
vn -0.8027 -0.5809 -0.1355
vn -0.8015 -0.5817 -0.1388
vn -0.7473 -0.6644 0.0070
vn -0.7471 -0.6647 0.0063
vn -0.7474 -0.6643 0.0072
vn 0.7473 0.6644 0.0070
vn 0.7471 0.6647 0.0063
vn 0.7474 0.6643 0.0072
vn -0.5092 0.5219 -0.6843
vn -0.7984 -0.6010 -0.0370
vn -0.7838 -0.6157 -0.0817
vn -0.7814 -0.6177 -0.0883
vn -0.4934 -0.5094 -0.7051
vn -0.4832 -0.4595 -0.7452
vn -0.4745 -0.4219 -0.7726
vn 0.4832 0.4595 -0.7452
vn 0.4934 0.5094 -0.7051
vn 0.5016 0.5581 -0.6610
vn 0.4220 0.4145 -0.8063
vn 0.4387 0.4170 -0.7960
vn 0.4023 0.4113 -0.8179
vn 0.2170 0.1786 -0.9597
vn 0.2681 0.1956 -0.9433
vn 0.1430 0.1534 -0.9778
vn -0.2681 -0.1956 -0.9433
vn -0.2170 -0.1786 -0.9597
vn -0.3240 -0.2138 -0.9216
vn -0.4387 -0.4170 -0.7960
vn -0.4220 -0.4145 -0.8063
vn 0.4833 0.4603 0.7447
vn 0.4923 0.5076 0.7071
vn 0.4750 0.4223 0.7720
vn -0.4923 -0.5076 0.7071
vn -0.4833 -0.4603 0.7447
vn -0.5000 -0.5566 0.6635
vn -0.4207 -0.4134 0.8076
vn -0.4349 -0.4152 0.7991
vn -0.4711 -0.4193 0.7761
vn -0.2227 -0.1814 0.9579
vn -0.2659 -0.1942 0.9442
vn -0.3239 -0.2110 0.9223
vn 0.2659 0.1942 0.9442
vn 0.2227 0.1814 0.9579
vn 0.1471 0.1584 0.9764
vn 0.4348 0.4152 0.7991
vn 0.4207 0.4134 0.8076
vn 0.4002 0.4106 0.8193
vn -0.6010 0.7984 -0.0370
vn -0.6157 0.7838 -0.0817
vn -0.6177 0.7814 -0.0883
vn 0.5219 0.5092 -0.6843
vn 0.7715 -0.6284 -0.0993
vn 0.7756 -0.6241 -0.0950
vn 0.7759 -0.6236 -0.0954
vn -0.7715 0.6284 -0.0993
vn -0.7756 0.6241 -0.0950
vn -0.7759 0.6236 -0.0954
vn 0.7780 -0.6221 -0.0881
vn 0.7785 -0.6217 -0.0862
vn -0.7780 0.6221 -0.0881
vn -0.7785 0.6217 -0.0862
vn 0.6917 -0.7220 -0.0146
vn 0.6920 -0.7218 -0.0132
vn 0.6917 -0.7220 -0.0148
vn -0.6917 0.7220 -0.0146
vn -0.6920 0.7218 -0.0132
vn -0.6917 0.7220 -0.0148
vn -0.5791 0.8050 -0.1291
vn -0.5809 0.8027 -0.1355
vn -0.5817 0.8015 -0.1388
vn 0.5791 -0.8050 -0.1291
vn 0.5809 -0.8027 -0.1355
vn 0.5817 -0.8015 -0.1388
vn 0.6644 -0.7473 0.0070
vn 0.6647 -0.7471 0.0063
vn 0.6643 -0.7474 0.0072
vn -0.6644 0.7473 0.0070
vn -0.6647 0.7471 0.0063
vn -0.6643 0.7474 0.0072
vn -0.5219 -0.5092 -0.6843
vn 0.6010 -0.7984 -0.0370
vn 0.6157 -0.7838 -0.0817
vn 0.6177 -0.7814 -0.0883
vn -0.0062 0.0023 -1.0000
vn -0.0220 0.0083 -0.9997
vn -0.0279 0.0105 -0.9996
vn 0.0025 0.0060 -1.0000
vn 0.0103 0.0250 -0.9996
vn 0.0124 0.0302 -0.9995
vn 0.0227 -0.0165 -0.9996
vn 0.0096 0.0027 -1.0000
vn 0.0260 -0.0212 -0.9994
vn -0.0193 -0.0229 -0.9996
vn 0.0013 -0.0108 -0.9999
vn -0.0257 -0.0266 -0.9993
vn -0.0000 -0.0000 -1.0000
vn -0.0980 0.1105 0.9890
vn -0.1159 0.1163 0.9864
vn -0.0870 0.1070 0.9904
vn 0.0911 0.1022 0.9906
vn 0.0994 0.1330 0.9861
vn 0.0869 0.0869 0.9924
vn 0.1329 -0.1077 0.9853
vn 0.1468 -0.1322 0.9803
vn 0.1523 -0.1420 0.9781
vn -0.1086 -0.1107 0.9879
vn -0.1046 -0.1065 0.9888
vn -0.1060 -0.1095 0.9883
vn 0.7323 -0.6790 0.0530
vn 0.7024 -0.7005 0.1259
vn 0.7617 -0.6469 -0.0353
vn 0.6646 0.7357 0.1305
vn 0.6181 0.7543 0.2215
vn 0.5793 0.7628 0.2873
vn -0.8423 0.5307 0.0945
vn -0.8487 0.5113 0.1348
vn -0.8516 0.5002 0.1571
vn 0.7052 0.7030 0.0926
vn 0.7290 0.6425 0.2362
vn 0.6720 0.7400 -0.0288
vn -0.4547 -0.8669 0.2042
vn -0.5081 -0.7988 0.3222
vn -0.3940 -0.9150 0.0865
vn -0.6713 0.7392 -0.0546
vn -0.6861 0.7187 -0.1127
vn -0.6566 0.7542 -0.0052
vn 0.6971 -0.7146 0.0589
vn 0.7095 -0.6982 0.0957
vn 0.7182 -0.6848 0.1236
vn -0.6310 -0.7651 0.1280
vn -0.6622 -0.7080 0.2453
vn -0.5611 -0.8258 -0.0563
vn -0.0917 0.1118 0.9895
vn -0.1066 -0.1075 0.9885
vn -0.1047 -0.1062 0.9888
vn 0.0852 0.1280 0.9881
vn 0.1051 -0.0803 0.9912
vn -0.5581 0.5016 -0.6610
vn 0.4219 -0.4745 -0.7726
vn 0.2138 -0.3240 -0.9216
vn -0.1534 0.1430 -0.9778
vn -0.4113 0.4023 -0.8179
vn 0.5566 -0.5000 0.6635
vn -0.4223 0.4750 0.7720
vn -0.4106 0.4002 0.8193
vn -0.1584 0.1471 0.9764
vn 0.2110 -0.3239 0.9223
vn 0.4193 -0.4711 0.7761
vn 0.8002 0.5990 -0.0313
vn -0.6297 -0.7703 -0.1004
vn 0.6297 0.7703 -0.1004
vn -0.7218 -0.6920 -0.0129
vn 0.7218 0.6920 -0.0129
vn 0.8061 0.5783 -0.1259
vn -0.8061 -0.5783 -0.1259
vn -0.7470 -0.6648 0.0061
vn 0.7470 0.6648 0.0061
vn -0.8002 -0.5990 -0.0313
vn -0.5016 -0.5581 -0.6610
vn 0.4745 0.4219 -0.7726
vn 0.3240 0.2138 -0.9216
vn -0.1430 -0.1534 -0.9778
vn -0.4023 -0.4113 -0.8179
vn 0.5000 0.5566 0.6635
vn -0.4750 -0.4223 0.7720
vn -0.4002 -0.4106 0.8193
vn -0.1471 -0.1584 0.9764
vn 0.3239 0.2110 0.9223
vn 0.4711 0.4193 0.7761
vn -0.5990 0.8002 -0.0313
vn 0.7703 -0.6297 -0.1004
vn -0.7703 0.6297 -0.1004
vn 0.6920 -0.7218 -0.0129
vn -0.6920 0.7218 -0.0129
vn -0.5783 0.8061 -0.1259
vn 0.5783 -0.8061 -0.1259
vn 0.6648 -0.7470 0.0061
vn -0.6648 0.7470 0.0061
vn 0.5990 -0.8002 -0.0313
vn 0.0057 0.0084 -0.9999
vn 0.0067 -0.0077 -0.9999
vn -0.1253 0.1192 0.9849
vn 0.1048 0.1528 0.9827
vn 0.1268 -0.0970 0.9872
vn 0.6785 -0.7130 0.1770
vn 0.7123 0.7017 0.0158
vn -0.8344 0.5483 0.0556
vn 0.7341 0.6068 0.3047
vn -0.5415 -0.7355 0.4073
vn -0.6922 0.7080 -0.1399
vn 0.6785 -0.7346 0.0096
vn -0.6810 -0.6411 0.3540
vt 0.498400 0.640365
vt 0.503583 0.652101
vt 0.507904 0.649124
vt 0.546553 0.592749
vt 0.551735 0.604486
vt 0.553543 0.600866
vt 0.537909 0.598708
vt 0.545199 0.614198
vt 0.529614 0.607476
vt 0.539645 0.620591
vt 0.520518 0.637380
vt 0.504933 0.630658
vt 0.512225 0.646146
vt 0.489592 0.654631
vt 0.494556 0.642694
vt 0.485035 0.651437
vt 0.439032 0.604560
vt 0.444261 0.592855
vt 0.437286 0.600987
vt 0.452977 0.598866
vt 0.448525 0.595792
vt 0.445714 0.614363
vt 0.461593 0.607994
vt 0.471309 0.638660
vt 0.487311 0.632399
vt 0.481318 0.625516
vt 0.480280 0.648099
vt 0.512794 0.668909
vt 0.512527 0.683819
vt 0.514966 0.683269
vt 0.451936 0.667169
vt 0.450096 0.656362
vt 0.450096 0.667283
vt 0.448241 0.656934
vt 0.444363 0.663295
vt 0.446809 0.663806
vt 0.442874 0.656973
vt 0.438881 0.663249
vt 0.441320 0.663799
vt 0.445377 0.670678
vt 0.442874 0.670628
vt 0.439765 0.670626
vt 0.437261 0.670535
vt 0.446280 0.684192
vt 0.443861 0.684946
vt 0.440484 0.684156
vt 0.438053 0.684871
vt 0.514676 0.689495
vt 0.517073 0.688784
vt 0.508128 0.682827
vt 0.507897 0.689013
vt 0.510287 0.688276
vt 0.505821 0.668566
vt 0.505369 0.659190
vt 0.503312 0.668459
vt 0.512431 0.659511
vt 0.510287 0.668777
vt 0.448241 0.656327
vt 0.450096 0.667271
vt 0.450096 0.656248
vt 0.505695 0.683404
vt 0.507406 0.593314
vt 0.496592 0.598473
vt 0.499521 0.603194
vt 0.553543 0.646377
vt 0.542728 0.651537
vt 0.546175 0.653589
vt 0.547685 0.636939
vt 0.533427 0.644232
vt 0.539208 0.627782
vt 0.527262 0.638083
vt 0.510924 0.617074
vt 0.516706 0.600623
vt 0.502449 0.607915
vt 0.496592 0.598452
vt 0.485571 0.593281
vt 0.493429 0.603146
vt 0.448017 0.653973
vt 0.437261 0.649034
vt 0.444637 0.656248
vt 0.443135 0.638918
vt 0.440131 0.644083
vt 0.457374 0.645938
vt 0.451941 0.629041
vt 0.480962 0.617613
vt 0.475651 0.600824
vt 0.469000 0.607336
vt 0.490123 0.608047
vt 0.499036 0.669834
vt 0.498832 0.685106
vt 0.501213 0.684430
vt 0.453778 0.666921
vt 0.451936 0.656309
vt 0.451936 0.666982
vt 0.534567 0.654332
vt 0.530750 0.660779
vt 0.533135 0.661343
vt 0.529261 0.654458
vt 0.525334 0.660657
vt 0.527733 0.661351
vt 0.531704 0.668354
vt 0.529261 0.668261
vt 0.526205 0.668244
vt 0.523742 0.668014
vt 0.532617 0.682232
vt 0.530258 0.682966
vt 0.526975 0.682034
vt 0.524587 0.682628
vt 0.500971 0.690815
vt 0.503312 0.689977
vt 0.521661 0.683522
vt 0.521342 0.689784
vt 0.523742 0.688959
vt 0.519575 0.669223
vt 0.519285 0.659827
vt 0.517073 0.669211
vt 0.498688 0.660235
vt 0.496592 0.669816
vt 0.455592 0.666927
vt 0.453778 0.656363
vt 0.453778 0.667043
vt 0.519220 0.684189
vt 0.535266 0.623942
vt 0.525545 0.611245
vt 0.522870 0.606773
vt 0.510487 0.624265
vt 0.524162 0.634888
vt 0.513795 0.620822
vt 0.456950 0.623265
vt 0.465728 0.613665
vt 0.467934 0.634337
vt 0.463891 0.639308
vt 0.534567 0.686522
vt 0.517073 0.655934
vt 0.514135 0.653589
vt 0.503312 0.656277
vt 0.500855 0.653589
vt 0.442874 0.689298
vt 0.507798 0.659917
vt 0.506826 0.653589
vt 0.529261 0.687162
vt 0.523742 0.656463
vt 0.521152 0.653589
vt 0.448241 0.688228
vt 0.466586 0.623460
vt 0.476382 0.622107
vt 0.496592 0.643983
vt 0.542231 0.595728
vt 0.496592 0.646521
vt 0.451573 0.621128
vt 0.451936 0.656248
vt 0.445839 0.656248
vt 0.440481 0.656248
vt 0.514853 0.660263
vt 0.448241 0.667350
vt 0.503961 0.591261
vt 0.550614 0.641658
vt 0.489241 0.591261
vt 0.453778 0.656248
vt 0.532223 0.653589
vt 0.526906 0.653589
vt 0.521697 0.660464
vt 0.501048 0.660891
vt 0.455592 0.656248
vt 0.531974 0.689410
vt 0.440170 0.691761
vt 0.510287 0.654864
vt 0.526734 0.690239
vt 0.445217 0.690427
s 1
usemtl molesAtlas
f 10/1/1 4/2/2 11/3/3
f 1/4/4 16/5/5 3/6/6
f 16/5/7 6/7/8 15/8/9
f 15/8/10 7/9/11 14/10/12
f 13/11/13 9/12/14 12/13/15
f 12/13/16 10/1/17 11/3/3
f 20/14/18 26/15/19 27/16/20
f 32/17/21 17/18/22 19/19/23
f 32/17/24 22/20/25 21/21/26
f 31/22/27 23/23/28 22/20/29
f 29/24/30 25/25/31 24/26/32
f 28/27/33 26/15/34 25/25/35
f 9/28/36 26/29/37 10/30/38
f 4/31/39 18/32/39 20/33/39
f 4/34/40 27/35/41 11/36/42
f 1/37/43 21/38/44 5/39/45
f 12/40/46 27/35/41 28/41/47
f 6/42/48 21/38/44 22/43/49
f 13/44/50 28/41/51 29/45/52
f 7/46/53 22/43/54 23/47/55
f 10/30/56 18/48/57 2/49/58
f 16/50/59 19/51/60 3/52/61
f 15/53/62 30/54/63 31/55/64
f 9/28/65 24/56/66 25/57/67
f 1/58/68 19/59/68 17/60/68
f 15/53/69 32/61/70 16/50/71
f 42/62/72 36/63/73 43/64/74
f 33/65/75 48/66/76 35/67/77
f 48/66/78 38/68/79 47/69/80
f 47/69/81 39/70/82 46/71/83
f 45/72/84 41/73/85 44/74/86
f 44/74/87 42/62/88 43/64/74
f 52/75/89 58/76/90 59/77/91
f 64/78/92 49/79/93 51/80/94
f 64/78/95 54/81/96 53/82/97
f 63/83/98 55/84/99 54/81/100
f 61/85/101 57/86/102 56/87/103
f 60/88/104 58/76/105 57/86/106
f 41/89/107 58/90/108 42/91/109
f 36/92/110 50/93/110 52/94/110
f 36/95/111 59/96/112 43/97/113
f 33/98/114 53/99/115 37/100/116
f 44/101/117 59/96/112 60/102/118
f 38/103/119 53/99/115 54/104/120
f 45/105/121 60/102/122 61/106/123
f 39/107/124 54/104/125 55/108/126
f 42/91/127 50/109/128 34/110/129
f 48/111/130 51/112/131 35/113/132
f 47/114/133 62/115/134 63/116/135
f 41/89/136 56/117/137 57/118/138
f 33/119/139 51/120/139 49/121/139
f 47/114/140 64/122/141 48/111/142
f 7/9/143 65/123/144 14/10/145
f 45/72/146 66/124/147 40/125/148
f 8/126/149 68/127/150 67/128/151
f 46/71/152 65/123/153 68/127/154
f 67/128/155 65/123/155 66/124/155
f 23/23/156 69/129/157 72/130/158
f 72/130/159 61/85/160 56/87/161
f 24/26/162 70/131/163 29/24/164
f 62/132/165 69/129/166 55/84/167
f 61/106/168 67/133/169 45/105/170
f 24/56/171 67/134/172 71/135/173
f 56/117/174 66/136/175 72/137/176
f 23/47/177 66/138/178 7/46/179
f 14/139/180 69/140/181 30/54/182
f 55/108/183 65/141/184 39/107/185
f 62/115/186 68/142/187 70/143/188
f 29/45/189 68/144/190 13/44/191
f 72/130/192 69/129/192 73/145/192
f 70/131/193 73/145/194 69/129/166
f 72/130/195 73/145/195 71/146/195
f 70/131/196 71/146/196 73/145/196
f 10/1/1 2/147/197 4/2/2
f 1/4/4 5/148/198 16/5/5
f 16/5/7 5/148/198 6/7/8
f 15/8/10 6/7/199 7/9/11
f 13/11/13 8/126/200 9/12/14
f 12/13/16 9/12/201 10/1/17
f 20/14/18 18/149/202 26/15/19
f 32/17/21 21/21/203 17/18/22
f 32/17/24 31/22/204 22/20/25
f 31/22/27 30/150/205 23/23/28
f 29/24/30 28/27/206 25/25/31
f 28/27/33 27/16/207 26/15/34
f 9/28/36 25/57/208 26/29/37
f 4/31/39 2/151/39 18/32/39
f 4/34/40 20/152/209 27/35/41
f 1/37/43 17/153/210 21/38/44
f 12/40/46 11/36/42 27/35/41
f 6/42/48 5/39/45 21/38/44
f 13/44/50 12/40/211 28/41/51
f 7/46/53 6/42/212 22/43/54
f 10/30/56 26/29/213 18/48/57
f 16/50/59 32/61/214 19/51/60
f 15/53/62 14/139/215 30/54/63
f 9/28/65 8/154/216 24/56/66
f 1/58/68 3/155/68 19/59/68
f 15/53/69 31/55/217 32/61/70
f 42/62/72 34/156/218 36/63/73
f 33/65/75 37/157/219 48/66/76
f 48/66/78 37/157/219 38/68/79
f 47/69/81 38/68/220 39/70/82
f 45/72/84 40/125/221 41/73/85
f 44/74/87 41/73/222 42/62/88
f 52/75/89 50/158/223 58/76/90
f 64/78/92 53/82/224 49/79/93
f 64/78/95 63/83/225 54/81/96
f 63/83/98 62/132/226 55/84/99
f 61/85/101 60/88/227 57/86/102
f 60/88/104 59/77/228 58/76/105
f 41/89/107 57/118/229 58/90/108
f 36/92/110 34/159/110 50/93/110
f 36/95/111 52/160/230 59/96/112
f 33/98/114 49/161/231 53/99/115
f 44/101/117 43/97/113 59/96/112
f 38/103/119 37/100/116 53/99/115
f 45/105/121 44/101/232 60/102/122
f 39/107/124 38/103/233 54/104/125
f 42/91/127 58/90/234 50/109/128
f 48/111/130 64/122/235 51/112/131
f 47/114/133 46/162/236 62/115/134
f 41/89/136 40/163/237 56/117/137
f 33/119/139 35/164/139 51/120/139
f 47/114/140 63/116/238 64/122/141
f 7/9/143 66/124/155 65/123/144
f 45/72/146 67/128/155 66/124/147
f 8/126/149 13/11/239 68/127/150
f 46/71/152 39/70/240 65/123/153
f 67/128/155 68/127/155 65/123/155
f 23/23/156 30/150/241 69/129/157
f 72/130/159 71/146/242 61/85/160
f 24/26/162 71/146/243 70/131/163
f 62/132/165 70/131/193 69/129/166
f 61/106/168 71/165/244 67/133/169
f 24/56/171 8/154/245 67/134/172
f 56/117/174 40/163/246 66/136/175
f 23/47/177 72/166/247 66/138/178
f 14/139/180 65/167/248 69/140/181
f 55/108/183 69/168/249 65/141/184
f 62/115/186 46/162/250 68/142/187
f 29/45/189 70/169/251 68/144/190
