# Blender 5.0.0
# www.blender.org
mtllib Coin.mtl
o Coin
v 0.000000 1.013814 -0.057259
v -0.022945 1.150562 -0.047259
v 0.022946 1.150562 -0.047259
v 0.000000 1.013814 0.042741
v 0.022946 1.150562 0.032741
v -0.022945 1.150562 0.032741
v 0.197786 0.994334 -0.057259
v 0.201959 1.132931 -0.047259
v 0.246968 1.123978 -0.047259
v 0.197786 0.994334 0.042741
v 0.246968 1.123978 0.032741
v 0.201959 1.132931 0.032741
v 0.387970 0.936642 -0.057259
v 0.419103 1.071762 -0.047259
v 0.461500 1.054200 -0.047259
v 0.387970 0.936642 0.042741
v 0.461500 1.054200 0.032741
v 0.419103 1.071762 0.032741
v 0.563245 0.842956 -0.057259
v 0.620140 0.969406 -0.047259
v 0.658297 0.943910 -0.047259
v 0.563245 0.842956 0.042741
v 0.658297 0.943910 0.032741
v 0.620140 0.969406 0.032741
v 0.716875 0.716875 -0.057259
v 0.797345 0.829796 -0.047259
v 0.829795 0.797346 -0.047259
v 0.716875 0.716875 0.042741
v 0.829795 0.797346 0.032741
v 0.797345 0.829796 0.032741
v 0.842955 0.563246 -0.057259
v 0.943910 0.658297 -0.047259
v 0.969405 0.620140 -0.047259
v 0.842955 0.563246 0.042742
v 0.969405 0.620140 0.032742
v 0.943910 0.658297 0.032742
v 0.936642 0.387970 -0.057259
v 1.054200 0.461501 -0.047259
v 1.071762 0.419103 -0.047259
v 0.936642 0.387970 0.042742
v 1.071762 0.419103 0.032742
v 1.054200 0.461501 0.032742
v 0.994334 0.197786 -0.057258
v 1.123978 0.246969 -0.047258
v 1.132931 0.201960 -0.047258
v 0.994334 0.197786 0.042742
v 1.132931 0.201960 0.032742
v 1.123978 0.246969 0.032742
v 1.013814 0.000001 -0.057258
v 1.150562 0.022946 -0.047258
v 1.150562 -0.022945 -0.047258
v 1.013814 0.000001 0.042742
v 1.150562 -0.022945 0.032742
v 1.150562 0.022946 0.032742
v 0.994334 -0.197784 -0.057258
v 1.132931 -0.201958 -0.047258
v 1.123978 -0.246967 -0.047258
v 0.994334 -0.197784 0.042742
v 1.123978 -0.246967 0.032742
v 1.132931 -0.201958 0.032742
v 0.936642 -0.387969 -0.057258
v 1.071762 -0.419101 -0.047258
v 1.054200 -0.461499 -0.047258
v 0.936642 -0.387969 0.042742
v 1.054200 -0.461499 0.032742
v 1.071762 -0.419101 0.032742
v 0.842956 -0.563244 -0.057258
v 0.969406 -0.620139 -0.047258
v 0.943910 -0.658296 -0.047258
v 0.842956 -0.563244 0.042742
v 0.943910 -0.658296 0.032742
v 0.969406 -0.620139 0.032742
v 0.716875 -0.716874 -0.057258
v 0.829796 -0.797345 -0.047258
v 0.797346 -0.829794 -0.047258
v 0.716875 -0.716874 0.042742
v 0.797346 -0.829794 0.032742
v 0.829796 -0.797345 0.032742
v 0.563246 -0.842955 -0.057258
v 0.658297 -0.943909 -0.047258
v 0.620140 -0.969404 -0.047258
v 0.563246 -0.842955 0.042742
v 0.620140 -0.969404 0.032742
v 0.658297 -0.943909 0.032742
v 0.387970 -0.936641 -0.057258
v 0.461500 -1.054199 -0.047258
v 0.419103 -1.071761 -0.047258
v 0.387970 -0.936641 0.042742
v 0.419103 -1.071761 0.032742
v 0.461500 -1.054199 0.032742
v 0.197786 -0.994333 -0.057258
v 0.246968 -1.123977 -0.047258
v 0.201959 -1.132930 -0.047258
v 0.197786 -0.994333 0.042742
v 0.201959 -1.132930 0.032742
v 0.246968 -1.123977 0.032742
v 0.000000 -1.013813 -0.057258
v 0.022946 -1.150561 -0.047258
v -0.022945 -1.150561 -0.047258
v 0.000000 -1.013813 0.042742
v -0.022945 -1.150561 0.032742
v 0.022946 -1.150561 0.032742
v -0.197785 -0.994333 -0.057258
v -0.201959 -1.132930 -0.047258
v -0.246968 -1.123977 -0.047258
v -0.197785 -0.994333 0.042742
v -0.246968 -1.123977 0.032742
v -0.201959 -1.132930 0.032742
v -0.387969 -0.936641 -0.057258
v -0.419102 -1.071761 -0.047258
v -0.461499 -1.054199 -0.047258
v -0.387969 -0.936641 0.042742
v -0.461499 -1.054199 0.032742
v -0.419102 -1.071761 0.032742
v -0.563245 -0.842954 -0.057258
v -0.620139 -0.969404 -0.047258
v -0.658296 -0.943909 -0.047258
v -0.563245 -0.842954 0.042742
v -0.658296 -0.943909 0.032742
v -0.620139 -0.969404 0.032742
v -0.716874 -0.716874 -0.057258
v -0.797345 -0.829794 -0.047258
v -0.829795 -0.797344 -0.047258
v -0.716874 -0.716874 0.042742
v -0.829795 -0.797344 0.032742
v -0.797345 -0.829794 0.032742
v -0.842955 -0.563244 -0.057258
v -0.943909 -0.658295 -0.047258
v -0.969405 -0.620138 -0.047258
v -0.842955 -0.563244 0.042742
v -0.969405 -0.620138 0.032742
v -0.943909 -0.658295 0.032742
v -0.936642 -0.387968 -0.057258
v -1.054199 -0.461498 -0.047258
v -1.071761 -0.419101 -0.047258
v -0.936642 -0.387968 0.042742
v -1.071761 -0.419101 0.032742
v -1.054199 -0.461498 0.032742
v -0.994333 -0.197784 -0.057258
v -1.123978 -0.246967 -0.047258
v -1.132930 -0.201958 -0.047258
v -0.994333 -0.197784 0.042742
v -1.132930 -0.201958 0.032742
v -1.123978 -0.246967 0.032742
v -1.013813 0.000001 -0.057258
v -1.150561 -0.022944 -0.047258
v -1.150561 0.022947 -0.047258
v -1.013813 0.000001 0.042742
v -1.150561 0.022947 0.032742
v -1.150561 -0.022944 0.032742
v -0.994333 0.197787 -0.057258
v -1.132930 0.201961 -0.047258
v -1.123977 0.246970 -0.047258
v -0.994333 0.197787 0.042742
v -1.123977 0.246970 0.032742
v -1.132930 0.201961 0.032742
v -0.936641 0.387971 -0.057259
v -1.071761 0.419104 -0.047259
v -1.054199 0.461501 -0.047259
v -0.936641 0.387971 0.042742
v -1.054199 0.461501 0.032742
v -1.071761 0.419104 0.032742
v -0.842954 0.563246 -0.057259
v -0.969404 0.620141 -0.047259
v -0.943908 0.658298 -0.047259
v -0.842954 0.563246 0.042742
v -0.943908 0.658298 0.032742
v -0.969404 0.620141 0.032742
v -0.716874 0.716876 -0.057259
v -0.829794 0.797347 -0.047259
v -0.797344 0.829796 -0.047259
v -0.716874 0.716876 0.042741
v -0.797344 0.829796 0.032741
v -0.829794 0.797347 0.032741
v -0.563243 0.842957 -0.057259
v -0.658295 0.943911 -0.047259
v -0.620138 0.969406 -0.047259
v -0.563243 0.842957 0.042741
v -0.620138 0.969406 0.032741
v -0.658295 0.943911 0.032741
v -0.387968 0.936643 -0.057259
v -0.461498 1.054201 -0.047259
v -0.419100 1.071762 -0.047259
v -0.387968 0.936643 0.042741
v -0.419100 1.071762 0.032741
v -0.461498 1.054201 0.032741
v -0.197783 0.994334 -0.057259
v -0.246966 1.123979 -0.047259
v -0.201957 1.132931 -0.047259
v -0.197783 0.994334 0.042741
v -0.201957 1.132931 0.032741
v -0.246966 1.123979 0.032741
v 0.220385 1.107948 -0.057259
v 0.000000 1.129654 -0.057259
v 0.000000 1.129654 0.042741
v 0.220385 1.107948 0.042741
v 0.432300 1.043665 -0.057259
v 0.432300 1.043665 0.042741
v 0.627603 0.939273 -0.057259
v 0.627603 0.939273 0.042741
v 0.798786 0.798787 -0.057259
v 0.798786 0.798787 0.042741
v 0.939273 0.627603 -0.057259
v 0.939273 0.627603 0.042742
v 1.043664 0.432301 -0.057259
v 1.043664 0.432301 0.042742
v 1.107948 0.220385 -0.057258
v 1.107948 0.220385 0.042742
v 1.129654 0.000001 -0.057258
v 1.129654 0.000001 0.042742
v 1.107948 -0.220384 -0.057258
v 1.107948 -0.220384 0.042742
v 1.043664 -0.432299 -0.057258
v 1.043664 -0.432299 0.042742
v 0.939273 -0.627601 -0.057258
v 0.939273 -0.627601 0.042742
v 0.798786 -0.798785 -0.057258
v 0.798786 -0.798785 0.042742
v 0.627603 -0.939272 -0.057258
v 0.627603 -0.939272 0.042742
v 0.432300 -1.043664 -0.057258
v 0.432300 -1.043664 0.042742
v 0.220385 -1.107947 -0.057258
v 0.220385 -1.107947 0.042742
v 0.000000 -1.129653 -0.057258
v 0.000000 -1.129653 0.042742
v -0.220384 -1.107947 -0.057258
v -0.220384 -1.107947 0.042742
v -0.432299 -1.043663 -0.057258
v -0.432299 -1.043663 0.042742
v -0.627602 -0.939272 -0.057258
v -0.627602 -0.939272 0.042742
v -0.798786 -0.798785 -0.057258
v -0.798786 -0.798785 0.042742
v -0.939272 -0.627601 -0.057258
v -0.939272 -0.627601 0.042742
v -1.043664 -0.432298 -0.057258
v -1.043664 -0.432298 0.042742
v -1.107947 -0.220383 -0.057258
v -1.107947 -0.220383 0.042742
v -1.129653 0.000001 -0.057258
v -1.129653 0.000001 0.042742
v -1.107947 0.220386 -0.057258
v -1.107947 0.220386 0.042742
v -1.043663 0.432302 -0.057259
v -1.043663 0.432302 0.042742
v -0.939271 0.627604 -0.057259
v -0.939271 0.627604 0.042742
v -0.798785 0.798787 -0.057259
v -0.798785 0.798787 0.042741
v -0.627600 0.939274 -0.057259
v -0.627600 0.939274 0.042741
v -0.432298 1.043665 -0.057259
v -0.432298 1.043665 0.042741
v -0.220383 1.107949 -0.057259
v -0.220383 1.107949 0.042741
vn -0.1023 0.7273 0.6787
vn -0.0416 0.7332 -0.6787
vn -0.1023 0.7273 -0.6787
vn 0.3190 0.6615 0.6787
vn 0.3728 0.6328 -0.6787
vn 0.3190 0.6615 -0.6787
vn 0.4419 0.5866 0.6787
vn 0.4891 0.5479 -0.6787
vn 0.4419 0.5866 -0.6787
vn 0.5479 0.4891 0.6787
vn 0.5866 0.4419 -0.6787
vn 0.5479 0.4891 -0.6787
vn 0.6328 0.3728 0.6787
vn 0.6615 0.3190 -0.6787
vn 0.6328 0.3728 -0.6787
vn 0.6933 0.2422 0.6787
vn 0.7111 0.1838 -0.6787
vn 0.6933 0.2422 -0.6787
vn 0.7273 0.1023 0.6787
vn 0.7332 0.0416 -0.6787
vn 0.7273 0.1023 -0.6787
vn 0.7332 -0.0416 0.6787
vn 0.7273 -0.1023 -0.6787
vn 0.7332 -0.0416 -0.6787
vn 0.7111 -0.1838 0.6787
vn 0.6933 -0.2422 -0.6787
vn 0.7110 -0.1838 -0.6787
vn 0.6615 -0.3190 0.6787
vn 0.6328 -0.3728 -0.6787
vn 0.6615 -0.3190 -0.6787
vn 0.5866 -0.4419 0.6787
vn 0.5479 -0.4891 -0.6787
vn 0.5866 -0.4419 -0.6787
vn 0.4891 -0.5479 0.6787
vn 0.4419 -0.5866 -0.6787
vn 0.4891 -0.5479 -0.6787
vn 0.3728 -0.6328 0.6787
vn 0.3190 -0.6615 -0.6787
vn 0.3728 -0.6328 -0.6787
vn 0.2422 -0.6933 0.6787
vn 0.1838 -0.7111 -0.6787
vn 0.2422 -0.6933 -0.6787
vn 0.1023 -0.7273 0.6787
vn 0.0416 -0.7332 -0.6787
vn 0.1023 -0.7273 -0.6787
vn -0.0416 -0.7332 0.6787
vn -0.1023 -0.7273 -0.6787
vn -0.0416 -0.7332 -0.6787
vn -0.1838 -0.7111 0.6787
vn -0.2422 -0.6933 -0.6787
vn -0.1838 -0.7110 -0.6787
vn -0.3190 -0.6615 0.6787
vn -0.3728 -0.6328 -0.6787
vn -0.3190 -0.6615 -0.6787
vn -0.4419 -0.5866 0.6787
vn -0.4891 -0.5479 -0.6787
vn -0.4419 -0.5866 -0.6787
vn -0.5479 -0.4891 0.6787
vn -0.5866 -0.4419 -0.6787
vn -0.5479 -0.4891 -0.6787
vn -0.6328 -0.3728 0.6787
vn -0.6615 -0.3190 -0.6787
vn -0.6328 -0.3728 -0.6787
vn -0.6933 -0.2422 0.6787
vn -0.7111 -0.1838 -0.6787
vn -0.6933 -0.2422 -0.6787
vn -0.7273 -0.1023 0.6787
vn -0.7332 -0.0416 -0.6787
vn -0.7273 -0.1023 -0.6787
vn -0.7332 0.0416 0.6787
vn -0.7273 0.1023 -0.6787
vn -0.7332 0.0416 -0.6787
vn -0.7111 0.1838 0.6787
vn -0.6933 0.2422 -0.6787
vn -0.7110 0.1838 -0.6787
vn -0.6615 0.3190 0.6787
vn -0.6328 0.3728 -0.6787
vn -0.6615 0.3190 -0.6787
vn -0.5866 0.4419 0.6787
vn -0.5479 0.4891 -0.6787
vn -0.5866 0.4419 -0.6787
vn -0.4891 0.5479 0.6787
vn -0.4419 0.5866 -0.6787
vn -0.4891 0.5479 -0.6787
vn -0.3728 0.6328 0.6787
vn -0.3190 0.6615 -0.6787
vn -0.3728 0.6328 -0.6787
vn -0.2422 0.6933 0.6787
vn -0.1838 0.7111 -0.6787
vn -0.2422 0.6933 -0.6787
vn 0.1838 0.7111 0.6787
vn 0.2422 0.6933 -0.6787
vn 0.1838 0.7110 -0.6787
vn -0.0000 -0.0000 1.0000
vn 0.0416 0.7332 0.6787
vn 0.1023 0.7273 -0.6787
vn 0.0416 0.7332 -0.6787
vn -0.0000 0.1920 -0.9814
vn -0.0000 0.1920 0.9814
vn -0.0416 0.7332 0.6787
vn 0.0375 0.1883 -0.9814
vn 0.0375 0.1883 0.9814
vn 0.1023 0.7273 0.6787
vn 0.0735 0.1774 -0.9814
vn 0.0735 0.1774 0.9814
vn 0.2422 0.6933 0.6787
vn 0.1067 0.1596 -0.9814
vn 0.1067 0.1596 0.9814
vn 0.3728 0.6328 0.6787
vn 0.1357 0.1357 -0.9814
vn 0.1357 0.1357 0.9814
vn 0.4891 0.5479 0.6787
vn 0.1596 0.1067 -0.9814
vn 0.1596 0.1067 0.9814
vn 0.5866 0.4419 0.6787
vn 0.1774 0.0735 -0.9814
vn 0.1774 0.0735 0.9814
vn 0.6615 0.3190 0.6787
vn 0.1883 0.0375 -0.9814
vn 0.1883 0.0375 0.9814
vn 0.7110 0.1838 0.6787
vn 0.1920 -0.0000 -0.9814
vn 0.1920 -0.0000 0.9814
vn 0.7332 0.0416 0.6787
vn 0.1883 -0.0375 -0.9814
vn 0.1883 -0.0375 0.9814
vn 0.7273 -0.1023 0.6787
vn 0.1774 -0.0735 -0.9814
vn 0.1774 -0.0735 0.9814
vn 0.6933 -0.2422 0.6787
vn 0.1596 -0.1067 -0.9814
vn 0.1596 -0.1067 0.9814
vn 0.6328 -0.3728 0.6787
vn 0.1357 -0.1357 -0.9814
vn 0.1357 -0.1357 0.9814
vn 0.5479 -0.4891 0.6787
vn 0.1067 -0.1596 -0.9814
vn 0.1067 -0.1596 0.9814
vn 0.4419 -0.5866 0.6787
vn 0.0735 -0.1774 -0.9814
vn 0.0735 -0.1774 0.9814
vn 0.3190 -0.6615 0.6787
vn 0.0375 -0.1883 -0.9814
vn 0.0375 -0.1883 0.9814
vn 0.1838 -0.7110 0.6787
vn -0.0000 -0.1920 -0.9814
vn -0.0000 -0.1920 0.9814
vn 0.0416 -0.7332 0.6787
vn -0.0375 -0.1883 -0.9814
vn -0.0375 -0.1883 0.9814
vn -0.1023 -0.7273 0.6787
vn -0.0735 -0.1774 -0.9814
vn -0.0735 -0.1774 0.9814
vn -0.2422 -0.6933 0.6787
vn -0.1067 -0.1596 -0.9814
vn -0.1067 -0.1596 0.9814
vn -0.3728 -0.6328 0.6787
vn -0.1357 -0.1357 -0.9814
vn -0.1357 -0.1357 0.9814
vn -0.4891 -0.5479 0.6787
vn -0.1596 -0.1067 -0.9814
vn -0.1596 -0.1067 0.9814
vn -0.5866 -0.4419 0.6787
vn -0.1774 -0.0735 -0.9814
vn -0.1774 -0.0735 0.9814
vn -0.6615 -0.3190 0.6787
vn -0.1883 -0.0375 -0.9814
vn -0.1883 -0.0375 0.9814
vn -0.7110 -0.1838 0.6787
vn -0.1920 -0.0000 -0.9814
vn -0.1920 -0.0000 0.9814
vn -0.7332 -0.0416 0.6787
vn -0.1883 0.0375 -0.9814
vn -0.1883 0.0375 0.9814
vn -0.7273 0.1023 0.6787
vn -0.1774 0.0735 -0.9814
vn -0.1774 0.0735 0.9814
vn -0.6933 0.2422 0.6787
vn -0.1596 0.1067 -0.9814
vn -0.1596 0.1067 0.9814
vn -0.6328 0.3728 0.6787
vn -0.1357 0.1357 -0.9814
vn -0.1357 0.1357 0.9814
vn -0.5479 0.4891 0.6787
vn -0.1067 0.1596 -0.9814
vn -0.1067 0.1596 0.9814
vn -0.4419 0.5866 0.6787
vn -0.0735 0.1774 -0.9814
vn -0.0735 0.1774 0.9814
vn -0.3190 0.6615 0.6787
vn -0.0375 0.1883 -0.9814
vn -0.0375 0.1883 0.9814
vn -0.1838 0.7110 0.6787
vn -0.0000 -0.0000 -1.0000
vt 0.252221 0.842173
vt 0.205846 0.796150
vt 0.252221 0.796150
vt 0.083987 0.842173
vt 0.045428 0.796150
vt 0.083987 0.796150
vt 0.036282 0.842173
vt 0.003490 0.796150
vt 0.036282 0.796150
vt 0.422091 0.669619
vt 0.386243 0.623596
vt 0.422091 0.623596
vt 0.376405 0.669619
vt 0.335506 0.623596
vt 0.376405 0.623596
vt 0.324576 0.669619
vt 0.280198 0.623596
vt 0.324576 0.623596
vt 0.268594 0.669619
vt 0.222442 0.623596
vt 0.268594 0.623596
vt 0.210611 0.669619
vt 0.164459 0.623596
vt 0.210611 0.623596
vt 0.152855 0.669619
vt 0.108477 0.623596
vt 0.152855 0.623596
vt 0.097547 0.669619
vt 0.056647 0.623596
vt 0.097547 0.623596
vt 0.046810 0.669619
vt 0.010962 0.623596
vt 0.046810 0.623596
vt 0.430457 0.727137
vt 0.394609 0.681114
vt 0.430457 0.681114
vt 0.384771 0.727137
vt 0.343872 0.681114
vt 0.384771 0.681114
vt 0.332942 0.727137
vt 0.288563 0.681114
vt 0.332942 0.681114
vt 0.276960 0.727137
vt 0.230808 0.681114
vt 0.276960 0.681114
vt 0.218977 0.727137
vt 0.172825 0.681114
vt 0.218977 0.681114
vt 0.161221 0.727137
vt 0.116843 0.681114
vt 0.161221 0.681114
vt 0.105912 0.727137
vt 0.065013 0.681114
vt 0.105912 0.681114
vt 0.055176 0.727137
vt 0.019327 0.681114
vt 0.055176 0.681114
vt 0.565889 0.391321
vt 0.610431 0.351479
vt 0.610431 0.391321
vt 0.565889 0.340698
vt 0.610431 0.296428
vt 0.610431 0.340698
vt 0.565889 0.284730
vt 0.610431 0.237733
vt 0.610431 0.284730
vt 0.565889 0.225567
vt 0.610431 0.177650
vt 0.610431 0.225567
vt 0.565889 0.165484
vt 0.610431 0.118488
vt 0.610431 0.165484
vt 0.565889 0.106790
vt 0.610431 0.062520
vt 0.610431 0.106790
vt 0.565889 0.051739
vt 0.610431 0.011897
vt 0.610431 0.051739
vt 0.454577 0.842173
vt 0.421785 0.796150
vt 0.454577 0.796150
vt 0.412640 0.842173
vt 0.374080 0.796150
vt 0.412640 0.796150
vt 0.363646 0.842173
vt 0.320801 0.796150
vt 0.363646 0.796150
vt 0.309479 0.842173
vt 0.263995 0.796150
vt 0.309479 0.796150
vt 0.137267 0.842173
vt 0.094422 0.796150
vt 0.137267 0.796150
vt 0.495471 0.181748
vt 0.394936 0.546435
vt 0.063517 0.433342
vt 0.194072 0.842173
vt 0.148588 0.796150
vt 0.194072 0.796150
vt 0.200488 0.790397
vt 0.200488 0.847926
vt 0.205846 0.842173
vt 0.144492 0.790397
vt 0.144492 0.847926
vt 0.148588 0.842173
vt 0.458102 0.603439
vt 0.451660 0.607626
vt 0.454878 0.595953
vt 0.038839 0.447716
vt 0.036997 0.455717
vt 0.031772 0.444903
vt 0.478573 0.549094
vt 0.471506 0.551810
vt 0.476731 0.541068
vt 0.068558 0.496953
vt 0.068170 0.505206
vt 0.061137 0.495711
vt 0.508292 0.500262
vt 0.500872 0.501403
vt 0.507904 0.492004
vt 0.106383 0.538911
vt 0.107464 0.547099
vt 0.098895 0.539287
vt 0.546117 0.458820
vt 0.538629 0.458341
vt 0.547198 0.450646
vt 0.150861 0.571978
vt 0.153368 0.579786
vt 0.143592 0.573958
vt 0.327978 0.617843
vt 0.327978 0.675372
vt 0.335506 0.669619
vt 0.273344 0.617843
vt 0.273344 0.675372
vt 0.280198 0.669619
vt 0.216526 0.617843
vt 0.216526 0.675372
vt 0.222442 0.669619
vt 0.159709 0.617843
vt 0.159709 0.675372
vt 0.164459 0.669619
vt 0.105075 0.617843
vt 0.105075 0.675372
vt 0.108477 0.669619
vt 0.847861 0.428112
vt 0.845353 0.420304
vt 0.855130 0.426131
vt 0.452605 0.541271
vt 0.460093 0.541749
vt 0.451524 0.549444
vt 0.892339 0.461179
vt 0.891258 0.452991
vt 0.899827 0.460802
vt 0.490430 0.499828
vt 0.497850 0.498687
vt 0.490818 0.508086
vt 0.930164 0.503137
vt 0.930552 0.494884
vt 0.937584 0.504379
vt 0.520149 0.450996
vt 0.527216 0.448280
vt 0.521990 0.459022
vt 0.336344 0.675361
vt 0.336344 0.732890
vt 0.343872 0.727137
vt 0.281710 0.675361
vt 0.281710 0.732890
vt 0.288563 0.727137
vt 0.224892 0.675361
vt 0.224892 0.732890
vt 0.230808 0.727137
vt 0.168075 0.675361
vt 0.168074 0.732890
vt 0.172825 0.727137
vt 0.113440 0.675361
vt 0.113440 0.732890
vt 0.116843 0.727137
vt 0.959883 0.835995
vt 0.966950 0.833279
vt 0.961725 0.844021
vt 0.490430 0.118137
vt 0.490818 0.109885
vt 0.497850 0.119379
vt 0.930164 0.884827
vt 0.937584 0.883687
vt 0.930552 0.893085
vt 0.452605 0.076179
vt 0.451524 0.067992
vt 0.460093 0.075803
vt 0.892339 0.926270
vt 0.899827 0.926748
vt 0.891258 0.934443
vt 0.408127 0.043113
vt 0.405619 0.035305
vt 0.415396 0.041132
vt 0.615999 0.288962
vt 0.560321 0.288962
vt 0.565889 0.296428
vt 0.615999 0.231104
vt 0.560321 0.231104
vt 0.565889 0.237733
vt 0.615999 0.172113
vt 0.560321 0.172113
vt 0.565889 0.177650
vt 0.615999 0.114256
vt 0.560321 0.114256
vt 0.565889 0.118488
vt 0.640016 0.979882
vt 0.643854 0.987010
vt 0.633246 0.983390
vt 0.150861 0.041359
vt 0.143592 0.039280
vt 0.153368 0.033586
vt 0.590595 0.956977
vt 0.593102 0.964785
vt 0.583326 0.958958
vt 0.106383 0.073820
vt 0.098895 0.073341
vt 0.107464 0.065647
vt 0.546117 0.923910
vt 0.547198 0.932098
vt 0.538629 0.924287
vt 0.068558 0.115263
vt 0.061138 0.116403
vt 0.068170 0.107004
vt 0.508292 0.881952
vt 0.507904 0.890205
vt 0.500872 0.880710
vt 0.038839 0.164095
vt 0.031772 0.166811
vt 0.036997 0.156068
vt 0.313575 0.790397
vt 0.313575 0.847926
vt 0.320801 0.842173
vt 0.257580 0.790397
vt 0.257580 0.847926
vt 0.263995 0.842173
vt 0.442097 0.666705
vt 0.447666 0.720181
vt 0.442097 0.714607
vt 0.011926 0.388817
vt 0.007932 0.335181
vt 0.018368 0.393092
vt 0.447666 0.661208
vt 0.443183 0.654550
vt 0.094422 0.842173
vt 0.045428 0.842173
vt 0.430457 0.669619
vt 0.386243 0.669619
vt 0.590595 0.426359
vt 0.200282 0.594883
vt 0.193512 0.598391
vt 0.593102 0.418585
vt 0.640016 0.404128
vt 0.204120 0.602011
vt 0.252747 0.606745
vt 0.246736 0.611647
vt 0.643854 0.397052
vt 0.692481 0.392980
vt 0.257768 0.612920
vt 0.306240 0.607110
vt 0.301219 0.613216
vt 0.740953 0.387170
vt 0.697502 0.386874
vt 0.354868 0.603038
vt 0.358705 0.595962
vt 0.751985 0.388443
vt 0.798440 0.405207
vt 0.745974 0.393344
vt 0.365476 0.599563
vt 0.408127 0.573731
vt 0.405619 0.581505
vt 0.805210 0.401699
vt 0.056647 0.669619
vt 0.002596 0.623596
vt 0.010962 0.669619
vt 0.002596 0.669619
vt 0.394609 0.727137
vt 0.959883 0.552374
vt 0.540620 0.396652
vt 0.543844 0.404137
vt 0.966950 0.555186
vt 0.980354 0.606997
vt 0.547062 0.392464
vt 0.551056 0.338883
vt 0.555539 0.345540
vt 0.986796 0.611272
vt 0.990790 0.664908
vt 0.556625 0.333385
vt 0.551056 0.279909
vt 0.556625 0.285483
vt 0.996360 0.718384
vt 0.996360 0.670482
vt 0.547062 0.226273
vt 0.540620 0.221998
vt 0.986796 0.777463
vt 0.990790 0.723882
vt 0.995273 0.730539
vt 0.543844 0.214557
vt 0.520149 0.167375
vt 0.527216 0.170187
vt 0.980354 0.781651
vt 0.983578 0.789136
vt 0.065013 0.727137
vt 0.565889 0.400770
vt 0.565889 0.351479
vt 0.855130 0.960810
vt 0.365476 0.016700
vt 0.358706 0.020208
vt 0.845354 0.966504
vt 0.798440 0.980962
vt 0.847861 0.958730
vt 0.312251 0.003444
vt 0.306240 0.008345
vt 0.794602 0.988038
vt 0.745975 0.992109
vt 0.301220 0.002171
vt 0.252747 0.007981
vt 0.257768 0.001875
vt 0.697502 0.997919
vt 0.740954 0.998215
vt 0.204120 0.012052
vt 0.200282 0.019128
vt 0.692481 0.991745
vt 0.686471 0.996646
vt 0.565889 0.062520
vt 0.610431 0.002447
vt 0.565889 0.011897
vt 0.565889 0.002447
vt 0.421785 0.842173
vt 0.374080 0.842173
vt 0.476731 0.840716
vt 0.015144 0.210954
vt 0.018368 0.218439
vt 0.471506 0.829903
vt 0.458102 0.778091
vt 0.478573 0.832715
vt 0.011926 0.222626
vt 0.007932 0.276208
vt 0.003449 0.269551
vt 0.451660 0.773816
vt 0.002362 0.281706
vt 0.002362 0.329608
vt 0.953577 0.615770
vt 0.790317 0.951386
vt 0.484879 0.769319
vt 0.475513 0.717347
vt 0.475513 0.664421
vt 0.035779 0.332347
vt 0.484879 0.612576
vt 0.045145 0.384320
vt 0.503251 0.563804
vt 0.529922 0.519980
vt 0.124135 0.515185
vt 0.090188 0.477530
vt 0.563869 0.482787
vt 0.164051 0.544862
vt 0.603786 0.453655
vt 0.208405 0.565418
vt 0.648139 0.433703
vt 0.695224 0.423699
vt 0.255490 0.576064
vt 0.743232 0.424026
vt 0.303498 0.576391
vt 0.790317 0.434672
vt 0.350583 0.566387
vt 0.834670 0.455228
vt 0.434853 0.517303
vt 0.874587 0.484904
vt 0.468799 0.480110
vt 0.908534 0.522559
vt 0.495471 0.436286
vt 0.935205 0.566747
vt 0.513843 0.387514
vt 0.962943 0.667742
vt 0.523209 0.282743
vt 0.523209 0.335669
vt 0.962943 0.720668
vt 0.953577 0.772513
vt 0.513843 0.230771
vt 0.935205 0.821285
vt 0.468800 0.137560
vt 0.908534 0.865110
vt 0.434853 0.099905
vt 0.874587 0.902303
vt 0.394936 0.070229
vt 0.834670 0.931435
vt 0.350583 0.049673
vt 0.743232 0.961390
vt 0.255490 0.038699
vt 0.303498 0.039026
vt 0.695224 0.961063
vt 0.208405 0.048704
vt 0.648139 0.950417
vt 0.603786 0.929861
vt 0.164052 0.068655
vt 0.563869 0.900185
vt 0.090188 0.134980
vt 0.124135 0.097787
vt 0.529922 0.862529
vt 0.063517 0.178805
vt 0.503251 0.818341
vt 0.045145 0.227577
vt 0.035779 0.279422
vt 0.003490 0.842173
vt 0.019327 0.727137
vt 0.003449 0.341777
vt 0.015144 0.400534
vt 0.430457 0.623596
vt 0.583326 0.424279
vt 0.633246 0.400527
vt 0.686470 0.387997
vt 0.312251 0.612093
vt 0.794602 0.398079
vt 0.415396 0.575811
vt 0.961725 0.544373
vt 0.983578 0.599556
vt 0.995273 0.658312
vt 0.555539 0.273313
vt 0.521991 0.159374
vt 0.610431 0.400770
vt 0.805210 0.984562
vt 0.354868 0.013080
vt 0.751986 0.997092
vt 0.246736 0.002997
vt 0.193512 0.015528
vt 0.454878 0.785533
vt 0.443183 0.726777
s 1
usemtl molesAtlas
f 191/1/1 2/2/2 189/3/3
f 17/4/4 20/5/5 15/6/6
f 23/7/7 26/8/8 21/9/9
f 29/10/10 32/11/11 27/12/12
f 35/13/13 38/14/14 33/15/15
f 41/16/16 44/17/17 39/18/18
f 47/19/19 50/20/20 45/21/21
f 53/22/22 56/23/23 51/24/24
f 59/25/25 62/26/26 57/27/27
f 65/28/28 68/29/29 63/30/30
f 71/31/31 74/32/32 69/33/33
f 77/34/34 80/35/35 75/36/36
f 83/37/37 86/38/38 81/39/39
f 89/40/40 92/41/41 87/42/42
f 95/43/43 98/44/44 93/45/45
f 101/46/46 104/47/47 99/48/48
f 107/49/49 110/50/50 105/51/51
f 113/52/52 116/53/53 111/54/54
f 119/55/55 122/56/56 117/57/57
f 125/58/58 128/59/59 123/60/60
f 131/61/61 134/62/62 129/63/63
f 137/64/64 140/65/65 135/66/66
f 143/67/67 146/68/68 141/69/69
f 149/70/70 152/71/71 147/72/72
f 155/73/73 158/74/74 153/75/75
f 161/76/76 164/77/77 159/78/78
f 167/79/79 170/80/80 165/81/81
f 173/82/82 176/83/83 171/84/84
f 179/85/85 182/86/86 177/87/87
f 185/88/88 188/89/89 183/90/90
f 11/91/91 14/92/92 9/93/93
f 112/94/94 64/95/94 16/96/94
f 5/97/95 8/98/96 3/99/97
f 194/100/98 2/2/2 3/99/97
f 195/101/99 5/97/95 6/102/100
f 193/103/101 8/98/96 9/93/93
f 196/104/102 11/91/91 12/105/103
f 197/106/104 14/107/92 15/108/6
f 198/109/105 17/110/4 18/111/106
f 199/112/107 20/113/5 21/114/9
f 200/115/108 23/116/7 24/117/109
f 201/118/110 26/119/8 27/120/12
f 202/121/111 29/122/10 30/123/112
f 203/124/113 32/125/11 33/126/15
f 204/127/114 35/128/13 36/129/115
f 205/130/116 38/14/14 39/18/18
f 206/131/117 41/16/16 42/132/118
f 207/133/119 44/17/17 45/21/21
f 208/134/120 47/19/19 48/135/121
f 209/136/122 50/20/20 51/24/24
f 210/137/123 53/22/22 54/138/124
f 211/139/125 56/23/23 57/27/27
f 212/140/126 59/25/25 60/141/127
f 213/142/128 62/26/26 63/30/30
f 214/143/129 65/28/28 66/144/130
f 215/145/131 68/146/29 69/147/33
f 216/148/132 71/149/31 72/150/133
f 217/151/134 74/152/32 75/153/36
f 218/154/135 77/155/34 78/156/136
f 219/157/137 80/158/35 81/159/39
f 220/160/138 83/161/37 84/162/139
f 221/163/140 86/38/38 87/42/42
f 222/164/141 89/40/40 90/165/142
f 223/166/143 92/41/41 93/45/45
f 224/167/144 95/43/43 96/168/145
f 225/169/146 98/44/44 99/48/48
f 226/170/147 101/46/46 102/171/148
f 227/172/149 104/47/47 105/51/51
f 228/173/150 107/49/49 108/174/151
f 229/175/152 110/50/50 111/54/54
f 230/176/153 113/52/52 114/177/154
f 231/178/155 116/179/53 117/180/57
f 232/181/156 119/182/55 120/183/157
f 233/184/158 122/185/56 123/186/60
f 234/187/159 125/188/58 126/189/160
f 235/190/161 128/191/59 129/192/63
f 236/193/162 131/194/61 132/195/163
f 237/196/164 134/62/62 135/66/66
f 238/197/165 137/64/64 138/198/166
f 239/199/167 140/65/65 141/69/69
f 240/200/168 143/67/67 144/201/169
f 241/202/170 146/68/68 147/72/72
f 242/203/171 149/70/70 150/204/172
f 243/205/173 152/71/71 153/75/75
f 244/206/174 155/73/73 156/207/175
f 245/208/176 158/209/74 159/210/78
f 246/211/177 161/212/76 162/213/178
f 247/214/179 164/215/77 165/216/81
f 248/217/180 167/218/79 168/219/181
f 249/220/182 170/221/80 171/222/84
f 250/223/183 173/224/82 174/225/184
f 251/226/185 176/227/83 177/228/87
f 252/229/186 179/230/85 180/231/187
f 253/232/188 182/86/86 183/90/90
f 254/233/189 185/88/88 186/234/190
f 255/235/191 188/89/89 189/3/3
f 256/236/192 191/1/1 192/237/193
f 8/238/96 194/239/98 3/240/97
f 12/241/103 195/242/99 196/243/102
f 6/102/100 3/99/97 2/2/2
f 9/93/93 12/105/103 11/91/91
f 14/107/92 193/244/101 9/245/93
f 18/111/106 196/243/102 198/109/105
f 15/6/6 18/246/106 17/4/4
f 20/113/5 197/106/104 15/108/6
f 24/117/109 198/109/105 200/115/108
f 21/9/9 24/247/109 23/7/7
f 26/119/8 199/112/107 21/114/9
f 30/123/112 200/115/108 202/121/111
f 27/12/12 30/248/112 29/10/10
f 27/120/12 203/124/113 201/118/110
f 29/122/10 204/127/114 36/129/115
f 33/15/15 36/249/115 35/13/13
f 33/126/15 205/250/116 203/124/113
f 35/128/13 206/251/117 42/252/118
f 39/18/18 42/132/118 41/16/16
f 39/253/18 207/254/119 205/250/116
f 41/255/16 208/256/120 48/257/121
f 45/21/21 48/135/121 47/19/19
f 45/258/21 209/259/122 207/254/119
f 47/260/19 210/261/123 54/262/124
f 51/24/24 54/138/124 53/22/22
f 56/263/23 209/259/122 51/264/24
f 60/265/127 210/261/123 212/266/126
f 57/27/27 60/141/127 59/25/25
f 57/267/27 213/268/128 211/269/125
f 59/270/25 214/271/129 66/272/130
f 63/30/30 66/144/130 65/28/28
f 68/146/29 213/268/128 63/273/30
f 72/150/133 214/271/129 216/148/132
f 69/33/33 72/274/133 71/31/31
f 74/152/32 215/145/131 69/147/33
f 71/149/31 218/154/135 78/156/136
f 75/275/36 78/276/136 77/277/34
f 80/158/35 217/151/134 75/153/36
f 84/162/139 218/154/135 220/160/138
f 81/39/39 84/278/139 83/37/37
f 81/159/39 221/279/140 219/157/137
f 83/161/37 222/280/141 90/281/142
f 87/42/42 90/165/142 89/40/40
f 87/282/42 223/283/143 221/279/140
f 89/284/40 224/285/144 96/286/145
f 93/45/45 96/168/145 95/43/43
f 93/287/45 225/288/146 223/283/143
f 95/289/43 226/290/147 102/291/148
f 99/48/48 102/171/148 101/46/46
f 104/292/47 225/288/146 99/293/48
f 108/294/151 226/290/147 228/295/150
f 105/51/51 108/174/151 107/49/49
f 110/296/50 227/297/149 105/298/51
f 107/299/49 230/300/153 114/301/154
f 111/54/54 114/177/154 113/52/52
f 116/179/53 229/302/152 111/303/54
f 120/183/157 230/300/153 232/181/156
f 117/57/57 120/304/157 119/55/55
f 122/185/56 231/178/155 117/180/57
f 126/189/160 232/181/156 234/187/159
f 123/60/60 126/305/160 125/58/58
f 123/186/60 235/190/161 233/184/158
f 125/188/58 236/193/162 132/195/163
f 129/63/63 132/306/163 131/61/61
f 134/307/62 235/190/161 129/192/63
f 138/308/166 236/193/162 238/309/165
f 135/66/66 138/198/166 137/64/64
f 135/310/66 239/311/167 237/312/164
f 144/313/169 238/309/165 240/314/168
f 141/69/69 144/201/169 143/67/67
f 141/315/69 241/316/170 239/311/167
f 143/317/67 242/318/171 150/319/172
f 147/72/72 150/204/172 149/70/70
f 152/320/71 241/316/170 147/321/72
f 156/322/175 242/318/171 244/323/174
f 153/75/75 156/207/175 155/73/73
f 158/209/74 243/324/173 153/325/75
f 162/213/178 244/323/174 246/211/177
f 159/78/78 162/326/178 161/76/76
f 164/215/77 245/208/176 159/210/78
f 168/219/181 246/211/177 248/217/180
f 165/327/81 168/328/181 167/329/79
f 170/221/80 247/214/179 165/216/81
f 174/225/184 248/217/180 250/223/183
f 171/84/84 174/330/184 173/82/82
f 176/227/83 249/220/182 171/222/84
f 180/231/187 250/223/183 252/229/186
f 177/87/87 180/331/187 179/85/85
f 182/332/86 251/226/185 177/228/87
f 186/333/190 252/229/186 254/334/189
f 183/90/90 186/234/190 185/88/88
f 183/335/90 255/336/191 253/337/188
f 185/338/88 256/339/192 192/340/193
f 189/3/3 192/237/193 191/1/1
f 189/341/3 194/239/98 255/336/191
f 191/342/1 195/242/99 6/343/100
f 91/344/194 139/345/194 187/346/194
f 1/347/194 193/244/101 7/348/194
f 4/349/94 196/243/102 195/242/99
f 13/350/194 193/244/101 197/106/104
f 16/96/94 196/243/102 10/351/94
f 13/350/194 199/112/107 19/352/194
f 16/96/94 200/115/108 198/109/105
f 19/352/194 201/118/110 25/353/194
f 28/354/94 200/115/108 22/355/94
f 25/353/194 203/124/113 31/356/194
f 34/357/94 202/121/111 28/354/94
f 31/356/194 205/250/116 37/358/194
f 40/359/94 204/127/114 34/357/94
f 37/358/194 207/254/119 43/360/194
f 40/359/94 208/256/120 206/251/117
f 43/360/194 209/259/122 49/361/194
f 46/362/94 210/261/123 208/256/120
f 49/361/194 211/269/125 55/363/194
f 52/364/94 212/266/126 210/261/123
f 55/363/194 213/268/128 61/365/194
f 58/366/94 214/271/129 212/266/126
f 67/367/194 213/268/128 215/145/131
f 70/368/94 214/271/129 64/95/94
f 67/367/194 217/151/134 73/369/194
f 76/370/94 216/148/132 70/368/94
f 79/371/194 217/151/134 219/157/137
f 82/372/94 218/154/135 76/370/94
f 79/371/194 221/279/140 85/373/194
f 88/374/94 220/160/138 82/372/94
f 85/373/194 223/283/143 91/344/194
f 88/374/94 224/285/144 222/280/141
f 91/344/194 225/288/146 97/375/194
f 100/376/94 224/285/144 94/377/94
f 97/375/194 227/297/149 103/378/194
f 100/376/94 228/295/150 226/290/147
f 103/378/194 229/302/152 109/379/194
f 106/380/94 230/300/153 228/295/150
f 115/381/194 229/302/152 231/178/155
f 118/382/94 230/300/153 112/94/94
f 121/383/194 231/178/155 233/184/158
f 124/384/94 232/181/156 118/382/94
f 121/383/194 235/190/161 127/385/194
f 130/386/94 234/187/159 124/384/94
f 127/385/194 237/312/164 133/387/194
f 130/386/94 238/309/165 236/193/162
f 133/387/194 239/311/167 139/345/194
f 136/388/94 240/314/168 238/309/165
f 139/345/194 241/316/170 145/389/194
f 148/390/94 240/314/168 142/391/94
f 145/389/194 243/324/173 151/392/194
f 154/393/94 242/318/171 148/390/94
f 151/392/194 245/208/176 157/394/194
f 154/393/94 246/211/177 244/323/174
f 157/394/194 247/214/179 163/395/194
f 160/396/94 248/217/180 246/211/177
f 169/397/194 247/214/179 249/220/182
f 172/398/94 248/217/180 166/399/94
f 175/400/194 249/220/182 251/226/185
f 178/401/94 250/223/183 172/398/94
f 175/400/194 253/337/188 181/402/194
f 178/401/94 254/334/189 252/229/186
f 181/402/194 255/336/191 187/346/194
f 184/403/94 256/339/192 254/334/189
f 187/346/194 194/239/98 1/347/194
f 4/349/94 256/339/192 190/404/94
f 191/1/1 6/102/100 2/2/2
f 17/4/4 24/247/109 20/5/5
f 23/7/7 30/405/112 26/8/8
f 29/10/10 36/249/115 32/11/11
f 35/13/13 42/132/118 38/14/14
f 41/16/16 48/135/121 44/17/17
f 47/19/19 54/138/124 50/20/20
f 53/22/22 60/141/127 56/23/23
f 59/25/25 66/144/130 62/26/26
f 65/28/28 72/274/133 68/29/29
f 71/31/31 78/276/136 74/32/32
f 77/34/34 84/278/139 80/35/35
f 83/37/37 90/165/142 86/38/38
f 89/40/40 96/168/145 92/41/41
f 95/43/43 102/171/148 98/44/44
f 101/46/46 108/174/151 104/47/47
f 107/49/49 114/177/154 110/50/50
f 113/52/52 120/304/157 116/53/53
f 119/55/55 126/406/160 122/56/56
f 125/58/58 132/306/163 128/59/59
f 131/61/61 138/198/166 134/62/62
f 137/64/64 144/201/169 140/65/65
f 143/67/67 150/204/172 146/68/68
f 149/70/70 156/207/175 152/71/71
f 155/73/73 162/326/178 158/74/74
f 161/76/76 168/328/181 164/77/77
f 167/79/79 174/330/184 170/80/80
f 173/82/82 180/331/187 176/83/83
f 179/85/85 186/234/190 182/86/86
f 185/88/88 192/237/193 188/89/89
f 11/91/91 18/246/106 14/92/92
f 16/96/94 10/351/94 4/349/94
f 4/349/94 190/404/94 184/403/94
f 184/403/94 178/401/94 172/398/94
f 172/398/94 166/399/94 160/396/94
f 160/396/94 154/393/94 148/390/94
f 148/390/94 142/391/94 136/388/94
f 136/388/94 130/386/94 124/384/94
f 124/384/94 118/382/94 112/94/94
f 112/94/94 106/380/94 100/376/94
f 100/376/94 94/377/94 88/374/94
f 88/374/94 82/372/94 76/370/94
f 76/370/94 70/368/94 64/95/94
f 64/95/94 58/366/94 52/364/94
f 52/364/94 46/362/94 40/359/94
f 40/359/94 34/357/94 28/354/94
f 28/354/94 22/355/94 16/96/94
f 16/96/94 4/349/94 184/403/94
f 184/403/94 172/398/94 160/396/94
f 160/396/94 148/390/94 136/388/94
f 136/388/94 124/384/94 112/94/94
f 112/94/94 100/376/94 88/374/94
f 88/374/94 76/370/94 64/95/94
f 64/95/94 52/364/94 40/359/94
f 40/359/94 28/354/94 16/96/94
f 16/96/94 184/403/94 160/396/94
f 160/396/94 136/388/94 112/94/94
f 112/94/94 88/374/94 64/95/94
f 64/95/94 40/359/94 16/96/94
f 16/96/94 160/396/94 112/94/94
f 5/97/95 12/105/103 8/98/96
f 8/238/96 193/244/101 194/239/98
f 12/241/103 5/407/95 195/242/99
f 6/102/100 5/97/95 3/99/97
f 9/93/93 8/98/96 12/105/103
f 14/107/92 197/106/104 193/244/101
f 18/111/106 11/408/91 196/243/102
f 15/6/6 14/92/92 18/246/106
f 20/113/5 199/112/107 197/106/104
f 24/117/109 17/110/4 198/109/105
f 21/9/9 20/5/5 24/247/109
f 26/119/8 201/118/110 199/112/107
f 30/123/112 23/116/7 200/115/108
f 27/12/12 26/409/8 30/248/112
f 27/120/12 32/125/11 203/124/113
f 29/122/10 202/121/111 204/127/114
f 33/15/15 32/11/11 36/249/115
f 33/126/15 38/410/14 205/250/116
f 35/128/13 204/127/114 206/251/117
f 39/18/18 38/14/14 42/132/118
f 39/253/18 44/411/17 207/254/119
f 41/255/16 206/251/117 208/256/120
f 45/21/21 44/17/17 48/135/121
f 45/258/21 50/412/20 209/259/122
f 47/260/19 208/256/120 210/261/123
f 51/24/24 50/20/20 54/138/124
f 56/263/23 211/269/125 209/259/122
f 60/265/127 53/413/22 210/261/123
f 57/27/27 56/23/23 60/141/127
f 57/267/27 62/414/26 213/268/128
f 59/270/25 212/266/126 214/271/129
f 63/30/30 62/26/26 66/144/130
f 68/146/29 215/145/131 213/268/128
f 72/150/133 65/415/28 214/271/129
f 69/33/33 68/29/29 72/274/133
f 74/152/32 217/151/134 215/145/131
f 71/149/31 216/148/132 218/154/135
f 75/275/36 74/32/32 78/276/136
f 80/158/35 219/157/137 217/151/134
f 84/162/139 77/155/34 218/154/135
f 81/39/39 80/35/35 84/278/139
f 81/159/39 86/416/38 221/279/140
f 83/161/37 220/160/138 222/280/141
f 87/42/42 86/38/38 90/165/142
f 87/282/42 92/417/41 223/283/143
f 89/284/40 222/280/141 224/285/144
f 93/45/45 92/41/41 96/168/145
f 93/287/45 98/418/44 225/288/146
f 95/289/43 224/285/144 226/290/147
f 99/48/48 98/44/44 102/171/148
f 104/292/47 227/297/149 225/288/146
f 108/294/151 101/419/46 226/290/147
f 105/51/51 104/47/47 108/174/151
f 110/296/50 229/302/152 227/297/149
f 107/299/49 228/295/150 230/300/153
f 111/54/54 110/50/50 114/177/154
f 116/179/53 231/178/155 229/302/152
f 120/183/157 113/420/52 230/300/153
f 117/57/57 116/53/53 120/304/157
f 122/185/56 233/184/158 231/178/155
f 126/189/160 119/182/55 232/181/156
f 123/60/60 122/421/56 126/305/160
f 123/186/60 128/191/59 235/190/161
f 125/188/58 234/187/159 236/193/162
f 129/63/63 128/59/59 132/306/163
f 134/307/62 237/312/164 235/190/161
f 138/308/166 131/194/61 236/193/162
f 135/66/66 134/62/62 138/198/166
f 135/310/66 140/422/65 239/311/167
f 144/313/169 137/423/64 238/309/165
f 141/69/69 140/65/65 144/201/169
f 141/315/69 146/424/68 241/316/170
f 143/317/67 240/314/168 242/318/171
f 147/72/72 146/68/68 150/204/172
f 152/320/71 243/324/173 241/316/170
f 156/322/175 149/425/70 242/318/171
f 153/75/75 152/71/71 156/207/175
f 158/209/74 245/208/176 243/324/173
f 162/213/178 155/426/73 244/323/174
f 159/78/78 158/74/74 162/326/178
f 164/215/77 247/214/179 245/208/176
f 168/219/181 161/212/76 246/211/177
f 165/327/81 164/77/77 168/328/181
f 170/221/80 249/220/182 247/214/179
f 174/225/184 167/218/79 248/217/180
f 171/84/84 170/80/80 174/330/184
f 176/227/83 251/226/185 249/220/182
f 180/231/187 173/224/82 250/223/183
f 177/87/87 176/83/83 180/331/187
f 182/332/86 253/337/188 251/226/185
f 186/333/190 179/230/85 252/229/186
f 183/90/90 182/86/86 186/234/190
f 183/335/90 188/427/89 255/336/191
f 185/338/88 254/334/189 256/339/192
f 189/3/3 188/89/89 192/237/193
f 189/341/3 2/428/2 194/239/98
f 191/342/1 256/339/192 195/242/99
f 187/346/194 1/347/194 7/348/194
f 7/348/194 13/350/194 19/352/194
f 19/352/194 25/353/194 31/356/194
f 31/356/194 37/358/194 43/360/194
f 43/360/194 49/361/194 55/363/194
f 55/363/194 61/365/194 67/367/194
f 67/367/194 73/369/194 79/371/194
f 79/371/194 85/373/194 91/344/194
f 91/344/194 97/375/194 103/378/194
f 103/378/194 109/379/194 115/381/194
f 115/381/194 121/383/194 127/385/194
f 127/385/194 133/387/194 139/345/194
f 139/345/194 145/389/194 151/392/194
f 151/392/194 157/394/194 163/395/194
f 163/395/194 169/397/194 175/400/194
f 175/400/194 181/402/194 187/346/194
f 187/346/194 7/348/194 19/352/194
f 19/352/194 31/356/194 43/360/194
f 43/360/194 55/363/194 67/367/194
f 67/367/194 79/371/194 91/344/194
f 91/344/194 103/378/194 115/381/194
f 115/381/194 127/385/194 139/345/194
f 139/345/194 151/392/194 163/395/194
f 163/395/194 175/400/194 187/346/194
f 187/346/194 19/352/194 43/360/194
f 43/360/194 67/367/194 91/344/194
f 91/344/194 115/381/194 139/345/194
f 139/345/194 163/395/194 187/346/194
f 187/346/194 43/360/194 91/344/194
f 1/347/194 194/239/98 193/244/101
f 4/349/94 10/351/94 196/243/102
f 13/350/194 7/348/194 193/244/101
f 16/96/94 198/109/105 196/243/102
f 13/350/194 197/106/104 199/112/107
f 16/96/94 22/355/94 200/115/108
f 19/352/194 199/112/107 201/118/110
f 28/354/94 202/121/111 200/115/108
f 25/353/194 201/118/110 203/124/113
f 34/357/94 204/127/114 202/121/111
f 31/356/194 203/124/113 205/250/116
f 40/359/94 206/251/117 204/127/114
f 37/358/194 205/250/116 207/254/119
f 40/359/94 46/362/94 208/256/120
f 43/360/194 207/254/119 209/259/122
f 46/362/94 52/364/94 210/261/123
f 49/361/194 209/259/122 211/269/125
f 52/364/94 58/366/94 212/266/126
f 55/363/194 211/269/125 213/268/128
f 58/366/94 64/95/94 214/271/129
f 67/367/194 61/365/194 213/268/128
f 70/368/94 216/148/132 214/271/129
f 67/367/194 215/145/131 217/151/134
f 76/370/94 218/154/135 216/148/132
f 79/371/194 73/369/194 217/151/134
f 82/372/94 220/160/138 218/154/135
f 79/371/194 219/157/137 221/279/140
f 88/374/94 222/280/141 220/160/138
f 85/373/194 221/279/140 223/283/143
f 88/374/94 94/377/94 224/285/144
f 91/344/194 223/283/143 225/288/146
f 100/376/94 226/290/147 224/285/144
f 97/375/194 225/288/146 227/297/149
f 100/376/94 106/380/94 228/295/150
f 103/378/194 227/297/149 229/302/152
f 106/380/94 112/94/94 230/300/153
f 115/381/194 109/379/194 229/302/152
f 118/382/94 232/181/156 230/300/153
f 121/383/194 115/381/194 231/178/155
f 124/384/94 234/187/159 232/181/156
f 121/383/194 233/184/158 235/190/161
f 130/386/94 236/193/162 234/187/159
f 127/385/194 235/190/161 237/312/164
f 130/386/94 136/388/94 238/309/165
f 133/387/194 237/312/164 239/311/167
f 136/388/94 142/391/94 240/314/168
f 139/345/194 239/311/167 241/316/170
f 148/390/94 242/318/171 240/314/168
f 145/389/194 241/316/170 243/324/173
f 154/393/94 244/323/174 242/318/171
f 151/392/194 243/324/173 245/208/176
f 154/393/94 160/396/94 246/211/177
f 157/394/194 245/208/176 247/214/179
f 160/396/94 166/399/94 248/217/180
f 169/397/194 163/395/194 247/214/179
f 172/398/94 250/223/183 248/217/180
f 175/400/194 169/397/194 249/220/182
f 178/401/94 252/229/186 250/223/183
f 175/400/194 251/226/185 253/337/188
f 178/401/94 184/403/94 254/334/189
f 181/402/194 253/337/188 255/336/191
f 184/403/94 190/404/94 256/339/192
f 187/346/194 255/336/191 194/239/98
f 4/349/94 195/242/99 256/339/192
