# Blender 5.0.0
# www.blender.org
mtllib HammerBody2.mtl
o Cilindro.001
v -0.000000 -0.053185 -0.187641
v -0.000000 0.496815 -0.250000
v 0.132682 -0.053185 -0.132682
v 0.176777 0.496815 -0.176777
v 0.187641 -0.053185 0.000000
v 0.250000 0.496815 0.000000
v 0.132682 -0.053185 0.132682
v 0.176777 0.496815 0.176777
v -0.000000 -0.053185 0.187641
v -0.000000 0.496815 0.250000
v -0.132682 -0.053185 0.132682
v -0.176777 0.496815 0.176777
v -0.187641 -0.053185 -0.000000
v -0.250000 0.496815 -0.000000
v -0.132682 -0.053185 -0.132682
v -0.176777 0.496815 -0.176777
v -0.000000 -0.003185 -0.350000
v 0.247487 -0.003185 -0.247487
v 0.350000 -0.003185 0.000000
v 0.247487 -0.003185 0.247487
v -0.000000 -0.003185 0.350000
v -0.247487 -0.003185 0.247487
v -0.350000 -0.003185 -0.000000
v -0.247487 -0.003185 -0.247487
v 0.239295 -0.184111 -0.202001
v 0.312043 -0.184111 -0.026370
v 0.202001 -0.184111 0.239295
v 0.026369 -0.184111 0.312043
v -0.239295 -0.184111 0.202001
v -0.312043 -0.184111 0.026370
v -0.202001 -0.184111 -0.239295
v -0.026370 -0.184111 -0.312043
v 0.216799 -0.186364 -0.160234
v 0.266601 -0.186364 -0.039998
v 0.160234 -0.186364 0.216799
v 0.039998 -0.186364 0.266601
v -0.216799 -0.186364 0.160234
v -0.266601 -0.186364 0.039998
v -0.160234 -0.186364 -0.216799
v -0.039998 -0.186364 -0.266601
v 0.181792 -0.353185 -0.075301
v 0.075301 -0.353185 0.181792
v -0.181792 -0.353185 0.075301
v -0.075301 -0.353185 -0.181792
v -0.000000 -0.003185 -0.241761
v 0.170951 -0.003185 -0.170951
v 0.241761 -0.003185 0.000000
v 0.170951 -0.003185 0.170951
v -0.000000 -0.003185 0.241761
v -0.170951 -0.003185 0.170951
v -0.241761 -0.003185 -0.000000
v -0.170951 -0.003185 -0.170951
vn 0.3763 0.1817 -0.9085
vn 0.9085 0.1817 -0.3763
vn 0.9085 0.1817 0.3763
vn 0.3763 0.1817 0.9085
vn -0.3763 0.1817 0.9085
vn -0.9085 0.1817 0.3763
vn -0.9085 0.1817 -0.3763
vn -0.3763 0.1817 -0.9085
vn -0.0000 -1.0000 -0.0000
vn 0.6649 -0.1614 -0.7293
vn 0.5450 -0.2128 -0.8110
vn 0.4703 -0.2401 -0.8492
vn -0.3746 -0.2044 -0.9044
vn -0.0456 -0.1614 0.9858
vn -0.1881 -0.2128 0.9588
vn -0.0000 -0.1442 0.9895
vn 0.3791 -0.1368 0.9152
vn 0.3791 -0.1367 0.9152
vn -0.2841 -0.0581 0.9570
vn -0.7919 -0.5151 0.3280
vn 0.9570 -0.0581 0.2841
vn 0.3280 -0.5151 0.7919
vn 0.9152 -0.1368 -0.3791
vn 0.9152 -0.1367 -0.3791
vn -0.9858 -0.1614 -0.0456
vn -0.9588 -0.2128 -0.1881
vn -0.9895 -0.1442 -0.0000
vn 0.9044 -0.2044 -0.3746
vn 0.7293 -0.1614 0.6649
vn 0.8110 -0.2128 0.5450
vn 0.8492 -0.2401 0.4703
vn 0.0456 -0.1614 -0.9858
vn 0.1881 -0.2128 -0.9588
vn -0.0000 -0.1442 -0.9895
vn -0.3791 -0.1368 -0.9152
vn -0.3791 -0.1367 -0.9152
vn 0.3746 -0.2044 0.9044
vn -0.6649 -0.1614 0.7293
vn -0.5450 -0.2128 0.8110
vn -0.4703 -0.2401 0.8492
vn -0.7293 -0.1614 -0.6649
vn -0.8110 -0.2128 -0.5450
vn -0.8492 -0.2401 -0.4703
vn -0.9044 -0.2044 0.3746
vn -0.9152 -0.1368 0.3791
vn -0.9152 -0.1367 0.3791
vn 0.9858 -0.1614 0.0456
vn 0.9588 -0.2128 0.1881
vn 0.9895 -0.1442 -0.0000
vn -0.3280 -0.5151 -0.7919
vn 0.4758 -0.0581 -0.8776
vn -0.8611 0.3623 0.3567
vn -0.9570 -0.0581 -0.2841
vn -0.3567 0.3623 -0.8611
vn 0.8776 -0.0581 0.4758
vn 0.8611 0.3623 -0.3567
vn 0.2841 -0.0581 -0.9570
vn 0.3567 0.3623 0.8611
vn 0.7919 -0.5151 -0.3280
vn -0.4758 -0.0581 0.8776
vn -0.8776 -0.0581 -0.4758
vn 0.2706 -0.7071 -0.6533
vn 0.6533 -0.7071 -0.2706
vn 0.6533 -0.7071 0.2706
vn 0.2706 -0.7071 0.6533
vn -0.2706 -0.7071 0.6533
vn -0.6533 -0.7071 0.2706
vn -0.6533 -0.7071 -0.2706
vn -0.2706 -0.7071 -0.6533
vn 0.6997 -0.1442 -0.6997
vn -0.2679 -0.2401 0.9331
vn -0.9331 -0.2401 -0.2679
vn 0.6997 -0.1442 0.6997
vn 0.2679 -0.2401 -0.9331
vn -0.6997 -0.1442 0.6997
vn -0.6997 -0.1442 -0.6997
vn 0.9331 -0.2401 0.2679
vt 0.265032 0.636218
vt 0.253537 0.682198
vt 0.253537 0.636218
vt 0.242042 0.636218
vt 0.242042 0.682198
vt 0.230547 0.636218
vt 0.230547 0.682198
vt 0.219052 0.636218
vt 0.219052 0.682198
vt 0.207557 0.636218
vt 0.207557 0.682198
vt 0.196062 0.636218
vt 0.184567 0.682198
vt 0.184567 0.636218
vt 0.173073 0.636218
vt 0.250409 0.604862
vt 0.233675 0.604862
vt 0.233675 0.621595
vt 0.252822 0.624008
vt 0.242042 0.635299
vt 0.257648 0.628835
vt 0.252822 0.602449
vt 0.257648 0.597623
vt 0.257287 0.613229
vt 0.242042 0.597984
vt 0.231262 0.602449
vt 0.242042 0.591158
vt 0.226436 0.597623
vt 0.264112 0.613229
vt 0.231262 0.624008
vt 0.219972 0.613229
vt 0.226436 0.628835
vt 0.242042 0.628473
vt 0.226797 0.613229
vt 0.250409 0.621595
vt 0.253874 0.613229
vt 0.242042 0.601396
vt 0.230210 0.613229
vt 0.242042 0.625061
vt 0.265032 0.682198
vt 0.196062 0.682198
vt 0.173073 0.682198
s 1
usemtl molesAtlas.033
f 17/1/1 4/2/1 18/3/1
f 4/2/2 19/4/2 18/3/2
f 6/5/3 20/6/3 19/4/3
f 8/7/4 21/8/4 20/6/4
f 10/9/5 22/10/5 21/8/5
f 12/11/6 23/12/6 22/10/6
f 23/12/7 16/13/7 24/14/7
f 16/13/8 17/15/8 24/14/8
f 7/16/9 11/17/9 15/18/9
f 46/19/9 17/20/9 18/21/9
f 48/22/10 27/23/11 35/22/12
f 47/24/9 20/23/9 48/22/9
f 48/22/13 36/25/13 49/25/13
f 50/26/9 21/27/9 22/28/9
f 47/24/14 26/29/15 19/29/16
f 52/30/9 23/31/9 24/32/9
f 21/8/17 27/6/17 20/6/18
f 26/29/19 34/24/19 41/29/19
f 29/10/20 30/12/20 43/10/20
f 32/20/21 40/33/21 44/20/21
f 27/6/22 28/8/22 42/6/22
f 19/4/23 25/3/23 18/3/24
f 49/25/25 28/27/26 21/27/27
f 50/26/28 38/34/28 51/34/28
f 50/26/29 29/28/30 37/26/31
f 51/34/32 30/31/33 23/31/34
f 17/15/35 31/14/35 24/14/36
f 52/30/37 40/33/37 45/33/37
f 52/30/38 31/32/39 39/30/40
f 46/19/41 25/21/42 33/19/43
f 46/19/44 34/24/44 47/24/44
f 23/12/45 29/10/45 22/10/46
f 45/33/47 32/20/48 17/20/49
f 31/14/50 32/15/50 44/14/50
f 35/22/51 27/23/51 42/22/51
f 34/24/52 33/19/52 41/24/52
f 28/27/53 36/25/53 42/27/53
f 36/25/54 35/22/54 42/25/54
f 37/26/55 29/28/55 43/26/55
f 38/34/56 37/26/56 43/34/56
f 30/31/57 38/34/57 43/31/57
f 40/33/58 39/30/58 44/33/58
f 25/3/59 26/4/59 41/3/59
f 39/30/60 31/32/60 44/30/60
f 33/19/61 25/21/61 41/19/61
f 3/35/62 45/33/62 46/19/62
f 5/36/63 46/19/63 47/24/63
f 7/16/64 47/24/64 48/22/64
f 9/37/65 48/22/65 49/25/65
f 9/37/66 50/26/66 11/17/66
f 11/17/67 51/34/67 13/38/67
f 15/18/68 51/34/68 52/30/68
f 15/18/69 45/33/69 1/39/69
f 17/1/1 2/40/1 4/2/1
f 4/2/2 6/5/2 19/4/2
f 6/5/3 8/7/3 20/6/3
f 8/7/4 10/9/4 21/8/4
f 10/9/5 12/11/5 22/10/5
f 12/11/6 14/41/6 23/12/6
f 23/12/7 14/41/7 16/13/7
f 16/13/8 2/42/8 17/15/8
f 15/18/9 1/39/9 3/35/9
f 3/35/9 5/36/9 7/16/9
f 7/16/9 9/37/9 11/17/9
f 11/17/9 13/38/9 15/18/9
f 15/18/9 3/35/9 7/16/9
f 46/19/9 45/33/9 17/20/9
f 48/22/10 20/23/70 27/23/11
f 47/24/9 19/29/9 20/23/9
f 48/22/13 35/22/13 36/25/13
f 50/26/9 49/25/9 21/27/9
f 47/24/14 34/24/71 26/29/15
f 52/30/9 51/34/9 23/31/9
f 21/8/17 28/8/17 27/6/17
f 19/4/23 26/4/23 25/3/23
f 49/25/25 36/25/72 28/27/26
f 50/26/28 37/26/28 38/34/28
f 50/26/29 22/28/73 29/28/30
f 51/34/32 38/34/74 30/31/33
f 17/15/35 32/15/35 31/14/35
f 52/30/37 39/30/37 40/33/37
f 52/30/38 24/32/75 31/32/39
f 46/19/41 18/21/76 25/21/42
f 46/19/44 33/19/44 34/24/44
f 23/12/45 30/12/45 29/10/45
f 45/33/47 40/33/77 32/20/48
f 3/35/62 1/39/62 45/33/62
f 5/36/63 3/35/63 46/19/63
f 7/16/64 5/36/64 47/24/64
f 9/37/65 7/16/65 48/22/65
f 9/37/66 49/25/66 50/26/66
f 11/17/67 50/26/67 51/34/67
f 15/18/68 13/38/68 51/34/68
f 15/18/69 52/30/69 45/33/69
o Cilindro.002
v -0.000000 2.496815 -0.250000
v 0.176777 2.496815 -0.176777
v 0.250000 2.496815 0.000000
v 0.176777 2.496815 0.176777
v -0.000000 2.496815 0.250000
v -0.176777 2.496815 0.176777
v -0.250000 2.496815 -0.000000
v -0.176777 2.496815 -0.176777
v -0.000000 2.596815 -0.350000
v 0.247487 2.596815 -0.247487
v 0.350000 2.596815 0.000000
v 0.247487 2.596815 0.247487
v -0.000000 2.596815 0.350000
v -0.247487 2.596815 0.247487
v -0.350000 2.596815 -0.000000
v -0.247487 2.596815 -0.247487
v -0.000000 2.696815 -0.350000
v 0.247487 2.696815 -0.247487
v 0.350000 2.696815 0.000000
v 0.247487 2.696815 0.247487
v -0.000000 2.696815 0.350000
v -0.247487 2.696815 0.247487
v -0.350000 2.696815 -0.000000
v -0.247487 2.696815 -0.247487
v -0.000000 2.796814 -0.250000
v 0.176777 2.796814 -0.176777
v 0.250000 2.796814 0.000000
v 0.176777 2.796814 0.176777
v -0.000000 2.796814 0.250000
v -0.176777 2.796814 0.176777
v -0.250000 2.796814 -0.000000
v -0.176777 2.796814 -0.176777
vn -0.2811 -0.6786 0.6786
vn -0.9239 -0.0000 -0.3827
vn 0.6786 -0.6786 0.2811
vn 0.2811 -0.6786 -0.6786
vn -0.2811 -0.6786 -0.6786
vn -0.6786 -0.6786 0.2811
vn 0.2811 -0.6786 0.6786
vn 0.6786 -0.6786 -0.2811
vn -0.6786 -0.6786 -0.2811
vn -0.6786 0.6786 0.2811
vn -0.3827 -0.0000 0.9239
vn 0.9239 -0.0000 0.3827
vn 0.3827 -0.0000 -0.9239
vn -0.3827 -0.0000 -0.9239
vn -0.9239 -0.0000 0.3827
vn 0.3827 -0.0000 0.9239
vn 0.9239 -0.0000 -0.3827
vn 0.2811 0.6786 0.6786
vn 0.6786 0.6786 -0.2811
vn -0.6786 0.6786 -0.2811
vn -0.2811 0.6786 0.6786
vn 0.6786 0.6786 0.2811
vn 0.2811 0.6786 -0.6786
vn -0.2811 0.6786 -0.6786
vt 0.355182 0.640878
vt 0.342663 0.640878
vt 0.330144 0.640878
vt 0.317626 0.640878
vt 0.367700 0.640878
vt 0.380219 0.640878
vt 0.405256 0.640878
vt 0.392737 0.640878
vt 0.305107 0.640878
s 1
usemtl molesAtlas.033
f 57/43/78 66/44/78 58/44/78
f 67/45/79 76/46/79 68/46/79
f 56/47/80 63/48/80 64/47/80
f 53/49/81 62/50/81 54/50/81
f 53/51/82 68/46/82 61/51/82
f 58/44/83 67/45/83 59/45/83
f 56/47/84 65/43/84 57/43/84
f 54/50/85 63/48/85 55/48/85
f 59/45/86 68/46/86 60/46/86
f 75/45/87 82/44/87 83/45/87
f 65/43/88 74/44/88 66/44/88
f 63/48/89 72/47/89 64/47/89
f 61/49/90 70/50/90 62/50/90
f 68/46/91 69/51/91 61/51/91
f 66/44/92 75/45/92 67/45/92
f 64/47/93 73/43/93 65/43/93
f 62/50/94 71/48/94 63/48/94
f 73/43/95 80/47/95 81/43/95
f 71/48/96 78/50/96 79/48/96
f 75/45/97 84/46/97 76/46/97
f 73/43/98 82/44/98 74/44/98
f 71/48/99 80/47/99 72/47/99
f 69/49/100 78/50/100 70/50/100
f 76/46/101 77/51/101 69/51/101
f 57/43/78 65/43/78 66/44/78
f 67/45/79 75/45/79 76/46/79
f 56/47/80 55/48/80 63/48/80
f 53/49/81 61/49/81 62/50/81
f 53/51/82 60/46/82 68/46/82
f 58/44/83 66/44/83 67/45/83
f 56/47/84 64/47/84 65/43/84
f 54/50/85 62/50/85 63/48/85
f 59/45/86 67/45/86 68/46/86
f 75/45/87 74/44/87 82/44/87
f 65/43/88 73/43/88 74/44/88
f 63/48/89 71/48/89 72/47/89
f 61/49/90 69/49/90 70/50/90
f 68/46/91 76/46/91 69/51/91
f 66/44/92 74/44/92 75/45/92
f 64/47/93 72/47/93 73/43/93
f 62/50/94 70/50/94 71/48/94
f 73/43/95 72/47/95 80/47/95
f 71/48/96 70/50/96 78/50/96
f 75/45/97 83/45/97 84/46/97
f 73/43/98 81/43/98 82/44/98
f 71/48/99 79/48/99 80/47/99
f 69/49/100 77/49/100 78/50/100
f 76/46/101 84/46/101 77/51/101
o Cilindro.003
v -0.000000 5.146814 -0.450000
v 0.318198 5.146814 -0.318198
v 0.450000 5.146814 0.000000
v 0.318198 5.146814 0.318198
v -0.000000 5.146814 0.450000
v -0.318198 5.146814 0.318198
v -0.450000 5.146814 -0.000000
v -0.318198 5.146814 -0.318198
v -0.000000 5.246814 -0.450000
v 0.318198 5.246814 -0.318198
v 0.450000 5.246814 0.000000
v 0.318198 5.246814 0.318198
v -0.000000 5.246814 0.450000
v -0.318198 5.246814 0.318198
v -0.450000 5.246814 -0.000000
v -0.318198 5.246814 -0.318198
vn -0.3827 -0.0000 -0.9239
vn -0.9239 -0.0000 0.3827
vn 0.3827 -0.0000 0.9239
vn 0.9239 -0.0000 -0.3827
vn -0.9239 -0.0000 -0.3827
vn -0.3827 -0.0000 0.9239
vn 0.9239 -0.0000 0.3827
vn 0.3827 -0.0000 -0.9239
vt 0.318916 0.643870
vt 0.306828 0.643870
vt 0.343093 0.643870
vt 0.331005 0.643870
vt 0.367270 0.643870
vt 0.355182 0.643870
vt 0.379359 0.643870
vt 0.391447 0.643870
vt 0.403535 0.643870
s 1
usemtl molesAtlas.033
f 92/52/102 93/53/102 85/53/102
f 90/54/103 99/55/103 91/55/103
f 88/56/104 97/57/104 89/57/104
f 87/58/105 94/59/105 95/58/105
f 91/55/106 100/52/106 92/52/106
f 89/57/107 98/54/107 90/54/107
f 87/58/108 96/56/108 88/56/108
f 86/59/109 93/60/109 94/59/109
f 92/52/102 100/52/102 93/53/102
f 90/54/103 98/54/103 99/55/103
f 88/56/104 96/56/104 97/57/104
f 87/58/105 86/59/105 94/59/105
f 91/55/106 99/55/106 100/52/106
f 89/57/107 97/57/107 98/54/107
f 87/58/108 95/58/108 96/56/108
f 86/59/109 85/60/109 93/60/109
o Cilindro.004
v 0.768246 7.180408 0.616477
v 0.768246 7.339507 0.457378
v 0.993246 7.180408 0.616477
v 0.993246 7.339507 0.457378
v 0.852621 7.592313 0.924676
v 0.768246 7.333777 0.785464
v 0.852621 7.632088 0.884901
v 0.768246 7.492876 0.626365
v 0.908871 7.592313 0.924676
v 0.993246 7.333777 0.785464
v 0.908871 7.632088 0.884901
v 0.993246 7.492876 0.626365
v -0.768246 7.180408 0.616477
v -0.768246 7.339507 0.457378
v -0.993246 7.180408 0.616477
v -0.993246 7.339507 0.457378
v -0.852621 7.592313 0.924676
v -0.768246 7.333777 0.785464
v -0.852621 7.632088 0.884901
v -0.768246 7.492876 0.626365
v -0.908871 7.592313 0.924676
v -0.993246 7.333777 0.785464
v -0.908871 7.632088 0.884901
v -0.993246 7.492876 0.626365
v 0.768246 7.180408 -0.616477
v 0.768246 7.339507 -0.457378
v 0.993246 7.180408 -0.616477
v 0.993246 7.339507 -0.457378
v 0.852621 7.592313 -0.924676
v 0.768246 7.333777 -0.785464
v 0.852621 7.632088 -0.884901
v 0.768246 7.492876 -0.626365
v 0.908871 7.592313 -0.924676
v 0.993246 7.333777 -0.785464
v 0.908871 7.632088 -0.884901
v 0.993246 7.492876 -0.626365
v -0.768246 7.180408 -0.616477
v -0.768246 7.339507 -0.457378
v -0.993246 7.180408 -0.616477
v -0.993246 7.339507 -0.457378
v -0.852621 7.592313 -0.924676
v -0.768246 7.333777 -0.785464
v -0.852621 7.632088 -0.884901
v -0.768246 7.492876 -0.626365
v -0.908871 7.592313 -0.924676
v -0.993246 7.333777 -0.785464
v -0.908871 7.632088 -0.884901
v -0.993246 7.492876 -0.626365
v 0.768246 6.313222 0.616477
v 0.768246 6.154123 0.457378
v 0.993246 6.313222 0.616477
v 0.993246 6.154123 0.457378
v 0.852621 5.901317 0.924676
v 0.768246 6.159853 0.785464
v 0.852621 5.861542 0.884901
v 0.768246 6.000753 0.626365
v 0.908871 5.901317 0.924676
v 0.993246 6.159853 0.785464
v 0.908871 5.861542 0.884901
v 0.993246 6.000753 0.626365
v -0.768246 6.313222 0.616477
v -0.768246 6.154123 0.457378
v -0.993246 6.313222 0.616477
v -0.993246 6.154123 0.457378
v -0.852621 5.901317 0.924676
v -0.768246 6.159853 0.785464
v -0.852621 5.861542 0.884901
v -0.768246 6.000753 0.626365
v -0.908871 5.901317 0.924676
v -0.993246 6.159853 0.785464
v -0.908871 5.861542 0.884901
v -0.993246 6.000753 0.626365
v 0.768246 6.313222 -0.616477
v 0.768246 6.154123 -0.457378
v 0.993246 6.313222 -0.616477
v 0.993246 6.154123 -0.457378
v 0.852621 5.901317 -0.924676
v 0.768246 6.159853 -0.785464
v 0.852621 5.861542 -0.884901
v 0.768246 6.000753 -0.626365
v 0.908871 5.901317 -0.924676
v 0.993246 6.159853 -0.785464
v 0.908871 5.861542 -0.884901
v 0.993246 6.000753 -0.626365
v -0.768246 6.313222 -0.616477
v -0.768246 6.154123 -0.457378
v -0.993246 6.313222 -0.616477
v -0.993246 6.154123 -0.457378
v -0.852621 5.901317 -0.924676
v -0.768246 6.159853 -0.785464
v -0.852621 5.861542 -0.884901
v -0.768246 6.000753 -0.626365
v -0.908871 5.901317 -0.924676
v -0.993246 6.159853 -0.785464
v -0.908871 5.861542 -0.884901
v -0.993246 6.000753 -0.626365
v 1.687400 7.188814 -0.970074
v 1.687400 6.304815 -0.970074
v 1.687400 5.679734 -0.401818
v 1.687400 5.679734 0.401818
v 1.687400 6.304815 0.970074
v 1.687400 7.188814 0.970073
v 1.687400 7.813895 0.401818
v 1.687400 7.813895 -0.401817
v 1.797400 6.294291 -0.993170
v 1.797400 7.199337 -0.993170
v 1.797400 5.654327 -0.411385
v 1.797400 5.654327 0.411385
v 1.797400 6.294291 0.993170
v 1.797400 7.199338 0.993170
v 1.797400 7.839302 0.411385
v 1.797400 7.839302 -0.411384
v -1.687400 7.188814 -0.970074
v -1.687400 6.304815 -0.970074
v -1.687400 5.679734 -0.401818
v -1.687400 5.679734 0.401818
v -1.687400 6.304815 0.970074
v -1.687400 7.188814 0.970073
v -1.687400 7.813895 0.401818
v -1.687400 7.813895 -0.401817
v -1.797400 6.294291 -0.993170
v -1.797400 7.199337 -0.993170
v -1.797400 5.654327 -0.411385
v -1.797400 5.654327 0.411385
v -1.797400 6.294291 0.993170
v -1.797400 7.199338 0.993170
v -1.797400 7.839302 0.411385
v -1.797400 7.839302 -0.411384
v 2.148640 7.279575 0.604607
v 2.550570 7.468810 0.680705
v 2.148640 7.392712 0.491469
v 2.267643 7.215006 0.540038
v 2.267643 7.328143 0.426901
v 2.051895 7.150220 0.464528
v 2.051895 7.263357 0.351391
v 2.170898 7.085651 0.399960
v 2.170898 7.198788 0.286823
v -2.148640 7.279575 0.604607
v -2.550570 7.468810 0.680705
v -2.148640 7.392712 0.491469
v -2.267643 7.215006 0.540038
v -2.267643 7.328143 0.426901
v -2.058360 7.156178 0.469294
v -2.058360 7.269315 0.356157
v -2.177363 7.091609 0.404726
v -2.177363 7.204746 0.291589
v 2.148640 7.279575 -0.604607
v 2.550570 7.468810 -0.680705
v 2.148640 7.392712 -0.491469
v 2.267643 7.215006 -0.540038
v 2.267643 7.328143 -0.426901
v 2.051895 7.150220 -0.464528
v 2.051895 7.263357 -0.351391
v 2.170898 7.085651 -0.399960
v 2.170898 7.198788 -0.286823
v -2.148640 7.279575 -0.604607
v -2.550570 7.468810 -0.680705
v -2.148640 7.392712 -0.491469
v -2.267643 7.215006 -0.540038
v -2.267643 7.328143 -0.426901
v -2.058360 7.156178 -0.469294
v -2.058360 7.269315 -0.356157
v -2.177363 7.091609 -0.404726
v -2.177363 7.204746 -0.291589
v 2.148640 6.214055 0.604607
v 2.550570 6.024819 0.680705
v 2.148640 6.100918 0.491469
v 2.267643 6.278624 0.540038
v 2.267643 6.165486 0.426901
v 2.051895 6.343410 0.464528
v 2.051895 6.230272 0.351391
v 2.170898 6.407978 0.399960
v 2.170898 6.294841 0.286823
v -2.148640 6.214055 0.604607
v -2.550570 6.024819 0.680705
v -2.148640 6.100918 0.491469
v -2.267643 6.278624 0.540038
v -2.267643 6.165486 0.426901
v -2.058360 6.337452 0.469294
v -2.058360 6.224315 0.356157
v -2.177363 6.402020 0.404726
v -2.177363 6.288884 0.291589
v 2.148640 6.214055 -0.604607
v 2.550570 6.024819 -0.680705
v 2.148640 6.100918 -0.491469
v 2.267643 6.278624 -0.540038
v 2.267643 6.165486 -0.426901
v 2.051895 6.343410 -0.464528
v 2.051895 6.230272 -0.351391
v 2.170898 6.407978 -0.399960
v 2.170898 6.294841 -0.286822
v -2.148640 6.214055 -0.604607
v -2.550570 6.024819 -0.680705
v -2.148640 6.100918 -0.491469
v -2.267643 6.278624 -0.540038
v -2.267643 6.165486 -0.426901
v -2.058360 6.337452 -0.469294
v -2.058360 6.224315 -0.356157
v -2.177363 6.402020 -0.404726
v -2.177363 6.288884 -0.291589
vn -0.0000 0.7071 0.7071
vn 1.0000 -0.0000 -0.0000
vn 0.5927 -0.8051 -0.0235
vn 0.4800 0.0164 -0.8771
vn -0.5927 -0.8051 -0.0235
vn -1.0000 -0.0000 -0.0000
vn -0.4800 0.0164 -0.8771
vn -0.0000 0.7405 -0.6721
vn -0.9578 0.2032 0.2032
vn -0.0000 0.8805 -0.4741
vn 0.9578 0.2032 0.2032
vn -0.0000 -0.4741 0.8805
vn -0.0000 -0.7405 0.6721
vn -0.0000 0.7071 -0.7071
vn 0.5927 -0.8051 0.0235
vn 0.4800 0.0164 0.8771
vn -0.5927 -0.8051 0.0235
vn -0.4800 0.0164 0.8771
vn -0.0000 0.7405 0.6721
vn -0.9578 0.2032 -0.2032
vn -0.0000 0.8805 0.4741
vn 0.9578 0.2032 -0.2032
vn -0.0000 -0.4741 -0.8805
vn -0.0000 -0.7405 -0.6721
vn -0.0000 -0.7071 0.7071
vn 0.5927 0.8051 -0.0235
vn 0.4800 -0.0164 -0.8771
vn -0.5927 0.8051 -0.0235
vn -0.4800 -0.0164 -0.8771
vn -0.9578 -0.2032 0.2032
vn -0.0000 -0.8805 -0.4741
vn 0.9578 -0.2032 0.2032
vn -0.0000 0.4741 0.8805
vn -0.0000 -0.7071 -0.7071
vn 0.5927 0.8051 0.0235
vn 0.4800 -0.0164 0.8771
vn -0.5927 0.8051 0.0235
vn -0.4800 -0.0164 0.8771
vn -0.9578 -0.2032 -0.2032
vn -0.0000 -0.8805 0.4741
vn 0.9578 -0.2032 -0.2032
vn -0.0000 0.4741 -0.8805
vn -0.2055 -0.0000 0.9787
vn -0.2250 -0.9743 -0.0000
vn -0.2055 -0.0000 -0.9787
vn -0.2146 0.6570 -0.7227
vn -0.2146 0.6570 0.7227
vn -0.2146 -0.6570 0.7227
vn -0.2146 -0.6570 -0.7227
vn -0.2250 0.9743 -0.0000
vn 0.2055 -0.0000 0.9787
vn 0.2250 -0.9743 -0.0000
vn 0.2055 -0.0000 -0.9787
vn 0.2146 0.6570 -0.7227
vn 0.2146 0.6570 0.7227
vn 0.2146 -0.6570 0.7227
vn 0.2146 -0.6570 -0.7227
vn 0.2250 0.9743 -0.0000
vn -0.4230 0.6407 0.6407
vn 0.1213 0.8047 -0.5812
vn 0.7021 -0.5035 -0.5035
vn 0.1213 -0.5812 0.8047
vn 0.8916 -0.3202 -0.3202
vn 0.1826 -0.9543 -0.2367
vn 0.1403 -0.1176 -0.9831
vn -0.7208 0.2859 -0.6314
vn -0.7803 -0.5231 0.3428
vn -0.0220 -0.7269 0.6864
vn 0.0220 0.7269 -0.6864
vn -0.8916 0.3202 0.3202
vn 0.4230 0.6407 0.6407
vn -0.1213 0.8047 -0.5812
vn -0.7021 -0.5035 -0.5035
vn -0.1213 -0.5812 0.8047
vn -0.8967 -0.3129 -0.3129
vn -0.1869 -0.9529 -0.2388
vn 0.7178 0.2862 -0.6347
vn -0.1440 -0.1159 -0.9828
vn 0.0256 -0.7301 0.6829
vn 0.7807 -0.5266 0.3365
vn -0.0256 0.7301 -0.6829
vn 0.8967 0.3129 0.3129
vn -0.4230 0.6407 -0.6407
vn 0.1213 0.8047 0.5812
vn 0.7021 -0.5035 0.5035
vn 0.1213 -0.5812 -0.8047
vn 0.8916 -0.3202 0.3202
vn 0.1826 -0.9543 0.2367
vn -0.7208 0.2859 0.6314
vn 0.1403 -0.1176 0.9831
vn -0.0220 -0.7269 -0.6864
vn -0.7803 -0.5231 -0.3428
vn 0.0220 0.7269 0.6864
vn -0.8916 0.3202 -0.3202
vn 0.4230 0.6407 -0.6407
vn -0.1213 0.8047 0.5812
vn -0.7021 -0.5035 0.5035
vn -0.1213 -0.5812 -0.8047
vn -0.8967 -0.3129 0.3129
vn -0.1869 -0.9529 0.2388
vn -0.1440 -0.1159 0.9828
vn 0.7178 0.2862 0.6347
vn 0.7807 -0.5266 -0.3365
vn 0.0256 -0.7301 -0.6829
vn -0.0256 0.7301 0.6829
vn 0.8967 0.3129 -0.3129
vn -0.4230 -0.6407 0.6407
vn 0.1213 -0.8047 -0.5812
vn 0.7021 0.5035 -0.5035
vn 0.1213 0.5812 0.8047
vn 0.8916 0.3202 -0.3202
vn 0.1826 0.9543 -0.2367
vn -0.7208 -0.2859 -0.6314
vn 0.1403 0.1176 -0.9831
vn -0.0220 0.7269 0.6864
vn -0.7803 0.5231 0.3428
vn 0.0220 -0.7269 -0.6864
vn -0.8916 -0.3202 0.3202
vn 0.4230 -0.6407 0.6407
vn -0.1213 -0.8047 -0.5812
vn -0.7021 0.5035 -0.5035
vn -0.1213 0.5812 0.8047
vn -0.8967 0.3129 -0.3129
vn -0.1869 0.9529 -0.2388
vn -0.1440 0.1159 -0.9828
vn 0.7178 -0.2862 -0.6347
vn 0.7807 0.5266 0.3365
vn 0.0256 0.7301 0.6829
vn -0.0256 -0.7301 -0.6829
vn 0.8967 -0.3129 0.3129
vn -0.4230 -0.6407 -0.6407
vn 0.1213 -0.8047 0.5812
vn 0.7021 0.5035 0.5035
vn 0.1213 0.5812 -0.8047
vn 0.8916 0.3202 0.3202
vn 0.1826 0.9543 0.2367
vn 0.1403 0.1176 0.9831
vn -0.7208 -0.2859 0.6314
vn -0.7803 0.5231 -0.3428
vn -0.0220 0.7269 -0.6864
vn 0.0220 -0.7269 0.6864
vn -0.8916 -0.3202 -0.3202
vn 0.4230 -0.6407 -0.6407
vn -0.1213 -0.8047 0.5812
vn -0.7021 0.5035 0.5035
vn -0.1213 0.5812 -0.8047
vn -0.8967 0.3129 0.3129
vn -0.1869 0.9529 0.2388
vn 0.7178 -0.2862 0.6347
vn -0.1440 0.1159 0.9828
vn 0.0256 0.7301 -0.6829
vn 0.7807 0.5266 -0.3365
vn -0.0256 -0.7301 0.6829
vn 0.8967 -0.3129 -0.3129
vt 0.165155 0.803730
vt 0.166473 0.804906
vt 0.166473 0.803730
vt 0.198121 0.827401
vt 0.192486 0.832006
vt 0.198121 0.833863
vt 0.217572 0.819849
vt 0.211938 0.815244
vt 0.211938 0.821706
vt 0.945644 0.475129
vt 0.948866 0.478138
vt 0.948866 0.475129
vt 0.163176 0.795807
vt 0.168452 0.790584
vt 0.163176 0.790584
vt 0.213709 0.806686
vt 0.217572 0.813386
vt 0.215118 0.806221
vt 0.196349 0.818843
vt 0.192486 0.825544
vt 0.190148 0.840127
vt 0.186851 0.833863
vt 0.188829 0.840127
vt 0.168677 0.730113
vt 0.173952 0.725104
vt 0.168677 0.725104
vt 0.162358 0.825690
vt 0.163677 0.824514
vt 0.162358 0.824514
vt 0.275377 0.813128
vt 0.269742 0.808522
vt 0.269742 0.814985
vt 0.186851 0.832006
vt 0.192486 0.827401
vt 0.186851 0.825544
vt 0.939201 0.478138
vt 0.942423 0.475129
vt 0.939201 0.475129
vt 0.160380 0.811368
vt 0.165656 0.816591
vt 0.165656 0.811368
vt 0.190714 0.818843
vt 0.189305 0.818378
vt 0.271514 0.799964
vt 0.275377 0.806665
vt 0.272922 0.799500
vt 0.212884 0.833633
vt 0.209586 0.839897
vt 0.210905 0.839897
vt 0.158125 0.725104
vt 0.163401 0.730113
vt 0.163401 0.725104
vt 0.176244 0.792274
vt 0.174925 0.793506
vt 0.176244 0.793506
vt 0.193018 0.805584
vt 0.187383 0.800979
vt 0.187383 0.807441
vt 0.198653 0.793813
vt 0.193018 0.798419
vt 0.198653 0.800276
vt 0.972120 0.514990
vt 0.975341 0.512116
vt 0.972120 0.512116
vt 0.178222 0.806243
vt 0.172946 0.801235
vt 0.172946 0.806243
vt 0.194790 0.806977
vt 0.196199 0.807441
vt 0.189155 0.792421
vt 0.193018 0.799122
vt 0.190564 0.791956
vt 0.180856 0.833863
vt 0.177559 0.840127
vt 0.178878 0.840127
vt 0.255710 0.835334
vt 0.260986 0.840557
vt 0.260986 0.835334
vt 0.165401 0.768565
vt 0.164082 0.767333
vt 0.164082 0.768565
vt 0.175581 0.824841
vt 0.181216 0.820235
vt 0.175581 0.818378
vt 0.275377 0.766672
vt 0.269742 0.762067
vt 0.269742 0.768530
vt 0.974687 0.473643
vt 0.977908 0.476516
vt 0.977908 0.473643
vt 0.167380 0.776294
vt 0.162104 0.781302
vt 0.167380 0.781302
vt 0.271514 0.753509
vt 0.275377 0.760210
vt 0.272922 0.753044
vt 0.177353 0.833399
vt 0.181216 0.826698
vt 0.264874 0.809602
vt 0.261576 0.803339
vt 0.263555 0.809602
vt 0.226581 0.839311
vt 0.231857 0.834088
vt 0.226581 0.834088
vt 0.155706 0.767034
vt 0.154387 0.768210
vt 0.155706 0.768210
vt 0.275377 0.782158
vt 0.269742 0.777552
vt 0.269742 0.784015
vt 0.275377 0.785872
vt 0.269742 0.790477
vt 0.275377 0.792334
vt 0.939201 0.478187
vt 0.935980 0.481196
vt 0.939201 0.481196
vt 0.157684 0.781356
vt 0.152409 0.776134
vt 0.152409 0.781356
vt 0.271514 0.799035
vt 0.271514 0.768994
vt 0.275377 0.775695
vt 0.272922 0.768530
vt 0.163494 0.840134
vt 0.166792 0.833870
vt 0.165473 0.833870
vt 0.158125 0.725185
vt 0.152850 0.720177
vt 0.152850 0.725185
vt 0.155208 0.790182
vt 0.153889 0.789006
vt 0.153889 0.790182
vt 0.206303 0.812684
vt 0.211938 0.808078
vt 0.206303 0.806221
vt 0.228290 0.821569
vt 0.222655 0.816963
vt 0.222655 0.823426
vt 0.945644 0.481196
vt 0.942423 0.478187
vt 0.942423 0.481196
vt 0.157187 0.798105
vt 0.151911 0.803328
vt 0.157187 0.803328
vt 0.224426 0.808405
vt 0.228290 0.815106
vt 0.225835 0.807941
vt 0.208074 0.821242
vt 0.211938 0.814541
vt 0.194464 0.833863
vt 0.197761 0.840127
vt 0.195783 0.833863
vt 0.168677 0.720177
vt 0.163401 0.725185
vt 0.168677 0.725185
vt 0.152663 0.824159
vt 0.153982 0.825391
vt 0.153982 0.824159
vt 0.269742 0.744022
vt 0.275377 0.739417
vt 0.269742 0.737560
vt 0.181216 0.827401
vt 0.181216 0.833863
vt 0.952087 0.481191
vt 0.948866 0.478318
vt 0.948866 0.481191
vt 0.150684 0.816430
vt 0.155960 0.811422
vt 0.150684 0.811422
vt 0.182988 0.818843
vt 0.184396 0.818378
vt 0.271514 0.752580
vt 0.275377 0.745879
vt 0.183194 0.833863
vt 0.186491 0.840127
vt 0.184513 0.833863
vt 0.179228 0.720177
vt 0.173952 0.725400
vt 0.179228 0.725400
vt 0.153889 0.844987
vt 0.155208 0.843756
vt 0.153889 0.843756
vt 0.244861 0.839133
vt 0.239227 0.834527
vt 0.239227 0.840990
vt 0.233925 0.809798
vt 0.228290 0.814404
vt 0.233925 0.816261
vt 0.978563 0.515306
vt 0.975341 0.518179
vt 0.978563 0.518179
vt 0.151911 0.831018
vt 0.157187 0.836027
vt 0.157187 0.831018
vt 0.230061 0.822962
vt 0.231470 0.823426
vt 0.240998 0.825969
vt 0.244861 0.832670
vt 0.242407 0.825505
vt 0.212884 0.839897
vt 0.216181 0.833633
vt 0.214862 0.833633
vt 0.266262 0.835852
vt 0.260986 0.830629
vt 0.260986 0.835852
vt 0.416826 0.662452
vt 0.411941 0.703495
vt 0.416826 0.703012
vt 0.328526 0.616688
vt 0.333411 0.663274
vt 0.333411 0.616106
vt 0.396059 0.700085
vt 0.400944 0.659043
vt 0.396059 0.659526
vt 0.312002 0.589255
vt 0.316887 0.622145
vt 0.316887 0.587945
vt 0.312002 0.700482
vt 0.316887 0.669313
vt 0.312002 0.668731
vt 0.328526 0.584937
vt 0.333411 0.583599
vt 0.328526 0.696164
vt 0.328526 0.662759
vt 0.312002 0.622660
vt 0.411941 0.620444
vt 0.416826 0.661487
vt 0.416826 0.620927
vt 0.371613 0.665790
vt 0.366729 0.619137
vt 0.366729 0.665208
vt 0.297119 0.700979
vt 0.292235 0.659936
vt 0.292235 0.700496
vt 0.342971 0.700510
vt 0.347855 0.667620
vt 0.342971 0.667105
vt 0.347855 0.620452
vt 0.342971 0.589283
vt 0.342971 0.621034
vt 0.366729 0.696959
vt 0.371613 0.618622
vt 0.366729 0.585733
vt 0.156466 0.692036
vt 0.162470 0.700160
vt 0.158400 0.689404
vt 0.161750 0.689670
vt 0.181262 0.589655
vt 0.184454 0.581716
vt 0.178696 0.586116
vt 0.192019 0.676705
vt 0.194508 0.685697
vt 0.194508 0.674644
vt 0.175762 0.590498
vt 0.178328 0.594037
vt 0.976010 0.562590
vt 0.978509 0.563397
vt 0.978471 0.561837
vt 0.157669 0.655655
vt 0.154359 0.660310
vt 0.157669 0.660458
vt 0.159119 0.684504
vt 0.276345 0.692276
vt 0.280313 0.696429
vt 0.280375 0.691043
vt 0.212014 0.684966
vt 0.213993 0.687559
vt 0.217875 0.676725
vt 0.217338 0.687227
vt 0.205807 0.646590
vt 0.201748 0.647710
vt 0.203778 0.654953
vt 0.239031 0.685716
vt 0.241521 0.687778
vt 0.241521 0.676725
vt 0.201748 0.640472
vt 0.919638 0.562587
vt 0.917159 0.563463
vt 0.919638 0.564148
vt 0.248475 0.594115
vt 0.245167 0.587277
vt 0.245167 0.593932
vt 0.214530 0.694399
vt 0.179941 0.696536
vt 0.184000 0.690418
vt 0.179941 0.689298
vt 0.155126 0.648038
vt 0.157191 0.650759
vt 0.161167 0.640020
vt 0.160484 0.650369
vt 0.181262 0.616362
vt 0.178696 0.619901
vt 0.184454 0.624301
vt 0.269394 0.689201
vt 0.271883 0.691262
vt 0.271883 0.680209
vt 0.175762 0.615519
vt 0.922117 0.559041
vt 0.924617 0.558234
vt 0.922155 0.557481
vt 0.266090 0.583258
vt 0.269438 0.587927
vt 0.269438 0.582967
vt 0.157875 0.655507
vt 0.192089 0.693084
vt 0.188120 0.697237
vt 0.192151 0.698470
vt 0.217875 0.686036
vt 0.223766 0.694180
vt 0.219991 0.683359
vt 0.223275 0.683820
vt 0.205807 0.663316
vt 0.201748 0.662195
vt 0.238845 0.662889
vt 0.241335 0.671881
vt 0.241335 0.660828
vt 0.201748 0.669433
vt 0.205807 0.670554
vt 0.980388 0.475204
vt 0.977908 0.474328
vt 0.977908 0.475888
vt 0.248526 0.580380
vt 0.245167 0.580413
vt 0.220481 0.676725
vt 0.279106 0.583541
vt 0.275047 0.577423
vt 0.275047 0.584662
vt 0.150462 0.692629
vt 0.152396 0.695260
vt 0.156466 0.684504
vt 0.155747 0.694994
vt 0.154888 0.589655
vt 0.157454 0.586116
vt 0.151697 0.581716
vt 0.238845 0.625608
vt 0.241335 0.627669
vt 0.241335 0.616616
vt 0.160389 0.590498
vt 0.973510 0.560107
vt 0.976010 0.559300
vt 0.973548 0.558547
vt 0.273083 0.588475
vt 0.269773 0.583820
vt 0.269773 0.588623
vt 0.153116 0.700160
vt 0.276221 0.694829
vt 0.272253 0.698983
vt 0.276283 0.700215
vt 0.206152 0.686157
vt 0.212014 0.694399
vt 0.208131 0.683565
vt 0.211476 0.683897
vt 0.201748 0.630988
vt 0.203778 0.639351
vt 0.205807 0.632109
vt 0.238845 0.651836
vt 0.241335 0.649775
vt 0.205807 0.624871
vt 0.201748 0.623750
vt 0.981504 0.514336
vt 0.983983 0.515211
vt 0.983983 0.513651
vt 0.164319 0.700160
vt 0.161010 0.706999
vt 0.164319 0.706815
vt 0.208669 0.676725
vt 0.981504 0.509914
vt 0.983983 0.509229
vt 0.149085 0.647490
vt 0.155126 0.655507
vt 0.151150 0.644768
vt 0.154443 0.645159
vt 0.154888 0.616362
vt 0.151697 0.624301
vt 0.157454 0.619901
vt 0.238845 0.640784
vt 0.241335 0.638722
vt 0.160389 0.615519
vt 0.157822 0.611980
vt 0.978563 0.516159
vt 0.981062 0.516966
vt 0.981025 0.515407
vt 0.266090 0.583258
vt 0.262741 0.587927
vt 0.266090 0.588218
vt 0.151833 0.640020
vt 0.236355 0.586339
vt 0.240323 0.590493
vt 0.240385 0.585107
vt 0.223766 0.684868
vt 0.225881 0.687546
vt 0.229657 0.676725
vt 0.229166 0.687085
vt 0.253047 0.686853
vt 0.257106 0.685733
vt 0.255076 0.678490
vt 0.238845 0.636661
vt 0.241335 0.638722
vt 0.241335 0.627669
vt 0.257106 0.692971
vt 0.919638 0.559041
vt 0.922117 0.558166
vt 0.919638 0.557481
vt 0.205108 0.677451
vt 0.201748 0.670554
vt 0.201748 0.677418
vt 0.226372 0.694180
vt 0.188058 0.692973
vt 0.184000 0.699090
vt 0.188058 0.700211
vt 0.165155 0.804906
vt 0.945644 0.478138
vt 0.168452 0.795807
vt 0.194940 0.818378
vt 0.192126 0.833863
vt 0.173952 0.730113
vt 0.163677 0.825690
vt 0.192486 0.833863
vt 0.942423 0.478138
vt 0.160380 0.816591
vt 0.207608 0.833633
vt 0.158125 0.730113
vt 0.174925 0.792274
vt 0.193018 0.791956
vt 0.975341 0.514990
vt 0.178222 0.801235
vt 0.175581 0.833863
vt 0.255710 0.840557
vt 0.165401 0.767333
vt 0.974687 0.476516
vt 0.162104 0.776294
vt 0.178761 0.833863
vt 0.266852 0.803339
vt 0.231857 0.839311
vt 0.154387 0.767034
vt 0.935980 0.478187
vt 0.157684 0.776134
vt 0.168770 0.840134
vt 0.158125 0.720177
vt 0.155208 0.789006
vt 0.945644 0.478187
vt 0.151911 0.798105
vt 0.209483 0.821706
vt 0.192486 0.840127
vt 0.163401 0.720177
vt 0.152663 0.825391
vt 0.952087 0.478318
vt 0.155960 0.816430
vt 0.181216 0.840127
vt 0.173952 0.720177
vt 0.155208 0.844987
vt 0.228290 0.807941
vt 0.975341 0.515306
vt 0.151911 0.836027
vt 0.218159 0.839897
vt 0.266262 0.830629
vt 0.411941 0.661970
vt 0.400944 0.700568
vt 0.316887 0.701820
vt 0.333411 0.697474
vt 0.297119 0.659453
vt 0.347855 0.701820
vt 0.347855 0.587945
vt 0.371613 0.698297
vt 0.371613 0.584423
vt 0.976047 0.564150
vt 0.154359 0.655507
vt 0.162470 0.684770
vt 0.276283 0.697662
vt 0.205807 0.639351
vt 0.917159 0.561903
vt 0.248475 0.587460
vt 0.217875 0.694067
vt 0.184000 0.697657
vt 0.178328 0.611980
vt 0.924579 0.559794
vt 0.266090 0.588218
vt 0.161167 0.655116
vt 0.188058 0.691851
vt 0.980388 0.473643
vt 0.248526 0.587245
vt 0.223766 0.677185
vt 0.279106 0.576302
vt 0.157822 0.594037
vt 0.975972 0.560860
vt 0.273083 0.583672
vt 0.156466 0.699895
vt 0.272191 0.693597
vt 0.981504 0.515896
vt 0.161010 0.700344
vt 0.212014 0.677057
vt 0.978600 0.517719
vt 0.262741 0.582967
vt 0.155126 0.640411
vt 0.236293 0.591725
vt 0.253047 0.694092
vt 0.922117 0.559726
vt 0.205108 0.670586
vt 0.229657 0.693720
vt 0.184000 0.691852
s 1
usemtl molesAtlas.033
f 107/61/110 109/62/110 111/63/110
f 112/64/111 103/65/112 104/66/113
f 101/67/114 108/68/115 102/69/116
f 104/70/113 101/71/114 102/72/116
f 108/73/117 104/74/113 102/75/116
f 107/76/118 106/77/118 105/78/118
f 111/63/119 108/73/119 107/61/119
f 111/79/120 110/80/120 112/64/120
f 105/81/121 110/82/121 109/83/121
f 110/84/122 101/85/114 103/86/112
f 121/87/110 119/88/110 123/89/110
f 115/90/114 124/91/115 116/92/116
f 113/93/112 120/94/111 118/95/111
f 113/96/112 116/97/116 114/98/113
f 116/99/116 120/100/117 114/101/113
f 118/95/120 119/102/120 117/103/120
f 120/100/119 123/89/119 119/88/119
f 123/104/118 122/105/118 121/106/118
f 122/107/121 117/108/121 121/109/121
f 113/110/112 122/111/122 115/112/114
f 133/113/123 131/114/123 135/115/123
f 127/116/124 136/117/111 128/118/125
f 125/119/126 132/120/115 130/121/115
f 125/122/126 128/123/125 126/124/127
f 128/125/125 132/126/128 126/127/127
f 130/121/129 131/128/129 129/129/129
f 132/126/130 135/115/130 131/114/130
f 135/130/131 134/131/131 133/132/131
f 134/133/132 129/134/132 133/135/132
f 125/136/126 134/137/133 127/138/124
f 143/139/123 145/140/123 147/141/123
f 148/142/115 139/143/126 140/144/127
f 137/145/124 144/146/111 138/147/125
f 140/148/127 137/149/124 138/150/125
f 144/151/128 140/152/127 138/153/125
f 143/154/131 142/155/131 141/156/131
f 147/141/130 144/151/130 143/139/130
f 147/157/129 146/158/129 148/142/129
f 141/159/132 146/160/132 145/161/132
f 146/162/133 137/163/124 139/164/126
f 157/165/134 155/166/134 159/167/134
f 151/168/135 160/169/111 152/170/136
f 149/171/137 156/172/115 154/173/115
f 149/174/137 152/175/136 150/176/138
f 152/177/136 156/178/133 150/179/138
f 154/173/139 155/180/139 153/106/139
f 156/178/140 159/167/140 155/166/140
f 159/181/141 158/182/141 157/183/141
f 158/184/142 153/185/142 157/186/142
f 149/187/137 158/188/128 151/189/135
f 167/190/134 169/191/134 171/192/134
f 172/193/115 163/194/137 164/195/138
f 161/196/135 168/197/111 162/198/136
f 164/199/138 161/200/135 162/201/136
f 168/202/133 164/203/138 162/204/136
f 167/205/141 166/206/141 165/207/141
f 171/192/140 168/202/140 167/190/140
f 171/208/139 170/209/139 172/193/139
f 165/210/142 170/211/142 169/212/142
f 170/213/128 161/214/135 163/215/137
f 179/216/143 181/217/143 183/218/143
f 184/219/111 175/220/144 176/221/145
f 173/93/146 180/222/115 174/223/147
f 176/224/145 173/225/146 174/226/147
f 180/227/122 176/228/145 174/229/147
f 179/230/148 178/95/148 177/231/148
f 183/218/149 180/227/149 179/216/149
f 183/232/150 182/233/150 184/219/150
f 177/234/151 182/235/151 181/236/151
f 182/237/117 173/238/146 175/239/144
f 193/240/143 191/241/143 195/242/143
f 187/243/146 196/244/115 188/245/147
f 185/246/144 192/247/111 190/248/111
f 185/249/144 188/250/147 186/251/145
f 188/252/147 192/253/122 186/254/145
f 190/248/150 191/255/150 189/256/150
f 192/253/149 195/242/149 191/241/149
f 195/257/148 194/258/148 193/259/148
f 194/260/151 189/261/151 193/262/151
f 185/263/144 194/264/117 187/265/146
f 201/266/152 210/267/152 202/268/152
f 200/269/153 207/270/153 208/271/153
f 197/272/154 205/273/154 198/274/154
f 197/275/155 212/276/155 206/277/155
f 202/278/156 211/279/156 203/280/156
f 201/281/157 208/271/157 209/282/157
f 198/283/158 207/270/158 199/284/158
f 204/285/159 211/279/159 212/276/159
f 226/286/160 217/287/160 218/288/160
f 224/289/161 215/290/161 216/291/161
f 221/292/162 213/293/162 214/294/162
f 213/295/163 228/296/163 220/297/163
f 227/298/164 218/299/164 219/300/164
f 217/301/165 224/289/165 216/291/165
f 223/302/166 214/303/166 215/290/166
f 220/297/167 227/298/167 219/300/167
f 229/304/168 230/305/168 231/306/168
f 231/306/169 230/305/169 233/307/169
f 233/308/170 230/309/170 232/310/170
f 232/311/171 230/312/171 229/313/171
f 233/308/172 236/314/173 237/315/174
f 235/316/175 236/317/173 234/318/176
f 232/319/177 234/320/176 236/321/173
f 233/307/178 235/322/175 231/306/178
f 231/323/179 234/324/176 229/325/179
f 238/326/180 240/327/180 239/328/180
f 240/327/181 242/329/181 239/328/181
f 242/330/182 241/331/182 239/332/182
f 241/333/183 238/334/183 239/335/183
f 242/330/184 245/336/185 241/331/184
f 244/337/186 245/338/185 246/339/187
f 241/340/188 243/341/189 238/342/188
f 244/343/186 242/329/190 240/327/190
f 243/344/189 240/345/191 238/346/191
f 247/347/192 249/348/192 248/349/192
f 249/348/193 251/350/193 248/349/193
f 251/351/194 250/352/194 248/353/194
f 250/354/195 247/355/195 248/356/195
f 251/351/196 254/357/197 250/352/196
f 253/358/198 254/359/197 255/360/199
f 250/361/200 252/362/201 247/363/200
f 253/364/198 251/350/202 249/348/202
f 252/365/201 249/366/203 247/367/203
f 256/368/204 257/369/204 258/370/204
f 258/370/205 257/369/205 260/371/205
f 260/372/206 257/332/206 259/373/206
f 259/374/207 257/375/207 256/376/207
f 260/372/208 263/377/209 264/378/210
f 262/379/211 263/380/209 261/381/212
f 259/341/213 261/382/212 263/383/209
f 260/371/214 262/384/211 258/370/214
f 258/385/215 261/386/212 256/387/215
f 265/388/216 267/389/216 266/390/216
f 267/389/217 269/391/217 266/390/217
f 269/392/218 268/393/218 266/394/218
f 268/395/219 265/396/219 266/397/219
f 269/392/220 272/398/221 268/393/220
f 271/399/222 272/400/221 273/401/223
f 268/402/224 270/403/225 265/404/224
f 271/405/222 269/391/226 267/389/226
f 270/406/225 267/407/227 265/408/227
f 274/409/228 275/410/228 276/411/228
f 276/411/229 275/410/229 278/412/229
f 278/413/230 275/414/230 277/415/230
f 277/416/231 275/376/231 274/417/231
f 278/413/232 281/418/233 282/419/234
f 280/420/235 281/421/233 279/422/236
f 277/423/237 279/424/236 281/425/233
f 278/412/238 280/426/235 276/411/238
f 276/427/239 279/422/236 274/428/239
f 283/429/240 284/430/240 285/431/240
f 285/431/241 284/430/241 287/432/241
f 287/433/242 284/434/242 286/435/242
f 286/436/243 284/417/243 283/437/243
f 287/433/244 290/438/245 291/439/246
f 289/440/247 290/441/245 288/442/248
f 286/443/249 288/444/248 290/445/245
f 287/432/250 289/446/247 285/431/250
f 285/447/251 288/448/248 283/449/251
f 292/450/252 294/451/252 293/452/252
f 294/451/253 296/453/253 293/452/253
f 296/454/254 295/455/254 293/456/254
f 295/457/255 292/458/255 293/459/255
f 296/454/256 299/460/257 295/455/256
f 298/461/258 299/462/257 300/463/259
f 295/464/260 297/465/261 292/466/260
f 298/467/258 296/453/262 294/451/262
f 297/468/261 294/469/263 292/470/263
f 107/61/110 105/471/110 109/62/110
f 112/64/111 110/80/111 103/65/112
f 101/67/114 106/77/115 108/68/115
f 104/70/113 103/472/112 101/71/114
f 108/73/117 112/473/117 104/74/113
f 107/76/118 108/68/118 106/77/118
f 111/63/119 112/473/119 108/73/119
f 111/79/120 109/474/120 110/80/120
f 105/81/121 106/475/121 110/82/121
f 110/84/122 106/476/122 101/85/114
f 121/87/110 117/477/110 119/88/110
f 115/90/114 122/105/115 124/91/115
f 113/93/112 114/478/113 120/94/111
f 113/96/112 115/479/114 116/97/116
f 116/99/116 124/480/117 120/100/117
f 118/95/120 120/94/120 119/102/120
f 120/100/119 124/480/119 123/89/119
f 123/104/118 124/91/118 122/105/118
f 122/107/121 118/481/121 117/108/121
f 113/110/112 118/482/122 122/111/122
f 133/113/123 129/483/123 131/114/123
f 127/116/124 134/131/111 136/117/111
f 125/119/126 126/484/127 132/120/115
f 125/122/126 127/485/124 128/123/125
f 128/125/125 136/486/128 132/126/128
f 130/121/129 132/120/129 131/128/129
f 132/126/130 136/486/130 135/115/130
f 135/130/131 136/117/131 134/131/131
f 134/133/132 130/487/132 129/134/132
f 125/136/126 130/488/133 134/137/133
f 143/139/123 141/489/123 145/140/123
f 148/142/115 146/158/115 139/143/126
f 137/145/124 142/155/111 144/146/111
f 140/148/127 139/490/126 137/149/124
f 144/151/128 148/491/128 140/152/127
f 143/154/131 144/146/131 142/155/131
f 147/141/130 148/491/130 144/151/130
f 147/157/129 145/492/129 146/158/129
f 141/159/132 142/493/132 146/160/132
f 146/162/133 142/494/133 137/163/124
f 157/165/134 153/495/134 155/166/134
f 151/168/135 158/182/111 160/169/111
f 149/171/137 150/170/138 156/172/115
f 149/174/137 151/496/135 152/175/136
f 152/177/136 160/497/133 156/178/133
f 154/173/139 156/172/139 155/180/139
f 156/178/140 160/497/140 159/167/140
f 159/181/141 160/169/141 158/182/141
f 158/184/142 154/498/142 153/185/142
f 149/187/137 154/499/128 158/188/128
f 167/190/134 165/500/134 169/191/134
f 172/193/115 170/209/115 163/194/137
f 161/196/135 166/206/111 168/197/111
f 164/199/138 163/501/137 161/200/135
f 168/202/133 172/502/133 164/203/138
f 167/205/141 168/197/141 166/206/141
f 171/192/140 172/502/140 168/202/140
f 171/208/139 169/503/139 170/209/139
f 165/210/142 166/504/142 170/211/142
f 170/213/128 166/505/128 161/214/135
f 179/216/143 177/506/143 181/217/143
f 184/219/111 182/233/111 175/220/144
f 173/93/146 178/95/115 180/222/115
f 176/224/145 175/507/144 173/225/146
f 180/227/122 184/508/122 176/228/145
f 179/230/148 180/222/148 178/95/148
f 183/218/149 184/508/149 180/227/149
f 183/232/150 181/156/150 182/233/150
f 177/234/151 178/509/151 182/235/151
f 182/237/117 178/510/117 173/238/146
f 193/240/143 189/511/143 191/241/143
f 187/243/146 194/258/115 196/244/115
f 185/246/144 186/512/145 192/247/111
f 185/249/144 187/513/146 188/250/147
f 188/252/147 196/514/122 192/253/122
f 190/248/150 192/247/150 191/255/150
f 192/253/149 196/514/149 195/242/149
f 195/257/148 196/244/148 194/258/148
f 194/260/151 190/515/151 189/261/151
f 185/263/144 190/516/117 194/264/117
f 201/266/152 209/517/152 210/267/152
f 200/269/153 199/284/153 207/270/153
f 197/272/154 206/518/154 205/273/154
f 197/275/155 204/285/155 212/276/155
f 202/278/156 210/519/156 211/279/156
f 201/281/157 200/269/157 208/271/157
f 198/283/158 205/520/158 207/270/158
f 204/285/159 203/280/159 211/279/159
f 226/286/160 225/517/160 217/287/160
f 224/289/161 223/302/161 215/290/161
f 221/292/162 222/521/162 213/293/162
f 213/295/163 222/522/163 228/296/163
f 227/298/164 226/523/164 218/299/164
f 217/301/165 225/524/165 224/289/165
f 223/302/166 221/525/166 214/303/166
f 220/297/167 228/296/167 227/298/167
f 233/308/172 232/310/172 236/314/173
f 235/316/175 237/526/174 236/317/173
f 232/319/177 229/527/177 234/320/176
f 233/307/178 237/528/174 235/322/175
f 231/323/179 235/529/175 234/324/176
f 242/330/184 246/530/187 245/336/185
f 244/337/186 243/531/189 245/338/185
f 241/340/188 245/532/185 243/341/189
f 244/343/186 246/533/187 242/329/190
f 243/344/189 244/534/186 240/345/191
f 251/351/196 255/535/199 254/357/197
f 253/358/198 252/536/201 254/359/197
f 250/361/200 254/537/197 252/362/201
f 253/364/198 255/538/199 251/350/202
f 252/365/201 253/539/198 249/366/203
f 260/372/208 259/373/208 263/377/209
f 262/379/211 264/540/210 263/380/209
f 259/341/213 256/541/213 261/382/212
f 260/371/214 264/542/210 262/384/211
f 258/385/215 262/543/211 261/386/212
f 269/392/220 273/544/223 272/398/221
f 271/399/222 270/545/225 272/400/221
f 268/402/224 272/546/221 270/403/225
f 271/405/222 273/547/223 269/391/226
f 270/406/225 271/548/222 267/407/227
f 278/413/232 277/415/232 281/418/233
f 280/420/235 282/549/234 281/421/233
f 277/423/237 274/550/237 279/424/236
f 278/412/238 282/551/234 280/426/235
f 276/427/239 280/420/235 279/422/236
f 287/433/244 286/435/244 290/438/245
f 289/440/247 291/552/246 290/441/245
f 286/443/249 283/553/249 288/444/248
f 287/432/250 291/554/246 289/446/247
f 285/447/251 289/555/247 288/448/248
f 296/454/256 300/556/259 299/460/257
f 298/461/258 297/557/261 299/462/257
f 295/464/260 299/558/257 297/465/261
f 298/467/258 300/559/259 296/453/262
f 297/468/261 298/560/258 294/469/263
