# Blender 5.0.0
# www.blender.org
mtllib DemmonHammerBody3.mtl
o Cilindro.001
v 0.092265 6.906779 -0.933750
v 0.150000 7.006780 -0.790750
v 0.092265 6.906780 0.881250
v 0.150000 7.006780 0.793250
v 0.184530 6.746972 -0.933750
v 0.184530 6.746972 0.881250
v 0.092265 6.587163 -0.933750
v 0.092265 6.587164 0.881250
v 0.150000 6.487164 0.793250
v -0.092265 6.587163 -0.933750
v -0.092265 6.587164 0.881250
v -0.184530 6.746972 -0.933750
v -0.300000 6.746972 -0.790750
v -0.184530 6.746972 0.881250
v -0.300000 6.746972 0.793250
v -0.092265 6.906779 -0.933750
v -0.150000 7.006780 -0.790750
v -0.092265 6.906780 0.881250
v -0.150000 7.006780 0.793250
v 1.100000 7.072253 -0.785298
v 1.100000 6.421691 -0.785298
v 1.100000 5.961674 -0.325281
v 1.100000 5.961674 0.325281
v 1.100000 6.421691 0.785298
v 1.100000 7.072253 0.785297
v 1.100000 7.532269 0.325281
v 1.100000 7.532269 -0.325281
v 1.350000 7.072253 -0.785298
v 1.350000 6.421691 -0.785298
v 1.350000 5.961674 -0.325281
v 1.350000 5.961674 0.325281
v 1.350000 6.421691 0.785298
v 1.350000 7.072253 0.785297
v 1.350000 7.532269 0.325281
v 1.350000 7.532269 -0.325281
v 1.087500 6.007868 -0.306147
v 1.087500 6.007868 0.306147
v 1.087500 7.053119 0.739103
v 1.087500 7.486075 0.306147
v 1.087500 6.440825 0.739104
v 1.087500 7.486075 -0.306147
v 1.087500 6.440825 -0.739104
v 1.087500 7.053119 -0.739104
v -1.100000 7.072253 -0.785298
v -1.100000 6.421691 -0.785298
v -1.100000 5.961674 -0.325281
v -1.100000 5.961674 0.325281
v -1.100000 6.421691 0.785298
v -1.100000 7.072253 0.785297
v -1.100000 7.532269 0.325281
v -1.100000 7.532269 -0.325281
v -1.350000 7.072253 -0.785298
v -1.350000 6.421691 -0.785298
v -1.350000 5.961674 -0.325281
v -1.350000 5.961674 0.325281
v -1.350000 6.421691 0.785298
v -1.350000 7.072253 0.785297
v -1.350000 7.532269 0.325281
v -1.350000 7.532269 -0.325281
v -1.087500 6.007868 -0.306147
v -1.087500 6.007868 0.306147
v -1.087500 7.053119 0.739103
v -1.087500 7.486075 0.306147
v -1.087500 6.440825 0.739104
v -1.087500 7.486075 -0.306147
v -1.087500 6.440825 -0.739104
v -1.087500 7.053119 -0.739104
v 0.150000 7.006780 -0.923880
v 0.150000 7.006780 0.923879
v 0.300000 6.746972 0.923879
v 0.300000 6.746972 -0.923880
v 0.155709 6.497053 -0.923880
v 0.150000 6.487164 0.923880
v 0.150000 6.487164 -0.923880
v -0.150000 6.487164 0.923880
v -0.150000 6.487164 -0.923880
v -0.155709 6.497053 0.923880
v -0.300000 6.746972 -0.923880
v -0.300000 6.746972 0.923879
v -0.155709 6.996891 -0.923880
v -0.150000 7.006780 -0.923880
v -0.150000 7.006780 0.923879
vn -0.0000 1.0000 -0.0000
vn -0.8660 0.5000 -0.0000
vn -0.0000 -0.0000 1.0000
vn -0.7097 0.4097 -0.5731
vn -0.7097 0.4098 -0.5731
vn -0.5721 0.3303 0.7507
vn -0.0000 0.8195 -0.5731
vn -0.0000 0.6606 0.7507
vn -0.0000 -0.0000 -1.0000
vn -0.9653 -0.2612 -0.0000
vn -0.0000 -0.7071 0.7071
vn -0.9653 0.1847 0.1847
vn -0.9653 -0.1847 0.1847
vn -0.9653 0.2612 -0.0000
vn -0.9653 -0.1847 -0.1847
vn -0.9653 -0.0000 0.2612
vn -0.9653 0.1847 -0.1847
vn -0.9653 -0.0000 -0.2612
vn -0.0000 -0.7071 -0.7071
vn -0.0000 -1.0000 -0.0000
vn -0.0000 0.7071 -0.7071
vn -0.0000 0.7071 0.7071
vn 0.9653 -0.2612 -0.0000
vn 0.9653 0.1847 0.1847
vn 0.9653 -0.1847 0.1847
vn 0.9653 0.2612 -0.0000
vn 0.9653 -0.1847 -0.1847
vn 0.9653 -0.0000 0.2612
vn 0.9653 0.1847 -0.1847
vn 0.9653 -0.0000 -0.2612
vn -0.8660 -0.5000 -0.0000
vn 0.8660 0.5000 -0.0000
vn 0.8660 -0.5000 -0.0000
vn 0.6295 -0.0000 0.7770
vn 0.8661 0.4999 0.0001
vt 0.969214 0.549243
vt 0.964919 0.519963
vt 0.964919 0.549243
vt 0.895698 0.550440
vt 0.899298 0.520173
vt 0.895698 0.520173
vt 0.444260 0.698083
vt 0.438099 0.697897
vt 0.441180 0.703596
vt 0.443060 0.682967
vt 0.438172 0.679257
vt 0.438172 0.682967
vt 0.441180 0.693782
vt 0.441180 0.696121
vt 0.446745 0.633401
vt 0.442036 0.637048
vt 0.445623 0.637048
vt 0.446745 0.593649
vt 0.442036 0.591499
vt 0.440913 0.593649
vt 0.440357 0.660249
vt 0.443438 0.665949
vt 0.446518 0.660436
vt 0.933810 0.492228
vt 0.933170 0.504293
vt 0.933810 0.503928
vt 0.499132 0.581362
vt 0.505293 0.595663
vt 0.505293 0.581362
vt 0.948294 0.512201
vt 0.954934 0.504293
vt 0.954294 0.503928
vt 0.939809 0.512201
vt 0.939544 0.513083
vt 0.954934 0.491863
vt 0.954294 0.492228
vt 0.939809 0.483955
vt 0.933170 0.491863
vt 0.948559 0.513083
vt 0.948294 0.483955
vt 0.948559 0.483073
vt 0.939544 0.483073
vt 0.499132 0.631340
vt 0.505293 0.616364
vt 0.499132 0.616364
vt 0.482743 0.690456
vt 0.488905 0.669755
vt 0.482743 0.669755
vt 0.551273 0.688757
vt 0.545112 0.705325
vt 0.551273 0.705325
vt 0.499132 0.595663
vt 0.534084 0.642659
vt 0.540246 0.659227
vt 0.540246 0.642659
vt 0.488905 0.654779
vt 0.482743 0.654779
vt 0.482743 0.704757
vt 0.488905 0.690456
vt 0.931442 0.453908
vt 0.932082 0.465973
vt 0.932082 0.454274
vt 0.472418 0.632895
vt 0.478580 0.618594
vt 0.472418 0.618594
vt 0.953206 0.453908
vt 0.946566 0.446001
vt 0.952566 0.454274
vt 0.938081 0.446001
vt 0.952566 0.465973
vt 0.931442 0.466339
vt 0.938081 0.474246
vt 0.946831 0.445118
vt 0.946566 0.474246
vt 0.953206 0.466339
vt 0.937816 0.475129
vt 0.478580 0.597893
vt 0.472418 0.582917
vt 0.472418 0.597893
vt 0.506094 0.689967
vt 0.499932 0.669266
vt 0.499932 0.689967
vt 0.545112 0.665708
vt 0.551273 0.682276
vt 0.551273 0.665708
vt 0.464346 0.699209
vt 0.470508 0.682641
vt 0.464346 0.682641
vt 0.506094 0.704943
vt 0.499932 0.704943
vt 0.506094 0.669266
vt 0.499932 0.654966
vt 0.963191 0.480425
vt 0.966791 0.445118
vt 0.963191 0.445118
vt 0.966791 0.480425
vt 0.970255 0.480425
vt 0.970391 0.445118
vt 0.930480 0.517441
vt 0.926184 0.551597
vt 0.930480 0.551597
vt 0.964919 0.483073
vt 0.968519 0.518379
vt 0.968519 0.483073
vt 0.971983 0.518379
vt 0.972120 0.483073
vt 0.974687 0.479274
vt 0.970391 0.479274
vt 0.969214 0.519963
vt 0.899298 0.550440
vt 0.444260 0.701820
vt 0.438099 0.701634
vt 0.441179 0.679257
vt 0.436172 0.696669
vt 0.440913 0.633401
vt 0.445623 0.591499
vt 0.443438 0.658474
vt 0.440357 0.663987
vt 0.446518 0.664173
vt 0.505293 0.631340
vt 0.545112 0.688757
vt 0.534084 0.659227
vt 0.488905 0.704757
vt 0.478580 0.632895
vt 0.937816 0.445118
vt 0.946831 0.475129
vt 0.478580 0.582917
vt 0.545112 0.682276
vt 0.470508 0.699209
vt 0.506094 0.654966
vt 0.970391 0.480425
vt 0.926184 0.517441
vt 0.965056 0.483073
vt 0.964919 0.518379
vt 0.972120 0.518379
vt 0.974687 0.445118
s 1
usemtl molesAtlas.034
f 17/1/1 4/2/1 2/3/1
f 15/4/2 17/5/2 13/6/2
f 3/7/3 14/8/3 8/9/3
f 17/10/4 12/11/4 13/12/5
f 19/13/6 14/8/6 18/14/6
f 17/15/7 1/16/7 16/17/7
f 19/18/8 3/19/8 4/20/8
f 5/21/9 10/22/9 16/23/9
f 36/24/10 23/25/10 37/26/10
f 24/27/11 31/28/11 32/29/11
f 38/30/12 26/31/12 39/32/12
f 40/33/13 23/25/13 24/34/13
f 39/32/14 27/35/14 41/36/14
f 42/37/15 22/38/15 36/24/15
f 40/33/16 25/39/16 38/30/16
f 43/40/17 27/35/17 20/41/17
f 43/40/18 21/42/18 42/37/18
f 21/43/19 30/44/19 22/45/19
f 26/46/1 35/47/1 27/48/1
f 24/49/3 33/50/3 25/51/3
f 22/45/20 31/28/20 23/52/20
f 21/53/9 28/54/9 29/55/9
f 27/48/21 28/56/21 20/57/21
f 25/58/22 34/59/22 26/46/22
f 47/60/23 60/61/23 61/62/23
f 48/63/11 55/64/11 47/65/11
f 50/66/24 62/67/24 63/68/24
f 64/69/25 47/60/25 61/62/25
f 65/70/26 50/66/26 63/68/26
f 46/71/27 66/72/27 60/61/27
f 49/73/28 64/69/28 62/67/28
f 67/74/29 51/75/29 65/70/29
f 45/76/30 67/74/30 66/72/30
f 54/77/19 45/78/19 46/79/19
f 59/80/1 50/81/1 51/82/1
f 57/83/3 48/84/3 49/85/3
f 55/64/20 46/79/20 47/65/20
f 45/86/9 52/87/9 44/88/9
f 52/89/21 51/82/21 44/90/21
f 58/91/22 49/92/22 50/81/22
f 68/93/31 70/94/31 69/95/31
f 71/96/2 72/97/2 73/98/2
f 74/99/1 75/100/1 73/101/1
f 75/102/32 78/103/32 79/104/32
f 80/105/33 82/106/33 79/104/33
f 68/107/20 82/98/20 81/108/20
f 17/1/1 19/109/1 4/2/1
f 15/4/2 19/110/2 17/5/2
f 8/9/3 6/111/3 3/7/3
f 3/7/3 18/14/3 14/8/3
f 14/8/3 11/112/3 8/9/3
f 17/10/4 16/113/4 12/11/4
f 19/13/6 15/114/6 14/8/6
f 17/15/7 2/115/7 1/16/7
f 19/18/8 18/116/8 3/19/8
f 16/23/9 1/117/9 5/21/9
f 5/21/9 7/118/9 10/22/9
f 10/22/9 12/119/9 16/23/9
f 36/24/10 22/38/10 23/25/10
f 24/27/11 23/52/11 31/28/11
f 38/30/12 25/39/12 26/31/12
f 40/33/13 37/26/13 23/25/13
f 39/32/14 26/31/14 27/35/14
f 42/37/15 21/42/15 22/38/15
f 40/33/16 24/34/16 25/39/16
f 43/40/17 41/36/17 27/35/17
f 43/40/18 20/41/18 21/42/18
f 21/43/19 29/120/19 30/44/19
f 26/46/1 34/59/1 35/47/1
f 24/49/3 32/121/3 33/50/3
f 22/45/20 30/44/20 31/28/20
f 21/53/9 20/122/9 28/54/9
f 27/48/21 35/47/21 28/56/21
f 25/58/22 33/123/22 34/59/22
f 47/60/23 46/71/23 60/61/23
f 48/63/11 56/124/11 55/64/11
f 50/66/24 49/73/24 62/67/24
f 64/69/25 48/125/25 47/60/25
f 65/70/26 51/75/26 50/66/26
f 46/71/27 45/76/27 66/72/27
f 49/73/28 48/125/28 64/69/28
f 67/74/29 44/126/29 51/75/29
f 45/76/30 44/126/30 67/74/30
f 54/77/19 53/127/19 45/78/19
f 59/80/1 58/91/1 50/81/1
f 57/83/3 56/128/3 48/84/3
f 55/64/20 54/77/20 46/79/20
f 45/86/9 53/129/9 52/87/9
f 52/89/21 59/80/21 51/82/21
f 58/91/22 57/130/22 49/92/22
f 68/93/31 71/96/31 70/94/31
f 73/98/2 70/94/2 71/96/2
f 72/97/2 74/131/2 73/98/2
f 74/99/1 76/132/1 75/100/1
f 79/104/32 77/133/34 75/102/35
f 75/102/32 76/134/32 78/103/32
f 79/104/33 78/103/33 80/105/33
f 80/105/33 81/135/33 82/106/33
f 68/107/20 69/136/20 82/98/20
l 8 9
