# Blender 5.0.0
# www.blender.org
mtllib DemonHammer.mtl
o Cilindro.027
v 0.092265 6.906780 -0.933751
v 0.150000 7.006780 -0.790751
v 0.092265 6.906780 0.881249
v 0.150000 7.006780 0.793249
v 0.184530 6.746972 -0.933751
v 0.300000 6.746972 -0.790751
v 0.184530 6.746972 0.881249
v 0.300000 6.746972 0.793249
v 0.092265 6.587164 -0.933750
v 0.150000 6.487164 -0.790751
v 0.092265 6.587164 0.881250
v 0.150000 6.487164 0.793250
v -0.092265 6.587164 -0.933750
v -0.150000 6.487164 -0.790751
v -0.092265 6.587164 0.881250
v -0.150000 6.487164 0.793250
v -0.184530 6.746972 -0.933751
v -0.300000 6.746972 -0.790751
v -0.184530 6.746972 0.881249
v -0.300000 6.746972 0.793249
v 0.768246 7.180565 0.616476
v 0.768246 7.339664 0.457377
v 0.993246 7.180565 0.616476
v 0.993246 7.339664 0.457377
v -0.768246 7.180565 0.616476
v -0.768246 7.339664 0.457377
v -0.993246 7.180565 0.616476
v -0.993246 7.339664 0.457377
v 0.768246 7.180565 -0.616478
v 0.768246 7.339664 -0.457379
v 0.993246 7.180565 -0.616478
v 0.993246 7.339664 -0.457379
v -0.768246 7.180565 -0.616478
v -0.768246 7.339664 -0.457379
v -0.993246 7.180565 -0.616478
v -0.993246 7.339664 -0.457379
v 0.768246 6.313379 0.616477
v 0.768246 6.154280 0.457378
v 0.993246 6.313379 0.616477
v 0.993246 6.154280 0.457378
v -0.768246 6.313379 0.616477
v -0.768246 6.154280 0.457378
v -0.993246 6.313379 0.616477
v -0.993246 6.154280 0.457378
v 0.768246 6.313379 -0.616477
v 0.768246 6.154280 -0.457378
v 0.993246 6.313379 -0.616477
v 0.993246 6.154280 -0.457378
v -0.768246 6.313379 -0.616477
v -0.768246 6.154280 -0.457378
v -0.993246 6.313379 -0.616477
v -0.993246 6.154280 -0.457378
v 0.650000 7.053119 -0.739105
v 0.650000 6.440825 -0.739104
v 0.650000 6.007869 -0.306147
v 0.650000 6.007868 0.306147
v 0.650000 6.440825 0.739103
v 0.650000 7.053119 0.739102
v 0.650000 7.486075 0.306146
v 0.650000 7.486075 -0.306148
v 0.400000 7.129655 -0.923881
v 0.400000 6.364289 -0.923880
v 0.400000 5.823092 -0.382683
v 0.400000 5.823092 0.382683
v 0.400000 6.364289 0.923880
v 0.400000 7.129655 0.923878
v 0.400000 7.670852 0.382682
v 0.400000 7.670852 -0.382684
v 1.350000 7.072253 -0.785299
v 1.350000 6.421691 -0.785298
v 1.350000 5.961675 -0.325281
v 1.350000 5.961675 0.325281
v 1.350000 6.421691 0.785298
v 1.350000 7.072253 0.785296
v 1.350000 7.532269 0.325280
v 1.350000 7.532269 -0.325282
v 1.687400 7.188971 -0.970075
v 1.687400 6.304973 -0.970074
v 1.687400 5.679891 -0.401818
v 1.687400 5.679891 0.401818
v 1.687400 6.304973 0.970074
v 1.687400 7.188972 0.970072
v 1.687400 7.814053 0.401817
v 1.687400 7.814053 -0.401818
v 1.852400 7.085586 -0.743171
v 1.852400 6.408358 -0.743170
v 1.852400 5.929484 -0.307831
v 1.852400 5.929484 0.307831
v 1.852400 6.408358 0.743170
v 1.852400 7.085587 0.743169
v 1.852400 7.564459 0.307830
v 1.852400 7.564459 -0.307832
v 1.797400 6.294449 -0.993170
v 1.797400 7.199495 -0.993171
v 1.797400 5.654485 -0.411385
v 1.797400 5.654484 0.411385
v 1.797400 6.294449 0.993170
v 1.797400 7.199495 0.993169
v 1.797400 7.839459 0.411384
v 1.797400 7.839459 -0.411385
v 2.802400 6.746972 -0.000001
v 1.087500 6.007869 -0.306147
v 1.087500 6.007868 0.306147
v 1.087500 7.053119 0.739102
v 1.087500 7.486075 0.306146
v 1.087500 6.440825 0.739103
v 1.087500 7.486075 -0.306148
v 1.087500 6.440825 -0.739104
v 1.087500 7.053119 -0.739105
v -0.650000 7.053119 -0.739105
v -0.650000 6.440825 -0.739104
v -0.650000 6.007869 -0.306147
v -0.650000 6.007868 0.306147
v -0.650000 6.440825 0.739103
v -0.650000 7.053119 0.739102
v -0.650000 7.486075 0.306146
v -0.650000 7.486075 -0.306148
v -0.400000 7.129655 -0.923881
v -0.400000 6.364289 -0.923880
v -0.400000 5.823092 -0.382683
v -0.400000 5.823092 0.382683
v -0.400000 6.364289 0.923880
v -0.400000 7.129655 0.923878
v -0.400000 7.670852 0.382682
v -0.400000 7.670852 -0.382684
v -1.350000 7.072253 -0.785299
v -1.350000 6.421691 -0.785298
v -1.350000 5.961675 -0.325281
v -1.350000 5.961675 0.325281
v -1.350000 6.421691 0.785298
v -1.350000 7.072253 0.785296
v -1.350000 7.532269 0.325280
v -1.350000 7.532269 -0.325282
v -1.687400 7.188971 -0.970075
v -1.687400 6.304973 -0.970074
v -1.687400 5.679891 -0.401818
v -1.687400 5.679891 0.401818
v -1.687400 6.304973 0.970074
v -1.687400 7.188972 0.970072
v -1.687400 7.814053 0.401817
v -1.687400 7.814053 -0.401818
v -1.852400 7.085586 -0.743171
v -1.852400 6.408358 -0.743170
v -1.852400 5.929484 -0.307831
v -1.852400 5.929484 0.307831
v -1.852400 6.408358 0.743170
v -1.852400 7.085587 0.743169
v -1.852400 7.564459 0.307830
v -1.852400 7.564459 -0.307832
v -1.797400 6.294449 -0.993170
v -1.797400 7.199495 -0.993171
v -1.797400 5.654485 -0.411385
v -1.797400 5.654484 0.411385
v -1.797400 6.294449 0.993170
v -1.797400 7.199495 0.993169
v -1.797400 7.839459 0.411384
v -1.797400 7.839459 -0.411385
v -2.802400 6.746972 -0.000001
v -1.087500 6.007869 -0.306147
v -1.087500 6.007868 0.306147
v -1.087500 7.053119 0.739102
v -1.087500 7.486075 0.306146
v -1.087500 6.440825 0.739103
v -1.087500 7.486075 -0.306148
v -1.087500 6.440825 -0.739104
v -1.087500 7.053119 -0.739105
v 2.051895 7.150377 0.464527
v 2.051895 7.263515 0.351390
v 2.170898 7.085809 0.399959
v 2.170898 7.198946 0.286822
v -2.058360 7.156335 0.469293
v -2.058360 7.269472 0.356156
v -2.177363 7.091766 0.404725
v -2.177363 7.204903 0.291588
v 2.051895 7.150377 -0.464529
v 2.051895 7.263515 -0.351392
v 2.170898 7.085809 -0.399961
v 2.170898 7.198946 -0.286824
v -2.058360 7.156335 -0.469295
v -2.058360 7.269472 -0.356158
v -2.177363 7.091766 -0.404727
v -2.177363 7.204903 -0.291590
v 2.051895 6.343567 0.464528
v 2.051895 6.230430 0.351391
v 2.170898 6.408135 0.399960
v 2.170898 6.294999 0.286823
v -2.058360 6.337609 0.469294
v -2.058360 6.224472 0.356157
v -2.177363 6.402178 0.404726
v -2.177363 6.289041 0.291589
v 2.051895 6.343567 -0.464528
v 2.051895 6.230430 -0.351391
v 2.170898 6.408135 -0.399960
v 2.170898 6.294999 -0.286822
v -2.058360 6.337609 -0.469294
v -2.058360 6.224472 -0.356157
v -2.177363 6.402178 -0.404726
v -2.177363 6.289041 -0.291589
v 0.150000 7.006780 -0.923881
v 0.150000 7.006780 0.923878
v 0.300000 6.746972 0.923878
v 0.300000 6.746972 -0.923881
v 0.155709 6.497053 -0.923880
v 0.150000 6.487164 0.923880
v 0.150000 6.487164 -0.923880
v -0.150000 6.487164 0.923880
v -0.150000 6.487164 -0.923880
v -0.155709 6.497053 0.923880
v -0.300000 6.746972 -0.923881
v -0.300000 6.746972 0.923878
v -0.155709 6.996891 -0.923881
v -0.150000 7.006780 -0.923881
v -0.150000 7.006780 0.923878
v 0.092265 6.906779 -0.933751
v 0.150000 7.006780 -0.790751
v 0.092265 6.906780 0.881249
v 0.150000 7.006780 0.793249
v 0.184530 6.746972 -0.933751
v 0.184530 6.746972 0.881249
v 0.092265 6.587163 -0.933750
v 0.092265 6.587164 0.881250
v 0.150000 6.487164 0.793250
v -0.092265 6.587163 -0.933750
v -0.092265 6.587164 0.881250
v -0.184530 6.746972 -0.933751
v -0.300000 6.746972 -0.790751
v -0.184530 6.746972 0.881249
v -0.300000 6.746972 0.793249
v -0.092265 6.906779 -0.933751
v -0.150000 7.006780 -0.790751
v -0.092265 6.906780 0.881249
v -0.150000 7.006780 0.793249
v 1.100000 7.072253 -0.785299
v 1.100000 6.421691 -0.785298
v 1.100000 5.961674 -0.325281
v 1.100000 5.961674 0.325281
v 1.100000 6.421691 0.785298
v 1.100000 7.072253 0.785296
v 1.100000 7.532269 0.325280
v 1.100000 7.532269 -0.325282
v 1.350000 7.072253 -0.785299
v 1.350000 6.421691 -0.785298
v 1.350000 5.961674 -0.325281
v 1.350000 5.961674 0.325281
v 1.350000 6.421691 0.785298
v 1.350000 7.072253 0.785296
v 1.350000 7.532269 0.325280
v 1.350000 7.532269 -0.325282
v 1.087500 6.007868 -0.306147
v 1.087500 6.007868 0.306147
v 1.087500 7.053119 0.739102
v 1.087500 7.486075 0.306146
v 1.087500 6.440825 0.739103
v 1.087500 7.486075 -0.306148
v 1.087500 6.440825 -0.739104
v 1.087500 7.053119 -0.739105
v -1.100000 7.072253 -0.785299
v -1.100000 6.421691 -0.785298
v -1.100000 5.961674 -0.325281
v -1.100000 5.961674 0.325281
v -1.100000 6.421691 0.785298
v -1.100000 7.072253 0.785296
v -1.100000 7.532269 0.325280
v -1.100000 7.532269 -0.325282
v -1.350000 7.072253 -0.785299
v -1.350000 6.421691 -0.785298
v -1.350000 5.961674 -0.325281
v -1.350000 5.961674 0.325281
v -1.350000 6.421691 0.785298
v -1.350000 7.072253 0.785296
v -1.350000 7.532269 0.325280
v -1.350000 7.532269 -0.325282
v -1.087500 6.007868 -0.306147
v -1.087500 6.007868 0.306147
v -1.087500 7.053119 0.739102
v -1.087500 7.486075 0.306146
v -1.087500 6.440825 0.739103
v -1.087500 7.486075 -0.306148
v -1.087500 6.440825 -0.739104
v -1.087500 7.053119 -0.739105
v 0.150000 7.006780 -0.923881
v 0.150000 7.006780 0.923878
v 0.300000 6.746972 0.923878
v 0.300000 6.746972 -0.923881
v 0.155709 6.497053 -0.923880
v 0.150000 6.487164 0.923880
v 0.150000 6.487164 -0.923880
v -0.150000 6.487164 0.923880
v -0.150000 6.487164 -0.923880
v -0.155709 6.497053 0.923880
v -0.300000 6.746972 -0.923881
v -0.300000 6.746972 0.923878
v -0.155709 6.996891 -0.923881
v -0.150000 7.006780 -0.923881
v -0.150000 7.006780 0.923878
v 0.768246 7.180408 0.616476
v 0.768246 7.339507 0.457377
v 0.993246 7.180408 0.616476
v 0.993246 7.339507 0.457377
v 0.852621 7.592313 0.924675
v 0.768246 7.333777 0.785463
v 0.852621 7.632088 0.884900
v 0.768246 7.492876 0.626364
v 0.908871 7.592313 0.924675
v 0.993246 7.333777 0.785463
v 0.908871 7.632088 0.884900
v 0.993246 7.492876 0.626364
v -0.768246 7.180408 0.616476
v -0.768246 7.339507 0.457377
v -0.993246 7.180408 0.616476
v -0.993246 7.339507 0.457377
v -0.852621 7.592313 0.924675
v -0.768246 7.333777 0.785463
v -0.852621 7.632088 0.884900
v -0.768246 7.492876 0.626364
v -0.908871 7.592313 0.924675
v -0.993246 7.333777 0.785463
v -0.908871 7.632088 0.884900
v -0.993246 7.492876 0.626364
v 0.768246 7.180408 -0.616478
v 0.768246 7.339507 -0.457379
v 0.993246 7.180408 -0.616478
v 0.993246 7.339507 -0.457379
v 0.852621 7.592313 -0.924677
v 0.768246 7.333777 -0.785465
v 0.852621 7.632088 -0.884902
v 0.768246 7.492876 -0.626366
v 0.908871 7.592313 -0.924677
v 0.993246 7.333777 -0.785465
v 0.908871 7.632088 -0.884902
v 0.993246 7.492876 -0.626366
v -0.768246 7.180408 -0.616478
v -0.768246 7.339507 -0.457379
v -0.993246 7.180408 -0.616478
v -0.993246 7.339507 -0.457379
v -0.852621 7.592313 -0.924677
v -0.768246 7.333777 -0.785465
v -0.852621 7.632088 -0.884902
v -0.768246 7.492876 -0.626366
v -0.908871 7.592313 -0.924677
v -0.993246 7.333777 -0.785465
v -0.908871 7.632088 -0.884902
v -0.993246 7.492876 -0.626366
v 0.768246 6.313222 0.616477
v 0.768246 6.154123 0.457378
v 0.993246 6.313222 0.616477
v 0.993246 6.154123 0.457378
v 0.852621 5.901317 0.924676
v 0.768246 6.159853 0.785464
v 0.852621 5.861542 0.884901
v 0.768246 6.000753 0.626365
v 0.908871 5.901317 0.924676
v 0.993246 6.159853 0.785464
v 0.908871 5.861542 0.884901
v 0.993246 6.000753 0.626365
v -0.768246 6.313222 0.616477
v -0.768246 6.154123 0.457378
v -0.993246 6.313222 0.616477
v -0.993246 6.154123 0.457378
v -0.852621 5.901317 0.924676
v -0.768246 6.159853 0.785464
v -0.852621 5.861542 0.884901
v -0.768246 6.000753 0.626365
v -0.908871 5.901317 0.924676
v -0.993246 6.159853 0.785464
v -0.908871 5.861542 0.884901
v -0.993246 6.000753 0.626365
v 0.768246 6.313222 -0.616477
v 0.768246 6.154123 -0.457378
v 0.993246 6.313222 -0.616477
v 0.993246 6.154123 -0.457378
v 0.852621 5.901317 -0.924676
v 0.768246 6.159853 -0.785464
v 0.852621 5.861542 -0.884901
v 0.768246 6.000753 -0.626365
v 0.908871 5.901317 -0.924676
v 0.993246 6.159853 -0.785464
v 0.908871 5.861542 -0.884901
v 0.993246 6.000753 -0.626365
v -0.768246 6.313222 -0.616477
v -0.768246 6.154123 -0.457378
v -0.993246 6.313222 -0.616477
v -0.993246 6.154123 -0.457378
v -0.852621 5.901317 -0.924676
v -0.768246 6.159853 -0.785464
v -0.852621 5.861542 -0.884901
v -0.768246 6.000753 -0.626365
v -0.908871 5.901317 -0.924676
v -0.993246 6.159853 -0.785464
v -0.908871 5.861542 -0.884901
v -0.993246 6.000753 -0.626365
v 1.687400 7.188814 -0.970075
v 1.687400 6.304815 -0.970074
v 1.687400 5.679734 -0.401818
v 1.687400 5.679734 0.401818
v 1.687400 6.304815 0.970074
v 1.687400 7.188814 0.970072
v 1.687400 7.813895 0.401817
v 1.687400 7.813895 -0.401818
v 1.797400 6.294291 -0.993170
v 1.797400 7.199337 -0.993171
v 1.797400 5.654327 -0.411385
v 1.797400 5.654327 0.411385
v 1.797400 6.294291 0.993170
v 1.797400 7.199338 0.993169
v 1.797400 7.839302 0.411384
v 1.797400 7.839302 -0.411385
v -1.687400 7.188814 -0.970075
v -1.687400 6.304815 -0.970074
v -1.687400 5.679734 -0.401818
v -1.687400 5.679734 0.401818
v -1.687400 6.304815 0.970074
v -1.687400 7.188814 0.970072
v -1.687400 7.813895 0.401817
v -1.687400 7.813895 -0.401818
v -1.797400 6.294291 -0.993170
v -1.797400 7.199337 -0.993171
v -1.797400 5.654327 -0.411385
v -1.797400 5.654327 0.411385
v -1.797400 6.294291 0.993170
v -1.797400 7.199338 0.993169
v -1.797400 7.839302 0.411384
v -1.797400 7.839302 -0.411385
v 2.148640 7.279575 0.604606
v 2.550570 7.468810 0.680704
v 2.148640 7.392712 0.491468
v 2.267643 7.215006 0.540037
v 2.267643 7.328143 0.426900
v 2.051895 7.150220 0.464527
v 2.051895 7.263357 0.351390
v 2.170898 7.085651 0.399959
v 2.170898 7.198788 0.286822
v -2.148640 7.279575 0.604606
v -2.550570 7.468810 0.680704
v -2.148640 7.392712 0.491468
v -2.267643 7.215006 0.540037
v -2.267643 7.328143 0.426900
v -2.058360 7.156178 0.469293
v -2.058360 7.269315 0.356156
v -2.177363 7.091609 0.404725
v -2.177363 7.204746 0.291588
v 2.148640 7.279575 -0.604608
v 2.550570 7.468810 -0.680706
v 2.148640 7.392712 -0.491470
v 2.267643 7.215006 -0.540039
v 2.267643 7.328143 -0.426902
v 2.051895 7.150220 -0.464529
v 2.051895 7.263357 -0.351392
v 2.170898 7.085651 -0.399961
v 2.170898 7.198788 -0.286824
v -2.148640 7.279575 -0.604608
v -2.550570 7.468810 -0.680706
v -2.148640 7.392712 -0.491470
v -2.267643 7.215006 -0.540039
v -2.267643 7.328143 -0.426902
v -2.058360 7.156178 -0.469295
v -2.058360 7.269315 -0.356158
v -2.177363 7.091609 -0.404727
v -2.177363 7.204746 -0.291590
v 2.148640 6.214055 0.604607
v 2.550570 6.024819 0.680705
v 2.148640 6.100918 0.491469
v 2.267643 6.278624 0.540038
v 2.267643 6.165486 0.426901
v 2.051895 6.343410 0.464528
v 2.051895 6.230272 0.351391
v 2.170898 6.407978 0.399960
v 2.170898 6.294841 0.286823
v -2.148640 6.214055 0.604607
v -2.550570 6.024819 0.680705
v -2.148640 6.100918 0.491469
v -2.267643 6.278624 0.540038
v -2.267643 6.165486 0.426901
v -2.058360 6.337452 0.469294
v -2.058360 6.224315 0.356157
v -2.177363 6.402020 0.404726
v -2.177363 6.288884 0.291589
v 2.148640 6.214055 -0.604607
v 2.550570 6.024819 -0.680705
v 2.148640 6.100918 -0.491469
v 2.267643 6.278624 -0.540038
v 2.267643 6.165486 -0.426901
v 2.051895 6.343410 -0.464528
v 2.051895 6.230272 -0.351391
v 2.170898 6.407978 -0.399960
v 2.170898 6.294841 -0.286822
v -2.148640 6.214055 -0.604607
v -2.550570 6.024819 -0.680705
v -2.148640 6.100918 -0.491469
v -2.267643 6.278624 -0.540038
v -2.267643 6.165486 -0.426901
v -2.058360 6.337452 -0.469294
v -2.058360 6.224315 -0.356157
v -2.177363 6.402020 -0.404726
v -2.177363 6.288884 -0.291589
vn -0.0000 -1.0000 -0.0000
vn -0.8660 -0.5000 -0.0000
vn 0.8660 -0.5000 -0.0000
vn 0.8660 0.5000 -0.0000
vn 0.7097 0.4098 -0.5731
vn 0.7097 0.4097 -0.5731
vn 0.5721 0.3303 0.7507
vn 0.7097 -0.4097 -0.5731
vn 0.5721 -0.3303 0.7507
vn -0.0000 -0.8195 -0.5731
vn -0.0000 -0.6606 0.7507
vn -0.7097 -0.4098 -0.5731
vn -0.5721 -0.3303 0.7507
vn 0.5944 -0.0000 -0.8042
vn 0.5944 -0.5686 -0.5686
vn 0.5944 -0.8042 -0.0000
vn 0.5944 -0.5686 0.5686
vn 0.5944 -0.0000 0.8042
vn 0.5944 0.5686 0.5686
vn 0.5944 0.8042 -0.0000
vn 0.5944 0.5686 -0.5686
vn -0.0000 0.7071 -0.7071
vn -0.0000 0.7071 0.7071
vn -0.0000 -0.7071 0.7071
vn -0.0000 -0.7071 -0.7071
vn -0.5758 0.5574 -0.5981
vn -0.5544 0.5787 -0.5982
vn -0.5342 0.5978 -0.5978
vn -0.5758 0.5574 0.5981
vn -0.5544 0.5786 0.5982
vn -0.5894 0.5434 0.5977
vn -0.5758 -0.5574 0.5981
vn -0.5544 -0.5787 0.5982
vn -0.5342 -0.5978 0.5978
vn -0.5758 -0.5574 -0.5981
vn -0.5545 -0.5786 -0.5982
vn -0.5894 -0.5434 -0.5977
vn -0.6410 0.7675 -0.0000
vn -0.4803 -0.0000 0.8771
vn -0.6410 -0.7675 -0.0000
vn -0.4803 -0.0000 -0.8771
vn 0.6461 0.5220 0.5569
vn 0.6424 0.5219 0.5612
vn 0.6740 0.5224 0.5224
vn 0.9766 -0.0000 -0.2149
vn 0.9786 -0.1384 -0.1522
vn 0.9806 -0.1961 -0.0000
vn 0.9786 -0.1384 0.1522
vn 0.9766 -0.0000 0.2149
vn 0.9786 0.1384 0.1522
vn 0.9806 0.1961 -0.0000
vn 0.9786 0.1384 -0.1522
vn 0.6374 -0.5448 0.5448
vn 0.6374 -0.5448 -0.5448
vn 0.6523 0.7580 -0.0000
vn 0.6161 -0.0000 0.7876
vn 0.6523 -0.7580 -0.0000
vn 0.6162 -0.0000 -0.7876
vn 0.6374 0.5448 0.5448
vn -0.0000 -0.0000 -1.0000
vn -0.0000 0.6934 -0.7206
vn -0.0000 -0.0000 1.0000
vn -0.0000 -0.6934 -0.7206
vn -0.0000 1.0000 -0.0000
vn -0.0288 -0.7068 -0.7068
vn -0.0000 -0.7185 -0.6956
vn -0.5944 -0.0000 -0.8042
vn -0.5944 -0.5686 -0.5686
vn -0.5944 -0.8042 -0.0000
vn -0.5944 -0.5686 0.5686
vn -0.5944 -0.0000 0.8042
vn -0.5944 0.5686 0.5686
vn -0.5944 0.8042 -0.0000
vn -0.5944 0.5686 -0.5686
vn 0.5544 0.5786 -0.5982
vn 0.5758 0.5574 -0.5981
vn 0.5342 0.5978 -0.5978
vn 0.5758 0.5574 0.5981
vn 0.5544 0.5787 0.5982
vn 0.5342 0.5978 0.5978
vn 0.5545 -0.5786 0.5982
vn 0.5758 -0.5574 0.5981
vn 0.5342 -0.5978 0.5978
vn 0.5758 -0.5574 -0.5981
vn 0.5544 -0.5787 -0.5982
vn 0.5342 -0.5978 -0.5978
vn 0.6410 0.7675 -0.0000
vn 0.4803 -0.0000 0.8771
vn 0.6410 -0.7675 -0.0000
vn 0.4803 -0.0000 -0.8771
vn -0.9766 -0.0000 -0.2149
vn -0.9786 -0.1384 -0.1522
vn -0.9806 -0.1961 -0.0000
vn -0.9786 -0.1384 0.1522
vn -0.9766 -0.0000 0.2149
vn -0.9786 0.1384 0.1522
vn -0.9806 0.1961 -0.0000
vn -0.9786 0.1384 -0.1522
vn -0.6523 0.7580 -0.0000
vn -0.6161 -0.0000 0.7876
vn -0.6523 -0.7580 -0.0000
vn -0.6162 -0.0000 -0.7876
vn -0.0288 0.7068 -0.7068
vn -0.0000 0.7185 -0.6956
vn 0.0361 0.7066 -0.7066
vn -0.0361 0.7066 -0.7066
vn 0.0288 0.7068 -0.7068
vn 0.0361 -0.7066 -0.7066
vn -0.0000 0.6933 0.7206
vn -0.0288 0.7068 0.7068
vn 0.0361 0.7066 0.7066
vn -0.0000 0.7185 0.6956
vn 0.0361 -0.7066 0.7066
vn -0.0000 -0.6934 0.7206
vn -0.0000 -0.7185 0.6956
vn -0.0288 -0.7068 0.7068
vn -0.0361 0.7066 0.7066
vn 0.0288 0.7068 0.7068
vn 0.0288 -0.7068 -0.7068
vn -0.0361 -0.7066 -0.7066
vn -0.0361 -0.7066 0.7066
vn 0.0288 -0.7068 0.7068
vn 0.6460 -0.5220 -0.5569
vn 0.6423 -0.5219 -0.5613
vn 0.6740 -0.5224 -0.5224
vn 0.6271 -0.5174 -0.5823
vn 0.6340 -0.5015 -0.5887
vn 0.6087 -0.5567 -0.5653
vn 0.6278 -0.5134 -0.5851
vn 0.6204 -0.5062 -0.5991
vn 0.6061 -0.4922 -0.6248
vn 0.6205 -0.5062 0.5990
vn 0.6278 -0.5134 0.5851
vn 0.6061 -0.4922 0.6248
vn 0.6423 -0.5219 0.5613
vn 0.6460 -0.5220 0.5569
vn 0.6740 -0.5224 0.5224
vn 0.6340 -0.5015 0.5887
vn 0.6271 -0.5173 0.5823
vn 0.6087 -0.5567 0.5653
vn 0.6278 0.5134 0.5851
vn 0.6204 0.5062 0.5991
vn 0.6061 0.4922 0.6248
vn 0.6271 0.5174 0.5823
vn 0.6338 0.5019 0.5885
vn 0.6087 0.5567 0.5653
vn 0.6460 0.5220 -0.5569
vn 0.6423 0.5219 -0.5613
vn 0.6318 0.5214 -0.5736
vn 0.6278 0.5134 -0.5850
vn 0.6205 0.5062 -0.5989
vn 0.6323 0.5179 -0.5761
vn 0.6271 0.5173 -0.5823
vn 0.6340 0.5015 -0.5887
vn 0.6387 0.4903 -0.5930
vn 0.6374 0.5448 -0.5448
vn -0.6166 0.5384 -0.5744
vn -0.6127 0.5382 -0.5788
vn -0.6462 0.5396 -0.5396
vn -0.6317 0.4718 -0.6152
vn -0.6402 0.4497 -0.6229
vn -0.6081 0.5272 -0.5935
vn -0.6467 0.5393 -0.5393
vn -0.6434 0.5578 -0.5243
vn -0.6317 0.5460 -0.5503
vn -0.6079 0.5224 -0.5980
vn -0.6467 0.5393 0.5393
vn -0.6434 0.5578 0.5242
vn -0.6318 0.5461 0.5501
vn -0.6507 0.5652 0.5072
vn -0.6317 0.4717 0.6152
vn -0.6402 0.4495 0.6229
vn -0.6460 0.4337 0.6282
vn -0.6166 0.5384 0.5744
vn -0.6126 0.5382 0.5789
vn -0.6015 0.5374 0.5911
vn -0.6467 -0.5393 0.5393
vn -0.6467 -0.5393 -0.5393
vn -0.6317 -0.4717 -0.6152
vn -0.6402 -0.4495 -0.6229
vn -0.6460 -0.4337 -0.6282
vn -0.6166 -0.5384 -0.5744
vn -0.6126 -0.5382 -0.5789
vn -0.6015 -0.5374 -0.5911
vn -0.6434 -0.5578 -0.5242
vn -0.6318 -0.5461 -0.5501
vn -0.6507 -0.5652 -0.5072
vn -0.6317 -0.5460 0.5503
vn -0.6434 -0.5578 0.5242
vn -0.6507 -0.5652 0.5072
vn -0.6126 -0.5382 0.5789
vn -0.6166 -0.5384 0.5744
vn -0.6015 -0.5374 0.5911
vn -0.6402 -0.4495 0.6229
vn -0.6317 -0.4718 0.6152
vn -0.6460 -0.4337 0.6282
vn -0.7097 -0.4097 -0.5731
vn -0.5894 0.5434 -0.5977
vn -0.5342 0.5978 0.5978
vn -0.5894 -0.5434 0.5977
vn -0.5342 -0.5978 -0.5978
vn 0.6318 0.5214 0.5736
vn 0.5894 0.5434 -0.5977
vn 0.5894 0.5434 0.5977
vn 0.5894 -0.5434 0.5977
vn 0.5894 -0.5434 -0.5977
vn 0.6318 -0.5214 -0.5736
vn 0.6387 -0.4903 -0.5930
vn 0.6323 -0.5179 -0.5761
vn 0.6323 -0.5179 0.5761
vn 0.6318 -0.5214 0.5736
vn 0.6387 -0.4903 0.5930
vn 0.6323 0.5179 0.5761
vn 0.6387 0.4903 0.5930
vn 0.6740 0.5224 -0.5224
vn 0.6061 0.4922 -0.6248
vn 0.6087 0.5567 -0.5653
vn -0.6015 0.5374 -0.5911
vn -0.6460 0.4337 -0.6282
vn -0.6434 0.5578 -0.5242
vn -0.6507 0.5652 -0.5072
vn -0.6079 0.5224 0.5980
vn -0.6081 0.5272 0.5935
vn -0.6462 0.5396 0.5396
vn -0.6081 -0.5272 -0.5935
vn -0.6462 -0.5396 -0.5396
vn -0.6079 -0.5224 -0.5980
vn -0.6079 -0.5224 0.5980
vn -0.6434 -0.5578 0.5243
vn -0.6462 -0.5396 0.5396
vn -0.6081 -0.5272 0.5935
vn -0.8660 0.5000 -0.0000
vn -0.7097 0.4098 -0.5731
vn -0.5721 0.3303 0.7507
vn -0.0000 0.8195 -0.5731
vn -0.0000 0.6606 0.7507
vn -0.9653 -0.2612 -0.0000
vn -0.9653 0.1847 0.1847
vn -0.9653 -0.1847 0.1847
vn -0.9653 0.2612 -0.0000
vn -0.9653 -0.1847 -0.1847
vn -0.9653 -0.0000 0.2612
vn -0.9653 0.1847 -0.1847
vn -0.9653 -0.0000 -0.2612
vn 0.9653 -0.2612 -0.0000
vn 0.9653 0.1847 0.1847
vn 0.9653 -0.1847 0.1847
vn 0.9653 0.2612 -0.0000
vn 0.9653 -0.1847 -0.1847
vn 0.9653 -0.0000 0.2612
vn 0.9653 0.1847 -0.1847
vn 0.9653 -0.0000 -0.2612
vn 0.6296 -0.0000 0.7769
vn 0.8661 0.4999 0.0001
vn 1.0000 -0.0000 -0.0000
vn 0.5927 -0.8051 -0.0235
vn 0.4800 0.0164 -0.8771
vn -0.5927 -0.8051 -0.0235
vn -1.0000 -0.0000 -0.0000
vn -0.4800 0.0164 -0.8771
vn -0.0000 0.7405 -0.6721
vn -0.9578 0.2032 0.2032
vn -0.0000 0.8805 -0.4741
vn 0.9578 0.2032 0.2032
vn -0.0000 -0.4741 0.8805
vn -0.0000 -0.7405 0.6721
vn 0.5927 -0.8051 0.0235
vn 0.4800 0.0164 0.8771
vn -0.5927 -0.8051 0.0235
vn -0.4800 0.0164 0.8771
vn -0.0000 0.7405 0.6721
vn -0.9578 0.2032 -0.2032
vn -0.0000 0.8805 0.4741
vn 0.9578 0.2032 -0.2032
vn -0.0000 -0.4741 -0.8805
vn -0.0000 -0.7405 -0.6721
vn 0.5927 0.8051 -0.0235
vn 0.4800 -0.0164 -0.8771
vn -0.5927 0.8051 -0.0235
vn -0.4800 -0.0164 -0.8771
vn -0.9578 -0.2032 0.2032
vn -0.0000 -0.8805 -0.4741
vn 0.9578 -0.2032 0.2032
vn -0.0000 0.4741 0.8805
vn 0.5927 0.8051 0.0235
vn 0.4800 -0.0164 0.8771
vn -0.5927 0.8051 0.0235
vn -0.4800 -0.0164 0.8771
vn -0.9578 -0.2032 -0.2032
vn -0.0000 -0.8805 0.4741
vn 0.9578 -0.2032 -0.2032
vn -0.0000 0.4741 -0.8805
vn -0.2055 -0.0000 0.9787
vn -0.2251 -0.9743 -0.0000
vn -0.2250 -0.9743 -0.0000
vn -0.2055 -0.0000 -0.9787
vn -0.2146 0.6570 -0.7227
vn -0.2146 0.6570 0.7227
vn -0.2146 -0.6570 0.7227
vn -0.2146 -0.6570 -0.7227
vn -0.2250 0.9743 -0.0000
vn 0.2055 -0.0000 0.9787
vn 0.2251 -0.9743 -0.0000
vn 0.2055 -0.0000 -0.9787
vn 0.2146 0.6570 -0.7227
vn 0.2146 0.6570 0.7227
vn 0.2146 -0.6570 0.7227
vn 0.2146 -0.6570 -0.7227
vn 0.2250 0.9743 -0.0000
vn -0.4230 0.6407 0.6407
vn 0.1213 0.8047 -0.5812
vn 0.7021 -0.5035 -0.5035
vn 0.1213 -0.5812 0.8047
vn 0.8916 -0.3202 -0.3202
vn 0.1826 -0.9543 -0.2367
vn 0.1403 -0.1176 -0.9831
vn -0.7209 0.2859 -0.6314
vn -0.7803 -0.5231 0.3428
vn -0.0220 -0.7269 0.6864
vn 0.0220 0.7269 -0.6864
vn -0.8916 0.3202 0.3202
vn 0.4230 0.6407 0.6407
vn -0.1213 0.8047 -0.5812
vn -0.7021 -0.5035 -0.5035
vn -0.1213 -0.5812 0.8047
vn -0.8967 -0.3129 -0.3129
vn -0.1869 -0.9529 -0.2388
vn 0.7178 0.2862 -0.6347
vn -0.1440 -0.1159 -0.9828
vn 0.0256 -0.7301 0.6829
vn 0.7807 -0.5266 0.3365
vn -0.0256 0.7301 -0.6829
vn 0.8967 0.3129 0.3129
vn -0.4230 0.6407 -0.6407
vn 0.1213 0.8047 0.5812
vn 0.7021 -0.5035 0.5035
vn 0.1213 -0.5812 -0.8047
vn 0.8916 -0.3202 0.3202
vn 0.1826 -0.9543 0.2367
vn -0.7209 0.2859 0.6314
vn 0.1403 -0.1176 0.9831
vn -0.0220 -0.7269 -0.6864
vn -0.7803 -0.5231 -0.3428
vn 0.0220 0.7269 0.6864
vn -0.8916 0.3202 -0.3202
vn 0.4230 0.6407 -0.6407
vn -0.1213 0.8047 0.5812
vn -0.7021 -0.5035 0.5035
vn -0.1213 -0.5812 -0.8047
vn -0.8967 -0.3129 0.3129
vn -0.1869 -0.9529 0.2388
vn -0.1440 -0.1159 0.9828
vn 0.7178 0.2862 0.6347
vn 0.7807 -0.5266 -0.3365
vn 0.0256 -0.7301 -0.6829
vn -0.0256 0.7301 0.6829
vn 0.8967 0.3129 -0.3129
vn -0.4230 -0.6407 0.6407
vn 0.1213 -0.8047 -0.5812
vn 0.7021 0.5035 -0.5035
vn 0.1213 0.5812 0.8047
vn 0.8916 0.3202 -0.3202
vn 0.1826 0.9543 -0.2367
vn -0.7209 -0.2859 -0.6314
vn 0.1403 0.1176 -0.9831
vn -0.0220 0.7269 0.6864
vn -0.7803 0.5231 0.3428
vn 0.0220 -0.7269 -0.6864
vn -0.8916 -0.3202 0.3202
vn 0.4230 -0.6407 0.6407
vn -0.1213 -0.8047 -0.5812
vn -0.7021 0.5035 -0.5035
vn -0.1213 0.5812 0.8047
vn -0.8967 0.3129 -0.3129
vn -0.1869 0.9529 -0.2388
vn -0.1440 0.1159 -0.9828
vn 0.7178 -0.2862 -0.6347
vn 0.7807 0.5266 0.3365
vn 0.0256 0.7301 0.6829
vn -0.0256 -0.7301 -0.6829
vn 0.8967 -0.3129 0.3129
vn -0.4230 -0.6407 -0.6407
vn 0.1213 -0.8047 0.5812
vn 0.7021 0.5035 0.5035
vn 0.1213 0.5812 -0.8047
vn 0.8916 0.3202 0.3202
vn 0.1826 0.9543 0.2367
vn 0.1403 0.1176 0.9831
vn -0.7208 -0.2859 0.6314
vn -0.7803 0.5231 -0.3428
vn -0.0220 0.7269 -0.6864
vn 0.0220 -0.7269 0.6864
vn -0.8916 -0.3202 -0.3202
vn 0.4230 -0.6407 -0.6407
vn -0.1213 -0.8047 0.5812
vn -0.7021 0.5035 0.5035
vn -0.1213 0.5812 -0.8047
vn -0.8967 0.3129 0.3129
vn -0.1869 0.9529 0.2388
vn 0.7178 -0.2862 0.6347
vn -0.1440 0.1159 0.9828
vn 0.0256 0.7301 -0.6829
vn 0.7807 0.5266 -0.3365
vn -0.0256 -0.7301 0.6829
vn 0.8967 -0.3129 -0.3129
vt 0.008215 0.179941
vt 0.042868 0.362912
vt 0.008215 0.362912
vt 0.838300 0.022580
vt 0.868310 0.124187
vt 0.838300 0.137657
vt 0.846713 0.649829
vt 0.745735 0.656315
vt 0.739353 0.623900
vt 0.698877 0.225752
vt 0.718291 0.393175
vt 0.683847 0.389508
vt 0.688275 0.410003
vt 0.867186 0.623900
vt 0.863014 0.653766
vt 0.733321 0.408014
vt 0.709461 0.412258
vt 0.866940 0.673704
vt 0.853095 0.682244
vt 0.014884 0.379430
vt 0.036199 0.169776
vt 0.042868 0.179941
vt 0.849851 0.153231
vt 0.145148 0.481584
vt 0.160528 0.466807
vt 0.160528 0.478364
vt 0.151559 0.598539
vt 0.221638 0.585771
vt 0.160185 0.633487
vt 0.098288 0.410655
vt 0.137101 0.378678
vt 0.120427 0.438928
vt 0.111627 0.362455
vt 0.160680 0.293472
vt 0.629188 0.299157
vt 0.627360 0.370512
vt 0.591452 0.361672
vt 0.591452 0.450080
vt 0.627360 0.441240
vt 0.629188 0.512595
vt 0.030029 0.560366
vt 0.071805 0.633487
vt 0.008271 0.585771
vt 0.069988 0.693189
vt 0.158368 0.693189
vt 0.555569 0.583782
vt 0.647023 0.628105
vt 0.560851 0.645612
vt 0.266416 0.257868
vt 0.249742 0.318118
vt 0.226162 0.403324
vt 0.209489 0.463574
vt 0.528100 0.496463
vt 0.450956 0.456808
vt 0.494680 0.443326
vt 0.443421 0.545969
vt 0.522386 0.590313
vt 0.425761 0.593771
vt 0.842772 0.510695
vt 0.803798 0.436214
vt 0.842772 0.457557
vt 0.528100 0.315041
vt 0.450956 0.354696
vt 0.492240 0.282492
vt 0.355937 0.544869
vt 0.386897 0.506382
vt 0.567342 0.506382
vt 0.518164 0.545969
vt 0.803798 0.594683
vt 0.803798 0.501854
vt 0.494680 0.368179
vt 0.727969 0.868220
vt 0.766476 0.838886
vt 0.763111 0.853776
vt 0.320585 0.135911
vt 0.395127 0.103563
vt 0.389325 0.132128
vt 0.257384 0.169498
vt 0.303264 0.108617
vt 0.306444 0.242110
vt 0.286255 0.181466
vt 0.798599 0.750889
vt 0.871959 0.700610
vt 0.858811 0.732029
vt 0.744402 0.807301
vt 0.791491 0.725814
vt 0.438065 0.278534
vt 0.506143 0.238339
vt 0.460263 0.299219
vt 0.472396 0.232979
vt 0.479162 0.157295
vt 0.452207 0.172335
vt 0.871959 0.875607
vt 0.837025 0.787770
vt 0.851768 0.783812
vt 0.923036 0.123615
vt 0.869032 0.182795
vt 0.856600 0.178767
vt 0.337213 0.264296
vt 0.923036 0.238968
vt 0.855383 0.217046
vt 0.779428 0.859109
vt 0.782793 0.844220
vt 0.861856 0.498417
vt 0.901146 0.569144
vt 0.861856 0.569144
vt 0.131416 0.590015
vt 0.152553 0.565890
vt 0.667650 0.441240
vt 0.088902 0.393360
vt 0.049582 0.397176
vt 0.063853 0.386428
vt 0.082419 0.862593
vt 0.138112 0.849502
vt 0.144110 0.882904
vt 0.093804 0.375648
vt 0.062921 0.348976
vt 0.068755 0.368716
vt 0.081785 0.280811
vt 0.130491 0.294290
vt 0.337893 0.608903
vt 0.258325 0.644778
vt 0.249485 0.608903
vt 0.400408 0.648221
vt 0.329053 0.644778
vt 0.256352 0.402506
vt 0.288555 0.286141
vt 0.275216 0.334341
vt 0.537790 0.724200
vt 0.513425 0.702772
vt 0.575730 0.678472
vt 0.721464 0.660505
vt 0.644668 0.664466
vt 0.186970 0.648221
vt 0.208314 0.676233
vt 0.641741 0.566275
vt 0.501027 0.172550
vt 0.545003 0.092227
vt 0.545003 0.167349
vt 0.243814 0.467575
vt 0.204159 0.543606
vt 0.190677 0.499650
vt 0.102047 0.543606
vt 0.062392 0.467575
vt 0.115529 0.499650
vt 0.800150 0.275762
vt 0.839123 0.350243
vt 0.800150 0.328899
vt 0.497485 0.075189
vt 0.585562 0.038223
vt 0.800150 0.200614
vt 0.839123 0.284603
vt 0.585562 0.219585
vt 0.419778 0.725587
vt 0.470036 0.805331
vt 0.413379 0.751391
vt 0.519892 0.879255
vt 0.488292 0.866378
vt 0.199144 0.063932
vt 0.249314 0.136831
vt 0.221718 0.125212
vt 0.191326 0.171835
vt 0.121092 0.205358
vt 0.125772 0.176490
vt 0.037813 0.151848
vt 0.063456 0.136449
vt 0.040882 0.075168
vt 0.007645 0.069952
vt 0.071273 0.028545
vt 0.180007 0.044892
vt 0.865187 0.369595
vt 0.904794 0.477935
vt 0.809174 0.413413
vt 0.345653 0.879255
vt 0.329053 0.684068
vt 0.860855 0.319232
vt 0.901146 0.248505
vt 0.901146 0.319232
vt 0.105434 0.590015
vt 0.080856 0.598539
vt 0.707109 0.724200
vt 0.704221 0.690387
vt 0.081850 0.565889
vt 0.105945 0.573224
vt 0.323922 0.347820
vt 0.517778 0.450080
vt 0.540801 0.435887
vt 0.540801 0.375865
vt 0.517778 0.361672
vt 0.568429 0.375865
vt 0.337893 0.537059
vt 0.323700 0.586452
vt 0.249485 0.537059
vt 0.293689 0.546040
vt 0.263678 0.559510
vt 0.287606 0.709796
vt 0.307293 0.733321
vt 0.287095 0.726587
vt 0.236589 0.733321
vt 0.261624 0.709796
vt 0.261113 0.726588
vt 0.308287 0.700672
vt 0.032787 0.867737
vt 0.009071 0.849502
vt 0.029703 0.850559
vt 0.057537 0.860273
vt 0.015069 0.882904
vt 0.054452 0.843095
vt 0.076421 0.829191
vt 0.095124 0.232611
vt 0.096937 0.266879
vt 0.126887 0.256099
vt 0.143829 0.246090
vt 0.121986 0.273811
vt 0.596335 0.683284
vt 0.578619 0.712285
vt 0.623153 0.695527
vt 0.647557 0.698279
vt 0.621668 0.678137
vt 0.305058 0.415985
vt 0.264857 0.422985
vt 0.243013 0.450706
vt 0.259955 0.440697
vt 0.291719 0.464185
vt 0.289906 0.429917
vt 0.293039 0.321148
vt 0.318088 0.328080
vt 0.337260 0.299620
vt 0.322989 0.310368
vt 0.297941 0.303436
vt 0.966816 0.661801
vt 0.937612 0.659394
vt 0.946502 0.649814
vt 0.932610 0.698661
vt 0.932610 0.644576
vt 0.594683 0.485788
vt 0.594683 0.516243
vt 0.586600 0.496701
vt 0.845785 0.767721
vt 0.831043 0.771680
vt 0.396195 0.171198
vt 0.401677 0.195580
vt 0.386484 0.185068
vt 0.351508 0.736156
vt 0.380987 0.773563
vt 0.365854 0.770505
vt 0.375785 0.789843
vt 0.360653 0.786785
vt 0.129425 0.123929
vt 0.114325 0.113445
vt 0.119441 0.137727
vt 0.886837 0.400316
vt 0.897131 0.392264
vt 0.433477 0.844768
vt 0.437275 0.859732
vt 0.449482 0.838773
vt 0.894535 0.376842
vt 0.904794 0.338611
vt 0.196176 0.119190
vt 0.868310 0.009109
vt 0.733321 0.229419
vt 0.875607 0.637817
vt 0.718707 0.421386
vt 0.036199 0.379430
vt 0.014884 0.169776
vt 0.868310 0.144945
vt 0.145148 0.462795
vt 0.200722 0.560366
vt 0.657548 0.320501
vt 0.657548 0.491251
vt 0.177354 0.233222
vt 0.492240 0.529013
vt 0.589211 0.536521
vt 0.842772 0.585842
vt 0.284364 0.250541
vt 0.719063 0.801203
vt 0.901146 0.498417
vt 0.131927 0.573224
vt 0.667650 0.370512
vt 0.379064 0.676233
vt 0.716182 0.598676
vt 0.276363 0.503984
vt 0.029843 0.503984
vt 0.547587 0.008478
vt 0.839123 0.191773
vt 0.556140 0.243528
vt 0.495495 0.797671
vt 0.219146 0.054936
vt 0.208699 0.199138
vt 0.048261 0.007645
vt 0.258325 0.684068
vt 0.860855 0.248505
vt 0.582243 0.405876
vt 0.540275 0.377007
vt 0.526987 0.405876
vt 0.568429 0.435887
vt 0.264820 0.586965
vt 0.293689 0.599923
vt 0.323700 0.559510
vt 0.322558 0.558998
vt 0.263678 0.586452
vt 0.237583 0.700672
vt 0.101839 0.249167
vt 0.597821 0.700674
vt 0.285004 0.447629
vt 0.317699 0.188853
vt 0.411389 0.181710
vt 0.104341 0.127243
vt 0.453280 0.853737
vt 0.884242 0.384894
vt 0.767577 0.605628
vt 0.788046 0.426536
vt 0.788046 0.594559
vt 0.733127 0.436123
vt 0.733127 0.604145
vt 0.600293 0.933279
vt 0.631167 0.939389
vt 0.615730 0.966816
vt 0.581113 0.293771
vt 0.556718 0.312709
vt 0.548217 0.293771
vt 0.767577 0.437606
vt 0.741005 0.422528
vt 0.762196 0.423440
vt 0.047522 0.441452
vt 0.067495 0.425438
vt 0.067495 0.439215
vt 0.774786 0.416631
vt 0.570290 0.342946
vt 0.543270 0.327828
vt 0.576952 0.312709
vt 0.407526 0.332442
vt 0.449486 0.315997
vt 0.450573 0.321228
vt 0.533657 0.744575
vt 0.586794 0.773453
vt 0.533657 0.773453
vt 0.394275 0.696718
vt 0.464636 0.714011
vt 0.461284 0.718124
vt 0.338847 0.718124
vt 0.322458 0.768921
vt 0.334546 0.714011
vt 0.506433 0.768921
vt 0.500623 0.769804
vt 0.389696 0.388768
vt 0.403750 0.327912
vt 0.393438 0.691266
vt 0.407527 0.457210
vt 0.449486 0.503474
vt 0.403750 0.460478
vt 0.384805 0.387758
vt 0.715079 0.744575
vt 0.661942 0.773453
vt 0.661942 0.744575
vt 0.514419 0.751249
vt 0.677462 0.461162
vt 0.700486 0.536309
vt 0.677462 0.536309
vt 0.586794 0.744575
vt 0.382024 0.466138
vt 0.363079 0.393418
vt 0.444685 0.041057
vt 0.463342 0.116748
vt 0.444685 0.116180
vt 0.472622 0.696339
vt 0.177928 0.666764
vt 0.211828 0.720918
vt 0.174981 0.669121
vt 0.751872 0.218074
vt 0.780750 0.271211
vt 0.751872 0.271211
vt 0.028054 0.721798
vt 0.049183 0.669121
vt 0.033923 0.720918
vt 0.112311 0.731746
vt 0.051896 0.718296
vt 0.056470 0.714590
vt 0.070770 0.772715
vt 0.217078 0.721798
vt 0.196568 0.772715
vt 0.184130 0.718296
vt 0.180926 0.714590
vt 0.138140 0.794170
vt 0.067204 0.776832
vt 0.200864 0.776833
vt 0.780750 0.346358
vt 0.751872 0.399496
vt 0.751872 0.346358
vt 0.397600 0.608741
vt 0.466574 0.649409
vt 0.401027 0.627828
vt 0.189715 0.740631
vt 0.111227 0.736524
vt 0.008560 0.399140
vt 0.031011 0.474287
vt 0.008560 0.474287
vt 0.132581 0.817233
vt 0.138784 0.799628
vt 0.463147 0.630322
vt 0.538134 0.627828
vt 0.654180 0.823706
vt 0.533411 0.853717
vt 0.519940 0.823706
vt 0.707782 0.205667
vt 0.674643 0.204240
vt 0.673332 0.008183
vt 0.673332 0.204184
vt 0.652863 0.019253
vt 0.758859 0.008833
vt 0.724225 0.200157
vt 0.724225 0.008330
vt 0.320530 0.867168
vt 0.192218 0.868310
vt 0.178404 0.838299
vt 0.601986 0.221638
vt 0.636639 0.008200
vt 0.636639 0.221638
vt 0.600293 0.953600
vt 0.615730 0.926173
vt 0.631167 0.959710
vt 0.047522 0.419053
vt 0.583738 0.327828
vt 0.550056 0.342946
vt 0.327470 0.769804
vt 0.450573 0.497677
vt 0.715079 0.773453
vt 0.700486 0.461162
vt 0.463342 0.041625
vt 0.401424 0.673595
vt 0.780750 0.218074
vt 0.044267 0.666764
vt 0.780750 0.399496
vt 0.116812 0.758859
vt 0.031011 0.399140
vt 0.061001 0.794437
vt 0.534706 0.608741
vt 0.667650 0.853717
vt 0.707782 0.009666
vt 0.652863 0.215253
vt 0.009121 0.492469
vt 0.009121 0.524112
vt 0.009121 0.525364
vt 0.758859 0.200660
vt 0.307242 0.838299
vt 0.321056 0.868310
vt 0.601986 0.008200
vt 0.938651 0.486205
vt 0.933437 0.480996
vt 0.939821 0.482002
vt 0.844853 0.925753
vt 0.864662 0.950948
vt 0.844853 0.952113
vt 0.919390 0.534112
vt 0.944926 0.518276
vt 0.944926 0.538134
vt 0.948123 0.293693
vt 0.974113 0.275315
vt 0.974113 0.293693
vt 0.828055 0.925862
vt 0.828055 0.952223
vt 0.919390 0.514255
vt 0.932267 0.485200
vt 0.844782 0.892902
vt 0.840583 0.892930
vt 0.883314 0.958000
vt 0.904778 0.988706
vt 0.883314 0.988399
vt 0.891420 0.953681
vt 0.888680 0.958077
vt 0.948123 0.255795
vt 0.948123 0.275315
vt 0.932267 0.891993
vt 0.939821 0.888794
vt 0.938651 0.892998
vt 0.919390 0.940905
vt 0.944926 0.925069
vt 0.944926 0.944926
vt 0.131341 0.947300
vt 0.111533 0.922105
vt 0.131341 0.920939
vt 0.493902 0.952087
vt 0.519892 0.970464
vt 0.493902 0.970464
vt 0.094734 0.948574
vt 0.111533 0.948465
vt 0.560008 0.992355
vt 0.538543 0.961648
vt 0.543909 0.961725
vt 0.107262 0.889281
vt 0.111462 0.889254
vt 0.919390 0.921048
vt 0.570969 0.974770
vt 0.546650 0.957329
vt 0.519892 0.932567
vt 0.519892 0.952087
vt 0.940221 0.845897
vt 0.933265 0.849517
vt 0.933749 0.845345
vt 0.952223 0.795543
vt 0.926335 0.813506
vt 0.926335 0.793336
vt 0.244241 0.887039
vt 0.263525 0.910837
vt 0.244241 0.913332
vt 0.974113 0.381800
vt 0.948123 0.363422
vt 0.974113 0.363422
vt 0.280924 0.885922
vt 0.263526 0.884544
vt 0.966998 0.472155
vt 0.988706 0.502736
vt 0.983279 0.502810
vt 0.268336 0.944926
vt 0.263986 0.944581
vt 0.952223 0.815713
vt 0.956475 0.489404
vt 0.980648 0.507122
vt 0.948123 0.401320
vt 0.948123 0.381800
vt 0.674715 0.954796
vt 0.680704 0.959519
vt 0.674232 0.958968
vt 0.467834 0.910837
vt 0.448549 0.887039
vt 0.467834 0.884544
vt 0.693189 0.904994
vt 0.667301 0.922957
vt 0.667301 0.902787
vt 0.974113 0.571379
vt 0.948123 0.589756
vt 0.948123 0.571379
vt 0.485232 0.912216
vt 0.485232 0.885922
vt 0.693189 0.925164
vt 0.681187 0.955348
vt 0.468294 0.944581
vt 0.472644 0.944926
vt 0.302814 0.783660
vt 0.281106 0.753079
vt 0.302814 0.752782
vt 0.294756 0.788046
vt 0.297387 0.783734
vt 0.974113 0.609276
vt 0.974113 0.589756
vt 0.421560 0.916486
vt 0.428057 0.921081
vt 0.421560 0.921081
vt 0.220297 0.963798
vt 0.245207 0.944502
vt 0.246264 0.964644
vt 0.316427 0.942431
vt 0.297142 0.918633
vt 0.316427 0.916137
vt 0.219239 0.980563
vt 0.245207 0.981410
vt 0.411813 0.970464
vt 0.437803 0.950944
vt 0.437803 0.970464
vt 0.309730 0.885922
vt 0.314551 0.885298
vt 0.985058 0.688021
vt 0.963594 0.718727
vt 0.979692 0.688098
vt 0.976951 0.683702
vt 0.333825 0.917516
vt 0.333825 0.943809
vt 0.950572 0.114792
vt 0.957070 0.110198
vt 0.957070 0.114792
vt 0.718528 0.918633
vt 0.737813 0.942431
vt 0.718528 0.944926
vt 0.948145 0.759489
vt 0.973055 0.740193
vt 0.974113 0.760336
vt 0.973055 0.777101
vt 0.940826 0.144656
vt 0.966816 0.164176
vt 0.940826 0.164176
vt 0.985058 0.954352
vt 0.963594 0.985058
vt 0.979692 0.954429
vt 0.731116 0.885922
vt 0.737813 0.916137
vt 0.952632 0.967473
vt 0.976951 0.950033
vt 0.755211 0.943809
vt 0.957070 0.232549
vt 0.950572 0.237144
vt 0.950572 0.232549
vt 0.808112 0.915350
vt 0.788304 0.890155
vt 0.808112 0.888990
vt 0.978321 0.434606
vt 0.955559 0.454221
vt 0.952470 0.434606
vt 0.954477 0.417268
vt 0.966816 0.202685
vt 0.940826 0.183165
vt 0.966816 0.183165
vt 0.007900 0.980671
vt 0.029609 0.950090
vt 0.013328 0.980745
vt 0.795584 0.948283
vt 0.788304 0.916515
vt 0.040132 0.967340
vt 0.015958 0.985058
vt 0.771505 0.890265
vt 0.960718 0.062022
vt 0.954221 0.057428
vt 0.960718 0.057428
vt 0.978321 0.326979
vt 0.955559 0.346594
vt 0.952471 0.326979
vt 0.376039 0.893804
vt 0.395847 0.918999
vt 0.376039 0.920164
vt 0.980327 0.309642
vt 0.954477 0.309642
vt 0.970464 0.008044
vt 0.944474 0.027564
vt 0.944474 0.008044
vt 0.383319 0.951931
vt 0.378367 0.952223
vt 0.150187 0.987968
vt 0.171895 0.957387
vt 0.155614 0.988042
vt 0.158245 0.992355
vt 0.359240 0.920273
vt 0.359240 0.893913
vt 0.250563 0.016418
vt 0.353891 0.007898
vt 0.352675 0.016418
vt 0.577364 0.262745
vt 0.671299 0.275451
vt 0.576259 0.275451
vt 0.337810 0.424908
vt 0.354231 0.322241
vt 0.365045 0.326495
vt 0.347367 0.505516
vt 0.326348 0.422997
vt 0.777673 0.012411
vt 0.817233 0.103918
vt 0.806458 0.104713
vt 0.511724 0.262745
vt 0.509056 0.275451
vt 0.414683 0.262269
vt 0.424091 0.267917
vt 0.777673 0.184952
vt 0.787763 0.186067
vt 0.375737 0.059286
vt 0.272410 0.047545
vt 0.374522 0.047545
vt 0.514529 0.793582
vt 0.608463 0.806288
vt 0.515634 0.806288
vt 0.353891 0.085737
vt 0.250563 0.077536
vt 0.352676 0.077536
vt 0.157346 0.828178
vt 0.248644 0.787788
vt 0.250042 0.798191
vt 0.449661 0.018720
vt 0.446726 0.007923
vt 0.197271 0.018720
vt 0.200206 0.007923
vt 0.609568 0.793582
vt 0.674103 0.806288
vt 0.328353 0.818489
vt 0.327896 0.828178
vt 0.139101 0.027363
vt 0.092803 0.013093
vt 0.140278 0.009018
vt 0.048515 0.915160
vt 0.074791 0.881705
vt 0.060849 0.921770
vt 0.073772 0.916106
vt 0.496177 0.017412
vt 0.481261 0.047429
vt 0.481261 0.008916
vt 0.074791 0.939262
vt 0.061868 0.944926
vt 0.514419 0.657856
vt 0.499074 0.673255
vt 0.499074 0.656164
vt 0.110319 0.456596
vt 0.125869 0.477935
vt 0.110319 0.476261
vt 0.049534 0.938315
vt 0.163000 0.027363
vt 0.024292 0.798298
vt 0.009026 0.798326
vt 0.027363 0.750765
vt 0.324704 0.482106
vt 0.312816 0.488670
vt 0.311051 0.452838
vt 0.908442 0.677703
vt 0.893097 0.679398
vt 0.893885 0.633266
vt 0.921642 0.599104
vt 0.906558 0.603236
vt 0.933981 0.564755
vt 0.893097 0.702310
vt 0.918897 0.631167
vt 0.924935 0.617603
vt 0.933981 0.627034
vt 0.909851 0.621735
vt 0.322939 0.504206
vt 0.027363 0.820854
vt 0.568301 0.115431
vt 0.583738 0.115201
vt 0.565341 0.162352
vt 0.916812 0.286645
vt 0.928706 0.281029
vt 0.930332 0.319232
vt 0.878716 0.749204
vt 0.893849 0.747200
vt 0.893361 0.793519
vt 0.588731 0.903250
vt 0.603804 0.899080
vt 0.576478 0.937629
vt 0.893849 0.723281
vt 0.591551 0.870265
vt 0.585547 0.883844
vt 0.576478 0.874435
vt 0.600620 0.879674
vt 0.918439 0.262897
vt 0.565341 0.091548
vt 0.755211 0.703736
vt 0.743157 0.749739
vt 0.736757 0.702832
vt 0.224374 0.912207
vt 0.197751 0.944926
vt 0.211218 0.905540
vt 0.240792 0.189591
vt 0.240792 0.233495
vt 0.231064 0.198318
vt 0.078021 0.458820
vt 0.093033 0.429412
vt 0.093033 0.466990
vt 0.197751 0.890817
vt 0.209728 0.883906
vt 0.699881 0.573190
vt 0.715079 0.557451
vt 0.715079 0.574617
vt 0.558199 0.487056
vt 0.542625 0.466842
vt 0.558199 0.468267
vt 0.222884 0.890573
vt 0.755211 0.680842
vt 0.565496 0.908815
vt 0.556426 0.918224
vt 0.538170 0.870265
vt 0.541353 0.914054
vt 0.707782 0.858864
vt 0.689323 0.858079
vt 0.700602 0.812810
vt 0.404645 0.061192
vt 0.419562 0.052696
vt 0.419562 0.091209
vt 0.689323 0.882118
vt 0.645008 0.521042
vt 0.660354 0.536441
vt 0.645008 0.538134
vt 0.985058 0.842071
vt 0.972353 0.857170
vt 0.972353 0.834579
vt 0.553243 0.937629
vt 0.959960 0.840712
vt 0.012098 0.656012
vt 0.009026 0.608478
vt 0.027363 0.656040
vt 0.908308 0.081831
vt 0.926684 0.033918
vt 0.923391 0.077699
vt 0.893097 0.856473
vt 0.907654 0.812035
vt 0.908442 0.858168
vt 0.165995 0.915766
vt 0.159670 0.871788
vt 0.178770 0.912635
vt 0.908442 0.881080
vt 0.893097 0.879384
vt 0.791695 0.702310
vt 0.774763 0.683739
vt 0.791695 0.683834
vt 0.172444 0.934497
vt 0.159670 0.937629
vt 0.911601 0.100330
vt 0.009026 0.678568
vt 0.427547 0.387234
vt 0.430507 0.434155
vt 0.412110 0.387005
vt 0.930333 0.738263
vt 0.912076 0.786222
vt 0.915259 0.742434
vt 0.074791 0.222015
vt 0.060147 0.266330
vt 0.059659 0.220011
vt 0.927640 0.375048
vt 0.933981 0.417738
vt 0.914644 0.378988
vt 0.059659 0.196093
vt 0.074791 0.198097
vt 0.358754 0.579617
vt 0.375781 0.598331
vt 0.358754 0.597999
vt 0.920985 0.356693
vt 0.933981 0.352753
vt 0.927149 0.718858
vt 0.430507 0.363351
vt 0.623810 0.899148
vt 0.632856 0.889716
vt 0.651233 0.937629
vt 0.647940 0.893849
vt 0.886458 0.032117
vt 0.904794 0.033429
vt 0.892063 0.078440
vt 0.813585 0.376732
vt 0.798573 0.384902
vt 0.798573 0.347324
vt 0.904794 0.010672
vt 0.678595 0.244837
vt 0.663397 0.229098
vt 0.678595 0.227671
vt 0.959875 0.904895
vt 0.971877 0.889859
vt 0.971877 0.912091
vt 0.636149 0.871217
vt 0.985058 0.907054
vt 0.864662 0.924588
vt 0.915739 0.971122
vt 0.974113 0.255795
vt 0.933437 0.887789
vt 0.094734 0.922214
vt 0.538543 0.992047
vt 0.493902 0.932567
vt 0.939737 0.850068
vt 0.280924 0.912216
vt 0.988706 0.471858
vt 0.974113 0.401320
vt 0.448549 0.913332
vt 0.270583 0.770328
vt 0.948123 0.609276
vt 0.428057 0.916486
vt 0.219239 0.943655
vt 0.297142 0.944926
vt 0.411813 0.950944
vt 0.985058 0.718420
vt 0.952632 0.701143
vt 0.950572 0.110198
vt 0.947087 0.739347
vt 0.947087 0.776255
vt 0.966816 0.144656
vt 0.985058 0.984750
vt 0.735937 0.885298
vt 0.755211 0.917516
vt 0.957070 0.237144
vt 0.981410 0.454221
vt 0.980327 0.417268
vt 0.940826 0.202685
vt 0.007900 0.949794
vt 0.790632 0.948574
vt 0.771505 0.916625
vt 0.954221 0.062022
vt 0.981410 0.346594
vt 0.395847 0.892639
vt 0.970464 0.027564
vt 0.150187 0.957091
vt 0.182418 0.974637
vt 0.249348 0.007898
vt 0.670194 0.262745
vt 0.358341 0.505508
vt 0.787763 0.009417
vt 0.271194 0.059286
vt 0.249348 0.085737
vt 0.153742 0.818489
vt 0.676771 0.793582
vt 0.514419 0.674947
vt 0.125869 0.458271
vt 0.164176 0.009018
vt 0.908442 0.700615
vt 0.311051 0.510771
vt 0.012098 0.820882
vt 0.878716 0.725286
vt 0.930332 0.257280
vt 0.580778 0.091319
vt 0.199241 0.912451
vt 0.699881 0.556024
vt 0.542625 0.485631
vt 0.736757 0.679939
vt 0.707782 0.882904
vt 0.660354 0.519350
vt 0.985058 0.864662
vt 0.538170 0.933459
vt 0.959960 0.863304
vt 0.774763 0.702215
vt 0.926684 0.096198
vt 0.024291 0.678595
vt 0.375781 0.579949
vt 0.912076 0.723028
vt 0.415070 0.363122
vt 0.886458 0.009360
vt 0.663397 0.246264
vt 0.959875 0.882663
vt 0.651233 0.875350
vt 0.985058 0.884823
s 1
usemtl Material.001
f 12/1/1 14/2/1 10/3/1
f 16/4/2 18/5/2 14/6/2
f 8/7/3 10/8/3 6/9/3
f 4/10/4 6/11/4 2/12/4
f 6/11/5 1/13/6 2/12/6
f 4/14/7 7/15/7 8/7/7
f 10/16/8 5/17/8 6/11/8
f 8/7/9 11/18/9 12/19/9
f 14/2/10 9/20/10 10/3/10
f 12/1/11 15/21/11 16/22/11
f 18/5/12 13/23/12 14/6/12
f 20/24/13 15/25/13 19/26/13
f 53/27/14 62/28/14 61/29/14
f 54/30/15 63/31/15 62/32/15
f 55/33/16 64/34/16 63/31/16
f 64/35/17 57/36/17 65/37/17
f 57/36/18 66/38/18 65/37/18
f 58/39/19 67/40/19 66/38/19
f 59/41/20 68/42/20 67/43/20
f 68/42/21 53/27/21 61/29/21
f 125/44/22 61/29/22 118/45/22
f 66/46/23 124/47/23 123/48/23
f 64/34/24 122/49/24 121/50/24
f 62/32/25 120/51/25 119/52/25
f 76/53/26 77/54/27 69/55/28
f 75/56/29 82/57/30 83/58/31
f 72/59/32 81/60/33 73/61/34
f 71/62/35 78/63/36 79/64/37
f 75/56/38 84/65/38 76/66/38
f 73/67/39 82/57/39 74/68/39
f 72/59/40 79/69/40 80/70/40
f 70/71/41 77/54/41 78/63/41
f 91/72/42 167/73/43 168/74/44
f 86/75/45 94/76/45 85/77/45
f 86/75/46 95/78/46 93/79/46
f 88/80/47 95/78/47 87/81/47
f 89/82/48 96/83/48 88/84/48
f 90/85/49 97/86/49 89/82/49
f 90/87/50 99/88/50 98/89/50
f 91/90/51 100/91/51 99/88/51
f 85/77/52 100/91/52 92/92/52
f 101/93/53 185/94/53 186/95/53
f 101/96/54 194/97/54 193/98/54
f 92/92/55 91/90/55 101/99/55
f 90/85/56 89/82/56 101/93/56
f 88/100/57 87/101/57 101/96/57
f 86/75/58 85/77/58 101/99/58
f 170/102/59 169/103/59 101/93/59
f 53/104/60 108/105/60 54/106/60
f 29/107/61 109/108/61 53/27/61
f 57/36/62 104/109/62 58/39/62
f 45/110/63 108/111/63 47/112/63
f 59/113/64 107/114/64 60/115/64
f 46/116/65 54/30/65 45/110/65
f 102/117/66 46/116/66 48/118/66
f 55/33/1 103/119/1 56/120/1
f 119/121/67 110/122/67 118/123/67
f 120/124/68 111/125/68 119/121/68
f 121/50/69 112/126/69 120/51/69
f 121/50/70 114/127/70 113/128/70
f 123/48/71 114/129/71 122/130/71
f 124/47/72 115/131/72 123/48/72
f 125/132/73 116/133/73 124/47/73
f 125/134/74 110/122/74 117/135/74
f 67/136/64 125/132/64 124/47/64
f 63/31/1 121/50/1 120/51/1
f 134/137/75 133/138/76 126/139/77
f 132/140/78 139/141/79 131/142/80
f 138/143/81 129/144/82 130/145/83
f 128/146/84 135/147/85 127/148/86
f 141/149/87 132/150/87 133/138/87
f 139/141/88 130/145/88 131/142/88
f 129/151/89 136/152/89 128/146/89
f 127/153/90 134/137/90 126/139/90
f 151/154/91 143/155/91 142/156/91
f 143/155/92 152/157/92 144/158/92
f 144/159/93 153/160/93 145/161/93
f 153/160/94 146/162/94 145/161/94
f 146/162/95 155/163/95 147/164/95
f 147/164/96 156/165/96 148/166/96
f 156/165/97 149/167/97 148/166/97
f 157/168/98 142/169/98 149/167/98
f 149/167/99 158/170/99 148/166/99
f 147/164/100 158/170/100 146/162/100
f 145/171/101 158/172/101 144/173/101
f 143/155/102 158/174/102 142/156/102
f 165/175/60 110/122/60 111/125/60
f 161/176/62 114/177/62 115/178/62
f 30/179/103 53/27/103 60/180/103
f 164/181/64 116/133/64 117/182/64
f 107/183/104 30/179/104 60/180/104
f 109/108/105 32/184/105 107/183/105
f 160/185/1 112/126/1 113/128/1
f 66/38/62 123/186/62 213/187/62
f 206/188/62 122/189/62 204/190/62
f 62/191/60 119/121/60 207/192/60
f 61/193/60 202/194/60 199/195/60
f 33/196/61 166/197/61 35/198/61
f 164/199/104 34/200/104 36/201/104
f 166/197/106 36/201/106 35/198/106
f 34/200/107 110/202/107 33/196/107
f 108/111/108 48/118/108 47/112/108
f 21/203/109 104/204/109 23/205/109
f 22/206/110 58/207/110 21/203/110
f 104/204/111 24/208/111 23/205/111
f 105/209/112 22/206/112 24/208/112
f 106/210/113 40/211/113 103/119/113
f 37/212/114 106/210/114 57/213/114
f 103/119/115 38/214/115 56/120/115
f 38/214/116 57/213/116 56/120/116
f 25/215/109 161/216/109 115/131/109
f 161/216/117 28/217/117 162/218/117
f 162/218/112 26/219/112 116/133/112
f 26/219/118 115/131/118 116/133/118
f 159/220/66 50/221/66 112/126/66
f 50/221/119 111/222/119 112/126/119
f 49/223/63 165/224/63 111/222/63
f 165/224/120 52/225/120 159/220/120
f 160/185/115 42/226/115 44/227/115
f 163/228/121 44/227/121 43/229/121
f 41/230/114 163/228/114 43/229/114
f 42/226/122 114/127/122 41/230/122
f 87/231/123 191/232/124 192/233/125
f 86/234/126 193/235/127 191/232/128
f 194/236/129 87/237/130 192/238/131
f 88/84/132 186/95/133 184/239/134
f 183/240/135 88/84/136 184/239/137
f 185/94/138 89/82/139 183/240/140
f 170/102/141 91/72/142 168/74/143
f 90/85/144 169/103/145 167/73/146
f 92/92/147 175/241/148 85/77/149
f 178/242/150 92/92/151 101/99/152
f 85/77/153 177/243/154 101/99/155
f 101/99/156 177/243/156 178/242/156
f 149/244/157 179/245/158 180/246/159
f 142/156/160 181/247/161 179/245/162
f 181/247/163 158/174/163 182/248/163
f 182/248/164 149/244/165 180/246/166
f 173/249/167 174/250/167 158/170/167
f 174/250/168 148/166/169 158/170/170
f 147/164/171 173/249/172 158/170/173
f 148/166/174 171/251/175 147/164/176
f 190/252/177 189/253/177 158/172/177
f 158/174/178 197/254/178 198/255/178
f 143/155/179 197/254/180 158/174/181
f 144/158/182 195/256/183 143/155/184
f 198/255/185 144/158/186 158/174/187
f 145/171/188 190/252/189 158/172/190
f 187/257/191 145/171/192 146/258/193
f 189/259/194 146/162/195 158/170/196
f 12/1/1 16/22/1 14/2/1
f 16/4/2 20/260/2 18/5/2
f 8/7/3 12/19/3 10/8/3
f 4/10/4 8/261/4 6/11/4
f 6/11/5 5/17/5 1/13/6
f 4/14/7 3/262/7 7/15/7
f 10/16/8 9/263/8 5/17/8
f 8/7/9 7/15/9 11/18/9
f 14/2/10 13/264/10 9/20/10
f 12/1/11 11/265/11 15/21/11
f 18/5/197 17/266/197 13/23/197
f 20/24/13 16/267/13 15/25/13
f 53/27/14 54/268/14 62/28/14
f 54/30/15 55/33/15 63/31/15
f 55/33/16 56/120/16 64/34/16
f 64/35/17 56/269/17 57/36/17
f 57/36/18 58/39/18 66/38/18
f 58/39/19 59/270/19 67/40/19
f 59/41/20 60/180/20 68/42/20
f 68/42/21 60/180/21 53/27/21
f 125/44/22 68/42/22 61/29/22
f 66/46/23 67/136/23 124/47/23
f 64/34/24 65/271/24 122/49/24
f 62/32/25 63/31/25 120/51/25
f 76/53/26 84/272/198 77/54/27
f 75/56/29 74/68/199 82/57/30
f 72/59/32 80/70/200 81/60/33
f 71/62/35 70/71/201 78/63/36
f 75/56/38 83/58/38 84/65/38
f 73/67/39 81/273/39 82/57/39
f 72/59/40 71/274/40 79/69/40
f 70/71/41 69/55/41 77/54/41
f 91/72/42 90/85/202 167/73/43
f 86/75/45 93/79/45 94/76/45
f 86/75/46 87/81/46 95/78/46
f 88/80/47 96/275/47 95/78/47
f 89/82/48 97/86/48 96/83/48
f 90/85/49 98/276/49 97/86/49
f 90/87/50 91/90/50 99/88/50
f 91/90/51 92/92/51 100/91/51
f 85/77/52 94/76/52 100/91/52
f 53/104/60 109/277/60 108/105/60
f 29/107/61 31/278/61 109/108/61
f 57/36/62 106/279/62 104/109/62
f 45/110/63 54/30/63 108/111/63
f 59/113/64 105/209/64 107/114/64
f 46/116/65 55/33/65 54/30/65
f 102/117/66 55/33/66 46/116/66
f 55/33/1 102/117/1 103/119/1
f 119/121/67 111/125/67 110/122/67
f 120/124/68 112/280/68 111/125/68
f 121/50/69 113/128/69 112/126/69
f 121/50/70 122/49/70 114/127/70
f 123/48/71 115/131/71 114/129/71
f 124/47/72 116/133/72 115/131/72
f 125/132/73 117/182/73 116/133/73
f 125/134/74 118/123/74 110/122/74
f 67/136/64 68/281/64 125/132/64
f 63/31/1 64/34/1 121/50/1
f 134/137/75 141/149/203 133/138/76
f 132/140/78 140/282/204 139/141/79
f 138/143/81 137/283/205 129/144/82
f 128/146/84 136/152/206 135/147/85
f 141/149/87 140/284/87 132/150/87
f 139/141/88 138/143/88 130/145/88
f 129/151/89 137/285/89 136/152/89
f 127/153/90 135/286/90 134/137/90
f 151/154/91 150/287/91 143/155/91
f 143/155/92 150/287/92 152/157/92
f 144/159/93 152/288/93 153/160/93
f 153/160/94 154/289/94 146/162/94
f 146/162/95 154/289/95 155/163/95
f 147/164/96 155/163/96 156/165/96
f 156/165/97 157/168/97 149/167/97
f 157/168/98 151/290/98 142/169/98
f 165/175/60 166/291/60 110/122/60
f 161/176/62 163/292/62 114/177/62
f 30/179/103 29/107/103 53/27/103
f 164/181/64 162/218/64 116/133/64
f 107/183/104 32/184/104 30/179/104
f 109/108/105 31/278/105 32/184/105
f 160/185/1 159/220/1 112/126/1
f 201/293/62 204/190/62 65/37/62
f 122/189/62 208/294/62 210/295/62
f 123/186/62 122/189/62 210/295/62
f 201/293/62 65/37/62 66/38/62
f 200/296/62 201/293/62 66/38/62
f 123/186/62 210/295/62 213/187/62
f 213/187/62 200/296/62 66/38/62
f 206/188/62 208/294/62 122/189/62
f 122/189/62 65/37/62 204/190/62
f 118/123/60 211/297/60 209/298/60
f 119/121/60 118/123/60 209/298/60
f 205/299/60 203/300/60 62/191/60
f 119/121/60 209/298/60 207/192/60
f 207/192/60 205/299/60 62/191/60
f 212/301/60 211/297/60 118/123/60
f 62/191/60 203/300/60 202/194/60
f 199/195/60 212/301/60 118/123/60
f 61/193/60 62/191/60 202/194/60
f 199/195/60 118/123/60 61/193/60
f 33/196/61 110/202/61 166/197/61
f 164/199/104 117/302/104 34/200/104
f 166/197/106 164/199/106 36/201/106
f 34/200/107 117/302/107 110/202/107
f 108/111/108 102/117/108 48/118/108
f 21/203/109 58/207/109 104/204/109
f 22/206/110 59/113/110 58/207/110
f 104/204/111 105/209/111 24/208/111
f 105/209/112 59/113/112 22/206/112
f 106/210/113 39/303/113 40/211/113
f 37/212/114 39/303/114 106/210/114
f 103/119/115 40/211/115 38/214/115
f 38/214/116 37/212/116 57/213/116
f 25/215/109 27/304/109 161/216/109
f 161/216/117 27/304/117 28/217/117
f 162/218/112 28/217/112 26/219/112
f 26/219/118 25/215/118 115/131/118
f 159/220/66 52/225/66 50/221/66
f 50/221/119 49/223/119 111/222/119
f 49/223/63 51/305/63 165/224/63
f 165/224/120 51/305/120 52/225/120
f 160/185/115 113/128/115 42/226/115
f 163/228/121 160/185/121 44/227/121
f 41/230/114 114/127/114 163/228/114
f 42/226/122 113/128/122 114/127/122
f 87/231/123 86/234/207 191/232/124
f 86/75/126 101/99/208 193/306/127
f 194/97/129 101/96/209 87/101/130
f 88/84/132 101/93/210 186/95/133
f 183/240/135 89/82/211 88/84/136
f 185/94/138 101/93/212 89/82/139
f 170/102/141 101/93/213 91/72/142
f 90/85/144 101/93/214 169/103/145
f 92/92/147 176/307/215 175/241/148
f 178/242/150 176/307/216 92/92/151
f 85/77/153 175/241/217 177/243/154
f 149/244/157 142/156/218 179/245/158
f 142/156/160 158/174/219 181/247/161
f 182/248/220 158/174/221 149/244/165
f 174/250/168 172/308/222 148/166/169
f 147/164/171 171/251/223 173/249/172
f 148/166/174 172/308/224 171/251/175
f 143/155/179 195/256/225 197/254/180
f 144/158/182 196/309/226 195/256/183
f 198/255/185 196/309/227 144/158/186
f 145/171/188 188/310/228 190/252/229
f 187/257/191 188/310/230 145/171/192
f 189/253/194 187/257/231 146/258/195
f 230/311/64 217/312/64 215/313/64
f 228/314/232 230/311/232 226/315/232
f 216/316/62 227/317/62 221/318/62
f 230/319/233 225/320/233 226/321/233
f 232/322/234 227/323/234 231/324/234
f 230/325/235 214/326/235 229/327/235
f 232/322/236 216/328/236 217/312/236
f 218/329/60 223/330/60 229/331/60
f 249/332/237 236/333/237 250/334/237
f 237/335/24 244/336/24 245/337/24
f 251/338/238 239/339/238 252/340/238
f 253/341/239 236/342/239 237/343/239
f 252/340/240 240/344/240 254/345/240
f 255/346/241 235/347/241 249/332/241
f 253/341/242 238/348/242 251/338/242
f 256/349/243 240/350/243 233/351/243
f 256/349/244 234/352/244 255/346/244
f 234/353/25 243/354/25 235/355/25
f 239/339/64 248/356/64 240/344/64
f 237/357/62 246/358/62 238/359/62
f 235/355/1 244/336/1 236/360/1
f 234/352/60 241/361/60 242/362/60
f 240/363/22 241/364/22 233/365/22
f 238/348/23 247/366/23 239/339/23
f 260/367/245 273/368/245 274/369/245
f 261/370/24 268/371/24 260/372/24
f 263/373/246 275/374/246 276/375/246
f 277/376/247 260/377/247 274/378/247
f 278/379/248 263/373/248 276/375/248
f 259/380/249 279/381/249 273/368/249
f 262/382/250 277/376/250 275/383/250
f 280/384/251 264/385/251 278/379/251
f 258/386/252 280/384/252 279/381/252
f 267/387/25 258/388/25 259/389/25
f 272/390/64 263/391/64 264/392/64
f 270/393/62 261/394/62 262/382/62
f 268/371/1 259/389/1 260/372/1
f 258/395/60 265/396/60 257/397/60
f 265/398/22 264/385/22 257/399/22
f 271/400/23 262/401/23 263/391/23
f 281/402/2 283/403/2 282/404/2
f 284/405/232 285/406/232 286/407/232
f 287/408/64 288/409/64 286/407/64
f 288/410/4 291/411/4 292/412/4
f 293/413/3 295/414/3 292/415/3
f 281/416/1 295/417/1 294/418/1
f 230/311/64 232/322/64 217/312/64
f 228/314/232 232/322/232 230/311/232
f 221/318/62 219/419/62 216/316/62
f 216/316/62 231/420/62 227/317/62
f 227/317/62 224/421/62 221/318/62
f 230/319/233 229/331/233 225/320/233
f 232/322/234 228/314/234 227/323/234
f 230/325/235 215/422/235 214/326/235
f 232/322/236 231/324/236 216/328/236
f 229/331/60 214/423/60 218/329/60
f 218/329/60 220/424/60 223/330/60
f 223/330/60 225/320/60 229/331/60
f 249/332/237 235/347/237 236/333/237
f 237/335/24 236/360/24 244/336/24
f 251/338/238 238/348/238 239/339/238
f 253/341/239 250/425/239 236/342/239
f 252/340/240 239/339/240 240/344/240
f 255/346/241 234/352/241 235/347/241
f 253/341/242 237/343/242 238/348/242
f 256/349/243 254/426/243 240/350/243
f 256/349/244 233/351/244 234/352/244
f 234/353/25 242/427/25 243/354/25
f 239/339/64 247/366/64 248/356/64
f 237/357/62 245/428/62 246/358/62
f 235/355/1 243/354/1 244/336/1
f 234/352/60 233/351/60 241/361/60
f 240/363/22 248/429/22 241/364/22
f 238/348/23 246/430/23 247/366/23
f 260/367/245 259/380/245 273/368/245
f 261/370/24 269/431/24 268/371/24
f 263/373/246 262/432/246 275/374/246
f 277/376/247 261/394/247 260/377/247
f 278/379/248 264/385/248 263/373/248
f 259/380/249 258/386/249 279/381/249
f 262/382/250 261/394/250 277/376/250
f 280/384/251 257/399/251 264/385/251
f 258/386/252 257/399/252 280/384/252
f 267/387/25 266/433/25 258/388/25
f 272/390/64 271/400/64 263/391/64
f 270/393/62 269/434/62 261/394/62
f 268/371/1 267/387/1 259/389/1
f 258/395/60 266/435/60 265/396/60
f 265/398/22 272/436/22 264/385/22
f 271/400/23 270/437/23 262/401/23
f 281/402/2 284/438/2 283/403/2
f 286/407/232 283/439/232 284/405/232
f 285/406/232 287/408/232 286/407/232
f 287/408/64 289/440/64 288/409/64
f 292/441/4 290/442/253 288/443/254
f 288/410/4 289/444/4 291/411/4
f 292/415/3 291/445/3 293/413/3
f 293/413/3 294/446/3 295/414/3
f 281/416/1 282/447/1 295/417/1
f 302/448/23 304/449/23 306/450/23
f 307/451/255 298/452/256 299/453/257
f 296/454/258 303/455/259 297/456/260
f 299/457/257 296/458/258 297/459/260
f 303/460/261 299/453/257 297/461/260
f 302/448/262 301/462/262 300/463/262
f 306/464/263 303/460/263 302/465/263
f 306/466/264 305/467/264 307/468/264
f 300/469/265 305/467/265 304/470/265
f 305/471/266 296/458/258 298/472/256
f 316/473/23 314/474/23 318/475/23
f 310/476/258 319/477/259 311/478/260
f 308/479/256 315/480/255 313/481/255
f 308/482/256 311/483/260 309/484/257
f 311/485/260 315/480/261 309/486/257
f 313/487/264 314/488/264 312/489/264
f 315/480/263 318/490/263 314/491/263
f 318/475/262 317/492/262 316/473/262
f 317/493/265 312/489/265 316/494/265
f 308/482/256 317/495/266 310/496/258
f 328/497/22 326/498/22 330/499/22
f 322/500/267 331/501/255 323/502/268
f 320/503/269 327/504/259 325/505/259
f 320/506/269 323/507/268 321/508/270
f 323/509/268 327/504/271 321/510/270
f 325/511/272 326/512/272 324/513/272
f 327/504/273 330/514/273 326/515/273
f 330/499/274 329/516/274 328/497/274
f 329/517/275 324/513/275 328/518/275
f 320/506/269 329/519/276 322/520/267
f 338/521/22 340/522/22 342/523/22
f 343/524/259 334/525/269 335/526/270
f 332/527/267 339/528/255 333/529/268
f 335/530/270 332/531/267 333/532/268
f 339/533/271 335/526/270 333/534/268
f 338/521/274 337/535/274 336/536/274
f 342/537/273 339/533/273 338/538/273
f 342/539/272 341/540/272 343/541/272
f 336/542/275 341/540/275 340/543/275
f 341/544/276 332/531/267 334/545/269
f 352/546/24 350/547/24 354/548/24
f 346/549/277 355/550/255 347/551/278
f 344/552/279 351/553/259 349/554/259
f 344/555/279 347/551/278 345/556/280
f 347/557/278 351/558/276 345/559/280
f 349/554/281 350/560/281 348/561/281
f 351/558/282 354/548/282 350/547/282
f 354/562/283 353/563/283 352/564/283
f 353/563/284 348/565/284 352/564/284
f 344/552/279 353/566/271 346/567/277
f 362/568/24 364/569/24 366/570/24
f 367/571/259 358/572/279 359/573/280
f 356/574/277 363/575/255 357/576/278
f 359/577/280 356/574/277 357/576/278
f 363/578/276 359/579/280 357/580/278
f 362/581/283 361/582/283 360/583/283
f 366/570/282 363/578/282 362/568/282
f 366/584/281 365/585/281 367/571/281
f 360/583/284 365/586/284 364/587/284
f 365/585/271 356/588/277 358/572/279
f 374/589/25 376/590/25 378/591/25
f 379/592/255 370/593/285 371/594/286
f 368/595/287 375/596/259 369/597/288
f 371/598/286 368/595/287 369/597/288
f 375/599/266 371/600/286 369/601/288
f 374/602/289 373/603/289 372/604/289
f 378/591/290 375/599/290 374/589/290
f 378/605/291 377/606/291 379/592/291
f 372/604/292 377/607/292 376/608/292
f 377/606/261 368/609/287 370/593/285
f 388/610/25 386/611/25 390/612/25
f 382/613/287 391/614/259 383/615/288
f 380/616/285 387/617/255 385/618/255
f 380/619/285 383/615/288 381/620/286
f 383/621/288 387/622/266 381/623/286
f 385/618/291 386/624/291 384/625/291
f 387/622/290 390/612/290 386/611/290
f 390/626/289 389/627/289 388/628/289
f 389/627/292 384/629/292 388/628/292
f 380/616/285 389/630/261 382/631/287
f 396/632/293 405/633/293 397/634/293
f 395/635/294 402/636/294 403/637/295
f 392/638/296 400/639/296 393/640/296
f 392/638/297 407/641/297 401/642/297
f 397/643/298 406/644/298 398/645/298
f 396/646/299 403/637/299 404/647/299
f 393/640/300 402/648/300 394/649/300
f 399/650/301 406/644/301 407/651/301
f 421/652/302 412/653/302 413/654/302
f 419/655/303 410/656/303 411/657/303
f 416/658/304 408/659/304 409/660/304
f 408/661/305 423/662/305 415/663/305
f 422/664/306 413/654/306 414/665/306
f 412/653/307 419/666/307 411/667/307
f 418/668/308 409/669/308 410/656/308
f 415/663/309 422/670/309 414/671/309
f 424/672/310 425/673/310 426/674/310
f 426/675/311 425/676/311 428/677/311
f 428/677/312 425/676/312 427/678/312
f 427/679/313 425/680/313 424/681/313
f 428/677/314 431/682/315 432/683/316
f 430/684/317 431/685/315 429/686/318
f 427/687/319 429/688/318 431/689/315
f 428/677/320 430/690/317 426/675/320
f 426/674/321 429/691/318 424/672/321
f 433/692/322 435/693/322 434/694/322
f 435/695/323 437/696/323 434/697/323
f 437/698/324 436/699/324 434/700/324
f 436/701/325 433/702/325 434/703/325
f 437/698/326 440/704/327 436/699/326
f 439/705/328 440/706/327 441/707/329
f 436/701/330 438/708/331 433/702/330
f 439/709/328 437/696/332 435/695/332
f 438/710/331 435/693/333 433/692/333
f 442/711/334 444/712/334 443/713/334
f 444/714/335 446/715/335 443/716/335
f 446/717/336 445/718/336 443/719/336
f 445/720/337 442/721/337 443/722/337
f 446/717/338 449/723/339 445/718/338
f 448/724/340 449/725/339 450/726/341
f 445/720/342 447/727/343 442/721/342
f 448/728/340 446/715/344 444/714/344
f 447/729/343 444/712/345 442/711/345
f 451/730/346 452/731/346 453/732/346
f 453/733/347 452/734/347 455/735/347
f 455/736/348 452/737/348 454/738/348
f 454/739/349 452/740/349 451/741/349
f 455/735/350 458/742/351 459/743/352
f 457/744/353 458/745/351 456/746/354
f 454/747/355 456/748/354 458/749/351
f 455/735/356 457/750/353 453/733/356
f 453/732/357 456/751/354 451/730/357
f 460/752/358 462/753/358 461/754/358
f 462/753/359 464/755/359 461/754/359
f 464/756/360 463/757/360 461/758/360
f 463/759/361 460/760/361 461/761/361
f 464/756/362 467/762/363 463/757/362
f 466/763/364 467/764/363 468/765/365
f 463/766/366 465/767/367 460/768/366
f 466/769/364 464/755/368 462/753/368
f 465/767/367 462/770/369 460/768/369
f 469/771/370 470/772/370 471/773/370
f 471/774/371 470/775/371 473/776/371
f 473/777/372 470/778/372 472/779/372
f 472/780/373 470/781/373 469/782/373
f 473/777/374 476/783/375 477/784/376
f 475/785/377 476/786/375 474/787/378
f 472/780/379 474/788/378 476/789/375
f 473/776/380 475/790/377 471/774/380
f 471/773/381 474/791/378 469/771/381
f 478/792/382 479/793/382 480/794/382
f 480/795/383 479/796/383 482/797/383
f 482/798/384 479/799/384 481/800/384
f 481/801/385 479/802/385 478/803/385
f 482/798/386 485/804/387 486/805/388
f 484/806/389 485/807/387 483/808/390
f 481/801/391 483/809/390 485/810/387
f 482/797/392 484/811/389 480/795/392
f 480/794/393 483/812/390 478/792/393
f 487/813/394 489/814/394 488/815/394
f 489/814/395 491/816/395 488/815/395
f 491/817/396 490/818/396 488/819/396
f 490/820/397 487/821/397 488/822/397
f 491/817/398 494/823/399 490/818/398
f 493/824/400 494/825/399 495/826/401
f 490/827/402 492/828/403 487/829/402
f 493/830/400 491/816/404 489/814/404
f 492/828/403 489/831/405 487/829/405
f 302/448/23 300/463/23 304/449/23
f 307/451/255 305/832/255 298/452/256
f 296/454/258 301/462/259 303/455/259
f 299/457/257 298/472/256 296/458/258
f 303/460/261 307/451/261 299/453/257
f 302/448/262 303/455/262 301/462/262
f 306/464/263 307/451/263 303/460/263
f 306/466/264 304/470/264 305/467/264
f 300/469/265 301/833/265 305/467/265
f 305/471/266 301/834/266 296/458/258
f 316/473/23 312/835/23 314/474/23
f 310/476/258 317/492/259 319/477/259
f 308/479/256 309/486/257 315/480/255
f 308/482/256 310/496/258 311/483/260
f 311/485/260 319/836/261 315/480/261
f 313/487/264 315/837/264 314/488/264
f 315/480/263 319/836/263 318/490/263
f 318/475/262 319/477/262 317/492/262
f 317/493/265 313/487/265 312/489/265
f 308/482/256 313/838/266 317/495/266
f 328/497/22 324/839/22 326/498/22
f 322/500/267 329/516/255 331/501/255
f 320/503/269 321/510/270 327/504/259
f 320/506/269 322/520/267 323/507/268
f 323/509/268 331/840/271 327/504/271
f 325/511/272 327/841/272 326/512/272
f 327/504/273 331/840/273 330/514/273
f 330/499/274 331/501/274 329/516/274
f 329/517/275 325/511/275 324/513/275
f 320/506/269 325/842/276 329/519/276
f 338/521/22 336/536/22 340/522/22
f 343/524/259 341/843/259 334/525/269
f 332/527/267 337/535/255 339/528/255
f 335/530/270 334/545/269 332/531/267
f 339/533/271 343/524/271 335/526/270
f 338/521/274 339/528/274 337/535/274
f 342/537/273 343/524/273 339/533/273
f 342/539/272 340/543/272 341/540/272
f 336/542/275 337/844/275 341/540/275
f 341/544/276 337/845/276 332/531/267
f 352/546/24 348/846/24 350/547/24
f 346/549/277 353/847/255 355/550/255
f 344/552/279 345/848/280 351/553/259
f 344/555/279 346/549/277 347/551/278
f 347/557/278 355/849/276 351/558/276
f 349/554/281 351/553/281 350/560/281
f 351/558/282 355/849/282 354/548/282
f 354/562/283 355/850/283 353/563/283
f 353/563/284 349/851/284 348/565/284
f 344/552/279 349/554/271 353/566/271
f 362/568/24 360/852/24 364/569/24
f 367/571/259 365/585/259 358/572/279
f 356/574/277 361/853/255 363/575/255
f 359/577/280 358/854/279 356/574/277
f 363/578/276 367/855/276 359/579/280
f 362/581/283 363/856/283 361/582/283
f 366/570/282 367/855/282 363/578/282
f 366/584/281 364/857/281 365/585/281
f 360/583/284 361/582/284 365/586/284
f 365/585/271 361/858/271 356/588/277
f 374/589/25 372/859/25 376/590/25
f 379/592/255 377/606/255 370/593/285
f 368/595/287 373/860/259 375/596/259
f 371/598/286 370/861/285 368/595/287
f 375/599/266 379/862/266 371/600/286
f 374/602/289 375/863/289 373/603/289
f 378/591/290 379/862/290 375/599/290
f 378/605/291 376/864/291 377/606/291
f 372/604/292 373/603/292 377/607/292
f 377/606/261 373/865/261 368/609/287
f 388/610/25 384/866/25 386/611/25
f 382/613/287 389/867/259 391/614/259
f 380/616/285 381/868/286 387/617/255
f 380/619/285 382/613/287 383/615/288
f 383/621/288 391/869/266 387/622/266
f 385/618/291 387/617/291 386/624/291
f 387/622/290 391/869/290 390/612/290
f 390/626/289 391/870/289 389/627/289
f 389/627/292 385/871/292 384/629/292
f 380/616/285 385/618/261 389/630/261
f 396/632/293 404/872/293 405/633/293
f 395/635/294 394/873/294 402/636/294
f 392/638/296 401/642/296 400/639/296
f 392/638/297 399/874/297 407/641/297
f 397/643/298 405/875/298 406/644/298
f 396/646/299 395/635/299 403/637/299
f 393/640/300 400/639/300 402/648/300
f 399/650/301 398/645/301 406/644/301
f 421/652/302 420/876/302 412/653/302
f 419/655/303 418/668/303 410/656/303
f 416/658/304 417/877/304 408/659/304
f 408/661/305 417/878/305 423/662/305
f 422/664/306 421/652/306 413/654/306
f 412/653/307 420/876/307 419/666/307
f 418/668/308 416/879/308 409/669/308
f 415/663/309 423/662/309 422/670/309
f 428/677/314 427/678/314 431/682/315
f 430/684/317 432/880/316 431/685/315
f 427/687/319 424/881/319 429/688/318
f 428/677/320 432/683/316 430/690/317
f 426/674/321 430/882/317 429/691/318
f 437/698/326 441/883/329 440/704/327
f 439/705/328 438/708/331 440/706/327
f 436/701/330 440/706/327 438/708/331
f 439/709/328 441/884/329 437/696/332
f 438/710/331 439/885/328 435/693/333
f 446/717/338 450/886/341 449/723/339
f 448/724/340 447/727/343 449/725/339
f 445/720/342 449/725/339 447/727/343
f 448/728/340 450/887/341 446/715/344
f 447/729/343 448/888/340 444/712/345
f 455/735/350 454/889/350 458/742/351
f 457/744/353 459/890/352 458/745/351
f 454/747/355 451/891/355 456/748/354
f 455/735/356 459/743/352 457/750/353
f 453/732/357 457/892/353 456/751/354
f 464/756/362 468/893/365 467/762/363
f 466/763/364 465/894/367 467/764/363
f 463/766/366 467/895/363 465/767/367
f 466/769/364 468/896/365 464/755/368
f 465/767/367 466/897/364 462/770/369
f 473/777/374 472/779/374 476/783/375
f 475/785/377 477/898/376 476/786/375
f 472/780/379 469/782/379 474/788/378
f 473/776/380 477/899/376 475/790/377
f 471/773/381 475/900/377 474/791/378
f 482/798/386 481/800/386 485/804/387
f 484/806/389 486/901/388 485/807/387
f 481/801/391 478/803/391 483/809/390
f 482/797/392 486/902/388 484/811/389
f 480/794/393 484/903/389 483/812/390
f 491/817/398 495/904/401 494/823/399
f 493/824/400 492/905/403 494/825/399
f 490/827/402 494/906/399 492/828/403
f 493/830/400 495/907/401 491/816/404
f 492/828/403 493/908/400 489/831/405
l 221 222
