# Blender 5.0.0
# www.blender.org
mtllib Fence.mtl
o Cube.001
v 12.563905 1.168126 -3.695399
v 12.558974 1.327230 -3.677493
v 12.507729 1.327230 -3.691604
v 12.512659 1.168126 -3.709510
v 11.896861 1.058626 -1.473100
v 11.901791 0.899522 -1.491006
v 11.948107 1.058626 -1.458990
v 11.953037 0.899522 -1.476895
vn -0.2637 -0.1159 0.9576
vn 0.9641 -0.0000 0.2655
vn 0.2637 0.1159 -0.9576
vn -0.9641 -0.0000 -0.2655
vn -0.0308 0.9933 0.1118
vn 0.0308 -0.9933 -0.1118
s 1
usemtl Material.129
f 2//1 4//1 1//1
f 4//2 5//2 6//2
f 5//3 8//3 6//3
f 8//4 2//4 1//4
f 6//5 1//5 4//5
f 3//6 7//6 5//6
f 2//1 3//1 4//1
f 4//2 3//2 5//2
f 5//3 7//3 8//3
f 8//4 7//4 2//4
f 6//5 8//5 1//5
f 3//6 2//6 7//6
o Cube.013
v -11.364183 1.173713 4.234794
v -11.366791 1.333121 4.250326
v -11.419210 1.333121 4.241529
v -11.416604 1.173713 4.225996
v -11.800792 1.105360 6.515201
v -11.798184 0.945952 6.499669
v -11.748371 1.105360 6.523998
v -11.745765 0.945952 6.508467
vn -0.1647 -0.0983 0.9814
vn 0.9862 -0.0000 0.1655
vn 0.1647 0.0983 -0.9814
vn -0.9862 -0.0000 -0.1655
vn -0.0163 0.9952 0.0970
vn 0.0163 -0.9952 -0.0970
s 1
usemtl Material.100
f 10//7 12//7 9//7
f 11//8 14//8 12//8
f 13//9 16//9 14//9
f 16//10 10//10 9//10
f 14//11 9//11 12//11
f 11//12 15//12 13//12
f 10//7 11//7 12//7
f 11//8 13//8 14//8
f 13//9 15//9 16//9
f 16//10 15//10 10//10
f 14//11 16//11 9//11
f 11//12 10//12 15//12
o Cube.010
v -11.036681 1.168114 2.283350
v -11.039755 1.327218 2.301666
v -11.092175 1.327218 2.292868
v -11.089101 1.168114 2.274552
v -11.473027 1.058614 4.562201
v -11.469954 0.899510 4.543885
v -11.420608 1.058614 4.570998
v -11.417534 0.899510 4.552682
vn -0.1644 -0.1159 0.9796
vn 0.9862 -0.0000 0.1655
vn 0.1644 0.1159 -0.9796
vn -0.9862 -0.0000 -0.1655
vn -0.0192 0.9933 0.1143
vn 0.0192 -0.9933 -0.1143
s 1
usemtl Material.108
f 18//13 20//13 17//13
f 20//14 21//14 22//14
f 21//15 24//15 22//15
f 24//16 18//16 17//16
f 22//17 17//17 20//17
f 19//18 23//18 21//18
f 18//13 19//13 20//13
f 20//14 19//14 21//14
f 21//15 23//15 24//15
f 24//16 23//16 18//16
f 22//17 24//17 17//17
f 19//18 18//18 23//18
o Cube
v 12.075994 0.214634 -1.500173
v 11.965633 0.214634 -1.530561
v 11.996021 0.214634 -1.640921
v 12.106382 0.214634 -1.610533
v 12.075994 1.433024 -1.500173
v 12.106382 1.433024 -1.610533
v 11.996021 1.433024 -1.640921
v 11.965633 1.433024 -1.530561
vn -0.0000 -1.0000 -0.0000
vn -0.0000 1.0000 -0.0000
vn -0.2655 -0.0000 0.9641
vn -0.9641 -0.0000 -0.2655
vn 0.2655 -0.0000 -0.9641
vn 0.9641 -0.0000 0.2655
s 1
usemtl Material.128
f 26//19 28//19 25//19
f 30//20 32//20 29//20
f 29//21 26//21 25//21
f 32//22 27//22 26//22
f 31//23 28//23 27//23
f 25//24 30//24 29//24
f 26//19 27//19 28//19
f 30//20 31//20 32//20
f 29//21 32//21 26//21
f 32//22 31//22 27//22
f 31//23 30//23 28//23
f 25//24 28//24 30//24
o Cube.007
v 12.554714 0.900861 -3.662022
v 12.542795 1.054624 -3.618736
v 12.491549 1.054624 -3.632847
v 12.503469 0.900861 -3.676133
v 11.901186 0.405287 -1.488809
v 11.913105 0.251524 -1.532095
v 11.952432 0.405287 -1.474698
v 11.964351 0.251524 -1.517984
vn -0.2548 -0.2803 0.9255
vn 0.9641 -0.0000 0.2655
vn 0.2548 0.2803 -0.9255
vn -0.9641 -0.0000 -0.2655
vn -0.0744 0.9599 0.2702
vn 0.0744 -0.9599 -0.2702
s 1
usemtl Material.126
f 34//25 36//25 33//25
f 36//26 37//26 38//26
f 37//27 40//27 38//27
f 39//28 33//28 40//28
f 38//29 33//29 36//29
f 35//30 39//30 37//30
f 34//25 35//25 36//25
f 36//26 35//26 37//26
f 37//27 39//27 40//27
f 39//28 34//28 33//28
f 38//29 40//29 33//29
f 35//30 34//30 39//30
o Cube.005
v 12.599218 0.214634 -3.400380
v 12.488858 0.214634 -3.430768
v 12.519245 0.214634 -3.541127
v 12.629606 0.214634 -3.510739
v 12.599218 1.433024 -3.400380
v 12.629606 1.433024 -3.510739
v 12.519245 1.433024 -3.541127
v 12.488857 1.433024 -3.430768
vn -0.0000 -1.0000 -0.0000
vn -0.0000 1.0000 -0.0000
vn -0.2655 -0.0000 0.9641
vn -0.9641 -0.0000 -0.2655
vn 0.2655 -0.0000 -0.9641
vn 0.9641 -0.0000 0.2655
s 1
usemtl Material.127
f 42//31 44//31 41//31
f 46//32 48//32 45//32
f 45//33 42//33 41//33
f 48//34 43//34 42//34
f 47//35 44//35 43//35
f 41//36 46//36 45//36
f 42//31 43//31 44//31
f 46//32 47//32 48//32
f 45//33 48//33 42//33
f 48//34 47//34 43//34
f 47//35 46//35 44//35
f 41//36 44//36 46//36
o Cube.011
v -11.629971 0.214622 6.497405
v -11.742860 0.214622 6.478459
v -11.723914 0.214622 6.365571
v -11.611026 0.214622 6.384517
v -11.629972 1.433012 6.497405
v -11.611026 1.433012 6.384517
v -11.723915 1.433012 6.365571
v -11.742861 1.433012 6.478459
vn -0.0000 -1.0000 -0.0000
vn -0.0000 1.0000 -0.0000
vn -0.1655 -0.0000 0.9862
vn -0.9862 -0.0000 -0.1655
vn 0.1655 -0.0000 -0.9862
vn 0.9862 -0.0000 0.1655
s 1
usemtl Material.102
f 50//37 52//37 49//37
f 54//38 56//38 53//38
f 53//39 50//39 49//39
f 56//40 51//40 50//40
f 55//41 52//41 51//41
f 49//42 54//42 53//42
f 50//37 51//37 52//37
f 54//38 55//38 56//38
f 53//39 56//39 50//39
f 56//40 55//40 51//40
f 55//41 54//41 52//41
f 49//42 52//42 54//42
o Cube.015
v -11.042411 0.900849 2.317492
v -11.049842 1.054612 2.361769
v -11.102262 1.054612 2.352972
v -11.094831 0.900849 2.308694
v -11.470330 0.405275 4.546133
v -11.462899 0.251512 4.501855
v -11.417911 0.405275 4.554930
v -11.410480 0.251512 4.510652
vn -0.1589 -0.2803 0.9467
vn 0.9862 -0.0000 0.1655
vn 0.1589 0.2803 -0.9467
vn -0.9862 -0.0000 -0.1655
vn -0.0464 0.9599 0.2764
vn 0.0464 -0.9599 -0.2764
s 1
usemtl Material.095
f 58//43 60//43 57//43
f 60//44 61//44 62//44
f 61//45 64//45 62//45
f 63//46 57//46 64//46
f 62//47 57//47 60//47
f 59//48 63//48 61//48
f 58//43 59//43 60//43
f 60//44 59//44 61//44
f 61//45 63//45 64//45
f 63//46 58//46 57//46
f 62//47 64//47 57//47
f 59//48 58//48 63//48
o Cube.012
v -11.365650 0.513070 4.243531
v -11.364112 0.672985 4.234368
v -11.416533 0.672985 4.225571
v -11.418070 0.513070 4.234734
v -11.799325 0.807362 6.506464
v -11.800863 0.647448 6.515627
v -11.746905 0.807362 6.515262
v -11.748443 0.647448 6.524425
vn -0.1652 0.0580 0.9845
vn 0.9862 -0.0000 0.1655
vn 0.1652 -0.0580 -0.9845
vn -0.9862 -0.0000 -0.1655
vn 0.0096 0.9983 -0.0572
vn -0.0096 -0.9983 0.0572
s 1
usemtl Material.101
f 66//49 68//49 65//49
f 67//50 70//50 68//50
f 69//51 72//51 70//51
f 72//52 66//52 65//52
f 70//53 65//53 68//53
f 67//54 71//54 69//54
f 66//49 67//49 68//49
f 67//50 69//50 70//50
f 69//51 71//51 72//51
f 72//52 71//52 66//52
f 70//53 72//53 65//53
f 67//54 66//54 71//54
o Cube.014
v -10.971390 0.214622 2.573213
v -11.084279 0.214622 2.554267
v -11.065333 0.214622 2.441379
v -10.952444 0.214622 2.460325
v -10.971390 1.433012 2.573213
v -10.952444 1.433012 2.460325
v -11.065333 1.433012 2.441379
v -11.084279 1.433012 2.554267
vn -0.0000 -1.0000 -0.0000
vn -0.0000 1.0000 -0.0000
vn -0.1655 -0.0000 0.9862
vn -0.9862 -0.0000 -0.1655
vn 0.1655 -0.0000 -0.9862
vn 0.9862 -0.0000 0.1655
s 1
usemtl Material.096
f 74//55 76//55 73//55
f 78//56 80//56 77//56
f 77//57 74//57 73//57
f 80//58 75//58 74//58
f 79//59 76//59 75//59
f 73//60 78//60 77//60
f 74//55 75//55 76//55
f 78//56 79//56 80//56
f 77//57 80//57 74//57
f 80//58 79//58 75//58
f 79//59 78//59 76//59
f 73//60 76//60 78//60
o Cube.009
v -11.297600 0.214622 4.516956
v -11.410489 0.214622 4.498010
v -11.391543 0.214622 4.385121
v -11.278654 0.214622 4.404067
v -11.297601 1.433012 4.516956
v -11.278655 1.433012 4.404067
v -11.391544 1.433012 4.385121
v -11.410490 1.433012 4.498010
vn -0.0000 -1.0000 -0.0000
vn -0.0000 1.0000 -0.0000
vn -0.1655 -0.0000 0.9862
vn -0.9862 -0.0000 -0.1655
vn 0.1655 -0.0000 -0.9862
vn 0.9862 -0.0000 0.1655
s 1
usemtl Material.109
f 82//61 84//61 81//61
f 86//62 88//62 85//62
f 85//63 82//63 81//63
f 88//64 83//64 82//64
f 87//65 84//65 83//65
f 81//66 86//66 85//66
f 82//61 83//61 84//61
f 86//62 87//62 88//62
f 85//63 88//63 82//63
f 88//64 87//64 83//64
f 87//65 86//65 84//65
f 81//66 84//66 86//66
o Cube.002
v -11.653720 0.900849 -7.478909
v -11.646410 1.054612 -7.434611
v -11.698854 1.054612 -7.425958
v -11.706163 0.900849 -7.470256
v -11.336817 0.405275 -5.231793
v -11.344126 0.251512 -5.276092
v -11.284372 0.405275 -5.240447
v -11.291681 0.251512 -5.284745
vn 0.1563 -0.2803 0.9471
vn 0.9867 -0.0000 -0.1628
vn -0.1563 0.2803 -0.9471
vn -0.9867 -0.0000 0.1628
vn 0.0456 0.9599 0.2765
vn -0.0456 -0.9599 -0.2765
s 1
usemtl Material.170
f 90//67 92//67 89//67
f 92//68 93//68 94//68
f 93//69 96//69 94//69
f 95//70 89//70 96//70
f 94//71 89//71 92//71
f 91//72 95//72 93//72
f 90//67 91//67 92//67
f 92//68 91//68 93//68
f 93//69 95//69 96//69
f 95//70 90//70 89//70
f 94//71 96//71 89//71
f 91//72 90//72 95//72
o Cube.003
v -11.503709 0.214622 -7.259970
v -11.616650 0.214622 -7.241334
v -11.635285 0.214622 -7.354274
v -11.522345 0.214622 -7.372910
v -11.503709 1.433012 -7.259970
v -11.522345 1.433012 -7.372910
v -11.635285 1.433012 -7.354274
v -11.616651 1.433012 -7.241334
vn -0.0000 -1.0000 -0.0000
vn -0.0000 1.0000 -0.0000
vn 0.1628 -0.0000 0.9867
vn -0.9867 -0.0000 0.1628
vn -0.1628 -0.0000 -0.9867
vn 0.9867 -0.0000 -0.1628
s 1
usemtl Material.171
f 98//73 100//73 97//73
f 102//74 104//74 101//74
f 101//75 98//75 97//75
f 104//76 99//76 98//76
f 103//77 100//77 99//77
f 97//78 102//78 101//78
f 98//73 99//73 100//73
f 102//74 103//74 104//74
f 101//75 104//75 98//75
f 104//76 103//76 99//76
f 103//77 102//77 100//77
f 97//78 100//78 102//78
o Cube.004
v -11.337219 1.173713 -5.560729
v -11.334656 1.333121 -5.545190
v -11.387099 1.333121 -5.536537
v -11.389664 1.173713 -5.552076
v -11.011771 1.105360 -3.261824
v -11.014335 0.945952 -3.277363
v -10.959328 1.105360 -3.270477
v -10.961891 0.945952 -3.286016
vn 0.1620 -0.0983 0.9819
vn 0.9867 -0.0000 -0.1628
vn -0.1620 0.0983 -0.9819
vn -0.9867 -0.0000 0.1628
vn 0.0160 0.9952 0.0970
vn -0.0160 -0.9952 -0.0970
s 1
usemtl Material.172
f 106//79 108//79 105//79
f 107//80 110//80 108//80
f 109//81 112//81 110//81
f 112//82 106//82 105//82
f 110//83 105//83 108//83
f 107//84 111//84 109//84
f 106//79 107//79 108//79
f 107//80 109//80 110//80
f 109//81 111//81 112//81
f 112//82 111//82 106//82
f 110//83 112//83 105//83
f 107//84 106//84 111//84
o Cube.008
v -11.335777 0.513070 -5.551988
v -11.337290 0.672985 -5.561155
v -11.389733 0.672985 -5.552502
v -11.388221 0.513070 -5.543335
v -11.013213 0.807362 -3.270564
v -11.011701 0.647448 -3.261397
v -10.960770 0.807362 -3.279217
v -10.959257 0.647448 -3.270051
vn 0.1625 0.0580 0.9850
vn 0.9867 -0.0000 -0.1628
vn -0.1625 -0.0580 -0.9850
vn -0.9867 -0.0000 0.1628
vn -0.0094 0.9983 -0.0572
vn 0.0094 -0.9983 0.0572
s 1
usemtl Material.173
f 114//85 116//85 113//85
f 115//86 118//86 116//86
f 117//87 120//87 118//87
f 120//88 114//88 113//88
f 118//89 113//89 116//89
f 115//90 119//90 117//90
f 114//85 115//85 116//85
f 115//86 117//86 118//86
f 117//87 119//87 120//87
f 120//88 119//88 114//88
f 118//89 120//89 113//89
f 115//90 114//90 119//90
o Cube.016
v -10.855920 0.214622 -3.333982
v -10.968861 0.214622 -3.315346
v -10.987496 0.214622 -3.428286
v -10.874556 0.214622 -3.446922
v -10.855920 1.433012 -3.333982
v -10.874556 1.433012 -3.446922
v -10.987496 1.433012 -3.428286
v -10.968862 1.433012 -3.315346
vn -0.0000 -1.0000 -0.0000
vn -0.0000 1.0000 -0.0000
vn 0.1628 -0.0000 0.9867
vn -0.9867 -0.0000 0.1628
vn -0.1628 -0.0000 -0.9867
vn 0.9867 -0.0000 -0.1628
s 1
usemtl Material.174
f 122//91 124//91 121//91
f 126//92 128//92 125//92
f 125//93 122//93 121//93
f 128//94 123//94 122//94
f 127//95 124//95 123//95
f 121//96 126//96 125//96
f 122//91 123//91 124//91
f 126//92 127//92 128//92
f 125//93 128//93 122//93
f 128//94 127//94 123//94
f 127//95 126//95 124//95
f 121//96 124//96 126//96
o Cube.017
v -11.659355 1.168114 -7.513066
v -11.656332 1.327218 -7.494741
v -11.708776 1.327218 -7.486089
v -11.711800 1.168114 -7.504413
v -11.334164 1.058614 -5.215718
v -11.337188 0.899510 -5.234042
v -11.281720 1.058614 -5.224371
v -11.284743 0.899510 -5.242695
vn 0.1617 -0.1159 0.9800
vn 0.9867 -0.0000 -0.1628
vn -0.1617 0.1159 -0.9800
vn -0.9867 -0.0000 0.1628
vn 0.0189 0.9933 0.1144
vn -0.0189 -0.9933 -0.1144
s 1
usemtl Material.175
f 130//97 132//97 129//97
f 132//98 133//98 134//98
f 133//99 136//99 134//99
f 136//100 130//100 129//100
f 134//101 129//101 132//101
f 131//102 135//102 133//102
f 130//97 131//97 132//97
f 132//98 131//98 133//98
f 133//99 135//99 136//99
f 136//100 135//100 130//100
f 134//101 136//101 129//101
f 131//102 130//102 135//102
o Cube.018
v -11.182844 0.214622 -5.315337
v -11.295785 0.214622 -5.296702
v -11.314421 0.214622 -5.409643
v -11.201480 0.214622 -5.428278
v -11.182844 1.433012 -5.315337
v -11.201480 1.433012 -5.428278
v -11.314421 1.433012 -5.409643
v -11.295785 1.433012 -5.296702
vn -0.0000 -1.0000 -0.0000
vn -0.0000 1.0000 -0.0000
vn 0.1628 -0.0000 0.9867
vn -0.9867 -0.0000 0.1628
vn -0.1628 -0.0000 -0.9867
vn 0.9867 -0.0000 -0.1628
s 1
usemtl Material.176
f 138//103 140//103 137//103
f 142//104 144//104 141//104
f 141//105 138//105 137//105
f 144//106 139//106 138//106
f 143//107 140//107 139//107
f 137//108 142//108 141//108
f 138//103 139//103 140//103
f 142//104 143//104 144//104
f 141//105 144//105 138//105
f 144//106 143//106 139//106
f 143//107 142//107 140//107
f 137//108 140//108 142//108
o Cube.019
v -2.706769 0.214622 13.094699
v -2.700094 0.214622 13.208972
v -2.814367 0.214622 13.215648
v -2.821043 0.214622 13.101375
v -2.706769 1.433012 13.094699
v -2.821043 1.433012 13.101375
v -2.814367 1.433012 13.215648
v -2.700094 1.433012 13.208972
vn -0.0000 -1.0000 -0.0000
vn -0.0000 1.0000 -0.0000
vn 0.9983 -0.0000 -0.0583
vn 0.0583 -0.0000 0.9983
vn -0.9983 -0.0000 0.0583
vn -0.0583 -0.0000 -0.9983
s 1
usemtl Material.177
f 146//109 148//109 145//109
f 150//110 152//110 149//110
f 149//111 146//111 145//111
f 152//112 147//112 146//112
f 151//113 148//113 147//113
f 145//114 150//114 149//114
f 146//109 147//109 148//109
f 150//110 151//110 152//110
f 149//111 152//111 146//111
f 152//112 151//112 147//112
f 151//113 150//113 148//113
f 145//114 148//114 150//114
o Cube.020
v -4.942379 1.168114 13.337860
v -4.923838 1.327218 13.336778
v -4.920738 1.327218 13.389840
v -4.939279 1.168114 13.390923
v -2.623586 1.058614 13.255640
v -2.642126 0.899510 13.256723
v -2.626686 1.058614 13.202578
v -2.645226 0.899510 13.203661
vn 0.9916 -0.1159 -0.0579
vn -0.0583 -0.0000 -0.9983
vn -0.9916 0.1159 0.0579
vn 0.0583 -0.0000 0.9983
vn 0.1157 0.9933 -0.0068
vn -0.1157 -0.9933 0.0068
s 1
usemtl Material.178
f 154//115 156//115 153//115
f 156//116 157//116 158//116
f 157//117 160//117 158//117
f 160//118 154//118 153//118
f 158//119 153//119 156//119
f 155//120 159//120 157//120
f 154//115 155//115 156//115
f 156//116 155//116 157//116
f 157//117 159//117 160//117
f 160//118 159//118 154//118
f 158//119 160//119 153//119
f 155//120 154//120 159//120
o Cube.021
v -0.702041 0.214622 12.977583
v -0.695366 0.214622 13.091856
v -0.809638 0.214622 13.098532
v -0.816314 0.214622 12.984259
v -0.702041 1.433012 12.977583
v -0.816314 1.433012 12.984259
v -0.809638 1.433012 13.098532
v -0.695366 1.433012 13.091856
vn -0.0000 -1.0000 -0.0000
vn -0.0000 1.0000 -0.0000
vn 0.9983 -0.0000 -0.0583
vn 0.0583 -0.0000 0.9983
vn -0.9983 -0.0000 0.0583
vn -0.0583 -0.0000 -0.9983
s 1
usemtl Material.179
f 162//121 164//121 161//121
f 166//122 168//122 165//122
f 165//123 162//123 161//123
f 168//124 163//124 162//124
f 167//125 164//125 163//125
f 161//126 166//126 165//126
f 162//121 163//121 164//121
f 166//122 167//122 168//122
f 165//123 168//123 162//123
f 168//124 167//124 163//124
f 167//125 166//125 164//125
f 161//126 164//126 166//126
o Cube.022
v -2.958168 0.513070 13.221943
v -2.967443 0.672985 13.222485
v -2.964343 0.672985 13.275547
v -2.955068 0.513070 13.275005
v -0.655487 0.807362 13.140664
v -0.646212 0.647448 13.140122
v -0.658587 0.807362 13.087602
v -0.649312 0.647448 13.087060
vn 0.9966 0.0580 -0.0582
vn -0.0583 -0.0000 -0.9983
vn -0.9966 -0.0580 0.0582
vn 0.0583 -0.0000 0.9983
vn -0.0579 0.9983 0.0034
vn 0.0579 -0.9983 -0.0034
s 1
usemtl Material.180
f 170//127 172//127 169//127
f 171//128 174//128 172//128
f 173//129 176//129 174//129
f 176//130 170//130 169//130
f 174//131 169//131 172//131
f 171//132 175//132 173//132
f 170//127 171//127 172//127
f 171//128 173//128 174//128
f 173//129 175//129 176//129
f 176//130 175//130 170//130
f 174//131 176//131 169//131
f 171//132 170//132 175//132
o Cube.023
v -2.967011 1.173713 13.222460
v -2.951289 1.333121 13.221541
v -2.948189 1.333121 13.274604
v -2.963912 1.173713 13.275522
v -0.646643 1.105360 13.140148
v -0.662365 0.945952 13.141067
v -0.649743 1.105360 13.087086
v -0.665465 0.945952 13.088004
vn 0.9935 -0.0983 -0.0580
vn -0.0583 -0.0000 -0.9983
vn -0.9935 0.0983 0.0580
vn 0.0583 -0.0000 0.9983
vn 0.0981 0.9952 -0.0057
vn -0.0981 -0.9952 0.0057
s 1
usemtl Material.181
f 178//133 180//133 177//133
f 179//134 182//134 180//134
f 181//135 184//135 182//135
f 184//136 178//136 177//136
f 182//137 177//137 180//137
f 179//138 183//138 181//138
f 178//133 179//133 180//133
f 179//134 181//134 182//134
f 181//135 183//135 184//135
f 184//136 183//136 178//136
f 182//137 184//137 177//137
f 179//138 178//138 183//138
o Cube.024
v -4.674341 0.214622 13.209644
v -4.667665 0.214622 13.323917
v -4.781937 0.214622 13.330593
v -4.788613 0.214622 13.216320
v -4.674341 1.433012 13.209644
v -4.788613 1.433012 13.216320
v -4.781937 1.433012 13.330593
v -4.667665 1.433012 13.323917
vn -0.0000 -1.0000 -0.0000
vn -0.0000 1.0000 -0.0000
vn 0.9983 -0.0000 -0.0583
vn 0.0583 -0.0000 0.9983
vn -0.9983 -0.0000 0.0583
vn -0.0583 -0.0000 -0.9983
s 1
usemtl Material.182
f 186//139 188//139 185//139
f 190//140 192//140 189//140
f 189//141 186//141 185//141
f 192//142 187//142 186//142
f 191//143 188//143 187//143
f 185//144 190//144 189//144
f 186//139 187//139 188//139
f 190//140 191//140 192//140
f 189//141 192//141 186//141
f 192//142 191//142 187//142
f 191//143 190//143 188//143
f 185//144 188//144 190//144
o Cube.025
v -4.907818 0.900849 13.335841
v -4.862998 1.054612 13.333223
v -4.859898 1.054612 13.386286
v -4.904718 0.900849 13.388904
v -2.639851 0.405275 13.256591
v -2.684672 0.251512 13.259209
v -2.642951 0.405275 13.203528
v -2.687772 0.251512 13.206146
vn 0.9583 -0.2803 -0.0560
vn -0.0583 -0.0000 -0.9983
vn -0.9583 0.2803 0.0560
vn 0.0583 -0.0000 0.9983
vn 0.2798 0.9599 -0.0163
vn -0.2798 -0.9599 0.0163
s 1
usemtl Material.183
f 194//145 196//145 193//145
f 196//146 197//146 198//146
f 197//147 200//147 198//147
f 199//148 193//148 200//148
f 198//149 193//149 196//149
f 195//150 199//150 197//150
f 194//145 195//145 196//145
f 196//146 195//146 197//146
f 197//147 199//147 200//147
f 199//148 194//148 193//148
f 198//149 200//149 193//149
f 195//150 194//150 199//150
o Cube.026
v 3.688682 0.900849 12.448878
v 3.732800 1.054612 12.440557
v 3.742652 1.054612 12.492788
v 3.698534 0.900849 12.501110
v 5.927951 0.405275 12.080598
v 5.883832 0.251512 12.088920
v 5.918098 0.405275 12.028366
v 5.873980 0.251512 12.036688
vn 0.9433 -0.2803 -0.1779
vn -0.1854 -0.0000 -0.9827
vn -0.9433 0.2803 0.1779
vn 0.1854 -0.0000 0.9827
vn 0.2754 0.9599 -0.0520
vn -0.2754 -0.9599 0.0520
s 1
usemtl Material.184
f 202//151 204//151 201//151
f 204//152 205//152 206//152
f 205//153 208//153 206//153
f 207//154 201//154 208//154
f 206//155 201//155 204//155
f 203//156 207//156 205//156
f 202//151 203//151 204//151
f 204//152 203//152 205//152
f 205//153 207//153 208//153
f 207//154 202//154 201//154
f 206//155 208//155 201//155
f 203//156 202//156 207//156
o Cube.027
v 3.904128 0.214622 12.293894
v 3.925345 0.214622 12.406378
v 3.812861 0.214622 12.427595
v 3.791645 0.214622 12.315110
v 3.904128 1.433012 12.293894
v 3.791645 1.433012 12.315110
v 3.812861 1.433012 12.427595
v 3.925345 1.433012 12.406378
vn -0.0000 -1.0000 -0.0000
vn -0.0000 1.0000 -0.0000
vn 0.9827 -0.0000 -0.1854
vn 0.1854 -0.0000 0.9827
vn -0.9827 -0.0000 0.1854
vn -0.1854 -0.0000 -0.9827
s 1
usemtl Material.185
f 210//157 212//157 209//157
f 214//158 216//158 213//158
f 213//159 210//159 209//159
f 216//160 211//160 210//160
f 215//161 212//161 211//161
f 209//162 214//162 213//162
f 210//157 211//157 212//157
f 214//158 215//158 216//158
f 213//159 216//159 210//159
f 216//160 215//160 211//160
f 215//161 214//161 212//161
f 209//162 212//162 214//162
o Cube.028
v 5.599111 1.173713 12.088533
v 5.614586 1.333121 12.085614
v 5.624439 1.333121 12.137846
v 5.608963 1.173713 12.140765
v 7.889960 1.105360 11.710524
v 7.874484 0.945952 11.713443
v 7.880108 1.105360 11.658292
v 7.864632 0.945952 11.661211
vn 0.9779 -0.0983 -0.1845
vn -0.1854 -0.0000 -0.9827
vn -0.9779 0.0983 0.1845
vn 0.1854 -0.0000 0.9827
vn 0.0966 0.9952 -0.0182
vn -0.0966 -0.9952 0.0182
s 1
usemtl Material.186
f 218//163 220//163 217//163
f 219//164 222//164 220//164
f 221//165 224//165 222//165
f 224//166 218//166 217//166
f 222//167 217//167 220//167
f 219//168 223//168 221//168
f 218//163 219//163 220//163
f 219//164 221//164 222//164
f 221//165 223//165 224//165
f 224//166 223//166 218//166
f 222//167 224//167 217//167
f 219//168 218//168 223//168
o Cube.029
v 5.607816 0.513070 12.086891
v 5.598686 0.672985 12.088614
v 5.608538 0.672985 12.140845
v 5.617668 0.513070 12.139123
v 7.881254 0.807362 11.712166
v 7.890385 0.647448 11.710443
v 7.871403 0.807362 11.659934
v 7.880532 0.647448 11.658212
vn 0.9810 0.0580 -0.1850
vn -0.1854 -0.0000 -0.9827
vn -0.9810 -0.0580 0.1850
vn 0.1854 -0.0000 0.9827
vn -0.0570 0.9983 0.0108
vn 0.0570 -0.9983 -0.0108
s 1
usemtl Material.187
f 226//169 228//169 225//169
f 227//170 230//170 228//170
f 229//171 232//171 230//171
f 232//172 226//172 225//172
f 230//173 225//173 228//173
f 227//174 231//174 229//174
f 226//169 227//169 228//169
f 227//170 229//170 230//170
f 229//171 231//171 232//171
f 232//172 231//172 226//172
f 230//173 232//173 225//173
f 227//174 226//174 231//174
o Cube.030
v 7.814252 0.214622 11.556366
v 7.835469 0.214622 11.668851
v 7.722985 0.214622 11.690067
v 7.701768 0.214622 11.577582
v 7.814252 1.433012 11.556366
v 7.701768 1.433012 11.577583
v 7.722985 1.433012 11.690067
v 7.835469 1.433012 11.668851
vn -0.0000 -1.0000 -0.0000
vn -0.0000 1.0000 -0.0000
vn 0.9827 -0.0000 -0.1854
vn 0.1854 -0.0000 0.9827
vn -0.9827 -0.0000 0.1854
vn -0.1854 -0.0000 -0.9827
s 1
usemtl Material.188
f 234//175 236//175 233//175
f 238//176 240//176 237//176
f 237//177 234//177 233//177
f 240//178 235//178 234//178
f 239//179 236//179 235//179
f 233//180 238//180 237//180
f 234//175 235//175 236//175
f 238//176 239//176 240//176
f 237//177 240//177 234//177
f 240//178 239//178 235//178
f 239//179 238//179 236//179
f 233//180 236//180 238//180
o Cube.031
v 3.654662 1.168114 12.455296
v 3.672913 1.327218 12.451853
v 3.682765 1.327218 12.504085
v 3.664514 1.168114 12.507527
v 5.943961 1.058614 12.077578
v 5.925711 0.899510 12.081020
v 5.934109 1.058614 12.025346
v 5.915859 0.899510 12.028789
vn 0.9760 -0.1159 -0.1841
vn -0.1854 -0.0000 -0.9827
vn -0.9760 0.1159 0.1841
vn 0.1854 -0.0000 0.9827
vn 0.1139 0.9933 -0.0215
vn -0.1139 -0.9933 0.0215
s 1
usemtl Material.189
f 242//181 244//181 241//181
f 244//182 245//182 246//182
f 245//183 248//183 246//183
f 248//184 242//184 241//184
f 246//185 241//185 244//185
f 243//186 247//186 245//186
f 242//181 243//181 244//181
f 244//182 243//182 245//182
f 245//183 247//183 248//183
f 248//184 247//184 242//184
f 246//185 248//185 241//185
f 243//186 242//186 247//186
o Cube.032
v 5.840902 0.214622 11.928579
v 5.862119 0.214622 12.041063
v 5.749635 0.214622 12.062281
v 5.728418 0.214622 11.949796
v 5.840902 1.433012 11.928579
v 5.728418 1.433012 11.949797
v 5.749635 1.433012 12.062281
v 5.862119 1.433012 12.041064
vn -0.0000 -1.0000 -0.0000
vn -0.0000 1.0000 -0.0000
vn 0.9827 -0.0000 -0.1854
vn 0.1854 -0.0000 0.9827
vn -0.9827 -0.0000 0.1854
vn -0.1854 -0.0000 -0.9827
s 1
usemtl Material.190
f 250//187 252//187 249//187
f 254//188 256//188 253//188
f 253//189 250//189 249//189
f 256//190 251//190 250//190
f 255//191 252//191 251//191
f 249//192 254//192 253//192
f 250//187 251//187 252//187
f 254//188 255//188 256//188
f 253//189 256//189 250//189
f 256//190 255//190 251//190
f 255//191 254//191 252//191
f 249//192 252//192 254//192
o Cube.033
v -7.759195 0.213502 -10.468584
v -7.767087 0.210968 -10.582751
v -7.653199 0.219186 -10.590807
v -7.645307 0.221719 -10.476639
v -7.848329 1.428449 -10.489388
v -7.734441 1.436666 -10.497443
v -7.742333 1.434133 -10.611610
v -7.856221 1.425915 -10.603556
vn 0.0732 -0.9972 0.0171
vn -0.0732 0.9972 -0.0171
vn -0.9949 -0.0718 0.0704
vn -0.0689 -0.0221 -0.9974
vn 0.9949 0.0718 -0.0704
vn 0.0689 0.0221 0.9974
s 1
usemtl Material.191
f 258//193 260//193 257//193
f 262//194 264//194 261//194
f 261//195 258//195 257//195
f 264//196 259//196 258//196
f 263//197 260//197 259//197
f 257//198 262//198 261//198
f 258//193 259//193 260//193
f 262//194 263//194 264//194
f 261//195 264//195 258//195
f 264//196 263//196 259//196
f 263//197 262//197 260//197
f 257//198 260//198 262//198
o Cube.034
v -5.602089 1.323047 -10.754987
v -5.632207 1.480368 -10.756397
v -5.635871 1.479191 -10.809410
v -5.605754 1.321870 -10.808001
v -7.905634 1.046157 -10.642897
v -7.875516 0.888836 -10.641486
v -7.901969 1.047334 -10.589883
v -7.871851 0.890013 -10.588473
vn -0.9797 -0.1869 0.0719
vn 0.0689 0.0221 0.9974
vn 0.9797 0.1869 -0.0719
vn -0.0689 -0.0221 -0.9974
vn -0.1880 0.9821 -0.0088
vn 0.1880 -0.9821 0.0088
s 1
usemtl Material.192
f 266//199 268//199 265//199
f 268//200 269//200 270//200
f 269//201 272//201 270//201
f 272//202 266//202 265//202
f 270//203 265//203 268//203
f 267//204 271//204 269//204
f 266//199 267//199 268//199
f 268//200 267//200 269//200
f 269//201 271//201 272//201
f 272//202 271//202 266//202
f 270//203 272//203 265//203
f 267//204 266//204 271//204
o Cube.035
v -9.757169 0.069342 -10.327270
v -9.765060 0.066808 -10.441437
v -9.651174 0.075025 -10.449492
v -9.643282 0.077559 -10.335324
v -9.846302 1.284289 -10.348073
v -9.732415 1.292506 -10.356129
v -9.740307 1.289972 -10.470296
v -9.854195 1.281755 -10.462241
vn 0.0732 -0.9972 0.0171
vn -0.0732 0.9972 -0.0171
vn -0.9949 -0.0718 0.0704
vn -0.0689 -0.0221 -0.9974
vn 0.9949 0.0718 -0.0704
vn 0.0689 0.0221 0.9974
s 1
usemtl Material.193
f 274//205 276//205 273//205
f 278//206 280//206 277//206
f 277//207 274//207 273//207
f 280//208 275//208 274//208
f 279//209 276//209 275//209
f 273//210 278//210 277//210
f 274//205 275//205 276//205
f 278//206 279//206 280//206
f 277//207 280//207 274//207
f 280//208 279//208 275//208
f 279//209 278//209 276//209
f 273//210 276//210 278//210
o Cube.036
v -7.531693 0.527169 -10.603934
v -7.534149 0.687299 -10.607319
v -7.537813 0.686122 -10.660332
v -7.535358 0.525992 -10.656947
v -9.848721 0.654089 -10.499874
v -9.846266 0.493960 -10.496490
v -9.845056 0.655266 -10.446860
v -9.842601 0.495137 -10.443476
vn -0.9975 -0.0138 0.0693
vn 0.0689 0.0221 0.9974
vn 0.9975 0.0138 -0.0693
vn -0.0689 -0.0221 -0.9974
vn -0.0153 0.9997 -0.0211
vn 0.0153 -0.9997 0.0211
s 1
usemtl Material.194
f 282//211 284//211 281//211
f 283//212 286//212 284//212
f 285//213 288//213 286//213
f 288//214 282//214 281//214
f 286//215 281//215 284//215
f 283//216 287//216 285//216
f 282//211 283//211 284//211
f 283//212 285//212 286//212
f 285//213 287//213 288//213
f 288//214 287//214 282//214
f 286//215 288//215 281//215
f 283//216 282//216 287//216
o Cube.037
v -7.571210 1.186581 -10.615838
v -7.598541 1.344408 -10.617452
v -7.602206 1.343231 -10.670465
v -7.574875 1.185404 -10.668852
v -9.879335 0.950609 -10.504338
v -9.852004 0.792782 -10.502725
v -9.875670 0.951786 -10.451325
v -9.848339 0.793959 -10.449712
vn -0.9829 -0.1695 0.0717
vn 0.0689 0.0221 0.9974
vn 0.9829 0.1695 -0.0717
vn -0.0689 -0.0221 -0.9974
vn -0.1706 0.9853 -0.0101
vn 0.1706 -0.9853 0.0101
s 1
usemtl Material.195
f 290//217 292//217 289//217
f 291//218 294//218 292//218
f 293//219 296//219 294//219
f 296//220 290//220 289//220
f 294//221 289//221 292//221
f 291//222 295//222 293//222
f 290//217 291//217 292//217
f 291//218 293//218 294//218
f 293//219 295//219 296//219
f 296//220 295//220 290//220
f 294//221 296//221 289//221
f 291//222 290//222 295//222
o Cube.038
v -5.798253 0.354990 -10.607279
v -5.806145 0.352456 -10.721447
v -5.692258 0.360674 -10.729502
v -5.684366 0.363208 -10.615335
v -5.887387 1.569937 -10.628083
v -5.773499 1.578155 -10.636138
v -5.781392 1.575621 -10.750306
v -5.895279 1.567404 -10.742250
vn 0.0732 -0.9972 0.0171
vn -0.0732 0.9972 -0.0171
vn -0.9949 -0.0718 0.0704
vn -0.0689 -0.0221 -0.9974
vn 0.9949 0.0718 -0.0704
vn 0.0689 0.0221 0.9974
s 1
usemtl Material.196
f 298//223 300//223 297//223
f 302//224 304//224 301//224
f 301//225 298//225 297//225
f 304//226 299//226 298//226
f 303//227 300//227 299//227
f 297//228 302//228 301//228
f 298//223 299//223 300//223
f 302//224 303//224 304//224
f 301//225 304//225 298//225
f 304//226 303//226 299//226
f 303//227 302//227 300//227
f 297//228 300//228 302//228
o Cube.039
v -5.616981 1.054052 -10.747988
v -5.672899 1.204157 -10.747454
v -5.676563 1.202980 -10.800467
v -5.620646 1.052875 -10.801001
v -7.841627 0.395834 -10.632887
v -7.785708 0.245729 -10.633421
v -7.837962 0.397011 -10.579874
v -7.782044 0.246905 -10.580407
vn -0.9346 -0.3484 0.0723
vn -0.9345 -0.3484 0.0723
vn 0.0689 0.0221 0.9974
vn 0.9345 0.3484 -0.0723
vn -0.0689 -0.0221 -0.9974
vn -0.3491 0.9371 0.0033
vn 0.3491 -0.9371 -0.0033
s 1
usemtl Material.197
f 306//229 308//230 305//230
f 308//231 309//231 310//231
f 309//232 312//232 310//232
f 311//233 305//233 312//233
f 310//234 305//234 308//234
f 307//235 311//235 309//235
f 306//229 307//229 308//230
f 308//231 307//231 309//231
f 309//232 311//232 312//232
f 311//233 306//233 305//233
f 310//234 312//234 305//234
f 307//235 306//235 311//235
o Cube.040
v 2.871289 0.900861 -10.675044
v 2.826636 1.054624 -10.670371
v 2.821103 1.054624 -10.723236
v 2.865756 0.900861 -10.727909
v 0.609350 0.405287 -10.491770
v 0.654003 0.251524 -10.496443
v 0.614882 0.405287 -10.438906
v 0.659536 0.251524 -10.443579
vn -0.9547 -0.2803 0.0999
vn 0.1041 -0.0000 0.9946
vn 0.9547 0.2803 -0.0999
vn -0.1041 -0.0000 -0.9946
vn -0.2788 0.9599 0.0292
vn 0.2788 -0.9599 -0.0292
s 1
usemtl Material.198
f 314//236 316//236 313//236
f 316//237 317//237 318//237
f 317//238 320//238 318//238
f 319//239 313//239 320//239
f 318//240 313//240 316//240
f 315//241 319//241 317//241
f 314//236 315//236 316//236
f 316//237 315//237 317//237
f 317//238 319//238 320//238
f 319//239 314//239 313//239
f 318//240 320//240 313//240
f 315//241 314//241 319//241
o Cube.041
v 2.643850 0.214634 -10.538262
v 2.631936 0.214634 -10.652109
v 2.745781 0.214634 -10.664023
v 2.757695 0.214634 -10.550177
v 2.643850 1.433024 -10.538262
v 2.757695 1.433024 -10.550177
v 2.745781 1.433024 -10.664023
v 2.631936 1.433024 -10.652109
vn -0.0000 -1.0000 -0.0000
vn -0.0000 1.0000 -0.0000
vn -0.9946 -0.0000 0.1041
vn -0.1041 -0.0000 -0.9946
vn 0.9946 -0.0000 -0.1041
vn 0.1041 -0.0000 0.9946
s 1
usemtl Material.199
f 322//242 324//242 321//242
f 326//243 328//243 325//243
f 325//244 322//244 321//244
f 328//245 323//245 322//245
f 327//246 324//246 323//246
f 321//247 326//247 325//247
f 322//242 323//242 324//242
f 326//243 327//243 328//243
f 325//244 328//244 322//244
f 328//245 327//245 323//245
f 327//246 326//246 324//246
f 321//247 324//247 326//247
o Cube.042
v 2.905720 1.168126 -10.678648
v 2.887249 1.327230 -10.676715
v 2.881716 1.327230 -10.729579
v 2.900187 1.168126 -10.731512
v 0.593145 1.058626 -10.490074
v 0.611617 0.899522 -10.492007
v 0.598678 1.058626 -10.437210
v 0.617149 0.899522 -10.439143
vn -0.9879 -0.1159 0.1034
vn 0.1041 -0.0000 0.9946
vn 0.9879 0.1159 -0.1034
vn -0.1041 -0.0000 -0.9946
vn -0.1153 0.9933 0.0121
vn 0.1153 -0.9933 -0.0121
s 1
usemtl Material.200
f 330//248 332//248 329//248
f 332//249 333//249 334//249
f 333//250 336//250 334//250
f 336//251 330//251 329//251
f 334//252 329//252 332//252
f 331//253 335//253 333//253
f 330//248 331//248 332//248
f 332//249 331//249 333//249
f 333//250 335//250 336//250
f 336//251 335//251 330//251
f 334//252 336//252 329//252
f 331//253 330//253 335//253
o Cube.043
v 0.683629 0.214634 -10.333120
v 0.671715 0.214634 -10.446967
v 0.785561 0.214634 -10.458881
v 0.797476 0.214634 -10.345035
v 0.683629 1.433024 -10.333120
v 0.797476 1.433024 -10.345035
v 0.785561 1.433024 -10.458881
v 0.671715 1.433024 -10.446967
vn -0.0000 -1.0000 -0.0000
vn -0.0000 1.0000 -0.0000
vn -0.9946 -0.0000 0.1041
vn -0.1041 -0.0000 -0.9946
vn 0.9946 -0.0000 -0.1041
vn 0.1041 -0.0000 0.9946
s 1
usemtl Material.201
f 338//254 340//254 337//254
f 342//255 344//255 341//255
f 341//256 338//256 337//256
f 344//257 339//257 338//257
f 343//258 340//258 339//258
f 337//259 342//259 341//259
f 338//254 339//254 340//254
f 342//255 343//255 344//255
f 341//256 344//256 338//256
f 344//257 343//257 339//257
f 343//258 342//258 340//258
f 337//259 340//259 342//259
o Cube.044
v -10.518886 0.214634 11.693239
v -10.630225 0.214634 11.719818
v -10.656804 0.214634 11.608479
v -10.545465 0.214634 11.581900
v -10.518886 1.433024 11.693239
v -10.545465 1.433024 11.581900
v -10.656804 1.433024 11.608479
v -10.630225 1.433024 11.719818
vn -0.0000 -1.0000 -0.0000
vn -0.0000 1.0000 -0.0000
vn 0.2322 -0.0000 0.9727
vn -0.9727 -0.0000 0.2322
vn -0.2322 -0.0000 -0.9727
vn 0.9727 -0.0000 -0.2322
s 1
usemtl Material.202
f 346//260 348//260 345//260
f 350//261 352//261 349//261
f 349//262 346//262 345//262
f 352//263 347//263 346//263
f 351//264 348//264 347//264
f 345//265 350//265 349//265
f 346//260 347//260 348//260
f 350//261 351//261 352//261
f 349//262 352//262 346//262
f 352//263 351//263 347//263
f 351//264 350//264 348//264
f 345//265 348//265 350//265
o Cube.045
v -11.149687 1.168126 9.534729
v -11.145374 1.327230 9.552794
v -11.197075 1.327230 9.565136
v -11.201386 1.168126 9.547071
v -10.662779 1.058626 11.803315
v -10.667090 0.899522 11.785251
v -10.611078 1.058626 11.790973
v -10.615391 0.899522 11.772908
vn 0.2306 -0.1159 0.9661
vn 0.9727 -0.0000 -0.2322
vn -0.2306 0.1159 -0.9661
vn -0.9727 -0.0000 0.2322
vn 0.0269 0.9933 0.1128
vn -0.0269 -0.9933 -0.1128
s 1
usemtl Material.203
f 354//266 356//266 353//266
f 356//267 357//267 358//267
f 357//268 360//268 358//268
f 360//269 354//269 353//269
f 358//270 353//270 356//270
f 355//271 359//271 357//271
f 354//266 355//266 356//266
f 356//267 355//267 357//267
f 357//268 359//268 360//268
f 360//269 359//269 354//269
f 358//270 360//270 353//270
f 355//271 354//271 359//271
o Cube.046
v -10.976524 0.214634 9.776180
v -11.087864 0.214634 9.802759
v -11.114443 0.214634 9.691421
v -11.003103 0.214634 9.664842
v -10.976524 1.433024 9.776180
v -11.003103 1.433024 9.664842
v -11.114443 1.433024 9.691421
v -11.087864 1.433024 9.802759
vn -0.0000 -1.0000 -0.0000
vn -0.0000 1.0000 -0.0000
vn 0.2322 -0.0000 0.9727
vn -0.9727 -0.0000 0.2322
vn -0.2322 -0.0000 -0.9727
vn 0.9727 -0.0000 -0.2322
s 1
usemtl Material.204
f 362//272 364//272 361//272
f 366//273 368//273 365//273
f 365//274 362//274 361//274
f 368//275 363//275 362//275
f 367//276 364//276 363//276
f 361//277 366//277 365//277
f 362//272 363//272 364//272
f 366//273 367//273 368//273
f 365//274 368//274 362//274
f 368//275 367//275 363//275
f 367//276 366//276 364//276
f 361//277 364//277 366//277
o Cube.047
v -11.141648 0.900861 9.568402
v -11.131224 1.054624 9.612072
v -11.182923 1.054624 9.624413
v -11.193348 0.900861 9.580744
v -10.666561 0.405287 11.787467
v -10.676987 0.251524 11.743797
v -10.614861 0.405287 11.775126
v -10.625286 0.251524 11.731455
vn 0.2229 -0.2803 0.9337
vn 0.9727 -0.0000 -0.2322
vn -0.2229 0.2803 -0.9337
vn -0.9727 -0.0000 0.2322
vn 0.0651 0.9599 0.2726
vn -0.0651 -0.9599 -0.2726
s 1
usemtl Material.205
f 370//278 372//278 369//278
f 372//279 373//279 374//279
f 373//280 376//280 374//280
f 375//281 369//281 376//281
f 374//282 369//282 372//282
f 371//283 375//283 373//283
f 370//278 371//278 372//278
f 372//279 371//279 373//279
f 373//280 375//280 376//280
f 375//281 370//281 369//281
f 374//282 376//282 369//282
f 371//283 370//283 375//283
o Cube.048
v 11.040962 0.900861 -9.578896
v 10.999868 1.054624 -9.596978
v 11.021276 1.054624 -9.645630
v 11.062370 0.900861 -9.627547
v 8.985776 0.405287 -10.541268
v 9.026871 0.251524 -10.523187
v 8.964369 0.405287 -10.492618
v 9.005464 0.251524 -10.474535
vn -0.8786 -0.2803 -0.3866
vn -0.4027 -0.0000 0.9153
vn 0.8786 0.2803 0.3866
vn 0.4027 -0.0000 -0.9153
vn -0.2565 0.9599 -0.1129
vn 0.2565 -0.9599 0.1129
s 1
usemtl Material.206
f 378//284 380//284 377//284
f 380//285 381//285 382//285
f 381//286 384//286 382//286
f 383//287 377//287 384//287
f 382//288 377//288 380//288
f 379//289 383//289 381//289
f 378//284 379//284 380//284
f 380//285 379//285 381//285
f 381//286 383//286 384//286
f 383//287 378//287 377//287
f 382//288 384//288 377//288
f 379//289 378//289 383//289
o Cube.049
v 10.775630 0.214634 -9.572882
v 10.821732 0.214634 -9.677656
v 10.926505 0.214634 -9.631555
v 10.880404 0.214634 -9.526781
v 10.775630 1.433024 -9.572883
v 10.880404 1.433024 -9.526781
v 10.926505 1.433024 -9.631556
v 10.821732 1.433024 -9.677656
vn -0.0000 -1.0000 -0.0000
vn -0.0000 1.0000 -0.0000
vn -0.9153 -0.0000 -0.4027
vn 0.4027 -0.0000 -0.9153
vn 0.9153 -0.0000 0.4027
vn -0.4027 -0.0000 0.9153
s 1
usemtl Material.207
f 386//290 388//290 385//290
f 390//291 392//291 389//291
f 389//292 386//292 385//292
f 392//293 387//293 386//293
f 391//294 388//294 387//294
f 385//295 390//295 389//295
f 386//290 387//290 388//290
f 390//291 391//291 392//291
f 389//292 392//292 386//292
f 392//293 391//293 387//293
f 391//294 390//294 388//294
f 385//295 388//295 390//295
o Cube.050
v 11.072650 1.168126 -9.564953
v 11.055651 1.327230 -9.572433
v 11.077058 1.327230 -9.621085
v 11.094057 1.168126 -9.613605
v 8.970862 1.058626 -10.547831
v 8.987862 0.899522 -10.540351
v 8.949455 1.058626 -10.499179
v 8.966455 0.899522 -10.491699
vn -0.9091 -0.1159 -0.4000
vn -0.4027 -0.0000 0.9153
vn 0.9091 0.1159 0.4000
vn 0.4027 -0.0000 -0.9153
vn -0.1061 0.9933 -0.0467
vn 0.1061 -0.9933 0.0467
s 1
usemtl Material.208
f 394//296 396//296 393//296
f 396//297 397//297 398//297
f 397//298 400//298 398//298
f 400//299 394//299 393//299
f 398//300 393//300 396//300
f 395//301 399//301 397//301
f 394//296 395//296 396//296
f 396//297 395//297 397//297
f 397//298 399//298 400//298
f 400//299 399//299 394//299
f 398//300 400//300 393//300
f 395//301 394//301 399//301
o Cube.051
v 8.971619 0.214634 -10.366665
v 9.017720 0.214634 -10.471438
v 9.122494 0.214634 -10.425337
v 9.076392 0.214634 -10.320563
v 8.971619 1.433024 -10.366665
v 9.076392 1.433024 -10.320563
v 9.122494 1.433024 -10.425337
v 9.017720 1.433024 -10.471438
vn -0.0000 -1.0000 -0.0000
vn -0.0000 1.0000 -0.0000
vn -0.9153 -0.0000 -0.4027
vn 0.4027 -0.0000 -0.9153
vn 0.9153 -0.0000 0.4027
vn -0.4027 -0.0000 0.9153
s 1
usemtl Material.209
f 402//302 404//302 401//302
f 406//303 408//303 405//303
f 405//304 402//304 401//304
f 408//305 403//305 402//305
f 407//306 404//306 403//306
f 401//307 406//307 405//307
f 402//302 403//302 404//302
f 406//303 407//303 408//303
f 405//304 408//304 402//304
f 408//305 407//305 403//305
f 407//306 406//306 404//306
f 401//307 404//307 406//307
o Cube.052
v 10.911941 0.214634 3.145113
v 11.019772 0.214634 3.106702
v 11.058183 0.214634 3.214533
v 10.950352 0.214634 3.252944
v 10.911941 1.433024 3.145113
v 10.950352 1.433024 3.252944
v 11.058183 1.433024 3.214533
v 11.019772 1.433024 3.106702
vn -0.0000 -1.0000 -0.0000
vn -0.0000 1.0000 -0.0000
vn -0.3356 -0.0000 -0.9420
vn 0.9420 -0.0000 -0.3356
vn 0.3356 -0.0000 0.9420
vn -0.9420 -0.0000 0.3356
s 1
usemtl Material.210
f 410//308 412//308 409//308
f 414//309 416//309 413//309
f 413//310 410//310 409//310
f 416//311 411//311 410//311
f 415//312 412//312 411//312
f 409//313 414//313 413//313
f 410//308 411//308 412//308
f 414//309 415//309 416//309
f 413//310 416//310 410//310
f 416//311 415//311 411//311
f 415//312 414//312 412//312
f 409//313 412//313 414//313
o Cube.053
v 11.771451 1.168126 5.223168
v 11.765219 1.327230 5.205673
v 11.815289 1.327230 5.187838
v 11.821522 1.168126 5.205333
v 11.043147 1.058626 3.020186
v 11.049379 0.899522 3.037681
v 10.993076 1.058626 3.038022
v 10.999308 0.899522 3.055517
vn -0.3333 -0.1159 -0.9357
vn -0.9420 -0.0000 0.3356
vn 0.3333 0.1159 0.9357
vn 0.9420 -0.0000 -0.3356
vn -0.0389 0.9933 -0.1092
vn 0.0389 -0.9933 0.1092
s 1
usemtl Material.211
f 418//314 420//314 417//314
f 420//315 421//315 422//315
f 421//316 424//316 422//316
f 424//317 418//317 417//317
f 422//318 417//318 420//318
f 419//319 423//319 421//319
f 418//314 419//314 420//314
f 420//315 419//315 421//315
f 421//316 423//316 424//316
f 424//317 423//317 418//317
f 422//318 424//318 417//318
f 419//319 418//319 423//319
o Cube.054
v 11.573301 0.214634 5.001763
v 11.681132 0.214634 4.963353
v 11.719543 0.214634 5.071183
v 11.611712 0.214634 5.109593
v 11.573301 1.433024 5.001763
v 11.611712 1.433024 5.109593
v 11.719543 1.433024 5.071182
v 11.681132 1.433024 4.963352
vn -0.0000 -1.0000 -0.0000
vn -0.0000 1.0000 -0.0000
vn -0.3356 -0.0000 -0.9420
vn 0.9420 -0.0000 -0.3356
vn 0.3356 -0.0000 0.9420
vn -0.9420 -0.0000 0.3356
s 1
usemtl Material.212
f 426//320 428//320 425//320
f 430//321 432//321 429//321
f 429//322 426//322 425//322
f 432//323 427//323 426//323
f 431//324 428//324 427//324
f 425//325 430//325 429//325
f 426//320 427//320 428//320
f 430//321 431//321 432//321
f 429//322 432//322 426//322
f 432//323 431//323 427//323
f 431//324 430//324 428//324
f 425//325 428//325 430//325
o Cube.055
v 11.759834 0.900861 5.190557
v 11.744768 1.054624 5.148263
v 11.794840 1.054624 5.130427
v 11.809905 0.900861 5.172721
v 11.048615 0.405287 3.035534
v 11.063680 0.251524 3.077828
v 10.998543 0.405287 3.053370
v 11.013609 0.251524 3.095664
vn -0.3221 -0.2803 -0.9043
vn -0.9420 -0.0000 0.3356
vn 0.3221 0.2803 0.9043
vn 0.9420 -0.0000 -0.3356
vn -0.0941 0.9599 -0.2640
vn 0.0941 -0.9599 0.2640
s 1
usemtl Material.213
f 434//326 436//326 433//326
f 436//327 437//327 438//327
f 437//328 440//328 438//328
f 439//329 433//329 440//329
f 438//330 433//330 436//330
f 435//331 439//331 437//331
f 434//326 435//326 436//326
f 436//327 435//327 437//327
f 437//328 439//328 440//328
f 439//329 434//329 433//329
f 438//330 440//330 433//330
f 435//331 434//331 439//331
o Cube.056
v -2.582838 0.214634 -9.924668
v -2.475006 0.214634 -9.963079
v -2.436596 0.214634 -9.855248
v -2.544427 0.214634 -9.816837
v -2.582837 1.433024 -9.924668
v -2.544427 1.433024 -9.816837
v -2.436595 1.433024 -9.855248
v -2.475006 1.433024 -9.963079
vn -0.0000 -1.0000 -0.0000
vn -0.0000 1.0000 -0.0000
vn -0.3356 -0.0000 -0.9420
vn 0.9420 -0.0000 -0.3356
vn 0.3356 -0.0000 0.9420
vn -0.9420 -0.0000 0.3356
s 1
usemtl Material.214
f 442//332 444//332 441//332
f 446//333 448//333 445//333
f 445//334 442//334 441//334
f 448//335 443//335 442//335
f 447//336 444//336 443//336
f 441//337 446//337 445//337
f 442//332 443//332 444//332
f 446//333 447//333 448//333
f 445//334 448//334 442//334
f 448//335 447//335 443//335
f 447//336 446//336 444//336
f 441//337 444//337 446//337
o Cube.057
v -0.589833 1.168126 -10.113647
v -0.608304 1.327230 -10.111714
v -0.613837 1.327230 -10.164578
v -0.595366 1.168126 -10.166512
v -2.902407 1.058626 -9.925074
v -2.883936 0.899522 -9.927007
v -2.896875 1.058626 -9.872210
v -2.878404 0.899522 -9.874143
vn -0.9879 -0.1159 0.1034
vn 0.1041 -0.0000 0.9946
vn 0.9879 0.1159 -0.1034
vn -0.1041 -0.0000 -0.9946
vn -0.1153 0.9933 0.0121
vn 0.1153 -0.9933 -0.0121
s 1
usemtl Material.215
f 450//338 452//338 449//338
f 452//339 453//339 454//339
f 453//340 456//340 454//340
f 456//341 450//341 449//341
f 454//342 449//342 452//342
f 451//343 455//343 453//343
f 450//338 451//338 452//338
f 452//339 451//339 453//339
f 453//340 455//340 456//340
f 456//341 455//341 450//341
f 454//342 456//342 449//342
f 451//343 450//343 455//343
o Cube.058
v -1.077023 0.214634 -10.024899
v -1.088937 0.214634 -10.138745
v -0.975092 0.214634 -10.150660
v -0.963178 0.214634 -10.036813
v -1.077023 1.433024 -10.024899
v -0.963178 1.433024 -10.036813
v -0.975092 1.433024 -10.150660
v -1.088937 1.433024 -10.138745
vn -0.0000 -1.0000 -0.0000
vn -0.0000 1.0000 -0.0000
vn -0.9946 -0.0000 0.1041
vn -0.1041 -0.0000 -0.9946
vn 0.9946 -0.0000 -0.1041
vn 0.1041 -0.0000 0.9946
s 1
usemtl Material.216
f 458//344 460//344 457//344
f 462//345 464//345 461//345
f 461//346 458//346 457//346
f 464//347 459//347 458//347
f 463//348 460//348 459//348
f 457//349 462//349 461//349
f 458//344 459//344 460//344
f 462//345 463//345 464//345
f 461//346 464//346 458//346
f 464//347 463//347 459//347
f 463//348 462//348 460//348
f 457//349 460//349 462//349
