# Blender 5.0.0
# www.blender.org
mtllib GoldenMoleCoin.mtl
o Coin.001
v -0.000000 1.214294 1.428033
v -0.009952 1.273604 1.438033
v 0.009952 1.273604 1.438033
v -0.000000 1.214294 1.528033
v 0.009952 1.273604 1.518034
v -0.009952 1.273604 1.518034
v 0.085783 1.205845 1.428033
v 0.087593 1.265957 1.438033
v 0.107114 1.262074 1.438033
v 0.085783 1.205845 1.528033
v 0.107114 1.262074 1.518034
v 0.087593 1.265957 1.518034
v 0.168269 1.180823 1.428033
v 0.181772 1.239426 1.438033
v 0.200161 1.231810 1.438033
v 0.168269 1.180823 1.528033
v 0.200161 1.231810 1.518034
v 0.181772 1.239426 1.518034
v 0.244289 1.140189 1.428033
v 0.268966 1.195033 1.438034
v 0.285515 1.183975 1.438034
v 0.244289 1.140189 1.528033
v 0.285515 1.183975 1.518034
v 0.268966 1.195033 1.518034
v 0.310921 1.085506 1.428034
v 0.345823 1.134481 1.438034
v 0.359897 1.120407 1.438034
v 0.310921 1.085506 1.528034
v 0.359897 1.120407 1.518034
v 0.345823 1.134481 1.518034
v 0.365605 1.018874 1.428034
v 0.409391 1.060099 1.438034
v 0.420448 1.043550 1.438034
v 0.365605 1.018874 1.528034
v 0.420448 1.043550 1.518034
v 0.409391 1.060099 1.518034
v 0.406238 0.942854 1.428034
v 0.457225 0.974745 1.438034
v 0.464842 0.956356 1.438034
v 0.406238 0.942854 1.528034
v 0.464842 0.956356 1.518034
v 0.457225 0.974745 1.518034
v 0.431260 0.860367 1.428034
v 0.487489 0.881698 1.438034
v 0.491372 0.862177 1.438034
v 0.431260 0.860367 1.528034
v 0.491372 0.862177 1.518034
v 0.487489 0.881698 1.518034
v 0.439709 0.774584 1.428034
v 0.499019 0.784536 1.438034
v 0.499019 0.764632 1.438034
v 0.439709 0.774584 1.528034
v 0.499019 0.764632 1.518034
v 0.499019 0.784536 1.518034
v 0.431260 0.688801 1.428034
v 0.491372 0.686991 1.438034
v 0.487489 0.667469 1.438034
v 0.431260 0.688801 1.528034
v 0.487489 0.667469 1.518034
v 0.491372 0.686991 1.518034
v 0.406238 0.606314 1.428034
v 0.464842 0.592812 1.438034
v 0.457225 0.574423 1.438034
v 0.406238 0.606314 1.528034
v 0.457225 0.574423 1.518034
v 0.464842 0.592812 1.518034
v 0.365605 0.530294 1.428034
v 0.420448 0.505618 1.438034
v 0.409391 0.489069 1.438034
v 0.365605 0.530294 1.528034
v 0.409391 0.489069 1.518034
v 0.420448 0.505618 1.518034
v 0.310921 0.463662 1.428034
v 0.359897 0.428761 1.438034
v 0.345823 0.414687 1.438034
v 0.310921 0.463662 1.528034
v 0.345823 0.414687 1.518034
v 0.359897 0.428761 1.518034
v 0.244289 0.408979 1.428034
v 0.285515 0.365193 1.438034
v 0.268965 0.354135 1.438034
v 0.244289 0.408979 1.528034
v 0.268965 0.354135 1.518034
v 0.285515 0.365193 1.518034
v 0.168269 0.368345 1.428034
v 0.200161 0.317358 1.438034
v 0.181772 0.309741 1.438034
v 0.168269 0.368345 1.528034
v 0.181772 0.309741 1.518034
v 0.200161 0.317358 1.518034
v 0.085783 0.343323 1.428034
v 0.107114 0.287094 1.438034
v 0.087593 0.283211 1.438034
v 0.085783 0.343323 1.528034
v 0.087593 0.283211 1.518034
v 0.107114 0.287094 1.518034
v -0.000000 0.334874 1.428034
v 0.009951 0.275564 1.438034
v -0.009952 0.275564 1.438034
v -0.000000 0.334874 1.528034
v -0.009952 0.275564 1.518034
v 0.009951 0.275564 1.518034
v -0.085784 0.343323 1.428034
v -0.087594 0.283211 1.438034
v -0.107115 0.287094 1.438034
v -0.085784 0.343323 1.528034
v -0.107115 0.287094 1.518034
v -0.087594 0.283211 1.518034
v -0.168270 0.368345 1.428034
v -0.181773 0.309741 1.438034
v -0.200161 0.317358 1.438034
v -0.168270 0.368345 1.528034
v -0.200161 0.317358 1.518034
v -0.181773 0.309741 1.518034
v -0.244290 0.408979 1.428034
v -0.268966 0.354135 1.438034
v -0.285516 0.365193 1.438034
v -0.244290 0.408979 1.528034
v -0.285516 0.365193 1.518034
v -0.268966 0.354135 1.518034
v -0.310922 0.463662 1.428033
v -0.345824 0.414687 1.438034
v -0.359898 0.428761 1.438034
v -0.310922 0.463662 1.528033
v -0.359898 0.428761 1.518034
v -0.345824 0.414687 1.518034
v -0.365606 0.530295 1.428033
v -0.409391 0.489069 1.438033
v -0.420449 0.505618 1.438033
v -0.365606 0.530295 1.528033
v -0.420449 0.505618 1.518034
v -0.409391 0.489069 1.518034
v -0.406239 0.606315 1.428033
v -0.457226 0.574423 1.438033
v -0.464843 0.592812 1.438033
v -0.406239 0.606315 1.528033
v -0.464843 0.592812 1.518034
v -0.457226 0.574423 1.518034
v -0.431261 0.688801 1.428033
v -0.487490 0.667470 1.438033
v -0.491373 0.686991 1.438033
v -0.431261 0.688801 1.528033
v -0.491373 0.686991 1.518034
v -0.487490 0.667470 1.518034
v -0.439710 0.774584 1.428033
v -0.499020 0.764633 1.438033
v -0.499020 0.784536 1.438033
v -0.439710 0.774584 1.528033
v -0.499020 0.784536 1.518034
v -0.499020 0.764633 1.518034
v -0.431261 0.860368 1.428033
v -0.491373 0.862178 1.438033
v -0.487490 0.881699 1.438033
v -0.431261 0.860368 1.528033
v -0.487490 0.881699 1.518034
v -0.491373 0.862178 1.518034
v -0.406239 0.942854 1.428033
v -0.464843 0.956357 1.438033
v -0.457226 0.974745 1.438033
v -0.406239 0.942854 1.528033
v -0.457226 0.974745 1.518034
v -0.464843 0.956357 1.518034
v -0.365605 1.018874 1.428033
v -0.420449 1.043550 1.438033
v -0.409391 1.060100 1.438033
v -0.365605 1.018874 1.528033
v -0.409391 1.060100 1.518034
v -0.420449 1.043550 1.518034
v -0.310922 1.085506 1.428033
v -0.359897 1.120408 1.438033
v -0.345823 1.134482 1.438033
v -0.310922 1.085506 1.528033
v -0.345823 1.134482 1.518034
v -0.359897 1.120408 1.518034
v -0.244289 1.140190 1.428033
v -0.285515 1.183975 1.438033
v -0.268966 1.195033 1.438033
v -0.244289 1.140190 1.528033
v -0.268966 1.195033 1.518034
v -0.285515 1.183975 1.518034
v -0.168269 1.180823 1.428033
v -0.200161 1.231810 1.438033
v -0.181772 1.239427 1.438033
v -0.168269 1.180823 1.528033
v -0.181772 1.239427 1.518034
v -0.200161 1.231810 1.518034
v -0.085783 1.205845 1.428033
v -0.107114 1.262074 1.438033
v -0.087593 1.265957 1.438033
v -0.085783 1.205845 1.528033
v -0.087593 1.265957 1.518034
v -0.107114 1.262074 1.518034
v 0.095585 1.255121 1.428033
v -0.000000 1.264536 1.428033
v -0.000000 1.264536 1.528033
v 0.095585 1.255121 1.528033
v 0.187496 1.227240 1.428033
v 0.187496 1.227240 1.528033
v 0.272202 1.181964 1.428033
v 0.272202 1.181964 1.528033
v 0.346448 1.121032 1.428034
v 0.346448 1.121032 1.528034
v 0.407379 1.046787 1.428034
v 0.407379 1.046787 1.528034
v 0.452656 0.962080 1.428034
v 0.452656 0.962080 1.528034
v 0.480537 0.870169 1.428034
v 0.480537 0.870169 1.528034
v 0.489951 0.774584 1.428034
v 0.489951 0.774584 1.528034
v 0.480537 0.678999 1.428034
v 0.480537 0.678999 1.528034
v 0.452656 0.587088 1.428034
v 0.452656 0.587088 1.528034
v 0.407380 0.502381 1.428034
v 0.407380 0.502381 1.528034
v 0.346448 0.428136 1.428034
v 0.346448 0.428136 1.528034
v 0.272202 0.367204 1.428034
v 0.272202 0.367204 1.528034
v 0.187496 0.321928 1.428034
v 0.187496 0.321928 1.528034
v 0.095584 0.294047 1.428034
v 0.095584 0.294047 1.528034
v -0.000000 0.284632 1.428034
v -0.000001 0.284632 1.528034
v -0.095585 0.294047 1.428034
v -0.095585 0.294047 1.528034
v -0.187497 0.321928 1.428034
v -0.187497 0.321928 1.528034
v -0.272203 0.367204 1.428034
v -0.272203 0.367204 1.528034
v -0.346449 0.428136 1.428033
v -0.346449 0.428136 1.528033
v -0.407380 0.502382 1.428033
v -0.407380 0.502382 1.528033
v -0.452657 0.587088 1.428033
v -0.452657 0.587088 1.528033
v -0.480538 0.678999 1.428033
v -0.480538 0.679000 1.528033
v -0.489952 0.774584 1.428033
v -0.489952 0.774584 1.528033
v -0.480538 0.870169 1.428033
v -0.480538 0.870169 1.528033
v -0.452656 0.962081 1.428033
v -0.452656 0.962081 1.528033
v -0.407380 1.046787 1.428033
v -0.407380 1.046787 1.528033
v -0.346448 1.121032 1.428033
v -0.346448 1.121032 1.528033
v -0.272202 1.181964 1.428033
v -0.272202 1.181964 1.528033
v -0.187496 1.227241 1.428033
v -0.187496 1.227241 1.528033
v -0.095584 1.255121 1.428033
v -0.095584 1.255121 1.528033
vn -0.1293 0.9192 0.3720
vn -0.0525 0.9267 -0.3720
vn -0.1293 0.9192 -0.3720
vn 0.4032 0.8361 0.3720
vn 0.4712 0.7997 -0.3720
vn 0.4032 0.8361 -0.3720
vn 0.5585 0.7414 0.3720
vn 0.6182 0.6924 -0.3720
vn 0.5585 0.7414 -0.3720
vn 0.6924 0.6182 0.3720
vn 0.7414 0.5585 -0.3720
vn 0.6924 0.6182 -0.3720
vn 0.7997 0.4712 0.3720
vn 0.8361 0.4032 -0.3720
vn 0.7997 0.4712 -0.3720
vn 0.8763 0.3061 0.3720
vn 0.8987 0.2323 -0.3720
vn 0.8763 0.3061 -0.3720
vn 0.9192 0.1293 0.3720
vn 0.9267 0.0525 -0.3720
vn 0.9192 0.1293 -0.3720
vn 0.9267 -0.0525 0.3720
vn 0.9192 -0.1293 -0.3720
vn 0.9267 -0.0525 -0.3720
vn 0.8987 -0.2323 0.3720
vn 0.8763 -0.3061 -0.3720
vn 0.8987 -0.2323 -0.3720
vn 0.8361 -0.4032 0.3720
vn 0.7997 -0.4712 -0.3720
vn 0.8361 -0.4032 -0.3720
vn 0.7414 -0.5585 0.3720
vn 0.6924 -0.6182 -0.3720
vn 0.7414 -0.5585 -0.3720
vn 0.6182 -0.6924 0.3720
vn 0.5585 -0.7414 -0.3720
vn 0.6182 -0.6924 -0.3720
vn 0.4712 -0.7997 0.3720
vn 0.4032 -0.8361 -0.3720
vn 0.4712 -0.7997 -0.3720
vn 0.3061 -0.8763 0.3720
vn 0.2323 -0.8987 -0.3720
vn 0.3061 -0.8763 -0.3720
vn 0.1293 -0.9192 0.3720
vn 0.0525 -0.9267 -0.3720
vn 0.1293 -0.9192 -0.3720
vn -0.0525 -0.9267 0.3720
vn -0.1293 -0.9192 -0.3720
vn -0.0525 -0.9267 -0.3720
vn -0.2323 -0.8987 0.3720
vn -0.3061 -0.8763 -0.3720
vn -0.2323 -0.8987 -0.3720
vn -0.4032 -0.8361 0.3720
vn -0.4712 -0.7997 -0.3720
vn -0.4032 -0.8361 -0.3720
vn -0.5585 -0.7414 0.3720
vn -0.6182 -0.6924 -0.3720
vn -0.5585 -0.7414 -0.3720
vn -0.6924 -0.6182 0.3720
vn -0.7414 -0.5585 -0.3720
vn -0.6924 -0.6182 -0.3720
vn -0.7997 -0.4712 0.3720
vn -0.8361 -0.4032 -0.3720
vn -0.7997 -0.4712 -0.3720
vn -0.8763 -0.3061 0.3720
vn -0.8987 -0.2323 -0.3720
vn -0.8763 -0.3061 -0.3720
vn -0.9192 -0.1293 0.3720
vn -0.9267 -0.0525 -0.3720
vn -0.9192 -0.1293 -0.3720
vn -0.9267 0.0525 -0.3720
vn -0.9192 0.1293 0.3720
vn -0.9192 0.1293 -0.3720
vn -0.8987 0.2323 0.3720
vn -0.8763 0.3061 -0.3720
vn -0.8987 0.2323 -0.3720
vn -0.8361 0.4032 0.3720
vn -0.7997 0.4712 -0.3720
vn -0.8361 0.4032 -0.3720
vn -0.7414 0.5585 0.3720
vn -0.6924 0.6182 -0.3720
vn -0.7414 0.5585 -0.3720
vn -0.6182 0.6924 0.3720
vn -0.5585 0.7414 -0.3720
vn -0.6182 0.6924 -0.3720
vn -0.4712 0.7997 0.3720
vn -0.4032 0.8361 -0.3720
vn -0.4712 0.7997 -0.3720
vn -0.3061 0.8763 0.3720
vn -0.2323 0.8987 -0.3720
vn -0.3061 0.8763 -0.3720
vn 0.2323 0.8987 0.3720
vn 0.3061 0.8763 -0.3720
vn 0.2323 0.8987 -0.3720
vn -0.0000 -0.0000 1.0000
vn 0.0525 0.9267 0.3720
vn 0.1293 0.9192 -0.3720
vn 0.0525 0.9267 -0.3720
vn -0.0000 0.4111 -0.9116
vn -0.0000 0.4111 0.9116
vn -0.0525 0.9267 0.3720
vn 0.0802 0.4032 -0.9116
vn 0.0802 0.4032 0.9116
vn 0.1293 0.9192 0.3720
vn 0.1573 0.3798 -0.9116
vn 0.1573 0.3798 0.9116
vn 0.3061 0.8763 0.3720
vn 0.2284 0.3418 -0.9116
vn 0.2284 0.3418 0.9116
vn 0.4712 0.7997 0.3720
vn 0.2907 0.2907 -0.9116
vn 0.2907 0.2907 0.9116
vn 0.6182 0.6924 0.3720
vn 0.3418 0.2284 -0.9116
vn 0.3418 0.2284 0.9116
vn 0.7414 0.5585 0.3720
vn 0.3798 0.1573 -0.9116
vn 0.3798 0.1573 0.9116
vn 0.8361 0.4032 0.3720
vn 0.4032 0.0802 -0.9116
vn 0.4032 0.0802 0.9116
vn 0.8987 0.2323 0.3720
vn 0.4111 -0.0000 -0.9116
vn 0.4111 -0.0000 0.9116
vn 0.9267 0.0525 0.3720
vn 0.4032 -0.0802 -0.9116
vn 0.4032 -0.0802 0.9116
vn 0.9192 -0.1293 0.3720
vn 0.3798 -0.1573 -0.9116
vn 0.3798 -0.1573 0.9116
vn 0.8763 -0.3061 0.3720
vn 0.3418 -0.2284 -0.9116
vn 0.3418 -0.2284 0.9116
vn 0.7997 -0.4712 0.3720
vn 0.2907 -0.2907 -0.9116
vn 0.2907 -0.2907 0.9116
vn 0.6924 -0.6182 0.3720
vn 0.2284 -0.3418 -0.9116
vn 0.2284 -0.3418 0.9116
vn 0.5585 -0.7414 0.3720
vn 0.1573 -0.3798 -0.9116
vn 0.1573 -0.3798 0.9116
vn 0.4032 -0.8361 0.3720
vn 0.0802 -0.4032 -0.9116
vn 0.0802 -0.4032 0.9116
vn 0.2323 -0.8987 0.3720
vn -0.0000 -0.4111 -0.9116
vn -0.0000 -0.4111 0.9116
vn 0.0525 -0.9267 0.3720
vn -0.0802 -0.4032 -0.9116
vn -0.0802 -0.4032 0.9116
vn -0.1293 -0.9192 0.3720
vn -0.1573 -0.3798 -0.9116
vn -0.1573 -0.3798 0.9116
vn -0.3061 -0.8763 0.3720
vn -0.2284 -0.3418 -0.9116
vn -0.2284 -0.3418 0.9116
vn -0.4712 -0.7997 0.3720
vn -0.2907 -0.2907 -0.9116
vn -0.2907 -0.2907 0.9116
vn -0.6182 -0.6924 0.3720
vn -0.3418 -0.2284 -0.9116
vn -0.3418 -0.2284 0.9116
vn -0.7414 -0.5585 0.3720
vn -0.3798 -0.1573 -0.9116
vn -0.3798 -0.1573 0.9116
vn -0.8361 -0.4032 0.3720
vn -0.4032 -0.0802 -0.9116
vn -0.4032 -0.0802 0.9116
vn -0.8987 -0.2323 0.3720
vn -0.4111 -0.0000 -0.9116
vn -0.4111 -0.0000 0.9116
vn -0.9267 0.0525 0.3720
vn -0.9267 -0.0525 0.3720
vn -0.4032 0.0802 -0.9116
vn -0.4032 0.0802 0.9116
vn -0.3798 0.1573 -0.9116
vn -0.3798 0.1573 0.9116
vn -0.8763 0.3061 0.3720
vn -0.3418 0.2284 -0.9116
vn -0.3418 0.2284 0.9116
vn -0.7997 0.4712 0.3720
vn -0.2907 0.2907 -0.9116
vn -0.2907 0.2907 0.9116
vn -0.6924 0.6182 0.3720
vn -0.2284 0.3418 -0.9116
vn -0.2284 0.3418 0.9116
vn -0.5585 0.7414 0.3720
vn -0.1573 0.3798 -0.9116
vn -0.1573 0.3798 0.9116
vn -0.4032 0.8361 0.3720
vn -0.0802 0.4032 -0.9116
vn -0.0802 0.4032 0.9116
vn -0.2323 0.8987 0.3720
vn -0.0000 -0.0000 -1.0000
vt 0.728237 0.969800
vt 0.725560 0.926755
vt 0.728237 0.926755
vt 0.825761 0.969800
vt 0.823084 0.926755
vt 0.825761 0.926755
vt 0.822398 0.969800
vt 0.819721 0.926755
vt 0.822398 0.926755
vt 0.819035 0.969800
vt 0.816358 0.926755
vt 0.819035 0.926755
vt 0.815672 0.969800
vt 0.812995 0.926755
vt 0.815672 0.926755
vt 0.812309 0.969800
vt 0.809633 0.926755
vt 0.812309 0.926755
vt 0.808946 0.969800
vt 0.806270 0.926755
vt 0.808946 0.926755
vt 0.805583 0.969800
vt 0.802907 0.926755
vt 0.805583 0.926755
vt 0.802221 0.969800
vt 0.799544 0.926755
vt 0.802221 0.926755
vt 0.798858 0.969800
vt 0.796181 0.926755
vt 0.798858 0.926755
vt 0.795495 0.969800
vt 0.792818 0.926755
vt 0.795495 0.926755
vt 0.792132 0.969800
vt 0.789455 0.926755
vt 0.792132 0.926755
vt 0.788769 0.969800
vt 0.786092 0.926755
vt 0.788769 0.926755
vt 0.785406 0.969800
vt 0.782729 0.926755
vt 0.785406 0.926755
vt 0.782043 0.969800
vt 0.779367 0.926755
vt 0.782043 0.926755
vt 0.778680 0.969800
vt 0.776004 0.926755
vt 0.778680 0.926755
vt 0.775317 0.969800
vt 0.772641 0.926755
vt 0.775317 0.926755
vt 0.771955 0.969800
vt 0.769278 0.926755
vt 0.771955 0.926755
vt 0.768592 0.969800
vt 0.765915 0.926755
vt 0.768592 0.926755
vt 0.765229 0.969800
vt 0.762552 0.926755
vt 0.765229 0.926755
vt 0.761866 0.969800
vt 0.759189 0.926755
vt 0.761866 0.926755
vt 0.758503 0.969800
vt 0.755826 0.926755
vt 0.758503 0.926755
vt 0.755140 0.969800
vt 0.752463 0.926755
vt 0.755140 0.926755
vt 0.751777 0.926755
vt 0.749101 0.969800
vt 0.749101 0.926755
vt 0.748414 0.969800
vt 0.745738 0.926755
vt 0.748414 0.926755
vt 0.745052 0.969800
vt 0.742375 0.926755
vt 0.745051 0.926755
vt 0.741689 0.969800
vt 0.739012 0.926755
vt 0.741689 0.926755
vt 0.738326 0.969800
vt 0.735649 0.926755
vt 0.738326 0.926755
vt 0.734963 0.969800
vt 0.732286 0.926755
vt 0.734963 0.926755
vt 0.731600 0.969800
vt 0.728923 0.926755
vt 0.731600 0.926755
vt 0.829124 0.969800
vt 0.826447 0.926755
vt 0.829124 0.926755
vt 0.761110 0.583856
vt 0.843397 0.617940
vt 0.809313 0.700228
vt 0.832487 0.969800
vt 0.829810 0.926755
vt 0.832487 0.926755
vt 0.725251 0.921374
vt 0.725560 0.921374
vt 0.725217 0.926755
vt 0.725251 0.975181
vt 0.725217 0.969800
vt 0.725560 0.975181
vt 0.829433 0.921374
vt 0.829467 0.926755
vt 0.829124 0.921374
vt 0.829433 0.975181
vt 0.829124 0.975181
vt 0.829467 0.969800
vt 0.826138 0.921374
vt 0.826447 0.921374
vt 0.826104 0.926755
vt 0.826138 0.975181
vt 0.826104 0.969800
vt 0.826447 0.975181
vt 0.822775 0.921374
vt 0.823084 0.921374
vt 0.822741 0.926755
vt 0.822775 0.975181
vt 0.822741 0.969800
vt 0.823084 0.975181
vt 0.819412 0.921374
vt 0.819378 0.926755
vt 0.819344 0.975181
vt 0.819378 0.969800
vt 0.815981 0.921374
vt 0.816015 0.926755
vt 0.815672 0.921374
vt 0.815981 0.975181
vt 0.815672 0.975181
vt 0.816015 0.969800
vt 0.812619 0.921374
vt 0.812652 0.926755
vt 0.812309 0.921374
vt 0.812619 0.975181
vt 0.812309 0.975181
vt 0.812652 0.969800
vt 0.809323 0.921374
vt 0.809290 0.926755
vt 0.809323 0.975181
vt 0.809290 0.969800
vt 0.809633 0.975181
vt 0.805960 0.921374
vt 0.806270 0.921374
vt 0.805927 0.926755
vt 0.805960 0.975181
vt 0.805927 0.969800
vt 0.806270 0.975181
vt 0.802530 0.921374
vt 0.802564 0.926755
vt 0.802221 0.921374
vt 0.802530 0.975181
vt 0.802564 0.969800
vt 0.799235 0.921374
vt 0.799544 0.921374
vt 0.799201 0.926755
vt 0.799235 0.975181
vt 0.799201 0.969800
vt 0.799544 0.975181
vt 0.795872 0.921374
vt 0.796181 0.921374
vt 0.795838 0.926755
vt 0.795872 0.975181
vt 0.795838 0.969800
vt 0.796181 0.975181
vt 0.792509 0.921374
vt 0.792475 0.926755
vt 0.792441 0.975181
vt 0.792475 0.969800
vt 0.789078 0.921374
vt 0.789112 0.926755
vt 0.788769 0.921374
vt 0.789078 0.975181
vt 0.788769 0.975181
vt 0.789112 0.969800
vt 0.785715 0.921374
vt 0.785749 0.926755
vt 0.785406 0.921374
vt 0.785715 0.975181
vt 0.785406 0.975181
vt 0.785749 0.969800
vt 0.782420 0.921374
vt 0.782729 0.921374
vt 0.782386 0.926755
vt 0.782420 0.975181
vt 0.782386 0.969800
vt 0.782729 0.975181
vt 0.778990 0.921374
vt 0.779024 0.926755
vt 0.778680 0.921374
vt 0.778990 0.975181
vt 0.778680 0.975181
vt 0.779024 0.969800
vt 0.775627 0.921374
vt 0.775661 0.926755
vt 0.775317 0.921374
vt 0.775627 0.975181
vt 0.775317 0.975181
vt 0.775661 0.969800
vt 0.772264 0.921374
vt 0.772298 0.926755
vt 0.771955 0.921374
vt 0.772264 0.975181
vt 0.771955 0.975181
vt 0.772298 0.969800
vt 0.768969 0.921374
vt 0.769278 0.921374
vt 0.768935 0.926755
vt 0.768969 0.975181
vt 0.768935 0.969800
vt 0.769278 0.975181
vt 0.765606 0.921374
vt 0.765572 0.926755
vt 0.765538 0.975181
vt 0.765572 0.969800
vt 0.762175 0.921374
vt 0.762209 0.926755
vt 0.761866 0.921374
vt 0.762175 0.975181
vt 0.761866 0.975181
vt 0.762209 0.969800
vt 0.758812 0.921374
vt 0.758846 0.926755
vt 0.758503 0.921374
vt 0.758812 0.975181
vt 0.758503 0.975181
vt 0.758846 0.969800
vt 0.755517 0.921374
vt 0.755826 0.921374
vt 0.755483 0.926755
vt 0.755517 0.975181
vt 0.755483 0.969800
vt 0.755826 0.975181
vt 0.752154 0.921374
vt 0.752463 0.921374
vt 0.752120 0.926755
vt 0.752154 0.975181
vt 0.752120 0.969800
vt 0.752463 0.975181
vt 0.748724 0.921374
vt 0.748757 0.926755
vt 0.748414 0.921374
vt 0.748724 0.975181
vt 0.748414 0.975181
vt 0.748757 0.969800
vt 0.745428 0.921374
vt 0.745738 0.921374
vt 0.745395 0.926755
vt 0.745428 0.975181
vt 0.745395 0.969800
vt 0.745738 0.975181
vt 0.742065 0.921374
vt 0.742032 0.926755
vt 0.741998 0.975181
vt 0.742032 0.969800
vt 0.738635 0.921374
vt 0.738669 0.926755
vt 0.738326 0.921374
vt 0.738635 0.975181
vt 0.738326 0.975181
vt 0.738669 0.969800
vt 0.735272 0.921374
vt 0.735306 0.926755
vt 0.734963 0.921374
vt 0.735272 0.975181
vt 0.734963 0.975181
vt 0.735306 0.969800
vt 0.731977 0.921374
vt 0.732286 0.921374
vt 0.731943 0.926755
vt 0.731977 0.975181
vt 0.731943 0.969800
vt 0.732286 0.975181
vt 0.728614 0.921374
vt 0.728923 0.921374
vt 0.728580 0.926755
vt 0.728614 0.975181
vt 0.728580 0.969800
vt 0.728923 0.975181
vt 0.832796 0.921374
vt 0.829810 0.969800
vt 0.832796 0.975181
vt 0.829501 0.975181
vt 0.725560 0.969800
vt 0.826447 0.969800
vt 0.826070 0.921374
vt 0.823084 0.969800
vt 0.826070 0.975181
vt 0.822707 0.921374
vt 0.819721 0.969800
vt 0.822707 0.975181
vt 0.819412 0.975181
vt 0.816049 0.921374
vt 0.819344 0.921374
vt 0.816049 0.975181
vt 0.816358 0.969800
vt 0.812686 0.921374
vt 0.812686 0.975181
vt 0.812995 0.969800
vt 0.809633 0.969800
vt 0.809256 0.921374
vt 0.806270 0.969800
vt 0.805893 0.921374
vt 0.802907 0.969800
vt 0.805893 0.975181
vt 0.802597 0.975181
vt 0.799544 0.969800
vt 0.799167 0.921374
vt 0.796181 0.969800
vt 0.795804 0.921374
vt 0.792818 0.969800
vt 0.795804 0.975181
vt 0.792509 0.975181
vt 0.789146 0.921374
vt 0.792441 0.921374
vt 0.789146 0.975181
vt 0.789455 0.969800
vt 0.785783 0.921374
vt 0.785783 0.975181
vt 0.786092 0.969800
vt 0.782729 0.969800
vt 0.779057 0.921374
vt 0.782353 0.921374
vt 0.779057 0.975181
vt 0.779367 0.969800
vt 0.776004 0.969800
vt 0.775694 0.975181
vt 0.772332 0.975181
vt 0.772641 0.969800
vt 0.769278 0.969800
vt 0.768901 0.921374
vt 0.765915 0.969800
vt 0.768901 0.975181
vt 0.765606 0.975181
vt 0.762243 0.921374
vt 0.765538 0.921374
vt 0.762243 0.975181
vt 0.762552 0.969800
vt 0.759189 0.969800
vt 0.758880 0.975181
vt 0.755826 0.969800
vt 0.755449 0.921374
vt 0.752463 0.969800
vt 0.751777 0.969800
vt 0.752087 0.921374
vt 0.752087 0.975181
vt 0.748791 0.975181
vt 0.745738 0.969800
vt 0.745361 0.921374
vt 0.742375 0.969800
vt 0.745361 0.975181
vt 0.742065 0.975181
vt 0.741998 0.921374
vt 0.739012 0.969800
vt 0.738703 0.975181
vt 0.735340 0.921374
vt 0.735340 0.975181
vt 0.735649 0.969800
vt 0.732286 0.969800
vt 0.731909 0.921374
vt 0.728923 0.969800
vt 0.728546 0.921374
vt 0.797488 0.580617
vt 0.722563 0.630681
vt 0.772627 0.705606
vt 0.805927 0.917184
vt 0.810864 0.919293
vt 0.810358 0.916748
vt 0.756551 0.916748
vt 0.752120 0.919779
vt 0.752120 0.917184
vt 0.815612 0.917853
vt 0.814618 0.915455
vt 0.761805 0.917853
vt 0.757058 0.919293
vt 0.819987 0.915514
vt 0.818545 0.913356
vt 0.760812 0.915455
vt 0.766181 0.915514
vt 0.823822 0.912367
vt 0.821987 0.910532
vt 0.768181 0.910532
vt 0.764739 0.913356
vt 0.826969 0.908532
vt 0.824812 0.907090
vt 0.771005 0.907090
vt 0.770016 0.912367
vt 0.829308 0.904156
vt 0.826910 0.903163
vt 0.775502 0.904156
vt 0.773163 0.908532
vt 0.830748 0.899409
vt 0.828203 0.898902
vt 0.773104 0.903163
vt 0.776942 0.899409
vt 0.831234 0.894471
vt 0.828639 0.894471
vt 0.774833 0.894471
vt 0.774397 0.898902
vt 0.830748 0.889534
vt 0.828203 0.890040
vt 0.776942 0.889534
vt 0.777428 0.894471
vt 0.829308 0.884786
vt 0.826910 0.885779
vt 0.773104 0.885779
vt 0.774397 0.890040
vt 0.824812 0.881853
vt 0.826969 0.880411
vt 0.771005 0.881853
vt 0.775502 0.884786
vt 0.823822 0.876576
vt 0.821987 0.878411
vt 0.768181 0.878411
vt 0.773163 0.880411
vt 0.819987 0.873428
vt 0.818545 0.875586
vt 0.764739 0.875586
vt 0.770016 0.876576
vt 0.814618 0.873487
vt 0.815612 0.871090
vt 0.760812 0.873487
vt 0.766181 0.873428
vt 0.810864 0.869650
vt 0.810358 0.872195
vt 0.757058 0.869650
vt 0.761805 0.871090
vt 0.805927 0.869163
vt 0.805927 0.871758
vt 0.752120 0.871758
vt 0.756551 0.872195
vt 0.800989 0.869650
vt 0.801495 0.872195
vt 0.747183 0.869650
vt 0.752120 0.869163
vt 0.796242 0.871090
vt 0.797235 0.873487
vt 0.747689 0.872195
vt 0.742435 0.871090
vt 0.791866 0.873428
vt 0.793308 0.875586
vt 0.739502 0.875586
vt 0.743429 0.873487
vt 0.789866 0.878411
vt 0.788031 0.876576
vt 0.736060 0.878411
vt 0.738060 0.873428
vt 0.787042 0.881853
vt 0.784884 0.880411
vt 0.733235 0.881853
vt 0.734225 0.876576
vt 0.782545 0.884786
vt 0.784943 0.885780
vt 0.728739 0.884786
vt 0.731078 0.880411
vt 0.781105 0.889534
vt 0.783650 0.890040
vt 0.731137 0.885780
vt 0.727299 0.889534
vt 0.780619 0.894471
vt 0.783214 0.894471
vt 0.729408 0.894471
vt 0.729844 0.890040
vt 0.781105 0.899409
vt 0.783650 0.898902
vt 0.727299 0.899409
vt 0.726812 0.894471
vt 0.782545 0.904156
vt 0.784943 0.903163
vt 0.729844 0.898902
vt 0.728739 0.904156
vt 0.787042 0.907090
vt 0.784884 0.908532
vt 0.733235 0.907090
vt 0.731137 0.903163
vt 0.789866 0.910532
vt 0.788031 0.912367
vt 0.736060 0.910532
vt 0.731078 0.908532
vt 0.791866 0.915514
vt 0.793308 0.913356
vt 0.738060 0.915514
vt 0.734225 0.912367
vt 0.796242 0.917853
vt 0.797235 0.915455
vt 0.739502 0.913356
vt 0.742436 0.917853
vt 0.800989 0.919293
vt 0.801496 0.916748
vt 0.743429 0.915455
vt 0.747183 0.919293
vt 0.805927 0.919779
vt 0.747689 0.916748
vt 0.797498 0.703811
vt 0.785211 0.705022
vt 0.772925 0.703811
vt 0.761110 0.700228
vt 0.750222 0.694408
vt 0.740678 0.686575
vt 0.732846 0.677032
vt 0.727026 0.666143
vt 0.723442 0.654329
vt 0.722232 0.642042
vt 0.723442 0.629755
vt 0.727026 0.617941
vt 0.732846 0.607052
vt 0.740678 0.597508
vt 0.750222 0.589676
vt 0.772925 0.580272
vt 0.785211 0.579062
vt 0.797498 0.580272
vt 0.809313 0.583856
vt 0.820201 0.589676
vt 0.829745 0.597508
vt 0.837577 0.607052
vt 0.846981 0.629755
vt 0.848191 0.642042
vt 0.846981 0.654329
vt 0.843397 0.666143
vt 0.837577 0.677032
vt 0.829745 0.686575
vt 0.820201 0.694408
vt 0.829501 0.921374
vt 0.809256 0.975181
vt 0.802597 0.921374
vt 0.799167 0.975181
vt 0.782353 0.975181
vt 0.775694 0.921374
vt 0.772332 0.921374
vt 0.758880 0.921374
vt 0.755449 0.975181
vt 0.748791 0.921374
vt 0.738703 0.921374
vt 0.731909 0.975181
vt 0.728546 0.975181
vt 0.785057 0.706830
vt 0.797488 0.705606
vt 0.809442 0.701980
vt 0.820458 0.696092
vt 0.830113 0.688167
vt 0.838037 0.678512
vt 0.843926 0.667496
vt 0.847552 0.655542
vt 0.848776 0.643112
vt 0.847552 0.630681
vt 0.843926 0.618727
vt 0.838038 0.607711
vt 0.830113 0.598056
vt 0.820458 0.590131
vt 0.809442 0.584243
vt 0.785057 0.579393
vt 0.772626 0.580617
vt 0.760673 0.584243
vt 0.749657 0.590131
vt 0.740002 0.598056
vt 0.732077 0.607711
vt 0.726189 0.618728
vt 0.721339 0.643112
vt 0.722563 0.655542
vt 0.726189 0.667496
vt 0.732077 0.678512
vt 0.740002 0.688168
vt 0.749657 0.696092
vt 0.760674 0.701980
s 1
usemtl molesAtlas
f 191/1/1 2/2/2 189/3/3
f 17/4/4 20/5/5 15/6/6
f 23/7/7 26/8/8 21/9/9
f 29/10/10 32/11/11 27/12/12
f 35/13/13 38/14/14 33/15/15
f 41/16/16 44/17/17 39/18/18
f 47/19/19 50/20/20 45/21/21
f 53/22/22 56/23/23 51/24/24
f 59/25/25 62/26/26 57/27/27
f 65/28/28 68/29/29 63/30/30
f 71/31/31 74/32/32 69/33/33
f 77/34/34 80/35/35 75/36/36
f 83/37/37 86/38/38 81/39/39
f 89/40/40 92/41/41 87/42/42
f 95/43/43 98/44/44 93/45/45
f 101/46/46 104/47/47 99/48/48
f 107/49/49 110/50/50 105/51/51
f 113/52/52 116/53/53 111/54/54
f 119/55/55 122/56/56 117/57/57
f 125/58/58 128/59/59 123/60/60
f 131/61/61 134/62/62 129/63/63
f 137/64/64 140/65/65 135/66/66
f 143/67/67 146/68/68 141/69/69
f 147/70/70 156/71/71 152/72/72
f 155/73/73 158/74/74 153/75/75
f 161/76/76 164/77/77 159/78/78
f 167/79/79 170/80/80 165/81/81
f 173/82/82 176/83/83 171/84/84
f 179/85/85 182/86/86 177/87/87
f 185/88/88 188/89/89 183/90/90
f 11/91/91 14/92/92 9/93/93
f 112/94/94 64/95/94 16/96/94
f 5/97/95 8/98/96 3/99/97
f 194/100/98 2/101/2 3/102/97
f 195/103/99 5/104/95 6/105/100
f 193/106/101 8/107/96 9/108/93
f 196/109/102 11/110/91 12/111/103
f 197/112/104 14/113/92 15/114/6
f 198/115/105 17/116/4 18/117/106
f 199/118/107 20/119/5 21/120/9
f 200/121/108 23/122/7 24/123/109
f 201/124/110 26/125/8 27/125/12
f 202/126/111 29/127/10 30/127/112
f 203/128/113 32/129/11 33/130/15
f 204/131/114 35/132/13 36/133/115
f 205/134/116 38/135/14 39/136/18
f 206/137/117 41/138/16 42/139/118
f 207/140/119 44/141/17 45/141/21
f 208/142/120 47/143/19 48/144/121
f 209/145/122 50/146/20 51/147/24
f 210/148/123 53/149/22 54/150/124
f 211/151/125 56/152/23 57/153/27
f 212/154/126 59/155/25 60/155/127
f 213/156/128 62/157/26 63/158/30
f 214/159/129 65/160/28 66/161/130
f 215/162/131 68/163/29 69/164/33
f 216/165/132 71/166/31 72/167/133
f 217/168/134 74/169/32 75/169/36
f 218/170/135 77/171/34 78/171/136
f 219/172/137 80/173/35 81/174/39
f 220/175/138 83/176/37 84/177/139
f 221/178/140 86/179/38 87/180/42
f 222/181/141 89/182/40 90/183/142
f 223/184/143 92/185/41 93/186/45
f 224/187/144 95/188/43 96/189/145
f 225/190/146 98/191/44 99/192/48
f 226/193/147 101/194/46 102/195/148
f 227/196/149 104/197/47 105/198/51
f 228/199/150 107/200/49 108/201/151
f 229/202/152 110/203/50 111/204/54
f 230/205/153 113/206/52 114/207/154
f 231/208/155 116/209/53 117/210/57
f 232/211/156 119/212/55 120/213/157
f 233/214/158 122/215/56 123/215/60
f 234/216/159 125/217/58 126/217/160
f 235/218/161 128/219/59 129/220/63
f 236/221/162 131/222/61 132/223/163
f 237/224/164 134/225/62 135/226/66
f 238/227/165 137/228/64 138/229/166
f 239/230/167 140/231/65 141/232/69
f 240/233/168 143/234/67 144/235/169
f 241/236/170 146/237/68 147/238/70
f 242/239/171 149/240/172 150/241/173
f 243/242/174 152/243/72 153/244/75
f 244/245/175 155/246/73 156/247/71
f 245/248/176 158/249/74 159/250/78
f 246/251/177 161/252/76 162/253/178
f 247/254/179 164/255/77 165/255/81
f 248/256/180 167/257/79 168/257/181
f 249/258/182 170/259/80 171/260/84
f 250/261/183 173/262/82 174/263/184
f 251/264/185 176/265/83 177/266/87
f 252/267/186 179/268/85 180/269/187
f 253/270/188 182/271/86 183/272/90
f 254/273/189 185/274/88 186/275/190
f 255/276/191 188/277/89 189/278/3
f 256/279/192 191/280/1 192/281/193
f 8/98/96 194/282/98 3/99/97
f 12/283/103 195/284/99 196/285/102
f 6/286/100 3/102/97 2/2/2
f 9/93/93 12/283/103 11/91/91
f 14/92/92 193/106/101 9/93/93
f 18/287/106 196/109/102 198/115/105
f 15/6/6 18/287/106 17/4/4
f 20/5/5 197/288/104 15/6/6
f 24/289/109 198/290/105 200/121/108
f 21/9/9 24/289/109 23/7/7
f 26/8/8 199/291/107 21/9/9
f 30/292/112 200/293/108 202/294/111
f 27/12/12 30/292/112 29/10/10
f 27/12/12 203/295/113 201/296/110
f 29/10/10 204/297/114 36/298/115
f 33/15/15 36/298/115 35/13/13
f 33/15/15 205/299/116 203/128/113
f 35/13/13 206/300/117 42/301/118
f 39/18/18 42/301/118 41/16/16
f 39/18/18 207/140/119 205/134/116
f 41/16/16 208/142/120 48/302/121
f 45/21/21 48/302/121 47/19/19
f 45/21/21 209/145/122 207/303/119
f 47/19/19 210/148/123 54/304/124
f 51/24/24 54/304/124 53/22/22
f 56/23/23 209/305/122 51/24/24
f 60/306/127 210/307/123 212/308/126
f 57/27/27 60/306/127 59/25/25
f 62/26/26 211/151/125 57/27/27
f 66/309/130 212/154/126 214/159/129
f 63/30/30 66/309/130 65/28/28
f 63/30/30 215/162/131 213/310/128
f 65/28/28 216/165/132 72/311/133
f 69/33/33 72/311/133 71/31/31
f 74/32/32 215/312/131 69/33/33
f 78/313/136 216/314/132 218/315/135
f 75/36/36 78/313/136 77/34/34
f 75/36/36 219/316/137 217/317/134
f 77/34/34 220/318/138 84/319/139
f 81/39/39 84/319/139 83/37/37
f 81/39/39 221/320/140 219/172/137
f 83/37/37 222/321/141 90/322/142
f 87/42/42 90/322/142 89/40/40
f 87/42/42 223/184/143 221/178/140
f 89/40/40 224/187/144 96/323/145
f 93/45/45 96/323/145 95/43/43
f 93/45/45 225/324/146 223/325/143
f 95/43/43 226/326/147 102/327/148
f 101/46/46 98/44/44 102/327/148
f 104/47/47 225/190/146 99/48/48
f 108/328/151 226/193/147 228/329/150
f 105/51/51 108/328/151 107/49/49
f 110/50/50 227/196/149 105/51/51
f 107/49/49 230/330/153 114/331/154
f 111/54/54 114/331/154 113/52/52
f 116/53/53 229/202/152 111/54/54
f 120/332/157 230/205/153 232/211/156
f 117/57/57 120/332/157 119/55/55
f 122/56/56 231/333/155 117/57/57
f 126/334/160 232/335/156 234/336/159
f 123/60/60 126/334/160 125/58/58
f 123/60/60 235/337/161 233/338/158
f 125/58/58 236/339/162 132/340/163
f 129/63/63 132/340/163 131/61/61
f 134/62/62 235/218/161 129/63/63
f 138/341/166 236/221/162 238/342/165
f 135/66/66 138/341/166 137/64/64
f 140/65/65 237/224/164 135/66/66
f 137/64/64 240/233/168 144/343/169
f 141/69/69 144/343/169 143/67/67
f 141/69/69 241/236/170 239/344/167
f 143/67/67 242/239/171 150/345/173
f 147/70/70 150/345/173 149/346/172
f 152/72/72 241/347/170 147/70/70
f 156/71/71 242/348/171 244/349/175
f 153/75/75 156/71/71 155/73/73
f 158/74/74 243/242/174 153/75/75
f 162/350/178 244/245/175 246/251/177
f 159/78/78 162/350/178 161/76/76
f 164/77/77 245/351/176 159/78/78
f 168/352/181 246/353/177 248/354/180
f 165/81/81 168/352/181 167/79/79
f 170/80/80 247/355/179 165/81/81
f 174/356/184 248/256/180 250/357/183
f 171/84/84 174/356/184 173/82/82
f 171/84/84 251/358/185 249/258/182
f 173/82/82 252/359/186 180/360/187
f 177/87/87 180/360/187 179/85/85
f 182/86/86 251/264/185 177/87/87
f 186/361/190 252/267/186 254/273/189
f 183/90/90 186/361/190 185/88/88
f 183/90/90 255/276/191 253/362/188
f 185/88/88 256/279/192 192/363/193
f 189/3/3 192/363/193 191/1/1
f 189/3/3 194/100/98 255/364/191
f 191/1/1 195/103/99 6/286/100
f 91/365/194 139/366/194 187/367/194
f 1/368/194 193/369/101 7/370/194
f 10/371/94 195/372/99 4/373/94
f 7/370/194 197/374/104 13/375/194
f 10/371/94 198/376/105 196/377/102
f 13/375/194 199/378/107 19/379/194
f 16/380/94 200/381/108 198/376/105
f 19/379/194 201/382/110 25/383/194
f 28/384/94 200/381/108 22/385/94
f 25/383/194 203/386/113 31/387/194
f 34/388/94 202/389/111 28/384/94
f 31/387/194 205/390/116 37/391/194
f 34/388/94 206/392/117 204/393/114
f 37/391/194 207/394/119 43/395/194
f 40/396/94 208/397/120 206/392/117
f 43/395/194 209/398/122 49/399/194
f 52/400/94 208/397/120 46/401/94
f 49/399/194 211/402/125 55/403/194
f 52/400/94 212/404/126 210/405/123
f 55/403/194 213/406/128 61/407/194
f 64/408/94 212/404/126 58/409/94
f 67/410/194 213/406/128 215/411/131
f 70/412/94 214/413/129 64/408/94
f 67/410/194 217/414/134 73/415/194
f 76/416/94 216/417/132 70/412/94
f 73/415/194 219/418/137 79/419/194
f 82/420/94 218/421/135 76/416/94
f 85/422/194 219/418/137 221/423/140
f 88/424/94 220/425/138 82/420/94
f 85/422/194 223/426/143 91/427/194
f 88/424/94 224/428/144 222/429/141
f 91/427/194 225/430/146 97/431/194
f 100/432/94 224/428/144 94/433/94
f 97/431/194 227/434/149 103/435/194
f 100/432/94 228/436/150 226/437/147
f 103/435/194 229/438/152 109/439/194
f 106/440/94 230/441/153 228/436/150
f 109/439/194 231/442/155 115/443/194
f 118/444/94 230/441/153 112/445/94
f 121/446/194 231/442/155 233/447/158
f 124/448/94 232/449/156 118/444/94
f 127/450/194 233/447/158 235/451/161
f 130/452/94 234/453/159 124/448/94
f 127/450/194 237/454/164 133/455/194
f 130/452/94 238/456/165 236/457/162
f 133/455/194 239/458/167 139/459/194
f 136/460/94 240/461/168 238/456/165
f 139/459/194 241/462/170 145/463/194
f 148/464/94 240/461/168 142/465/94
f 145/463/194 243/466/174 151/467/194
f 148/464/94 244/468/175 242/469/171
f 151/467/194 245/470/176 157/471/194
f 154/472/94 246/473/177 244/468/175
f 163/474/194 245/470/176 247/475/179
f 166/476/94 246/473/177 160/477/94
f 169/478/194 247/475/179 249/479/182
f 172/480/94 248/481/180 166/476/94
f 169/478/194 251/482/185 175/483/194
f 172/480/94 252/484/186 250/485/183
f 175/483/194 253/486/188 181/487/194
f 178/488/94 254/489/189 252/484/186
f 181/487/194 255/490/191 187/491/194
f 184/492/94 256/493/192 254/489/189
f 1/368/194 255/490/191 194/494/98
f 4/373/94 256/493/192 190/495/94
f 191/1/1 6/286/100 2/2/2
f 17/4/4 24/289/109 20/5/5
f 23/7/7 30/292/112 26/8/8
f 29/10/10 36/298/115 32/11/11
f 35/13/13 42/301/118 38/14/14
f 41/16/16 48/302/121 44/17/17
f 47/19/19 54/304/124 50/20/20
f 53/22/22 60/306/127 56/23/23
f 59/25/25 66/309/130 62/26/26
f 65/28/28 72/311/133 68/29/29
f 71/31/31 78/313/136 74/32/32
f 77/34/34 84/319/139 80/35/35
f 83/37/37 90/322/142 86/38/38
f 89/40/40 96/323/145 92/41/41
f 95/43/43 102/327/148 98/44/44
f 101/46/46 108/328/151 104/47/47
f 107/49/49 114/331/154 110/50/50
f 113/52/52 120/332/157 116/53/53
f 119/55/55 126/334/160 122/56/56
f 125/58/58 132/340/163 128/59/59
f 131/61/61 138/341/166 134/62/62
f 137/64/64 144/343/169 140/65/65
f 143/67/67 150/345/173 146/68/68
f 147/70/70 149/346/172 156/71/71
f 155/73/73 162/350/178 158/74/74
f 161/76/76 168/352/181 164/77/77
f 167/79/79 174/356/184 170/80/80
f 173/82/82 180/360/187 176/83/83
f 179/85/85 186/361/190 182/86/86
f 185/88/88 192/363/193 188/89/89
f 11/91/91 18/287/106 14/92/92
f 16/96/94 10/496/94 4/497/94
f 4/497/94 190/498/94 184/499/94
f 184/499/94 178/500/94 172/501/94
f 172/501/94 166/502/94 160/503/94
f 160/503/94 154/504/94 148/505/94
f 148/505/94 142/506/94 136/507/94
f 136/507/94 130/508/94 124/509/94
f 124/509/94 118/510/94 112/94/94
f 112/94/94 106/511/94 100/512/94
f 100/512/94 94/513/94 88/514/94
f 88/514/94 82/515/94 76/516/94
f 76/516/94 70/517/94 64/95/94
f 64/95/94 58/518/94 52/519/94
f 52/519/94 46/520/94 40/521/94
f 40/521/94 34/522/94 28/523/94
f 28/523/94 22/524/94 16/96/94
f 16/96/94 4/497/94 184/499/94
f 184/499/94 172/501/94 160/503/94
f 160/503/94 148/505/94 136/507/94
f 136/507/94 124/509/94 112/94/94
f 112/94/94 100/512/94 88/514/94
f 88/514/94 76/516/94 64/95/94
f 64/95/94 52/519/94 40/521/94
f 40/521/94 28/523/94 16/96/94
f 16/96/94 184/499/94 160/503/94
f 160/503/94 136/507/94 112/94/94
f 112/94/94 88/514/94 64/95/94
f 64/95/94 40/521/94 16/96/94
f 16/96/94 160/503/94 112/94/94
f 5/97/95 12/283/103 8/98/96
f 8/98/96 193/525/101 194/282/98
f 12/283/103 5/97/95 195/284/99
f 6/286/100 5/104/95 3/102/97
f 9/93/93 8/98/96 12/283/103
f 14/92/92 197/112/104 193/106/101
f 18/287/106 11/91/91 196/109/102
f 15/6/6 14/92/92 18/287/106
f 20/5/5 199/118/107 197/288/104
f 24/289/109 17/4/4 198/290/105
f 21/9/9 20/5/5 24/289/109
f 26/8/8 201/124/110 199/291/107
f 30/292/112 23/7/7 200/293/108
f 27/12/12 26/8/8 30/292/112
f 27/12/12 32/11/11 203/295/113
f 29/10/10 202/126/111 204/297/114
f 33/15/15 32/11/11 36/298/115
f 33/15/15 38/14/14 205/299/116
f 35/13/13 204/131/114 206/300/117
f 39/18/18 38/14/14 42/301/118
f 39/18/18 44/17/17 207/140/119
f 41/16/16 206/137/117 208/142/120
f 45/21/21 44/17/17 48/302/121
f 45/21/21 50/20/20 209/145/122
f 47/19/19 208/526/120 210/148/123
f 51/24/24 50/20/20 54/304/124
f 56/23/23 211/527/125 209/305/122
f 60/306/127 53/22/22 210/307/123
f 57/27/27 56/23/23 60/306/127
f 62/26/26 213/156/128 211/151/125
f 66/309/130 59/25/25 212/154/126
f 63/30/30 62/26/26 66/309/130
f 63/30/30 68/29/29 215/162/131
f 65/28/28 214/528/129 216/165/132
f 69/33/33 68/29/29 72/311/133
f 74/32/32 217/168/134 215/312/131
f 78/313/136 71/31/31 216/314/132
f 75/36/36 74/32/32 78/313/136
f 75/36/36 80/35/35 219/316/137
f 77/34/34 218/170/135 220/318/138
f 81/39/39 80/35/35 84/319/139
f 81/39/39 86/38/38 221/320/140
f 83/37/37 220/175/138 222/321/141
f 87/42/42 86/38/38 90/322/142
f 87/42/42 92/41/41 223/184/143
f 89/40/40 222/181/141 224/187/144
f 93/45/45 92/41/41 96/323/145
f 93/45/45 98/44/44 225/324/146
f 95/43/43 224/529/144 226/326/147
f 101/46/46 99/48/48 98/44/44
f 104/47/47 227/530/149 225/190/146
f 108/328/151 101/46/46 226/193/147
f 105/51/51 104/47/47 108/328/151
f 110/50/50 229/531/152 227/196/149
f 107/49/49 228/199/150 230/330/153
f 111/54/54 110/50/50 114/331/154
f 116/53/53 231/208/155 229/202/152
f 120/332/157 113/52/52 230/205/153
f 117/57/57 116/53/53 120/332/157
f 122/56/56 233/214/158 231/333/155
f 126/334/160 119/55/55 232/335/156
f 123/60/60 122/56/56 126/334/160
f 123/60/60 128/59/59 235/337/161
f 125/58/58 234/216/159 236/339/162
f 129/63/63 128/59/59 132/340/163
f 134/62/62 237/532/164 235/218/161
f 138/341/166 131/61/61 236/221/162
f 135/66/66 134/62/62 138/341/166
f 140/65/65 239/230/167 237/224/164
f 137/64/64 238/227/165 240/233/168
f 141/69/69 140/65/65 144/343/169
f 141/69/69 146/68/68 241/236/170
f 143/67/67 240/533/168 242/239/171
f 147/70/70 146/68/68 150/345/173
f 152/72/72 243/534/174 241/347/170
f 156/71/71 149/346/172 242/348/171
f 153/75/75 152/72/72 156/71/71
f 158/74/74 245/248/176 243/242/174
f 162/350/178 155/73/73 244/245/175
f 159/78/78 158/74/74 162/350/178
f 164/77/77 247/254/179 245/351/176
f 168/352/181 161/76/76 246/353/177
f 165/81/81 164/77/77 168/352/181
f 170/80/80 249/535/182 247/355/179
f 174/356/184 167/79/79 248/256/180
f 171/84/84 170/80/80 174/356/184
f 171/84/84 176/83/83 251/358/185
f 173/82/82 250/261/183 252/359/186
f 177/87/87 176/83/83 180/360/187
f 182/86/86 253/270/188 251/264/185
f 186/361/190 179/85/85 252/267/186
f 183/90/90 182/86/86 186/361/190
f 183/90/90 188/89/89 255/276/191
f 185/88/88 254/536/189 256/279/192
f 189/3/3 188/89/89 192/363/193
f 189/3/3 2/2/2 194/100/98
f 191/1/1 256/537/192 195/103/99
f 187/367/194 1/538/194 7/539/194
f 7/539/194 13/540/194 19/541/194
f 19/541/194 25/542/194 31/543/194
f 31/543/194 37/544/194 43/545/194
f 43/545/194 49/546/194 55/547/194
f 55/547/194 61/548/194 67/549/194
f 67/549/194 73/550/194 79/551/194
f 79/551/194 85/552/194 91/365/194
f 91/365/194 97/553/194 103/554/194
f 103/554/194 109/555/194 115/556/194
f 115/556/194 121/557/194 127/558/194
f 127/558/194 133/559/194 139/366/194
f 139/366/194 145/560/194 151/561/194
f 151/561/194 157/562/194 163/563/194
f 163/563/194 169/564/194 175/565/194
f 175/565/194 181/566/194 187/367/194
f 187/367/194 7/539/194 19/541/194
f 19/541/194 31/543/194 43/545/194
f 43/545/194 55/547/194 67/549/194
f 67/549/194 79/551/194 91/365/194
f 91/365/194 103/554/194 115/556/194
f 115/556/194 127/558/194 139/366/194
f 139/366/194 151/561/194 163/563/194
f 163/563/194 175/565/194 187/367/194
f 187/367/194 19/541/194 43/545/194
f 43/545/194 67/549/194 91/365/194
f 91/365/194 115/556/194 139/366/194
f 139/366/194 163/563/194 187/367/194
f 187/367/194 43/545/194 91/365/194
f 1/368/194 194/494/98 193/369/101
f 10/371/94 196/377/102 195/372/99
f 7/370/194 193/369/101 197/374/104
f 10/371/94 16/380/94 198/376/105
f 13/375/194 197/374/104 199/378/107
f 16/380/94 22/385/94 200/381/108
f 19/379/194 199/378/107 201/382/110
f 28/384/94 202/389/111 200/381/108
f 25/383/194 201/382/110 203/386/113
f 34/388/94 204/393/114 202/389/111
f 31/387/194 203/386/113 205/390/116
f 34/388/94 40/396/94 206/392/117
f 37/391/194 205/390/116 207/394/119
f 40/396/94 46/401/94 208/397/120
f 43/395/194 207/394/119 209/398/122
f 52/400/94 210/405/123 208/397/120
f 49/399/194 209/398/122 211/402/125
f 52/400/94 58/409/94 212/404/126
f 55/403/194 211/402/125 213/406/128
f 64/408/94 214/413/129 212/404/126
f 67/410/194 61/407/194 213/406/128
f 70/412/94 216/417/132 214/413/129
f 67/410/194 215/411/131 217/414/134
f 76/416/94 218/421/135 216/417/132
f 73/415/194 217/414/134 219/418/137
f 82/420/94 220/425/138 218/421/135
f 85/422/194 79/419/194 219/418/137
f 88/424/94 222/429/141 220/425/138
f 85/422/194 221/423/140 223/426/143
f 88/424/94 94/433/94 224/428/144
f 91/427/194 223/426/143 225/430/146
f 100/432/94 226/437/147 224/428/144
f 97/431/194 225/430/146 227/434/149
f 100/432/94 106/440/94 228/436/150
f 103/435/194 227/434/149 229/438/152
f 106/440/94 112/445/94 230/441/153
f 109/439/194 229/438/152 231/442/155
f 118/444/94 232/449/156 230/441/153
f 121/446/194 115/443/194 231/442/155
f 124/448/94 234/453/159 232/449/156
f 127/450/194 121/446/194 233/447/158
f 130/452/94 236/457/162 234/453/159
f 127/450/194 235/451/161 237/454/164
f 130/452/94 136/460/94 238/456/165
f 133/455/194 237/454/164 239/458/167
f 136/460/94 142/465/94 240/461/168
f 139/459/194 239/458/167 241/462/170
f 148/464/94 242/469/171 240/461/168
f 145/463/194 241/462/170 243/466/174
f 148/464/94 154/472/94 244/468/175
f 151/467/194 243/466/174 245/470/176
f 154/472/94 160/477/94 246/473/177
f 163/474/194 157/471/194 245/470/176
f 166/476/94 248/481/180 246/473/177
f 169/478/194 163/474/194 247/475/179
f 172/480/94 250/485/183 248/481/180
f 169/478/194 249/479/182 251/482/185
f 172/480/94 178/488/94 252/484/186
f 175/483/194 251/482/185 253/486/188
f 178/488/94 184/492/94 254/489/189
f 181/487/194 253/486/188 255/490/191
f 184/492/94 190/495/94 256/493/192
f 1/368/194 187/491/194 255/490/191
f 4/373/94 195/372/99 256/493/192
