# Blender 5.0.0
# www.blender.org
mtllib GoldMole.mtl
o Body.012
v 0.000000 0.000000 0.000000
v 0.868329 0.329171 0.525725
v -0.331666 0.329170 0.850649
v -1.073312 0.329177 0.000000
v -0.331666 0.329170 -0.850649
v 0.868329 0.329171 -0.525725
v 0.331666 1.670830 0.750649
v -0.868329 1.670829 0.525725
v -0.868329 1.670829 -0.525725
v 0.331666 1.670830 -0.850649
v 1.073312 1.670823 0.000000
v 0.000000 2.500000 0.000000
v -0.194947 -0.025982 0.499995
v 0.510387 -0.025981 0.309011
v 0.315443 0.211394 0.809012
v 1.020777 0.211396 0.000000
v 0.510387 -0.025981 -0.309011
v -0.630876 -0.025977 0.000000
v -0.825827 0.211396 0.499997
v -0.194947 -0.025982 -0.499995
v -0.825827 0.211396 -0.499997
v 0.315443 0.211394 -0.809012
v 1.141269 1.000000 0.309013
v 1.141269 1.000000 -0.309013
v 0.000000 1.000000 0.980175
v 0.705343 1.000000 0.789191
v -1.141269 1.000000 0.309013
v -0.705343 1.000000 0.789191
v -0.705343 1.000000 -0.809017
v -1.141269 1.000000 -0.309013
v 0.705343 1.000000 -0.809017
v 0.000000 1.000000 -1.000000
v 0.825827 1.788604 0.499997
v -0.315443 1.788606 0.709012
v -1.020777 1.788604 0.000000
v -0.315443 1.788606 -0.809012
v 0.825827 1.788604 -0.499997
v 0.194947 2.275981 0.499995
v 0.630876 2.275978 0.000000
v -0.510387 2.275981 0.309011
v -0.510387 2.275981 -0.309011
v 0.194947 2.275981 -0.499995
v -0.500000 2.035985 0.660000
v -0.500000 2.035985 0.740000
v -0.437500 2.012539 0.660000
v -0.437500 2.012539 0.740000
v -0.391747 1.948484 0.660000
v -0.391747 1.948484 0.740000
v -0.375000 1.860984 0.660000
v -0.375000 1.860984 0.740000
v -0.391747 1.773484 0.660000
v -0.391747 1.773484 0.740000
v -0.437500 1.709430 0.660000
v -0.437500 1.709430 0.740000
v -0.500000 1.685984 0.660000
v -0.500000 1.685984 0.740000
v -0.562500 1.709430 0.660000
v -0.562500 1.709430 0.740000
v -0.608253 1.773484 0.660000
v -0.608253 1.773484 0.740000
v -0.625000 1.860984 0.660000
v -0.625000 1.860984 0.740000
v -0.608253 1.948484 0.660000
v -0.608253 1.948484 0.740000
v -0.562500 2.012539 0.660000
v -0.562500 2.012539 0.740000
v 0.894535 0.625397 0.934675
v 0.691304 0.381017 0.539368
v 1.211084 0.284787 0.631957
v 1.377727 0.817093 0.843782
v 1.100094 1.267847 0.923493
v 0.536702 0.972789 0.693969
v 1.039068 0.357697 0.180859
v 1.463298 0.627211 0.368999
v 1.308696 1.218983 0.523600
v 0.788916 1.315213 0.431012
v 0.622273 0.782907 0.219186
v 1.099390 0.935062 0.113896
v 0.760134 0.474342 0.781571
v 0.942625 0.250894 0.595174
v 0.546235 0.655291 0.631624
v 0.669262 0.822175 0.872443
v 1.230813 0.693882 0.964602
v 1.346095 0.507214 0.774105
v 0.918616 0.980590 0.983028
v 1.254027 1.080115 0.937487
v 0.704717 1.161541 0.833083
v 0.596530 0.543682 0.352553
v 0.505658 0.891515 0.443425
v 1.147036 0.237185 0.384448
v 0.841516 0.293747 0.330025
v 1.494342 0.708485 0.619543
v 1.396394 0.395600 0.495034
v 1.158484 1.306253 0.732944
v 1.403470 1.056318 0.710415
v 0.603606 1.204400 0.567935
v 0.852964 1.362815 0.678521
v 0.800940 0.529975 0.141827
v 1.295283 0.438459 0.229886
v 1.453765 0.944709 0.431344
v 1.057375 1.349106 0.467794
v 0.653905 1.092786 0.288863
v 1.081384 0.619411 0.079940
v 0.836398 0.869340 0.102468
v 1.330738 0.777825 0.190525
v 1.239866 1.125658 0.281397
v 0.934349 1.182220 0.226975
v 0.920240 0.296532 0.836169
v 0.999799 0.598963 0.952921
v 1.225719 0.306855 0.792647
v 1.192097 0.584041 0.993863
v 0.849210 0.867080 0.959237
v 1.224544 0.768106 1.046843
v 0.791193 1.213100 0.848956
v 1.114240 1.165304 0.984110
v 0.940777 1.348796 0.818779
v -0.000000 1.214294 1.428033
v -0.009952 1.273604 1.438033
v 0.009952 1.273604 1.438033
v -0.000000 1.214294 1.528033
v 0.009952 1.273604 1.518034
v -0.009952 1.273604 1.518034
v 0.085783 1.205845 1.428033
v 0.087593 1.265957 1.438033
v 0.107114 1.262074 1.438033
v 0.085783 1.205845 1.528033
v 0.107114 1.262074 1.518034
v 0.087593 1.265957 1.518034
v 0.168269 1.180823 1.428033
v 0.181772 1.239426 1.438033
v 0.200161 1.231810 1.438033
v 0.168269 1.180823 1.528033
v 0.200161 1.231810 1.518034
v 0.181772 1.239426 1.518034
v 0.244289 1.140189 1.428033
v 0.268966 1.195033 1.438034
v 0.285515 1.183975 1.438034
v 0.244289 1.140189 1.528033
v 0.285515 1.183975 1.518034
v 0.268966 1.195033 1.518034
v 0.310921 1.085506 1.428034
v 0.345823 1.134481 1.438034
v 0.359897 1.120407 1.438034
v 0.310921 1.085506 1.528034
v 0.359897 1.120407 1.518034
v 0.345823 1.134481 1.518034
v 0.365605 1.018874 1.428034
v 0.409391 1.060099 1.438034
v 0.420448 1.043550 1.438034
v 0.365605 1.018874 1.528034
v 0.420448 1.043550 1.518034
v 0.409391 1.060099 1.518034
v 0.406238 0.942854 1.428034
v 0.457225 0.974745 1.438034
v 0.464842 0.956356 1.438034
v 0.406238 0.942854 1.528034
v 0.464842 0.956356 1.518034
v 0.457225 0.974745 1.518034
v 0.431260 0.860367 1.428034
v 0.487489 0.881698 1.438034
v 0.491372 0.862177 1.438034
v 0.431260 0.860367 1.528034
v 0.491372 0.862177 1.518034
v 0.487489 0.881698 1.518034
v 0.439709 0.774584 1.428034
v 0.499019 0.784536 1.438034
v 0.499019 0.764632 1.438034
v 0.439709 0.774584 1.528034
v 0.499019 0.764632 1.518034
v 0.499019 0.784536 1.518034
v 0.431260 0.688801 1.428034
v 0.491372 0.686991 1.438034
v 0.487489 0.667469 1.438034
v 0.431260 0.688801 1.528034
v 0.487489 0.667469 1.518034
v 0.491372 0.686991 1.518034
v 0.406238 0.606314 1.428034
v 0.464842 0.592812 1.438034
v 0.457225 0.574423 1.438034
v 0.406238 0.606314 1.528034
v 0.457225 0.574423 1.518034
v 0.464842 0.592812 1.518034
v 0.365605 0.530294 1.428034
v 0.420448 0.505618 1.438034
v 0.409390 0.489069 1.438034
v 0.365605 0.530294 1.528034
v 0.409390 0.489069 1.518034
v 0.420448 0.505618 1.518034
v 0.310921 0.463662 1.428034
v 0.359897 0.428761 1.438034
v 0.345823 0.414687 1.438034
v 0.310921 0.463662 1.528034
v 0.345823 0.414687 1.518034
v 0.359897 0.428761 1.518034
v 0.244289 0.408979 1.428034
v 0.285515 0.365193 1.438034
v 0.268965 0.354135 1.438034
v 0.244289 0.408979 1.528034
v 0.268965 0.354135 1.518034
v 0.285515 0.365193 1.518034
v 0.168269 0.368345 1.428034
v 0.200161 0.317358 1.438034
v 0.181772 0.309741 1.438034
v 0.168269 0.368345 1.528034
v 0.181772 0.309741 1.518034
v 0.200161 0.317358 1.518034
v 0.085783 0.343323 1.428034
v 0.107114 0.287094 1.438034
v 0.087593 0.283211 1.438034
v 0.085783 0.343323 1.528034
v 0.087593 0.283211 1.518034
v 0.107114 0.287094 1.518034
v -0.000000 0.334874 1.428034
v 0.009951 0.275564 1.438034
v -0.009952 0.275564 1.438034
v -0.000000 0.334874 1.528034
v -0.009952 0.275564 1.518034
v 0.009951 0.275564 1.518034
v -0.085784 0.343323 1.428034
v -0.087594 0.283211 1.438034
v -0.107115 0.287094 1.438034
v -0.085784 0.343323 1.528034
v -0.107115 0.287094 1.518034
v -0.087594 0.283211 1.518034
v -0.168270 0.368345 1.428034
v -0.181773 0.309741 1.438034
v -0.200161 0.317358 1.438034
v -0.168270 0.368345 1.528034
v -0.200161 0.317358 1.518034
v -0.181773 0.309741 1.518034
v -0.244290 0.408979 1.428034
v -0.268966 0.354135 1.438034
v -0.285516 0.365193 1.438034
v -0.244290 0.408979 1.528034
v -0.285516 0.365193 1.518034
v -0.268966 0.354135 1.518034
v -0.310922 0.463662 1.428033
v -0.345824 0.414687 1.438034
v -0.359898 0.428761 1.438034
v -0.310922 0.463663 1.528033
v -0.359898 0.428761 1.518034
v -0.345824 0.414687 1.518034
v -0.365606 0.530295 1.428033
v -0.409391 0.489069 1.438033
v -0.420449 0.505618 1.438033
v -0.365606 0.530295 1.528033
v -0.420449 0.505618 1.518034
v -0.409391 0.489069 1.518034
v -0.406239 0.606315 1.428033
v -0.457226 0.574423 1.438033
v -0.464843 0.592812 1.438033
v -0.406239 0.606315 1.528033
v -0.464843 0.592812 1.518034
v -0.457226 0.574423 1.518034
v -0.431261 0.688801 1.428033
v -0.487490 0.667470 1.438033
v -0.491373 0.686991 1.438033
v -0.431261 0.688801 1.528033
v -0.491373 0.686991 1.518034
v -0.487490 0.667470 1.518034
v -0.439710 0.774584 1.428033
v -0.499020 0.764633 1.438033
v -0.499020 0.784536 1.438033
v -0.439710 0.774584 1.528033
v -0.499020 0.784536 1.518034
v -0.499020 0.764633 1.518034
v -0.431261 0.860368 1.428033
v -0.491373 0.862178 1.438033
v -0.487490 0.881699 1.438033
v -0.431261 0.860368 1.528033
v -0.487490 0.881699 1.518034
v -0.491373 0.862178 1.518034
v -0.406239 0.942854 1.428033
v -0.464843 0.956357 1.438033
v -0.457226 0.974745 1.438033
v -0.406239 0.942854 1.528033
v -0.457226 0.974745 1.518034
v -0.464843 0.956357 1.518034
v -0.365605 1.018874 1.428033
v -0.420449 1.043550 1.438033
v -0.409391 1.060100 1.438033
v -0.365605 1.018874 1.528033
v -0.409391 1.060100 1.518034
v -0.420449 1.043550 1.518034
v -0.310922 1.085506 1.428033
v -0.359897 1.120408 1.438033
v -0.345823 1.134482 1.438033
v -0.310922 1.085506 1.528033
v -0.345823 1.134482 1.518034
v -0.359897 1.120408 1.518034
v -0.244289 1.140190 1.428033
v -0.285515 1.183975 1.438033
v -0.268966 1.195033 1.438033
v -0.244289 1.140190 1.528033
v -0.268966 1.195033 1.518034
v -0.285515 1.183975 1.518034
v -0.168269 1.180823 1.428033
v -0.200161 1.231810 1.438033
v -0.181772 1.239427 1.438033
v -0.168269 1.180823 1.528033
v -0.181772 1.239427 1.518034
v -0.200161 1.231810 1.518034
v -0.085783 1.205845 1.428033
v -0.107114 1.262074 1.438033
v -0.087593 1.265957 1.438033
v -0.085783 1.205845 1.528033
v -0.087593 1.265957 1.518034
v -0.107114 1.262074 1.518034
v 0.095585 1.255121 1.428033
v -0.000000 1.264536 1.428033
v -0.000000 1.264536 1.528033
v 0.095585 1.255121 1.528033
v 0.187496 1.227240 1.428033
v 0.187496 1.227240 1.528033
v 0.272202 1.181964 1.428033
v 0.272202 1.181964 1.528033
v 0.346448 1.121032 1.428034
v 0.346448 1.121032 1.528034
v 0.407379 1.046787 1.428034
v 0.407379 1.046787 1.528034
v 0.452656 0.962080 1.428034
v 0.452656 0.962080 1.528034
v 0.480537 0.870169 1.428034
v 0.480537 0.870169 1.528034
v 0.489951 0.774584 1.428034
v 0.489951 0.774584 1.528034
v 0.480537 0.678999 1.428034
v 0.480537 0.678999 1.528034
v 0.452656 0.587088 1.428034
v 0.452656 0.587088 1.528034
v 0.407380 0.502381 1.428034
v 0.407380 0.502381 1.528034
v 0.346448 0.428136 1.428034
v 0.346448 0.428136 1.528034
v 0.272202 0.367204 1.428034
v 0.272202 0.367204 1.528034
v 0.187496 0.321928 1.428034
v 0.187496 0.321928 1.528034
v 0.095584 0.294047 1.428034
v 0.095584 0.294047 1.528034
v -0.000000 0.284632 1.428034
v -0.000001 0.284632 1.528034
v -0.095585 0.294047 1.428034
v -0.095585 0.294047 1.528034
v -0.187497 0.321928 1.428034
v -0.187497 0.321928 1.528034
v -0.272203 0.367204 1.428034
v -0.272203 0.367204 1.528034
v -0.346449 0.428136 1.428033
v -0.346449 0.428136 1.528033
v -0.407380 0.502382 1.428033
v -0.407380 0.502382 1.528033
v -0.452657 0.587088 1.428033
v -0.452657 0.587088 1.528033
v -0.480538 0.679000 1.428033
v -0.480538 0.679000 1.528033
v -0.489952 0.774584 1.428033
v -0.489952 0.774584 1.528033
v -0.480538 0.870169 1.428033
v -0.480538 0.870169 1.528033
v -0.452656 0.962081 1.428033
v -0.452656 0.962081 1.528033
v -0.407380 1.046787 1.428033
v -0.407380 1.046787 1.528033
v -0.346448 1.121032 1.428033
v -0.346448 1.121032 1.528033
v -0.272202 1.181964 1.428033
v -0.272202 1.181964 1.528033
v -0.187496 1.227241 1.428033
v -0.187496 1.227241 1.528033
v -0.095584 1.255121 1.428033
v -0.095584 1.255121 1.528033
v -0.839153 0.928836 0.933605
v -0.563189 1.082965 0.536894
v -1.015349 1.357235 0.628177
v -1.359023 0.919573 0.843421
v -1.258421 0.400360 0.926551
v -0.627409 0.475802 0.695721
v -0.880741 1.225185 0.177801
v -1.372591 1.124198 0.367248
v -1.436811 0.517035 0.526074
v -0.984651 0.242765 0.434791
v -0.640977 0.680427 0.219547
v -1.141213 0.705911 0.114703
v -0.660248 1.021626 0.779642
v -0.752271 1.293857 0.591498
v -0.524247 0.775764 0.631199
v -0.697995 0.664747 0.872998
v -1.177906 0.983763 0.963581
v -1.220051 1.197817 0.771672
v -0.987095 0.605389 0.984350
v -1.336095 0.630457 0.939072
v -0.851095 0.359524 0.835909
v -0.532220 0.896039 0.351311
v -0.569967 0.539158 0.444666
v -0.938923 1.377453 0.380429
v -0.673149 1.216242 0.326773
v -1.430032 1.060842 0.618302
v -1.228027 1.318096 0.491783
v -1.326851 0.383758 0.736195
v -1.467780 0.703961 0.711658
v -0.771973 0.281904 0.571185
v -1.061077 0.222547 0.682539
v -0.718872 0.979633 0.140242
v -1.148905 1.240476 0.227059
v -1.475753 0.824236 0.431769
v -1.247729 0.306143 0.471470
v -0.779949 0.402183 0.291297
v -1.012905 0.994611 0.078618
v -0.871975 0.674413 0.103155
v -1.302005 0.935253 0.189971
v -1.339752 0.578374 0.283326
v -1.073982 0.417164 0.229671
v -0.747151 1.244898 0.832826
v -0.928270 0.990874 0.951539
v -1.036636 1.342856 0.788996
v -1.102848 1.073043 0.992140
v -0.882096 0.686897 0.959872
v -1.198158 0.912674 1.046333
v -0.950190 0.341947 0.852027
v -1.235356 0.501701 0.986449
v -1.138102 0.267639 0.822589
v 0.500000 2.035985 0.660000
v 0.500000 2.035985 0.740000
v 0.562500 2.012539 0.660000
v 0.562500 2.012539 0.740000
v 0.608253 1.948484 0.660000
v 0.608253 1.948484 0.740000
v 0.625000 1.860984 0.660000
v 0.625000 1.860984 0.740000
v 0.608253 1.773484 0.660000
v 0.608253 1.773484 0.740000
v 0.562500 1.709430 0.660000
v 0.562500 1.709430 0.740000
v 0.500000 1.685984 0.660000
v 0.500000 1.685984 0.740000
v 0.437500 1.709430 0.660000
v 0.437500 1.709430 0.740000
v 0.391747 1.773484 0.660000
v 0.391747 1.773484 0.740000
v 0.375000 1.860984 0.660000
v 0.375000 1.860984 0.740000
v 0.391747 1.948484 0.660000
v 0.391747 1.948484 0.740000
v 0.437500 2.012539 0.660000
v 0.437500 2.012539 0.740000
v 0.000000 1.393624 1.494484
v 0.108540 1.476542 1.573342
v -0.041458 1.476542 1.622080
v -0.134164 1.476542 1.494484
v -0.041458 1.476542 1.366888
v 0.108540 1.476542 1.415626
v 0.041458 1.610706 1.622080
v -0.108540 1.610706 1.573342
v -0.108540 1.610706 1.415626
v 0.041458 1.610706 1.366888
v 0.134164 1.610706 1.494484
v 0.000000 1.693624 1.494484
v 0.000000 1.804643 0.555880
v 0.000000 1.764305 0.755880
v 0.293893 1.709152 0.555880
v 0.293893 1.668814 0.755880
v 0.475528 1.459152 0.555880
v 0.475528 1.459152 0.755880
v 0.475528 1.150135 0.555880
v 0.475528 1.150135 0.755880
v 0.293893 0.900135 0.555880
v 0.293893 0.900135 0.755880
v -0.000000 0.804643 0.555880
v -0.000000 0.804643 0.755880
v -0.293893 0.900135 0.555880
v -0.293893 0.900135 0.755880
v -0.475528 1.150135 0.555880
v -0.475528 1.150135 0.755880
v -0.475528 1.459152 0.555880
v -0.475528 1.459152 0.755880
v -0.293892 1.709152 0.555880
v -0.293892 1.668814 0.755880
v 0.205725 1.513785 1.005880
v 0.000000 1.580629 1.005880
v 0.332870 1.412799 1.005880
v 0.332870 1.196487 1.005880
v 0.205725 1.021487 1.005880
v 0.000000 0.954643 1.005880
v -0.205725 1.021487 1.005880
v -0.332870 1.196487 1.005880
v -0.332870 1.412799 1.005880
v -0.205725 1.513785 1.005880
v 0.129572 1.449309 1.255880
v -0.000000 1.491410 1.255880
v 0.209653 1.372764 1.255880
v 0.209653 1.236523 1.255880
v 0.129573 1.126302 1.255880
v -0.000000 1.084201 1.255880
v -0.129573 1.126302 1.255880
v -0.209653 1.236523 1.255880
v -0.209653 1.372764 1.255880
v -0.129572 1.449309 1.255880
v 0.041405 1.540349 1.505880
v -0.000000 1.553802 1.505880
v 0.066994 1.505128 1.505880
v 0.066994 1.461592 1.505880
v 0.041405 1.426371 1.505880
v -0.000000 1.412918 1.505880
v -0.041405 1.426371 1.505880
v -0.066994 1.461592 1.505880
v -0.066994 1.505128 1.505880
v -0.041405 1.540349 1.505880
v 0.596462 1.148754 0.790000
v 0.617168 1.226028 0.790000
v 0.596462 1.148754 0.710000
v 0.617168 1.226028 0.710000
v 0.982832 1.045226 0.790000
v 1.003538 1.122500 0.790000
v 0.982832 1.045226 0.710000
v 1.003538 1.122500 0.710000
v -1.050000 1.360000 0.790000
v -1.050000 1.440000 0.790000
v -1.050000 1.360000 0.710000
v -1.050000 1.440000 0.710000
v -0.550000 1.360000 0.790000
v -0.550000 1.440000 0.790000
v -0.550000 1.360000 0.710000
v -0.550000 1.440000 0.710000
v 0.550000 1.360000 0.790000
v 0.550000 1.440000 0.790000
v 0.550000 1.360000 0.710000
v 0.550000 1.440000 0.710000
v 1.050000 1.360000 0.790000
v 1.050000 1.440000 0.790000
v 1.050000 1.360000 0.710000
v 1.050000 1.440000 0.710000
v -0.982832 1.045226 0.790000
v -1.003538 1.122500 0.790000
v -0.982832 1.045226 0.710000
v -1.003538 1.122500 0.710000
v -0.596462 1.148754 0.790000
v -0.617167 1.226028 0.790000
v -0.596462 1.148754 0.710000
v -0.617167 1.226028 0.710000
vn -0.0157 -0.9982 -0.0580
vn 0.5555 -0.7624 0.3319
vn 0.0411 -0.9985 -0.0359
vn 0.0411 -0.9985 0.0359
vn -0.0157 -0.9982 0.0580
vn 0.9085 -0.2653 0.3229
vn 0.0262 -0.2020 0.9790
vn -0.8878 -0.2637 0.3773
vn -0.5229 -0.2405 -0.8177
vn 0.4826 -0.2386 -0.8427
vn 0.7378 -0.0838 0.6698
vn -0.2609 -0.0571 0.9637
vn -0.9949 -0.1008 -0.0000
vn -0.2604 -0.0854 -0.9617
vn 0.7504 -0.0940 -0.6542
vn 0.3274 0.4238 0.8445
vn -0.3666 0.4982 0.7857
vn -0.7490 0.5662 -0.3440
vn 0.0369 0.5073 -0.8610
vn 0.7812 0.5711 -0.2521
vn 0.3212 0.9046 -0.2801
vn 0.5395 0.6984 -0.4704
vn 0.4057 0.5251 -0.7481
vn -0.1204 0.8876 -0.4446
vn -0.1957 0.6630 -0.7226
vn -0.4732 0.5315 -0.7026
vn -0.4019 0.9157 -0.0000
vn -0.6906 0.7232 -0.0000
vn -0.7490 0.5662 0.3440
vn -0.1204 0.8876 0.4446
vn -0.2154 0.5666 0.7953
vn 0.0106 0.3847 0.9230
vn 0.3212 0.9046 0.2801
vn 0.5395 0.6984 0.4704
vn 0.7812 0.5711 0.2521
vn 0.8878 0.2637 -0.3773
vn 0.7462 0.1409 -0.6506
vn 0.5229 0.2405 -0.8177
vn -0.0213 0.2273 -0.9736
vn -0.2592 0.1282 -0.9573
vn -0.4826 0.2386 -0.8427
vn -0.9085 0.2653 -0.3229
vn -0.9885 0.1510 -0.0000
vn -0.9085 0.2653 0.3229
vn -0.3539 0.2661 0.8966
vn -0.2549 0.2217 0.9412
vn -0.0018 0.3245 0.9459
vn 0.3851 0.2653 0.8839
vn 0.7339 0.1322 0.6663
vn 0.8878 0.2637 0.3773
vn 0.2604 0.0854 -0.9617
vn 0.2592 -0.1282 -0.9573
vn 0.0213 -0.2273 -0.9736
vn -0.7504 0.0940 -0.6542
vn -0.7462 -0.1409 -0.6506
vn -0.8878 -0.2637 -0.3773
vn -0.7378 0.0838 0.6698
vn -0.7339 -0.1322 0.6663
vn -0.5292 -0.2197 0.8196
vn 0.2562 0.1971 0.9463
vn 0.2599 -0.1044 0.9600
vn 0.4813 -0.2166 0.8493
vn 0.9949 0.1008 -0.0000
vn 0.9885 -0.1510 -0.0000
vn 0.9085 -0.2653 -0.3229
vn 0.4237 -0.7431 -0.5180
vn 0.1259 -0.8763 -0.4651
vn -0.0859 -0.7165 -0.6922
vn -0.2736 -0.7271 -0.6297
vn -0.3366 -0.8947 -0.2935
vn -0.6211 -0.7737 -0.1252
vn -0.6211 -0.7737 0.1252
vn -0.3366 -0.8947 0.2935
vn -0.2736 -0.7271 0.6297
vn 0.5555 -0.7624 -0.3319
vn 0.4217 -0.9067 -0.0000
vn -0.0508 -0.9987 -0.0000
vn -0.0859 -0.7165 0.6922
vn 0.1259 -0.8763 0.4651
vn 0.4237 -0.7431 0.5180
vn 0.3512 0.9363 -0.0000
vn 0.8137 0.5812 -0.0000
vn 0.9822 0.1880 -0.0000
vn 0.9822 -0.1880 -0.0000
vn 0.8137 -0.5812 -0.0000
vn 0.3512 -0.9363 -0.0000
vn -0.3512 -0.9363 -0.0000
vn -0.8137 -0.5812 -0.0000
vn -0.9822 -0.1880 -0.0000
vn -0.9822 0.1880 -0.0000
vn -0.0000 -0.0000 1.0000
vn -0.8137 0.5812 -0.0000
vn -0.3512 0.9363 -0.0000
vn -0.0000 -0.0000 -1.0000
vn 0.0603 -0.9797 0.1911
vn -0.7394 -0.5305 0.4145
vn 0.1073 -0.9863 0.1257
vn -0.8791 -0.4756 0.0318
vn 0.1017 -0.9815 0.1625
vn 0.8251 -0.2028 0.5273
vn 0.7140 0.6110 0.3419
vn -0.8121 0.4420 0.3811
vn -0.7057 -0.6713 -0.2265
vn 0.5275 -0.8491 0.0268
vn 0.9040 0.1298 0.4073
vn 0.2871 0.9182 0.2730
vn -0.9568 0.2897 0.0246
vn -0.0962 -0.3445 -0.9338
vn 0.7268 -0.1536 -0.6694
vn 0.7394 0.5305 -0.4145
vn -0.0279 0.8282 -0.5597
vn -0.5370 0.2369 -0.8097
vn -0.0560 0.3842 -0.9215
vn -0.3242 0.4357 -0.8397
vn -0.3552 0.6469 -0.6748
vn 0.2430 0.5331 -0.8104
vn 0.2485 0.7321 -0.6343
vn 0.4885 0.7586 -0.4311
vn 0.4951 0.3384 -0.8002
vn 0.7168 0.3455 -0.6056
vn 0.8447 0.1274 -0.5198
vn 0.3616 0.0793 -0.9290
vn 0.4791 -0.1504 -0.8648
vn 0.2890 -0.3848 -0.8766
vn 0.0167 0.1060 -0.9942
vn -0.1859 -0.0940 -0.9781
vn -0.4608 -0.0546 -0.8858
vn -0.8251 0.2028 -0.5273
vn -0.8634 0.3951 -0.3136
vn -0.6646 0.6447 -0.3776
vn -0.1017 0.9815 -0.1625
vn 0.1647 0.9817 0.0959
vn 0.4656 0.8843 -0.0346
vn 0.8791 0.4756 -0.0318
vn 0.9693 0.2318 0.0820
vn 0.9883 0.0574 -0.1411
vn 0.8121 -0.4420 -0.3811
vn 0.6077 -0.7142 -0.3472
vn 0.3423 -0.7177 -0.6064
vn -0.3337 -0.6218 -0.7085
vn -0.6157 -0.5530 -0.5613
vn -0.6961 -0.2910 -0.6563
vn -0.5275 0.8491 -0.0268
vn -0.6077 0.7142 0.3472
vn -0.5608 0.7121 0.4223
vn 0.7057 0.6713 0.2265
vn 0.6775 0.6298 0.3799
vn 0.8276 0.2027 0.5234
vn 0.9568 -0.2897 -0.0246
vn 0.8634 -0.3951 0.3136
vn 0.6646 -0.6447 0.3776
vn -0.0770 -0.8754 -0.4773
vn -0.1647 -0.9817 -0.0959
vn -0.4656 -0.8843 0.0346
vn -0.9040 -0.1298 -0.4073
vn -0.9693 -0.2318 -0.0820
vn -0.9883 -0.0574 0.1411
vn -0.7268 0.1536 0.6694
vn -0.4791 0.1504 0.8648
vn -0.5166 0.7274 0.4517
vn -0.4507 0.0894 0.8882
vn 0.6265 0.0170 0.7792
vn 0.7233 -0.2209 0.6542
vn 0.8569 -0.5155 -0.0072
vn 0.7928 -0.1202 0.5976
vn -0.8447 -0.1274 0.5198
vn -0.7168 -0.3455 0.6056
vn -0.5145 -0.3401 0.7872
vn -0.1237 0.1809 0.9757
vn -0.5705 -0.2763 0.7734
vn -0.4885 -0.7586 0.4311
vn -0.7504 -0.6587 0.0551
vn 0.6988 -0.3628 0.6165
vn -0.1748 0.3105 0.9343
vn 0.0902 -0.7359 0.6710
vn 0.9913 -0.0510 0.1216
vn -0.3945 -0.1658 0.9038
vn 0.0309 0.3280 0.9442
vn 0.1923 -0.2092 0.9588
vn 0.5280 0.4849 0.6971
vn -0.3202 0.4490 0.8342
vn 0.1850 0.9826 -0.0176
vn -0.3504 0.3163 0.8816
vn -0.1274 0.9066 0.4022
vn -0.0525 0.9137 -0.4029
vn -0.1274 0.9066 -0.4022
vn 0.3991 0.8243 0.4015
vn 0.4667 0.7896 -0.3983
vn 0.3991 0.8243 -0.4015
vn 0.5528 0.7314 0.3993
vn 0.6132 0.6839 -0.3953
vn 0.5528 0.7314 -0.3993
vn 0.6857 0.6106 0.3963
vn 0.7362 0.5517 -0.3919
vn 0.6857 0.6106 -0.3963
vn 0.7927 0.4662 0.3927
vn 0.8310 0.3980 -0.3887
vn 0.7927 0.4662 -0.3927
vn 0.8696 0.3038 -0.3891
vn 0.8936 0.2287 0.3863
vn 0.8936 0.2287 -0.3863
vn 0.9132 0.1293 0.3865
vn 0.9213 0.0506 -0.3855
vn 0.9132 0.1293 -0.3865
vn 0.9213 -0.0506 0.3855
vn 0.9132 -0.1293 -0.3865
vn 0.9213 -0.0506 -0.3855
vn 0.8936 -0.2287 0.3863
vn 0.8696 -0.3038 -0.3891
vn 0.8936 -0.2287 -0.3863
vn 0.8310 -0.3980 0.3887
vn 0.7927 -0.4662 -0.3927
vn 0.8310 -0.3980 -0.3887
vn 0.7362 -0.5517 0.3920
vn 0.6857 -0.6106 -0.3963
vn 0.7362 -0.5517 -0.3920
vn 0.6132 -0.6839 0.3953
vn 0.5528 -0.7314 -0.3993
vn 0.6132 -0.6839 -0.3953
vn 0.4667 -0.7896 -0.3983
vn 0.3991 -0.8243 0.4015
vn 0.3991 -0.8243 -0.4015
vn 0.3027 -0.8648 0.4007
vn 0.2302 -0.8859 -0.4027
vn 0.3027 -0.8648 -0.4007
vn 0.1274 -0.9066 0.4022
vn 0.0525 -0.9137 -0.4029
vn 0.1274 -0.9066 -0.4022
vn -0.0525 -0.9137 0.4029
vn -0.1274 -0.9066 -0.4022
vn -0.0525 -0.9137 -0.4029
vn -0.2302 -0.8859 0.4027
vn -0.3027 -0.8648 -0.4006
vn -0.2302 -0.8859 -0.4027
vn -0.3991 -0.8243 -0.4015
vn -0.4667 -0.7896 0.3983
vn -0.4667 -0.7896 -0.3983
vn -0.5528 -0.7314 0.3993
vn -0.6132 -0.6839 -0.3953
vn -0.5528 -0.7314 -0.3993
vn -0.6857 -0.6106 -0.3963
vn -0.7362 -0.5517 0.3920
vn -0.7362 -0.5517 -0.3920
vn -0.7927 -0.4662 0.3927
vn -0.8310 -0.3980 -0.3887
vn -0.7927 -0.4662 -0.3927
vn -0.8696 -0.3038 0.3891
vn -0.8936 -0.2287 -0.3863
vn -0.8696 -0.3038 -0.3891
vn -0.9132 -0.1293 0.3865
vn -0.9213 -0.0506 -0.3855
vn -0.9132 -0.1293 -0.3865
vn -0.9213 0.0506 0.3855
vn -0.9132 0.1293 -0.3865
vn -0.9213 0.0506 -0.3855
vn -0.8936 0.2287 0.3863
vn -0.8696 0.3038 -0.3891
vn -0.8936 0.2287 -0.3863
vn -0.8310 0.3980 0.3887
vn -0.7927 0.4662 -0.3927
vn -0.8310 0.3980 -0.3887
vn -0.7362 0.5517 0.3919
vn -0.6857 0.6106 -0.3963
vn -0.7362 0.5517 -0.3920
vn -0.6132 0.6839 0.3953
vn -0.5528 0.7314 -0.3993
vn -0.6132 0.6839 -0.3953
vn -0.4667 0.7896 0.3983
vn -0.3991 0.8243 -0.4015
vn -0.4667 0.7896 -0.3983
vn -0.3027 0.8648 0.4007
vn -0.2302 0.8859 -0.4027
vn -0.3027 0.8648 -0.4007
vn 0.2302 0.8859 0.4027
vn 0.3027 0.8648 -0.4006
vn 0.2302 0.8859 -0.4027
vn 0.0525 0.9137 0.4029
vn 0.1274 0.9066 -0.4022
vn 0.0525 0.9137 -0.4029
vn -0.0000 0.3566 -0.9343
vn -0.0000 0.3566 0.9343
vn -0.0525 0.9137 0.4029
vn 0.0693 0.3509 -0.9338
vn 0.0693 0.3509 0.9338
vn 0.1274 0.9066 0.4022
vn 0.1372 0.3339 -0.9326
vn 0.1372 0.3339 0.9326
vn 0.3027 0.8648 0.4007
vn 0.2023 0.3052 -0.9305
vn 0.2023 0.3052 0.9305
vn 0.4667 0.7896 0.3983
vn 0.2624 0.2647 -0.9279
vn 0.2624 0.2647 0.9279
vn 0.6132 0.6839 0.3953
vn 0.3150 0.2124 -0.9250
vn 0.3150 0.2124 0.9250
vn 0.7362 0.5517 0.3920
vn 0.3566 0.1491 -0.9223
vn 0.3566 0.1491 0.9223
vn 0.8696 0.3038 0.3891
vn 0.8310 0.3980 0.3887
vn 0.3837 0.0771 -0.9203
vn 0.3837 0.0771 0.9203
vn 0.3931 -0.0000 -0.9195
vn 0.3931 -0.0000 0.9195
vn 0.9213 0.0506 0.3855
vn 0.3837 -0.0771 -0.9203
vn 0.3837 -0.0771 0.9203
vn 0.9132 -0.1293 0.3865
vn 0.3566 -0.1491 -0.9223
vn 0.3566 -0.1491 0.9223
vn 0.8696 -0.3038 0.3891
vn 0.3150 -0.2124 -0.9250
vn 0.3150 -0.2124 0.9250
vn 0.7927 -0.4662 0.3927
vn 0.2624 -0.2647 -0.9279
vn 0.2624 -0.2647 0.9279
vn 0.6857 -0.6106 0.3963
vn 0.2023 -0.3052 -0.9305
vn 0.2023 -0.3052 0.9305
vn 0.4667 -0.7896 0.3983
vn 0.5528 -0.7314 0.3993
vn 0.1372 -0.3339 -0.9326
vn 0.1372 -0.3339 0.9326
vn 0.0693 -0.3509 -0.9338
vn 0.0693 -0.3509 0.9338
vn 0.2302 -0.8859 0.4027
vn -0.0000 -0.3566 -0.9343
vn -0.0000 -0.3566 0.9343
vn 0.0525 -0.9137 0.4029
vn -0.0693 -0.3509 -0.9338
vn -0.0693 -0.3509 0.9338
vn -0.1274 -0.9066 0.4022
vn -0.1372 -0.3339 -0.9326
vn -0.1372 -0.3339 0.9326
vn -0.3991 -0.8243 0.4015
vn -0.3027 -0.8648 0.4007
vn -0.2023 -0.3052 -0.9305
vn -0.2023 -0.3052 0.9305
vn -0.2624 -0.2647 -0.9279
vn -0.2624 -0.2647 0.9279
vn -0.6857 -0.6106 0.3963
vn -0.6132 -0.6839 0.3953
vn -0.3150 -0.2124 -0.9250
vn -0.3150 -0.2124 0.9250
vn -0.3566 -0.1491 -0.9223
vn -0.3566 -0.1491 0.9223
vn -0.8310 -0.3980 0.3887
vn -0.3837 -0.0771 -0.9203
vn -0.3837 -0.0771 0.9203
vn -0.8936 -0.2287 0.3863
vn -0.3931 -0.0000 -0.9195
vn -0.3931 -0.0000 0.9195
vn -0.9213 -0.0506 0.3855
vn -0.3837 0.0771 -0.9203
vn -0.3837 0.0771 0.9203
vn -0.9132 0.1293 0.3865
vn -0.3566 0.1491 -0.9223
vn -0.3566 0.1491 0.9223
vn -0.8696 0.3038 0.3891
vn -0.3150 0.2124 -0.9250
vn -0.3150 0.2124 0.9250
vn -0.7927 0.4662 0.3927
vn -0.2624 0.2647 -0.9279
vn -0.2624 0.2647 0.9279
vn -0.6857 0.6106 0.3963
vn -0.2023 0.3052 -0.9305
vn -0.2023 0.3052 0.9305
vn -0.5528 0.7314 0.3993
vn -0.1372 0.3339 -0.9326
vn -0.1372 0.3339 0.9326
vn -0.3991 0.8243 0.4015
vn -0.0693 0.3509 -0.9338
vn -0.0693 0.3509 0.9338
vn -0.2302 0.8859 0.4027
vn 0.2899 0.9391 0.1844
vn 0.8796 0.2379 0.4118
vn 0.2482 0.9614 0.1188
vn 0.9904 0.1347 0.0297
vn 0.2518 0.9552 0.1556
vn -0.6996 0.4848 0.5249
vn -0.8834 -0.3170 0.3452
vn 0.6041 -0.6977 0.3851
vn 0.8971 0.3772 -0.2302
vn -0.1936 0.9809 0.0203
vn -0.8911 0.2007 0.4070
vn -0.5926 -0.7557 0.2789
vn 0.7928 -0.6089 0.0277
vn 0.2105 0.2820 -0.9360
vn -0.6265 0.3959 -0.6714
vn -0.8796 -0.2379 -0.4118
vn -0.2672 -0.7885 -0.5540
vn 0.4177 -0.4168 -0.8074
vn -0.0845 -0.3855 -0.9188
vn 0.1484 -0.5278 -0.8363
vn 0.1030 -0.7352 -0.6700
vn -0.4167 -0.4184 -0.8071
vn -0.4919 -0.6014 -0.6296
vn -0.7255 -0.5401 -0.4266
vn -0.5837 -0.1472 -0.7985
vn -0.7934 -0.0741 -0.6041
vn -0.8359 0.1756 -0.5200
vn -0.3675 0.0472 -0.9288
vn -0.3961 0.3040 -0.8664
vn -0.1356 0.4561 -0.8796
vn -0.0543 -0.1000 -0.9935
vn 0.2059 0.0156 -0.9785
vn 0.4493 -0.1178 -0.8856
vn 0.6996 -0.4848 -0.5249
vn 0.6678 -0.6768 -0.3099
vn 0.3935 -0.8405 -0.3724
vn -0.2518 -0.9552 -0.1556
vn -0.5007 -0.8595 0.1024
vn -0.7480 -0.6631 -0.0292
vn -0.9904 -0.1347 -0.0296
vn -0.9886 0.1261 0.0824
vn -0.9451 0.2945 -0.1419
vn -0.6041 0.6977 -0.3851
vn -0.3167 0.8805 -0.3528
vn -0.0674 0.7882 -0.6117
vn 0.5310 0.4590 -0.7123
vn 0.7707 0.2960 -0.5643
vn 0.7532 0.0218 -0.6574
vn 0.1936 -0.9809 -0.0203
vn 0.3167 -0.8805 0.3528
vn 0.2736 -0.8614 0.4278
vn -0.8971 -0.3772 0.2302
vn -0.8558 -0.3473 0.3833
vn -0.8452 0.1063 0.5238
vn -0.7928 0.6089 -0.0277
vn -0.6678 0.6768 0.3099
vn -0.3935 0.8405 0.3724
vn 0.3807 0.7884 -0.4832
vn 0.5007 0.8595 -0.1024
vn 0.7480 0.6631 0.0292
vn 0.8911 -0.2007 -0.4070
vn 0.9886 -0.1261 -0.0824
vn 0.9451 -0.2945 0.1419
vn 0.6265 -0.3959 0.6714
vn 0.3961 -0.3040 0.8664
vn 0.2269 -0.8599 0.4573
vn 0.3912 -0.2368 0.8893
vn -0.5912 0.2107 0.7785
vn -0.5978 0.4667 0.6518
vn -0.6195 0.7849 -0.0118
vn -0.6984 0.3966 0.5957
vn 0.8359 -0.1756 0.5200
vn 0.7934 0.0741 0.6041
vn 0.6024 0.1417 0.7855
vn 0.0530 -0.2063 0.9771
vn 0.6323 0.0622 0.7722
vn 0.7255 0.5401 0.4266
vn 0.9347 0.3516 0.0515
vn -0.5248 0.5904 0.6132
vn 0.0550 -0.3459 0.9367
vn 0.1765 0.7249 0.6659
vn -0.9092 0.3987 0.1200
vn 0.4288 0.0219 0.9031
vn -0.1436 -0.2895 0.9463
vn -0.1048 0.2702 0.9571
vn -0.6644 -0.2624 0.6998
vn 0.1420 -0.5274 0.8377
vn -0.5202 -0.8539 -0.0112
vn 0.2172 -0.4137 0.8841
vn 0.1876 -0.7947 0.5774
vn 0.6071 -0.7947 -0.0000
vn -0.4911 -0.7947 0.3568
vn -0.4911 -0.7947 -0.3568
vn 0.1876 -0.7947 -0.5774
vn 0.9822 -0.1876 -0.0000
vn 0.3035 -0.1876 0.9342
vn -0.7946 -0.1876 0.5774
vn -0.7946 -0.1876 -0.5774
vn 0.3035 -0.1876 -0.9342
vn 0.7946 0.1876 0.5774
vn -0.3035 0.1876 0.9342
vn -0.9822 0.1876 -0.0000
vn -0.3035 0.1876 -0.9342
vn 0.7946 0.1876 -0.5774
vn 0.4911 0.7947 0.3568
vn -0.1876 0.7947 0.5774
vn -0.6071 0.7947 -0.0000
vn -0.1876 0.7947 -0.5774
vn 0.4911 0.7947 -0.3568
vn 0.3035 0.9340 0.1884
vn 0.7837 0.6178 0.0641
vn 0.7815 0.6211 0.0587
vn 0.8034 0.5837 0.1177
vn 1.0000 -0.0000 -0.0000
vn 0.8090 -0.5878 -0.0000
vn 0.3090 -0.9511 -0.0000
vn -0.3090 -0.9511 -0.0000
vn -0.8090 -0.5878 -0.0000
vn -1.0000 -0.0000 -0.0000
vn 0.2533 0.7796 0.5728
vn -0.7815 0.6211 0.0587
vn -0.7837 0.6178 0.0641
vn -0.8034 0.5837 0.1177
vn -0.3035 0.9340 0.1884
vn -0.2772 -0.8531 0.4421
vn 0.8685 -0.0000 0.4956
vn 0.6212 0.5939 0.5113
vn 0.5693 0.6171 0.5432
vn 0.6615 0.5731 0.4837
vn -0.2533 0.7796 0.5728
vn -0.6212 0.5939 0.5113
vn -0.5693 0.6171 0.5432
vn -0.5083 0.6400 0.5762
vn -0.8685 -0.0000 0.4956
vn -0.7027 -0.5105 0.4956
vn -0.2684 -0.8260 0.4956
vn 0.2684 -0.8260 0.4956
vn 0.7027 -0.5105 0.4956
vn 0.8970 -0.0000 0.4421
vn -0.2926 0.9006 0.3214
vn -0.7257 -0.5272 0.4421
vn 0.7257 -0.5272 0.4421
vn 0.2926 0.9006 0.3214
vn -0.8970 -0.0000 0.4421
vn 0.2772 -0.8531 0.4421
vn 0.5849 0.7104 0.3915
vn 0.6244 0.6845 0.3763
vn 0.5710 0.7189 0.3965
vn -0.5849 0.7104 0.3915
vn -0.6244 0.6845 0.3763
vn -0.6422 0.6719 0.3689
vn -0.3007 0.9253 -0.2309
vn -0.5747 -0.4175 0.7038
vn 0.5747 -0.4175 0.7038
vn 0.3007 0.9253 -0.2309
vn 0.1930 -0.5940 0.7810
vn 0.6988 0.7151 0.0153
vn 0.7934 0.6053 0.0635
vn 0.6909 0.7228 0.0116
vn -0.6988 0.7151 0.0153
vn -0.7934 0.6053 0.0635
vn -0.8070 0.5863 0.0711
vn -0.1930 -0.5940 0.7810
vn -0.9659 0.2588 -0.0000
vn 0.9659 -0.2588 -0.0000
vn -0.2588 -0.9659 -0.0000
vn 0.2588 0.9659 -0.0000
vn -0.0000 -1.0000 -0.0000
vn -0.0000 1.0000 -0.0000
vn -0.9659 -0.2588 -0.0000
vn 0.9659 0.2588 -0.0000
vn 0.2588 -0.9659 -0.0000
vn -0.2588 0.9659 -0.0000
vn 0.7558 0.6548 -0.0000
vn -0.7558 0.6548 -0.0000
vn 0.5083 0.6400 0.5762
vn -0.6615 0.5731 0.4837
vn 0.6422 0.6719 0.3689
vn -0.5710 0.7189 0.3965
vn 0.8070 0.5863 0.0711
vn -0.6909 0.7228 0.0116
vt 0.172385 0.195013
vt 0.093036 0.128547
vt 0.204469 0.082208
vt 0.018925 0.079366
vt 0.000664 0.198709
vt 0.273340 0.192010
vt 0.204469 0.306209
vt 0.093036 0.266986
vt 0.517199 0.523444
vt 0.402389 0.548587
vt 0.467454 0.453480
vt 0.511489 0.021302
vt 0.627842 0.000586
vt 0.575243 0.112588
vt 0.812717 0.380728
vt 0.895760 0.460676
vt 0.772299 0.488099
vt 0.535679 0.731719
vt 0.445573 0.745169
vt 0.471605 0.635266
vt 0.752650 0.740169
vt 0.652100 0.752650
vt 0.726778 0.644856
vt 0.574205 0.425502
vt 0.447290 0.117959
vt 0.706811 0.368503
vt 0.599245 0.639889
vt 0.288938 0.523444
vt 0.227248 0.425502
vt 0.333286 0.453480
vt 0.638301 0.205041
vt 0.727815 0.219020
vt 0.616252 0.291519
vt 0.192843 0.442016
vt 0.273564 0.503443
vt 0.200737 0.550345
vt 0.004047 0.564703
vt 0.089765 0.488886
vt 0.089766 0.622458
vt 0.662727 0.548328
vt 0.546282 0.527472
vt 0.641083 0.462962
vt 0.399633 0.361638
vt 0.292314 0.330395
vt 0.401161 0.254325
vt 0.236655 0.743816
vt 0.111963 0.742030
vt 0.192843 0.669264
vt 0.295125 0.226346
vt 0.752636 0.535508
vt 0.000991 0.680571
vt 0.291519 0.625347
vt 0.521787 0.226027
vt 0.512215 0.226346
vt 0.509404 0.330395
vt 0.445573 0.540463
vt 0.000991 0.464445
vt 0.668192 0.477033
vt 0.111962 0.392332
vt 0.420809 0.213853
vt 0.702456 0.108458
vt 0.685688 0.256097
vt 0.635599 0.361901
vt 0.789797 0.267164
vt 0.855040 0.565371
vt 0.747014 0.565371
vt 0.420809 0.009276
vt 0.727915 0.014275
vt 0.112097 0.376372
vt 0.018925 0.314894
vt 0.208509 0.381625
vt 0.292403 0.301396
vt 0.881158 0.340951
vt 0.292403 0.077394
vt 0.208509 0.000530
vt 0.112097 0.013930
vt 0.732300 0.496183
vt 0.749036 0.487615
vt 0.749117 0.496253
vt 0.554770 0.250973
vt 0.537767 0.262565
vt 0.537962 0.250900
vt 0.554575 0.275539
vt 0.537767 0.275466
vt 0.554770 0.286219
vt 0.537962 0.286146
vt 0.438163 0.547321
vt 0.421046 0.558181
vt 0.421379 0.547086
vt 0.437830 0.558415
vt 0.421046 0.569961
vt 0.437830 0.570196
vt 0.421379 0.579271
vt 0.301825 0.565371
vt 0.285325 0.553074
vt 0.302120 0.553286
vt 0.302120 0.540684
vt 0.285325 0.540473
vt 0.301825 0.530942
vt 0.332155 0.946762
vt 0.305203 0.978799
vt 0.295337 0.937039
vt 0.732219 0.519365
vt 0.749117 0.507900
vt 0.749036 0.519435
vt 0.732300 0.507830
vt 0.286219 0.959808
vt 0.249398 0.972697
vt 0.259264 0.930087
vt 0.786956 0.132791
vt 0.836378 0.125504
vt 0.831284 0.179659
vt 0.956387 0.718867
vt 0.960692 0.774182
vt 0.916428 0.747899
vt 0.787819 0.169035
vt 0.922324 0.683008
vt 0.796366 0.225323
vt 0.036751 0.896926
vt 0.045911 0.856961
vt 0.082583 0.868895
vt 0.029017 0.975265
vt 0.021975 0.941543
vt 0.070577 0.970928
vt 0.288153 0.120001
vt 0.325498 0.089495
vt 0.311810 0.148974
vt 0.970234 0.669185
vt 0.750997 0.197012
vt 0.069941 0.922258
vt 0.372580 0.093497
vt 0.392286 0.069992
vt 0.402827 0.112924
vt 0.277707 0.175967
vt 0.441696 0.861347
vt 0.424086 0.908818
vt 0.405434 0.858562
vt 0.135021 0.853133
vt 0.161827 0.835558
vt 0.176678 0.875915
vt 0.113515 0.943920
vt 0.127703 0.896518
vt 0.164037 0.929277
vt 0.346173 0.180226
vt 0.389139 0.172404
vt 0.359602 0.225846
vt 0.394346 0.946845
vt 0.352013 0.946996
vt 0.377602 0.908817
vt 0.333361 0.896741
vt 0.362613 0.861346
vt 0.311811 0.211366
vt 0.333851 0.839024
vt 0.402827 0.213877
vt 0.128732 0.975265
vt 0.378394 0.815428
vt 0.424878 0.815428
vt 0.288153 0.226148
vt 0.359602 0.124894
vt 0.760702 0.256545
vt 0.727144 0.222153
vt 0.804330 0.270318
vt 0.931865 0.634614
vt 0.972619 0.636533
vt 0.891111 0.660050
vt 0.341793 0.086179
vt 0.103673 0.831220
vt 0.722212 0.165073
vt 0.757876 0.133851
vt 0.840989 0.239192
vt 0.993946 0.725534
vt 0.878060 0.713327
vt 0.881080 0.770449
vt 0.916428 0.804501
vt 0.878060 0.804912
vt 0.332155 0.077680
vt 0.290322 0.050995
vt 0.330177 0.028023
vt 0.301108 0.068455
vt 0.590106 0.344523
vt 0.565987 0.324260
vt 0.590106 0.288345
vt 0.008827 0.893996
vt 0.000544 0.883168
vt 0.959942 0.810954
vt 0.636665 0.943023
vt 0.643110 0.898195
vt 0.643110 0.961913
vt 0.996466 0.780003
vt 0.781894 0.085104
vt 0.629338 0.907755
vt 0.561750 0.451906
vt 0.621908 0.473498
vt 0.565222 0.470723
vt 0.381625 0.043861
vt 0.363190 0.051237
vt 0.363190 0.000489
vt 0.290322 0.102474
vt 0.065371 0.448763
vt 0.025490 0.431775
vt 0.065371 0.383585
vt 0.027043 0.403072
vt 0.013975 0.962885
vt 0.010601 0.271942
vt 0.010601 0.314488
vt 0.001394 0.302763
vt 0.315679 0.019187
vt 0.408639 0.085298
vt 0.425414 0.072271
vt 0.425455 0.085362
vt 0.729924 0.002866
vt 0.739285 0.020489
vt 0.730071 0.020233
vt 0.741643 0.003178
vt 0.752117 0.020721
vt 0.741790 0.020544
vt 0.754709 0.003388
vt 0.765898 0.020845
vt 0.754856 0.020755
vt 0.768619 0.003490
vt 0.780100 0.020856
vt 0.768766 0.020856
vt 0.782987 0.020845
vt 0.794029 0.003388
vt 0.794176 0.020755
vt 0.796823 0.003354
vt 0.807585 0.020544
vt 0.796970 0.020721
vt 0.810033 0.003122
vt 0.819813 0.020233
vt 0.810180 0.020489
vt 0.821962 0.002792
vt 0.830389 0.019832
vt 0.822109 0.020158
vt 0.020768 0.320770
vt 0.003609 0.330394
vt 0.003984 0.320563
vt 0.020309 0.333339
vt 0.003246 0.344661
vt 0.003525 0.333132
vt 0.019972 0.347984
vt 0.003016 0.360561
vt 0.003188 0.347777
vt 0.002987 0.363936
vt 0.019713 0.377689
vt 0.002929 0.377483
vt 0.019713 0.381193
vt 0.002987 0.394776
vt 0.002929 0.380986
vt 0.019800 0.398481
vt 0.003188 0.411777
vt 0.003016 0.398274
vt 0.020030 0.415341
vt 0.003525 0.427831
vt 0.003246 0.415135
vt 0.020393 0.431126
vt 0.003984 0.442322
vt 0.003609 0.430920
vt 0.751031 0.714327
vt 0.761152 0.697343
vt 0.761269 0.714698
vt 0.763887 0.697424
vt 0.775111 0.715034
vt 0.764005 0.714778
vt 0.778014 0.715084
vt 0.789443 0.697859
vt 0.789561 0.715214
vt 0.792402 0.697876
vt 0.804063 0.715231
vt 0.792520 0.715231
vt 0.806847 0.697859
vt 0.818062 0.715084
vt 0.806965 0.715214
vt 0.820677 0.697679
vt 0.831018 0.714778
vt 0.820794 0.715034
vt 0.833358 0.697343
vt 0.842433 0.714327
vt 0.833476 0.714698
vt 0.408267 0.174849
vt 0.425194 0.166446
vt 0.425083 0.174912
vt 0.408404 0.163967
vt 0.425311 0.153648
vt 0.425220 0.164030
vt 0.408515 0.150728
vt 0.425400 0.138890
vt 0.425332 0.150791
vt 0.408597 0.135640
vt 0.425455 0.122741
vt 0.425414 0.135703
vt 0.408646 0.119282
vt 0.425477 0.105820
vt 0.425462 0.119346
vt 0.408660 0.102284
vt 0.425462 0.088779
vt 0.425477 0.102347
vt 0.408495 0.053950
vt 0.425220 0.043351
vt 0.425311 0.054013
vt 0.849247 0.197142
vt 0.873775 0.087381
vt 0.954636 0.125422
vt 0.408583 0.068978
vt 0.425332 0.056932
vt 0.425400 0.069041
vt 0.427493 0.071246
vt 0.406473 0.071167
vt 0.408597 0.072208
vt 0.427410 0.056338
vt 0.406389 0.056259
vt 0.408515 0.056869
vt 0.427297 0.043212
vt 0.425194 0.040855
vt 0.406277 0.043133
vt 0.408378 0.040792
vt 0.408404 0.043288
vt 0.741215 0.022640
vt 0.741032 0.000932
vt 0.739138 0.003122
vt 0.753929 0.022857
vt 0.753745 0.001149
vt 0.751970 0.003354
vt 0.767523 0.022968
vt 0.767339 0.001260
vt 0.765751 0.003478
vt 0.781476 0.022968
vt 0.781292 0.001260
vt 0.782840 0.003478
vt 0.779953 0.003490
vt 0.795251 0.022857
vt 0.795067 0.001149
vt 0.808319 0.022640
vt 0.808135 0.000932
vt 0.807438 0.003178
vt 0.820177 0.022325
vt 0.819993 0.000617
vt 0.819666 0.002866
vt 0.663587 0.861430
vt 0.661261 0.861698
vt 0.663192 0.859505
vt 0.022968 0.320899
vt 0.020875 0.318515
vt 0.001526 0.332744
vt 0.022506 0.333002
vt 0.020393 0.330601
vt 0.001182 0.346937
vt 0.022162 0.347196
vt 0.020030 0.344868
vt 0.000971 0.362675
vt 0.021951 0.362933
vt 0.019771 0.364142
vt 0.019800 0.360767
vt 0.000899 0.379353
vt 0.021880 0.379611
vt 0.000971 0.396329
vt 0.021951 0.396587
vt 0.019771 0.394983
vt 0.001182 0.412952
vt 0.022162 0.413210
vt 0.019972 0.411983
vt 0.001526 0.428582
vt 0.022506 0.428841
vt 0.020309 0.428038
vt 0.001988 0.442620
vt 0.004091 0.445023
vt 0.022968 0.442878
vt 0.020875 0.445230
vt 0.020768 0.442529
vt 0.763166 0.716839
vt 0.763019 0.695145
vt 0.776839 0.717154
vt 0.776691 0.695460
vt 0.777897 0.697729
vt 0.774993 0.697679
vt 0.791053 0.717314
vt 0.790906 0.695621
vt 0.805264 0.717314
vt 0.805117 0.695621
vt 0.803946 0.697876
vt 0.818925 0.717154
vt 0.818778 0.695460
vt 0.817944 0.697729
vt 0.831511 0.716839
vt 0.831364 0.695145
vt 0.830900 0.697424
vt 0.818962 0.938676
vt 0.821132 0.938025
vt 0.819823 0.940528
vt 0.842391 0.694688
vt 0.844405 0.696863
vt 0.842315 0.696972
vt 0.427297 0.164109
vt 0.406277 0.164031
vt 0.408378 0.166383
vt 0.427410 0.151327
vt 0.406389 0.151248
vt 0.408495 0.153585
vt 0.427493 0.136675
vt 0.406473 0.136596
vt 0.408583 0.138827
vt 0.427545 0.120717
vt 0.406524 0.120638
vt 0.408639 0.122678
vt 0.427562 0.104066
vt 0.406542 0.103987
vt 0.408660 0.105757
vt 0.427545 0.087361
vt 0.406524 0.087283
vt 0.408646 0.088716
vt 0.687427 0.959836
vt 0.676324 0.950062
vt 0.689800 0.959745
vt 0.655729 0.872816
vt 0.654877 0.870947
vt 0.871201 0.076620
vt 0.882615 0.072724
vt 0.870557 0.078937
vt 0.671878 0.851639
vt 0.750562 0.716382
vt 0.750913 0.696972
vt 0.823684 0.926024
vt 0.824968 0.927749
vt 0.844523 0.714218
vt 0.813439 0.949777
vt 0.932746 0.245982
vt 0.921268 0.249840
vt 0.933326 0.243627
vt 0.736048 0.843356
vt 0.816091 0.911891
vt 0.738643 0.968136
vt 0.708410 0.961035
vt 0.721646 0.972593
vt 0.705104 0.967353
vt 0.959118 0.140529
vt 0.968198 0.155879
vt 0.961404 0.156433
vt 0.694676 0.954208
vt 0.965652 0.138157
vt 0.682582 0.945517
vt 0.948129 0.111694
vt 0.960657 0.121325
vt 0.672592 0.935299
vt 0.665193 0.938676
vt 0.939846 0.099871
vt 0.953406 0.106028
vt 0.665091 0.923944
vt 0.656835 0.926024
vt 0.930107 0.090408
vt 0.944177 0.092854
vt 0.660367 0.911891
vt 0.651571 0.912593
vt 0.919286 0.083669
vt 0.933326 0.082310
vt 0.658600 0.899601
vt 0.649603 0.898899
vt 0.907798 0.079913
vt 0.921268 0.074801
vt 0.659860 0.887547
vt 0.651007 0.885468
vt 0.896085 0.079283
vt 0.908467 0.070615
vt 0.664098 0.876193
vt 0.895416 0.069914
vt 0.671151 0.865974
vt 0.884597 0.081805
vt 0.674280 0.851747
vt 0.680747 0.857284
vt 0.859705 0.088314
vt 0.687396 0.844139
vt 0.692518 0.850456
vt 0.864036 0.095797
vt 0.850477 0.100496
vt 0.702432 0.838898
vt 0.706012 0.845753
vt 0.855754 0.106729
vt 0.843226 0.115014
vt 0.718810 0.836227
vt 0.720711 0.843355
vt 0.849247 0.119758
vt 0.838231 0.131309
vt 0.735900 0.836227
vt 0.844764 0.134383
vt 0.835685 0.148757
vt 0.753045 0.838898
vt 0.751435 0.845753
vt 0.842479 0.150041
vt 0.835685 0.166686
vt 0.766281 0.850456
vt 0.769588 0.844139
vt 0.844764 0.182036
vt 0.842479 0.166132
vt 0.780015 0.857284
vt 0.784891 0.851747
vt 0.838231 0.184407
vt 0.792109 0.865974
vt 0.798367 0.861430
vt 0.855754 0.210870
vt 0.843226 0.201239
vt 0.802099 0.876193
vt 0.809498 0.872816
vt 0.864036 0.222693
vt 0.850477 0.216536
vt 0.809600 0.887547
vt 0.817856 0.885468
vt 0.873775 0.232156
vt 0.859705 0.229710
vt 0.814325 0.899601
vt 0.823120 0.898899
vt 0.884597 0.238895
vt 0.870557 0.240254
vt 0.825088 0.912593
vt 0.896085 0.242651
vt 0.882615 0.247763
vt 0.814831 0.923944
vt 0.907798 0.243281
vt 0.895416 0.251949
vt 0.810593 0.935299
vt 0.908467 0.252650
vt 0.811104 0.950062
vt 0.803541 0.945517
vt 0.919286 0.240759
vt 0.800411 0.959745
vt 0.793944 0.954208
vt 0.930107 0.235183
vt 0.944177 0.234250
vt 0.787295 0.967353
vt 0.782173 0.961035
vt 0.939846 0.226767
vt 0.953406 0.222068
vt 0.772259 0.972593
vt 0.768679 0.965739
vt 0.948129 0.215835
vt 0.960657 0.207550
vt 0.755881 0.975265
vt 0.753980 0.968136
vt 0.954636 0.202806
vt 0.965652 0.191255
vt 0.738791 0.975265
vt 0.959118 0.188181
vt 0.968198 0.173807
vt 0.723256 0.965739
vt 0.961404 0.172523
vt 0.347018 0.678324
vt 0.308443 0.686529
vt 0.308973 0.632240
vt 0.511017 0.949582
vt 0.459450 0.963412
vt 0.478769 0.914903
vt 0.344715 0.642058
vt 0.541764 0.912677
vt 0.334657 0.585880
vt 0.420739 0.694979
vt 0.383757 0.676500
vt 0.425561 0.644341
vt 0.901221 0.618028
vt 0.895280 0.652486
vt 0.859736 0.611095
vt 0.107358 0.742873
vt 0.134047 0.787965
vt 0.076820 0.773708
vt 0.561378 0.959811
vt 0.380875 0.613234
vt 0.866538 0.683938
vt 0.813311 0.694346
vt 0.841718 0.659347
vt 0.886469 0.587031
vt 0.054457 0.725336
vt 0.985866 0.550741
vt 0.953848 0.582531
vt 0.953709 0.527508
vt 0.415837 0.587345
vt 0.376461 0.553720
vt 0.418418 0.548046
vt 0.808773 0.624393
vt 0.779358 0.659346
vt 0.758834 0.611095
vt 0.044784 0.807631
vt 0.050761 0.848057
vt 0.001572 0.809350
vt 0.913821 0.598940
vt 0.875000 0.574696
vt 0.911362 0.555839
vt 0.874861 0.519673
vt 0.913584 0.505329
vt 0.017677 0.763400
vt 0.894649 0.468992
vt 0.759579 0.568022
vt 0.808510 0.581274
vt 0.943379 0.473834
vt 0.730426 0.646094
vt 0.760443 0.683937
vt 0.985866 0.500526
vt 0.006739 0.725336
vt 0.097267 0.826029
vt 0.860481 0.568022
vt 0.448763 0.604052
vt 0.337205 0.540807
vt 0.591366 0.921510
vt 0.595406 0.964610
vt 0.562037 0.884420
vt 0.127233 0.839101
vt 0.136327 0.805321
vt 0.304558 0.572726
vt 0.560108 1.000000
vt 0.510505 0.991167
vt 0.508757 0.876601
vt 0.454864 0.888206
vt 0.147053 0.748405
vt 0.538770 0.360558
vt 0.588116 0.346315
vt 0.580403 0.388693
vt 0.566802 0.343656
vt 0.087843 0.364972
vt 0.111307 0.389803
vt 0.087843 0.424028
vt 0.388050 0.720269
vt 0.370983 0.725677
vt 0.426444 0.927336
vt 0.512668 0.316145
vt 0.546323 0.315040
vt 0.557009 0.300008
vt 0.597173 0.281571
vt 0.513885 0.280192
vt 0.458377 1.000000
vt 0.580163 0.275766
vt 0.774511 0.074322
vt 0.722584 0.042543
vt 0.770007 0.055127
vt 0.816254 0.056257
vt 0.550571 0.795053
vt 0.560311 0.749478
vt 0.607788 0.791450
vt 0.586137 0.749478
vt 0.911661 0.631667
vt 0.025367 0.360424
vt 0.025367 0.321409
vt 0.035336 0.334372
vt 0.597173 0.383360
vt 0.271170 0.683462
vt 0.287905 0.674894
vt 0.287986 0.683532
vt 0.533569 0.236839
vt 0.516566 0.248431
vt 0.516761 0.236766
vt 0.533374 0.261404
vt 0.516566 0.261331
vt 0.533569 0.272085
vt 0.516761 0.272012
vt 0.667845 0.428946
vt 0.650728 0.439806
vt 0.651061 0.428712
vt 0.667512 0.440041
vt 0.650728 0.451587
vt 0.667845 0.461131
vt 0.651061 0.460896
vt 0.561543 0.514134
vt 0.545042 0.501838
vt 0.561837 0.502050
vt 0.561837 0.489448
vt 0.545042 0.489236
vt 0.561543 0.479705
vt 0.978799 0.602239
vt 0.951846 0.634276
vt 0.941981 0.592516
vt 0.271089 0.706644
vt 0.287986 0.695179
vt 0.287905 0.706714
vt 0.271170 0.695109
vt 0.240283 0.959808
vt 0.203462 0.972697
vt 0.213328 0.930087
vt 0.223698 0.420961
vt 0.202451 0.403274
vt 0.226148 0.391600
vt 0.202451 0.438602
vt 0.936790 0.077731
vt 0.936790 0.045897
vt 0.955654 0.068720
vt 0.960569 0.097173
vt 0.226148 0.448763
vt 0.199647 0.936279
vt 0.185357 0.968198
vt 0.178505 0.945523
vt 0.424028 0.217635
vt 0.423730 0.245583
vt 0.405750 0.233034
vt 0.960569 0.045664
vt 0.975265 0.077354
vt 0.038316 0.063604
vt 0.038316 0.035562
vt 0.056537 0.051038
vt 0.185092 0.916552
vt 0.405750 0.204877
vt 0.056451 0.022971
vt 0.161971 0.968198
vt 0.161808 0.936279
vt 0.351590 0.826320
vt 0.328790 0.837456
vt 0.330108 0.808634
vt 0.351590 0.790926
vt 0.328790 0.780186
vt 0.290982 0.880836
vt 0.332155 0.925437
vt 0.293221 0.925795
vt 0.604854 0.889347
vt 0.648410 0.849729
vt 0.648410 0.893993
vt 0.604996 0.850342
vt 0.647321 0.809442
vt 0.812755 0.858657
vt 0.856890 0.816235
vt 0.856114 0.858657
vt 0.813532 0.816235
vt 0.856091 0.763381
vt 0.812732 0.763381
vt 0.854021 0.720285
vt 0.505407 0.823322
vt 0.549470 0.777409
vt 0.548796 0.823322
vt 0.506082 0.777409
vt 0.548481 0.739232
vt 0.307429 0.824137
vt 0.329916 0.880478
vt 0.200176 0.925437
vt 0.240570 0.880836
vt 0.242809 0.925795
vt 0.873241 0.976412
vt 0.914910 0.806937
vt 0.982332 0.856406
vt 0.757536 0.771044
vt 0.701563 0.758663
vt 0.756087 0.740877
vt 0.549112 0.826031
vt 0.603907 0.810055
vt 0.549874 0.854232
vt 0.244887 0.824388
vt 0.280175 0.824388
vt 0.219491 0.824276
vt 0.505093 0.739232
vt 0.450540 0.783485
vt 0.449848 0.756760
vt 0.810663 0.720285
vt 0.758096 0.808042
vt 0.757552 0.837738
vt 0.494868 0.857696
vt 0.440222 0.879210
vt 0.494388 0.839934
vt 0.252819 0.768117
vt 0.275044 0.768117
vt 0.450068 0.815623
vt 0.395176 0.788732
vt 0.702486 0.819669
vt 0.702828 0.800966
vt 0.292210 0.767959
vt 0.394740 0.771900
vt 0.702476 0.777663
vt 0.549613 0.875567
vt 0.236046 0.768022
vt 0.267667 0.030422
vt 0.282685 0.047508
vt 0.273403 0.054770
vt 0.271923 0.712130
vt 0.279025 0.712130
vt 0.338968 0.779196
vt 0.339063 0.772728
vt 0.646203 0.801903
vt 0.284510 0.712080
vt 0.338923 0.767349
vt 0.646090 0.794457
vt 0.494749 0.872821
vt 0.440375 0.884886
vt 0.265916 0.712080
vt 0.645799 0.788385
vt 0.866576 0.056892
vt 0.883232 0.065371
vt 0.866417 0.065209
vt 0.302120 0.675314
vt 0.291120 0.747598
vt 0.291120 0.673795
vt 0.268551 0.335155
vt 0.260085 0.353357
vt 0.260085 0.335412
vt 0.839223 0.934875
vt 0.828224 0.862598
vt 0.839223 0.861078
vt 0.596305 0.893503
vt 0.613074 0.954064
vt 0.596305 0.953266
vt 0.883392 0.057054
vt 0.866417 0.000832
vt 0.883232 0.000994
vt 0.070671 0.022439
vt 0.061106 0.040636
vt 0.061106 0.022704
vt 0.305654 0.577861
vt 0.294803 0.671378
vt 0.294803 0.577861
vt 0.256184 0.349407
vt 0.246087 0.367491
vt 0.246087 0.349546
vt 0.450530 0.717313
vt 0.439680 0.623802
vt 0.450530 0.623800
vt 0.859547 0.687177
vt 0.876325 0.772085
vt 0.859547 0.771549
vt 0.862191 0.083039
vt 0.845375 0.001751
vt 0.862191 0.001897
vt 0.284452 0.321026
vt 0.274887 0.339223
vt 0.274887 0.321290
vt 0.457196 0.001156
vt 0.547703 0.012367
vt 0.457196 0.012367
vt 0.360424 0.001351
vt 0.350327 0.019435
vt 0.350327 0.001490
vt 0.725751 0.040636
vt 0.816253 0.029425
vt 0.816254 0.040636
vt 0.894883 0.333820
vt 0.911661 0.418728
vt 0.894883 0.418192
vt 0.196113 0.911661
vt 0.179297 0.830373
vt 0.196113 0.830519
vt 0.378092 0.052657
vt 0.367195 0.070671
vt 0.367195 0.052739
vt 0.915194 0.327103
vt 0.904195 0.254819
vt 0.915194 0.253300
vt 0.242050 0.363669
vt 0.231011 0.381625
vt 0.231011 0.363681
vt 0.929329 0.254820
vt 0.918330 0.327104
vt 0.918330 0.253303
vt 0.933747 0.247063
vt 0.950530 0.318021
vt 0.933747 0.317707
vt 0.950530 0.390459
vt 0.933714 0.321026
vt 0.950530 0.321116
vt 0.732220 0.487545
vt 0.554575 0.262638
vt 0.438163 0.579505
vt 0.285030 0.565159
vt 0.285030 0.530730
vt 0.305203 0.930090
vt 0.316594 0.929601
vt 0.326460 0.935704
vt 0.332155 0.959813
vt 0.326460 0.971361
vt 0.316594 0.978310
vt 0.295337 0.972696
vt 0.289642 0.961638
vt 0.289642 0.948587
vt 0.270657 0.929596
vt 0.280523 0.935697
vt 0.286219 0.946756
vt 0.280523 0.971357
vt 0.270657 0.978308
vt 0.259264 0.978799
vt 0.243702 0.961639
vt 0.243702 0.948587
vt 0.249398 0.937038
vt 0.830242 0.002466
vt 0.676480 0.951970
vt 0.729688 0.000617
vt 0.880995 0.071573
vt 0.004091 0.318309
vt 0.750414 0.694688
vt 0.922952 0.251028
vt 0.271089 0.674824
vt 0.533374 0.248504
vt 0.667512 0.451821
vt 0.544747 0.513922
vt 0.544747 0.479493
vt 0.951846 0.585567
vt 0.963237 0.585078
vt 0.973103 0.591181
vt 0.978799 0.615290
vt 0.973103 0.626838
vt 0.963237 0.633787
vt 0.941981 0.628173
vt 0.936285 0.617115
vt 0.936285 0.604064
vt 0.224720 0.929596
vt 0.234587 0.935697
vt 0.240283 0.946756
vt 0.234587 0.971357
vt 0.224720 0.978308
vt 0.213328 0.978799
vt 0.197765 0.961639
vt 0.197765 0.948587
vt 0.203462 0.937038
vt 0.200361 0.880554
vt 0.982332 0.911698
vt 0.956579 0.961147
vt 0.914910 0.985866
vt 0.847489 0.936398
vt 0.847489 0.881106
vt 0.873241 0.831656
vt 0.956579 0.816391
vt 0.394879 0.808974
vt 0.267666 0.051288
vt 0.264121 0.044211
vt 0.264121 0.036240
vt 0.273403 0.028978
vt 0.279140 0.032460
vt 0.282686 0.039538
vt 0.279140 0.053326
vt 0.646093 0.807880
vt 0.440375 0.891122
vt 0.302120 0.749117
vt 0.268551 0.353100
vt 0.828224 0.936396
vt 0.613074 0.894301
vt 0.070671 0.040371
vt 0.305654 0.671378
vt 0.256184 0.367352
vt 0.439680 0.717315
vt 0.876325 0.687713
vt 0.845375 0.082892
vt 0.284452 0.338958
vt 0.547703 0.001155
vt 0.360424 0.019296
vt 0.725750 0.029425
vt 0.911661 0.334356
vt 0.179297 0.911514
vt 0.378092 0.070589
vt 0.904195 0.328622
vt 0.242050 0.381614
vt 0.929329 0.328622
vt 0.950530 0.247377
vt 0.933714 0.390370
s 1
usemtl molesAtlas
f 1/1/1 14/2/1 13/3/1
f 2/4/2 14/2/2 16/5/2
f 1/1/3 13/3/3 18/6/3
f 1/1/4 18/6/4 20/7/4
f 1/1/5 20/7/5 17/8/5
f 2/9/6 16/10/6 23/11/6
f 3/12/7 15/13/7 25/14/7
f 4/15/8 19/16/8 27/17/8
f 5/18/9 21/19/9 29/20/9
f 6/21/10 22/22/10 31/23/10
f 2/9/11 23/11/11 26/24/11
f 3/12/12 25/14/12 28/25/12
f 4/15/13 27/17/13 30/26/13
f 5/18/14 29/20/14 32/27/14
f 6/28/15 31/29/15 24/30/15
f 7/31/16 33/32/16 38/33/16
f 8/34/17 34/35/17 40/36/17
f 9/37/18 35/38/18 41/39/18
f 10/40/19 36/41/19 42/42/19
f 11/43/20 37/44/20 39/45/20
f 39/46/21 42/47/21 12/48/21
f 39/45/22 37/44/22 42/49/22
f 37/50/23 10/40/23 42/42/23
f 42/47/24 41/39/24 12/48/24
f 42/47/25 36/51/25 41/39/25
f 36/51/26 9/37/26 41/39/26
f 41/39/27 40/36/27 12/48/27
f 41/39/28 35/38/28 40/36/28
f 35/38/29 8/34/29 40/36/29
f 40/36/30 38/52/30 12/48/30
f 40/36/31 34/35/31 38/52/31
f 34/53/32 7/31/32 38/33/32
f 38/52/33 39/46/33 12/48/33
f 38/54/34 33/55/34 39/45/34
f 33/55/35 11/43/35 39/45/35
f 24/30/36 37/44/36 11/43/36
f 24/30/37 31/29/37 37/44/37
f 31/23/38 10/40/38 37/50/38
f 32/27/39 36/41/39 10/40/39
f 32/27/40 29/20/40 36/41/40
f 29/20/41 9/56/41 36/41/41
f 30/57/42 35/38/42 9/37/42
f 30/26/43 27/17/43 35/58/43
f 27/59/44 8/34/44 35/38/44
f 28/25/45 34/53/45 8/60/45
f 28/25/46 25/14/46 34/53/46
f 25/14/47 7/31/47 34/53/47
f 26/61/48 33/32/48 7/31/48
f 26/24/49 23/11/49 33/55/49
f 23/11/50 11/43/50 33/55/50
f 31/23/51 32/27/51 10/40/51
f 31/23/52 22/22/52 32/27/52
f 22/22/53 5/18/53 32/27/53
f 29/62/54 30/26/54 9/63/54
f 29/62/55 21/64/55 30/26/55
f 21/64/56 4/15/56 30/26/56
f 27/17/57 28/65/57 8/66/57
f 27/17/58 19/16/58 28/65/58
f 19/67/59 3/12/59 28/25/59
f 25/14/60 26/61/60 7/31/60
f 25/14/61 15/13/61 26/61/61
f 15/13/62 2/68/62 26/61/62
f 23/11/63 24/30/63 11/43/63
f 23/11/64 16/10/64 24/30/64
f 16/10/65 6/28/65 24/30/65
f 17/8/66 22/69/66 6/70/66
f 17/8/67 20/7/67 22/69/67
f 20/7/68 5/71/68 22/69/68
f 20/7/69 21/72/69 5/71/69
f 20/7/70 18/6/70 21/72/70
f 18/73/71 4/15/71 21/64/71
f 18/73/72 19/16/72 4/15/72
f 18/6/73 13/3/73 19/74/73
f 13/3/74 3/75/74 19/74/74
f 16/5/75 17/8/75 6/70/75
f 16/5/76 14/2/76 17/8/76
f 14/2/77 1/1/77 17/8/77
f 13/3/78 15/76/78 3/75/78
f 13/3/79 14/2/79 15/76/79
f 14/2/80 2/4/80 15/76/80
f 44/77/81 45/78/81 43/79/81
f 46/80/82 47/81/82 45/82/82
f 47/81/83 50/83/83 49/84/83
f 49/84/84 52/85/84 51/86/84
f 52/87/85 53/88/85 51/89/85
f 54/90/86 55/91/86 53/88/86
f 56/92/87 57/93/87 55/91/87
f 57/94/88 60/95/88 59/96/88
f 60/95/89 61/97/89 59/96/89
f 62/98/90 63/99/90 61/97/90
f 64/100/91 56/101/91 48/102/91
f 64/103/92 65/104/92 63/105/92
f 66/106/93 43/79/93 65/104/93
f 49/107/94 57/108/94 65/109/94
f 110/110/95 108/111/95 80/112/95
f 68/113/96 79/114/96 81/115/96
f 110/110/97 80/112/97 69/116/97
f 68/113/98 81/115/98 88/117/98
f 69/116/99 80/112/99 90/118/99
f 70/119/100 84/120/100 92/121/100
f 71/122/101 86/123/101 94/124/101
f 72/125/102 87/126/102 96/127/102
f 68/113/103 88/117/103 91/128/103
f 69/116/104 90/118/104 93/129/104
f 70/119/105 92/121/105 95/130/105
f 116/131/106 71/132/106 94/133/106
f 72/125/107 96/127/107 89/134/107
f 73/135/108 98/136/108 103/137/108
f 74/138/109 99/139/109 105/140/109
f 75/141/110 100/142/110 106/143/110
f 76/144/111 101/145/111 107/146/111
f 77/147/112 102/148/112 104/149/112
f 104/149/113 107/150/113 78/151/113
f 104/149/114 102/148/114 107/150/114
f 102/152/115 76/144/115 107/146/115
f 107/150/116 106/153/116 78/151/116
f 107/146/117 101/145/117 106/154/117
f 101/155/118 75/141/118 106/143/118
f 106/153/119 105/156/119 78/151/119
f 106/143/120 100/142/120 105/140/120
f 100/142/121 74/138/121 105/140/121
f 105/156/122 103/137/122 78/151/122
f 105/156/123 99/157/123 103/137/123
f 99/157/124 73/135/124 103/137/124
f 103/137/125 104/149/125 78/151/125
f 103/137/126 98/136/126 104/149/126
f 98/136/127 77/147/127 104/149/127
f 89/134/128 102/152/128 77/158/128
f 89/134/129 96/127/129 102/152/129
f 96/127/130 76/144/130 102/152/130
f 97/159/131 101/145/131 76/144/131
f 97/159/132 94/133/132 101/145/132
f 94/124/133 75/141/133 101/155/133
f 95/130/134 100/142/134 75/141/134
f 95/130/135 92/121/135 100/142/135
f 92/121/136 74/138/136 100/142/136
f 93/129/137 99/160/137 74/161/137
f 93/129/138 90/118/138 99/160/138
f 90/118/139 73/162/139 99/160/139
f 91/128/140 98/163/140 73/164/140
f 91/128/141 88/117/141 98/163/141
f 88/117/142 77/165/142 98/163/142
f 96/127/143 97/159/143 76/144/143
f 96/127/144 87/126/144 97/159/144
f 116/131/145 97/159/145 114/166/145
f 94/124/146 95/130/146 75/141/146
f 94/124/147 86/123/147 95/130/147
f 86/123/148 70/119/148 95/130/148
f 92/121/149 93/167/149 74/138/149
f 92/168/150 84/169/150 93/129/150
f 84/169/151 69/116/151 93/129/151
f 90/118/152 91/170/152 73/162/152
f 90/118/153 80/112/153 91/170/153
f 80/171/154 68/113/154 91/128/154
f 88/117/155 89/172/155 77/165/155
f 88/117/156 81/115/156 89/172/156
f 81/115/157 72/173/157 89/172/157
f 82/174/158 87/175/158 72/173/158
f 82/176/159 85/177/159 87/178/159
f 114/166/160 97/159/160 87/126/160
f 112/179/161 85/177/161 82/176/161
f 83/180/162 70/181/162 86/182/162
f 83/183/163 84/120/163 70/119/163
f 110/110/164 69/116/164 84/169/164
f 111/184/165 84/120/165 83/183/165
f 81/115/166 82/174/166 72/173/166
f 81/115/167 79/114/167 82/174/167
f 79/114/168 67/185/168 82/174/168
f 109/186/169 83/187/169 67/188/169
f 79/114/170 108/189/170 67/185/170
f 79/114/171 68/113/171 80/171/171
f 108/189/172 79/114/172 80/171/172
f 111/190/173 110/110/173 84/169/173
f 109/186/174 111/191/174 83/187/174
f 113/192/175 67/193/175 83/194/175
f 113/195/176 83/196/176 86/197/176
f 112/179/177 82/176/177 67/198/177
f 113/199/178 86/200/178 85/201/178
f 115/202/179 85/201/179 86/200/179
f 115/203/180 86/123/180 71/122/180
f 116/204/181 115/205/181 71/206/181
f 116/131/182 94/133/182 97/159/182
f 85/177/183 114/207/183 87/178/183
f 307/208/184 118/209/185 305/210/186
f 133/211/187 136/212/188 131/213/189
f 139/214/190 142/215/191 137/216/192
f 145/217/193 148/218/194 143/219/195
f 151/220/196 154/221/197 149/222/198
f 155/223/199 164/224/200 160/225/201
f 163/226/202 166/227/203 161/228/204
f 169/229/205 172/230/206 167/231/207
f 175/232/208 178/233/209 173/234/210
f 181/235/211 184/236/212 179/237/213
f 187/238/214 190/239/215 185/240/216
f 193/241/217 196/242/218 191/243/219
f 197/244/220 206/245/221 202/246/222
f 205/247/223 208/248/224 203/249/225
f 211/250/226 214/251/227 209/252/228
f 217/253/229 220/254/230 215/255/231
f 223/256/232 226/257/233 221/258/234
f 227/259/235 236/260/236 232/261/237
f 235/262/238 238/263/239 233/264/240
f 239/265/241 248/266/242 244/267/243
f 247/268/244 250/269/245 245/270/246
f 253/271/247 256/272/248 251/273/249
f 259/274/250 262/275/251 257/276/252
f 265/277/253 268/278/254 263/279/255
f 271/280/256 274/281/257 269/282/258
f 277/283/259 280/284/260 275/285/261
f 283/286/262 286/287/263 281/288/264
f 289/289/265 292/290/266 287/291/267
f 295/292/268 298/293/269 293/294/270
f 301/295/271 304/296/272 299/297/273
f 127/298/274 130/299/275 125/300/276
f 228/301/91 180/302/91 132/303/91
f 121/304/277 124/305/278 119/306/279
f 310/307/280 118/209/185 119/306/279
f 311/308/281 121/304/277 122/309/282
f 309/310/283 124/305/278 125/300/276
f 312/311/284 127/298/274 128/312/285
f 313/313/286 130/299/275 131/314/189
f 314/315/287 133/316/187 134/317/288
f 315/318/289 136/212/188 137/216/192
f 316/319/290 139/214/190 140/320/291
f 317/321/292 142/215/191 143/219/195
f 318/322/293 145/217/193 146/323/294
f 319/324/295 148/218/194 149/222/198
f 320/325/296 151/220/196 152/326/297
f 321/327/298 154/221/197 155/223/199
f 322/328/299 157/329/300 158/330/301
f 323/331/302 160/225/201 161/228/204
f 324/332/303 163/226/202 164/224/200
f 325/333/304 166/227/203 167/231/207
f 326/334/305 169/229/205 170/335/306
f 327/336/307 172/230/206 173/234/210
f 328/337/308 175/232/208 176/338/309
f 329/339/310 178/340/209 179/341/213
f 330/342/311 181/235/211 182/343/312
f 331/344/313 184/236/212 185/240/216
f 332/345/314 187/238/214 188/346/315
f 333/347/316 190/239/215 191/243/219
f 334/348/317 193/241/217 194/349/318
f 335/350/319 196/242/218 197/244/220
f 336/351/320 199/352/321 200/353/322
f 337/354/323 202/246/222 203/249/225
f 338/355/324 205/247/223 206/245/221
f 339/356/325 208/248/224 209/252/228
f 340/357/326 211/250/226 212/358/327
f 341/359/328 214/251/227 215/255/231
f 342/360/329 217/253/229 218/361/330
f 343/362/331 220/254/230 221/258/234
f 344/363/332 223/256/232 224/364/333
f 345/365/334 226/257/233 227/366/235
f 346/367/335 229/368/336 230/369/337
f 347/370/338 232/261/237 233/264/240
f 348/371/339 235/262/238 236/260/236
f 349/372/340 238/263/239 239/265/241
f 350/373/341 241/374/342 242/375/343
f 351/376/344 244/267/243 245/270/246
f 352/377/345 247/268/244 248/266/242
f 353/378/346 250/269/245 251/273/249
f 354/379/347 253/271/247 254/380/348
f 355/381/349 256/272/248 257/276/252
f 356/382/350 259/274/250 260/383/351
f 357/384/352 262/275/251 263/279/255
f 358/385/353 265/277/253 266/386/354
f 359/387/355 268/388/254 269/389/258
f 360/390/356 271/391/256 272/392/357
f 361/393/358 274/281/257 275/285/261
f 362/394/359 277/283/259 278/395/360
f 363/396/361 280/284/260 281/288/264
f 364/397/362 283/286/262 284/398/363
f 365/399/364 286/287/263 287/291/267
f 366/400/365 289/289/265 290/401/366
f 367/402/367 292/290/266 293/294/270
f 368/403/368 295/292/268 296/404/369
f 369/405/370 298/293/269 299/297/273
f 370/406/371 301/295/271 302/407/372
f 371/408/373 304/296/272 305/210/186
f 372/409/374 307/208/184 308/410/375
f 119/306/279 309/310/283 310/307/280
f 121/304/277 312/311/284 128/312/285
f 122/309/282 119/306/279 118/209/185
f 125/300/276 128/312/285 127/298/274
f 125/300/276 313/313/286 309/310/283
f 127/298/274 314/315/287 134/317/288
f 131/314/189 134/317/288 133/316/187
f 131/411/189 315/412/289 313/413/286
f 133/211/187 316/319/290 140/320/291
f 137/216/192 140/320/291 139/214/190
f 137/216/192 317/321/292 315/318/289
f 139/214/190 318/322/293 146/323/294
f 143/219/195 146/323/294 145/217/193
f 143/219/195 319/324/295 317/321/292
f 145/217/193 320/325/296 152/326/297
f 149/222/198 152/326/297 151/220/196
f 149/222/198 321/327/298 319/324/295
f 151/220/196 322/328/299 158/330/301
f 155/223/199 158/330/301 157/329/300
f 155/223/199 323/331/302 321/327/298
f 157/329/300 324/332/303 164/224/200
f 161/228/204 164/224/200 163/226/202
f 161/228/204 325/333/304 323/331/302
f 163/226/202 326/334/305 170/335/306
f 167/231/207 170/335/306 169/229/205
f 172/230/206 325/333/304 167/231/207
f 176/338/309 326/334/305 328/337/308
f 173/234/210 176/338/309 175/232/208
f 178/340/209 327/414/307 173/415/210
f 182/416/312 328/417/308 330/418/311
f 179/237/213 182/343/312 181/235/211
f 184/419/212 329/339/310 179/341/213
f 188/346/315 330/342/311 332/345/314
f 185/240/216 188/346/315 187/238/214
f 190/239/215 331/344/313 185/240/216
f 194/349/318 332/345/314 334/348/317
f 191/243/219 194/349/318 193/241/217
f 196/242/218 333/347/316 191/243/219
f 200/353/322 334/348/317 336/351/320
f 197/244/220 200/353/322 199/352/321
f 202/246/222 335/350/319 197/244/220
f 206/245/221 336/351/320 338/355/324
f 203/249/225 206/245/221 205/247/223
f 208/248/224 337/354/323 203/249/225
f 212/358/327 338/355/324 340/357/326
f 209/252/228 212/358/327 211/250/226
f 214/251/227 339/356/325 209/252/228
f 218/361/330 340/357/326 342/360/329
f 215/255/231 218/361/330 217/253/229
f 215/255/231 343/362/331 341/359/328
f 217/253/229 344/363/332 224/364/333
f 221/258/234 224/364/333 223/256/232
f 221/258/234 345/365/334 343/362/331
f 223/256/232 346/367/335 230/369/337
f 227/366/235 230/369/337 229/368/336
f 227/259/235 347/370/338 345/420/334
f 229/421/336 348/371/339 236/260/236
f 233/264/240 236/260/236 235/262/238
f 233/264/240 349/372/340 347/370/338
f 235/262/238 350/373/341 242/375/343
f 239/265/241 242/375/343 241/374/342
f 239/265/241 351/376/344 349/372/340
f 241/374/342 352/377/345 248/266/242
f 245/270/246 248/266/242 247/268/244
f 245/270/246 353/378/346 351/376/344
f 247/268/244 354/379/347 254/380/348
f 251/273/249 254/380/348 253/271/247
f 251/273/249 355/381/349 353/378/346
f 253/271/247 356/382/350 260/383/351
f 257/276/252 260/383/351 259/274/250
f 257/276/252 357/384/352 355/381/349
f 259/274/250 358/385/353 266/386/354
f 263/279/255 266/386/354 265/277/253
f 268/388/254 357/422/352 263/423/255
f 272/392/357 358/385/353 360/390/356
f 269/424/258 272/392/357 271/391/256
f 274/425/257 359/387/355 269/389/258
f 278/426/360 360/427/356 362/428/359
f 275/285/261 278/395/360 277/283/259
f 280/284/260 361/393/358 275/285/261
f 284/398/363 362/394/359 364/397/362
f 281/288/264 284/398/363 283/286/262
f 286/287/263 363/396/361 281/288/264
f 290/401/366 364/397/362 366/400/365
f 287/291/267 290/401/366 289/289/265
f 292/290/266 365/399/364 287/291/267
f 296/404/369 366/400/365 368/403/368
f 293/294/270 296/404/369 295/292/268
f 298/293/269 367/402/367 293/294/270
f 302/407/372 368/403/368 370/406/371
f 299/297/273 302/407/372 301/295/271
f 304/296/272 369/405/370 299/297/273
f 308/410/375 370/406/371 372/409/374
f 305/210/186 308/410/375 307/208/184
f 118/209/185 371/408/373 305/210/186
f 122/309/282 372/409/374 311/308/281
f 207/429/94 255/430/94 303/431/94
f 123/432/94 310/433/280 309/434/283
f 126/435/91 311/436/281 120/437/91
f 129/438/94 309/434/283 313/413/286
f 132/303/91 312/439/284 126/435/91
f 135/440/94 313/413/286 315/412/289
f 138/441/91 314/442/287 132/303/91
f 141/443/94 315/412/289 317/444/292
f 144/445/91 316/446/290 138/441/91
f 147/447/94 317/444/292 319/448/295
f 150/449/91 318/450/293 144/445/91
f 153/451/94 319/448/295 321/452/298
f 156/453/91 320/454/296 150/449/91
f 159/455/94 321/452/298 323/456/302
f 162/457/91 322/458/299 156/453/91
f 165/459/94 323/456/302 325/460/304
f 168/461/91 324/462/303 162/457/91
f 165/459/94 327/414/307 171/463/94
f 168/461/91 328/417/308 326/464/305
f 171/463/94 329/339/310 177/465/94
f 174/466/91 330/418/311 328/417/308
f 177/465/94 331/467/313 183/468/94
f 180/302/91 332/469/314 330/418/311
f 183/468/94 333/470/316 189/471/94
f 186/472/91 334/473/317 332/469/314
f 189/471/94 335/474/319 195/475/94
f 192/476/91 336/477/320 334/473/317
f 195/475/94 337/478/323 201/479/94
f 198/480/91 338/481/324 336/477/320
f 201/479/94 339/482/325 207/429/94
f 204/483/91 340/484/326 338/481/324
f 207/429/94 341/485/328 213/486/94
f 210/487/91 342/488/329 340/484/326
f 219/489/94 341/485/328 343/490/331
f 222/491/91 342/488/329 216/492/91
f 225/493/94 343/490/331 345/494/334
f 228/301/91 344/495/332 222/491/91
f 231/496/94 345/494/334 347/497/338
f 234/498/91 346/499/335 228/301/91
f 237/500/94 347/497/338 349/501/340
f 240/502/91 348/503/339 234/498/91
f 243/504/94 349/501/340 351/505/344
f 246/506/91 350/507/341 240/502/91
f 249/508/94 351/505/344 353/509/346
f 252/510/91 352/511/345 246/506/91
f 255/430/94 353/509/346 355/512/349
f 258/513/91 354/514/347 252/510/91
f 261/515/94 355/512/349 357/422/352
f 264/516/91 356/517/350 258/513/91
f 261/515/94 359/387/355 267/518/94
f 264/516/91 360/427/356 358/519/353
f 267/518/94 361/520/358 273/521/94
f 270/522/91 362/428/359 360/427/356
f 273/521/94 363/523/361 279/524/94
f 276/525/91 364/526/362 362/428/359
f 279/524/94 365/527/364 285/528/94
f 282/529/91 366/530/365 364/526/362
f 285/528/94 367/531/367 291/532/94
f 288/533/91 368/534/368 366/530/365
f 291/532/94 369/535/370 297/536/94
f 294/537/91 370/538/371 368/534/368
f 297/536/94 371/539/373 303/431/94
f 300/540/91 372/541/374 370/538/371
f 303/431/94 310/433/280 117/542/94
f 306/543/91 311/436/281 372/541/374
f 416/544/376 414/545/376 386/546/376
f 374/547/377 385/548/377 387/549/377
f 416/544/378 386/546/378 375/550/378
f 374/547/379 387/549/379 394/551/379
f 375/550/380 386/546/380 396/552/380
f 376/553/381 390/554/381 398/555/381
f 377/556/382 392/557/382 400/558/382
f 378/559/383 393/560/383 402/561/383
f 374/547/384 394/551/384 397/562/384
f 375/550/385 396/552/385 399/563/385
f 376/564/386 398/565/386 401/566/386
f 422/567/387 377/556/387 400/558/387
f 378/559/388 402/561/388 395/568/388
f 379/569/389 404/570/389 409/571/389
f 380/572/390 405/573/390 411/574/390
f 381/575/391 406/576/391 412/577/391
f 382/578/392 407/579/392 413/580/392
f 383/581/393 408/582/393 410/583/393
f 410/583/394 413/584/394 384/585/394
f 410/583/395 408/582/395 413/584/395
f 408/586/396 382/578/396 413/580/396
f 413/584/397 412/587/397 384/585/397
f 413/588/398 407/589/398 412/577/398
f 407/589/399 381/575/399 412/577/399
f 412/587/400 411/590/400 384/585/400
f 412/577/401 406/576/401 411/591/401
f 406/576/402 380/592/402 411/591/402
f 411/590/403 409/571/403 384/585/403
f 411/590/404 405/593/404 409/571/404
f 405/593/405 379/569/405 409/571/405
f 409/571/406 410/583/406 384/585/406
f 409/571/407 404/570/407 410/583/407
f 404/570/408 383/581/408 410/583/408
f 395/568/409 408/586/409 383/594/409
f 395/568/410 402/561/410 408/586/410
f 402/561/411 382/578/411 408/586/411
f 403/595/412 407/579/412 382/578/412
f 403/596/413 400/558/413 407/589/413
f 400/558/414 381/575/414 407/589/414
f 401/566/415 406/576/415 381/575/415
f 401/566/416 398/565/416 406/576/416
f 398/555/417 380/572/417 406/597/417
f 399/563/418 405/573/418 380/572/418
f 399/563/419 396/552/419 405/573/419
f 396/552/420 379/598/420 405/573/420
f 397/562/421 404/599/421 379/600/421
f 397/562/422 394/551/422 404/599/422
f 394/551/423 383/601/423 404/599/423
f 402/561/424 403/595/424 382/578/424
f 402/561/425 393/560/425 403/595/425
f 422/602/426 403/595/426 420/603/426
f 400/558/427 401/566/427 381/575/427
f 400/558/428 392/557/428 401/566/428
f 392/557/429 376/564/429 401/566/429
f 398/555/430 399/563/430 380/572/430
f 398/555/431 390/554/431 399/563/431
f 390/554/432 375/550/432 399/563/432
f 396/552/433 397/604/433 379/598/433
f 396/605/434 386/606/434 397/562/434
f 386/606/435 374/547/435 397/562/435
f 394/551/436 395/607/436 383/601/436
f 394/551/437 387/549/437 395/607/437
f 387/549/438 378/608/438 395/607/438
f 388/609/439 393/560/439 378/559/439
f 388/610/440 391/611/440 393/612/440
f 420/603/441 403/595/441 393/560/441
f 418/613/442 391/611/442 388/610/442
f 389/614/443 376/615/443 392/616/443
f 389/617/444 390/554/444 376/553/444
f 416/544/445 375/550/445 390/554/445
f 417/618/446 390/554/446 389/617/446
f 387/549/447 388/619/447 378/608/447
f 387/549/448 385/548/448 388/619/448
f 385/620/449 373/621/449 388/610/449
f 415/622/450 389/623/450 373/621/450
f 385/620/451 414/624/451 373/621/451
f 385/548/452 374/547/452 386/606/452
f 414/625/453 385/548/453 386/606/453
f 417/618/454 416/544/454 390/554/454
f 415/622/455 417/626/455 389/623/455
f 419/627/456 373/628/456 389/629/456
f 419/627/457 389/629/457 392/630/457
f 418/613/458 388/610/458 373/621/458
f 419/631/459 392/632/459 391/633/459
f 421/634/460 391/633/460 392/632/460
f 421/635/461 392/557/461 377/556/461
f 422/636/462 421/637/462 377/638/462
f 422/567/463 400/558/463 403/596/463
f 391/611/464 420/639/464 393/612/464
f 424/640/81 425/641/81 423/642/81
f 426/643/82 427/644/82 425/645/82
f 427/644/83 430/646/83 429/647/83
f 429/647/84 432/648/84 431/649/84
f 432/650/85 433/651/85 431/652/85
f 434/653/86 435/654/86 433/651/86
f 435/654/87 438/655/87 437/656/87
f 437/657/88 440/658/88 439/659/88
f 440/658/89 441/660/89 439/659/89
f 442/661/90 443/662/90 441/660/90
f 444/663/91 436/664/91 428/665/91
f 444/666/92 445/667/92 443/668/92
f 446/669/93 423/642/93 445/667/93
f 429/670/94 437/671/94 445/672/94
f 447/673/465 448/674/465 449/675/465
f 448/674/466 447/673/466 452/676/466
f 447/677/467 449/678/467 450/679/467
f 447/677/468 450/679/468 451/680/468
f 447/673/469 451/681/469 452/676/469
f 448/682/470 452/683/470 457/684/470
f 449/685/471 448/686/471 453/687/471
f 450/679/472 449/678/472 454/688/472
f 451/680/473 450/679/473 455/689/473
f 452/690/474 451/691/474 456/692/474
f 448/682/475 457/684/475 453/693/475
f 449/685/476 453/687/476 454/694/476
f 450/679/477 454/688/477 455/689/477
f 451/691/478 455/695/478 456/692/478
f 452/683/479 456/696/479 457/684/479
f 453/693/480 457/684/480 458/697/480
f 454/698/481 453/699/481 458/700/481
f 455/701/482 454/698/482 458/700/482
f 456/702/483 455/701/483 458/700/483
f 457/684/484 456/696/484 458/697/484
f 460/703/485 461/704/485 459/705/485
f 462/706/486 463/707/487 461/708/488
f 464/709/489 465/710/489 463/707/489
f 466/711/490 467/712/490 465/713/490
f 468/714/491 469/715/491 467/712/491
f 470/716/492 471/717/492 469/715/492
f 472/718/493 473/719/493 471/720/493
f 474/721/494 475/722/494 473/719/494
f 460/703/495 479/723/495 462/724/495
f 475/725/496 478/726/497 477/727/498
f 477/727/499 460/703/499 459/705/499
f 465/728/94 473/729/94 477/730/94
f 484/731/500 495/732/500 485/733/500
f 464/709/501 482/734/501 466/735/501
f 462/706/502 481/736/503 464/709/504
f 460/703/505 488/737/505 480/738/505
f 478/726/506 487/739/507 488/737/508
f 476/740/509 486/741/509 487/742/509
f 472/718/510 486/741/510 474/721/510
f 470/716/511 485/733/511 472/743/511
f 470/716/512 483/744/512 484/731/512
f 468/714/513 482/745/513 483/744/513
f 491/746/501 502/747/501 492/748/501
f 481/736/514 492/748/514 482/734/514
f 480/738/515 498/749/515 490/750/515
f 485/751/516 496/752/516 486/741/516
f 483/744/517 492/753/517 493/754/517
f 480/738/518 489/755/518 479/723/518
f 486/741/519 497/756/519 487/742/519
f 484/731/520 493/754/520 494/757/520
f 479/758/521 491/746/522 481/736/523
f 488/737/524 497/759/525 498/749/526
f 507/760/91 503/761/91 501/762/91
f 490/750/527 508/763/527 500/764/527
f 496/752/528 505/765/528 506/766/528
f 492/753/529 503/767/529 493/754/529
f 490/750/530 499/768/530 489/755/530
f 497/756/509 506/766/509 507/769/509
f 493/754/531 504/770/531 494/757/531
f 489/771/532 501/772/533 491/746/534
f 498/749/535 507/773/536 508/763/537
f 495/732/538 504/770/538 505/774/538
f 510/775/539 511/776/539 509/777/539
f 512/778/94 515/779/94 511/780/94
f 516/781/540 513/782/540 515/783/540
f 513/784/91 510/785/91 509/786/91
f 515/787/541 509/788/541 511/789/541
f 512/790/542 514/791/542 516/792/542
f 518/793/494 519/794/494 517/795/494
f 520/796/94 523/797/94 519/798/94
f 524/799/489 521/800/489 523/801/489
f 521/802/91 518/803/91 517/804/91
f 523/805/543 517/806/543 519/807/543
f 520/808/544 522/809/544 524/810/544
f 526/811/494 527/812/494 525/813/494
f 528/814/94 531/815/94 527/816/94
f 532/817/489 529/818/489 531/819/489
f 529/820/91 526/821/91 525/822/91
f 531/823/543 525/824/543 527/825/543
f 528/826/544 530/827/544 532/828/544
f 534/829/545 535/830/545 533/831/545
f 535/832/94 540/833/94 539/834/94
f 540/835/546 537/836/546 539/837/546
f 538/838/91 533/839/91 537/840/91
f 539/841/547 533/842/547 535/843/547
f 536/844/548 538/845/548 540/846/548
f 44/77/81 46/847/81 45/78/81
f 46/80/82 48/848/82 47/81/82
f 47/81/83 48/848/83 50/83/83
f 49/84/84 50/83/84 52/85/84
f 52/87/85 54/90/85 53/88/85
f 54/90/86 56/92/86 55/91/86
f 56/92/87 58/849/87 57/93/87
f 57/94/88 58/850/88 60/95/88
f 60/95/89 62/98/89 61/97/89
f 62/98/90 64/851/90 63/99/90
f 48/102/91 46/852/91 44/853/91
f 44/853/91 66/854/91 64/100/91
f 64/100/91 62/855/91 60/856/91
f 60/856/91 58/857/91 56/101/91
f 56/101/91 54/858/91 52/859/91
f 52/859/91 50/860/91 48/102/91
f 48/102/91 44/853/91 64/100/91
f 64/100/91 60/856/91 56/101/91
f 56/101/91 52/859/91 48/102/91
f 64/103/92 66/106/92 65/104/92
f 66/106/93 44/77/93 43/79/93
f 65/109/94 43/861/94 45/862/94
f 45/862/94 47/863/94 49/107/94
f 49/107/94 51/864/94 53/865/94
f 53/865/94 55/866/94 57/108/94
f 57/108/94 59/867/94 61/868/94
f 61/868/94 63/869/94 65/109/94
f 65/109/94 45/862/94 49/107/94
f 49/107/94 53/865/94 57/108/94
f 57/108/94 61/868/94 65/109/94
f 307/208/184 122/309/282 118/209/185
f 133/211/187 140/320/291 136/212/188
f 139/214/190 146/323/294 142/215/191
f 145/217/193 152/326/297 148/218/194
f 151/220/196 158/330/301 154/221/197
f 155/223/199 157/329/300 164/224/200
f 163/226/202 170/335/306 166/227/203
f 169/229/205 176/338/309 172/230/206
f 175/232/208 182/870/312 178/233/209
f 181/235/211 188/346/315 184/236/212
f 187/238/214 194/349/318 190/239/215
f 193/241/217 200/353/322 196/242/218
f 197/244/220 199/352/321 206/245/221
f 205/247/223 212/358/327 208/248/224
f 211/250/226 218/361/330 214/251/227
f 217/253/229 224/364/333 220/254/230
f 223/256/232 230/369/337 226/257/233
f 227/259/235 229/421/336 236/260/236
f 235/262/238 242/375/343 238/263/239
f 239/265/241 241/374/342 248/266/242
f 247/268/244 254/380/348 250/269/245
f 253/271/247 260/383/351 256/272/248
f 259/274/250 266/386/354 262/275/251
f 265/277/253 272/392/357 268/278/254
f 271/280/256 278/395/360 274/281/257
f 277/283/259 284/398/363 280/284/260
f 283/286/262 290/401/366 286/287/263
f 289/289/265 296/404/369 292/290/266
f 295/292/268 302/407/372 298/293/269
f 301/295/271 308/410/375 304/296/272
f 127/298/274 134/317/288 130/299/275
f 132/303/91 126/435/91 120/437/91
f 120/437/91 306/543/91 300/540/91
f 300/540/91 294/537/91 288/533/91
f 288/533/91 282/529/91 276/525/91
f 276/525/91 270/522/91 264/516/91
f 264/516/91 258/513/91 252/510/91
f 252/510/91 246/506/91 240/502/91
f 240/502/91 234/498/91 228/301/91
f 228/301/91 222/491/91 216/492/91
f 216/492/91 210/487/91 204/483/91
f 204/483/91 198/480/91 192/476/91
f 192/476/91 186/472/91 180/302/91
f 180/302/91 174/466/91 168/461/91
f 168/461/91 162/457/91 156/453/91
f 156/453/91 150/449/91 144/445/91
f 144/445/91 138/441/91 132/303/91
f 132/303/91 120/437/91 300/540/91
f 300/540/91 288/533/91 276/525/91
f 276/525/91 264/516/91 252/510/91
f 252/510/91 240/502/91 228/301/91
f 228/301/91 216/492/91 204/483/91
f 204/483/91 192/476/91 180/302/91
f 180/302/91 168/461/91 156/453/91
f 156/453/91 144/445/91 132/303/91
f 132/303/91 300/540/91 276/525/91
f 276/525/91 252/510/91 228/301/91
f 228/301/91 204/483/91 180/302/91
f 180/302/91 156/453/91 132/303/91
f 132/303/91 276/525/91 228/301/91
f 121/304/277 128/312/285 124/305/278
f 119/306/279 124/305/278 309/310/283
f 121/304/277 311/308/281 312/311/284
f 122/309/282 121/304/277 119/306/279
f 125/300/276 124/305/278 128/312/285
f 125/300/276 130/299/275 313/313/286
f 127/298/274 312/311/284 314/315/287
f 131/314/189 130/299/275 134/317/288
f 131/411/189 136/871/188 315/412/289
f 133/211/187 314/872/287 316/319/290
f 137/216/192 136/212/188 140/320/291
f 137/216/192 142/215/191 317/321/292
f 139/214/190 316/319/290 318/322/293
f 143/219/195 142/215/191 146/323/294
f 143/219/195 148/218/194 319/324/295
f 145/217/193 318/322/293 320/325/296
f 149/222/198 148/218/194 152/326/297
f 149/222/198 154/221/197 321/327/298
f 151/220/196 320/325/296 322/328/299
f 155/223/199 154/221/197 158/330/301
f 155/223/199 160/225/201 323/331/302
f 157/329/300 322/328/299 324/332/303
f 161/228/204 160/225/201 164/224/200
f 161/228/204 166/227/203 325/333/304
f 163/226/202 324/332/303 326/334/305
f 167/231/207 166/227/203 170/335/306
f 172/230/206 327/336/307 325/333/304
f 176/338/309 169/229/205 326/334/305
f 173/234/210 172/230/206 176/338/309
f 178/340/209 329/339/310 327/414/307
f 182/416/312 175/873/208 328/417/308
f 179/237/213 178/874/209 182/343/312
f 184/419/212 331/467/313 329/339/310
f 188/346/315 181/235/211 330/342/311
f 185/240/216 184/236/212 188/346/315
f 190/239/215 333/347/316 331/344/313
f 194/349/318 187/238/214 332/345/314
f 191/243/219 190/239/215 194/349/318
f 196/242/218 335/350/319 333/347/316
f 200/353/322 193/241/217 334/348/317
f 197/244/220 196/242/218 200/353/322
f 202/246/222 337/354/323 335/350/319
f 206/245/221 199/352/321 336/351/320
f 203/249/225 202/246/222 206/245/221
f 208/248/224 339/356/325 337/354/323
f 212/358/327 205/247/223 338/355/324
f 209/252/228 208/248/224 212/358/327
f 214/251/227 341/359/328 339/356/325
f 218/361/330 211/250/226 340/357/326
f 215/255/231 214/251/227 218/361/330
f 215/255/231 220/254/230 343/362/331
f 217/253/229 342/360/329 344/363/332
f 221/258/234 220/254/230 224/364/333
f 221/258/234 226/257/233 345/365/334
f 223/256/232 344/363/332 346/367/335
f 227/366/235 226/257/233 230/369/337
f 227/259/235 232/261/237 347/370/338
f 229/421/336 346/875/335 348/371/339
f 233/264/240 232/261/237 236/260/236
f 233/264/240 238/263/239 349/372/340
f 235/262/238 348/371/339 350/373/341
f 239/265/241 238/263/239 242/375/343
f 239/265/241 244/267/243 351/376/344
f 241/374/342 350/373/341 352/377/345
f 245/270/246 244/267/243 248/266/242
f 245/270/246 250/269/245 353/378/346
f 247/268/244 352/377/345 354/379/347
f 251/273/249 250/269/245 254/380/348
f 251/273/249 256/272/248 355/381/349
f 253/271/247 354/379/347 356/382/350
f 257/276/252 256/272/248 260/383/351
f 257/276/252 262/275/251 357/384/352
f 259/274/250 356/382/350 358/385/353
f 263/279/255 262/275/251 266/386/354
f 268/388/254 359/387/355 357/422/352
f 272/392/357 265/277/253 358/385/353
f 269/424/258 268/278/254 272/392/357
f 274/425/257 361/520/358 359/387/355
f 278/426/360 271/876/256 360/427/356
f 275/285/261 274/281/257 278/395/360
f 280/284/260 363/396/361 361/393/358
f 284/398/363 277/283/259 362/394/359
f 281/288/264 280/284/260 284/398/363
f 286/287/263 365/399/364 363/396/361
f 290/401/366 283/286/262 364/397/362
f 287/291/267 286/287/263 290/401/366
f 292/290/266 367/402/367 365/399/364
f 296/404/369 289/289/265 366/400/365
f 293/294/270 292/290/266 296/404/369
f 298/293/269 369/405/370 367/402/367
f 302/407/372 295/292/268 368/403/368
f 299/297/273 298/293/269 302/407/372
f 304/296/272 371/408/373 369/405/370
f 308/410/375 301/295/271 370/406/371
f 305/210/186 304/296/272 308/410/375
f 118/209/185 310/307/280 371/408/373
f 122/309/282 307/208/184 372/409/374
f 303/431/94 117/542/94 123/432/94
f 123/432/94 129/438/94 135/440/94
f 135/440/94 141/443/94 147/447/94
f 147/447/94 153/451/94 159/455/94
f 159/455/94 165/459/94 171/463/94
f 171/463/94 177/465/94 183/468/94
f 183/468/94 189/471/94 195/475/94
f 195/475/94 201/479/94 207/429/94
f 207/429/94 213/486/94 219/489/94
f 219/489/94 225/493/94 231/496/94
f 231/496/94 237/500/94 243/504/94
f 243/504/94 249/508/94 255/430/94
f 255/430/94 261/515/94 267/518/94
f 267/518/94 273/521/94 279/524/94
f 279/524/94 285/528/94 291/532/94
f 291/532/94 297/536/94 303/431/94
f 303/431/94 123/432/94 135/440/94
f 135/440/94 147/447/94 159/455/94
f 159/455/94 171/463/94 183/468/94
f 183/468/94 195/475/94 207/429/94
f 207/429/94 219/489/94 231/496/94
f 231/496/94 243/504/94 255/430/94
f 255/430/94 267/518/94 279/524/94
f 279/524/94 291/532/94 303/431/94
f 303/431/94 135/440/94 159/455/94
f 159/455/94 183/468/94 207/429/94
f 207/429/94 231/496/94 255/430/94
f 255/430/94 279/524/94 303/431/94
f 303/431/94 159/455/94 207/429/94
f 123/432/94 117/542/94 310/433/280
f 126/435/91 312/439/284 311/436/281
f 129/438/94 123/432/94 309/434/283
f 132/303/91 314/442/287 312/439/284
f 135/440/94 129/438/94 313/413/286
f 138/441/91 316/446/290 314/442/287
f 141/443/94 135/440/94 315/412/289
f 144/445/91 318/450/293 316/446/290
f 147/447/94 141/443/94 317/444/292
f 150/449/91 320/454/296 318/450/293
f 153/451/94 147/447/94 319/448/295
f 156/453/91 322/458/299 320/454/296
f 159/455/94 153/451/94 321/452/298
f 162/457/91 324/462/303 322/458/299
f 165/459/94 159/455/94 323/456/302
f 168/461/91 326/464/305 324/462/303
f 165/459/94 325/460/304 327/414/307
f 168/461/91 174/466/91 328/417/308
f 171/463/94 327/414/307 329/339/310
f 174/466/91 180/302/91 330/418/311
f 177/465/94 329/339/310 331/467/313
f 180/302/91 186/472/91 332/469/314
f 183/468/94 331/467/313 333/470/316
f 186/472/91 192/476/91 334/473/317
f 189/471/94 333/470/316 335/474/319
f 192/476/91 198/480/91 336/477/320
f 195/475/94 335/474/319 337/478/323
f 198/480/91 204/483/91 338/481/324
f 201/479/94 337/478/323 339/482/325
f 204/483/91 210/487/91 340/484/326
f 207/429/94 339/482/325 341/485/328
f 210/487/91 216/492/91 342/488/329
f 219/489/94 213/486/94 341/485/328
f 222/491/91 344/495/332 342/488/329
f 225/493/94 219/489/94 343/490/331
f 228/301/91 346/499/335 344/495/332
f 231/496/94 225/493/94 345/494/334
f 234/498/91 348/503/339 346/499/335
f 237/500/94 231/496/94 347/497/338
f 240/502/91 350/507/341 348/503/339
f 243/504/94 237/500/94 349/501/340
f 246/506/91 352/511/345 350/507/341
f 249/508/94 243/504/94 351/505/344
f 252/510/91 354/514/347 352/511/345
f 255/430/94 249/508/94 353/509/346
f 258/513/91 356/517/350 354/514/347
f 261/515/94 255/430/94 355/512/349
f 264/516/91 358/519/353 356/517/350
f 261/515/94 357/422/352 359/387/355
f 264/516/91 270/522/91 360/427/356
f 267/518/94 359/387/355 361/520/358
f 270/522/91 276/525/91 362/428/359
f 273/521/94 361/520/358 363/523/361
f 276/525/91 282/529/91 364/526/362
f 279/524/94 363/523/361 365/527/364
f 282/529/91 288/533/91 366/530/365
f 285/528/94 365/527/364 367/531/367
f 288/533/91 294/537/91 368/534/368
f 291/532/94 367/531/367 369/535/370
f 294/537/91 300/540/91 370/538/371
f 297/536/94 369/535/370 371/539/373
f 300/540/91 306/543/91 372/541/374
f 303/431/94 371/539/373 310/433/280
f 306/543/91 120/437/91 311/436/281
f 424/640/81 426/877/81 425/641/81
f 426/643/82 428/878/82 427/644/82
f 427/644/83 428/878/83 430/646/83
f 429/647/84 430/646/84 432/648/84
f 432/650/85 434/653/85 433/651/85
f 434/653/86 436/879/86 435/654/86
f 435/654/87 436/879/87 438/655/87
f 437/657/88 438/880/88 440/658/88
f 440/658/89 442/661/89 441/660/89
f 442/661/90 444/881/90 443/662/90
f 428/665/91 426/882/91 424/883/91
f 424/883/91 446/884/91 444/663/91
f 444/663/91 442/885/91 440/886/91
f 440/886/91 438/887/91 436/664/91
f 436/664/91 434/888/91 432/889/91
f 432/889/91 430/890/91 428/665/91
f 428/665/91 424/883/91 444/663/91
f 444/663/91 440/886/91 436/664/91
f 436/664/91 432/889/91 428/665/91
f 444/666/92 446/669/92 445/667/92
f 446/669/93 424/640/93 423/642/93
f 445/672/94 423/891/94 425/892/94
f 425/892/94 427/893/94 429/670/94
f 429/670/94 431/894/94 433/895/94
f 433/895/94 435/896/94 437/671/94
f 437/671/94 439/897/94 441/898/94
f 441/898/94 443/899/94 445/672/94
f 445/672/94 425/892/94 429/670/94
f 429/670/94 433/895/94 437/671/94
f 437/671/94 441/898/94 445/672/94
f 460/703/485 462/724/485 461/704/485
f 462/706/486 464/709/549 463/707/487
f 464/709/489 466/735/489 465/710/489
f 466/711/490 468/714/490 467/712/490
f 468/714/491 470/716/491 469/715/491
f 470/716/492 472/743/492 471/717/492
f 472/718/493 474/721/493 473/719/493
f 474/721/494 476/740/494 475/722/494
f 460/703/495 480/738/495 479/723/495
f 475/725/496 476/900/550 478/726/497
f 477/727/499 478/726/499 460/703/499
f 477/730/94 459/901/94 461/902/94
f 461/902/94 463/903/94 465/728/94
f 465/728/94 467/904/94 469/905/94
f 469/905/94 471/906/94 473/729/94
f 473/729/94 475/907/94 477/730/94
f 477/730/94 461/902/94 465/728/94
f 465/728/94 469/905/94 473/729/94
f 484/731/500 494/757/500 495/732/500
f 464/709/501 481/736/501 482/734/501
f 462/706/502 479/758/551 481/736/503
f 460/703/505 478/726/505 488/737/505
f 478/726/506 476/900/552 487/739/507
f 476/740/509 474/721/509 486/741/509
f 472/718/510 485/751/510 486/741/510
f 470/716/511 484/731/511 485/733/511
f 470/716/512 468/714/512 483/744/512
f 468/714/513 466/711/513 482/745/513
f 491/746/501 501/772/501 502/747/501
f 481/736/514 491/746/514 492/748/514
f 480/738/515 488/737/515 498/749/515
f 485/751/516 495/908/516 496/752/516
f 483/744/517 482/745/517 492/753/517
f 480/738/518 490/750/518 489/755/518
f 486/741/519 496/752/519 497/756/519
f 484/731/520 483/744/520 493/754/520
f 479/758/521 489/771/553 491/746/522
f 488/737/524 487/739/554 497/759/525
f 501/762/91 499/909/91 500/910/91
f 500/910/91 508/911/91 507/760/91
f 507/760/91 506/912/91 505/913/91
f 505/913/91 504/914/91 503/761/91
f 503/761/91 502/915/91 501/762/91
f 501/762/91 500/910/91 507/760/91
f 507/760/91 505/913/91 503/761/91
f 490/750/527 498/749/527 508/763/527
f 496/752/528 495/908/528 505/765/528
f 492/753/529 502/916/529 503/767/529
f 490/750/530 500/764/530 499/768/530
f 497/756/509 496/752/509 506/766/509
f 493/754/531 503/767/531 504/770/531
f 489/771/532 499/917/555 501/772/533
f 498/749/535 497/759/556 507/773/536
f 495/732/538 494/757/538 504/770/538
f 510/775/539 512/790/539 511/776/539
f 512/778/94 516/918/94 515/779/94
f 516/781/540 514/919/540 513/782/540
f 513/784/91 514/920/91 510/785/91
f 515/787/541 513/921/541 509/788/541
f 512/790/542 510/775/542 514/791/542
f 518/793/494 520/922/494 519/794/494
f 520/796/94 524/923/94 523/797/94
f 524/799/489 522/924/489 521/800/489
f 521/802/91 522/925/91 518/803/91
f 523/805/543 521/926/543 517/806/543
f 520/808/544 518/927/544 522/809/544
f 526/811/494 528/928/494 527/812/494
f 528/814/94 532/929/94 531/815/94
f 532/817/489 530/930/489 529/818/489
f 529/820/91 530/931/91 526/821/91
f 531/823/543 529/932/543 525/824/543
f 528/826/544 526/933/544 530/827/544
f 534/829/545 536/934/545 535/830/545
f 535/832/94 536/935/94 540/833/94
f 540/835/546 538/936/546 537/836/546
f 538/838/91 534/937/91 533/839/91
f 539/841/547 537/938/547 533/842/547
f 536/844/548 534/939/548 538/845/548
o Body.001
v 0.894535 0.625397 0.934675
v 0.918616 0.980590 0.983028
v 0.920240 0.296532 0.836169
v 0.946130 0.289423 1.367574
v 0.999799 0.598963 0.952921
v 1.225719 0.306855 0.792647
v 1.192097 0.584041 0.993863
v 0.776978 0.908238 1.411871
v 0.849210 0.867080 0.959237
v 1.224544 0.768106 1.046843
v 0.737559 1.343723 1.230204
v 0.791193 1.213100 0.848956
v 1.114240 1.165304 0.984110
v 0.940777 1.348796 0.818779
v -0.839153 0.928836 0.933605
v -0.987095 0.605389 0.984350
v -0.747151 1.244898 0.832826
v -0.768198 1.264319 1.364138
v -0.928270 0.990874 0.951539
v -1.036636 1.342856 0.788996
v -1.102848 1.073043 0.992140
v -0.828496 0.625965 1.412866
v -0.882096 0.686897 0.959872
v -1.198158 0.912674 1.046333
v -0.945681 0.203403 1.234223
v -0.950190 0.341947 0.852027
v -1.235356 0.501701 0.986449
v -1.138102 0.267639 0.822589
vn -0.9705 0.2358 0.0504
vn -0.0636 0.8036 0.5917
vn 0.8834 -0.2003 0.4236
vn 0.0316 -0.9994 -0.0149
vn -0.2348 -0.2957 0.9260
vn -0.9756 -0.1687 -0.1404
vn -0.8219 0.5403 -0.1803
vn 0.5005 0.8113 0.3022
vn 0.1763 -0.8271 0.5337
vn -0.8847 -0.4648 0.0348
vn -0.6708 0.6676 -0.3231
vn 0.5557 0.7813 0.2841
vn 0.3657 -0.3922 0.8441
vn 0.8247 -0.5631 0.0533
vn -0.2236 -0.7703 0.5972
vn -0.7552 0.5024 0.4211
vn 0.3234 0.9460 -0.0218
vn 0.3252 0.2000 0.9242
vn 0.9721 -0.1878 -0.1403
vn 0.5778 -0.7971 -0.1756
vn -0.7544 -0.5801 0.3071
vn 0.1279 0.8397 0.5278
vn 0.9919 0.1225 0.0327
vn 0.3913 -0.8637 -0.3177
vn -0.7955 -0.5327 0.2887
vn -0.2025 0.5019 0.8409
vt 0.001098 0.000326
vt 0.116608 0.000326
vt 0.027226 0.031802
vt 0.030035 0.034247
vt 0.001740 0.127208
vt 0.001740 0.024653
vt 0.291431 0.033569
vt 0.211805 0.000894
vt 0.339223 0.000894
vt 0.786956 0.132791
vt 0.840989 0.006682
vt 0.836378 0.125504
vt 0.598676 0.964664
vt 0.636665 0.943023
vt 0.643110 0.961913
vt 0.131112 0.384845
vt 0.243816 0.384845
vt 0.149697 0.413428
vt 0.402827 0.245583
vt 0.305990 0.227330
vt 0.402827 0.226928
vt 0.646643 0.300467
vt 0.600555 0.385159
vt 0.600555 0.288654
vt 0.561750 0.451906
vt 0.621908 0.363958
vt 0.621908 0.473498
vt 0.906603 0.454064
vt 0.922068 0.372914
vt 0.954064 0.454064
vt 0.341793 0.086179
vt 0.342772 0.000905
vt 0.372580 0.093497
vt 0.227915 0.787986
vt 0.136577 0.787986
vt 0.197791 0.748476
vt 0.027043 0.403072
vt 0.037543 0.329657
vt 0.065371 0.383585
vt 0.901060 0.332155
vt 0.800821 0.272987
vt 0.898802 0.282445
vt 0.901060 0.256046
vt 0.370983 0.725677
vt 0.304558 0.805654
vt 0.347018 0.678324
vt 0.308443 0.686529
vt 0.513885 0.280192
vt 0.557009 0.300008
vt 0.546323 0.315040
vt 0.068070 0.466431
vt 0.068070 0.350758
vt 0.091873 0.449623
vt 0.402827 0.001684
vt 0.402827 0.102474
vt 0.381915 0.005541
vt 0.674912 0.383788
vt 0.625467 0.466431
vt 0.625467 0.357990
vt 0.774511 0.074322
vt 0.722584 0.150177
vt 0.722584 0.042543
vt 0.939929 0.000466
vt 0.932136 0.079505
vt 0.894665 0.000466
vt 0.136327 0.805321
vt 0.217315 0.819145
vt 0.127233 0.839101
vt 0.445230 0.752650
vt 0.352192 0.752650
vt 0.421699 0.707530
vt 0.586137 0.749478
vt 0.653710 0.756544
vt 0.607788 0.791450
s 1
usemtl molesAtlas
f 543/940/557 544/941/557 545/942/557
f 545/943/558 544/944/558 547/945/558
f 547/946/559 544/947/559 546/948/559
f 546/949/560 544/950/560 543/951/560
f 543/952/561 545/953/561 541/954/561
f 541/955/562 548/956/562 549/957/562
f 549/958/563 548/959/563 542/960/563
f 542/961/564 548/962/564 550/963/564
f 550/964/565 548/965/565 541/966/565
f 542/967/566 551/968/566 552/969/566
f 552/970/567 551/971/567 554/972/567
f 554/973/568 551/974/568 553/975/568
f 553/976/569 551/977/569 542/978/569
f 557/979/570 558/980/570 559/981/570
f 559/981/571 558/980/571 561/982/571
f 561/983/572 558/984/572 560/985/572
f 560/985/573 558/984/573 557/986/573
f 557/987/574 559/988/574 555/989/574
f 555/990/575 562/991/575 563/992/575
f 563/993/576 562/994/576 556/995/576
f 556/996/577 562/997/577 564/998/577
f 564/999/578 562/1000/578 555/1001/578
f 556/1002/579 565/1003/579 566/1004/579
f 566/1005/580 565/1006/580 568/1007/580
f 568/1008/581 565/1009/581 567/1010/581
f 567/1011/582 565/1012/582 556/1013/582
