# Blender 5.0.0
# www.blender.org
mtllib hammer.mtl
usemtl HammerMaterial
o Cylinder
v 0.000166 0.007858 -0.199476
v 0.000166 2.057114 -0.199476
v 0.039081 0.007858 -0.195643
v 0.039081 2.057114 -0.195643
v 0.076502 0.007858 -0.184291
v 0.076502 2.057114 -0.184291
v 0.110988 0.007858 -0.165858
v 0.110988 2.057114 -0.165858
v 0.141216 0.007858 -0.141051
v 0.141216 2.057114 -0.141051
v 0.166024 0.007858 -0.110823
v 0.166024 2.057114 -0.110823
v 0.184457 0.007858 -0.076336
v 0.184457 2.057114 -0.076336
v 0.195808 0.007858 -0.038916
v 0.195808 2.057114 -0.038916
v 0.199641 0.007858 -0.000000
v 0.199641 2.057114 -0.000000
v 0.195808 0.007858 0.038916
v 0.195808 2.057114 0.038916
v 0.184457 0.007858 0.076336
v 0.184457 2.057114 0.076336
v 0.166024 0.007858 0.110823
v 0.166024 2.057114 0.110823
v 0.141216 0.007858 0.141051
v 0.141216 2.057114 0.141051
v 0.110988 0.007858 0.165858
v 0.110988 2.057114 0.165858
v 0.076502 0.007858 0.184291
v 0.076502 2.057114 0.184291
v 0.039081 0.007858 0.195643
v 0.039081 2.057114 0.195643
v 0.000166 0.007858 0.199476
v 0.000166 2.057114 0.199476
v -0.038750 0.007858 0.195643
v -0.038750 2.057114 0.195643
v -0.076170 0.007858 0.184291
v -0.076170 2.057114 0.184291
v -0.110657 0.007858 0.165858
v -0.110657 2.057114 0.165858
v -0.140885 0.007858 0.141051
v -0.140885 2.057114 0.141051
v -0.165692 0.007858 0.110823
v -0.165692 2.057114 0.110823
v -0.184126 0.007858 0.076336
v -0.184126 2.057114 0.076336
v -0.195477 0.007858 0.038916
v -0.195477 2.057114 0.038916
v -0.199310 0.007858 -0.000000
v -0.199310 2.057114 -0.000000
v -0.195477 0.007858 -0.038916
v -0.195477 2.057114 -0.038916
v -0.184126 0.007858 -0.076336
v -0.184126 2.057114 -0.076336
v -0.165692 0.007858 -0.110823
v -0.165692 2.057114 -0.110823
v -0.140885 0.007858 -0.141051
v -0.140885 2.057114 -0.141051
v -0.110657 0.007858 -0.165858
v -0.110657 2.057114 -0.165858
v -0.076170 0.007858 -0.184291
v -0.076170 2.057114 -0.184291
v -0.038750 0.007858 -0.195643
v -0.038750 2.057114 -0.195643
v 1.574188 2.150228 0.878433
v 1.401324 2.057375 0.986807
v 1.401324 3.748329 0.986807
v 1.574188 3.655476 0.878433
v 1.574188 2.150228 -0.878433
v 1.401324 2.057375 -0.986807
v 1.574188 3.655476 -0.878433
v 1.401324 3.748329 -0.986807
v -1.404306 2.057375 0.986807
v -1.573856 2.148448 0.880511
v -1.404306 3.748329 0.986807
v -1.573856 3.657256 0.880511
v -1.573856 2.148448 -0.880511
v -1.404306 2.057375 -0.986807
v -1.404306 3.748329 -0.986807
v -1.573856 3.657256 -0.880511
vn 0.0980 -0.0000 -0.9952
vn 0.2903 -0.0000 -0.9569
vn 0.4714 -0.0000 -0.8819
vn 0.6344 -0.0000 -0.7730
vn 0.7730 -0.0000 -0.6344
vn 0.8819 -0.0000 -0.4714
vn 0.9569 -0.0000 -0.2903
vn 0.9952 -0.0000 -0.0980
vn 0.9952 -0.0000 0.0980
vn 0.9569 -0.0000 0.2903
vn 0.8819 -0.0000 0.4714
vn 0.7730 -0.0000 0.6344
vn 0.6344 -0.0000 0.7730
vn 0.4714 -0.0000 0.8819
vn 0.2903 -0.0000 0.9569
vn 0.0980 -0.0000 0.9952
vn -0.0980 -0.0000 0.9952
vn -0.2903 -0.0000 0.9569
vn -0.4714 -0.0000 0.8819
vn -0.6344 -0.0000 0.7730
vn -0.7730 -0.0000 0.6344
vn -0.8819 -0.0000 0.4714
vn -0.9569 -0.0000 0.2903
vn -0.9952 -0.0000 0.0980
vn -0.9952 -0.0000 -0.0980
vn -0.9569 -0.0000 -0.2903
vn -0.8819 -0.0000 -0.4714
vn -0.7730 -0.0000 -0.6344
vn -0.6344 -0.0000 -0.7730
vn -0.4714 -0.0000 -0.8819
vn -0.0000 1.0000 -0.0000
vn -0.2903 -0.0000 -0.9569
vn -0.0980 -0.0000 -0.9952
vn -0.0000 -1.0000 -0.0000
vn 0.5312 -0.0000 -0.8473
vn 0.4732 -0.8810 -0.0000
vn 0.4732 0.8810 -0.0000
vn 0.5312 -0.0000 0.8473
vn 1.0000 -0.0000 -0.0000
vn -0.4732 -0.8810 -0.0000
vn -0.5312 -0.0000 0.8473
vn -0.4732 0.8810 -0.0000
vn -0.5312 -0.0000 -0.8473
vn -1.0000 -0.0000 -0.0000
vn -0.0000 -0.0000 1.0000
vn -0.0000 -0.0000 -1.0000
vt 1.000000 0.500000
vt 1.000000 1.000000
vt 0.968750 1.000000
vt 0.968750 0.500000
vt 0.937500 1.000000
vt 0.937500 0.500000
vt 0.906250 1.000000
vt 0.906250 0.500000
vt 0.875000 1.000000
vt 0.875000 0.500000
vt 0.843750 1.000000
vt 0.843750 0.500000
vt 0.812500 1.000000
vt 0.812500 0.500000
vt 0.781250 1.000000
vt 0.781250 0.500000
vt 0.750000 1.000000
vt 0.750000 0.500000
vt 0.718750 1.000000
vt 0.718750 0.500000
vt 0.687500 1.000000
vt 0.687500 0.500000
vt 0.656250 1.000000
vt 0.656250 0.500000
vt 0.625000 1.000000
vt 0.625000 0.500000
vt 0.593750 1.000000
vt 0.593750 0.500000
vt 0.562500 1.000000
vt 0.562500 0.500000
vt 0.531250 1.000000
vt 0.531250 0.500000
vt 0.500000 1.000000
vt 0.500000 0.500000
vt 0.468750 1.000000
vt 0.468750 0.500000
vt 0.437500 1.000000
vt 0.437500 0.500000
vt 0.406250 1.000000
vt 0.406250 0.500000
vt 0.375000 1.000000
vt 0.375000 0.500000
vt 0.343750 1.000000
vt 0.343750 0.500000
vt 0.312500 1.000000
vt 0.312500 0.500000
vt 0.281250 1.000000
vt 0.281250 0.500000
vt 0.250000 1.000000
vt 0.250000 0.500000
vt 0.218750 1.000000
vt 0.218750 0.500000
vt 0.187500 1.000000
vt 0.187500 0.500000
vt 0.156250 1.000000
vt 0.156250 0.500000
vt 0.125000 1.000000
vt 0.125000 0.500000
vt 0.093750 1.000000
vt 0.093750 0.500000
vt 0.062500 1.000000
vt 0.062500 0.500000
vt 0.296822 0.485388
vt 0.250000 0.490000
vt 0.203178 0.485388
vt 0.158156 0.471731
vt 0.116663 0.449553
vt 0.080294 0.419706
vt 0.050447 0.383337
vt 0.028269 0.341844
vt 0.014612 0.296822
vt 0.010000 0.250000
vt 0.014612 0.203178
vt 0.028269 0.158156
vt 0.050447 0.116663
vt 0.080294 0.080294
vt 0.116663 0.050447
vt 0.158156 0.028269
vt 0.203178 0.014612
vt 0.250000 0.010000
vt 0.296822 0.014612
vt 0.341844 0.028269
vt 0.383337 0.050447
vt 0.419706 0.080294
vt 0.449553 0.116663
vt 0.471731 0.158156
vt 0.485388 0.203178
vt 0.490000 0.250000
vt 0.485388 0.296822
vt 0.471731 0.341844
vt 0.449553 0.383337
vt 0.419706 0.419706
vt 0.383337 0.449553
vt 0.341844 0.471731
vt 0.031250 1.000000
vt 0.031250 0.500000
vt 0.000000 1.000000
vt 0.000000 0.500000
vt 0.750000 0.490000
vt 0.796822 0.485388
vt 0.841844 0.471731
vt 0.883337 0.449553
vt 0.919706 0.419706
vt 0.949553 0.383337
vt 0.971731 0.341844
vt 0.985388 0.296822
vt 0.990000 0.250000
vt 0.985388 0.203178
vt 0.971731 0.158156
vt 0.949553 0.116663
vt 0.919706 0.080294
vt 0.883337 0.050447
vt 0.841844 0.028269
vt 0.796822 0.014612
vt 0.750000 0.010000
vt 0.703178 0.014612
vt 0.658156 0.028269
vt 0.616663 0.050447
vt 0.580294 0.080294
vt 0.550447 0.116663
vt 0.528269 0.158156
vt 0.514612 0.203178
vt 0.510000 0.250000
vt 0.514612 0.296822
vt 0.528269 0.341844
vt 0.550447 0.383337
vt 0.580294 0.419706
vt 0.616663 0.449553
vt 0.658156 0.471731
vt 0.703178 0.485388
vt 0.611272 0.513728
vt 0.388728 0.513728
vt 0.368136 0.493136
vt 0.631864 0.493136
vt 0.368136 0.756864
vt 0.388728 0.736272
vt 0.631864 0.756864
vt 0.611272 0.736272
vt 0.374739 0.259237
vt 0.375000 0.000000
vt 0.388465 0.013465
vt 0.388465 0.236535
vt 0.625000 0.000000
vt 0.611535 0.013465
vt 0.625261 0.259237
vt 0.611535 0.236535
vt 0.138856 0.499609
vt 0.138856 0.750391
vt 0.625391 0.986144
vt 0.374609 0.986144
vt 0.861144 0.499609
vt 0.861144 0.750391
s 0
f 1/1/1 2/2/1 4/3/1 3/4/1
f 3/4/2 4/3/2 6/5/2 5/6/2
f 5/6/3 6/5/3 8/7/3 7/8/3
f 7/8/4 8/7/4 10/9/4 9/10/4
f 9/10/5 10/9/5 12/11/5 11/12/5
f 11/12/6 12/11/6 14/13/6 13/14/6
f 13/14/7 14/13/7 16/15/7 15/16/7
f 15/16/8 16/15/8 18/17/8 17/18/8
f 17/18/9 18/17/9 20/19/9 19/20/9
f 19/20/10 20/19/10 22/21/10 21/22/10
f 21/22/11 22/21/11 24/23/11 23/24/11
f 23/24/12 24/23/12 26/25/12 25/26/12
f 25/26/13 26/25/13 28/27/13 27/28/13
f 27/28/14 28/27/14 30/29/14 29/30/14
f 29/30/15 30/29/15 32/31/15 31/32/15
f 31/32/16 32/31/16 34/33/16 33/34/16
f 33/34/17 34/33/17 36/35/17 35/36/17
f 35/36/18 36/35/18 38/37/18 37/38/18
f 37/38/19 38/37/19 40/39/19 39/40/19
f 39/40/20 40/39/20 42/41/20 41/42/20
f 41/42/21 42/41/21 44/43/21 43/44/21
f 43/44/22 44/43/22 46/45/22 45/46/22
f 45/46/23 46/45/23 48/47/23 47/48/23
f 47/48/24 48/47/24 50/49/24 49/50/24
f 49/50/25 50/49/25 52/51/25 51/52/25
f 51/52/26 52/51/26 54/53/26 53/54/26
f 53/54/27 54/53/27 56/55/27 55/56/27
f 55/56/28 56/55/28 58/57/28 57/58/28
f 57/58/29 58/57/29 60/59/29 59/60/29
f 59/60/30 60/59/30 62/61/30 61/62/30
f 4/63/31 2/64/31 64/65/31 62/66/31 60/67/31 58/68/31 56/69/31 54/70/31 52/71/31 50/72/31 48/73/31 46/74/31 44/75/31 42/76/31 40/77/31 38/78/31 36/79/31 34/80/31 32/81/31 30/82/31 28/83/31 26/84/31 24/85/31 22/86/31 20/87/31 18/88/31 16/89/31 14/90/31 12/91/31 10/92/31 8/93/31 6/94/31
f 61/62/32 62/61/32 64/95/32 63/96/32
f 63/96/33 64/95/33 2/97/33 1/98/33
f 1/99/34 3/100/34 5/101/34 7/102/34 9/103/34 11/104/34 13/105/34 15/106/34 17/107/34 19/108/34 21/109/34 23/110/34 25/111/34 27/112/34 29/113/34 31/114/34 33/115/34 35/116/34 37/117/34 39/118/34 41/119/34 43/120/34 45/121/34 47/122/34 49/123/34 51/124/34 53/125/34 55/126/34 57/127/34 59/128/34 61/129/34 63/130/34
f 71/131/35 69/132/35 70/133/35 72/134/35
f 66/135/36 70/133/36 69/132/36 65/136/36
f 72/134/37 67/137/37 68/138/37 71/131/37
f 67/137/38 66/135/38 65/136/38 68/138/38
f 69/132/39 71/131/39 68/138/39 65/136/39
f 78/139/40 73/140/40 74/141/40 77/142/40
f 73/140/41 75/143/41 76/144/41 74/141/41
f 75/143/42 79/145/42 80/146/42 76/144/42
f 79/145/43 78/139/43 77/142/43 80/146/43
f 78/147/34 70/133/34 66/135/34 73/148/34
f 74/141/44 76/144/44 80/146/44 77/142/44
f 66/135/45 67/137/45 75/149/45 73/150/45
f 72/134/31 79/151/31 75/152/31 67/137/31
f 78/139/46 79/145/46 72/134/46 70/133/46