# Blender 5.0.0
# www.blender.org
mtllib HammerBody1.mtl
o Цилиндр.003
v -1.219024 15.000000 -0.326637
v -0.794219 15.000000 -0.980779
v -0.066049 15.000000 -1.260297
v 0.687349 15.000000 -1.058425
v 1.178204 15.000000 -0.452270
v 1.219024 15.000000 0.326637
v 0.794219 15.000000 0.980779
v 0.066050 15.000000 1.260297
v -0.687349 15.000000 1.058425
v -1.178204 15.000000 0.452269
v -0.629321 15.825001 -0.777146
v -0.052336 15.825001 -0.998630
v 0.544639 15.825001 -0.838671
v 0.933580 15.825001 -0.358368
v 0.965926 15.825001 0.258819
v 0.629320 15.825001 0.777146
v 0.052336 15.825001 0.998630
v -0.544639 15.825001 0.838670
v -0.933581 15.825001 0.358368
v -1.219024 15.825001 -0.326637
v -0.965926 15.825001 -0.258819
v -0.794219 15.825001 -0.980779
v -0.066049 15.825001 -1.260297
v 0.687349 15.825001 -1.058425
v 1.178203 15.825001 -0.452270
v 1.219024 15.825001 0.326637
v 0.794219 15.825001 0.980779
v 0.066049 15.825001 1.260297
v -0.687349 15.825001 1.058425
v -1.178204 15.825001 0.452269
v -1.117945 10.000000 -0.299553
v -0.728364 10.000000 -0.899455
v -0.060573 10.000000 -1.155796
v 0.630355 10.000000 -0.970662
v 1.080509 10.000000 -0.414769
v 1.117945 10.000000 0.299553
v 0.728364 10.000000 0.899455
v 0.060573 10.000000 1.155796
v -0.630356 10.000000 0.970662
v -1.080509 10.000000 0.414768
v -0.965926 9.175000 -0.258819
v -0.728364 9.175000 -0.899455
v -0.060573 9.175000 -1.155796
v 0.630355 9.175000 -0.970662
v 1.080509 9.175000 -0.414769
v 1.117945 9.175000 0.299553
v 0.728364 9.175000 0.899455
v 0.060573 9.175000 1.155796
v -0.630355 9.175000 0.970662
v -1.080509 9.175000 0.414768
v -0.933581 9.175000 0.358368
v -1.117945 9.175000 -0.299553
v -0.544639 9.175000 0.838670
v 0.052336 9.175000 0.998630
v 0.629320 9.175000 0.777146
v 0.965926 9.175000 0.258819
v 0.933581 9.175000 -0.358368
v 0.544639 9.175000 -0.838671
v -0.052336 9.175000 -0.998630
v -0.629320 9.175000 -0.777146
v -1.219024 -0.999999 -0.326637
v -0.794219 -0.999999 -0.980779
v -0.066049 -0.999999 -1.260297
v 0.687349 -0.999999 -1.058425
v 1.178204 -0.999999 -0.452270
v 1.219024 -0.999999 0.326637
v 0.794219 -0.999999 0.980779
v 0.066050 -0.999999 1.260297
v -0.687349 -0.999999 1.058425
v -1.178204 -0.999999 0.452269
v -0.629321 -0.174999 -0.777146
v -0.052336 -0.174999 -0.998630
v 0.544639 -0.174999 -0.838671
v 0.933580 -0.174999 -0.358368
v 0.965926 -0.174999 0.258819
v 0.629320 -0.174999 0.777146
v 0.052336 -0.174999 0.998630
v -0.544639 -0.174999 0.838670
v -0.933581 -0.174999 0.358368
v -1.219024 -0.174999 -0.326637
v -0.965926 -0.174999 -0.258819
v -0.794219 -0.174999 -0.980779
v -0.066049 -0.174999 -1.260297
v 0.687349 -0.174999 -1.058425
v 1.178203 -0.174999 -0.452270
v 1.219024 -0.174999 0.326637
v 0.794219 -0.174999 0.980779
v 0.066049 -0.174999 1.260297
v -0.687349 -0.174999 1.058425
v -1.178204 -0.174999 0.452269
vn -0.0000 -1.0000 -0.0000
vn -0.8387 -0.0000 -0.5446
vn -0.3584 -0.0000 -0.9336
vn 0.2588 -0.0000 -0.9659
vn 0.7771 -0.0000 -0.6293
vn 0.9986 -0.0000 -0.0523
vn 0.8387 -0.0000 0.5446
vn 0.3584 -0.0000 0.9336
vn -0.2588 -0.0000 0.9659
vn -0.7771 -0.0000 0.6293
vn -0.9986 -0.0000 0.0523
vn -0.0000 1.0000 -0.0000
vt 0.978254 0.175836
vt 0.521746 0.175836
vt 0.608932 0.444164
vt 1.000000 0.537500
vt 0.900000 0.500000
vt 1.000000 0.500000
vt 0.900000 0.537500
vt 0.800000 0.500000
vt 0.800000 0.537500
vt 0.700000 0.500000
vt 0.700000 0.537500
vt 0.600000 0.500000
vt 0.600000 0.537500
vt 0.500000 0.500000
vt 0.500000 0.537500
vt 0.400000 0.500000
vt 0.400000 0.537500
vt 0.300000 0.500000
vt 0.300000 0.537500
vt 0.200000 0.500000
vt 0.200000 0.537500
vt 0.100000 0.500000
vt 0.100000 0.537500
vt -0.000000 0.500000
vt -0.000000 0.537500
vt 1.000000 1.000000
vt 0.900000 0.962500
vt 1.000000 0.962500
vt 0.900000 1.000000
vt 0.800000 0.962500
vt 0.800000 1.000000
vt 0.700000 0.962500
vt 0.700000 1.000000
vt 0.600000 0.962500
vt 0.600000 1.000000
vt 0.500000 0.962500
vt 0.500000 1.000000
vt 0.400000 0.962500
vt 0.400000 1.000000
vt 0.300000 0.962500
vt 0.300000 1.000000
vt 0.200000 0.962500
vt 0.021746 0.324164
vt 0.391068 0.055836
vt 0.478254 0.324164
vt 0.200000 1.000000
vt 0.100000 0.962500
vt 0.100000 1.000000
vt -0.000000 0.962500
vt 0.750000 0.490000
vt 0.891068 0.444164
vt 0.978254 0.324164
vt 0.891068 0.055836
vt 0.750000 0.010000
vt 0.608932 0.055836
vt 0.521746 0.324164
vt 0.391068 0.444164
vt 0.250000 0.490000
vt 0.108932 0.444164
vt 0.021746 0.175836
vt 0.108932 0.055836
vt 0.250000 0.010000
vt 0.478254 0.175836
vt -0.000000 1.000000
s 1
usemtl Материал.008
f 4/1/1 8/2/1 10/3/1
f 20/4/2 2/5/2 1/6/2
f 22/7/3 3/8/3 2/5/3
f 23/9/4 4/10/4 3/8/4
f 24/11/5 5/12/5 4/10/5
f 25/13/6 6/14/6 5/12/6
f 26/15/7 7/16/7 6/14/7
f 27/17/8 8/18/8 7/16/8
f 28/19/9 9/20/9 8/18/9
f 29/21/10 10/22/10 9/20/10
f 30/23/11 1/24/11 10/22/11
f 20/4/12 11/7/12 22/7/12
f 23/9/12 11/7/12 12/9/12
f 23/9/12 13/11/12 24/11/12
f 25/13/12 13/11/12 14/13/12
f 26/15/12 14/13/12 15/15/12
f 26/15/12 16/17/12 27/17/12
f 27/17/12 17/19/12 28/19/12
f 28/19/12 18/21/12 29/21/12
f 29/21/12 19/23/12 30/23/12
f 20/25/12 19/23/12 21/25/12
f 17/19/12 13/11/12 11/7/12
f 10/3/1 1/50/1 2/51/1
f 2/51/1 3/52/1 4/1/1
f 4/1/1 5/53/1 6/54/1
f 6/54/1 7/55/1 8/2/1
f 8/2/1 9/56/1 10/3/1
f 10/3/1 2/51/1 4/1/1
f 4/1/1 6/54/1 8/2/1
f 20/4/2 22/7/2 2/5/2
f 22/7/3 23/9/3 3/8/3
f 23/9/4 24/11/4 4/10/4
f 24/11/5 25/13/5 5/12/5
f 25/13/6 26/15/6 6/14/6
f 26/15/7 27/17/7 7/16/7
f 27/17/8 28/19/8 8/18/8
f 28/19/9 29/21/9 9/20/9
f 29/21/10 30/23/10 10/22/10
f 30/23/11 20/25/11 1/24/11
f 20/4/12 21/4/12 11/7/12
f 23/9/12 22/7/12 11/7/12
f 23/9/12 12/9/12 13/11/12
f 25/13/12 24/11/12 13/11/12
f 26/15/12 25/13/12 14/13/12
f 26/15/12 15/15/12 16/17/12
f 27/17/12 16/17/12 17/19/12
f 28/19/12 17/19/12 18/21/12
f 29/21/12 18/21/12 19/23/12
f 20/25/12 30/23/12 19/23/12
f 11/7/12 21/25/12 19/23/12
f 19/23/12 18/21/12 17/19/12
f 17/19/12 16/17/12 15/15/12
f 15/15/12 14/13/12 13/11/12
f 13/11/12 12/9/12 11/7/12
f 11/7/12 19/23/12 17/19/12
f 17/19/12 15/15/12 13/11/12
usemtl Материал.006
f 31/26/2 42/27/2 52/28/2
f 32/29/3 43/30/3 42/27/3
f 33/31/4 44/32/4 43/30/4
f 34/33/5 45/34/5 44/32/5
f 35/35/6 46/36/6 45/34/6
f 36/37/7 47/38/7 46/36/7
f 37/39/8 48/40/8 47/38/8
f 38/41/9 49/42/9 48/40/9
f 39/43/12 35/44/12 33/45/12
f 39/46/10 50/47/10 49/42/10
f 40/48/11 52/49/11 50/47/11
f 50/47/1 41/49/1 51/47/1
f 50/47/1 53/42/1 49/42/1
f 49/42/1 54/40/1 48/40/1
f 48/40/1 55/38/1 47/38/1
f 47/38/1 56/36/1 46/36/1
f 46/36/1 57/34/1 45/34/1
f 45/34/1 58/32/1 44/32/1
f 43/30/1 58/32/1 59/30/1
f 43/30/1 60/27/1 42/27/1
f 42/27/1 41/28/1 52/28/1
f 59/30/1 55/38/1 53/42/1
f 64/1/1 68/2/1 70/3/1
f 80/4/2 62/5/2 61/6/2
f 82/7/3 63/8/3 62/5/3
f 83/9/4 64/10/4 63/8/4
f 84/11/5 65/12/5 64/10/5
f 85/13/6 66/14/6 65/12/6
f 86/15/7 67/16/7 66/14/7
f 87/17/8 68/18/8 67/16/8
f 88/19/9 69/20/9 68/18/9
f 89/21/10 70/22/10 69/20/10
f 90/23/11 61/24/11 70/22/11
f 80/4/12 71/7/12 82/7/12
f 83/9/12 71/7/12 72/9/12
f 83/9/12 73/11/12 84/11/12
f 84/11/12 74/13/12 85/13/12
f 86/15/12 74/13/12 75/15/12
f 86/15/12 76/17/12 87/17/12
f 88/19/12 76/17/12 77/19/12
f 88/19/12 78/21/12 89/21/12
f 89/21/12 79/23/12 90/23/12
f 80/25/12 79/23/12 81/25/12
f 77/19/12 73/11/12 71/7/12
f 31/26/2 32/29/2 42/27/2
f 32/29/3 33/31/3 43/30/3
f 33/31/4 34/33/4 44/32/4
f 34/33/5 35/35/5 45/34/5
f 35/35/6 36/37/6 46/36/6
f 36/37/7 37/39/7 47/38/7
f 37/39/8 38/41/8 48/40/8
f 38/41/9 39/46/9 49/42/9
f 33/45/12 32/57/12 31/58/12
f 31/58/12 40/59/12 39/43/12
f 39/43/12 38/60/12 37/61/12
f 37/61/12 36/62/12 35/44/12
f 35/44/12 34/63/12 33/45/12
f 33/45/12 31/58/12 39/43/12
f 39/43/12 37/61/12 35/44/12
f 39/46/10 40/48/10 50/47/10
f 40/48/11 31/64/11 52/49/11
f 50/47/1 52/49/1 41/49/1
f 50/47/1 51/47/1 53/42/1
f 49/42/1 53/42/1 54/40/1
f 48/40/1 54/40/1 55/38/1
f 47/38/1 55/38/1 56/36/1
f 46/36/1 56/36/1 57/34/1
f 45/34/1 57/34/1 58/32/1
f 43/30/1 44/32/1 58/32/1
f 43/30/1 59/30/1 60/27/1
f 42/27/1 60/27/1 41/28/1
f 53/42/1 51/47/1 41/28/1
f 41/28/1 60/27/1 59/30/1
f 59/30/1 58/32/1 57/34/1
f 57/34/1 56/36/1 55/38/1
f 55/38/1 54/40/1 53/42/1
f 53/42/1 41/28/1 59/30/1
f 59/30/1 57/34/1 55/38/1
f 70/3/1 61/50/1 62/51/1
f 62/51/1 63/52/1 64/1/1
f 64/1/1 65/53/1 66/54/1
f 66/54/1 67/55/1 68/2/1
f 68/2/1 69/56/1 70/3/1
f 70/3/1 62/51/1 64/1/1
f 64/1/1 66/54/1 68/2/1
f 80/4/2 82/7/2 62/5/2
f 82/7/3 83/9/3 63/8/3
f 83/9/4 84/11/4 64/10/4
f 84/11/5 85/13/5 65/12/5
f 85/13/6 86/15/6 66/14/6
f 86/15/7 87/17/7 67/16/7
f 87/17/8 88/19/8 68/18/8
f 88/19/9 89/21/9 69/20/9
f 89/21/10 90/23/10 70/22/10
f 90/23/11 80/25/11 61/24/11
f 80/4/12 81/4/12 71/7/12
f 83/9/12 82/7/12 71/7/12
f 83/9/12 72/9/12 73/11/12
f 84/11/12 73/11/12 74/13/12
f 86/15/12 85/13/12 74/13/12
f 86/15/12 75/15/12 76/17/12
f 88/19/12 87/17/12 76/17/12
f 88/19/12 77/19/12 78/21/12
f 89/21/12 78/21/12 79/23/12
f 80/25/12 90/23/12 79/23/12
f 71/7/12 81/25/12 79/23/12
f 79/23/12 78/21/12 77/19/12
f 77/19/12 76/17/12 75/15/12
f 75/15/12 74/13/12 73/11/12
f 73/11/12 72/9/12 71/7/12
f 71/7/12 79/23/12 77/19/12
f 77/19/12 75/15/12 73/11/12
