# Blender 5.0.0
# www.blender.org
mtllib HammerBody2.mtl
o Цилиндр
v 0.000000 4.500000 -1.000000
v 0.587785 4.500000 -0.809017
v 0.951057 4.500000 -0.309017
v 0.951056 4.500000 0.309017
v 0.587785 4.500000 0.809017
v -0.000000 4.500000 1.000000
v -0.587785 4.500000 0.809017
v -0.951056 4.500000 0.309017
v -0.951056 4.500000 -0.309017
v -0.587785 4.500000 -0.809017
v 0.000000 9.175000 -1.000001
v 0.587785 -0.175000 -0.809016
v 0.951057 -0.175000 -0.309016
v 0.951056 -0.175000 0.309018
v 0.587785 -0.175000 0.809018
v -0.000000 -0.175000 1.000001
v -0.587785 -0.175000 0.809018
v -0.951056 -0.175000 0.309018
v -0.951056 -0.175000 -0.309016
v -0.587785 -0.175000 -0.809016
v -0.587785 9.175000 -0.809018
v -0.951056 9.175000 -0.309018
v -0.951056 9.175000 0.309016
v -0.587785 9.175000 0.809016
v -0.000000 9.175000 0.999999
v 0.587785 9.175000 0.809016
v 0.951056 9.175000 0.309016
v 0.951057 9.175000 -0.309018
v 0.587785 9.175000 -0.809018
v 0.000000 -0.175000 -0.999999
vn -0.3090 -0.0000 -0.9511
vn -0.8090 -0.0000 -0.5878
vn -1.0000 -0.0000 -0.0000
vn -0.8090 -0.0000 0.5878
vn -0.3090 -0.0000 0.9511
vn 0.3090 -0.0000 0.9511
vn 0.8090 -0.0000 0.5878
vn 1.0000 -0.0000 -0.0000
vn 0.8090 -0.0000 -0.5878
vn 0.3090 -0.0000 -0.9511
vt 0.100000 0.750000
vt -0.000000 0.537500
vt 0.100000 0.537500
vt 0.200000 0.750000
vt 0.200000 0.537500
vt 0.300000 0.750000
vt 0.300000 0.537500
vt 0.400000 0.750000
vt 0.400000 0.537500
vt 0.500000 0.750000
vt 0.500000 0.537500
vt 0.600000 0.750000
vt 0.600000 0.537500
vt 0.700000 0.750000
vt 0.700000 0.537500
vt 0.800000 0.750000
vt 0.800000 0.537500
vt 0.900000 0.750000
vt 0.900000 0.537500
vt 1.000000 0.750000
vt 1.000000 0.537500
vt 0.100000 0.962500
vt -0.000000 0.750000
vt 0.200000 0.962500
vt 0.300000 0.962500
vt 0.400000 0.962500
vt 0.500000 0.962500
vt 0.600000 0.962500
vt 0.700000 0.962500
vt 0.800000 0.962500
vt 0.900000 0.962500
vt 1.000000 0.962500
vt -0.000000 0.962500
s 1
usemtl Материал.005
f 10/1/1 30/2/1 20/3/1
f 9/4/2 20/3/2 19/5/2
f 8/6/3 19/5/3 18/7/3
f 7/8/4 18/7/4 17/9/4
f 6/10/5 17/9/5 16/11/5
f 5/12/6 16/11/6 15/13/6
f 4/14/7 15/13/7 14/15/7
f 3/16/8 14/15/8 13/17/8
f 2/18/9 13/17/9 12/19/9
f 1/20/10 12/19/10 30/21/10
f 21/22/1 1/23/1 10/1/1
f 22/24/2 10/1/2 9/4/2
f 23/25/3 9/4/3 8/6/3
f 24/26/4 8/6/4 7/8/4
f 25/27/5 7/8/5 6/10/5
f 26/28/6 6/10/6 5/12/6
f 27/29/7 5/12/7 4/14/7
f 28/30/8 4/14/8 3/16/8
f 29/31/9 3/16/9 2/18/9
f 11/32/10 2/18/10 1/20/10
f 10/1/1 1/23/1 30/2/1
f 9/4/2 10/1/2 20/3/2
f 8/6/3 9/4/3 19/5/3
f 7/8/4 8/6/4 18/7/4
f 6/10/5 7/8/5 17/9/5
f 5/12/6 6/10/6 16/11/6
f 4/14/7 5/12/7 15/13/7
f 3/16/8 4/14/8 14/15/8
f 2/18/9 3/16/9 13/17/9
f 1/20/10 2/18/10 12/19/10
f 21/22/1 11/33/1 1/23/1
f 22/24/2 21/22/2 10/1/2
f 23/25/3 22/24/3 9/4/3
f 24/26/4 23/25/4 8/6/4
f 25/27/5 24/26/5 7/8/5
f 26/28/6 25/27/6 6/10/6
f 27/29/7 26/28/7 5/12/7
f 28/30/8 27/29/8 4/14/8
f 29/31/9 28/30/9 3/16/9
f 11/32/10 29/31/10 2/18/10
