# Blender 5.0.0
# www.blender.org
mtllib Heart.mtl
o Crystal_Heart
v -0.289264 0.778216 -0.242683
v 0.325296 0.502148 -0.025141
v 0.482620 0.671387 0.038171
v -0.352903 1.286281 0.126670
v -0.002926 1.189779 -0.002138
v -0.167419 1.329121 0.020360
v 0.287562 0.771464 0.232829
v 0.106851 0.999171 -0.259611
v 0.244252 1.301136 0.129492
v 0.360280 0.646239 -0.169849
v -0.569679 1.073755 -0.077185
v -0.376764 0.656712 0.158309
v -0.323103 1.143837 -0.197180
v -0.259837 1.032645 0.230553
v 0.455339 0.743489 -0.159456
v -0.256096 0.449592 0.014610
v 0.096413 1.234705 -0.153196
v -0.194516 0.779156 0.250906
v -0.433207 0.650123 -0.111123
v 0.352132 1.138147 0.193244
v -0.223097 0.712917 -0.244354
v -0.039407 1.181051 -0.180795
v -0.465795 0.647949 0.039961
v 0.343802 1.185706 -0.180822
v -0.061337 0.364430 0.071901
v -0.158291 1.247921 -0.158624
v 0.549327 1.031272 0.105213
v -0.375908 1.313382 -0.054841
v 0.184480 0.430255 0.089786
v -0.298527 0.983952 -0.239434
v 0.553761 1.046518 -0.100002
v -0.573850 0.884613 -0.025806
v 0.225661 0.751805 -0.252045
v 0.422988 1.197343 0.151751
v 0.128089 0.422336 -0.115467
v 0.159805 1.303555 0.079333
v -0.093130 0.628186 0.228271
v 0.295468 1.333430 -0.047640
v -0.384184 1.088375 -0.207441
v 0.046626 0.339625 0.002802
v -0.078218 0.377351 -0.096380
v 0.433687 0.829392 0.181576
v -0.270445 0.532024 -0.146994
v -0.462921 1.091936 0.163951
v 0.464629 0.872848 -0.173155
v -0.479769 1.261811 0.003812
v -0.316950 0.530765 0.115698
v -0.164872 1.313520 0.086246
v -0.047672 1.189532 0.183068
v -0.575471 1.016232 0.040414
v 0.121026 0.975131 0.254722
v -0.477521 1.260240 -0.037679
v 0.154659 0.495225 0.162584
v 0.460961 1.147357 -0.144851
v 0.310639 0.516021 -0.096966
v -0.493314 0.817965 -0.152049
v 0.343049 1.003665 -0.228701
v 0.433713 1.245889 0.126846
v -0.473224 0.749223 -0.146961
v -0.027331 0.948843 0.258029
v 0.565817 0.860558 0.018157
v -0.021981 0.512832 -0.193989
v 0.406305 0.608191 0.077676
v 0.082888 0.690552 -0.255593
v 0.369640 1.307305 0.089284
v -0.419801 0.986602 0.180763
v 0.375039 0.940831 0.212004
v 0.094541 1.258482 -0.112419
v 0.542156 1.119132 -0.040251
v -0.120588 0.421695 0.121795
v -0.472973 1.236281 0.087661
v 0.527002 1.158842 0.048285
v -0.095322 1.250781 -0.137797
v 0.476596 0.671902 -0.063524
v 0.177458 0.626405 0.216590
v -0.468797 1.103900 -0.163607
v 0.427044 1.260701 -0.106284
v -0.506568 0.773388 0.132134
v -0.429980 1.205363 -0.145792
v 0.031046 0.400572 0.135100
v 0.485245 1.218069 -0.070928
v -0.160990 0.406490 -0.083111
v -0.544803 1.140298 0.042893
v -0.558996 0.821979 -0.057786
v 0.485853 1.058125 -0.158338
v 0.346593 0.775772 0.217106
v 0.205579 0.421425 -0.025949
v 0.269330 1.307978 -0.102679
v 0.043761 1.096149 0.221925
v -0.092937 0.445424 -0.153825
v 0.000241 1.120824 -0.213879
v -0.270107 0.950401 0.233499
v -0.010569 0.413743 -0.136240
v 0.567092 1.080368 0.052923
v -0.392733 1.118167 0.180311
v 0.245378 1.082657 -0.228216
v 0.322509 0.595737 0.155516
v -0.102939 1.234273 0.161609
v -0.252648 0.467865 -0.081608
v 0.237980 0.959331 -0.252724
v -0.555261 0.966483 -0.098667
v -0.072268 1.252157 -0.002835
v -0.123847 0.371750 0.013381
v -0.408928 0.824638 -0.206741
v -0.252283 1.315097 0.104530
v 0.008357 0.584059 0.218858
v -0.491737 1.203061 -0.097202
v -0.387853 0.724157 -0.196475
v 0.363683 0.767681 -0.213252
v -0.465209 0.670326 0.095858
v -0.369634 1.242163 -0.155605
v 0.083243 1.262373 0.025157
v -0.356766 0.540082 0.048243
v 0.415309 0.727512 -0.182025
v -0.223808 1.292605 -0.130266
v -0.510153 0.709117 -0.041121
v 0.495667 0.680125 -0.020888
v -0.407612 1.277741 0.099361
v 0.195426 1.259517 -0.152361
v 0.353121 1.238421 0.154616
v -0.552280 1.040837 0.105719
v -0.417605 1.004316 -0.203088
v -0.187993 1.319664 -0.075402
v -0.193442 1.093309 0.220926
v -0.573495 1.074399 -0.020880
v 0.288691 0.496636 0.077391
v 0.266243 1.327157 -0.070511
v 0.174585 0.399993 0.018903
v -0.562668 0.862661 0.049927
v -0.157828 0.405674 0.079408
v 0.416656 1.208369 -0.146401
v 0.154891 0.408438 -0.089496
v 0.034267 1.192998 -0.158545
v 0.304728 1.049794 -0.231433
v 0.370595 0.583560 -0.112493
v 0.401686 1.293861 0.069087
v 0.010770 0.345260 0.065887
v 0.541173 0.753316 -0.002865
v 0.462807 1.234579 0.108140
v -0.218164 0.930032 -0.256460
v 0.494479 0.933326 -0.155560
v 0.151435 1.248828 0.153906
v 0.541300 0.875942 0.100271
v -0.317873 0.514193 0.083189
v 0.568701 0.897652 -0.026519
v 0.080613 1.224005 0.163083
v 0.074545 1.240935 0.113468
v -0.171007 0.977618 0.250576
v 0.570982 0.939847 0.021279
v -0.070303 0.693048 -0.256109
v -0.420206 1.187327 0.152762
v -0.032586 0.349585 -0.067188
v -0.213938 0.787287 -0.257854
v -0.048550 0.408160 0.135351
v -0.348014 0.567802 -0.113413
v -0.288364 1.248313 0.153644
v -0.135335 0.609819 -0.222234
v -0.023933 1.022531 -0.253067
v -0.317517 1.324197 -0.087533
v -0.192709 0.710324 0.238078
v -0.490367 1.245593 0.035436
v -0.516307 0.963047 -0.138935
v -0.240862 1.314890 -0.104865
v -0.448587 1.168638 0.148129
v -0.040696 1.203260 0.146740
v 0.427710 1.005015 -0.195140
v -0.356955 1.287661 -0.117774
v -0.169892 0.388841 -0.012515
v -0.495879 1.054812 0.149765
v -0.314770 1.277915 -0.142831
v -0.268819 0.769320 0.231207
v 0.322999 0.855359 0.227246
v 0.290019 0.797957 -0.243466
v 0.159237 1.298484 -0.059356
v 0.460220 1.238915 -0.095773
v -0.544096 1.115357 0.078228
v 0.534157 0.914144 -0.103818
v 0.118636 1.283970 0.078864
v -0.234242 1.338530 -0.000327
v 0.530168 0.827171 -0.102825
v 0.251614 0.507898 -0.127862
v -0.202545 1.337433 -0.015144
v 0.094795 0.384757 -0.091958
v 0.518128 0.766274 -0.091194
v -0.429739 0.700138 -0.164426
v -0.016740 0.368057 -0.102445
v 0.281661 1.331094 0.016466
v 0.467094 0.952212 0.167951
v 0.151402 0.460701 0.137088
v 0.018480 0.612825 -0.233075
v -0.549543 0.873665 -0.098128
v 0.534385 1.076542 0.118374
v -0.028223 0.647805 0.235293
v -0.504668 1.042070 -0.146748
v 0.314087 1.321380 0.092135
v 0.116747 0.654238 0.230731
v 0.570697 1.049248 -0.050496
v -0.076992 0.658701 -0.248462
v -0.577659 0.901940 0.002907
v 0.350336 1.310127 -0.092731
v 0.578810 1.035627 -0.018818
v 0.350945 0.520654 0.000204
v 0.267860 1.227364 -0.167542
v -0.578504 1.035413 -0.041560
v 0.091565 0.378787 0.070484
v 0.514706 0.898352 0.140790
v -0.475392 0.833150 0.158806
v -0.133548 1.290076 -0.096050
v 0.261806 0.690088 0.220705
v -0.447265 1.281068 0.026058
v -0.546925 0.783812 -0.050867
v 0.024541 0.430228 0.153380
v 0.347354 1.238567 -0.154079
v 0.490563 1.217354 0.061275
v 0.429474 0.700998 -0.161695
v -0.255735 0.723212 0.225675
v 0.357089 0.578029 0.109852
v -0.484797 0.694607 -0.090253
v -0.015542 0.431742 0.157494
v 0.400784 1.289762 -0.091268
v 0.326509 0.502661 0.019352
v -0.532112 1.130567 -0.093538
v 0.542141 1.085772 0.108126
v 0.097174 0.358106 -0.001496
v -0.207444 1.023466 0.242272
v 0.066470 1.184693 -0.189911
v 0.050654 0.404358 -0.125018
v 0.217384 0.787102 -0.256615
v -0.391658 0.647524 -0.154561
v 0.198840 1.058972 0.235216
v 0.343713 0.723359 0.209638
v -0.119389 1.248425 -0.151704
v 0.352947 0.682299 -0.188803
v 0.035829 1.145184 -0.204854
v -0.004881 1.157088 0.197600
v -0.336789 1.325778 -0.069591
v 0.544188 0.805792 -0.076682
v 0.243215 1.156112 0.192039
v 0.173161 0.981204 -0.259035
v -0.175711 0.856298 0.256570
v 0.551678 0.836840 -0.066010
v 0.322207 1.321650 -0.085318
v -0.190531 0.909802 0.253496
v 0.554218 0.809904 0.047847
v 0.467669 1.238112 0.091401
v -0.029831 1.019204 0.245271
v -0.380154 1.057105 -0.214228
v 0.052871 1.237149 -0.019628
v -0.103804 0.361430 -0.012519
v -0.489478 1.198746 0.102904
v -0.166218 0.390533 0.018889
v -0.518425 1.150010 0.096241
v 0.216479 1.300986 0.128746
v -0.202149 0.437488 -0.092637
v -0.559923 1.040051 0.092622
v -0.195147 0.455575 0.115639
v 0.135311 1.236937 -0.164914
v 0.158648 0.396529 -0.046276
v 0.513863 0.702559 -0.002904
v -0.227716 0.428239 -0.013238
v -0.260421 1.285890 -0.140884
v -0.124515 0.462073 -0.156820
v 0.342389 1.318301 0.086999
v 0.187076 1.147313 -0.203424
v -0.352149 1.276310 0.133985
v 0.157372 1.074685 -0.236892
v 0.330730 1.100435 0.208654
v -0.402438 1.268656 -0.109127
v 0.058916 1.204790 -0.168618
v -0.049072 1.209340 -0.155559
v 0.123356 0.430563 0.119232
v -0.265191 1.190637 0.176771
v -0.572938 0.953875 0.035173
v -0.160449 1.296131 0.117216
v 0.265875 0.562603 0.160595
v 0.484871 1.020882 -0.165552
v -0.125088 1.280795 0.103212
v -0.349975 0.726207 -0.214103
v 0.525064 0.986136 0.136746
v 0.492737 0.779579 -0.133939
v -0.135028 1.307584 -0.000605
v 0.111018 1.273414 -0.080923
v 0.557808 1.072383 0.089980
v 0.500630 1.144981 -0.106018
v 0.227423 1.321919 -0.041322
v -0.445595 1.275120 -0.058446
v 0.557221 0.808974 0.037950
v -0.544672 0.803105 -0.078636
v 0.116314 0.628597 0.224771
v 0.054057 1.222147 -0.130712
v -0.483629 1.244671 -0.061811
v -0.391416 0.800186 -0.212148
v 0.201274 1.310794 -0.070187
v -0.570546 0.866467 0.026075
v -0.122369 0.665627 -0.246907
v -0.577328 0.964702 -0.020505
v -0.006650 0.396479 0.133894
v -0.310273 0.996331 0.221028
v 0.318376 0.583368 -0.148801
v -0.002822 1.166116 0.187444
v 0.515245 0.978021 -0.135115
v -0.188628 1.246122 0.153999
v -0.363934 0.795133 0.196924
v -0.029119 0.608135 0.226801
v -0.183687 0.942029 -0.259827
v 0.380763 0.775853 0.203428
v -0.002681 1.167332 -0.182526
v 0.408144 1.229231 -0.139886
v 0.042865 0.339553 -0.014237
v 0.444712 0.839903 -0.183509
v -0.568876 0.847676 -0.010674
v -0.486341 1.071385 -0.159427
v 0.259238 0.734925 0.231885
v 0.280738 0.735969 -0.231142
v 0.276486 0.822181 0.237858
v 0.058854 1.222421 0.156311
v 0.250147 0.475688 -0.098400
v 0.073889 0.441161 0.148596
v 0.198639 0.943474 -0.258911
vn -0.3360 -0.0186 0.9417
vn -0.3362 -0.0186 0.9416
vn -0.3293 -0.0164 0.9441
vn 0.0099 0.5889 0.8081
vn 0.0088 0.5905 0.8070
vn 0.0098 0.5890 0.8081
vn 0.2062 -0.4254 -0.8812
vn 0.2052 -0.4257 -0.8813
vn 0.2059 -0.4259 -0.8810
vn -0.3737 -0.4388 -0.8172
vn 0.4099 -0.0332 0.9115
vn -0.6359 0.7639 -0.1100
vn -0.6361 0.7637 -0.1099
vn -0.6363 0.7635 -0.1099
vn -0.5433 -0.0092 -0.8395
vn -0.5422 -0.0098 -0.8402
vn -0.5432 -0.0095 -0.8396
vn -0.0003 -0.0141 -0.9999
vn -0.0007 -0.0145 -0.9999
vn 0.0028 -0.0133 -0.9999
vn 0.6933 -0.6710 0.2628
vn 0.6925 -0.6714 0.2638
vn 0.6952 -0.6701 0.2604
vn -0.3601 -0.8921 0.2730
vn -0.3600 -0.8921 0.2731
vn -0.0818 0.2435 -0.9664
vn -0.0828 0.2429 -0.9665
vn -0.0827 0.2429 -0.9665
vn 0.6376 0.7646 -0.0943
vn 0.4150 0.1340 0.8999
vn 0.4149 0.1339 0.8999
vn 0.4147 0.1330 0.9002
vn 0.3505 0.2369 -0.9061
vn 0.3519 0.2363 -0.9057
vn 0.3561 0.2363 -0.9041
vn 0.6807 -0.5459 -0.4885
vn 0.8906 0.4520 -0.0503
vn -0.8890 0.4531 -0.0663
vn -0.8890 0.4529 -0.0678
vn -0.8884 0.4542 -0.0663
vn -0.3457 0.0083 0.9383
vn -0.9541 0.2348 0.1860
vn -0.9556 0.2344 0.1785
vn -0.9557 0.2332 0.1795
vn -0.6880 -0.7082 -0.1586
vn -0.6878 -0.7084 -0.1586
vn -0.6885 -0.7077 -0.1587
vn 0.3472 0.6876 -0.6377
vn -0.2357 0.9564 0.1727
vn -0.2361 0.9562 0.1728
vn -0.2360 0.9564 0.1721
vn -0.0195 0.4016 0.9156
vn -0.0231 0.4067 0.9133
vn -0.0187 0.4016 0.9156
vn 0.0218 0.3987 0.9168
vn 0.0225 0.3983 0.9170
vn 0.0212 0.3981 0.9171
vn 0.7349 -0.4675 -0.4913
vn 0.3690 -0.0297 -0.9290
vn 0.3684 -0.0304 -0.9292
vn 0.3683 -0.0278 -0.9293
vn -0.1427 -0.9897 0.0143
vn -0.1414 -0.9899 0.0139
vn -0.1510 -0.9884 0.0171
vn 0.2067 -0.4251 -0.8812
vn 0.2025 -0.4259 -0.8819
vn -0.3528 0.7787 0.5189
vn 0.8737 0.4819 -0.0666
vn 0.0346 -0.0750 0.9966
vn 0.0344 -0.0750 0.9966
vn 0.4110 -0.8577 0.3088
vn -0.7204 0.0418 -0.6923
vn -0.7172 0.0374 -0.6958
vn -0.7168 0.0368 -0.6963
vn -0.9484 -0.0612 -0.3111
vn -0.9480 -0.0611 -0.3123
vn -0.9488 -0.0667 -0.3088
vn -0.0084 0.3771 0.9261
vn 0.0327 -0.0787 0.9964
vn 0.0369 -0.0754 0.9965
vn -0.2520 -0.4067 -0.8781
vn -0.2550 -0.4057 -0.8777
vn -0.2527 -0.4058 -0.8783
vn 0.0033 -0.0134 -0.9999
vn -0.0248 0.3776 -0.9256
vn -0.0212 0.3755 -0.9266
vn -0.0236 0.3720 -0.9279
vn -0.0281 0.3731 -0.9274
vn -0.0283 0.3727 -0.9275
vn -0.0259 0.3781 -0.9254
vn -0.8905 -0.4193 0.1767
vn -0.8912 -0.4184 0.1755
vn -0.8923 -0.4170 0.1731
vn -0.2567 -0.4167 0.8721
vn -0.2564 -0.4168 0.8721
vn -0.2570 -0.4151 0.8727
vn 0.0107 0.4000 -0.9165
vn 0.3744 0.9269 -0.0257
vn 0.3730 0.9275 -0.0253
vn 0.3748 0.9268 -0.0226
vn 0.1064 -0.3799 0.9189
vn 0.1088 -0.3808 0.9182
vn 0.1069 -0.3801 0.9187
vn -0.2575 -0.4161 0.8721
vn -0.2572 -0.4144 0.8730
vn -0.0209 0.3762 -0.9263
vn -0.6389 0.3205 -0.6993
vn 0.9858 -0.0104 0.1675
vn 0.6583 -0.3829 0.6481
vn 0.6564 -0.3870 0.6475
vn 0.6557 -0.3854 0.6492
vn -0.0888 0.7617 -0.6419
vn 0.0597 0.9618 -0.2672
vn 0.0617 0.9615 -0.2679
vn 0.0567 0.9623 -0.2660
vn 0.6562 -0.3862 0.6482
vn 0.2610 -0.4049 0.8763
vn 0.2623 -0.4054 0.8757
vn 0.2635 -0.4059 0.8751
vn -0.2879 0.0030 -0.9577
vn -0.2908 0.0052 -0.9568
vn -0.2911 0.0051 -0.9567
vn 0.0032 -0.0135 -0.9999
vn 0.0034 -0.0134 -0.9999
vn 0.6519 0.2879 -0.7016
vn 0.9477 -0.0620 -0.3130
vn 0.9458 -0.0614 -0.3190
vn 0.9472 -0.0618 -0.3148
vn -0.8927 -0.4162 0.1729
vn -0.8926 -0.4163 0.1731
vn -0.6116 -0.0243 0.7908
vn -0.6166 -0.0272 0.7868
vn -0.6132 -0.0252 0.7895
vn 0.2052 -0.4267 -0.8808
vn 0.2055 -0.4228 -0.8826
vn 0.4394 -0.1267 -0.8893
vn 0.0173 0.3959 0.9181
vn 0.0173 0.3958 0.9182
vn 0.0162 0.3959 0.9182
vn 0.3753 0.9267 -0.0221
vn 0.4392 -0.5791 -0.6868
vn 0.5398 -0.7979 0.2683
vn 0.5392 -0.7991 0.2659
vn 0.5393 -0.7990 0.2662
vn -0.1276 0.9754 0.1799
vn -0.4814 0.8758 -0.0349
vn -0.2572 -0.4164 0.8720
vn 0.0309 -0.0798 0.9963
vn 0.0300 -0.0805 0.9963
vn -0.3344 0.9022 -0.2724
vn 0.0806 0.6468 -0.7584
vn -0.0811 0.2430 -0.9666
vn -0.0807 0.2431 -0.9666
vn -0.5867 0.3525 -0.7290
vn 0.1668 -0.8997 -0.4034
vn 0.1726 -0.8972 -0.4065
vn 0.1631 -0.9012 -0.4015
vn 0.5400 -0.7987 -0.2654
vn 0.5392 -0.7988 -0.2668
vn 0.5390 -0.7989 -0.2668
vn -0.1512 -0.9884 0.0172
vn -0.6886 -0.7076 -0.1586
vn -0.6886 -0.7075 -0.1589
vn 0.4334 -0.0179 0.9010
vn 0.8188 -0.0605 0.5709
vn -0.2542 -0.4070 -0.8773
vn -0.2543 -0.4069 -0.8774
vn -0.3620 -0.8893 -0.2793
vn -0.3583 -0.8911 -0.2785
vn -0.3604 -0.8901 -0.2789
vn -0.6335 0.2597 0.7288
vn -0.1530 0.3128 0.9374
vn -0.1522 0.3134 0.9373
vn -0.1509 0.3148 0.9371
vn 0.5303 -0.1497 -0.8345
vn 0.7563 -0.0933 -0.6475
vn -0.2378 0.9559 0.1721
vn -0.2375 0.9560 0.1721
vn -0.4501 0.4994 0.7403
vn -0.4499 0.4997 0.7402
vn -0.4480 0.5041 0.7383
vn -0.5518 -0.4903 0.6746
vn -0.6346 -0.7594 0.1437
vn 0.6398 0.7601 0.1134
vn -0.2368 0.9558 0.1743
vn 0.6648 0.7401 0.1016
vn -0.6435 0.7559 0.1201
vn -0.9956 0.0372 0.0857
vn -0.8694 -0.1008 0.4838
vn 0.0041 0.2230 0.9748
vn 0.1767 0.0657 0.9821
vn 0.1746 0.0691 0.9822
vn 0.1745 0.0690 0.9822
vn -0.4114 0.7918 -0.4513
vn -0.4125 0.7917 -0.4507
vn -0.4177 0.7903 -0.4483
vn -0.4743 0.8777 -0.0681
vn -0.4770 0.8757 -0.0746
vn -0.4766 0.8760 -0.0737
vn 0.3408 -0.7469 0.5710
vn -0.2547 -0.7715 0.5830
vn 0.3560 0.2349 -0.9045
vn 0.2724 0.6238 -0.7326
vn 0.2691 0.6213 -0.7359
vn 0.2674 0.6207 -0.7370
vn 0.5392 -0.7989 -0.2664
vn 0.5404 -0.7988 -0.2646
vn 0.6878 -0.6735 -0.2710
vn 0.6880 -0.6733 -0.2708
vn 0.6871 -0.6738 -0.2717
vn -0.9488 -0.0674 -0.3087
vn -0.5952 -0.6011 -0.5333
vn 0.2172 0.0141 -0.9760
vn 0.1234 0.3150 -0.9411
vn 0.2002 0.6542 0.7293
vn 0.2034 0.6481 0.7339
vn 0.1929 0.6505 0.7346
vn 0.5510 0.2813 0.7856
vn -0.7635 -0.2667 -0.5881
vn -0.5229 -0.1946 -0.8299
vn -0.5226 -0.1948 -0.8301
vn -0.5263 -0.1948 -0.8277
vn -0.0125 0.1715 0.9851
vn -0.0153 0.1779 0.9839
vn -0.0096 0.1781 0.9840
vn -0.2750 0.1321 0.9523
vn -0.2744 0.1326 0.9524
vn -0.2728 0.1337 0.9527
vn 0.6549 -0.3840 0.6509
vn 0.9740 -0.2004 -0.1054
vn 0.9734 -0.2037 -0.1050
vn 0.9735 -0.2031 -0.1051
vn 0.1715 -0.7299 -0.6617
vn -0.3398 -0.6585 -0.6715
vn -0.3397 -0.6583 -0.6717
vn -0.3415 -0.6623 -0.6668
vn 0.6446 -0.6803 0.3488
vn 0.6444 -0.6804 0.3489
vn 0.6442 -0.6806 0.3491
vn 0.3619 -0.5757 0.7333
vn -0.0208 -0.3567 -0.9340
vn 0.2030 0.6526 0.7300
vn 0.2043 0.6484 0.7333
vn -0.1287 0.9717 0.1981
vn -0.3784 -0.2085 0.9019
vn -0.3774 -0.2109 0.9017
vn -0.3819 -0.2158 0.8987
vn -0.5572 -0.4656 0.6876
vn 0.1770 0.0648 0.9821
vn 0.4147 0.1333 0.9001
vn 0.4147 0.1340 0.9000
vn -0.2108 0.8323 -0.5127
vn -0.2079 0.8370 -0.5061
vn -0.2017 0.8413 -0.5016
vn -0.4682 0.7538 -0.4610
vn 0.8616 0.3980 -0.3150
vn 0.8616 0.3980 -0.3151
vn 0.8612 0.3976 -0.3165
vn 0.9454 -0.0613 -0.3200
vn -0.2571 -0.4141 0.8732
vn -0.5353 -0.7990 0.2741
vn -0.5354 -0.7990 0.2739
vn -0.5374 -0.7991 0.2695
vn -0.5477 0.7730 0.3202
vn -0.8894 0.4525 -0.0656
vn 0.6506 0.7590 -0.0226
vn 0.6527 0.7573 -0.0195
vn 0.6500 0.7596 -0.0232
vn 0.8337 0.4437 0.3287
vn 0.8334 0.4420 0.3317
vn 0.8324 0.4442 0.3313
vn 0.6656 0.7387 -0.1060
vn 0.6566 0.7462 -0.1095
vn 0.6648 0.7395 -0.1063
vn 0.0627 0.9613 -0.2683
vn 0.7145 -0.6735 -0.1897
vn 0.8428 -0.4547 -0.2879
vn 0.8422 -0.4553 -0.2889
vn 0.8429 -0.4547 -0.2876
vn 0.1214 -0.2275 0.9662
vn 0.1205 -0.2267 0.9665
vn 0.1208 -0.2270 0.9664
vn 0.2810 -0.4019 0.8715
vn -0.3939 0.3031 -0.8677
vn -0.5423 -0.0091 -0.8402
vn 0.2729 0.6242 -0.7320
vn 0.6495 0.7602 -0.0173
vn -0.3787 -0.2053 0.9025
vn -0.6182 -0.0281 0.7855
vn -0.1411 0.3282 -0.9340
vn -0.0233 0.3696 -0.9289
vn 0.1341 -0.3971 0.9079
vn 0.2620 -0.5892 0.7643
vn 0.5245 0.4500 -0.7228
vn 0.6721 0.3219 -0.6669
vn -0.3549 -0.6453 -0.6765
vn -0.5344 -0.5999 -0.5954
vn -0.8297 0.4519 0.3276
vn -0.8309 0.4492 0.3285
vn -0.8305 0.4524 0.3250
vn -0.7712 0.2721 0.5755
vn -0.7726 -0.3712 -0.5151
vn 0.6932 -0.0204 -0.7205
vn 0.3688 -0.0275 -0.9291
vn 0.3198 -0.0258 0.9471
vn 0.2194 -0.2242 0.9495
vn 0.3602 -0.8922 -0.2723
vn 0.3661 -0.8891 -0.2746
vn 0.3619 -0.8903 -0.2765
vn 0.3981 -0.8730 0.2818
vn -0.2096 0.8335 -0.5112
vn 0.3731 0.9274 -0.0252
vn 0.1778 0.0634 0.9820
vn 0.0488 0.3586 0.9322
vn 0.0482 0.3549 0.9337
vn 0.0481 0.3544 0.9338
vn -0.0544 -0.5891 -0.8063
vn -0.1263 -0.4073 -0.9045
vn -0.1250 -0.4093 -0.9038
vn -0.1271 -0.4060 -0.9050
vn 0.1795 0.5618 -0.8076
vn 0.1722 0.5589 -0.8111
vn 0.1779 0.5612 -0.8084
vn -0.5303 0.5808 -0.6176
vn -0.2136 0.0616 0.9750
vn -0.2076 0.0652 0.9760
vn -0.2132 0.0619 0.9751
vn -0.2503 -0.0143 0.9681
vn -0.2505 -0.0140 0.9680
vn -0.2504 -0.0140 0.9680
vn -0.0096 -0.5043 -0.8635
vn 0.2011 -0.4261 -0.8820
vn 0.8319 0.4444 0.3322
vn 0.8318 0.4446 0.3324
vn 0.9710 -0.0266 0.2375
vn -0.2722 0.1342 0.9528
vn -0.3127 0.2476 0.9170
vn -0.3113 0.2471 0.9176
vn -0.3123 0.2474 0.9172
vn -0.0014 -0.0148 -0.9999
vn 0.6579 -0.3844 0.6476
vn 0.6584 -0.3839 0.6474
vn 0.4731 -0.6393 0.6062
vn 0.4776 -0.6386 0.6034
vn 0.4743 -0.6391 0.6054
vn 0.4829 0.7649 0.4262
vn -0.0253 0.4062 0.9135
vn -0.5390 -0.7984 -0.2683
vn -0.5392 -0.7983 -0.2684
vn -0.5401 -0.7980 -0.2674
vn -0.5206 -0.6760 -0.5216
vn 0.0739 0.2417 -0.9675
vn 0.0745 0.2344 -0.9693
vn 0.0753 0.2419 -0.9674
vn 0.0751 0.2317 -0.9699
vn -0.7197 -0.0513 -0.6924
vn -0.7164 -0.0487 -0.6960
vn -0.7200 -0.0515 -0.6921
vn -0.7789 -0.2164 -0.5887
vn 0.4276 0.8898 -0.1591
vn 0.4264 0.8906 -0.1581
vn 0.4275 0.8899 -0.1590
vn 0.6159 0.7716 0.1589
vn -0.3690 -0.8897 -0.2689
vn -0.2859 0.0023 -0.9582
vn -0.2895 0.0042 -0.9572
vn -0.2483 -0.2275 -0.9416
vn 0.0098 0.5889 0.8082
vn 0.0657 0.9714 0.2280
vn 0.0653 0.9714 0.2283
vn 0.0663 0.9715 0.2275
vn -0.0948 -0.3704 0.9240
vn -0.0513 -0.1817 0.9820
vn -0.0518 -0.1820 0.9819
vn -0.0544 -0.1837 0.9815
vn -0.8265 0.4465 -0.3429
vn -0.8306 0.4457 -0.3337
vn -0.8293 0.4460 -0.3366
vn -0.5261 0.6081 -0.5945
vn -0.5266 -0.1950 -0.8275
vn -0.3127 -0.1504 -0.9379
vn 0.3086 -0.2975 -0.9035
vn 0.3135 -0.2976 -0.9017
vn 0.3137 -0.2976 -0.9017
vn 0.1780 0.0009 -0.9840
vn -0.6881 -0.6742 0.2684
vn -0.6878 -0.6718 0.2750
vn -0.6878 -0.6714 0.2760
vn -0.8902 -0.4197 0.1773
vn -0.3437 0.3290 -0.8796
vn -0.5143 0.5863 -0.6259
vn -0.6599 0.7442 0.1040
vn -0.6612 0.7443 -0.0935
vn -0.6882 -0.6752 0.2657
vn 0.3138 -0.2976 -0.9016
vn 0.5042 -0.5364 -0.6768
vn 0.2310 0.8075 -0.5428
vn 0.2320 0.8098 -0.5389
vn 0.2321 0.8099 -0.5388
vn -0.0221 0.3729 -0.9276
vn -0.0218 0.3746 -0.9269
vn -0.8398 -0.4526 -0.2998
vn -0.6875 -0.7087 -0.1585
vn 0.7455 -0.6631 0.0666
vn 0.7469 -0.6616 0.0671
vn 0.7432 -0.6658 0.0657
vn 0.8411 -0.4534 0.2949
vn 0.8410 -0.4556 0.2917
vn 0.8398 -0.4546 0.2969
vn -0.4482 0.5034 0.7387
vn 0.0152 0.4547 -0.8905
vn -0.2008 0.8416 -0.5014
vn 0.2669 0.3926 0.8801
vn 0.2411 0.3468 0.9064
vn -0.9557 0.2348 0.1775
vn -0.9490 -0.0616 0.3093
vn -0.9512 -0.0581 0.3031
vn -0.9510 -0.0588 0.3036
vn -0.2912 0.0047 -0.9567
vn -0.4416 0.1252 -0.8884
vn -0.4379 0.1277 -0.8899
vn -0.4376 0.1279 -0.8900
vn 0.4250 0.8915 -0.1569
vn 0.2324 0.8035 -0.5480
vn 0.2299 0.8049 -0.5471
vn -0.0087 0.2973 0.9548
vn -0.0082 0.2957 0.9552
vn -0.0075 0.2937 0.9559
vn -0.1499 0.3163 0.9367
vn -0.1489 0.3157 0.9371
vn -0.1479 0.3161 0.9371
vn -0.8889 0.4534 -0.0654
vn -0.9496 -0.0662 -0.3065
vn -0.9492 -0.0649 -0.3080
vn 0.5400 -0.7975 0.2691
vn 0.4784 -0.6385 0.6028
vn 0.0185 0.9579 -0.2864
vn -0.2030 0.9785 0.0352
vn 0.4911 -0.8682 -0.0709
vn 0.4900 -0.8684 -0.0764
vn 0.5593 -0.8289 -0.0088
vn 0.5598 -0.8286 -0.0065
vn 0.5591 -0.8291 -0.0098
vn -0.9064 -0.3446 0.2444
vn -0.9507 -0.0577 0.3048
vn -0.2913 -0.7818 0.5514
vn -0.4772 -0.7213 0.5019
vn 0.3547 0.2345 -0.9051
vn 0.5664 0.3929 -0.7244
vn 0.3838 -0.6327 -0.6726
vn 0.2409 -0.6591 -0.7124
vn 0.1415 0.5595 -0.8167
vn -0.6369 0.7631 -0.1099
vn 0.1837 0.0947 -0.9784
vn 0.3498 0.2369 -0.9064
vn 0.4698 -0.5717 -0.6727
vn 0.6883 -0.6732 -0.2705
vn 0.5361 0.7712 0.3433
vn 0.5384 0.7705 0.3414
vn 0.5378 0.7707 0.3419
vn 0.6497 0.7598 -0.0231
vn -0.2435 -0.9597 0.1400
vn -0.1676 -0.8077 0.5654
vn 0.8410 -0.4527 0.2961
vn 0.8446 -0.4522 -0.2867
vn 0.8436 -0.4540 -0.2869
vn 0.5971 0.3183 0.7363
vn 0.5355 0.7714 0.3438
vn -0.2032 0.0063 -0.9791
vn -0.1990 0.0043 -0.9800
vn -0.2024 0.0059 -0.9793
vn 0.6828 -0.1278 -0.7193
vn 0.5571 -0.0336 -0.8298
vn -0.4098 0.7567 0.5094
vn 0.6595 -0.3842 0.6460
vn 0.6606 -0.3832 0.6455
vn 0.9501 -0.0638 0.3054
vn 0.9500 -0.0633 0.3058
vn 0.9494 -0.0601 0.3081
vn -0.6658 -0.6570 0.3538
vn -0.4791 -0.7764 0.4094
vn 0.9971 -0.0740 0.0178
vn 0.9977 -0.0668 0.0114
vn 0.9972 -0.0730 0.0168
vn 0.9734 -0.2032 -0.1063
vn 0.9734 -0.2031 -0.1062
vn 0.9733 -0.2035 -0.1062
vn -0.0781 0.5340 0.8419
vn -0.6446 0.7586 0.0950
vn -0.5717 0.8084 0.1399
vn -0.2714 0.9003 0.3404
vn -0.0148 0.1758 0.9843
vn 0.9493 -0.0594 0.3087
vn 0.9978 -0.0654 0.0101
vn -0.0956 -0.3797 -0.9202
vn -0.0911 -0.3842 -0.9187
vn -0.0906 -0.3847 -0.9186
vn -0.1025 -0.1654 -0.9809
vn -0.3060 0.2449 0.9200
vn -0.1533 0.3125 0.9375
vn -0.3623 -0.8892 -0.2794
vn 0.1610 -0.9021 -0.4003
vn -0.1771 -0.1546 -0.9720
vn -0.1979 0.0037 -0.9802
vn 0.0661 -0.7888 0.6110
vn 0.0800 -0.3833 0.9202
vn -0.6885 -0.7076 -0.1591
vn -0.5327 -0.6720 -0.5144
vn 0.0094 0.5892 0.8079
vn -0.1918 -0.3592 -0.9133
vn -0.0256 0.1340 -0.9906
vn 0.0032 0.2862 -0.9582
vn -0.2369 0.9557 0.1748
vn -0.4161 0.7899 -0.4504
vn -0.0554 -0.1843 0.9813
vn -0.2543 -0.0098 0.9671
vn -0.2552 -0.0088 0.9669
vn -0.5544 0.7620 0.3345
vn -0.8892 0.4529 -0.0655
vn -0.8889 0.4535 -0.0653
vn -0.7167 0.0367 -0.6964
vn -0.5423 -0.0089 -0.8401
vn -0.0426 0.7894 -0.6124
vn 0.2330 0.8032 -0.5482
vn -0.7953 0.4930 0.3528
vn -0.4502 0.4997 0.7400
vn 0.6435 0.7596 0.0945
vn 0.4836 0.7840 0.3891
vn 0.3565 0.2361 -0.9040
vn 0.4629 -0.0148 -0.8863
vn -0.2045 0.7456 -0.6342
vn -0.4655 0.5865 -0.6628
vn -0.5403 -0.7978 -0.2676
vn -0.5379 -0.7992 0.2683
vn -0.6196 0.2677 0.7379
vn -0.6195 0.2681 0.7378
vn -0.6196 0.2680 0.7378
vn -0.3854 -0.0105 0.9227
vn -0.2657 0.6591 -0.7036
vn -0.2261 -0.1840 0.9566
vn -0.2295 -0.1803 0.9565
vn -0.2298 -0.1799 0.9565
vn -0.3815 -0.2161 0.8987
vn -0.3819 -0.2157 0.8987
vn 0.2507 -0.0415 0.9672
vn 0.2514 -0.0418 0.9670
vn 0.2602 -0.0457 0.9645
vn 0.0343 -0.0750 0.9966
vn 0.3685 -0.0307 -0.9291
vn 0.2878 -0.2280 -0.9302
vn 0.2876 -0.2280 -0.9302
vn 0.2877 -0.2280 -0.9302
vn -0.4476 0.8934 -0.0377
vn -0.3169 0.9479 -0.0334
vn 0.6493 0.7604 -0.0160
vn 0.7867 0.3938 -0.4753
vn 0.7851 0.3945 -0.4774
vn 0.7901 0.3924 -0.4709
vn -0.8324 0.4448 0.3306
vn -0.8321 0.4454 0.3304
vn -0.9539 0.2358 0.1855
vn 0.7338 -0.4185 -0.5352
vn 0.7000 -0.0871 -0.7089
vn -0.3713 0.7680 0.5219
vn -0.4291 0.9027 -0.0313
vn 0.0664 0.9715 0.2275
vn 0.4341 0.8722 -0.2253
vn 0.7735 -0.2197 -0.5945
vn 0.8129 -0.0439 -0.5808
vn 0.3578 -0.6180 -0.7000
vn 0.0971 0.9861 0.1348
vn -0.0289 0.9904 -0.1352
vn -0.0310 0.9906 -0.1333
vn -0.0351 0.9910 -0.1294
vn 0.2958 -0.6811 -0.6698
vn 0.3621 -0.8901 -0.2767
vn 0.8448 -0.4518 -0.2867
vn 0.7735 -0.3064 -0.5548
vn -0.7094 -0.4297 -0.5586
vn -0.5714 -0.2254 -0.7891
vn -0.1717 -0.6568 -0.7343
vn -0.1776 -0.8366 -0.5182
vn 0.1332 0.9890 0.0647
vn -0.1668 0.9860 -0.0000
vn 0.4141 0.1348 0.9002
vn 0.4058 0.1405 0.9031
vn 0.4138 0.1351 0.9003
vn 0.8388 -0.0741 0.5393
vn 0.4060 -0.6126 0.6782
vn 0.2869 -0.7441 0.6033
vn 0.0150 -0.2897 -0.9570
vn -0.7158 -0.0481 -0.6967
vn 0.7748 0.0483 0.6303
vn 0.7748 0.0482 0.6303
vn 0.7736 0.0489 0.6318
vn 0.7995 0.5139 0.3110
vn -0.0428 -0.2082 0.9772
vn 0.0403 -0.2269 0.9731
vn 0.0404 -0.2271 0.9730
vn 0.0404 -0.2270 0.9731
vn -0.6716 0.2739 -0.6884
vn -0.4425 0.1246 -0.8881
vn 0.1213 0.9898 0.0751
vn 0.0407 -0.2275 0.9729
vn 0.8617 0.3981 -0.3148
vn 0.9202 0.3814 -0.0876
vn -0.0003 -0.2173 -0.9761
vn -0.0911 -0.1570 -0.9834
vn -0.9933 -0.0358 -0.1101
vn -0.9783 -0.1764 -0.1090
vn 0.3733 0.9274 -0.0251
vn 0.0743 0.6599 -0.7477
vn 0.0748 0.6564 -0.7507
vn 0.0748 0.6559 -0.7511
vn 0.9199 0.3859 -0.0697
vn 0.9613 -0.0554 -0.2700
vn 0.7035 -0.6764 -0.2181
vn 0.5599 -0.8285 -0.0057
vn 0.0424 0.3728 -0.9270
vn 0.2782 0.4187 -0.8645
vn -0.9843 0.1628 -0.0686
vn -0.9936 0.0962 0.0593
vn 0.2956 -0.7866 0.5421
vn 0.3506 -0.8925 0.2836
vn 0.3507 -0.8925 0.2836
vn 0.3541 -0.8920 0.2810
vn 0.4696 -0.0298 0.8824
vn -0.3285 -0.0161 0.9444
vn -0.3749 0.0032 0.9271
vn 0.6358 0.7609 -0.1297
vn 0.2639 -0.4061 0.8749
vn 0.1269 -0.2316 0.9645
vn 0.1288 -0.2330 0.9639
vn -0.4740 0.8779 -0.0674
vn -0.5967 0.7775 0.1988
vn -0.9513 -0.3067 -0.0322
vn -0.8326 -0.4209 -0.3600
vn 0.0685 -0.5126 0.8559
vn 0.3181 -0.5841 0.7467
vn 0.0654 0.5426 -0.8374
vn 0.0882 0.4449 -0.8912
vn 0.8453 0.5334 -0.0311
vn 0.4153 -0.4033 -0.8154
vn 0.5563 -0.2977 -0.7759
vn -0.2259 -0.1842 0.9566
vn 0.6448 -0.6802 0.3486
vn 0.6585 -0.3837 0.6474
vn -0.6780 -0.7222 -0.1366
vn -0.6658 -0.5220 -0.5331
vn 0.0330 -0.5501 0.8344
vn -0.2467 -0.4571 0.8545
vn 0.5891 0.7209 -0.3650
vn 0.2735 0.6249 -0.7312
vn 0.6961 -0.6696 0.2591
vn 0.5895 -0.8078 -0.0068
vn -0.8256 0.4467 -0.3448
vn -0.6719 0.2429 -0.6996
vn 0.5830 0.3329 0.7411
vn 0.7751 0.0481 0.6300
vn 0.3505 -0.8926 0.2837
vn 0.3676 -0.8894 -0.2717
vn -0.2069 0.0656 0.9762
vn 0.0275 0.4085 -0.9124
vn 0.0286 0.4086 -0.9123
vn 0.0219 0.4079 -0.9128
vn -0.4551 0.7861 -0.4183
vn 0.0827 -0.4947 -0.8651
vn 0.0547 -0.5986 -0.7992
vn 0.0724 -0.1114 -0.9911
vn 0.1894 -0.0823 -0.9784
vn -0.6186 -0.5525 -0.5587
vn -0.3223 -0.3946 -0.8605
vn 0.0114 0.3786 0.9255
vn -0.0099 0.2990 0.9542
vn -0.0101 0.2991 0.9542
vn 0.2647 -0.1503 0.9526
vn 0.1410 0.5373 -0.8315
vn 0.1241 0.6550 -0.7454
vn 0.3640 -0.3743 -0.8529
vn 0.2070 -0.4229 -0.8822
vn 0.2083 -0.4215 -0.8826
vn -0.2781 0.6636 -0.6945
vn -0.0887 0.3074 0.9474
vn 0.3959 0.8313 0.3902
vn -0.0372 0.9912 -0.1273
vn -0.3753 0.7969 -0.4734
vn 0.8672 -0.0390 -0.4964
vn 0.8672 -0.0392 -0.4964
vn 0.8677 -0.0454 -0.4950
vn 0.8059 -0.1025 -0.5831
vn 0.0664 0.3798 0.9227
vn 0.1390 0.1285 -0.9819
vn 0.1538 0.0039 -0.9881
vn -0.0416 0.0509 0.9978
vn -0.1261 0.0789 0.9889
vn 0.8672 -0.0385 -0.4965
vn -0.0521 0.8556 -0.5151
vn 0.0741 0.6613 -0.7465
vn -0.0254 0.0503 0.9984
vn 0.9699 -0.0723 0.2327
vn 0.5139 0.7969 0.3175
vn 0.8314 0.4432 0.3351
vn -0.0126 0.1685 0.9856
vn -0.0254 0.2089 -0.9776
vn -0.4507 0.1335 -0.8826
vn -0.5776 0.8136 -0.0665
vn -0.5789 0.8125 -0.0685
vn -0.5832 0.8089 -0.0746
vn -0.6457 0.7635 0.0079
vn -0.3985 -0.9154 0.0564
vn -0.2569 -0.9496 0.1796
vn -0.4501 0.5001 0.7399
vn -0.3814 -0.9196 0.0941
vn -0.5495 -0.8284 0.1089
vn -0.6196 0.2671 0.7381
vn -0.0169 0.8920 0.4517
vn -0.0263 0.4607 0.8871
vn -0.3393 -0.6573 -0.6730
vn -0.5389 -0.7983 -0.2690
vn -0.8557 -0.1085 0.5059
vn -0.8320 0.2986 0.4676
vn -0.3724 -0.7113 0.5961
vn -0.2696 -0.4374 0.8579
vn -0.2500 0.6658 -0.7030
vn -0.1991 0.8426 -0.5004
vn 0.5393 -0.7987 -0.2669
vn 0.4912 -0.8682 -0.0707
vn 0.7477 -0.6606 0.0675
vn -0.5626 -0.8246 0.0589
vn 0.1044 0.6375 -0.7633
vn 0.0455 0.7659 -0.6414
vn -0.1277 -0.4050 -0.9053
vn -0.2780 -0.6539 -0.7036
vn 0.3756 0.9265 -0.0208
vn 0.2033 0.6551 0.7277
vn 0.0379 0.3874 -0.9211
vn 0.0748 0.2301 -0.9703
vn -0.4470 0.5069 0.7370
vn 0.0078 0.5919 0.8060
vn 0.0288 0.4086 -0.9123
vn 0.0540 0.3996 -0.9151
vn 0.0481 0.3543 0.9339
vn -0.4157 0.7899 -0.4509
vn -0.3950 0.6499 -0.6493
vn -0.4132 0.5845 -0.6983
vn -0.2370 0.6631 -0.7100
vn 0.3280 0.6570 -0.6788
vn 0.6297 0.7637 -0.1423
vn 0.3142 -0.6830 0.6593
vn 0.2709 -0.6647 0.6963
vn -0.1504 0.3153 0.9370
vn 0.0049 0.3739 0.9275
vn -0.9965 -0.0463 0.0696
vn -0.9479 -0.0647 0.3118
vn 0.1149 0.8731 0.4738
vn 0.4957 0.7611 0.4183
vn 0.4198 -0.6152 0.6673
vn 0.3189 -0.4145 0.8524
vn 0.4177 0.1622 -0.8940
vn 0.6587 0.1263 -0.7417
vn 0.5897 0.7939 0.1484
vn 0.4895 0.7883 0.3727
vn -0.4041 -0.2028 -0.8919
vn -0.3609 -0.4332 -0.8259
vn 0.4034 0.1421 0.9039
vn 0.4814 -0.0164 0.8764
vn 0.6394 -0.1262 -0.7585
vn 0.7414 -0.3744 -0.5569
vn 0.6558 0.7469 -0.1098
vn 0.6591 0.7411 0.1281
vn -0.5848 0.8076 -0.0769
vn -0.3622 0.9013 -0.2378
vn 0.9318 -0.0595 0.3581
vn 0.6989 0.1172 0.7056
vn 0.7917 0.3917 -0.4688
vn 0.6642 0.3573 -0.6566
vn -0.1712 0.9839 -0.0511
vn -0.2117 0.8304 -0.5154
vn -0.4526 0.8898 -0.0582
vn -0.5059 0.6892 -0.5187
vn 0.8395 -0.4547 0.2975
vn 0.9534 -0.0626 0.2952
vn -0.8796 -0.1821 -0.4394
vn -0.8902 -0.3371 -0.3064
vn 0.1092 -0.3809 0.9181
vn -0.5244 0.7467 -0.4092
vn -0.0193 0.6973 -0.7166
vn -0.5695 0.7488 -0.3390
vn -0.5278 -0.1952 -0.8267
vn -0.2422 0.9586 -0.1501
vn -0.3017 0.9489 -0.0924
vn -0.9736 -0.0498 0.2226
vn -0.9879 -0.1497 -0.0407
vn -0.0647 -0.2048 -0.9767
vn -0.0903 -0.3851 -0.9185
vn -0.9993 -0.0060 0.0356
vn -0.9966 -0.0384 -0.0734
vn -0.1319 -0.5741 0.8081
vn -0.1993 -0.7876 0.5830
vn -0.3413 -0.0435 0.9389
vn -0.2291 0.0634 0.9713
vn 0.4787 -0.5486 -0.6855
vn 0.2922 0.6846 0.6678
vn -0.3769 0.7289 0.5715
vn 0.7645 -0.0617 -0.6416
vn 0.7054 -0.0035 -0.7088
vn -0.0248 0.4073 0.9130
vn 0.0097 0.5890 0.8081
vn -0.3425 -0.0143 0.9394
vn 0.0715 -0.2103 0.9750
vn -0.0396 -0.3680 0.9290
vn -0.1346 0.1104 -0.9847
vn -0.0995 0.0068 -0.9950
vn 0.3677 -0.1509 0.9176
vn 0.3715 -0.0353 0.9278
vn 0.2255 0.6903 -0.6875
vn 0.1702 0.5582 -0.8121
vn 0.5374 0.4433 -0.7174
vn 0.2655 0.3844 -0.8842
vn 0.3372 -0.9388 -0.0705
vn -0.1072 -0.9938 0.0279
vn 0.4898 -0.0222 -0.8715
vn 0.6143 -0.1266 -0.7789
vn -0.9846 -0.1699 0.0421
vn -0.8925 -0.4168 0.1726
vn -0.6948 0.1282 -0.7077
vn -0.5725 0.0032 -0.8199
vn 0.0733 -0.0825 0.9939
vn 0.2241 -0.1984 0.9542
vn 0.2212 -0.4030 -0.8881
vn 0.2875 -0.2280 -0.9303
vn 0.2502 -0.0413 0.9673
vn 0.1747 0.0693 0.9822
vn -0.1722 0.9256 0.3369
vn -0.2615 0.6849 0.6801
vn 0.4291 -0.6202 -0.6567
vn 0.1937 -0.5067 0.8401
vn 0.1901 -0.4846 0.8538
vn 0.0095 0.0032 -0.9999
vn 0.1233 0.0800 -0.9891
vt 0.181750 0.528590
vt 0.265840 0.587550
vt 0.194020 0.613800
vt 0.371030 0.699150
vt 0.347440 0.732550
vt 0.321180 0.701590
vt 0.435830 0.245170
vt 0.345870 0.161030
vt 0.481720 0.233230
vt 0.180190 0.254920
vt 0.078330 0.271120
vt 0.097170 0.226870
vt 0.522950 0.430840
vt 0.555700 0.430780
vt 0.561760 0.485660
vt 0.591780 0.780870
vt 0.561870 0.809040
vt 0.548230 0.751750
vt 0.067290 0.896810
vt 0.033460 0.820600
vt 0.171790 0.878540
vt 0.518700 0.043480
vt 0.506270 0.144140
vt 0.399280 0.140540
vt 0.468790 0.304930
vt 0.542960 0.337960
vt 0.501860 0.346710
vt 0.289340 0.336610
vt 0.250750 0.349970
vt 0.261810 0.318080
vt 0.487390 0.964200
vt 0.336930 0.998040
vt 0.276400 0.886080
vt 0.505480 0.757590
vt 0.517990 0.862410
vt 0.480070 0.849050
vt 0.656370 0.538360
vt 0.607150 0.549090
vt 0.666380 0.462340
vt 0.663580 0.181070
vt 0.784330 0.246390
vt 0.687560 0.246020
vt 0.496390 0.259200
vt 0.554010 0.247500
vt 0.549480 0.294270
vt 0.690020 0.434600
vt 0.731080 0.423280
vt 0.711830 0.471760
vt 0.228600 0.783070
vt 0.135130 0.728620
vt 0.173760 0.717660
vt 0.255290 0.607800
vt 0.199990 0.659980
vt 0.111790 0.681380
vt 0.166300 0.698170
vt 0.098980 0.415170
vt 0.088690 0.315170
vt 0.139210 0.289450
vt 0.488770 0.867320
vt 0.431740 0.843980
vt 0.297250 0.720980
vt 0.290910 0.791750
vt 0.339700 0.638500
vt 0.321460 0.678140
vt 0.556920 0.651250
vt 0.453500 0.653950
vt 0.519060 0.569330
vt 0.593990 0.295880
vt 0.616730 0.243950
vt 0.544070 0.168530
vt 0.297300 0.281280
vt 0.328080 0.298360
vt 0.317040 0.329030
vt 0.368740 0.253520
vt 0.332570 0.250720
vt 0.567830 0.689720
vt 0.529600 0.683990
vt 0.780630 0.476060
vt 0.394820 0.445650
vt 0.467980 0.448190
vt 0.462190 0.559100
vt 0.351210 0.330600
vt 0.384840 0.308300
vt 0.391590 0.337880
vt 0.137640 0.756350
vt 0.146720 0.810080
vt 0.092750 0.760050
vt 0.115520 0.726710
vt 0.047810 0.751470
vt 0.045180 0.678500
vt 0.439690 0.672530
vt 0.460010 0.619450
vt 0.330130 0.462880
vt 0.388530 0.570980
vt 0.118880 0.201590
vt 0.198870 0.150100
vt 0.253930 0.016240
vt 0.516530 0.897660
vt 0.407020 0.849740
vt 0.547010 0.874540
vt 0.573290 0.844400
vt 0.647660 0.888670
vt 0.091800 0.522620
vt 0.052710 0.399640
vt 0.231650 0.497620
vt 0.161350 0.462130
vt 0.183160 0.401710
vt 0.710100 0.741810
vt 0.665240 0.831140
vt 0.623440 0.795460
vt 0.758640 0.602520
vt 0.735560 0.641580
vt 0.666660 0.608020
vt 0.338950 0.434760
vt 0.329550 0.373710
vt 0.390780 0.436460
vt 0.297430 0.458450
vt 0.313550 0.377800
vt 0.172020 0.777600
vt 0.211590 0.793440
vt 0.186890 0.831010
vt 0.695520 0.389200
vt 0.651630 0.382380
vt 0.599960 0.364180
vt 0.346850 0.831320
vt 0.314440 0.831460
vt 0.319840 0.806330
vt 0.377450 0.779850
vt 0.359360 0.815220
vt 0.440480 0.379830
vt 0.460020 0.431580
vt 0.388540 0.378050
vt 0.243830 0.953490
vt 0.297460 0.133570
vt 0.210920 0.109350
vt 0.720350 0.310030
vt 0.766480 0.347900
vt 0.714750 0.352160
vt 0.643340 0.352180
vt 0.624130 0.319660
vt 0.707010 0.378030
vt 0.021230 0.539060
vt 0.016110 0.442150
vt 0.172770 0.655360
vt 0.137480 0.667140
vt 0.126920 0.550260
vt 0.495070 0.156040
vt 0.560020 0.235080
vt 0.558590 0.206850
vt 0.613180 0.633260
vt 0.567130 0.590500
vt 0.639860 0.575790
vt 0.691980 0.577670
vt 0.458770 0.261350
vt 0.456170 0.310640
vt 0.590660 0.677750
vt 0.654850 0.619150
vt 0.664800 0.652770
vt 0.597390 0.758170
vt 0.558170 0.722300
vt 0.261610 0.493430
vt 0.296240 0.547910
vt 0.272310 0.520100
vt 0.621760 0.729010
vt 0.648150 0.715060
vt 0.660470 0.760130
vt 0.754760 0.687710
vt 0.215760 0.890260
vt 0.238310 0.826830
vt 0.303830 0.265720
vt 0.350880 0.265910
vt 0.400190 0.290430
vt 0.377890 0.266380
vt 0.428110 0.260760
vt 0.269470 0.306080
vt 0.156500 0.377280
vt 0.203590 0.336920
vt 0.600460 0.455480
vt 0.603020 0.421990
vt 0.609190 0.398850
vt 0.658260 0.441490
vt 0.256240 0.237320
vt 0.251710 0.176300
vt 0.241800 0.281360
vt 0.277770 0.269800
vt 0.189650 0.700650
vt 0.244570 0.688920
vt 0.290330 0.617630
vt 0.296060 0.716250
vt 0.575640 0.254040
vt 0.658380 0.315730
vt 0.685170 0.308530
vt 0.254550 0.753570
vt 0.271610 0.727750
vt 0.234460 0.723360
vt 0.110390 0.451110
vt 0.179090 0.383300
vt 0.457330 0.769210
vt 0.410420 0.725910
vt 0.450070 0.690400
vt 0.361140 0.774030
vt 0.053440 0.645990
vt 0.083860 0.652210
vt 0.081840 0.693230
vt 0.055720 0.587230
vt 0.405010 0.598520
vt 0.519880 0.472350
vt 0.252930 0.786940
vt 0.268830 0.814210
vt 0.236980 0.758710
vt 0.368630 0.353630
vt 0.329710 0.360280
vt 0.298260 0.365590
vt 0.267700 0.366510
vt 0.784660 0.632160
vt 0.457850 0.291750
vt 0.014260 0.721700
vt 0.105340 0.273110
vt 0.589130 0.119640
vt 0.678850 0.160400
vt 0.668590 0.113060
vt 0.674450 0.593120
vt 0.679690 0.545580
vt 0.673770 0.460290
vt 0.002730 0.415480
vt 0.009380 0.293450
vt 0.042410 0.300110
vt 0.063450 0.180670
vt 0.242460 0.660810
vt 0.601660 0.359960
vt 0.584850 0.334040
vt 0.612300 0.310350
vt 0.222060 0.279310
vt 0.476850 0.355640
vt 0.439620 0.335050
vt 0.382860 0.362830
vt 0.311410 0.200910
vt 0.289870 0.146600
vt 0.601890 0.643320
vt 0.586520 0.547120
vt 0.595430 0.803140
vt 0.244080 0.323940
vt 0.228790 0.743440
vt 0.717630 0.506560
vt 0.701400 0.525500
vt 0.387000 0.804090
vt 0.553470 0.314490
vt 0.497520 0.424500
vt 0.224520 0.880290
vt 0.105330 0.800430
vt 0.775010 0.585460
vt 0.277200 0.841050
vt 0.415880 0.425110
vt 0.350380 0.369680
vt 0.783180 0.537880
vt 0.797820 0.637210
vt 0.756680 0.397860
vt 0.217540 0.709970
vt 0.132740 0.671700
vt 0.059520 0.351100
vt 0.702730 0.290610
vt 0.509990 0.440740
vt 0.350650 0.301690
vt 0.378180 0.283420
vt 0.691120 0.692730
vt 0.691370 0.661350
vt 0.271430 0.238420
vt 0.307110 0.244710
vt 0.546580 0.835530
vt 0.567950 0.829430
vt 0.299640 0.568770
vt 0.230590 0.517560
vt 0.676410 0.446660
vt 0.227390 0.686790
vt 0.558670 0.100350
vt 0.466390 0.378430
vt 0.414610 0.693430
vt 0.197440 0.288790
vt 0.215310 0.319450
vt 0.601890 0.039940
vt 0.559460 0.077000
vt 0.007120 0.746790
vt 0.414980 0.771640
vt 0.393080 0.764890
vt 0.390080 0.738090
vt 0.241840 0.311340
vt 0.150780 0.020260
vt 0.156260 0.143430
vt 0.079740 0.183760
vt 0.390090 0.723850
vt 0.324870 0.447570
vt 0.513560 0.179270
vt 0.524910 0.219050
vt 0.508630 0.667690
vt 0.516210 0.231310
vt 0.368340 0.828970
vt 0.445610 0.837220
vt 0.418500 0.815300
vt 0.316130 0.612640
vt 0.716190 0.655970
vt 0.682270 0.682110
vt 0.654610 0.693310
vt 0.040820 0.590580
vt 0.235630 0.376270
vt 0.799760 0.338390
vt 0.801700 0.435670
vt 0.314580 0.361230
vt 0.562920 0.325970
vt 0.691770 0.529190
vt 0.221240 0.031000
vt 0.664030 0.285670
vt 0.620960 0.299700
vt 0.633810 0.259000
vt 0.623420 0.362890
vt 0.517180 0.660320
vt 0.459870 0.659470
vt 0.324260 0.592880
vt 0.261420 0.150550
vt 0.417130 0.001950
vt 0.310750 0.798810
vt 0.236530 0.775020
vt 0.167210 0.823660
vt 0.293900 0.819460
vt 0.486550 0.454110
vt 0.493210 0.473120
vt 0.596560 0.275170
vt 0.632300 0.443000
vt 0.024980 0.662200
vt 0.766030 0.729810
vt 0.329880 0.304560
vt 0.001950 0.465610
vt 0.712050 0.851350
s 1
usemtl Crystal_Heart_Mat
f 303/1/1 92/2/2 66/3/3
f 302/4/4 105/5/5 156/6/6
f 181/7/7 190/8/8 299/9/9
f 43/10/10 185/11/10 108/12/10
f 306/13/11 42/14/11 67/15/11
f 68/16/12 290/17/13 248/18/14
f 104/19/15 56/20/16 122/21/17
f 8/22/18 228/23/19 64/24/20
f 202/25/21 3/26/22 63/27/23
f 25/28/24 130/29/25 103/30/25
f 158/31/26 305/32/27 13/33/28
f 5/34/29 307/35/29 270/36/29
f 34/37/30 20/38/31 192/39/32
f 57/40/33 24/41/34 166/42/35
f 135/43/36 215/44/36 74/45/36
f 94/46/37 69/47/37 72/48/37
f 291/49/38 125/50/39 83/51/40
f 66/3/41 298/52/41 44/53/41
f 125/50/42 50/54/43 176/55/44
f 23/56/45 19/57/46 155/58/47
f 270/36/48 22/59/48 232/60/48
f 4/61/49 105/5/50 28/62/51
f 124/63/52 302/4/53 272/64/54
f 142/65/55 235/66/56 230/67/57
f 184/68/58 74/45/58 215/44/58
f 310/69/59 173/70/60 57/40/61
f 152/71/62 309/72/63 137/73/64
f 190/8/8 35/74/65 227/75/66
f 178/76/67 147/77/67 142/65/67
f 69/47/68 81/78/68 72/48/68
f 196/79/69 313/80/70 51/81/70
f 205/82/71 128/83/71 29/84/71
f 11/85/72 194/86/73 101/87/74
f 204/88/75 191/89/76 32/90/77
f 49/91/78 124/63/78 89/92/78
f 193/93/79 51/81/70 60/94/80
f 278/95/81 21/96/82 43/10/83
f 64/24/20 305/97/84 8/22/18
f 91/98/85 158/31/86 26/99/87
f 234/100/88 226/101/89 266/102/90
f 23/56/91 78/103/92 116/104/93
f 216/105/94 12/106/95 47/107/96
f 203/108/97 264/109/97 257/110/97
f 220/111/98 200/112/99 263/113/100
f 106/114/101 212/115/102 289/116/103
f 37/117/104 47/107/96 219/118/105
f 26/99/87 158/31/86 13/33/106
f 222/119/107 107/120/107 76/121/107
f 201/122/108 94/46/108 149/123/108
f 244/124/109 42/14/110 63/27/111
f 261/125/112 170/126/112 159/127/112
f 182/128/113 163/129/114 159/127/115
f 306/13/116 63/27/111 42/14/110
f 275/130/117 209/131/118 53/132/119
f 30/133/120 104/19/121 122/21/122
f 150/134/123 153/135/124 305/97/84
f 85/136/125 54/137/125 31/138/125
f 145/139/126 241/140/127 197/141/128
f 78/103/92 311/142/129 211/143/130
f 169/144/131 121/145/132 207/146/133
f 299/9/9 64/24/134 33/147/135
f 310/69/136 114/148/136 109/149/136
f 9/150/137 238/151/138 120/152/139
f 220/111/98 263/113/100 136/153/140
f 181/7/141 299/9/141 55/154/141
f 29/84/142 128/83/143 221/155/144
f 36/156/145 195/157/145 187/158/145
f 282/159/146 112/160/146 178/76/146
f 160/161/147 47/107/96 37/117/104
f 193/93/79 240/162/148 18/163/149
f 174/164/150 293/165/150 68/16/150
f 119/166/151 200/112/151 213/167/151
f 13/33/28 30/133/152 247/168/153
f 107/120/154 79/169/154 76/121/154
f 186/170/155 183/171/156 309/72/157
f 87/172/158 132/173/159 317/174/160
f 249/175/161 152/71/62 137/73/64
f 113/176/162 155/58/47 16/177/163
f 42/14/164 188/178/164 67/15/164
f 206/179/165 143/180/165 27/181/165
f 262/182/166 43/10/83 157/183/167
f 249/175/168 82/184/169 41/185/170
f 252/186/171 121/145/171 169/144/171
f 151/187/172 14/188/173 265/189/174
f 310/69/175 15/190/175 114/148/175
f 177/191/176 301/192/176 31/138/176
f 210/193/177 118/194/178 28/62/51
f 71/195/179 151/187/180 118/194/181
f 47/107/182 12/106/182 110/196/182
f 144/197/183 113/176/183 16/177/183
f 102/198/184 277/199/184 165/200/184
f 28/62/51 105/5/50 179/201/185
f 102/198/186 165/200/186 5/34/186
f 147/77/187 178/76/187 112/160/187
f 199/202/188 273/203/188 296/204/188
f 78/103/189 121/145/189 129/205/189
f 51/81/190 230/67/190 246/206/190
f 51/81/191 172/207/192 67/15/193
f 286/208/194 28/62/195 268/209/196
f 28/62/197 286/208/198 46/210/199
f 271/211/200 80/212/200 205/82/200
f 25/28/201 154/213/201 70/214/201
f 166/42/35 24/41/34 54/137/202
f 200/112/203 308/215/204 213/167/205
f 87/172/158 55/154/206 2/216/207
f 2/216/208 135/43/209 74/45/210
f 32/90/77 191/89/76 84/217/211
f 155/58/212 19/57/212 229/218/212
f 173/70/213 100/219/213 57/40/213
f 134/220/214 96/221/214 24/41/214
f 65/222/215 120/152/216 58/223/217
f 223/224/218 58/223/218 34/37/218
f 288/225/219 56/226/219 59/227/219
f 185/11/220 56/226/221 104/228/222
f 246/206/223 60/94/224 51/81/225
f 14/188/226 95/229/227 298/52/228
f 3/26/229 244/124/109 63/27/111
f 287/230/230 138/231/231 237/232/232
f 186/170/233 227/75/233 183/171/233
f 41/185/234 254/233/235 262/182/236
f 221/155/237 217/234/238 126/235/239
f 275/130/240 53/132/240 189/236/240
f 64/24/20 150/134/123 305/97/84
f 62/237/241 198/238/241 190/8/241
f 195/157/242 9/150/243 120/152/216
f 36/156/244 253/239/244 195/157/244
f 303/1/245 78/103/246 12/106/247
f 78/103/248 110/196/248 12/106/248
f 267/240/249 51/81/191 67/15/193
f 192/39/32 267/240/250 67/15/251
f 293/165/252 119/166/253 68/16/254
f 68/16/255 17/241/255 290/17/255
f 81/78/256 197/141/257 31/138/258
f 197/141/128 241/140/127 31/138/259
f 219/118/105 47/107/96 70/214/260
f 130/29/261 144/197/262 251/242/263
f 161/243/264 71/195/264 118/194/264
f 83/51/40 161/243/265 291/49/38
f 214/244/266 220/111/267 245/245/268
f 245/245/269 223/224/270 214/244/271
f 5/34/272 270/36/273 102/198/274
f 182/128/113 123/246/275 163/129/114
f 202/25/276 74/45/276 117/247/276
f 117/247/277 74/45/278 184/68/279
f 313/80/280 196/79/281 289/116/282
f 231/248/283 209/131/283 275/130/283
f 76/121/284 79/169/284 39/249/284
f 122/21/17 56/20/16 162/250/285
f 200/112/203 77/251/286 308/215/204
f 81/78/287 220/111/267 214/244/266
f 303/1/245 207/146/288 78/103/246
f 121/145/132 78/103/289 207/146/133
f 111/252/290 13/33/290 39/249/290
f 111/252/291 26/99/87 13/33/106
f 75/253/292 212/115/292 53/132/292
f 189/236/293 53/132/293 318/254/293
f 77/251/294 175/255/294 131/256/294
f 31/138/295 54/137/295 284/257/295
f 262/182/296 254/233/296 43/10/296
f 43/10/297 155/58/297 229/218/297
f 83/51/298 250/258/299 161/243/300
f 176/55/301 255/259/301 252/186/301
f 288/225/302 59/227/302 218/260/302
f 211/143/130 116/104/93 78/103/92
f 31/138/303 301/192/303 276/261/303
f 166/42/304 310/69/59 57/40/61
f 67/15/305 172/207/305 86/262/305
f 231/248/306 313/80/306 209/131/306
f 224/263/307 183/171/308 258/264/309
f 128/83/310 205/82/310 224/263/310
f 88/265/311 119/166/253 293/165/252
f 200/112/99 38/266/312 263/113/100
f 267/240/249 230/67/313 51/81/191
f 120/152/314 238/151/315 20/38/316
f 186/170/317 90/267/317 93/268/317
f 262/182/318 157/183/319 62/237/320
f 232/60/321 22/59/322 91/98/323
f 133/269/324 269/270/324 234/100/324
f 92/2/325 243/271/326 14/188/327
f 171/272/328 243/271/329 92/2/330
f 93/268/331 90/267/331 62/237/331
f 62/237/332 190/8/8 227/75/66
f 72/48/333 223/224/270 94/46/334
f 94/46/335 283/273/335 149/123/335
f 44/53/336 298/52/228 95/229/227
f 164/274/337 44/53/338 151/187/339
f 266/102/90 158/31/86 91/98/85
f 228/23/19 8/22/18 319/275/340
f 63/27/111 231/248/341 97/276/342
f 217/234/343 97/276/344 126/235/345
f 277/199/346 98/277/346 165/200/346
f 302/4/53 124/63/52 49/91/347
f 99/278/348 82/184/349 260/279/350
f 99/278/351 43/10/351 254/233/351
f 8/22/352 266/280/353 239/281/354
f 239/281/354 266/280/353 134/220/355
f 56/20/356 101/87/357 162/250/358
f 56/20/359 288/282/359 191/89/359
f 182/128/360 281/283/361 123/246/362
f 6/284/363 48/285/363 281/283/363
f 103/30/25 130/29/25 251/242/25
f 168/286/364 82/184/364 249/175/364
f 30/287/120 1/288/365 292/289/366
f 278/95/367 1/288/367 21/96/367
f 302/4/4 274/290/368 105/5/5
f 179/201/369 105/5/370 48/285/371
f 37/117/372 219/118/372 304/291/372
f 193/93/373 18/163/374 37/117/375
f 291/49/376 107/120/377 222/119/378
f 268/209/379 107/120/379 291/49/379
f 104/228/222 108/12/380 185/11/220
f 292/289/381 1/288/381 278/95/381
f 314/292/382 109/149/383 233/293/384
f 228/23/385 100/219/385 173/70/385
f 23/56/386 144/197/387 110/196/388
f 23/56/91 110/196/389 78/103/92
f 111/252/390 39/249/390 79/169/390
f 268/209/391 79/169/391 107/120/391
f 5/34/392 316/294/392 112/160/392
f 248/18/393 307/35/393 5/34/393
f 23/56/45 155/58/47 113/176/162
f 113/176/394 144/197/387 23/56/386
f 233/293/384 109/149/383 114/148/395
f 10/295/396 215/44/396 135/43/396
f 115/296/397 73/297/398 232/60/399
f 170/126/400 261/125/401 26/99/87
f 116/104/402 211/143/402 218/260/402
f 116/104/403 19/57/46 23/56/45
f 117/247/404 3/26/405 202/25/406
f 138/231/407 287/230/408 3/26/409
f 28/62/51 118/194/178 4/61/49
f 118/194/181 151/187/180 265/189/410
f 203/108/411 257/110/411 119/166/411
f 119/166/253 257/110/412 68/16/254
f 120/152/413 34/37/413 58/223/413
f 120/152/414 20/38/414 34/37/414
f 255/259/415 176/55/44 50/54/43
f 273/203/416 129/205/417 255/259/418
f 247/168/419 30/133/120 122/21/122
f 122/21/420 76/121/421 39/249/422
f 281/283/361 208/298/423 123/246/362
f 123/246/424 208/298/425 115/296/397
f 225/299/426 89/92/427 124/63/428
f 272/64/429 225/299/430 124/63/431
f 291/49/38 11/85/432 125/50/39
f 11/85/433 101/87/434 204/88/75
f 221/155/144 126/235/435 29/84/142
f 126/235/345 97/276/344 29/84/436
f 38/266/437 242/300/437 127/301/437
f 36/156/438 187/158/438 285/302/438
f 87/172/439 128/83/440 224/263/439
f 2/216/441 128/83/442 87/172/443
f 78/103/444 129/205/444 294/303/444
f 294/303/445 129/205/417 273/203/416
f 25/28/446 70/214/446 130/29/446
f 130/29/447 256/304/447 144/197/447
f 54/137/202 24/41/34 131/305/448
f 175/306/449 54/137/449 131/305/449
f 132/173/450 181/7/450 317/174/450
f 183/171/451 227/75/451 35/74/451
f 133/269/452 91/98/452 307/35/452
f 248/18/14 290/17/13 307/35/453
f 57/40/454 100/219/454 134/220/454
f 57/40/33 134/220/455 24/41/34
f 55/154/456 299/9/456 135/43/456
f 55/154/457 135/43/209 2/216/208
f 136/153/458 65/222/459 58/223/460
f 136/153/461 245/245/268 220/111/267
f 137/73/462 25/28/462 103/30/462
f 137/73/463 297/307/463 25/28/463
f 259/308/464 138/231/407 3/26/409
f 138/231/465 259/308/466 184/68/279
f 139/309/467 58/223/467 223/224/467
f 136/153/458 58/223/460 245/245/468
f 30/287/469 140/310/470 1/288/471
f 30/133/152 13/33/28 305/32/27
f 141/311/472 180/312/472 45/313/472
f 276/261/473 141/311/473 45/313/473
f 9/150/137 142/65/55 238/151/138
f 36/156/474 142/65/474 253/239/474
f 206/179/475 244/124/109 143/180/476
f 283/273/477 143/180/478 149/123/479
f 144/197/480 47/107/480 110/196/480
f 144/197/481 256/304/481 47/107/481
f 201/122/482 149/123/483 145/139/484
f 61/314/485 241/140/486 145/139/487
f 146/315/488 235/66/488 142/65/488
f 5/34/489 300/316/489 316/294/489
f 112/160/490 316/294/490 147/77/490
f 147/77/491 146/315/491 142/65/491
f 246/206/223 148/317/492 60/94/224
f 60/94/80 240/162/148 193/93/79
f 149/123/479 143/180/478 244/124/493
f 145/139/484 149/123/483 61/314/494
f 62/237/495 157/183/496 198/238/497
f 153/135/498 295/318/498 21/96/498
f 151/187/339 44/53/338 95/229/499
f 95/229/500 14/188/173 151/187/172
f 249/175/168 41/185/170 152/71/501
f 152/71/502 186/170/155 309/72/157
f 1/288/503 153/135/503 21/96/503
f 1/288/471 140/310/470 153/135/504
f 137/73/505 80/212/505 297/307/505
f 219/118/506 212/115/506 106/114/506
f 155/58/47 99/278/507 16/177/163
f 155/58/508 43/10/508 99/278/508
f 265/189/509 156/6/6 105/5/5
f 265/189/174 14/188/173 272/64/429
f 157/183/510 21/96/510 295/318/510
f 21/96/82 157/183/167 43/10/83
f 8/22/511 305/97/511 158/319/511
f 8/22/512 158/319/512 266/280/512
f 179/201/185 236/320/513 28/62/51
f 28/62/195 236/320/514 268/209/196
f 18/163/374 160/161/515 37/117/375
f 240/162/516 171/272/328 18/163/517
f 161/243/518 118/194/518 210/193/518
f 52/321/519 161/243/265 46/210/520
f 162/250/521 101/87/74 194/86/73
f 162/250/285 312/322/522 122/21/17
f 163/129/523 261/125/523 159/127/523
f 123/246/424 115/296/397 163/129/524
f 161/243/525 250/258/525 71/195/525
f 71/195/179 250/258/526 151/187/180
f 5/34/527 165/200/527 300/316/527
f 165/200/528 98/277/528 49/91/528
f 85/136/529 166/42/35 54/137/202
f 166/42/530 276/261/530 310/69/530
f 159/127/531 170/126/531 167/323/531
f 111/252/532 79/169/532 268/209/532
f 168/286/533 260/279/350 82/184/349
f 16/177/534 251/242/263 144/197/262
f 252/186/535 169/144/536 44/53/537
f 66/3/538 44/53/538 169/144/538
f 170/126/539 111/252/539 167/323/539
f 111/252/291 170/126/400 26/99/87
f 216/105/540 18/163/541 171/272/542
f 216/105/543 171/272/544 12/106/247
f 172/207/545 7/324/546 86/262/547
f 51/81/70 313/80/70 315/325/548
f 109/149/549 173/70/60 310/69/59
f 109/149/550 314/292/551 173/70/552
f 174/164/553 282/159/553 178/76/553
f 174/164/554 36/156/554 285/302/554
f 81/78/287 175/255/555 220/111/267
f 81/78/556 31/138/557 284/257/558
f 176/55/559 252/186/560 83/51/298
f 125/50/42 176/55/44 83/51/561
f 184/68/562 215/44/562 15/190/562
f 45/313/563 180/312/563 280/326/563
f 178/76/564 142/65/564 36/156/564
f 174/164/565 178/76/565 36/156/565
f 179/201/369 48/285/371 6/284/566
f 6/284/567 281/283/567 182/128/567
f 237/232/568 280/326/568 180/312/568
f 180/312/569 301/192/569 177/191/569
f 35/74/65 190/8/8 181/7/7
f 132/173/570 35/74/570 181/7/570
f 179/201/571 6/284/571 182/128/571
f 182/128/572 159/127/573 179/201/574
f 183/171/575 35/74/575 132/173/575
f 183/171/308 132/173/576 258/264/309
f 184/68/279 237/232/577 138/231/465
f 184/68/578 280/326/578 237/232/578
f 59/227/579 185/11/579 218/260/579
f 59/227/580 56/226/580 185/11/580
f 186/170/581 41/185/581 90/267/581
f 41/185/582 186/170/582 152/71/582
f 187/158/583 263/113/583 38/266/583
f 187/158/584 38/266/584 285/302/584
f 67/15/585 188/178/586 192/39/587
f 279/327/588 206/179/588 27/181/588
f 29/84/589 275/130/589 189/236/589
f 29/84/590 271/211/590 205/82/590
f 64/24/591 190/8/591 198/238/591
f 190/8/8 64/24/134 299/9/9
f 101/87/357 56/20/356 191/89/592
f 204/88/75 101/87/434 191/89/76
f 223/224/593 279/327/594 283/273/595
f 94/46/596 223/224/596 283/273/596
f 193/93/597 37/117/597 304/291/597
f 289/116/598 196/79/599 106/114/600
f 11/85/601 76/121/601 312/322/601
f 312/322/602 76/121/421 122/21/420
f 65/222/215 195/157/242 120/152/216
f 187/158/603 195/157/603 263/113/603
f 106/114/600 196/79/599 193/93/604
f 196/79/69 51/81/70 193/93/79
f 197/141/257 81/78/256 69/47/605
f 201/122/606 69/47/606 94/46/606
f 64/24/607 198/238/607 150/134/607
f 295/318/608 153/135/608 150/134/608
f 199/202/609 296/204/609 32/90/609
f 32/90/610 84/217/610 311/328/610
f 200/112/99 242/300/611 38/266/312
f 88/265/612 200/112/613 119/166/614
f 201/122/615 197/141/615 69/47/615
f 145/139/616 197/141/616 201/122/616
f 2/216/617 74/45/617 202/25/617
f 2/216/441 221/155/618 128/83/442
f 24/329/619 264/109/619 203/108/619
f 213/167/620 131/256/620 24/329/620
f 125/50/621 11/85/621 204/88/621
f 204/88/622 50/54/622 125/50/622
f 205/82/623 80/212/623 137/73/623
f 40/330/624 205/82/625 137/73/626
f 42/14/110 244/124/109 206/179/475
f 42/14/627 206/179/627 188/178/627
f 303/1/1 66/3/3 207/146/628
f 66/3/629 169/144/629 207/146/629
f 208/298/425 73/297/398 115/296/397
f 270/36/630 208/298/630 281/283/630
f 209/131/118 75/253/631 53/132/119
f 313/80/280 75/253/632 209/131/633
f 46/210/199 210/193/634 28/62/197
f 46/210/635 161/243/635 210/193/635
f 311/142/636 84/331/636 211/143/636
f 211/143/637 288/225/637 218/260/637
f 219/118/638 80/212/638 212/115/638
f 80/212/639 271/211/639 318/254/639
f 203/108/640 119/166/640 213/167/640
f 24/329/641 203/108/641 213/167/641
f 72/48/333 214/244/271 223/224/270
f 81/78/642 214/244/642 72/48/642
f 215/44/643 10/295/643 114/148/643
f 215/44/644 114/148/644 15/190/644
f 47/107/96 160/161/147 216/105/94
f 160/161/645 18/163/541 216/105/540
f 221/155/237 63/27/646 217/234/238
f 217/234/647 63/27/111 97/276/342
f 218/260/648 19/57/648 116/104/648
f 218/260/649 185/11/649 19/57/649
f 297/307/650 80/212/650 219/118/650
f 219/118/651 70/214/651 154/213/651
f 220/111/652 175/255/652 77/251/652
f 77/251/286 200/112/203 220/111/653
f 202/25/21 63/27/23 221/155/654
f 221/155/655 2/216/655 202/25/655
f 291/49/376 222/119/378 11/85/656
f 222/119/657 76/121/657 11/85/657
f 223/224/658 34/37/658 192/39/658
f 279/327/594 223/224/593 192/39/659
f 224/263/660 205/82/625 40/330/624
f 224/263/307 309/72/661 183/171/308
f 14/188/173 225/299/430 272/64/429
f 14/188/327 243/271/326 225/299/662
f 257/110/663 266/102/664 226/101/665
f 17/241/666 269/270/666 290/17/666
f 93/268/667 62/237/667 227/75/667
f 93/268/668 227/75/668 186/170/668
f 33/147/669 64/24/669 228/23/669
f 33/147/670 228/23/670 173/70/670
f 229/218/671 19/57/671 185/11/671
f 229/218/672 185/11/672 43/10/672
f 89/92/673 230/67/673 235/66/673
f 246/206/674 230/67/675 89/92/427
f 63/27/111 306/13/116 231/248/341
f 86/262/676 7/324/676 231/248/676
f 232/60/677 91/98/677 26/99/677
f 115/296/678 232/60/678 26/99/678
f 10/295/679 233/293/679 114/148/679
f 10/295/680 33/147/135 233/293/681
f 234/100/88 266/102/90 91/98/85
f 133/269/682 234/100/682 91/98/682
f 89/92/683 235/66/683 49/91/683
f 165/200/684 49/91/684 300/316/684
f 179/201/574 159/127/573 236/320/685
f 236/320/686 159/127/686 167/323/686
f 241/140/687 180/312/688 177/191/689
f 241/140/690 177/191/690 31/138/690
f 238/151/138 142/65/55 230/67/57
f 267/240/691 238/151/691 230/67/691
f 100/219/692 239/281/692 134/220/692
f 100/219/693 228/23/693 319/275/693
f 148/317/694 240/162/694 60/94/694
f 243/271/695 148/317/695 225/299/695
f 287/230/230 237/232/232 241/140/486
f 237/232/696 180/312/688 241/140/687
f 242/300/697 88/265/697 127/301/697
f 242/300/698 200/112/613 88/265/612
f 171/272/328 240/162/516 243/271/329
f 148/317/699 243/271/699 240/162/699
f 287/230/230 241/140/486 61/314/485
f 61/314/700 149/123/700 287/230/700
f 58/223/701 139/309/701 245/245/701
f 245/245/269 139/309/702 223/224/270
f 225/299/426 246/206/674 89/92/427
f 148/317/492 246/206/223 225/299/703
f 13/33/704 247/168/704 39/249/704
f 122/21/705 39/249/705 247/168/705
f 112/160/706 282/159/707 248/18/708
f 248/18/709 5/34/709 112/160/709
f 249/175/710 103/30/710 251/242/710
f 249/175/711 137/73/711 103/30/711
f 250/258/526 164/274/712 151/187/180
f 252/186/535 44/53/537 164/274/535
f 249/175/713 251/242/713 168/286/713
f 168/286/714 251/242/714 16/177/714
f 252/186/560 250/258/299 83/51/298
f 252/186/535 164/274/535 250/258/715
f 253/239/716 9/150/716 195/157/716
f 9/150/717 253/239/717 142/65/717
f 82/184/718 254/233/235 41/185/234
f 99/278/348 254/233/719 82/184/349
f 255/259/720 129/205/720 121/145/720
f 255/259/721 121/145/721 252/186/721
f 130/29/722 70/214/722 256/304/722
f 47/107/723 256/304/723 70/214/723
f 17/241/724 257/110/724 226/101/724
f 68/16/254 257/110/412 17/241/725
f 87/172/158 258/264/726 132/173/159
f 224/263/439 258/264/727 87/172/439
f 3/26/405 117/247/404 259/308/728
f 259/308/466 117/247/277 184/68/279
f 16/177/729 260/279/729 168/286/729
f 16/177/163 99/278/507 260/279/507
f 115/296/730 26/99/730 261/125/730
f 163/129/731 115/296/731 261/125/731
f 62/237/320 90/267/732 262/182/318
f 41/185/733 262/182/733 90/267/733
f 263/113/100 65/222/734 136/153/140
f 263/113/735 195/157/242 65/222/215
f 96/332/736 264/109/736 24/329/736
f 96/221/737 134/220/355 266/280/353
f 4/61/738 118/194/181 265/189/410
f 265/189/509 105/5/5 4/61/739
f 257/110/663 264/109/740 266/102/664
f 96/332/741 266/102/741 264/109/741
f 20/38/31 267/240/250 192/39/32
f 20/38/316 238/151/315 267/240/742
f 236/320/514 167/323/743 268/209/196
f 167/323/744 111/252/744 268/209/744
f 269/270/745 226/101/745 234/100/745
f 17/241/746 226/101/746 269/270/746
f 270/36/747 232/60/747 73/297/747
f 270/36/748 73/297/748 208/298/748
f 29/84/749 189/236/749 271/211/749
f 271/211/750 189/236/750 318/254/750
f 265/189/174 272/64/429 156/6/751
f 272/64/752 302/4/752 156/6/752
f 296/204/753 273/203/753 50/54/753
f 273/203/416 255/259/418 50/54/754
f 105/5/755 274/290/755 48/285/755
f 277/199/756 274/290/756 98/277/756
f 97/276/757 275/130/757 29/84/757
f 231/248/758 275/130/758 97/276/758
f 166/42/759 85/136/759 276/261/759
f 85/136/760 31/138/760 276/261/760
f 281/283/761 48/285/761 277/199/761
f 48/285/762 274/290/762 277/199/762
f 278/95/763 108/12/763 292/289/763
f 43/10/764 108/12/764 278/95/764
f 188/178/586 279/327/765 192/39/587
f 206/179/766 279/327/766 188/178/766
f 280/326/767 15/190/767 45/313/767
f 15/190/768 280/326/768 184/68/768
f 102/198/274 270/36/273 281/283/769
f 281/283/770 277/199/770 102/198/770
f 282/159/707 68/16/771 248/18/708
f 174/164/772 68/16/772 282/159/772
f 143/180/773 283/273/773 27/181/773
f 279/327/774 27/181/774 283/273/774
f 284/257/558 175/306/775 81/78/556
f 284/257/776 54/137/776 175/306/776
f 38/266/777 127/301/777 285/302/777
f 127/301/778 88/265/311 293/165/252
f 46/210/779 286/208/779 52/321/779
f 286/208/780 268/209/780 291/49/780
f 287/230/408 244/124/781 3/26/409
f 149/123/782 244/124/782 287/230/782
f 84/217/783 191/89/783 288/282/783
f 84/331/784 288/225/784 211/143/784
f 313/80/280 289/116/282 75/253/632
f 289/116/103 212/115/102 75/253/785
f 269/270/786 133/269/786 290/17/786
f 290/17/787 133/269/787 307/35/787
f 52/321/519 291/49/38 161/243/265
f 52/321/788 286/208/788 291/49/788
f 292/289/789 108/12/380 104/228/222
f 292/289/366 104/228/121 30/287/120
f 127/301/790 293/165/790 285/302/790
f 285/302/791 293/165/791 174/164/791
f 199/202/792 294/303/792 273/203/792
f 311/328/793 199/202/793 32/90/793
f 198/238/794 295/318/794 150/134/794
f 198/238/497 157/183/496 295/318/795
f 204/88/796 296/204/796 50/54/796
f 296/204/797 204/88/797 32/90/797
f 219/118/798 154/213/798 297/307/798
f 297/307/799 154/213/799 25/28/799
f 66/3/800 92/2/800 298/52/800
f 298/52/801 92/2/801 14/188/801
f 299/9/9 33/147/135 10/295/680
f 135/43/802 299/9/802 10/295/802
f 300/316/803 49/91/803 235/66/803
f 300/316/804 235/66/804 316/294/804
f 141/311/805 301/192/805 180/312/805
f 276/261/806 301/192/806 141/311/806
f 98/277/807 302/4/53 49/91/347
f 274/290/368 302/4/4 98/277/808
f 303/1/809 171/272/809 92/2/809
f 171/272/544 303/1/245 12/106/247
f 304/291/810 106/114/810 193/93/810
f 106/114/811 304/291/811 219/118/811
f 30/287/812 305/97/812 140/310/812
f 140/310/813 305/97/813 153/135/813
f 86/262/814 231/248/814 306/13/814
f 86/262/815 306/13/815 67/15/815
f 307/35/816 22/59/816 270/36/816
f 22/59/322 307/35/817 91/98/323
f 77/251/818 131/256/818 308/215/818
f 213/167/819 308/215/819 131/256/819
f 40/330/820 309/72/820 224/263/820
f 40/330/821 137/73/821 309/72/821
f 310/69/822 276/261/822 45/313/822
f 310/69/823 45/313/823 15/190/823
f 294/303/824 199/202/824 311/328/824
f 311/142/129 78/103/92 294/303/825
f 11/85/826 312/322/826 194/86/826
f 162/250/827 194/86/827 312/322/827
f 7/324/828 315/325/828 313/80/828
f 7/324/829 313/80/829 231/248/829
f 233/293/830 33/147/830 314/292/830
f 314/292/551 33/147/831 173/70/552
f 172/207/545 315/325/832 7/324/546
f 51/81/191 315/325/833 172/207/192
f 316/294/834 146/315/834 147/77/834
f 146/315/835 316/294/835 235/66/835
f 317/174/836 181/7/836 55/154/836
f 317/174/160 55/154/206 87/172/158
f 318/254/837 53/132/837 212/115/837
f 80/212/838 318/254/838 212/115/838
f 239/281/839 319/275/839 8/22/839
f 100/219/840 319/275/840 239/281/840
