# Blender 5.0.0
# www.blender.org
mtllib MoleBodyAndHand2.mtl
o Body.012
v 0.000000 0.000000 0.000000
v 0.868329 0.329171 0.525725
v -0.331666 0.329170 0.850649
v -1.073312 0.329177 0.000000
v -0.331666 0.329170 -0.850649
v 0.868329 0.329171 -0.525725
v 0.331666 1.670830 0.750649
v -0.868329 1.670829 0.525725
v -0.868329 1.670829 -0.525725
v 0.331666 1.670830 -0.850649
v 1.073312 1.670823 0.000000
v 0.000000 2.500000 0.000000
v -0.194947 -0.025982 0.499995
v 0.510387 -0.025981 0.309011
v 0.315443 0.211394 0.809012
v 1.020777 0.211396 0.000000
v 0.510387 -0.025981 -0.309011
v -0.630876 -0.025977 0.000000
v -0.825827 0.211396 0.499997
v -0.194947 -0.025982 -0.499995
v -0.825827 0.211396 -0.499997
v 0.315443 0.211394 -0.809012
v 1.141269 1.000000 0.309013
v 1.141269 1.000000 -0.309013
v 0.000000 1.000000 0.980175
v 0.705343 1.000000 0.789191
v -1.141269 1.000000 0.309013
v -0.705343 1.000000 0.789191
v -0.705343 1.000000 -0.809017
v -1.141269 1.000000 -0.309013
v 0.705343 1.000000 -0.809017
v 0.000000 1.000000 -1.000000
v 0.825827 1.788604 0.499997
v -0.315443 1.788606 0.709012
v -1.020777 1.788604 0.000000
v -0.315443 1.788606 -0.809012
v 0.825827 1.788604 -0.499997
v 0.194947 2.275981 0.499995
v 0.630876 2.275978 0.000000
v -0.510387 2.275981 0.309011
v -0.510387 2.275981 -0.309011
v 0.194947 2.275981 -0.499995
vn -0.0157 -0.9982 -0.0580
vn 0.5555 -0.7624 0.3319
vn 0.0411 -0.9985 -0.0359
vn 0.0411 -0.9985 0.0359
vn -0.0157 -0.9982 0.0580
vn 0.9085 -0.2653 0.3229
vn 0.0262 -0.2020 0.9790
vn -0.8878 -0.2637 0.3773
vn -0.5229 -0.2405 -0.8177
vn 0.4826 -0.2386 -0.8427
vn 0.7378 -0.0838 0.6698
vn -0.2609 -0.0571 0.9637
vn -0.9949 -0.1008 -0.0000
vn -0.2604 -0.0854 -0.9617
vn 0.7504 -0.0940 -0.6542
vn 0.3274 0.4238 0.8445
vn -0.3666 0.4982 0.7857
vn -0.7490 0.5662 -0.3440
vn 0.0369 0.5073 -0.8610
vn 0.7812 0.5711 -0.2521
vn 0.3212 0.9046 -0.2801
vn 0.5395 0.6984 -0.4704
vn 0.4057 0.5251 -0.7481
vn -0.1204 0.8876 -0.4446
vn -0.1957 0.6630 -0.7226
vn -0.4732 0.5315 -0.7026
vn -0.4019 0.9157 -0.0000
vn -0.6906 0.7232 -0.0000
vn -0.7490 0.5662 0.3440
vn -0.1204 0.8876 0.4446
vn -0.2154 0.5666 0.7953
vn 0.0106 0.3847 0.9230
vn 0.3212 0.9046 0.2801
vn 0.5395 0.6984 0.4704
vn 0.7812 0.5711 0.2521
vn 0.8878 0.2637 -0.3773
vn 0.7462 0.1409 -0.6506
vn 0.5229 0.2405 -0.8177
vn -0.0213 0.2273 -0.9736
vn -0.2592 0.1282 -0.9573
vn -0.4826 0.2386 -0.8427
vn -0.9085 0.2653 -0.3229
vn -0.9885 0.1510 -0.0000
vn -0.9085 0.2653 0.3229
vn -0.3539 0.2661 0.8966
vn -0.2549 0.2217 0.9412
vn -0.0018 0.3245 0.9459
vn 0.3851 0.2653 0.8839
vn 0.7339 0.1322 0.6663
vn 0.8878 0.2637 0.3773
vn 0.2604 0.0854 -0.9617
vn 0.2592 -0.1282 -0.9573
vn 0.0213 -0.2273 -0.9736
vn -0.7504 0.0940 -0.6542
vn -0.7462 -0.1409 -0.6506
vn -0.8878 -0.2637 -0.3773
vn -0.7378 0.0838 0.6698
vn -0.7339 -0.1322 0.6663
vn -0.5292 -0.2197 0.8196
vn 0.2562 0.1971 0.9463
vn 0.2599 -0.1044 0.9600
vn 0.4813 -0.2166 0.8493
vn 0.9949 0.1008 -0.0000
vn 0.9885 -0.1510 -0.0000
vn 0.9085 -0.2653 -0.3229
vn 0.4237 -0.7431 -0.5180
vn 0.1259 -0.8763 -0.4651
vn -0.0859 -0.7165 -0.6922
vn -0.2736 -0.7271 -0.6297
vn -0.3366 -0.8947 -0.2935
vn -0.6211 -0.7737 -0.1252
vn -0.6211 -0.7737 0.1252
vn -0.3366 -0.8947 0.2935
vn -0.2736 -0.7271 0.6297
vn 0.5555 -0.7624 -0.3319
vn 0.4217 -0.9067 -0.0000
vn -0.0508 -0.9987 -0.0000
vn -0.0859 -0.7165 0.6922
vn 0.1259 -0.8763 0.4651
vn 0.4237 -0.7431 0.5180
vt 0.465399 0.763618
vt 0.453779 0.755590
vt 0.455195 0.773602
vt 0.444298 0.750079
vt 0.455990 0.740716
vt 0.470842 0.777805
vt 0.479095 0.762389
vt 0.468549 0.748660
vt 0.526593 0.793690
vt 0.524549 0.809067
vt 0.538517 0.800029
vt 0.487369 0.762037
vt 0.488127 0.776906
vt 0.497675 0.770460
vt 0.487869 0.810398
vt 0.487369 0.823866
vt 0.498859 0.820088
vt 0.549007 0.748344
vt 0.552766 0.738289
vt 0.537558 0.740017
vt 0.550572 0.778813
vt 0.551248 0.763997
vt 0.537539 0.773815
vt 0.538409 0.785984
vt 0.497426 0.752401
vt 0.498859 0.802226
vt 0.536620 0.755905
vt 0.526593 0.824443
vt 0.538409 0.832728
vt 0.538517 0.818104
vt 0.511950 0.775956
vt 0.518238 0.785405
vt 0.523850 0.770360
vt 0.510421 0.746048
vt 0.512111 0.760408
vt 0.523601 0.752302
vt 0.511917 0.795494
vt 0.512994 0.811328
vt 0.524375 0.800932
vt 0.442636 0.814284
vt 0.448540 0.827997
vt 0.455894 0.815659
vt 0.457909 0.788209
vt 0.448540 0.800089
vt 0.464871 0.800333
vt 0.470421 0.814699
vt 0.464871 0.828241
vt 0.517274 0.785405
vt 0.479397 0.820692
vt 0.524375 0.818794
vt 0.511917 0.825883
vt 0.479397 0.803444
vt 0.472043 0.787874
vt 0.552377 0.823690
vt 0.550357 0.809067
vt 0.525685 0.765047
vt 0.525338 0.778813
vt 0.523850 0.749835
vt 0.501504 0.786204
vt 0.502145 0.785405
vt 0.552377 0.794443
vt 0.487369 0.794965
vt 0.501274 0.738289
vt 0.487725 0.747687
vt 0.524375 0.785405
vt 0.481306 0.747516
vt 0.469427 0.738289
vt 0.487369 0.761647
vt 0.483599 0.776661
vt 0.473328 0.787874
vt 0.459699 0.787874
vt 0.446709 0.780724
vt 0.442636 0.765658
s 1
usemtl molesAtlas.003
f 1/1/1 14/2/1 13/3/1
f 2/4/2 14/2/2 16/5/2
f 1/1/3 13/3/3 18/6/3
f 1/1/4 18/6/4 20/7/4
f 1/1/5 20/7/5 17/8/5
f 2/9/6 16/10/6 23/11/6
f 3/12/7 15/13/7 25/14/7
f 4/15/8 19/16/8 27/17/8
f 5/18/9 21/19/9 29/20/9
f 6/21/10 22/22/10 31/23/10
f 2/9/11 23/11/11 26/24/11
f 3/12/12 25/14/12 28/25/12
f 4/15/13 27/17/13 30/26/13
f 5/18/14 29/20/14 32/27/14
f 6/28/15 31/29/15 24/30/15
f 7/31/16 33/32/16 38/33/16
f 8/34/17 34/35/17 40/36/17
f 9/37/18 35/38/18 41/39/18
f 10/40/19 36/41/19 42/42/19
f 11/43/20 37/44/20 39/45/20
f 39/45/21 42/42/21 12/46/21
f 39/45/22 37/44/22 42/42/22
f 37/44/23 10/40/23 42/42/23
f 42/42/24 41/47/24 12/46/24
f 42/42/25 36/41/25 41/47/25
f 36/48/26 9/37/26 41/39/26
f 41/47/27 40/49/27 12/46/27
f 41/39/28 35/38/28 40/50/28
f 35/38/29 8/51/29 40/50/29
f 40/49/30 38/52/30 12/46/30
f 40/36/31 34/35/31 38/33/31
f 34/35/32 7/31/32 38/33/32
f 38/52/33 39/45/33 12/46/33
f 38/52/34 33/53/34 39/45/34
f 33/53/35 11/43/35 39/45/35
f 24/30/36 37/54/36 11/55/36
f 24/30/37 31/29/37 37/54/37
f 31/23/38 10/56/38 37/57/38
f 32/27/39 36/58/39 10/56/39
f 32/27/40 29/20/40 36/58/40
f 29/59/41 9/37/41 36/48/41
f 30/26/42 35/38/42 9/37/42
f 30/26/43 27/17/43 35/38/43
f 27/17/44 8/51/44 35/38/44
f 28/25/45 34/35/45 8/34/45
f 28/25/46 25/14/46 34/35/46
f 25/14/47 7/31/47 34/35/47
f 26/60/48 33/32/48 7/31/48
f 26/24/49 23/11/49 33/61/49
f 23/11/50 11/55/50 33/61/50
f 31/23/51 32/27/51 10/56/51
f 31/23/52 22/22/52 32/27/52
f 22/22/53 5/18/53 32/27/53
f 29/59/54 30/26/54 9/37/54
f 29/59/55 21/62/55 30/26/55
f 21/62/56 4/15/56 30/26/56
f 27/63/57 28/25/57 8/34/57
f 27/63/58 19/64/58 28/25/58
f 19/64/59 3/12/59 28/25/59
f 25/14/60 26/60/60 7/31/60
f 25/14/61 15/13/61 26/60/61
f 15/65/62 2/9/62 26/24/62
f 23/11/63 24/30/63 11/55/63
f 23/11/64 16/10/64 24/30/64
f 16/10/65 6/28/65 24/30/65
f 17/8/66 22/66/66 6/67/66
f 17/8/67 20/7/67 22/66/67
f 20/7/68 5/68/68 22/66/68
f 20/7/69 21/69/69 5/68/69
f 20/7/70 18/6/70 21/69/70
f 18/6/71 4/70/71 21/69/71
f 18/6/72 19/71/72 4/70/72
f 18/6/73 13/3/73 19/71/73
f 13/3/74 3/72/74 19/71/74
f 16/5/75 17/8/75 6/67/75
f 16/5/76 14/2/76 17/8/76
f 14/2/77 1/1/77 17/8/77
f 13/3/78 15/73/78 3/72/78
f 13/3/79 14/2/79 15/73/79
f 14/2/80 2/4/80 15/73/80
o LeftHand.012
v -0.839153 0.928836 0.933605
v -0.563189 1.082965 0.536894
v -1.015349 1.357235 0.628177
v -1.359023 0.919573 0.843421
v -1.258421 0.400360 0.926551
v -0.627409 0.475802 0.695721
v -0.880741 1.225185 0.177801
v -1.372591 1.124198 0.367248
v -1.436811 0.517035 0.526074
v -0.984651 0.242765 0.434791
v -0.640977 0.680427 0.219547
v -1.141213 0.705911 0.114703
v -0.660248 1.021626 0.779642
v -0.752271 1.293857 0.591498
v -0.524247 0.775764 0.631199
v -0.697995 0.664747 0.872998
v -1.177906 0.983763 0.963581
v -1.220051 1.197817 0.771672
v -0.987095 0.605389 0.984350
v -1.336095 0.630457 0.939072
v -0.851095 0.359524 0.835909
v -0.532220 0.896039 0.351311
v -0.569968 0.539158 0.444666
v -0.938923 1.377453 0.380429
v -0.673149 1.216242 0.326773
v -1.430032 1.060842 0.618302
v -1.228027 1.318096 0.491783
v -1.326851 0.383758 0.736195
v -1.467780 0.703961 0.711658
v -0.771973 0.281904 0.571185
v -1.061077 0.222547 0.682539
v -0.718872 0.979633 0.140242
v -1.148905 1.240476 0.227059
v -1.475753 0.824236 0.431769
v -1.247729 0.306143 0.471470
v -0.779949 0.402183 0.291297
v -1.012905 0.994611 0.078618
v -0.871975 0.674413 0.103155
v -1.302005 0.935253 0.189971
v -1.339752 0.578374 0.283326
v -1.073982 0.417164 0.229671
v -0.747151 1.244898 0.832826
v -0.928270 0.990874 0.951539
v -1.036636 1.342856 0.788996
v -1.102848 1.073043 0.992140
v -0.882096 0.686897 0.959872
v -1.198158 0.912674 1.046333
v -0.950190 0.341947 0.852027
v -1.235356 0.501701 0.986449
v -1.138102 0.267639 0.822589
vn 0.2899 0.9391 0.1844
vn 0.8796 0.2379 0.4118
vn 0.2482 0.9614 0.1188
vn 0.9904 0.1347 0.0297
vn 0.2518 0.9552 0.1556
vn -0.6996 0.4848 0.5249
vn -0.8834 -0.3170 0.3452
vn 0.6041 -0.6977 0.3851
vn 0.8971 0.3772 -0.2302
vn -0.1936 0.9809 0.0203
vn -0.8911 0.2007 0.4070
vn -0.5926 -0.7557 0.2789
vn 0.7928 -0.6089 0.0277
vn 0.2105 0.2820 -0.9360
vn -0.6265 0.3959 -0.6714
vn -0.8796 -0.2379 -0.4118
vn -0.2672 -0.7885 -0.5540
vn 0.4177 -0.4168 -0.8074
vn -0.0845 -0.3855 -0.9188
vn 0.1484 -0.5278 -0.8363
vn 0.1030 -0.7352 -0.6700
vn -0.4167 -0.4184 -0.8071
vn -0.4919 -0.6014 -0.6296
vn -0.7255 -0.5401 -0.4266
vn -0.5837 -0.1472 -0.7985
vn -0.7934 -0.0741 -0.6042
vn -0.8359 0.1756 -0.5200
vn -0.3675 0.0472 -0.9288
vn -0.3961 0.3040 -0.8664
vn -0.1356 0.4561 -0.8796
vn -0.0543 -0.1000 -0.9935
vn 0.2059 0.0156 -0.9785
vn 0.4493 -0.1178 -0.8856
vn 0.6996 -0.4848 -0.5249
vn 0.6678 -0.6768 -0.3099
vn 0.3935 -0.8405 -0.3724
vn -0.2518 -0.9552 -0.1556
vn -0.5007 -0.8595 0.1024
vn -0.7480 -0.6631 -0.0292
vn -0.9904 -0.1347 -0.0297
vn -0.9886 0.1261 0.0824
vn -0.9451 0.2945 -0.1419
vn -0.6041 0.6977 -0.3851
vn -0.3167 0.8805 -0.3528
vn -0.0674 0.7882 -0.6117
vn 0.5310 0.4590 -0.7123
vn 0.7707 0.2960 -0.5643
vn 0.7532 0.0218 -0.6574
vn 0.1936 -0.9809 -0.0203
vn 0.3167 -0.8805 0.3528
vn 0.2736 -0.8614 0.4278
vn -0.8971 -0.3772 0.2302
vn -0.8558 -0.3473 0.3833
vn -0.8452 0.1063 0.5238
vn -0.7928 0.6089 -0.0277
vn -0.6678 0.6768 0.3099
vn -0.3935 0.8405 0.3724
vn 0.3807 0.7884 -0.4832
vn 0.5007 0.8595 -0.1024
vn 0.7480 0.6631 0.0292
vn 0.8911 -0.2007 -0.4070
vn 0.9886 -0.1261 -0.0824
vn 0.9451 -0.2945 0.1419
vn 0.6265 -0.3959 0.6714
vn 0.3961 -0.3040 0.8664
vn 0.2269 -0.8599 0.4573
vn 0.3912 -0.2368 0.8893
vn -0.5912 0.2107 0.7785
vn -0.5978 0.4667 0.6518
vn -0.6195 0.7849 -0.0118
vn -0.6984 0.3966 0.5957
vn 0.8359 -0.1756 0.5200
vn 0.7934 0.0741 0.6042
vn 0.6024 0.1418 0.7855
vn 0.0530 -0.2063 0.9771
vn 0.6323 0.0622 0.7722
vn 0.7255 0.5401 0.4266
vn 0.9347 0.3516 0.0515
vn -0.5248 0.5904 0.6132
vn 0.0550 -0.3459 0.9367
vn 0.1765 0.7249 0.6659
vn -0.9092 0.3987 0.1200
vn 0.4288 0.0219 0.9031
vn -0.1436 -0.2895 0.9463
vn -0.1048 0.2702 0.9571
vn -0.6644 -0.2624 0.6998
vn 0.1420 -0.5274 0.8377
vn -0.5202 -0.8539 -0.0112
vn 0.2172 -0.4137 0.8841
vt 0.491025 0.807833
vt 0.504678 0.806986
vt 0.501343 0.795453
vt 0.530111 0.810463
vt 0.540419 0.810242
vt 0.536656 0.799782
vt 0.489971 0.799924
vt 0.523276 0.801008
vt 0.490265 0.787264
vt 0.460990 0.767437
vt 0.449116 0.767131
vt 0.455863 0.778968
vt 0.478631 0.763197
vt 0.471416 0.763421
vt 0.479242 0.773553
vt 0.526160 0.737285
vt 0.537589 0.739942
vt 0.534087 0.730076
vt 0.518769 0.812226
vt 0.479242 0.795899
vt 0.469419 0.776490
vt 0.504477 0.748616
vt 0.498635 0.741782
vt 0.494245 0.750795
vt 0.540419 0.787841
vt 0.534631 0.777414
vt 0.529335 0.787711
vt 0.471976 0.804379
vt 0.466998 0.793230
vt 0.461114 0.803415
vt 0.459759 0.825900
vt 0.467298 0.816065
vt 0.453932 0.816065
vt 0.485909 0.759542
vt 0.479242 0.761986
vt 0.486858 0.771840
vt 0.507595 0.769024
vt 0.496130 0.764924
vt 0.499605 0.777414
vt 0.517655 0.789927
vt 0.521251 0.778640
vt 0.510196 0.786330
vt 0.453633 0.793230
vt 0.441828 0.799585
vt 0.449237 0.804379
vt 0.447713 0.789399
vt 0.512614 0.776578
vt 0.442013 0.813698
vt 0.448198 0.826348
vt 0.511447 0.800155
vt 0.517179 0.763571
vt 0.506992 0.756368
vt 0.464056 0.789399
vt 0.474929 0.785184
vt 0.451867 0.789399
vt 0.469824 0.826348
vt 0.479929 0.782668
vt 0.491139 0.777414
vt 0.509987 0.809011
vt 0.515294 0.749442
vt 0.511559 0.748045
vt 0.483807 0.748979
vt 0.443753 0.780040
vt 0.483509 0.809424
vt 0.502029 0.782221
vt 0.509987 0.791345
vt 0.527139 0.748949
vt 0.540135 0.753998
vt 0.534604 0.754609
vt 0.457041 0.757970
vt 0.453083 0.754842
vt 0.517179 0.744650
vt 0.519725 0.758706
vt 0.529105 0.761769
vt 0.531806 0.765761
vt 0.541874 0.769788
vt 0.520113 0.769067
vt 0.508933 0.804106
vt 0.473017 0.826348
vt 0.464831 0.827281
vt 0.473017 0.838329
vt 0.441828 0.762184
vt 0.537720 0.772331
vt 0.509987 0.816485
vt 0.526346 0.812660
vt 0.510903 0.812226
vt 0.460163 0.754720
vt 0.464831 0.826348
vt 0.453531 0.833343
vt 0.464831 0.842431
vt 0.453955 0.838720
vt 0.474996 0.759598
vt 0.474486 0.802835
vt 0.474486 0.789399
vt 0.471976 0.793644
vt 0.541874 0.741278
s 1
usemtl molesAtlas.004
f 86/74/81 84/75/81 56/76/81
f 44/77/82 55/78/82 57/79/82
f 86/74/83 56/76/83 45/80/83
f 44/77/84 57/79/84 64/81/84
f 45/80/85 56/76/85 66/82/85
f 46/83/86 60/84/86 68/85/86
f 47/86/87 62/87/87 70/88/87
f 48/89/88 63/90/88 72/91/88
f 44/77/89 64/81/89 67/92/89
f 45/80/90 66/82/90 69/93/90
f 46/83/91 68/85/91 71/94/91
f 92/95/92 47/96/92 70/97/92
f 48/98/93 72/99/93 65/100/93
f 49/101/94 74/102/94 79/103/94
f 50/104/95 75/105/95 81/106/95
f 51/107/96 76/108/96 82/109/96
f 52/110/97 77/111/97 83/112/97
f 53/113/98 78/114/98 80/115/98
f 80/116/99 83/117/99 54/118/99
f 80/116/100 78/119/100 83/117/100
f 78/120/101 52/110/101 83/112/101
f 83/117/102 82/121/102 54/118/102
f 83/112/103 77/111/103 82/109/103
f 77/111/104 51/107/104 82/109/104
f 82/121/105 81/106/105 54/118/105
f 82/121/106 76/122/106 81/106/106
f 76/122/107 50/104/107 81/106/107
f 81/106/108 79/103/108 54/118/108
f 81/106/109 75/105/109 79/103/109
f 75/105/110 49/101/110 79/103/110
f 79/103/111 80/116/111 54/118/111
f 79/103/112 74/102/112 80/116/112
f 74/123/113 53/113/113 80/115/113
f 65/100/114 78/114/114 53/113/114
f 65/100/115 72/99/115 78/114/115
f 72/124/116 52/110/116 78/120/116
f 73/125/117 77/111/117 52/110/117
f 73/125/118 70/97/118 77/111/118
f 70/97/119 51/107/119 77/111/119
f 71/94/120 76/126/120 51/127/120
f 71/94/121 68/85/121 76/126/121
f 68/85/122 50/128/122 76/126/122
f 69/129/123 75/105/123 50/104/123
f 69/93/124 66/82/124 75/130/124
f 66/82/125 49/131/125 75/130/125
f 67/92/126 74/123/126 49/132/126
f 67/92/127 64/81/127 74/123/127
f 64/81/128 53/113/128 74/123/128
f 72/124/129 73/125/129 52/110/129
f 72/124/130 63/133/130 73/125/130
f 92/95/131 73/125/131 90/134/131
f 70/97/132 71/135/132 51/107/132
f 70/88/133 62/87/133 71/94/133
f 62/87/134 46/83/134 71/94/134
f 68/85/135 69/136/135 50/128/135
f 68/85/136 60/84/136 69/136/136
f 60/137/137 45/80/137 69/93/137
f 66/82/138 67/138/138 49/131/138
f 66/82/139 56/76/139 67/138/139
f 56/76/140 44/139/140 67/138/140
f 64/81/141 65/100/141 53/113/141
f 64/81/142 57/79/142 65/100/142
f 57/79/143 48/98/143 65/100/143
f 58/140/144 63/90/144 48/89/144
f 58/140/145 61/141/145 63/90/145
f 90/134/146 73/125/146 63/133/146
f 88/142/147 61/141/147 58/140/147
f 59/143/148 46/83/148 62/87/148
f 59/143/149 60/84/149 46/83/149
f 86/74/150 45/80/150 60/137/150
f 87/144/151 60/84/151 59/143/151
f 57/145/152 58/140/152 48/89/152
f 57/145/153 55/146/153 58/140/153
f 55/146/154 43/147/154 58/140/154
f 85/148/155 59/149/155 43/147/155
f 55/146/156 84/150/156 43/147/156
f 55/151/157 44/139/157 56/76/157
f 84/152/158 55/153/158 56/154/158
f 87/144/159 86/155/159 60/84/159
f 85/148/160 87/156/160 59/149/160
f 89/157/161 43/158/161 59/159/161
f 89/160/162 59/143/162 62/87/162
f 88/142/163 58/140/163 43/147/163
f 89/161/164 62/162/164 61/163/164
f 91/164/165 61/163/165 62/162/165
f 91/165/166 62/87/166 47/86/166
f 92/166/167 91/167/167 47/168/167
f 92/95/168 70/97/168 73/125/168
f 61/141/169 90/169/169 63/90/169
o RightHand.012
v 0.894535 0.625397 0.934675
v 0.691304 0.381017 0.539368
v 1.211084 0.284787 0.631957
v 1.377727 0.817093 0.843782
v 1.100094 1.267847 0.923493
v 0.536702 0.972789 0.693969
v 1.039068 0.357697 0.180859
v 1.463298 0.627211 0.368999
v 1.308696 1.218983 0.523600
v 0.788916 1.315213 0.431012
v 0.622273 0.782907 0.219186
v 1.099390 0.935062 0.113896
v 0.760134 0.474342 0.781571
v 0.942625 0.250894 0.595174
v 0.546235 0.655291 0.631624
v 0.669262 0.822175 0.872443
v 1.230813 0.693882 0.964602
v 1.346095 0.507214 0.774105
v 0.918616 0.980590 0.983028
v 1.254027 1.080115 0.937487
v 0.704717 1.161541 0.833083
v 0.596530 0.543682 0.352553
v 0.505658 0.891515 0.443425
v 1.147036 0.237185 0.384448
v 0.841516 0.293747 0.330025
v 1.494342 0.708485 0.619543
v 1.396394 0.395600 0.495034
v 1.158484 1.306253 0.732944
v 1.403470 1.056318 0.710415
v 0.603606 1.204400 0.567935
v 0.852964 1.362815 0.678521
v 0.800940 0.529975 0.141827
v 1.295283 0.438459 0.229886
v 1.453765 0.944709 0.431344
v 1.057375 1.349106 0.467794
v 0.653905 1.092786 0.288863
v 1.081384 0.619411 0.079940
v 0.836398 0.869340 0.102468
v 1.330738 0.777825 0.190525
v 1.239866 1.125658 0.281397
v 0.934349 1.182220 0.226975
v 0.920240 0.296532 0.836169
v 0.999799 0.598963 0.952921
v 1.225719 0.306855 0.792647
v 1.192097 0.584041 0.993863
v 0.849210 0.867080 0.959237
v 1.224544 0.768106 1.046843
v 0.791193 1.213100 0.848956
v 1.114240 1.165304 0.984110
v 0.940777 1.348796 0.818779
vn 0.0603 -0.9797 0.1911
vn -0.7394 -0.5305 0.4145
vn 0.1073 -0.9863 0.1257
vn -0.8791 -0.4756 0.0318
vn 0.1017 -0.9815 0.1625
vn 0.8251 -0.2028 0.5273
vn 0.7140 0.6110 0.3419
vn -0.8121 0.4420 0.3811
vn -0.7057 -0.6713 -0.2265
vn 0.5275 -0.8491 0.0268
vn 0.9040 0.1298 0.4073
vn 0.2871 0.9182 0.2730
vn -0.9568 0.2897 0.0246
vn -0.0962 -0.3445 -0.9338
vn 0.7268 -0.1536 -0.6694
vn 0.7394 0.5305 -0.4145
vn -0.0279 0.8282 -0.5597
vn -0.5370 0.2369 -0.8097
vn -0.0560 0.3842 -0.9215
vn -0.3242 0.4357 -0.8397
vn -0.3552 0.6469 -0.6748
vn 0.2430 0.5331 -0.8104
vn 0.2485 0.7321 -0.6343
vn 0.4885 0.7586 -0.4311
vn 0.4951 0.3384 -0.8002
vn 0.7168 0.3455 -0.6056
vn 0.8447 0.1274 -0.5198
vn 0.3616 0.0793 -0.9290
vn 0.4791 -0.1504 -0.8648
vn 0.2890 -0.3848 -0.8766
vn 0.0167 0.1060 -0.9942
vn -0.1859 -0.0940 -0.9781
vn -0.4608 -0.0546 -0.8858
vn -0.8251 0.2028 -0.5273
vn -0.8634 0.3951 -0.3136
vn -0.6646 0.6447 -0.3776
vn -0.1017 0.9815 -0.1625
vn 0.1647 0.9817 0.0959
vn 0.4656 0.8843 -0.0346
vn 0.8791 0.4756 -0.0318
vn 0.9693 0.2318 0.0820
vn 0.9883 0.0574 -0.1411
vn 0.8121 -0.4420 -0.3811
vn 0.6077 -0.7142 -0.3472
vn 0.3423 -0.7177 -0.6064
vn -0.3337 -0.6218 -0.7085
vn -0.6157 -0.5530 -0.5613
vn -0.6961 -0.2910 -0.6563
vn -0.5275 0.8491 -0.0268
vn -0.6077 0.7142 0.3472
vn -0.5608 0.7121 0.4223
vn 0.7057 0.6713 0.2265
vn 0.6775 0.6298 0.3799
vn 0.8276 0.2027 0.5234
vn 0.9568 -0.2897 -0.0246
vn 0.8634 -0.3951 0.3136
vn 0.6646 -0.6447 0.3777
vn -0.0770 -0.8754 -0.4773
vn -0.1647 -0.9817 -0.0959
vn -0.4656 -0.8843 0.0346
vn -0.9040 -0.1298 -0.4073
vn -0.9693 -0.2318 -0.0820
vn -0.9883 -0.0574 0.1411
vn -0.7268 0.1536 0.6694
vn -0.4791 0.1504 0.8648
vn -0.5166 0.7274 0.4517
vn -0.4507 0.0894 0.8882
vn 0.6265 0.0170 0.7792
vn 0.7233 -0.2209 0.6542
vn 0.8569 -0.5155 -0.0072
vn 0.7928 -0.1202 0.5976
vn -0.8447 -0.1274 0.5198
vn -0.7168 -0.3455 0.6056
vn -0.5145 -0.3401 0.7872
vn -0.1237 0.1809 0.9757
vn -0.5705 -0.2763 0.7734
vn -0.4885 -0.7586 0.4311
vn -0.7504 -0.6587 0.0551
vn 0.6988 -0.3628 0.6165
vn -0.1748 0.3105 0.9343
vn 0.0902 -0.7359 0.6710
vn 0.9913 -0.0510 0.1216
vn -0.3945 -0.1658 0.9038
vn 0.0309 0.3280 0.9442
vn 0.1923 -0.2092 0.9588
vn 0.5280 0.4849 0.6971
vn -0.3202 0.4490 0.8342
vn 0.1851 0.9826 -0.0176
vn -0.3504 0.3163 0.8816
vt 0.498192 0.806799
vt 0.511154 0.805995
vt 0.507988 0.795046
vt 0.535300 0.809296
vt 0.545086 0.809086
vt 0.541514 0.799156
vt 0.497192 0.799291
vt 0.528811 0.800320
vt 0.497470 0.787272
vt 0.469678 0.768448
vt 0.458404 0.768157
vt 0.464810 0.779396
vt 0.486425 0.764423
vt 0.479576 0.764635
vt 0.487006 0.774254
vt 0.531549 0.739822
vt 0.542399 0.742345
vt 0.539075 0.732978
vt 0.524532 0.810970
vt 0.487006 0.795470
vt 0.477680 0.777043
vt 0.510963 0.750579
vt 0.505418 0.744092
vt 0.501249 0.752648
vt 0.545086 0.787820
vt 0.539591 0.777920
vt 0.534563 0.787696
vt 0.480108 0.803520
vt 0.475382 0.792935
vt 0.469795 0.802605
vt 0.468509 0.823952
vt 0.475666 0.814615
vt 0.462977 0.814615
vt 0.493335 0.760953
vt 0.487006 0.763273
vt 0.494236 0.772629
vt 0.513923 0.769955
vt 0.503039 0.766062
vt 0.506338 0.777920
vt 0.523474 0.789800
vt 0.526888 0.779084
vt 0.516393 0.786385
vt 0.462693 0.792935
vt 0.451486 0.798969
vt 0.458520 0.803520
vt 0.457073 0.789299
vt 0.518688 0.777126
vt 0.451661 0.812367
vt 0.457533 0.824377
vt 0.517581 0.799510
vt 0.523022 0.764778
vt 0.513351 0.757940
vt 0.472589 0.789299
vt 0.482911 0.785297
vt 0.461016 0.789299
vt 0.478064 0.824377
vt 0.487658 0.782908
vt 0.498300 0.777920
vt 0.516194 0.807918
vt 0.521232 0.751364
vt 0.517687 0.750037
vt 0.491340 0.750925
vt 0.453313 0.780413
vt 0.491056 0.808310
vt 0.508640 0.782484
vt 0.516194 0.791146
vt 0.532479 0.750896
vt 0.544816 0.755689
vt 0.539566 0.756270
vt 0.465929 0.759461
vt 0.462171 0.756490
vt 0.523022 0.746814
vt 0.525439 0.760159
vt 0.534345 0.763067
vt 0.536909 0.766857
vt 0.546467 0.770680
vt 0.525808 0.769995
vt 0.515193 0.803261
vt 0.481096 0.824377
vt 0.473324 0.825263
vt 0.481096 0.835752
vt 0.451486 0.763461
vt 0.542524 0.773094
vt 0.516194 0.815013
vt 0.531725 0.811382
vt 0.517064 0.810970
vt 0.468892 0.756375
vt 0.473324 0.824377
vt 0.462596 0.831018
vt 0.473324 0.839646
vt 0.462999 0.836123
vt 0.482975 0.761006
vt 0.482491 0.802054
vt 0.482491 0.789299
vt 0.480108 0.793329
vt 0.546467 0.743614
s 1
usemtl molesAtlas.004
f 136/170/170 134/171/170 106/172/170
f 94/173/171 105/174/171 107/175/171
f 136/170/172 106/172/172 95/176/172
f 94/173/173 107/175/173 114/177/173
f 95/176/174 106/172/174 116/178/174
f 96/179/175 110/180/175 118/181/175
f 97/182/176 112/183/176 120/184/176
f 98/185/177 113/186/177 122/187/177
f 94/173/178 114/177/178 117/188/178
f 95/176/179 116/178/179 119/189/179
f 96/179/180 118/181/180 121/190/180
f 142/191/181 97/192/181 120/193/181
f 98/194/182 122/195/182 115/196/182
f 99/197/183 124/198/183 129/199/183
f 100/200/184 125/201/184 131/202/184
f 101/203/185 126/204/185 132/205/185
f 102/206/186 127/207/186 133/208/186
f 103/209/187 128/210/187 130/211/187
f 130/212/188 133/213/188 104/214/188
f 130/212/189 128/215/189 133/213/189
f 128/216/190 102/206/190 133/208/190
f 133/213/191 132/217/191 104/214/191
f 133/208/192 127/207/192 132/205/192
f 127/207/193 101/203/193 132/205/193
f 132/217/194 131/202/194 104/214/194
f 132/217/195 126/218/195 131/202/195
f 126/218/196 100/200/196 131/202/196
f 131/202/197 129/199/197 104/214/197
f 131/202/198 125/201/198 129/199/198
f 125/201/199 99/197/199 129/199/199
f 129/199/200 130/212/200 104/214/200
f 129/199/201 124/198/201 130/212/201
f 124/219/202 103/209/202 130/211/202
f 115/196/203 128/210/203 103/209/203
f 115/196/204 122/195/204 128/210/204
f 122/220/205 102/206/205 128/216/205
f 123/221/206 127/207/206 102/206/206
f 123/221/207 120/193/207 127/207/207
f 120/193/208 101/203/208 127/207/208
f 121/190/209 126/222/209 101/223/209
f 121/190/210 118/181/210 126/222/210
f 118/181/211 100/224/211 126/222/211
f 119/225/212 125/201/212 100/200/212
f 119/189/213 116/178/213 125/226/213
f 116/178/214 99/227/214 125/226/214
f 117/188/215 124/219/215 99/228/215
f 117/188/216 114/177/216 124/219/216
f 114/177/217 103/209/217 124/219/217
f 122/220/218 123/221/218 102/206/218
f 122/220/219 113/229/219 123/221/219
f 142/191/220 123/221/220 140/230/220
f 120/193/221 121/231/221 101/203/221
f 120/184/222 112/183/222 121/190/222
f 112/183/223 96/179/223 121/190/223
f 118/181/224 119/232/224 100/224/224
f 118/181/225 110/180/225 119/232/225
f 110/233/226 95/176/226 119/189/226
f 116/178/227 117/234/227 99/227/227
f 116/178/228 106/172/228 117/234/228
f 106/172/229 94/235/229 117/234/229
f 114/177/230 115/196/230 103/209/230
f 114/177/231 107/175/231 115/196/231
f 107/175/232 98/194/232 115/196/232
f 108/236/233 113/186/233 98/185/233
f 108/236/234 111/237/234 113/186/234
f 140/230/235 123/221/235 113/229/235
f 138/238/236 111/237/236 108/236/236
f 109/239/237 96/179/237 112/183/237
f 109/239/238 110/180/238 96/179/238
f 136/170/239 95/176/239 110/233/239
f 137/240/240 110/180/240 109/239/240
f 107/241/241 108/236/241 98/185/241
f 107/241/242 105/242/242 108/236/242
f 105/242/243 93/243/243 108/236/243
f 135/244/244 109/245/244 93/243/244
f 105/242/245 134/246/245 93/243/245
f 105/247/246 94/235/246 106/172/246
f 134/248/247 105/249/247 106/250/247
f 137/240/248 136/251/248 110/180/248
f 135/244/249 137/252/249 109/245/249
f 139/253/250 93/254/250 109/255/250
f 139/256/251 109/239/251 112/183/251
f 138/238/252 108/236/252 93/243/252
f 139/257/253 112/258/253 111/259/253
f 141/260/254 111/259/254 112/258/254
f 141/261/255 112/183/255 97/182/255
f 142/262/256 141/263/256 97/264/256
f 142/191/257 120/193/257 123/221/257
f 111/237/258 140/265/258 113/186/258
