# Blender 5.0.0
# www.blender.org
mtllib MoleEyeAndMustache.mtl
o eye01.006
v -0.500000 2.035985 0.660000
v -0.500000 2.035985 0.740000
v -0.437500 2.012539 0.660000
v -0.437500 2.012539 0.740000
v -0.391747 1.948485 0.660000
v -0.391747 1.948485 0.740000
v -0.375000 1.860985 0.660000
v -0.375000 1.860985 0.740000
v -0.391747 1.773485 0.660000
v -0.391747 1.773485 0.740000
v -0.437500 1.709430 0.660000
v -0.437500 1.709430 0.740000
v -0.500000 1.685985 0.660000
v -0.500000 1.685985 0.740000
v -0.562500 1.709430 0.660000
v -0.562500 1.709430 0.740000
v -0.608253 1.773484 0.660000
v -0.608253 1.773484 0.740000
v -0.625000 1.860984 0.660000
v -0.625000 1.860984 0.740000
v -0.608253 1.948485 0.660000
v -0.608253 1.948484 0.740000
v -0.562500 2.012539 0.660000
v -0.562500 2.012539 0.740000
vn 0.3512 0.9363 -0.0000
vn 0.8137 0.5812 -0.0000
vn 0.9822 0.1880 -0.0000
vn 0.9822 -0.1880 -0.0000
vn 0.8137 -0.5812 -0.0000
vn 0.3512 -0.9363 -0.0000
vn -0.3512 -0.9363 -0.0000
vn -0.8137 -0.5812 -0.0000
vn -0.9822 -0.1880 -0.0000
vn -0.9822 0.1880 -0.0000
vn -0.0000 -0.0000 1.0000
vn -0.8137 0.5812 -0.0000
vn -0.3512 0.9363 -0.0000
vn -0.0000 -0.0000 -1.0000
vt 0.172987 0.967894
vt 0.183523 0.925831
vt 0.172987 0.925831
vt 0.183523 0.967894
vt 0.192648 0.925831
vt 0.192648 0.967894
vt 0.197916 0.925831
vt 0.231970 0.967894
vt 0.237238 0.925831
vt 0.231970 0.925831
vt 0.237238 0.967894
vt 0.246362 0.925831
vt 0.246362 0.967894
vt 0.256899 0.925831
vt 0.256899 0.967894
vt 0.266023 0.925831
vt 0.197916 0.967894
vt 0.203184 0.925831
vt 0.203184 0.967894
vt 0.212309 0.925831
vt 0.212308 0.967894
vt 0.222845 0.925831
vt 0.226177 0.883940
vt 0.201999 0.910076
vt 0.235027 0.920374
vt 0.222845 0.967894
vt 0.163862 0.967894
vt 0.163862 0.925831
vt 0.188040 0.883761
vt 0.163862 0.910742
vt 0.196890 0.919886
vt 0.197916 0.967894
vt 0.266023 0.967894
vt 0.240137 0.910742
vt 0.240137 0.899517
vt 0.235027 0.889707
vt 0.215959 0.883761
vt 0.207109 0.889219
vt 0.201999 0.898851
vt 0.207109 0.919886
vt 0.215959 0.925653
vt 0.226177 0.925831
vt 0.231969 0.967894
vt 0.196890 0.889219
vt 0.177821 0.883940
vt 0.168971 0.889707
vt 0.163862 0.899517
vt 0.168971 0.920374
vt 0.177821 0.925831
vt 0.188040 0.925653
s 1
usemtl molesAtlas
f 2/1/1 3/2/1 1/3/1
f 4/4/2 5/5/2 3/2/2
f 6/6/3 7/7/3 5/5/3
f 8/8/4 9/9/4 7/10/4
f 10/11/5 11/12/5 9/9/5
f 12/13/6 13/14/6 11/12/6
f 14/15/7 15/16/7 13/14/7
f 16/17/8 17/18/8 15/7/8
f 18/19/9 19/20/9 17/18/9
f 20/21/10 21/22/10 19/20/10
f 22/23/11 14/24/11 6/25/11
f 22/26/12 23/10/12 21/22/12
f 24/27/13 1/3/13 23/28/13
f 7/29/14 15/30/14 23/31/14
f 2/1/1 4/4/1 3/2/1
f 4/4/2 6/6/2 5/5/2
f 6/6/3 8/32/3 7/7/3
f 8/8/4 10/11/4 9/9/4
f 10/11/5 12/13/5 11/12/5
f 12/13/6 14/15/6 13/14/6
f 14/15/7 16/33/7 15/16/7
f 16/17/8 18/19/8 17/18/8
f 18/19/9 20/21/9 19/20/9
f 20/21/10 22/26/10 21/22/10
f 6/25/11 4/34/11 2/35/11
f 2/35/11 24/36/11 22/23/11
f 22/23/11 20/37/11 18/38/11
f 18/38/11 16/39/11 14/24/11
f 14/24/11 12/40/11 10/41/11
f 10/41/11 8/42/11 6/25/11
f 6/25/11 2/35/11 22/23/11
f 22/23/11 18/38/11 14/24/11
f 14/24/11 10/41/11 6/25/11
f 22/26/12 24/43/12 23/10/12
f 24/27/13 2/1/13 1/3/13
f 23/31/14 1/24/14 3/39/14
f 3/39/14 5/44/14 7/29/14
f 7/29/14 9/45/14 11/46/14
f 11/46/14 13/47/14 15/30/14
f 15/30/14 17/48/14 19/49/14
f 19/49/14 21/50/14 23/31/14
f 23/31/14 3/39/14 7/29/14
f 7/29/14 11/46/14 15/30/14
f 15/30/14 19/49/14 23/31/14
o Cubo.008
v 0.596462 1.148754 0.790000
v 0.617168 1.226028 0.790000
v 0.596462 1.148754 0.710000
v 0.617168 1.226028 0.710000
v 0.982832 1.045226 0.790000
v 1.003538 1.122500 0.790000
v 0.982832 1.045226 0.710000
v 1.003538 1.122500 0.710000
v -1.050000 1.360000 0.790000
v -1.050000 1.440000 0.790000
v -1.050000 1.360000 0.710000
v -1.050000 1.440000 0.710000
v -0.550000 1.360000 0.790000
v -0.550000 1.440000 0.790000
v -0.550000 1.360000 0.710000
v -0.550000 1.440000 0.710000
v 0.550000 1.360000 0.790000
v 0.550000 1.440000 0.790000
v 0.550000 1.360000 0.710000
v 0.550000 1.440000 0.710000
v 1.050000 1.360000 0.790000
v 1.050000 1.440000 0.790000
v 1.050000 1.360000 0.710000
v 1.050000 1.440000 0.710000
v -0.982832 1.045226 0.790000
v -1.003538 1.122500 0.790000
v -0.982832 1.045226 0.710000
v -1.003538 1.122500 0.710000
v -0.596462 1.148754 0.790000
v -0.617168 1.226028 0.790000
v -0.596462 1.148754 0.710000
v -0.617168 1.226028 0.710000
vn -0.9659 0.2588 -0.0000
vn -0.0000 -0.0000 -1.0000
vn 0.9659 -0.2588 -0.0000
vn -0.0000 -0.0000 1.0000
vn -0.2588 -0.9659 -0.0000
vn 0.2588 0.9659 -0.0000
vn -1.0000 -0.0000 -0.0000
vn 1.0000 -0.0000 -0.0000
vn -0.0000 -1.0000 -0.0000
vn -0.0000 1.0000 -0.0000
vn -0.9659 -0.2588 -0.0000
vn 0.9659 0.2588 -0.0000
vn 0.2588 -0.9659 -0.0000
vn -0.2588 0.9659 -0.0000
vt 0.242241 0.873371
vt 0.258179 0.891297
vt 0.258179 0.873371
vt 0.158286 0.951167
vt 0.174537 0.969093
vt 0.174537 0.951167
vt 0.242241 0.891297
vt 0.258179 0.909224
vt 0.175077 0.933240
vt 0.191328 0.951167
vt 0.191328 0.933240
vt 0.174537 0.933240
vt 0.190787 0.951167
vt 0.190787 0.969093
vt 0.225450 0.889631
vt 0.225450 0.873371
vt 0.249757 0.956688
vt 0.239482 0.933950
vt 0.239482 0.969391
vt 0.191868 0.969122
vt 0.208659 0.952861
vt 0.191868 0.952861
vt 0.229208 0.956688
vt 0.229208 0.921246
vt 0.208659 0.921246
vt 0.191868 0.921246
vt 0.242241 0.889631
vt 0.225450 0.921246
vt 0.242241 0.921246
vt 0.191868 0.889631
vt 0.208659 0.873371
vt 0.191868 0.873371
vt 0.218933 0.956688
vt 0.208659 0.933950
vt 0.208659 0.969391
vt 0.208659 0.921246
vt 0.225450 0.904986
vt 0.208659 0.904986
vt 0.218933 0.956688
vt 0.229208 0.933950
vt 0.218933 0.921246
vt 0.225450 0.873371
vt 0.208659 0.889631
vt 0.191868 0.921246
vt 0.175077 0.887768
vt 0.175077 0.873371
vt 0.256080 0.967314
vt 0.249757 0.934788
vt 0.249757 0.980856
vt 0.158286 0.933240
vt 0.175077 0.918843
vt 0.158286 0.918843
vt 0.256080 0.967314
vt 0.262404 0.934788
vt 0.256080 0.921246
vt 0.158286 0.873371
vt 0.191868 0.887768
vt 0.191868 0.933240
vt 0.158286 0.969093
vt 0.242241 0.909224
vt 0.175077 0.951167
vt 0.249757 0.921246
vt 0.208659 0.969122
vt 0.239482 0.969391
vt 0.218933 0.921246
vt 0.225450 0.921246
vt 0.229208 0.969391
vt 0.256080 0.921246
vt 0.262404 0.980856
s 1
usemtl molesAtlas
f 26/51/15 27/52/15 25/53/15
f 28/54/16 31/55/16 27/56/16
f 32/57/17 29/58/17 31/52/17
f 30/59/18 25/60/18 29/61/18
f 31/62/19 25/54/19 27/56/19
f 28/63/20 30/55/20 32/64/20
f 34/65/21 35/51/21 33/66/21
f 36/67/16 39/68/16 35/69/16
f 40/70/22 37/71/22 39/72/22
f 37/73/18 34/68/18 33/74/18
f 39/72/23 33/75/23 35/76/23
f 36/77/24 38/78/24 40/79/24
f 42/80/21 43/81/21 41/82/21
f 44/83/16 47/84/16 43/85/16
f 48/86/22 45/87/22 47/88/22
f 45/89/18 42/90/18 41/91/18
f 47/88/23 41/92/23 43/81/23
f 44/93/24 46/94/24 48/86/24
f 50/95/25 51/82/25 49/96/25
f 52/97/16 55/98/16 51/99/16
f 56/100/26 53/101/26 55/102/26
f 53/103/18 50/104/18 49/105/18
f 55/102/27 49/96/27 51/106/27
f 52/107/28 54/59/28 56/108/28
f 26/51/15 28/57/15 27/52/15
f 28/54/16 32/109/16 31/55/16
f 32/57/17 30/110/17 29/58/17
f 30/59/18 26/111/18 25/60/18
f 31/62/19 29/100/19 25/54/19
f 28/63/20 26/56/20 30/55/20
f 34/65/21 36/77/21 35/51/21
f 36/67/16 40/112/16 39/68/16
f 40/70/22 38/113/22 37/71/22
f 37/73/18 38/114/18 34/68/18
f 39/72/23 37/71/23 33/75/23
f 36/77/24 34/65/24 38/78/24
f 42/80/21 44/93/21 43/81/21
f 44/83/16 48/115/16 47/84/16
f 48/86/22 46/116/22 45/87/22
f 45/89/18 46/117/18 42/90/18
f 47/88/23 45/87/23 41/92/23
f 44/93/24 42/80/24 46/94/24
f 50/95/25 52/107/25 51/82/25
f 52/97/16 56/118/16 55/98/16
f 56/100/26 54/59/26 53/101/26
f 53/103/18 54/119/18 50/104/18
f 55/102/27 53/101/27 49/96/27
f 52/107/28 50/95/28 54/59/28
o eye01.007
v 0.500000 2.035985 0.660000
v 0.500000 2.035985 0.740000
v 0.562500 2.012539 0.660000
v 0.562500 2.012539 0.740000
v 0.608253 1.948485 0.660000
v 0.608253 1.948485 0.740000
v 0.625000 1.860985 0.660000
v 0.625000 1.860985 0.740000
v 0.608253 1.773485 0.660000
v 0.608253 1.773485 0.740000
v 0.562500 1.709430 0.660000
v 0.562500 1.709430 0.740000
v 0.500000 1.685985 0.660000
v 0.500000 1.685985 0.740000
v 0.437500 1.709430 0.660000
v 0.437500 1.709430 0.740000
v 0.391747 1.773484 0.660000
v 0.391747 1.773484 0.740000
v 0.375000 1.860984 0.660000
v 0.375000 1.860984 0.740000
v 0.391747 1.948485 0.660000
v 0.391747 1.948484 0.740000
v 0.437500 2.012539 0.660000
v 0.437500 2.012539 0.740000
vn 0.3512 0.9363 -0.0000
vn 0.8137 0.5812 -0.0000
vn 0.9822 0.1880 -0.0000
vn 0.9822 -0.1880 -0.0000
vn 0.8137 -0.5812 -0.0000
vn 0.3512 -0.9363 -0.0000
vn -0.3512 -0.9363 -0.0000
vn -0.8137 -0.5812 -0.0000
vn -0.9822 -0.1880 -0.0000
vn -0.9822 0.1880 -0.0000
vn -0.0000 -0.0000 1.0000
vn -0.8137 0.5812 -0.0000
vn -0.3512 0.9363 -0.0000
vn -0.0000 -0.0000 -1.0000
vt 0.174945 0.968306
vt 0.184989 0.928207
vt 0.174945 0.928207
vt 0.184989 0.968306
vt 0.193688 0.928207
vt 0.193688 0.968306
vt 0.198710 0.928207
vt 0.231175 0.968306
vt 0.236197 0.928207
vt 0.231175 0.928207
vt 0.236197 0.968306
vt 0.244896 0.928207
vt 0.244896 0.968306
vt 0.254940 0.928207
vt 0.254940 0.968306
vt 0.263639 0.928207
vt 0.198710 0.968306
vt 0.203733 0.928207
vt 0.203733 0.968306
vt 0.212431 0.928207
vt 0.212431 0.968306
vt 0.222476 0.928207
vt 0.225653 0.888270
vt 0.202603 0.913186
vt 0.234090 0.923003
vt 0.222476 0.968306
vt 0.231175 0.928207
vt 0.166246 0.968306
vt 0.166246 0.928207
vt 0.189296 0.888100
vt 0.166246 0.913821
vt 0.197732 0.922539
vt 0.263639 0.968306
vt 0.238961 0.913821
vt 0.238961 0.903120
vt 0.234090 0.893768
vt 0.215911 0.888100
vt 0.207474 0.893303
vt 0.202603 0.902485
vt 0.207474 0.922539
vt 0.215911 0.928036
vt 0.225653 0.928207
vt 0.231175 0.968306
vt 0.197732 0.893303
vt 0.179554 0.888270
vt 0.171117 0.893768
vt 0.166246 0.903120
vt 0.171117 0.923003
vt 0.179554 0.928207
vt 0.189296 0.928036
s 1
usemtl molesAtlas
f 58/120/29 59/121/29 57/122/29
f 60/123/30 61/124/30 59/121/30
f 62/125/31 63/126/31 61/124/31
f 64/127/32 65/128/32 63/129/32
f 66/130/33 67/131/33 65/128/33
f 68/132/34 69/133/34 67/131/34
f 70/134/35 71/135/35 69/133/35
f 72/136/36 73/137/36 71/126/36
f 74/138/37 75/139/37 73/137/37
f 76/140/38 77/141/38 75/139/38
f 78/142/39 70/143/39 62/144/39
f 78/145/40 79/146/40 77/141/40
f 80/147/41 57/122/41 79/148/41
f 63/149/42 71/150/42 79/151/42
f 58/120/29 60/123/29 59/121/29
f 60/123/30 62/125/30 61/124/30
f 62/125/31 64/136/31 63/126/31
f 64/127/32 66/130/32 65/128/32
f 66/130/33 68/132/33 67/131/33
f 68/132/34 70/134/34 69/133/34
f 70/134/35 72/152/35 71/135/35
f 72/136/36 74/138/36 73/137/36
f 74/138/37 76/140/37 75/139/37
f 76/140/38 78/145/38 77/141/38
f 62/144/39 60/153/39 58/154/39
f 58/154/39 80/155/39 78/142/39
f 78/142/39 76/156/39 74/157/39
f 74/157/39 72/158/39 70/143/39
f 70/143/39 68/159/39 66/160/39
f 66/160/39 64/161/39 62/144/39
f 62/144/39 58/154/39 78/142/39
f 78/142/39 74/157/39 70/143/39
f 70/143/39 66/160/39 62/144/39
f 78/145/40 80/162/40 79/146/40
f 80/147/41 58/120/41 57/122/41
f 79/151/42 57/143/42 59/158/42
f 59/158/42 61/163/42 63/149/42
f 63/149/42 65/164/42 67/165/42
f 67/165/42 69/166/42 71/150/42
f 71/150/42 73/167/42 75/168/42
f 75/168/42 77/169/42 79/151/42
f 79/151/42 59/158/42 63/149/42
f 63/149/42 67/165/42 71/150/42
f 71/150/42 75/168/42 79/151/42
