# Blender 5.0.0
# www.blender.org
mtllib MoleNail2.mtl
o RightHand.001
v 0.894535 0.625397 0.934675
v 0.918616 0.980590 0.983028
v 0.920240 0.296532 0.836169
v 0.946130 0.289423 1.367574
v 0.999799 0.598963 0.952921
v 1.225719 0.306855 0.792647
v 1.192097 0.584041 0.993863
v 0.776978 0.908238 1.411871
v 0.849210 0.867080 0.959237
v 1.224544 0.768106 1.046843
v 0.737559 1.343723 1.230204
v 0.791193 1.213100 0.848956
v 1.114240 1.165304 0.984110
v 0.940777 1.348796 0.818779
vn -0.9705 0.2358 0.0504
vn -0.0636 0.8036 0.5917
vn 0.8834 -0.2003 0.4236
vn 0.0316 -0.9994 -0.0149
vn -0.2348 -0.2957 0.9260
vn -0.9756 -0.1687 -0.1404
vn -0.8219 0.5403 -0.1803
vn 0.5005 0.8113 0.3022
vn 0.1763 -0.8271 0.5337
vn -0.8847 -0.4648 0.0348
vn -0.6708 0.6676 -0.3231
vn 0.5557 0.7813 0.2841
vn 0.3657 -0.3922 0.8441
vt 0.410230 0.940448
vt 0.410230 0.915687
vt 0.400258 0.938090
vt 0.409945 0.891711
vt 0.408303 0.870745
vt 0.401640 0.891711
vt 0.317343 0.894258
vt 0.308556 0.870745
vt 0.306658 0.901228
vt 0.353365 0.944566
vt 0.371367 0.967881
vt 0.366327 0.943762
vt 0.525808 0.769995
vt 0.536909 0.766857
vt 0.534345 0.763067
vt 0.397709 0.950077
vt 0.409876 0.970821
vt 0.406504 0.949340
vt 0.409876 0.948737
vt 0.386898 0.956632
vt 0.397709 0.975118
vt 0.397709 0.948737
vt 0.371367 0.952781
vt 0.386898 0.972726
vt 0.386898 0.949149
vt 0.317769 0.979611
vt 0.311785 0.962144
vt 0.306658 0.979611
vt 0.372860 0.887805
vt 0.378195 0.870745
vt 0.366135 0.888346
vt 0.360723 0.878603
vt 0.409403 0.909410
vt 0.409403 0.891711
vt 0.401640 0.908228
s 1
usemtl molesAtlas
f 3/1/1 4/2/1 5/3/1
f 5/4/2 4/5/2 7/6/2
f 7/7/3 4/8/3 6/9/3
f 6/10/4 4/11/4 3/12/4
f 3/13/5 5/14/5 1/15/5
f 1/16/6 8/17/6 9/18/6
f 9/18/7 8/17/7 2/19/7
f 2/20/8 8/21/8 10/22/8
f 10/23/9 8/24/9 1/25/9
f 2/26/10 11/27/10 12/28/10
f 12/29/11 11/30/11 14/31/11
f 14/31/12 11/30/12 13/32/12
f 13/33/13 11/34/13 2/35/13
o LeftHand.001
v -0.839153 0.928836 0.933605
v -0.987095 0.605389 0.984350
v -0.747151 1.244898 0.832826
v -0.768198 1.264319 1.364138
v -0.928270 0.990874 0.951539
v -1.036636 1.342856 0.788996
v -1.102848 1.073043 0.992140
v -0.828496 0.625965 1.412866
v -0.882096 0.686897 0.959872
v -1.198158 0.912674 1.046333
v -0.945681 0.203403 1.234223
v -0.950190 0.341947 0.852027
v -1.235356 0.501701 0.986449
v -1.138102 0.267639 0.822589
vn 0.8247 -0.5631 0.0533
vn -0.2236 -0.7703 0.5972
vn -0.7552 0.5024 0.4211
vn 0.3234 0.9460 -0.0218
vn 0.3252 0.2000 0.9242
vn 0.9721 -0.1878 -0.1403
vn 0.5778 -0.7971 -0.1756
vn -0.7544 -0.5801 0.3071
vn 0.1279 0.8397 0.5278
vn 0.9919 0.1225 0.0327
vn 0.3913 -0.8637 -0.3177
vn -0.7955 -0.5327 0.2887
vn -0.2025 0.5018 0.8409
vt 0.412991 0.943638
vt 0.412991 0.917556
vt 0.402488 0.941153
vt 0.412691 0.892302
vt 0.410961 0.870218
vt 0.403943 0.892302
vt 0.315152 0.894984
vt 0.305896 0.870218
vt 0.303897 0.902326
vt 0.353094 0.947975
vt 0.372056 0.972533
vt 0.366747 0.947128
vt 0.520113 0.769067
vt 0.531806 0.765761
vt 0.529105 0.761769
vt 0.399803 0.953780
vt 0.412618 0.975630
vt 0.409066 0.953003
vt 0.412618 0.952368
vt 0.388415 0.960684
vt 0.399803 0.980156
vt 0.399803 0.952368
vt 0.372056 0.956628
vt 0.388415 0.977637
vt 0.388415 0.952802
vt 0.315600 0.984888
vt 0.309297 0.966491
vt 0.303897 0.984888
vt 0.373628 0.888187
vt 0.379248 0.870218
vt 0.366546 0.888758
vt 0.360845 0.878495
vt 0.412119 0.910945
vt 0.412119 0.892302
vt 0.403943 0.909700
s 1
usemtl molesAtlas
f 17/36/14 18/37/14 19/38/14
f 19/39/15 18/40/15 21/41/15
f 21/42/16 18/43/16 20/44/16
f 20/45/17 18/46/17 17/47/17
f 17/48/18 19/49/18 15/50/18
f 15/51/19 22/52/19 23/53/19
f 23/53/20 22/52/20 16/54/20
f 16/55/21 22/56/21 24/57/21
f 24/58/22 22/59/22 15/60/22
f 16/61/23 25/62/23 26/63/23
f 26/64/24 25/65/24 28/66/24
f 28/66/25 25/65/25 27/67/25
f 27/68/26 25/69/26 16/70/26
