# Blender 5.0.0
# www.blender.org
mtllib MoleBody.mtl
o LeftHand
v -1.194856 0.462500 0.425000
v -0.694953 0.604749 0.573799
v -1.079225 0.939165 0.742635
v -1.474440 0.872671 0.300624
v -1.462085 0.570863 -0.141386
v -0.852671 0.331574 0.027450
v -0.665580 1.102845 0.541386
v -1.147329 1.268426 0.372551
v -1.305047 0.995251 -0.173799
v -0.920775 0.660835 -0.342635
v -0.525560 0.727329 0.099377
v -0.805144 1.137500 -0.025000
v -0.935233 0.486857 0.551964
v -0.867266 0.767034 0.738666
v -0.734101 0.409902 0.318291
v -1.027936 0.326290 0.230830
v -1.431337 0.695086 0.434667
v -1.325438 0.924514 0.578097
v -1.311100 0.423615 0.131592
v -1.525863 0.693822 0.058485
v -1.109969 0.346659 -0.102084
v -0.541828 0.642519 0.360568
v -0.634532 0.481952 0.039432
v -0.850000 1.059808 0.719615
v -0.624129 0.863242 0.620377
v -1.365468 1.118048 0.360568
v -1.133166 1.157135 0.620377
v -1.375871 0.736758 -0.220377
v -1.458172 0.957481 0.039432
v -0.866834 0.442865 -0.220377
v -1.150000 0.540192 -0.319615
v -0.524563 0.935292 0.341515
v -0.890031 1.253341 0.502084
v -1.265899 1.190098 0.081709
v -1.132734 0.832966 -0.338666
v -0.674562 0.675486 -0.178097
v -0.688901 1.176384 0.268408
v -0.606598 0.955662 0.008603
v -0.972064 1.273710 0.169170
v -1.064767 1.113143 -0.151964
v -0.838899 0.916579 -0.251202
v -1.034290 0.586601 0.753136
v -1.246303 0.539958 0.499562
v -1.207994 0.841633 0.763340
v -1.398457 0.657300 0.543806
v -1.219545 0.398455 0.227781
v -1.504172 0.628993 0.383299
v -1.191437 0.395605 -0.138906
v -1.488130 0.550956 -0.025995
v -1.303495 0.514016 -0.261873
vn 0.0746 0.0109 0.9972
vn 0.3308 -0.7742 0.5397
vn 0.0915 0.0898 0.9918
vn 0.6794 -0.6299 0.3763
vn 0.0680 0.0608 0.9958
vn -0.8659 0.2839 0.4119
vn -0.8687 0.2471 -0.4292
vn 0.1548 -0.8979 -0.4121
vn 0.7971 -0.3116 0.5172
vn -0.1512 0.4548 0.8776
vn -0.9179 0.3906 0.0697
vn -0.6162 -0.0539 -0.7857
vn 0.5410 -0.7552 -0.3701
vn 0.8108 0.5789 0.0867
vn 0.0317 0.9981 0.0533
vn -0.3308 0.7742 -0.5397
vn 0.2028 0.2714 -0.9408
vn 0.8662 0.1140 -0.4865
vn 0.5899 0.5319 -0.6075
vn 0.6963 0.2734 -0.6637
vn 0.5465 0.1213 -0.8286
vn 0.2760 0.6667 -0.6923
vn 0.0974 0.5354 -0.8389
vn -0.2114 0.5770 -0.7889
vn 0.1519 0.8658 -0.4768
vn -0.1338 0.9013 -0.4120
vn -0.2234 0.9602 -0.1675
vn 0.3970 0.8762 -0.2734
vn 0.3325 0.9428 -0.0243
vn 0.5261 0.8314 0.1790
vn 0.6641 0.6603 -0.3506
vn 0.8374 0.5179 -0.1747
vn 0.9439 0.2486 -0.2174
vn 0.8659 -0.2839 -0.4119
vn 0.6913 -0.4720 -0.5471
vn 0.5416 -0.3053 -0.7832
vn -0.0680 -0.0608 -0.9958
vn -0.4264 -0.0337 -0.9039
vn -0.5083 0.2857 -0.8124
vn -0.6794 0.6299 -0.3763
vn -0.7573 0.6448 -0.1038
vn -0.5679 0.8230 0.0099
vn -0.1548 0.8979 0.4121
vn 0.0256 0.7492 0.6618
vn 0.3849 0.7236 0.5730
vn 0.8791 0.2794 0.3861
vn 0.9440 -0.0343 0.3282
vn 0.9975 -0.0560 0.0440
vn 0.1512 -0.4548 -0.8776
vn -0.0256 -0.7492 -0.6618
vn -0.1091 -0.7638 -0.6361
vn -0.7971 0.3116 -0.5172
vn -0.8762 0.1930 -0.4416
vn -0.9680 0.2500 0.0209
vn -0.5410 0.7552 0.3701
vn -0.6913 0.4720 0.5471
vn -0.5416 0.3053 0.7832
vn 0.6108 0.3412 0.7145
vn 0.4264 0.0337 0.9039
vn 0.5083 -0.2857 0.8124
vn 0.9179 -0.3906 -0.0697
vn 0.7573 -0.6448 0.1038
vn 0.5679 -0.8230 -0.0099
vn -0.0317 -0.9981 -0.0533
vn -0.3325 -0.9428 0.0243
vn -0.1629 -0.7518 -0.6389
vn -0.3523 -0.9314 0.0916
vn -0.9685 -0.0513 0.2435
vn -0.8836 0.1259 0.4510
vn -0.4297 0.6908 0.5815
vn -0.9151 0.2056 0.3469
vn 0.2234 -0.9602 0.1675
vn 0.1338 -0.9013 0.4120
vn -0.1519 -0.8658 0.4768
vn -0.6722 -0.6942 0.2573
vn -0.1091 -0.9109 0.3979
vn 0.2114 -0.5770 0.7889
vn 0.6246 -0.5323 0.5715
vn -0.8047 0.1460 0.5755
vn -0.6234 -0.7776 -0.0814
vn -0.3073 -0.3493 0.8852
vn -0.7278 0.6616 0.1806
vn -0.3374 -0.8821 0.3287
vn -0.7707 -0.6328 -0.0748
vn -0.7508 -0.4717 0.4623
vn -0.9646 -0.1144 -0.2375
vn -0.4919 -0.8326 -0.2547
vn -0.3600 0.0565 -0.9313
vn -0.4716 -0.8739 -0.1181
vt 0.062754 0.948246
vt 0.075762 0.947358
vt 0.072549 0.936397
vt 0.016655 0.950897
vt 0.015963 0.961328
vt 0.025640 0.958383
vt 0.061730 0.940719
vt 0.025640 0.944750
vt 0.061974 0.928662
vt 0.034191 0.909726
vt 0.022895 0.909435
vt 0.029314 0.920695
vt 0.050971 0.905693
vt 0.044108 0.905905
vt 0.051552 0.915543
vt 0.095764 0.880082
vt 0.106042 0.882190
vt 0.103924 0.874187
vt 0.015963 0.939268
vt 0.051552 0.936905
vt 0.042208 0.918338
vt 0.075556 0.891822
vt 0.070000 0.885322
vt 0.065824 0.893895
vt 0.035906 0.963138
vt 0.045588 0.958105
vt 0.036956 0.951945
vt 0.109524 0.933465
vt 0.104789 0.922860
vt 0.099191 0.932549
vt 0.097902 0.953937
vt 0.105074 0.944582
vt 0.092360 0.944582
vt 0.057894 0.902216
vt 0.051552 0.904541
vt 0.058797 0.913914
vt 0.078522 0.911236
vt 0.067617 0.907335
vt 0.070922 0.919216
vt 0.035907 0.939943
vt 0.045588 0.944471
vt 0.039607 0.932658
vt 0.092075 0.922860
vt 0.080846 0.928905
vt 0.087894 0.933465
vt 0.086444 0.919216
vt 0.083296 0.918421
vt 0.081022 0.942330
vt 0.086905 0.954363
vt 0.027279 0.932830
vt 0.087639 0.906048
vt 0.077949 0.899197
vt 0.037107 0.930617
vt 0.047449 0.926607
vt 0.025512 0.930617
vt 0.107477 0.954363
vt 0.052213 0.924266
vt 0.062854 0.919216
vt 0.019443 0.930617
vt 0.085846 0.892608
vt 0.082294 0.891279
vt 0.055895 0.892168
vt 0.017794 0.921714
vt 0.055687 0.949734
vt 0.073210 0.923758
vt 0.080846 0.932376
vt 0.095978 0.890459
vt 0.107974 0.895271
vt 0.102802 0.895817
vt 0.030434 0.900721
vt 0.026669 0.897745
vt 0.027279 0.968523
vt 0.087639 0.887566
vt 0.089572 0.900647
vt 0.099052 0.902336
vt 0.100397 0.906957
vt 0.110104 0.911383
vt 0.089875 0.910660
vt 0.079900 0.944516
vt 0.026946 0.977430
vt 0.033603 0.981951
vt 0.033603 0.968523
vt 0.015963 0.904729
vt 0.106005 0.913519
vt 0.080846 0.958367
vt 0.095749 0.956077
vt 0.081837 0.954363
vt 0.033404 0.897629
vt 0.026946 0.968523
vt 0.015963 0.974415
vt 0.026946 0.984350
vt 0.016596 0.980337
vt 0.047513 0.902269
vt 0.048031 0.942841
vt 0.048031 0.930617
vt 0.045588 0.934432
vt 0.110104 0.883608
s 1
usemtl molesAtlas
f 44/1/1 42/2/1 14/3/1
f 2/4/2 13/5/2 15/6/2
f 44/1/3 14/3/3 3/7/3
f 2/4/4 15/6/4 22/8/4
f 3/7/5 14/3/5 24/9/5
f 4/10/6 18/11/6 26/12/6
f 5/13/7 20/14/7 28/15/7
f 6/16/8 21/17/8 30/18/8
f 2/4/9 22/8/9 25/19/9
f 3/7/10 24/9/10 27/20/10
f 4/10/11 26/12/11 29/21/11
f 50/22/12 5/23/12 28/24/12
f 6/25/13 30/26/13 23/27/13
f 7/28/14 32/29/14 37/30/14
f 8/31/15 33/32/15 39/33/15
f 9/34/16 34/35/16 40/36/16
f 10/37/17 35/38/17 41/39/17
f 11/40/18 36/41/18 38/42/18
f 38/43/19 41/44/19 12/45/19
f 38/43/20 36/46/20 41/44/20
f 36/47/21 10/37/21 41/39/21
f 41/44/22 40/48/22 12/45/22
f 41/39/23 35/38/23 40/36/23
f 35/38/24 9/34/24 40/36/24
f 40/48/25 39/33/25 12/45/25
f 40/48/26 34/49/26 39/33/26
f 34/49/27 8/31/27 39/33/27
f 39/33/28 37/30/28 12/45/28
f 39/33/29 33/32/29 37/30/29
f 33/32/30 7/28/30 37/30/30
f 37/30/31 38/43/31 12/45/31
f 37/30/32 32/29/32 38/43/32
f 32/50/33 11/40/33 38/42/33
f 23/27/34 36/41/34 11/40/34
f 23/27/35 30/26/35 36/41/35
f 30/51/36 10/37/36 36/47/36
f 31/52/37 35/38/37 10/37/37
f 31/52/38 28/24/38 35/38/38
f 28/24/39 9/34/39 35/38/39
f 29/21/40 34/53/40 9/54/40
f 29/21/41 26/12/41 34/53/41
f 26/12/42 8/55/42 34/53/42
f 27/56/43 33/32/43 8/31/43
f 27/20/44 24/9/44 33/57/44
f 24/9/45 7/58/45 33/57/45
f 25/19/46 32/50/46 7/59/46
f 25/19/47 22/8/47 32/50/47
f 22/8/48 11/40/48 32/50/48
f 30/51/49 31/52/49 10/37/49
f 30/51/50 21/60/50 31/52/50
f 50/22/51 31/52/51 48/61/51
f 28/24/52 29/62/52 9/34/52
f 28/15/53 20/14/53 29/21/53
f 20/14/54 4/10/54 29/21/54
f 26/12/55 27/63/55 8/55/55
f 26/12/56 18/11/56 27/63/56
f 18/64/57 3/7/57 27/20/57
f 24/9/58 25/65/58 7/58/58
f 24/9/59 14/3/59 25/65/59
f 14/3/60 2/66/60 25/65/60
f 22/8/61 23/27/61 11/40/61
f 22/8/62 15/6/62 23/27/62
f 15/6/63 6/25/63 23/27/63
f 16/67/64 21/17/64 6/16/64
f 16/67/65 19/68/65 21/17/65
f 48/61/66 31/52/66 21/60/66
f 46/69/67 19/68/67 16/67/67
f 17/70/68 4/10/68 20/14/68
f 17/70/69 18/11/69 4/10/69
f 44/1/70 3/7/70 18/64/70
f 45/71/71 18/11/71 17/70/71
f 15/6/72 16/72/72 6/25/72
f 15/73/73 13/74/73 16/67/73
f 13/74/74 1/75/74 16/67/74
f 43/76/75 17/77/75 1/75/75
f 13/74/76 42/78/76 1/75/76
f 13/79/77 2/66/77 14/3/77
f 42/80/78 13/81/78 14/82/78
f 45/71/79 44/83/79 18/11/79
f 43/76/80 45/84/80 17/77/80
f 47/85/81 1/86/81 17/87/81
f 47/88/82 17/70/82 20/14/82
f 46/69/83 16/67/83 1/75/83
f 47/89/84 20/90/84 19/91/84
f 49/92/85 19/91/85 20/90/85
f 49/93/86 20/14/86 5/13/86
f 50/94/87 49/95/87 5/96/87
f 50/22/88 28/24/88 31/52/88
f 19/68/89 48/97/89 21/17/89
o Body
v 0.000000 0.000000 0.000000
v 0.868329 0.329171 0.525725
v -0.331666 0.329170 0.850649
v -1.073312 0.329177 0.000000
v -0.331666 0.329170 -0.850649
v 0.868329 0.329171 -0.525725
v 0.331666 1.670830 0.750649
v -0.868329 1.670829 0.525725
v -0.868329 1.670829 -0.525725
v 0.331666 1.670830 -0.850649
v 1.073312 1.670823 0.000000
v 0.000000 2.500000 0.000000
v -0.194947 -0.025982 0.499995
v 0.510387 -0.025981 0.309011
v 0.315443 0.211394 0.809012
v 1.020777 0.211396 0.000000
v 0.510387 -0.025981 -0.309011
v -0.630876 -0.025977 0.000000
v -0.825827 0.211396 0.499997
v -0.194947 -0.025982 -0.499995
v -0.825827 0.211396 -0.499997
v 0.315443 0.211394 -0.809012
v 1.141269 1.000000 0.309013
v 1.141269 1.000000 -0.309013
v 0.000000 1.000000 0.980175
v 0.705343 1.000000 0.789191
v -1.141269 1.000000 0.309013
v -0.705343 1.000000 0.789191
v -0.705343 1.000000 -0.809017
v -1.141269 1.000000 -0.309013
v 0.705343 1.000000 -0.809017
v 0.000000 1.000000 -1.000000
v 0.825827 1.788604 0.499997
v -0.315443 1.788606 0.709012
v -1.020777 1.788604 0.000000
v -0.315443 1.788606 -0.809012
v 0.825827 1.788604 -0.499997
v 0.194947 2.275981 0.499995
v 0.630876 2.275978 0.000000
v -0.510387 2.275981 0.309011
v -0.510387 2.275981 -0.309011
v 0.194947 2.275981 -0.499995
vn -0.0157 -0.9982 -0.0580
vn 0.5555 -0.7624 0.3319
vn 0.0411 -0.9985 -0.0359
vn 0.0411 -0.9985 0.0359
vn -0.0157 -0.9982 0.0580
vn 0.9085 -0.2653 0.3229
vn 0.0262 -0.2020 0.9790
vn -0.8878 -0.2637 0.3773
vn -0.5229 -0.2405 -0.8177
vn 0.4826 -0.2386 -0.8427
vn 0.7378 -0.0838 0.6698
vn -0.2609 -0.0571 0.9637
vn -0.9949 -0.1008 -0.0000
vn -0.2604 -0.0854 -0.9617
vn 0.7504 -0.0940 -0.6542
vn 0.3274 0.4238 0.8445
vn -0.3666 0.4982 0.7857
vn -0.7490 0.5662 -0.3440
vn 0.0369 0.5073 -0.8610
vn 0.7812 0.5711 -0.2521
vn 0.3212 0.9046 -0.2801
vn 0.5395 0.6984 -0.4704
vn 0.4057 0.5251 -0.7481
vn -0.1204 0.8876 -0.4446
vn -0.1957 0.6630 -0.7226
vn -0.4732 0.5315 -0.7026
vn -0.4019 0.9157 -0.0000
vn -0.6906 0.7232 -0.0000
vn -0.7490 0.5662 0.3440
vn -0.1204 0.8876 0.4446
vn -0.2154 0.5666 0.7953
vn 0.0106 0.3847 0.9230
vn 0.3212 0.9046 0.2801
vn 0.5395 0.6984 0.4704
vn 0.7812 0.5711 0.2521
vn 0.8878 0.2637 -0.3773
vn 0.7462 0.1409 -0.6506
vn 0.5229 0.2405 -0.8177
vn -0.0213 0.2273 -0.9736
vn -0.2592 0.1282 -0.9573
vn -0.4826 0.2386 -0.8427
vn -0.9085 0.2653 -0.3229
vn -0.9885 0.1510 -0.0000
vn -0.9085 0.2653 0.3229
vn -0.3539 0.2661 0.8966
vn -0.2549 0.2217 0.9412
vn -0.0018 0.3245 0.9459
vn 0.3851 0.2653 0.8839
vn 0.7339 0.1322 0.6663
vn 0.8878 0.2637 0.3773
vn 0.2604 0.0854 -0.9617
vn 0.2592 -0.1282 -0.9573
vn 0.0213 -0.2273 -0.9736
vn -0.7504 0.0940 -0.6542
vn -0.7462 -0.1409 -0.6506
vn -0.8878 -0.2637 -0.3773
vn -0.7378 0.0838 0.6698
vn -0.7339 -0.1322 0.6663
vn -0.5292 -0.2197 0.8196
vn 0.2562 0.1971 0.9463
vn 0.2599 -0.1044 0.9600
vn 0.4813 -0.2166 0.8493
vn 0.9949 0.1008 -0.0000
vn 0.9885 -0.1510 -0.0000
vn 0.9085 -0.2653 -0.3229
vn 0.4237 -0.7431 -0.5180
vn 0.1259 -0.8763 -0.4651
vn -0.0859 -0.7165 -0.6922
vn -0.2736 -0.7271 -0.6297
vn -0.3366 -0.8947 -0.2935
vn -0.6211 -0.7737 -0.1252
vn -0.6211 -0.7737 0.1252
vn -0.3366 -0.8947 0.2935
vn -0.2736 -0.7271 0.6297
vn 0.5555 -0.7624 -0.3319
vn 0.4217 -0.9067 -0.0000
vn -0.0508 -0.9987 -0.0000
vn -0.0859 -0.7165 0.6922
vn 0.1259 -0.8763 0.4651
vn 0.4237 -0.7431 0.5180
vt 0.036990 0.907953
vt 0.025073 0.899720
vt 0.026526 0.918192
vt 0.015351 0.894069
vt 0.027341 0.884468
vt 0.042571 0.922502
vt 0.051034 0.906693
vt 0.040220 0.892614
vt 0.099743 0.938792
vt 0.097647 0.954560
vt 0.111970 0.945292
vt 0.059519 0.906332
vt 0.060297 0.921580
vt 0.070088 0.914969
vt 0.060032 0.955925
vt 0.059519 0.969737
vt 0.071302 0.965862
vt 0.122728 0.892290
vt 0.126583 0.881979
vt 0.110988 0.883751
vt 0.124333 0.923536
vt 0.125026 0.908342
vt 0.110968 0.918410
vt 0.111860 0.930890
vt 0.069833 0.896451
vt 0.071302 0.947545
vt 0.110025 0.900044
vt 0.099743 0.970328
vt 0.111860 0.978825
vt 0.111970 0.963828
vt 0.084726 0.920605
vt 0.091176 0.930295
vt 0.096930 0.914867
vt 0.083159 0.889936
vt 0.084892 0.904662
vt 0.096675 0.896349
vt 0.084693 0.940642
vt 0.085797 0.956879
vt 0.097468 0.946218
vt 0.013647 0.959910
vt 0.019701 0.973973
vt 0.027242 0.961321
vt 0.029309 0.933171
vt 0.019701 0.945354
vt 0.036448 0.945604
vt 0.042139 0.960335
vt 0.036449 0.974223
vt 0.090186 0.930295
vt 0.051344 0.966481
vt 0.097468 0.964535
vt 0.084693 0.971805
vt 0.051344 0.948794
vt 0.043803 0.932827
vt 0.126184 0.969556
vt 0.124112 0.954560
vt 0.098812 0.909419
vt 0.098456 0.923536
vt 0.096930 0.893819
vt 0.074015 0.931115
vt 0.074672 0.930295
vt 0.126184 0.939563
vt 0.059519 0.940099
vt 0.073779 0.881979
vt 0.059884 0.891617
vt 0.097468 0.930295
vt 0.053302 0.891441
vt 0.041121 0.881979
vt 0.059519 0.905933
vt 0.055653 0.921329
vt 0.045121 0.932827
vt 0.031145 0.932827
vt 0.017823 0.925495
vt 0.013647 0.910046
s 1
usemtl molesAtlas
f 51/98/90 64/99/90 63/100/90
f 52/101/91 64/99/91 66/102/91
f 51/98/92 63/100/92 68/103/92
f 51/98/93 68/103/93 70/104/93
f 51/98/94 70/104/94 67/105/94
f 52/106/95 66/107/95 73/108/95
f 53/109/96 65/110/96 75/111/96
f 54/112/97 69/113/97 77/114/97
f 55/115/98 71/116/98 79/117/98
f 56/118/99 72/119/99 81/120/99
f 52/106/100 73/108/100 76/121/100
f 53/109/101 75/111/101 78/122/101
f 54/112/102 77/114/102 80/123/102
f 55/115/103 79/117/103 82/124/103
f 56/125/104 81/126/104 74/127/104
f 57/128/105 83/129/105 88/130/105
f 58/131/106 84/132/106 90/133/106
f 59/134/107 85/135/107 91/136/107
f 60/137/108 86/138/108 92/139/108
f 61/140/109 87/141/109 89/142/109
f 89/142/110 92/139/110 62/143/110
f 89/142/111 87/141/111 92/139/111
f 87/141/112 60/137/112 92/139/112
f 92/139/113 91/144/113 62/143/113
f 92/139/114 86/138/114 91/144/114
f 86/145/115 59/134/115 91/136/115
f 91/144/116 90/146/116 62/143/116
f 91/136/117 85/135/117 90/147/117
f 85/135/118 58/148/118 90/147/118
f 90/146/119 88/149/119 62/143/119
f 90/133/120 84/132/120 88/130/120
f 84/132/121 57/128/121 88/130/121
f 88/149/122 89/142/122 62/143/122
f 88/149/123 83/150/123 89/142/123
f 83/150/124 61/140/124 89/142/124
f 74/127/125 87/151/125 61/152/125
f 74/127/126 81/126/126 87/151/126
f 81/120/127 60/153/127 87/154/127
f 82/124/128 86/155/128 60/153/128
f 82/124/129 79/117/129 86/155/129
f 79/156/130 59/134/130 86/145/130
f 80/123/131 85/135/131 59/134/131
f 80/123/132 77/114/132 85/135/132
f 77/114/133 58/148/133 85/135/133
f 78/122/134 84/132/134 58/131/134
f 78/122/135 75/111/135 84/132/135
f 75/111/136 57/128/136 84/132/136
f 76/157/137 83/129/137 57/128/137
f 76/121/138 73/108/138 83/158/138
f 73/108/139 61/152/139 83/158/139
f 81/120/140 82/124/140 60/153/140
f 81/120/141 72/119/141 82/124/141
f 72/119/142 55/115/142 82/124/142
f 79/156/143 80/123/143 59/134/143
f 79/156/144 71/159/144 80/123/144
f 71/159/145 54/112/145 80/123/145
f 77/160/146 78/122/146 58/131/146
f 77/160/147 69/161/147 78/122/147
f 69/161/148 53/109/148 78/122/148
f 75/111/149 76/157/149 57/128/149
f 75/111/150 65/110/150 76/157/150
f 65/162/151 52/106/151 76/121/151
f 73/108/152 74/127/152 61/152/152
f 73/108/153 66/107/153 74/127/153
f 66/107/154 56/125/154 74/127/154
f 67/105/155 72/163/155 56/164/155
f 67/105/156 70/104/156 72/163/156
f 70/104/157 55/165/157 72/163/157
f 70/104/158 71/166/158 55/165/158
f 70/104/159 68/103/159 71/166/159
f 68/103/160 54/167/160 71/166/160
f 68/103/161 69/168/161 54/167/161
f 68/103/162 63/100/162 69/168/162
f 63/100/163 53/169/163 69/168/163
f 66/102/164 67/105/164 56/164/164
f 66/102/165 64/99/165 67/105/165
f 64/99/166 51/98/166 67/105/166
f 63/100/167 65/170/167 53/169/167
f 63/100/168 64/99/168 65/170/168
f 64/99/169 52/101/169 65/170/169
o RightHand
v 1.225000 0.410289 0.200000
v 0.787293 0.444812 -0.115435
v 1.220304 0.694810 -0.310390
v 1.487921 0.849322 0.200000
v 1.347969 0.768518 0.710390
v 0.787293 0.444812 0.515435
v 0.779696 0.905190 -0.310390
v 1.212707 1.155188 -0.115435
v 1.212707 1.155188 0.515435
v 0.779696 0.905190 0.710390
v 0.512079 0.750678 0.200000
v 0.775000 1.189711 0.200000
v 1.007227 0.362160 0.014593
v 1.004465 0.529397 -0.285407
v 0.749949 0.382453 0.200000
v 1.007227 0.362160 0.385407
v 1.469471 0.629037 0.150036
v 1.416285 0.767162 -0.099998
v 1.261743 0.509104 0.499997
v 1.466712 0.796275 0.499998
v 1.004465 0.529397 0.685407
v 0.588180 0.562236 0.014593
v 0.588180 0.562236 0.385408
v 1.000000 0.800000 -0.400000
v 0.745481 0.653054 -0.285410
v 1.411820 1.037764 0.014592
v 1.254519 0.946946 -0.285410
v 1.254519 0.946946 0.685410
v 1.411820 1.037764 0.385408
v 0.745481 0.653054 0.685410
v 1.000000 0.800000 0.800000
v 0.583715 0.832838 -0.099998
v 0.995534 1.070603 -0.285407
v 1.250051 1.217547 0.200000
v 0.995535 1.070603 0.685407
v 0.583715 0.832838 0.499998
v 0.738257 1.090896 -0.099997
v 0.580956 1.000076 0.200000
v 0.992773 1.237840 0.014593
v 0.992773 1.237840 0.385407
v 0.738258 1.090896 0.499997
v 1.159045 0.370518 -0.178053
v 1.297858 0.450662 0.114749
v 1.344278 0.605583 -0.253896
v 1.462785 0.545882 0.063661
v 1.195843 0.439509 0.404701
v 1.523190 0.596053 0.241350
v 1.076838 0.594095 0.716469
v 1.400835 0.702157 0.625589
v 1.161271 0.760356 0.799702
vn 0.1778 -0.4263 -0.8869
vn -0.2297 -0.9492 -0.2149
vn 0.1647 -0.3540 -0.9206
vn -0.5991 -0.7690 -0.2230
vn 0.1867 -0.3805 -0.9057
vn 0.9563 0.1272 -0.2632
vn 0.7467 0.4585 0.4819
vn -0.3047 -0.6382 0.7070
vn -0.6592 -0.5505 -0.5123
vn 0.3920 0.0379 -0.9192
vn 0.9272 0.3745 -0.0000
vn 0.3960 0.3275 0.8578
vn -0.6592 -0.5505 0.5123
vn -0.7283 0.4362 -0.5285
vn 0.0406 0.8729 -0.4862
vn 0.2297 0.9492 0.2149
vn -0.4155 0.6398 0.6466
vn -0.9522 0.2630 0.1554
vn -0.6912 0.7073 0.1483
vn -0.8230 0.4929 0.2823
vn -0.7283 0.4362 0.5285
vn -0.4012 0.8835 0.2419
vn -0.2728 0.8393 0.4704
vn 0.0406 0.8729 0.4862
vn -0.2158 0.9764 -0.0000
vn 0.0786 0.9969 -0.0000
vn 0.2297 0.9492 -0.2149
vn -0.4012 0.8835 -0.2419
vn -0.2728 0.8393 -0.4704
vn -0.4155 0.6398 -0.6466
vn -0.6912 0.7073 -0.1483
vn -0.8230 0.4929 -0.2823
vn -0.9522 0.2630 -0.1554
vn -0.9563 -0.1272 0.2632
vn -0.8323 -0.2277 0.5054
vn -0.7370 0.0331 0.6751
vn -0.1868 0.3805 0.9057
vn 0.1842 0.3859 0.9040
vn 0.3047 0.6382 0.7070
vn 0.5991 0.7690 0.2230
vn 0.7434 0.6689 -0.0000
vn 0.5991 0.7690 -0.2230
vn 0.3047 0.6382 -0.7070
vn 0.1842 0.3859 -0.9040
vn -0.1868 0.3805 -0.9057
vn -0.7370 0.0331 -0.6751
vn -0.8323 -0.2277 -0.5054
vn -0.9563 -0.1272 -0.2632
vn -0.3920 -0.0379 0.9192
vn -0.1842 -0.3859 0.9040
vn -0.0979 -0.4053 0.9089
vn 0.6592 0.5505 0.5123
vn 0.7477 0.4157 0.5179
vn 0.9553 0.2720 0.1156
vn 0.6592 0.5505 -0.5123
vn 0.8323 0.2277 -0.5054
vn 0.7370 -0.0331 -0.6751
vn -0.3920 -0.0379 -0.9192
vn -0.1842 -0.3859 -0.9040
vn -0.3047 -0.6382 -0.7070
vn -0.9272 -0.3745 -0.0000
vn -0.7434 -0.6689 -0.0000
vn -0.5991 -0.7690 0.2230
vn -0.0406 -0.8729 0.4862
vn 0.2728 -0.8393 0.4704
vn -0.0459 -0.3902 0.9196
vn 0.3093 -0.8571 0.4120
vn 0.9940 -0.0954 0.0534
vn 0.9741 -0.0307 -0.2242
vn 0.6008 0.3945 -0.6953
vn 0.9831 0.0878 -0.1606
vn -0.2297 -0.9492 0.2149
vn -0.0786 -0.9969 -0.0000
vn 0.2158 -0.9764 -0.0000
vn 0.6738 -0.6969 0.2458
vn 0.1521 -0.9854 0.0771
vn -0.0406 -0.8729 -0.4862
vn -0.4917 -0.7625 -0.4205
vn 0.9301 -0.0712 -0.3605
vn 0.5371 -0.6281 0.5631
vn 0.4981 -0.6796 -0.5385
vn 0.7869 0.5591 -0.2610
vn 0.3571 -0.9162 0.1817
vn 0.6895 -0.4921 0.5315
vn 0.8139 -0.5809 -0.0084
vn 0.8663 0.0559 0.4963
vn 0.3635 -0.6101 0.7040
vn 0.1184 0.4750 0.8720
vn 0.3756 -0.7075 0.5986
vt 0.067298 0.946008
vt 0.080401 0.945113
vt 0.077165 0.934073
vt 0.020867 0.948678
vt 0.020169 0.959184
vt 0.029917 0.956218
vt 0.066268 0.938426
vt 0.029917 0.942487
vt 0.066513 0.926282
vt 0.038529 0.907210
vt 0.027152 0.906916
vt 0.033617 0.918257
vt 0.055430 0.903147
vt 0.048518 0.903361
vt 0.056016 0.913069
vt 0.100547 0.877351
vt 0.110899 0.879474
vt 0.108766 0.871413
vt 0.020169 0.936965
vt 0.056016 0.934584
vt 0.046604 0.915884
vt 0.080193 0.889176
vt 0.074597 0.882630
vt 0.070390 0.891264
vt 0.040257 0.961007
vt 0.050009 0.955938
vt 0.041314 0.949733
vt 0.114407 0.931120
vt 0.109637 0.920438
vt 0.103999 0.930197
vt 0.102701 0.951740
vt 0.109924 0.942317
vt 0.097119 0.942317
vt 0.062403 0.899645
vt 0.056016 0.901987
vt 0.063313 0.911428
vt 0.083181 0.908730
vt 0.072197 0.904801
vt 0.075526 0.916768
vt 0.040257 0.937645
vt 0.050009 0.942206
vt 0.043985 0.930307
vt 0.096832 0.920438
vt 0.085521 0.926527
vt 0.092620 0.931120
vt 0.091160 0.916768
vt 0.087989 0.915967
vt 0.085699 0.940049
vt 0.091624 0.952169
vt 0.031567 0.930480
vt 0.092363 0.903505
vt 0.082603 0.896604
vt 0.041466 0.928252
vt 0.051883 0.924213
vt 0.029787 0.928252
vt 0.112344 0.952169
vt 0.056682 0.921854
vt 0.067400 0.916768
vt 0.023674 0.928252
vt 0.090557 0.889968
vt 0.086979 0.888629
vt 0.060390 0.889525
vt 0.022014 0.919284
vt 0.060181 0.947506
vt 0.077830 0.921343
vt 0.085521 0.930023
vt 0.100762 0.887803
vt 0.112846 0.892650
vt 0.107636 0.893200
vt 0.034745 0.898139
vt 0.030953 0.895142
vt 0.031567 0.966431
vt 0.092363 0.884889
vt 0.094310 0.898065
vt 0.103859 0.899767
vt 0.105213 0.904420
vt 0.114991 0.908879
vt 0.094615 0.908150
vt 0.084568 0.942251
vt 0.031232 0.975403
vt 0.037937 0.979957
vt 0.037937 0.966431
vt 0.020169 0.902176
vt 0.110862 0.911030
vt 0.085521 0.956202
vt 0.100532 0.953895
vt 0.086519 0.952169
vt 0.037736 0.895025
vt 0.031232 0.966431
vt 0.020169 0.972366
vt 0.031232 0.982372
vt 0.020807 0.978330
vt 0.051948 0.899699
vt 0.052469 0.940564
vt 0.052469 0.928252
vt 0.050009 0.932094
vt 0.114991 0.880903
s 1
usemtl molesAtlas
f 136/171/170 134/172/170 106/173/170
f 94/174/171 105/175/171 107/176/171
f 136/171/172 106/173/172 95/177/172
f 94/174/173 107/176/173 114/178/173
f 95/177/174 106/173/174 116/179/174
f 96/180/175 110/181/175 118/182/175
f 97/183/176 112/184/176 120/185/176
f 98/186/177 113/187/177 122/188/177
f 94/174/178 114/178/178 117/189/178
f 95/177/179 116/179/179 119/190/179
f 96/180/180 118/182/180 121/191/180
f 142/192/181 97/193/181 120/194/181
f 98/195/182 122/196/182 115/197/182
f 99/198/183 124/199/183 129/200/183
f 100/201/184 125/202/184 131/203/184
f 101/204/185 126/205/185 132/206/185
f 102/207/186 127/208/186 133/209/186
f 103/210/187 128/211/187 130/212/187
f 130/213/188 133/214/188 104/215/188
f 130/213/189 128/216/189 133/214/189
f 128/217/190 102/207/190 133/209/190
f 133/214/191 132/218/191 104/215/191
f 133/209/192 127/208/192 132/206/192
f 127/208/193 101/204/193 132/206/193
f 132/218/194 131/203/194 104/215/194
f 132/218/195 126/219/195 131/203/195
f 126/219/196 100/201/196 131/203/196
f 131/203/197 129/200/197 104/215/197
f 131/203/198 125/202/198 129/200/198
f 125/202/199 99/198/199 129/200/199
f 129/200/200 130/213/200 104/215/200
f 129/200/201 124/199/201 130/213/201
f 124/220/202 103/210/202 130/212/202
f 115/197/203 128/211/203 103/210/203
f 115/197/204 122/196/204 128/211/204
f 122/221/205 102/207/205 128/217/205
f 123/222/206 127/208/206 102/207/206
f 123/222/207 120/194/207 127/208/207
f 120/194/208 101/204/208 127/208/208
f 121/191/209 126/223/209 101/224/209
f 121/191/210 118/182/210 126/223/210
f 118/182/211 100/225/211 126/223/211
f 119/226/212 125/202/212 100/201/212
f 119/190/213 116/179/213 125/227/213
f 116/179/214 99/228/214 125/227/214
f 117/189/215 124/220/215 99/229/215
f 117/189/216 114/178/216 124/220/216
f 114/178/217 103/210/217 124/220/217
f 122/221/218 123/222/218 102/207/218
f 122/221/219 113/230/219 123/222/219
f 142/192/220 123/222/220 140/231/220
f 120/194/221 121/232/221 101/204/221
f 120/185/222 112/184/222 121/191/222
f 112/184/223 96/180/223 121/191/223
f 118/182/224 119/233/224 100/225/224
f 118/182/225 110/181/225 119/233/225
f 110/234/226 95/177/226 119/190/226
f 116/179/227 117/235/227 99/228/227
f 116/179/228 106/173/228 117/235/228
f 106/173/229 94/236/229 117/235/229
f 114/178/230 115/197/230 103/210/230
f 114/178/231 107/176/231 115/197/231
f 107/176/232 98/195/232 115/197/232
f 108/237/233 113/187/233 98/186/233
f 108/237/234 111/238/234 113/187/234
f 140/231/235 123/222/235 113/230/235
f 138/239/236 111/238/236 108/237/236
f 109/240/237 96/180/237 112/184/237
f 109/240/238 110/181/238 96/180/238
f 136/171/239 95/177/239 110/234/239
f 137/241/240 110/181/240 109/240/240
f 107/176/241 108/242/241 98/195/241
f 107/243/242 105/244/242 108/237/242
f 105/244/243 93/245/243 108/237/243
f 135/246/244 109/247/244 93/245/244
f 105/244/245 134/248/245 93/245/245
f 105/249/246 94/236/246 106/173/246
f 134/250/247 105/251/247 106/252/247
f 137/241/248 136/253/248 110/181/248
f 135/246/249 137/254/249 109/247/249
f 139/255/250 93/256/250 109/257/250
f 139/258/251 109/240/251 112/184/251
f 138/239/252 108/237/252 93/245/252
f 139/259/253 112/260/253 111/261/253
f 141/262/254 111/261/254 112/260/254
f 141/263/255 112/184/255 97/183/255
f 142/264/256 141/265/256 97/266/256
f 142/192/257 120/194/257 123/222/257
f 111/238/258 140/267/258 113/187/258
