# Blender 5.0.0
# www.blender.org
mtllib MoleNose.mtl
o Nose
v 0.000000 1.804643 0.555880
v 0.000000 1.764305 0.755880
v 0.293893 1.709152 0.555880
v 0.293893 1.668814 0.755880
v 0.475528 1.459152 0.555880
v 0.475528 1.459152 0.755880
v 0.475528 1.150135 0.555880
v 0.475528 1.150135 0.755880
v 0.293893 0.900135 0.555880
v 0.293893 0.900135 0.755880
v -0.000000 0.804643 0.555880
v -0.000000 0.804643 0.755880
v -0.293893 0.900135 0.555880
v -0.293893 0.900135 0.755880
v -0.475528 1.150135 0.555880
v -0.475528 1.150135 0.755880
v -0.475528 1.459152 0.555880
v -0.475528 1.459152 0.755880
v -0.293892 1.709152 0.555880
v -0.293892 1.668814 0.755880
v 0.205725 1.513785 1.005880
v 0.000000 1.580629 1.005880
v 0.332870 1.412799 1.005880
v 0.332870 1.196487 1.005880
v 0.205725 1.021487 1.005880
v 0.000000 0.954643 1.005880
v -0.205725 1.021487 1.005880
v -0.332870 1.196487 1.005880
v -0.332870 1.412799 1.005880
v -0.205725 1.513786 1.005880
v 0.129572 1.449309 1.255880
v -0.000000 1.491410 1.255880
v 0.209653 1.372764 1.255880
v 0.209653 1.236523 1.255880
v 0.129573 1.126302 1.255880
v -0.000000 1.084201 1.255880
v -0.129573 1.126302 1.255880
v -0.209653 1.236523 1.255880
v -0.209653 1.372764 1.255880
v -0.129572 1.449309 1.255880
v 0.041405 1.540349 1.505880
v -0.000000 1.553802 1.505880
v 0.066994 1.505128 1.505880
v 0.066994 1.461592 1.505880
v 0.041405 1.426371 1.505880
v -0.000000 1.412918 1.505880
v -0.041405 1.426371 1.505880
v -0.066994 1.461592 1.505880
v -0.066994 1.505128 1.505880
v -0.041405 1.540349 1.505880
vn 0.3035 0.9340 0.1884
vn 0.7881 0.6109 0.0753
vn 0.7768 0.6280 0.0472
vn 0.8034 0.5837 0.1177
vn 1.0000 -0.0000 -0.0000
vn 0.8090 -0.5878 -0.0000
vn 0.3090 -0.9511 -0.0000
vn -0.3090 -0.9511 -0.0000
vn -0.8090 -0.5878 -0.0000
vn -1.0000 -0.0000 -0.0000
vn 0.2533 0.7796 0.5728
vn -0.7768 0.6280 0.0472
vn -0.7881 0.6109 0.0753
vn -0.8034 0.5837 0.1177
vn -0.3035 0.9340 0.1884
vn -0.0000 -0.0000 -1.0000
vn -0.2772 -0.8531 0.4421
vn 0.8685 -0.0000 0.4956
vn 0.6124 0.5981 0.5170
vn 0.5810 0.6122 0.5363
vn 0.6615 0.5731 0.4837
vn -0.2533 0.7796 0.5728
vn -0.6124 0.5981 0.5170
vn -0.5810 0.6122 0.5363
vn -0.5083 0.6400 0.5762
vn -0.8685 -0.0000 0.4956
vn -0.7027 -0.5105 0.4956
vn -0.2684 -0.8260 0.4956
vn 0.2684 -0.8260 0.4956
vn 0.7027 -0.5105 0.4956
vn 0.8970 -0.0000 0.4421
vn -0.2926 0.9006 0.3214
vn -0.7257 -0.5272 0.4421
vn 0.7257 -0.5272 0.4421
vn 0.2926 0.9006 0.3214
vn -0.8970 -0.0000 0.4421
vn 0.2772 -0.8531 0.4421
vn 0.5885 0.7081 0.3902
vn 0.6198 0.6877 0.3782
vn 0.5710 0.7189 0.3965
vn -0.5885 0.7081 0.3902
vn -0.6198 0.6877 0.3782
vn -0.6422 0.6719 0.3689
vn -0.0000 -0.0000 1.0000
vn -0.3007 0.9253 -0.2309
vn -0.5747 -0.4175 0.7038
vn 0.5747 -0.4175 0.7038
vn 0.3007 0.9253 -0.2309
vn 0.1930 -0.5940 0.7810
vn 0.7002 0.7138 0.0159
vn 0.7912 0.6084 0.0622
vn 0.6909 0.7228 0.0116
vn -0.7002 0.7138 0.0159
vn -0.7912 0.6084 0.0622
vn -0.8070 0.5863 0.0711
vn -0.1930 -0.5940 0.7810
vn 0.7558 0.6548 -0.0000
vn -0.7558 0.6548 -0.0000
vn 0.5083 0.6400 0.5762
vn -0.6615 0.5731 0.4837
vn 0.6422 0.6719 0.3689
vn -0.5710 0.7189 0.3965
vn 0.8070 0.5863 0.0711
vn -0.6909 0.7228 0.0116
vt 0.533750 0.965175
vt 0.525176 0.922301
vt 0.533750 0.922301
vt 0.525176 0.965175
vt 0.516601 0.922301
vt 0.516601 0.965175
vt 0.508026 0.922301
vt 0.508026 0.965175
vt 0.499452 0.922301
vt 0.499452 0.965175
vt 0.490877 0.922301
vt 0.490877 0.965175
vt 0.482302 0.922301
vt 0.482302 0.965175
vt 0.473728 0.922301
vt 0.473728 0.965175
vt 0.465153 0.922301
vt 0.456578 0.965175
vt 0.456578 0.922301
vt 0.448004 0.965175
vt 0.448004 0.922301
vt 0.531886 0.894506
vt 0.492742 0.894506
vt 0.500217 0.917514
vt 0.465153 0.965175
vt 0.449868 0.907224
vt 0.481536 0.884216
vt 0.489012 0.907224
vt 0.512314 0.921444
vt 0.524410 0.917514
vt 0.531886 0.907224
vt 0.524410 0.884216
vt 0.512314 0.880286
vt 0.500217 0.884216
vt 0.492742 0.907224
vt 0.481536 0.917514
vt 0.469440 0.921444
vt 0.457344 0.917514
vt 0.449868 0.894506
vt 0.457344 0.884216
vt 0.469440 0.880286
vt 0.489012 0.894506
s 1
usemtl molesAtlas
f 2/1/1 3/2/1 1/3/1
f 4/4/2 5/5/3 3/2/4
f 6/6/5 7/7/5 5/5/5
f 8/8/6 9/9/6 7/7/6
f 10/10/7 11/11/7 9/9/7
f 12/12/8 13/13/8 11/11/8
f 14/14/9 15/15/9 13/13/9
f 16/16/10 17/17/10 15/15/10
f 4/4/11 22/1/11 21/4/11
f 17/17/12 20/18/13 19/19/14
f 19/19/15 2/20/15 1/21/15
f 7/22/16 15/23/16 19/24/16
f 27/14/17 36/12/17 37/14/17
f 6/6/18 24/8/18 8/8/18
f 4/4/19 23/6/20 6/6/21
f 20/18/22 22/20/22 2/20/22
f 20/18/23 29/25/24 30/18/25
f 18/25/26 28/16/26 29/25/26
f 16/16/27 27/14/27 28/16/27
f 12/12/28 27/14/28 14/14/28
f 10/10/29 26/12/29 12/12/29
f 8/8/30 25/10/30 10/10/30
f 33/6/18 44/8/18 34/8/18
f 23/6/31 34/8/31 24/8/31
f 22/20/32 40/18/32 32/20/32
f 28/16/33 37/14/33 38/16/33
f 24/8/34 35/10/34 25/10/34
f 22/1/35 31/4/35 21/4/35
f 28/16/36 39/25/36 29/25/36
f 26/12/37 35/10/37 36/12/37
f 21/4/38 33/6/39 23/6/40
f 30/18/41 39/25/42 40/18/43
f 49/26/44 45/27/44 43/28/44
f 32/20/45 50/18/45 42/20/45
f 38/16/46 47/14/46 48/16/46
f 34/8/47 45/10/47 35/10/47
f 32/1/48 41/4/48 31/4/48
f 39/25/26 48/16/26 49/25/26
f 35/10/49 46/12/49 36/12/49
f 31/4/50 43/6/51 33/6/52
f 40/18/53 49/25/54 50/18/55
f 37/14/56 46/12/56 47/14/56
f 2/1/1 4/4/1 3/2/1
f 4/4/2 6/6/57 5/5/3
f 6/6/5 8/8/5 7/7/5
f 8/8/6 10/10/6 9/9/6
f 10/10/7 12/12/7 11/11/7
f 12/12/8 14/14/8 13/13/8
f 14/14/9 16/16/9 15/15/9
f 16/16/10 18/25/10 17/17/10
f 4/4/11 2/1/11 22/1/11
f 17/17/12 18/25/58 20/18/13
f 19/19/15 20/18/15 2/20/15
f 19/24/16 1/29/16 3/30/16
f 3/30/16 5/31/16 7/22/16
f 7/22/16 9/32/16 11/33/16
f 11/33/16 13/34/16 15/23/16
f 15/23/16 17/35/16 19/24/16
f 19/24/16 3/30/16 7/22/16
f 7/22/16 11/33/16 15/23/16
f 27/14/17 26/12/17 36/12/17
f 6/6/18 23/6/18 24/8/18
f 4/4/19 21/4/59 23/6/20
f 20/18/22 30/18/22 22/20/22
f 20/18/23 18/25/60 29/25/24
f 18/25/26 16/16/26 28/16/26
f 16/16/27 14/14/27 27/14/27
f 12/12/28 26/12/28 27/14/28
f 10/10/29 25/10/29 26/12/29
f 8/8/30 24/8/30 25/10/30
f 33/6/18 43/6/18 44/8/18
f 23/6/31 33/6/31 34/8/31
f 22/20/32 30/18/32 40/18/32
f 28/16/33 27/14/33 37/14/33
f 24/8/34 34/8/34 35/10/34
f 22/1/35 32/1/35 31/4/35
f 28/16/36 38/16/36 39/25/36
f 26/12/37 25/10/37 35/10/37
f 21/4/38 31/4/61 33/6/39
f 30/18/41 29/25/62 39/25/42
f 43/28/44 41/36/44 42/37/44
f 42/37/44 50/38/44 49/26/44
f 49/26/44 48/39/44 47/40/44
f 47/40/44 46/41/44 45/27/44
f 45/27/44 44/42/44 43/28/44
f 43/28/44 42/37/44 49/26/44
f 49/26/44 47/40/44 45/27/44
f 32/20/45 40/18/45 50/18/45
f 38/16/46 37/14/46 47/14/46
f 34/8/47 44/8/47 45/10/47
f 32/1/48 42/1/48 41/4/48
f 39/25/26 38/16/26 48/16/26
f 35/10/49 45/10/49 46/12/49
f 31/4/50 41/4/63 43/6/51
f 40/18/53 39/25/64 49/25/54
f 37/14/56 36/12/56 46/12/56
