# Blender 5.0.0
# www.blender.org
mtllib MoleNoseTip.mtl
o NoseTip
v 0.000000 1.393624 1.494484
v 0.108540 1.476542 1.573342
v -0.041458 1.476542 1.622080
v -0.134164 1.476542 1.494484
v -0.041458 1.476542 1.366888
v 0.108540 1.476542 1.415626
v 0.041458 1.610706 1.622080
v -0.108540 1.610706 1.573342
v -0.108540 1.610706 1.415626
v 0.041458 1.610706 1.366888
v 0.134164 1.610706 1.494484
v 0.000000 1.693624 1.494484
vn 0.1876 -0.7947 0.5774
vn 0.6071 -0.7947 -0.0000
vn -0.4911 -0.7947 0.3568
vn -0.4911 -0.7947 -0.3568
vn 0.1876 -0.7947 -0.5774
vn 0.9822 -0.1876 -0.0000
vn 0.3035 -0.1876 0.9342
vn -0.7946 -0.1876 0.5774
vn -0.7946 -0.1876 -0.5774
vn 0.3035 -0.1876 -0.9342
vn 0.7946 0.1876 0.5774
vn -0.3035 0.1876 0.9342
vn -0.9822 0.1876 -0.0000
vn -0.3035 0.1876 -0.9342
vn 0.7946 0.1876 -0.5774
vn 0.4911 0.7947 0.3568
vn -0.1876 0.7947 0.5774
vn -0.6071 0.7947 -0.0000
vn -0.1876 0.7947 -0.5774
vn 0.4911 0.7947 -0.3568
vt 0.669602 0.902051
vt 0.661806 0.915553
vt 0.677397 0.915553
vt 0.654011 0.902051
vt 0.646216 0.915553
vt 0.607240 0.902051
vt 0.599445 0.915553
vt 0.615036 0.915553
vt 0.622831 0.902051
vt 0.630626 0.915553
vt 0.599623 0.945936
vt 0.591828 0.959438
vt 0.607418 0.959438
vt 0.654011 0.929055
vt 0.669602 0.929055
vt 0.607240 0.929055
vt 0.622831 0.929055
vt 0.638421 0.929055
vt 0.685192 0.929055
vt 0.661806 0.942557
vt 0.677397 0.942557
vt 0.615036 0.942557
vt 0.599623 0.972940
vt 0.584033 0.972940
vt 0.591828 0.986442
vt 0.646216 0.942557
s 1
usemtl molesAtlas
f 1/1/1 2/2/1 3/3/1
f 2/2/2 1/4/2 6/5/2
f 1/6/3 3/7/3 4/8/3
f 1/9/4 4/8/4 5/10/4
f 1/11/5 5/12/5 6/13/5
f 2/2/6 6/5/6 11/14/6
f 3/3/7 2/2/7 7/15/7
f 4/8/8 3/7/8 8/16/8
f 5/10/9 4/8/9 9/17/9
f 6/5/10 5/10/10 10/18/10
f 2/2/11 11/14/11 7/15/11
f 3/3/12 7/15/12 8/19/12
f 4/8/13 8/16/13 9/17/13
f 5/10/14 9/17/14 10/18/14
f 6/5/15 10/18/15 11/14/15
f 7/15/16 11/14/16 12/20/16
f 8/19/17 7/15/17 12/21/17
f 9/17/18 8/16/18 12/22/18
f 10/23/19 9/24/19 12/25/19
f 11/14/20 10/18/20 12/26/20
