# Blender 5.0.0
# www.blender.org
mtllib Mole.mtl
o Body
v 0.000000 0.000000 0.000000
v 0.868329 0.329171 0.525725
v -0.331666 0.329170 0.850649
v -1.073312 0.329177 0.000000
v -0.331666 0.329170 -0.850649
v 0.868329 0.329171 -0.525725
v 0.331666 1.670830 0.750649
v -0.868329 1.670829 0.525725
v -0.868329 1.670829 -0.525725
v 0.331666 1.670830 -0.850649
v 1.073312 1.670823 0.000000
v 0.000000 2.500000 0.000000
v -0.194947 -0.025982 0.499995
v 0.510387 -0.025981 0.309011
v 0.315443 0.211394 0.809012
v 1.020777 0.211396 0.000000
v 0.510387 -0.025981 -0.309011
v -0.630876 -0.025977 0.000000
v -0.825827 0.211396 0.499997
v -0.194947 -0.025982 -0.499995
v -0.825827 0.211396 -0.499997
v 0.315443 0.211394 -0.809012
v 1.141269 1.000000 0.309013
v 1.141269 1.000000 -0.309013
v 0.000000 1.000000 0.980175
v 0.705343 1.000000 0.789191
v -1.141269 1.000000 0.309013
v -0.705343 1.000000 0.789191
v -0.705343 1.000000 -0.809017
v -1.141269 1.000000 -0.309013
v 0.705343 1.000000 -0.809017
v 0.000000 1.000000 -1.000000
v 0.825827 1.788604 0.499997
v -0.315443 1.788606 0.709012
v -1.020777 1.788604 0.000000
v -0.315443 1.788606 -0.809012
v 0.825827 1.788604 -0.499997
v 0.194947 2.275981 0.499995
v 0.630876 2.275978 0.000000
v -0.510387 2.275981 0.309011
v -0.510387 2.275981 -0.309011
v 0.194947 2.275981 -0.499995
v -0.500000 2.035985 0.660000
v -0.500000 2.035985 0.740000
v -0.437500 2.012539 0.660000
v -0.437500 2.012539 0.740000
v -0.391747 1.948484 0.660000
v -0.391747 1.948484 0.740000
v -0.375000 1.860984 0.660000
v -0.375000 1.860984 0.740000
v -0.391747 1.773484 0.660000
v -0.391747 1.773484 0.740000
v -0.437500 1.709430 0.660000
v -0.437500 1.709430 0.740000
v -0.500000 1.685984 0.660000
v -0.500000 1.685984 0.740000
v -0.562500 1.709430 0.660000
v -0.562500 1.709430 0.740000
v -0.608253 1.773484 0.660000
v -0.608253 1.773484 0.740000
v -0.625000 1.860984 0.660000
v -0.625000 1.860984 0.740000
v -0.608253 1.948484 0.660000
v -0.608253 1.948484 0.740000
v -0.562500 2.012539 0.660000
v -0.562500 2.012539 0.740000
v -1.194856 0.462500 0.425000
v -0.694953 0.604749 0.573799
v -1.079225 0.939166 0.742635
v -1.474440 0.872671 0.300624
v -1.462085 0.570863 -0.141386
v -0.852671 0.331574 0.027450
v -0.665580 1.102845 0.541386
v -1.147329 1.268426 0.372551
v -1.305047 0.995251 -0.173799
v -0.920775 0.660834 -0.342635
v -0.525560 0.727329 0.099377
v -0.805144 1.137500 -0.025000
v -0.935233 0.486857 0.551964
v -0.867266 0.767034 0.738666
v -0.734101 0.409902 0.318291
v -1.027936 0.326290 0.230830
v -1.431337 0.695086 0.434667
v -1.325438 0.924514 0.578097
v -1.311099 0.423615 0.131592
v -1.525863 0.693822 0.058485
v -1.109969 0.346659 -0.102084
v -0.541828 0.642519 0.360568
v -0.634532 0.481952 0.039432
v -0.850000 1.059808 0.719615
v -0.624129 0.863242 0.620377
v -1.365468 1.118048 0.360568
v -1.133166 1.157135 0.620377
v -1.375871 0.736758 -0.220377
v -1.458172 0.957481 0.039432
v -0.866834 0.442865 -0.220377
v -1.150000 0.540192 -0.319615
v -0.524563 0.935292 0.341515
v -0.890031 1.253341 0.502084
v -1.265899 1.190098 0.081709
v -1.132734 0.832966 -0.338666
v -0.674562 0.675486 -0.178097
v -0.688900 1.176385 0.268408
v -0.606598 0.955662 0.008603
v -0.972063 1.273710 0.169170
v -1.064767 1.113143 -0.151964
v -0.838899 0.916579 -0.251202
v -1.034290 0.586601 0.753136
v -1.246303 0.539958 0.499562
v -1.207994 0.841633 0.763340
v -1.398457 0.657300 0.543806
v -1.219545 0.398455 0.227781
v -1.504172 0.628993 0.383299
v -1.191437 0.395605 -0.138906
v -1.488130 0.550956 -0.025995
v -1.303495 0.514016 -0.261873
v 0.500000 2.035985 0.660000
v 0.500000 2.035985 0.740000
v 0.562500 2.012539 0.660000
v 0.562500 2.012539 0.740000
v 0.608253 1.948484 0.660000
v 0.608253 1.948484 0.740000
v 0.625000 1.860984 0.660000
v 0.625000 1.860984 0.740000
v 0.608253 1.773484 0.660000
v 0.608253 1.773484 0.740000
v 0.562500 1.709430 0.660000
v 0.562500 1.709430 0.740000
v 0.500000 1.685984 0.660000
v 0.500000 1.685984 0.740000
v 0.437500 1.709430 0.660000
v 0.437500 1.709430 0.740000
v 0.391747 1.773484 0.660000
v 0.391747 1.773484 0.740000
v 0.375000 1.860984 0.660000
v 0.375000 1.860984 0.740000
v 0.391747 1.948484 0.660000
v 0.391747 1.948484 0.740000
v 0.437500 2.012539 0.660000
v 0.437500 2.012539 0.740000
v 0.000000 1.804643 0.555880
v 0.000000 1.764305 0.755880
v 0.293893 1.709152 0.555880
v 0.293893 1.668814 0.755880
v 0.475528 1.459152 0.555880
v 0.475528 1.459152 0.755880
v 0.475528 1.150135 0.555880
v 0.475528 1.150135 0.755880
v 0.293893 0.900135 0.555880
v 0.293893 0.900135 0.755880
v -0.000000 0.804643 0.555880
v -0.000000 0.804643 0.755880
v -0.293893 0.900135 0.555880
v -0.293893 0.900135 0.755880
v -0.475528 1.150135 0.555880
v -0.475528 1.150135 0.755880
v -0.475528 1.459152 0.555880
v -0.475528 1.459152 0.755880
v -0.293892 1.709152 0.555880
v -0.293892 1.668814 0.755880
v 0.205725 1.513785 1.005880
v 0.000000 1.580629 1.005880
v 0.332870 1.412799 1.005880
v 0.332870 1.196487 1.005880
v 0.205725 1.021487 1.005880
v 0.000000 0.954643 1.005880
v -0.205725 1.021487 1.005880
v -0.332870 1.196487 1.005880
v -0.332870 1.412799 1.005880
v -0.205725 1.513785 1.005880
v 0.129572 1.449309 1.255880
v -0.000000 1.491410 1.255880
v 0.209653 1.372764 1.255880
v 0.209653 1.236523 1.255880
v 0.129573 1.126302 1.255880
v -0.000000 1.084201 1.255880
v -0.129573 1.126302 1.255880
v -0.209653 1.236523 1.255880
v -0.209653 1.372764 1.255880
v -0.129572 1.449309 1.255880
v 0.041405 1.540349 1.505880
v -0.000000 1.553802 1.505880
v 0.066994 1.505128 1.505880
v 0.066994 1.461592 1.505880
v 0.041405 1.426371 1.505880
v -0.000000 1.412918 1.505880
v -0.041405 1.426371 1.505880
v -0.066994 1.461592 1.505880
v -0.066994 1.505128 1.505880
v -0.041405 1.540349 1.505880
v 1.225000 0.410289 0.200000
v 0.787293 0.444812 -0.115435
v 1.220304 0.694810 -0.310390
v 1.487921 0.849322 0.200000
v 1.347969 0.768518 0.710390
v 0.787293 0.444812 0.515435
v 0.779696 0.905190 -0.310390
v 1.212707 1.155188 -0.115435
v 1.212707 1.155188 0.515435
v 0.779696 0.905190 0.710390
v 0.512079 0.750678 0.200000
v 0.775000 1.189711 0.200000
v 1.007227 0.362160 0.014593
v 1.004465 0.529397 -0.285407
v 0.749949 0.382453 0.200000
v 1.007227 0.362160 0.385407
v 1.469470 0.629037 0.150036
v 1.416285 0.767162 -0.099998
v 1.261742 0.509104 0.499997
v 1.466712 0.796275 0.499998
v 1.004465 0.529397 0.685407
v 0.588180 0.562236 0.014593
v 0.588180 0.562236 0.385408
v 1.000000 0.800000 -0.400000
v 0.745481 0.653054 -0.285410
v 1.411820 1.037764 0.014592
v 1.254519 0.946946 -0.285410
v 1.254519 0.946946 0.685410
v 1.411820 1.037764 0.385408
v 0.745481 0.653054 0.685410
v 1.000000 0.800000 0.800000
v 0.583715 0.832838 -0.099998
v 0.995534 1.070603 -0.285407
v 1.250051 1.217547 0.200000
v 0.995535 1.070603 0.685407
v 0.583715 0.832838 0.499998
v 0.738257 1.090896 -0.099997
v 0.580956 1.000076 0.200000
v 0.992773 1.237840 0.014593
v 0.992773 1.237840 0.385407
v 0.738257 1.090896 0.499997
v 1.159045 0.370518 -0.178053
v 1.297858 0.450662 0.114749
v 1.344277 0.605583 -0.253896
v 1.462784 0.545882 0.063661
v 1.195842 0.439510 0.404701
v 1.523190 0.596053 0.241350
v 1.076838 0.594095 0.716469
v 1.400835 0.702157 0.625589
v 1.161271 0.760356 0.799702
v 0.596462 1.148754 0.790000
v 0.617168 1.226028 0.790000
v 0.596462 1.148754 0.710000
v 0.617168 1.226028 0.710000
v 0.982832 1.045226 0.790000
v 1.003538 1.122500 0.790000
v 0.982832 1.045226 0.710000
v 1.003538 1.122500 0.710000
v -1.050000 1.360000 0.790000
v -1.050000 1.440000 0.790000
v -1.050000 1.360000 0.710000
v -1.050000 1.440000 0.710000
v -0.550000 1.360000 0.790000
v -0.550000 1.440000 0.790000
v -0.550000 1.360000 0.710000
v -0.550000 1.440000 0.710000
v 0.550000 1.360000 0.790000
v 0.550000 1.440000 0.790000
v 0.550000 1.360000 0.710000
v 0.550000 1.440000 0.710000
v 1.050000 1.360000 0.790000
v 1.050000 1.440000 0.790000
v 1.050000 1.360000 0.710000
v 1.050000 1.440000 0.710000
v -0.982832 1.045226 0.790000
v -1.003538 1.122500 0.790000
v -0.982832 1.045226 0.710000
v -1.003538 1.122500 0.710000
v -0.596462 1.148754 0.790000
v -0.617167 1.226028 0.790000
v -0.596462 1.148754 0.710000
v -0.617167 1.226028 0.710000
v 0.000000 1.393624 1.494484
v 0.108540 1.476542 1.573342
v -0.041458 1.476542 1.622080
v -0.134164 1.476542 1.494484
v -0.041458 1.476542 1.366888
v 0.108540 1.476542 1.415626
v 0.041458 1.610706 1.622080
v -0.108540 1.610706 1.573342
v -0.108540 1.610706 1.415626
v 0.041458 1.610706 1.366888
v 0.134164 1.610706 1.494484
v 0.000000 1.693624 1.494484
v -1.194856 0.462500 0.425000
v -1.311099 0.423615 0.131592
v -1.034290 0.586601 0.753136
v -1.424867 0.254883 0.896399
v -1.246303 0.539958 0.499562
v -1.207994 0.841633 0.763340
v -1.398457 0.657300 0.543806
v -1.501959 0.041323 0.294771
v -1.219545 0.398455 0.227781
v -1.504172 0.628993 0.383299
v -1.458502 0.091095 -0.174098
v -1.191437 0.395605 -0.138906
v -1.488130 0.550956 -0.025995
v -1.303495 0.514016 -0.261873
v 1.225000 0.410289 0.200000
v 1.261742 0.509104 0.499997
v 1.159045 0.370518 -0.178053
v 1.553112 0.032755 -0.060840
v 1.297858 0.450662 0.114749
v 1.344277 0.605583 -0.253896
v 1.462784 0.545882 0.063661
v 1.464827 0.105638 0.571932
v 1.195842 0.439510 0.404701
v 1.523190 0.596053 0.241350
v 1.308496 0.350914 0.945569
v 1.076838 0.594095 0.716469
v 1.400835 0.702157 0.625589
v 1.161271 0.760356 0.799702
vn -0.0157 -0.9982 -0.0580
vn 0.5555 -0.7624 0.3319
vn 0.0411 -0.9985 -0.0359
vn 0.0411 -0.9985 0.0359
vn -0.0157 -0.9982 0.0580
vn 0.9085 -0.2653 0.3229
vn 0.0262 -0.2020 0.9790
vn -0.8878 -0.2637 0.3773
vn -0.5229 -0.2405 -0.8177
vn 0.4826 -0.2386 -0.8427
vn 0.7378 -0.0838 0.6698
vn -0.2609 -0.0571 0.9637
vn -0.9949 -0.1008 -0.0000
vn -0.2604 -0.0854 -0.9617
vn 0.7504 -0.0940 -0.6542
vn 0.3274 0.4238 0.8445
vn -0.3666 0.4982 0.7857
vn -0.7490 0.5662 -0.3440
vn 0.0369 0.5073 -0.8610
vn 0.7812 0.5711 -0.2521
vn 0.3212 0.9046 -0.2801
vn 0.5395 0.6984 -0.4704
vn 0.4057 0.5251 -0.7481
vn -0.1204 0.8876 -0.4446
vn -0.1957 0.6630 -0.7226
vn -0.4732 0.5315 -0.7026
vn -0.4019 0.9157 -0.0000
vn -0.6906 0.7232 -0.0000
vn -0.7490 0.5662 0.3440
vn -0.1204 0.8876 0.4446
vn -0.2154 0.5666 0.7953
vn 0.0106 0.3847 0.9230
vn 0.3212 0.9046 0.2801
vn 0.5395 0.6984 0.4704
vn 0.7812 0.5711 0.2521
vn 0.8878 0.2637 -0.3773
vn 0.7462 0.1409 -0.6506
vn 0.5229 0.2405 -0.8177
vn -0.0213 0.2273 -0.9736
vn -0.2592 0.1282 -0.9573
vn -0.4826 0.2386 -0.8427
vn -0.9085 0.2653 -0.3229
vn -0.9885 0.1510 -0.0000
vn -0.9085 0.2653 0.3229
vn -0.3539 0.2661 0.8966
vn -0.2549 0.2217 0.9412
vn -0.0018 0.3245 0.9459
vn 0.3851 0.2653 0.8839
vn 0.7339 0.1322 0.6663
vn 0.8878 0.2637 0.3773
vn 0.2604 0.0854 -0.9617
vn 0.2592 -0.1282 -0.9573
vn 0.0213 -0.2273 -0.9736
vn -0.7504 0.0940 -0.6542
vn -0.7462 -0.1409 -0.6506
vn -0.8878 -0.2637 -0.3773
vn -0.7378 0.0838 0.6698
vn -0.7339 -0.1322 0.6663
vn -0.5292 -0.2197 0.8196
vn 0.2562 0.1971 0.9463
vn 0.2599 -0.1044 0.9600
vn 0.4813 -0.2166 0.8493
vn 0.9949 0.1008 -0.0000
vn 0.9885 -0.1510 -0.0000
vn 0.9085 -0.2653 -0.3229
vn 0.4237 -0.7431 -0.5180
vn 0.1259 -0.8763 -0.4651
vn -0.0859 -0.7165 -0.6922
vn -0.2736 -0.7271 -0.6297
vn -0.3366 -0.8947 -0.2935
vn -0.6211 -0.7737 -0.1252
vn -0.6211 -0.7737 0.1252
vn -0.3366 -0.8947 0.2935
vn -0.2736 -0.7271 0.6297
vn 0.5555 -0.7624 -0.3319
vn 0.4217 -0.9067 -0.0000
vn -0.0508 -0.9987 -0.0000
vn -0.0859 -0.7165 0.6922
vn 0.1259 -0.8763 0.4651
vn 0.4237 -0.7431 0.5180
vn 0.3512 0.9363 -0.0000
vn 0.8137 0.5812 -0.0000
vn 0.9822 0.1880 -0.0000
vn 0.9822 -0.1880 -0.0000
vn 0.8137 -0.5812 -0.0000
vn 0.3512 -0.9363 -0.0000
vn -0.3512 -0.9363 -0.0000
vn -0.8137 -0.5812 -0.0000
vn -0.9822 -0.1880 -0.0000
vn -0.9822 0.1880 -0.0000
vn -0.0000 -0.0000 1.0000
vn -0.8137 0.5812 -0.0000
vn -0.3512 0.9363 -0.0000
vn -0.0000 -0.0000 -1.0000
vn 0.0746 0.0109 0.9972
vn 0.3308 -0.7742 0.5397
vn 0.0915 0.0898 0.9918
vn 0.6794 -0.6299 0.3763
vn 0.0680 0.0608 0.9958
vn -0.8659 0.2839 0.4119
vn -0.8687 0.2471 -0.4292
vn 0.1548 -0.8979 -0.4121
vn 0.7971 -0.3116 0.5172
vn -0.1512 0.4548 0.8776
vn -0.9179 0.3906 0.0697
vn -0.6162 -0.0539 -0.7857
vn 0.5410 -0.7552 -0.3701
vn 0.8108 0.5789 0.0867
vn 0.0317 0.9981 0.0533
vn -0.3308 0.7742 -0.5397
vn 0.2028 0.2714 -0.9408
vn 0.8662 0.1140 -0.4865
vn 0.5899 0.5319 -0.6075
vn 0.6963 0.2734 -0.6637
vn 0.5465 0.1213 -0.8286
vn 0.2760 0.6667 -0.6923
vn 0.0974 0.5354 -0.8389
vn -0.2114 0.5770 -0.7889
vn 0.1519 0.8658 -0.4768
vn -0.1338 0.9013 -0.4120
vn -0.2234 0.9602 -0.1675
vn 0.3970 0.8762 -0.2734
vn 0.3325 0.9428 -0.0243
vn 0.5261 0.8314 0.1790
vn 0.6641 0.6603 -0.3506
vn 0.8374 0.5179 -0.1747
vn 0.9439 0.2486 -0.2174
vn 0.8659 -0.2839 -0.4119
vn 0.6913 -0.4720 -0.5471
vn 0.5416 -0.3053 -0.7832
vn -0.0680 -0.0608 -0.9958
vn -0.4264 -0.0337 -0.9039
vn -0.5083 0.2857 -0.8124
vn -0.6794 0.6299 -0.3763
vn -0.7573 0.6448 -0.1038
vn -0.5679 0.8230 0.0099
vn -0.1548 0.8979 0.4121
vn 0.0256 0.7492 0.6618
vn 0.3849 0.7236 0.5730
vn 0.8791 0.2794 0.3861
vn 0.9440 -0.0343 0.3282
vn 0.9975 -0.0560 0.0440
vn 0.1512 -0.4548 -0.8776
vn -0.0256 -0.7492 -0.6618
vn -0.1091 -0.7638 -0.6361
vn -0.7971 0.3116 -0.5172
vn -0.8762 0.1930 -0.4416
vn -0.9680 0.2500 0.0209
vn -0.5410 0.7552 0.3701
vn -0.6913 0.4720 0.5471
vn -0.5416 0.3053 0.7832
vn 0.6108 0.3412 0.7145
vn 0.4264 0.0337 0.9039
vn 0.5083 -0.2857 0.8124
vn 0.9179 -0.3906 -0.0697
vn 0.7573 -0.6448 0.1038
vn 0.5679 -0.8230 -0.0099
vn -0.0317 -0.9981 -0.0533
vn -0.3325 -0.9428 0.0243
vn -0.1629 -0.7518 -0.6389
vn -0.3523 -0.9314 0.0916
vn -0.9685 -0.0513 0.2435
vn -0.8836 0.1259 0.4510
vn -0.4297 0.6908 0.5815
vn -0.9151 0.2056 0.3469
vn 0.2234 -0.9602 0.1675
vn 0.1338 -0.9013 0.4120
vn -0.1519 -0.8658 0.4768
vn -0.6722 -0.6942 0.2573
vn -0.1091 -0.9109 0.3979
vn 0.2114 -0.5770 0.7889
vn 0.6246 -0.5323 0.5715
vn -0.8047 0.1460 0.5755
vn -0.6234 -0.7776 -0.0814
vn -0.3073 -0.3493 0.8852
vn -0.7278 0.6616 0.1806
vn -0.3374 -0.8821 0.3287
vn -0.7707 -0.6328 -0.0748
vn -0.7508 -0.4717 0.4623
vn -0.9646 -0.1144 -0.2375
vn -0.4919 -0.8326 -0.2547
vn -0.3600 0.0565 -0.9313
vn -0.4716 -0.8739 -0.1181
vn 0.3035 0.9340 0.1884
vn 0.7837 0.6178 0.0641
vn 0.7815 0.6211 0.0587
vn 0.8034 0.5837 0.1177
vn 1.0000 -0.0000 -0.0000
vn 0.8090 -0.5878 -0.0000
vn 0.3090 -0.9511 -0.0000
vn -0.3090 -0.9511 -0.0000
vn -0.8090 -0.5878 -0.0000
vn -1.0000 -0.0000 -0.0000
vn 0.2533 0.7796 0.5728
vn -0.7815 0.6211 0.0587
vn -0.7837 0.6178 0.0641
vn -0.8034 0.5837 0.1177
vn -0.3035 0.9340 0.1884
vn -0.2772 -0.8531 0.4421
vn 0.8685 -0.0000 0.4956
vn 0.6212 0.5939 0.5113
vn 0.5693 0.6171 0.5432
vn 0.6615 0.5731 0.4837
vn -0.2533 0.7796 0.5728
vn -0.6212 0.5939 0.5113
vn -0.5693 0.6171 0.5432
vn -0.5083 0.6400 0.5762
vn -0.8685 -0.0000 0.4956
vn -0.7027 -0.5105 0.4956
vn -0.2684 -0.8260 0.4956
vn 0.2684 -0.8260 0.4956
vn 0.7027 -0.5105 0.4956
vn 0.8970 -0.0000 0.4421
vn -0.2926 0.9006 0.3214
vn -0.7257 -0.5272 0.4421
vn 0.7257 -0.5272 0.4421
vn 0.2926 0.9006 0.3214
vn -0.8970 -0.0000 0.4421
vn 0.2772 -0.8531 0.4421
vn 0.5849 0.7104 0.3915
vn 0.6244 0.6845 0.3763
vn 0.5710 0.7189 0.3965
vn -0.5849 0.7104 0.3915
vn -0.6244 0.6845 0.3763
vn -0.6422 0.6719 0.3689
vn -0.3007 0.9253 -0.2309
vn -0.5747 -0.4175 0.7038
vn 0.5747 -0.4175 0.7038
vn 0.3007 0.9253 -0.2309
vn 0.1930 -0.5940 0.7810
vn 0.6988 0.7151 0.0153
vn 0.7934 0.6053 0.0635
vn 0.6909 0.7228 0.0116
vn -0.6988 0.7151 0.0153
vn -0.7934 0.6053 0.0635
vn -0.8070 0.5863 0.0711
vn -0.1930 -0.5940 0.7810
vn 0.1778 -0.4263 -0.8869
vn -0.2297 -0.9492 -0.2149
vn 0.1647 -0.3540 -0.9206
vn -0.5991 -0.7690 -0.2230
vn 0.1867 -0.3805 -0.9057
vn 0.9563 0.1272 -0.2632
vn 0.7467 0.4585 0.4819
vn -0.3047 -0.6382 0.7070
vn -0.6592 -0.5505 -0.5123
vn 0.3920 0.0379 -0.9192
vn 0.9272 0.3745 -0.0000
vn 0.3960 0.3275 0.8578
vn -0.6592 -0.5505 0.5123
vn -0.7283 0.4362 -0.5285
vn 0.0406 0.8729 -0.4862
vn 0.2297 0.9492 0.2149
vn -0.4155 0.6398 0.6466
vn -0.9522 0.2630 0.1554
vn -0.6912 0.7073 0.1483
vn -0.8230 0.4929 0.2823
vn -0.7283 0.4362 0.5285
vn -0.4012 0.8835 0.2419
vn -0.2728 0.8393 0.4704
vn 0.0406 0.8729 0.4862
vn -0.2158 0.9764 -0.0000
vn 0.0786 0.9969 -0.0000
vn 0.2297 0.9492 -0.2149
vn -0.4012 0.8835 -0.2419
vn -0.2728 0.8393 -0.4704
vn -0.4155 0.6398 -0.6466
vn -0.6912 0.7073 -0.1483
vn -0.8230 0.4929 -0.2823
vn -0.9522 0.2630 -0.1554
vn -0.9563 -0.1272 0.2632
vn -0.8323 -0.2277 0.5054
vn -0.7370 0.0331 0.6751
vn -0.1867 0.3805 0.9057
vn 0.1842 0.3859 0.9040
vn 0.3047 0.6382 0.7070
vn 0.5991 0.7690 0.2230
vn 0.7434 0.6689 -0.0000
vn 0.5991 0.7690 -0.2230
vn 0.3047 0.6382 -0.7070
vn 0.1842 0.3859 -0.9040
vn -0.1867 0.3805 -0.9057
vn -0.7370 0.0331 -0.6751
vn -0.8323 -0.2277 -0.5054
vn -0.9563 -0.1272 -0.2632
vn -0.3920 -0.0379 0.9192
vn -0.1842 -0.3859 0.9040
vn -0.0979 -0.4053 0.9089
vn 0.6592 0.5505 0.5123
vn 0.7477 0.4157 0.5179
vn 0.9553 0.2720 0.1156
vn 0.6592 0.5505 -0.5123
vn 0.8323 0.2277 -0.5054
vn 0.7370 -0.0331 -0.6751
vn -0.3920 -0.0379 -0.9192
vn -0.1842 -0.3859 -0.9040
vn -0.3047 -0.6382 -0.7070
vn -0.9272 -0.3745 -0.0000
vn -0.7434 -0.6689 -0.0000
vn -0.5991 -0.7690 0.2230
vn -0.0406 -0.8729 0.4862
vn 0.2728 -0.8393 0.4704
vn -0.0459 -0.3902 0.9196
vn 0.3093 -0.8571 0.4120
vn 0.9940 -0.0954 0.0534
vn 0.9741 -0.0307 -0.2242
vn 0.6008 0.3945 -0.6953
vn 0.9831 0.0878 -0.1606
vn -0.2297 -0.9492 0.2149
vn -0.0786 -0.9969 -0.0000
vn 0.2158 -0.9764 -0.0000
vn 0.6738 -0.6969 0.2458
vn 0.1521 -0.9854 0.0771
vn -0.0406 -0.8729 -0.4862
vn -0.4917 -0.7625 -0.4205
vn 0.9301 -0.0712 -0.3605
vn 0.5371 -0.6281 0.5631
vn 0.4981 -0.6796 -0.5385
vn 0.7869 0.5591 -0.2610
vn 0.3571 -0.9162 0.1817
vn 0.6895 -0.4921 0.5315
vn 0.8139 -0.5809 -0.0084
vn 0.8663 0.0559 0.4963
vn 0.3635 -0.6101 0.7040
vn 0.1184 0.4750 0.8720
vn 0.3756 -0.7075 0.5986
vn -0.9659 0.2588 -0.0000
vn 0.9659 -0.2588 -0.0000
vn -0.2588 -0.9659 -0.0000
vn 0.2588 0.9659 -0.0000
vn -0.0000 -1.0000 -0.0000
vn -0.0000 1.0000 -0.0000
vn -0.9659 -0.2588 -0.0000
vn 0.9659 0.2588 -0.0000
vn 0.2588 -0.9659 -0.0000
vn -0.2588 0.9659 -0.0000
vn 0.1876 -0.7947 0.5774
vn 0.6071 -0.7947 -0.0000
vn -0.4911 -0.7947 0.3568
vn -0.4911 -0.7947 -0.3568
vn 0.1876 -0.7947 -0.5774
vn 0.9822 -0.1876 -0.0000
vn 0.3035 -0.1876 0.9342
vn -0.7946 -0.1876 0.5774
vn -0.7946 -0.1876 -0.5774
vn 0.3035 -0.1876 -0.9342
vn 0.7946 0.1876 0.5774
vn -0.3035 0.1876 0.9342
vn -0.9822 0.1876 -0.0000
vn -0.3035 0.1876 -0.9342
vn 0.7946 0.1876 -0.5774
vn 0.4911 0.7947 0.3568
vn -0.1876 0.7947 0.5774
vn -0.6071 0.7947 -0.0000
vn -0.1876 0.7947 -0.5774
vn 0.4911 0.7947 -0.3568
vn 0.5455 -0.7775 -0.3131
vn -0.5805 -0.5147 -0.6310
vn -0.8318 0.3957 0.3893
vn 0.2441 0.1278 0.9613
vn -0.4248 -0.7582 0.4946
vn 0.7895 -0.6059 0.0979
vn 0.5327 -0.5430 -0.6491
vn -0.7506 0.0957 -0.6538
vn -0.2092 -0.1464 0.9669
vn 0.6783 -0.6372 0.3660
vn 0.5013 -0.3481 -0.7921
vn -0.7667 0.1515 -0.6239
vn -0.7378 -0.2495 0.6272
vn -0.6506 -0.5954 0.4714
vn 0.3734 -0.1561 0.9144
vn 0.9242 0.2356 -0.3006
vn 0.0118 -0.3155 -0.9489
vn 0.4902 -0.8716 0.0062
vn -0.7737 -0.6333 -0.0198
vn -0.7087 -0.2383 0.6641
vn 0.5676 0.4127 0.7124
vn 0.4354 -0.5382 -0.7216
vn -0.6010 -0.7710 -0.2107
vn -0.7028 0.0007 0.7114
vn 0.5938 0.4509 0.6663
vn 0.8554 -0.4532 -0.2507
vn 0.7558 0.6548 -0.0000
vn -0.7558 0.6548 -0.0000
vn 0.5083 0.6400 0.5762
vn -0.6615 0.5731 0.4837
vn 0.6422 0.6719 0.3689
vn -0.5710 0.7189 0.3965
vn 0.8070 0.5863 0.0711
vn -0.6909 0.7228 0.0116
vt 0.166571 0.177786
vt 0.230457 0.099700
vt 0.256590 0.222182
vt 0.277826 0.043315
vt 0.181485 0.006056
vt 0.158072 0.283466
vt 0.071053 0.198859
vt 0.115790 0.085286
vt 0.306055 0.500143
vt 0.289588 0.392800
vt 0.384848 0.455671
vt 0.205672 0.619361
vt 0.099638 0.638158
vt 0.148919 0.536542
vt 0.468775 0.031629
vt 0.569790 0.006157
vt 0.530520 0.116656
vt 0.530914 0.710358
vt 0.447288 0.724103
vt 0.472439 0.622927
vt 0.726346 0.719450
vt 0.636466 0.729553
vt 0.704229 0.631638
vt 0.390577 0.553979
vt 0.263519 0.531477
vt 0.408868 0.116656
vt 0.589357 0.626294
vt 0.306055 0.285710
vt 0.390577 0.228040
vt 0.384848 0.329631
vt 0.089773 0.452339
vt 0.006373 0.439421
vt 0.107738 0.373537
vt 0.555529 0.252970
vt 0.605702 0.176425
vt 0.652052 0.245812
vt 0.655906 0.438405
vt 0.596156 0.353122
vt 0.711053 0.354807
vt 0.646200 0.543776
vt 0.540203 0.525012
vt 0.624696 0.467762
vt 0.468120 0.392673
vt 0.485837 0.290912
vt 0.548250 0.393025
vt 0.806517 0.216729
vt 0.806517 0.336834
vt 0.751002 0.255837
vt 0.553979 0.291435
vt 0.726070 0.533659
vt 0.750621 0.444145
vt 0.711052 0.160474
vt 0.195252 0.433221
vt 0.553979 0.495374
vt 0.485837 0.494851
vt 0.447288 0.538047
vt 0.564713 0.441418
vt 0.473121 0.207642
vt 0.578088 0.186424
vt 0.285407 0.444107
vt 0.031774 0.540136
vt 0.315552 0.097143
vt 0.371121 0.186424
vt 0.372952 0.006157
vt 0.630141 0.097143
vt 0.285065 0.629962
vt 0.006373 0.625475
vt 0.022080 0.105214
vt 0.082741 0.018792
vt 0.006629 0.212015
vt 0.064362 0.303395
vt 0.154676 0.355958
vt 0.249900 0.326718
vt 0.322286 0.251694
vt 0.322286 0.142951
vt 0.536313 0.214193
vt 0.551299 0.207557
vt 0.551574 0.214496
vt 0.657399 0.917223
vt 0.642090 0.926277
vt 0.642117 0.917237
vt 0.657372 0.937970
vt 0.642090 0.937984
vt 0.657399 0.949207
vt 0.642117 0.949220
vt 0.952427 0.051177
vt 0.937182 0.058896
vt 0.937484 0.050891
vt 0.952126 0.059182
vt 0.937182 0.069509
vt 0.952126 0.069795
vt 0.937484 0.079885
vt 0.022065 0.881877
vt 0.007207 0.871634
vt 0.022448 0.871673
vt 0.022448 0.859849
vt 0.007207 0.859810
vt 0.022065 0.849573
vt 0.313907 0.920893
vt 0.304948 0.958841
vt 0.280471 0.929738
vt 0.536038 0.235398
vt 0.551574 0.224798
vt 0.551299 0.235702
vt 0.536313 0.224495
vt 0.877067 0.951226
vt 0.843625 0.962912
vt 0.852586 0.924208
vt 0.958270 0.389904
vt 0.920431 0.409057
vt 0.904707 0.375980
vt 0.396154 0.734394
vt 0.358477 0.725888
vt 0.394725 0.681804
vt 0.944087 0.369367
vt 0.424904 0.694538
vt 0.916324 0.339305
vt 0.156591 0.640236
vt 0.216249 0.646177
vt 0.176681 0.667054
vt 0.777150 0.054763
vt 0.739086 0.035144
vt 0.791991 0.039000
vt 0.382082 0.621972
vt 0.344599 0.592868
vt 0.385653 0.573492
vt 0.044475 0.776546
vt 0.085804 0.785584
vt 0.030667 0.806648
vt 0.962048 0.345821
vt 0.109545 0.663406
vt 0.033556 0.958841
vt 0.006227 0.955739
vt 0.017905 0.932502
vt 0.416633 0.628458
vt 0.041397 0.839604
vt 0.083995 0.822648
vt 0.093195 0.857251
vt 0.191053 0.704005
vt 0.226599 0.727755
vt 0.160652 0.738403
vt 0.076835 0.697797
vt 0.129802 0.700888
vt 0.093517 0.734754
vt 0.093904 0.931734
vt 0.056492 0.914509
vt 0.102642 0.898267
vt 0.135201 0.803767
vt 0.189902 0.807489
vt 0.148331 0.836186
vt 0.199102 0.842092
vt 0.150853 0.862636
vt 0.133083 0.925665
vt 0.062138 0.878823
vt 0.103510 0.871021
vt 0.050834 0.718203
vt 0.129321 0.761621
vt 0.190313 0.761621
vt 0.045553 0.862636
vt 0.151258 0.776215
vt 0.202030 0.782120
vt 0.105746 0.958841
vt 0.058410 0.951946
vt 0.024994 0.898653
vt 0.236506 0.683659
vt 0.266167 0.706877
vt 0.241515 0.743506
vt 0.343799 0.550635
vt 0.318387 0.559765
vt 0.332821 0.584807
vt 0.060740 0.674107
vt 0.742684 0.006084
vt 0.691296 0.013410
vt 0.258370 0.668485
vt 0.006908 0.831362
vt 0.873319 0.347318
vt 0.870922 0.383001
vt 0.350205 0.659809
vt 0.308352 0.636953
vt 0.320529 0.657089
vt 0.663822 0.035827
vt 0.634844 0.011196
vt 0.254970 0.644444
vt 0.641798 0.040929
vt 0.320414 0.696972
vt 0.034210 0.034441
vt 0.048102 0.006190
vt 0.048102 0.046499
vt 0.339024 0.765109
vt 0.366255 0.765868
vt 0.596562 0.024870
vt 0.285407 0.309698
vt 0.285407 0.336717
vt 0.265043 0.333576
vt 0.873668 0.783757
vt 0.923566 0.803310
vt 0.876474 0.798158
vt 0.018513 0.388026
vt 0.006097 0.375622
vt 0.081774 0.375622
vt 0.674726 0.041142
vt 0.720966 0.077006
vt 0.754758 0.055020
vt 0.285368 0.551574
vt 0.285368 0.494268
vt 0.293425 0.516090
vt 0.937166 0.725681
vt 0.952152 0.719046
vt 0.952427 0.725985
vt 0.946014 0.006485
vt 0.930705 0.015538
vt 0.930732 0.006498
vt 0.945987 0.027231
vt 0.930705 0.027245
vt 0.946014 0.038468
vt 0.930732 0.038482
vt 0.952427 0.596337
vt 0.937182 0.604057
vt 0.937484 0.596051
vt 0.952126 0.604343
vt 0.937182 0.614669
vt 0.952427 0.625331
vt 0.937484 0.625045
vt 0.432538 0.881877
vt 0.417681 0.871634
vt 0.432921 0.871673
vt 0.432921 0.859849
vt 0.417681 0.859810
vt 0.432538 0.849573
vt 0.501506 0.920893
vt 0.492547 0.958841
vt 0.468071 0.929738
vt 0.936891 0.746887
vt 0.952427 0.736286
vt 0.952152 0.747190
vt 0.937166 0.735983
vt 0.562798 0.951226
vt 0.529357 0.962912
vt 0.538317 0.924208
vt 0.253163 0.885765
vt 0.214677 0.920359
vt 0.213494 0.887753
vt 0.589040 0.925022
vt 0.628538 0.895791
vt 0.628538 0.929979
vt 0.589063 0.895952
vt 0.628361 0.856581
vt 0.942807 0.552758
vt 0.913041 0.512189
vt 0.942807 0.512868
vt 0.913041 0.552079
vt 0.866377 0.513183
vt 0.866377 0.553074
vt 0.820639 0.515471
vt 0.798266 0.456448
vt 0.835705 0.498661
vt 0.798266 0.497125
vt 0.835705 0.457984
vt 0.872257 0.497845
vt 0.304404 0.896857
vt 0.254347 0.918371
vt 0.214677 0.800301
vt 0.253163 0.839907
vt 0.213494 0.841895
vt 0.965382 0.323889
vt 0.857893 0.206952
vt 0.927684 0.179347
vt 0.867104 0.603953
vt 0.847567 0.655702
vt 0.835087 0.605554
vt 0.539456 0.864763
vt 0.588886 0.856742
vt 0.539580 0.892210
vt 0.303575 0.841932
vt 0.303575 0.874033
vt 0.303945 0.817952
vt 0.872257 0.457168
vt 0.835008 0.405290
vt 0.860594 0.404719
vt 0.820639 0.555362
vt 0.899769 0.603257
vt 0.920605 0.603732
vt 0.490116 0.889005
vt 0.440711 0.902416
vt 0.490038 0.871718
vt 0.353402 0.848637
vt 0.353402 0.868855
vt 0.808801 0.404214
vt 0.834406 0.352848
vt 0.901429 0.654554
vt 0.888305 0.654255
vt 0.353924 0.883230
vt 0.850520 0.352488
vt 0.867732 0.654693
vt 0.539538 0.906751
vt 0.353715 0.832635
vt 0.735147 0.932893
vt 0.716110 0.925414
vt 0.721228 0.915822
vt 0.402290 0.867737
vt 0.402290 0.874198
vt 0.849573 0.299465
vt 0.854847 0.299681
vt 0.679652 0.917329
vt 0.677089 0.936393
vt 0.402457 0.878791
vt 0.859997 0.299566
vt 0.869325 0.706783
vt 0.490097 0.899806
vt 0.440736 0.907940
vt 0.402457 0.861877
vt 0.862881 0.707105
vt 0.837854 0.912889
vt 0.820785 0.873153
vt 0.849200 0.857525
vt 0.824640 0.731696
vt 0.813293 0.772490
vt 0.764947 0.744334
vt 0.856018 0.898393
vt 0.789219 0.709794
vt 0.881931 0.870100
vt 0.853489 0.109565
vt 0.876303 0.052669
vt 0.892779 0.091390
vt 0.794558 0.193094
vt 0.817622 0.157772
vt 0.816638 0.202030
vt 0.708791 0.769234
vt 0.689172 0.813118
vt 0.674293 0.774369
vt 0.804913 0.538025
vt 0.780307 0.559945
vt 0.781708 0.500941
vt 0.883813 0.915099
vt 0.854976 0.155345
vt 0.235922 0.369116
vt 0.264117 0.355513
vt 0.261553 0.382820
vt 0.793339 0.665738
vt 0.763897 0.697474
vt 0.773504 0.635012
vt 0.606090 0.812218
vt 0.565201 0.843395
vt 0.565696 0.804840
vt 0.566789 0.737070
vt 0.600927 0.771924
vt 0.542596 0.760669
vt 0.442420 0.737070
vt 0.504724 0.727753
vt 0.469494 0.760669
vt 0.404855 0.812218
vt 0.409542 0.771924
vt 0.447414 0.804840
vt 0.751476 0.594427
vt 0.739291 0.655557
vt 0.724949 0.593186
vt 0.506871 0.832140
vt 0.506852 0.793070
vt 0.446919 0.843395
vt 0.750298 0.534094
vt 0.735132 0.700691
vt 0.214975 0.386141
vt 0.231538 0.416887
vt 0.190131 0.415166
vt 0.269373 0.409517
vt 0.894281 0.137268
vt 0.856045 0.187619
vt 0.920359 0.078812
vt 0.913945 0.881126
vt 0.910484 0.917152
vt 0.907283 0.840595
vt 0.753860 0.494045
vt 0.170158 0.389580
vt 0.200173 0.355513
vt 0.214311 0.357105
vt 0.915608 0.034592
vt 0.892328 0.012936
vt 0.879332 0.823552
vt 0.867446 0.755352
vt 0.852568 0.716603
vt 0.804913 0.601860
vt 0.721125 0.731858
vt 0.745199 0.794555
vt 0.737519 0.841274
vt 0.751707 0.825058
vt 0.835896 0.085697
vt 0.875975 0.015421
vt 0.836135 0.065041
vt 0.791044 0.817137
vt 0.810532 0.823475
vt 0.812690 0.853017
vt 0.857012 0.784291
vt 0.828572 0.846291
vt 0.799042 0.866438
vt 0.822587 0.098698
vt 0.673810 0.142704
vt 0.718455 0.115675
vt 0.740280 0.142704
vt 0.743984 0.108729
vt 0.795745 0.173393
vt 0.570815 0.322749
vt 0.570815 0.376802
vt 0.563993 0.358595
vt 0.687160 0.826468
vt 0.343130 0.164460
vt 0.334887 0.181186
vt 0.334887 0.164915
vt 0.820947 0.619211
vt 0.810957 0.684888
vt 0.810957 0.617838
vt 0.574022 0.455066
vt 0.564804 0.471403
vt 0.564804 0.455088
vt 0.655796 0.845230
vt 0.645804 0.779566
vt 0.655796 0.778194
vt 0.644117 0.904325
vt 0.707105 0.888897
vt 0.706419 0.904325
vt 0.939600 0.942807
vt 0.924357 0.896059
vt 0.939600 0.896914
vt 0.445749 0.190358
vt 0.436286 0.206840
vt 0.436286 0.190569
vt 0.337874 0.201466
vt 0.420094 0.211651
vt 0.337881 0.211651
vt 0.418491 0.557702
vt 0.408666 0.574022
vt 0.408666 0.557707
vt 0.506678 0.223912
vt 0.424475 0.234098
vt 0.424482 0.223913
vt 0.645669 0.055003
vt 0.660606 0.139497
vt 0.645669 0.138966
vt 0.535540 0.248802
vt 0.468225 0.264563
vt 0.468787 0.248802
vt 0.346337 0.225633
vt 0.336875 0.242115
vt 0.336875 0.225845
vt 0.036432 0.348980
vt 0.118653 0.359164
vt 0.036439 0.359164
vt 0.016034 0.525634
vt 0.006210 0.541954
vt 0.006210 0.525638
vt 0.432684 0.650978
vt 0.442542 0.566056
vt 0.442542 0.650986
vt 0.005907 0.640249
vt 0.020844 0.724743
vt 0.005907 0.724212
vt 0.073757 0.741050
vt 0.006442 0.756811
vt 0.007004 0.741050
vt 0.019241 0.400617
vt 0.009204 0.416841
vt 0.009204 0.400570
vt 0.830568 0.288831
vt 0.820575 0.223187
vt 0.830568 0.221801
vt 0.314269 0.522431
vt 0.304507 0.538733
vt 0.304507 0.522418
vt 0.119531 0.877964
vt 0.183053 0.888291
vt 0.118191 0.888291
vt 0.886176 0.397633
vt 0.901118 0.463386
vt 0.886176 0.463031
vt 0.933186 0.705502
vt 0.917927 0.644414
vt 0.933186 0.644787
vt 0.170483 0.926107
vt 0.147951 0.922237
vt 0.163095 0.900240
vt 0.163095 0.949220
vt 0.187599 0.913629
vt 0.187599 0.943901
vt 0.757587 0.169592
vt 0.757587 0.137427
vt 0.773727 0.153479
vt 0.240512 0.759868
vt 0.240120 0.785672
vt 0.223872 0.773795
vt 0.918427 0.469021
vt 0.914411 0.441949
vt 0.933186 0.452319
vt 0.914411 0.493851
vt 0.933186 0.484396
vt 0.397010 0.189203
vt 0.397010 0.163977
vt 0.413680 0.177861
vt 0.774945 0.179582
vt 0.223872 0.748643
vt 0.413169 0.152122
vt 0.774945 0.127538
vt 0.924828 0.109609
vt 0.946014 0.127039
vt 0.935872 0.133457
vt 0.911736 0.128209
vt 0.924829 0.157134
vt 0.946014 0.156412
vt 0.785672 0.153592
vt 0.273358 0.785672
vt 0.311059 0.711602
vt 0.027258 0.013432
vt 0.006497 0.092998
vt 0.006497 0.006940
vt 0.711824 0.509885
vt 0.656028 0.455455
vt 0.731156 0.455454
vt 0.962048 0.476214
vt 0.273358 0.663848
vt 0.690365 0.113842
vt 0.923566 0.728238
vt 0.290471 0.571919
vt 0.942807 0.818439
vt 0.942807 0.878670
vt 0.919989 0.821471
vt 0.798500 0.069787
vt 0.782114 0.113842
vt 0.391233 0.773299
vt 0.391233 0.840188
vt 0.337418 0.795388
vt 0.615888 0.742763
vt 0.681450 0.760594
vt 0.615888 0.772845
vt 0.794558 0.006947
vt 0.756817 0.917152
vt 0.260314 0.007194
vt 0.349544 0.007194
vt 0.291444 0.032823
vt 0.305075 0.048102
vt 0.402457 0.936393
vt 0.341350 0.936393
vt 0.389506 0.892093
vt 0.737415 0.873860
vt 0.659021 0.873860
vt 0.756545 0.481149
vt 0.779258 0.421663
vt 0.779258 0.487438
vt 0.051309 0.317531
vt 0.006850 0.359164
vt 0.033619 0.285288
vt 0.006850 0.265841
vt 0.536038 0.207254
vt 0.657372 0.926263
vt 0.952427 0.080171
vt 0.006824 0.881838
vt 0.006824 0.849534
vt 0.285644 0.919688
vt 0.294603 0.914140
vt 0.304948 0.914581
vt 0.319079 0.931384
vt 0.319079 0.943243
vt 0.313907 0.953293
vt 0.294603 0.958400
vt 0.285644 0.952089
vt 0.280471 0.941598
vt 0.862933 0.923769
vt 0.871893 0.929318
vt 0.877067 0.939368
vt 0.871893 0.961714
vt 0.862933 0.968023
vt 0.852586 0.968461
vt 0.838452 0.952863
vt 0.838452 0.941005
vt 0.843625 0.930517
vt 0.936891 0.718742
vt 0.945987 0.015525
vt 0.952126 0.614955
vt 0.417298 0.881838
vt 0.417298 0.849534
vt 0.473243 0.919688
vt 0.482202 0.914140
vt 0.492547 0.914581
vt 0.506678 0.931384
vt 0.506678 0.943243
vt 0.501506 0.953293
vt 0.482202 0.958400
vt 0.473243 0.952089
vt 0.468071 0.941598
vt 0.548664 0.923769
vt 0.557625 0.929318
vt 0.562798 0.939368
vt 0.557624 0.961714
vt 0.548664 0.968023
vt 0.538317 0.968461
vt 0.524183 0.952863
vt 0.524183 0.941005
vt 0.529357 0.930517
vt 0.254097 0.801111
vt 0.969315 0.206952
vt 0.994116 0.251618
vt 0.992614 0.296284
vt 0.922822 0.323889
vt 0.881191 0.296284
vt 0.856390 0.251618
vt 0.885124 0.179347
vt 0.817899 0.352170
vt 0.727364 0.916251
vt 0.732993 0.920445
vt 0.735967 0.926801
vt 0.730849 0.936393
vt 0.724713 0.935964
vt 0.719084 0.931770
vt 0.716930 0.919322
vt 0.875899 0.706643
vt 0.440736 0.912756
vt 0.343130 0.180731
vt 0.820947 0.686261
vt 0.574022 0.471381
vt 0.645804 0.846602
vt 0.644803 0.888897
vt 0.924357 0.941951
vt 0.445749 0.206629
vt 0.420087 0.201466
vt 0.418491 0.574017
vt 0.506671 0.234098
vt 0.660606 0.055534
vt 0.534978 0.264563
vt 0.346337 0.241904
vt 0.118645 0.348980
vt 0.016034 0.541949
vt 0.432684 0.566048
vt 0.020844 0.640780
vt 0.073195 0.756811
vt 0.019241 0.416887
vt 0.820575 0.290218
vt 0.314269 0.538747
vt 0.184392 0.877964
vt 0.901118 0.397989
vt 0.917927 0.705129
s 1
usemtl molesAtlas
f 1/1/1 14/2/1 13/3/1
f 2/4/2 14/2/2 16/5/2
f 1/1/3 13/3/3 18/6/3
f 1/1/4 18/6/4 20/7/4
f 1/1/5 20/7/5 17/8/5
f 2/9/6 16/10/6 23/11/6
f 3/12/7 15/13/7 25/14/7
f 4/15/8 19/16/8 27/17/8
f 5/18/9 21/19/9 29/20/9
f 6/21/10 22/22/10 31/23/10
f 2/9/11 23/11/11 26/24/11
f 3/12/12 25/14/12 28/25/12
f 4/15/13 27/17/13 30/26/13
f 5/18/14 29/20/14 32/27/14
f 6/28/15 31/29/15 24/30/15
f 7/31/16 33/32/16 38/33/16
f 8/34/17 34/35/17 40/36/17
f 9/37/18 35/38/18 41/39/18
f 10/40/19 36/41/19 42/42/19
f 11/43/20 37/44/20 39/45/20
f 39/46/21 42/47/21 12/48/21
f 39/45/22 37/44/22 42/49/22
f 37/50/23 10/40/23 42/42/23
f 42/47/24 41/39/24 12/48/24
f 42/47/25 36/51/25 41/39/25
f 36/51/26 9/37/26 41/39/26
f 41/39/27 40/36/27 12/48/27
f 41/39/28 35/38/28 40/36/28
f 35/38/29 8/34/29 40/36/29
f 40/36/30 38/52/30 12/48/30
f 40/36/31 34/35/31 38/52/31
f 34/53/32 7/31/32 38/33/32
f 38/52/33 39/46/33 12/48/33
f 38/54/34 33/55/34 39/45/34
f 33/55/35 11/43/35 39/45/35
f 24/30/36 37/44/36 11/43/36
f 24/30/37 31/29/37 37/44/37
f 31/23/38 10/40/38 37/50/38
f 32/27/39 36/41/39 10/40/39
f 32/27/40 29/20/40 36/41/40
f 29/20/41 9/56/41 36/41/41
f 30/57/42 35/38/42 9/37/42
f 30/26/43 27/17/43 35/58/43
f 27/17/44 8/59/44 35/58/44
f 28/25/45 34/53/45 8/60/45
f 28/25/46 25/14/46 34/53/46
f 25/14/47 7/31/47 34/53/47
f 26/61/48 33/32/48 7/31/48
f 26/24/49 23/11/49 33/55/49
f 23/11/50 11/43/50 33/55/50
f 31/23/51 32/27/51 10/40/51
f 31/23/52 22/22/52 32/27/52
f 22/22/53 5/18/53 32/27/53
f 29/62/54 30/26/54 9/63/54
f 29/62/55 21/64/55 30/26/55
f 21/64/56 4/15/56 30/26/56
f 27/17/57 28/65/57 8/59/57
f 27/17/58 19/16/58 28/65/58
f 19/66/59 3/12/59 28/25/59
f 25/14/60 26/61/60 7/31/60
f 25/14/61 15/13/61 26/61/61
f 15/13/62 2/67/62 26/61/62
f 23/11/63 24/30/63 11/43/63
f 23/11/64 16/10/64 24/30/64
f 16/10/65 6/28/65 24/30/65
f 17/8/66 22/68/66 6/69/66
f 17/8/67 20/7/67 22/68/67
f 20/7/68 5/70/68 22/68/68
f 20/7/69 21/71/69 5/70/69
f 20/7/70 18/6/70 21/71/70
f 18/6/71 4/72/71 21/71/71
f 18/6/72 19/73/72 4/72/72
f 18/6/73 13/3/73 19/73/73
f 13/3/74 3/74/74 19/73/74
f 16/5/75 17/8/75 6/69/75
f 16/5/76 14/2/76 17/8/76
f 14/2/77 1/1/77 17/8/77
f 13/3/78 15/75/78 3/74/78
f 13/3/79 14/2/79 15/75/79
f 14/2/80 2/4/80 15/75/80
f 44/76/81 45/77/81 43/78/81
f 46/79/82 47/80/82 45/81/82
f 47/80/83 50/82/83 49/83/83
f 49/83/84 52/84/84 51/85/84
f 52/86/85 53/87/85 51/88/85
f 54/89/86 55/90/86 53/87/86
f 56/91/87 57/92/87 55/90/87
f 57/93/88 60/94/88 59/95/88
f 60/94/89 61/96/89 59/95/89
f 62/97/90 63/98/90 61/96/90
f 64/99/91 56/100/91 48/101/91
f 64/102/92 65/103/92 63/104/92
f 66/105/93 43/78/93 65/103/93
f 49/106/94 57/107/94 65/108/94
f 110/109/95 108/110/95 80/111/95
f 68/112/96 79/113/96 81/114/96
f 110/109/97 80/111/97 69/115/97
f 68/112/98 81/114/98 88/116/98
f 69/115/99 80/111/99 90/117/99
f 70/118/100 84/119/100 92/120/100
f 71/121/101 86/122/101 94/123/101
f 72/124/102 87/125/102 96/126/102
f 68/127/103 88/128/103 91/129/103
f 69/115/104 90/117/104 93/130/104
f 70/118/105 92/120/105 95/131/105
f 116/132/106 71/133/106 94/134/106
f 72/124/107 96/126/107 89/135/107
f 73/136/108 98/137/108 103/138/108
f 74/139/109 99/140/109 105/141/109
f 75/142/110 100/143/110 106/144/110
f 76/145/111 101/146/111 107/147/111
f 77/148/112 102/149/112 104/150/112
f 104/150/113 107/151/113 78/152/113
f 104/150/114 102/149/114 107/151/114
f 102/153/115 76/145/115 107/147/115
f 107/147/116 106/154/116 78/155/116
f 107/147/117 101/146/117 106/154/117
f 101/156/118 75/142/118 106/144/118
f 106/144/119 105/141/119 78/157/119
f 106/144/120 100/143/120 105/141/120
f 100/143/121 74/139/121 105/141/121
f 105/141/122 103/158/122 78/157/122
f 105/141/123 99/140/123 103/158/123
f 99/159/124 73/136/124 103/138/124
f 103/138/125 104/150/125 78/152/125
f 103/138/126 98/137/126 104/150/126
f 98/137/127 77/148/127 104/150/127
f 89/160/128 102/149/128 77/148/128
f 89/160/129 96/161/129 102/149/129
f 96/162/130 76/145/130 102/153/130
f 97/163/131 101/146/131 76/145/131
f 97/163/132 94/134/132 101/146/132
f 94/134/133 75/164/133 101/146/133
f 95/131/134 100/143/134 75/142/134
f 95/131/135 92/120/135 100/143/135
f 92/120/136 74/139/136 100/143/136
f 93/165/137 99/140/137 74/139/137
f 93/165/138 90/166/138 99/140/138
f 90/166/139 73/167/139 99/140/139
f 91/129/140 98/137/140 73/136/140
f 91/129/141 88/128/141 98/137/141
f 88/128/142 77/148/142 98/137/142
f 96/162/143 97/163/143 76/145/143
f 96/126/144 87/125/144 97/168/144
f 116/169/145 97/168/145 114/170/145
f 94/171/146 95/131/146 75/142/146
f 94/123/147 86/122/147 95/172/147
f 86/122/148 70/173/148 95/172/148
f 92/120/149 93/165/149 74/139/149
f 92/120/150 84/119/150 93/165/150
f 84/119/151 69/174/151 93/165/151
f 90/175/152 91/129/152 73/136/152
f 90/117/153 80/111/153 91/176/153
f 80/111/154 68/177/154 91/176/154
f 88/128/155 89/160/155 77/148/155
f 88/116/156 81/114/156 89/135/156
f 81/114/157 72/124/157 89/135/157
f 82/178/158 87/125/158 72/124/158
f 82/178/159 85/179/159 87/125/159
f 114/170/160 97/168/160 87/125/160
f 112/180/161 85/179/161 82/178/161
f 83/181/162 70/173/162 86/122/162
f 83/181/163 84/182/163 70/173/163
f 110/183/164 69/174/164 84/119/164
f 111/184/165 84/182/165 83/181/165
f 81/114/166 82/178/166 72/124/166
f 81/114/167 79/113/167 82/178/167
f 79/113/168 67/185/168 82/178/168
f 109/186/169 83/187/169 67/188/169
f 79/113/170 108/189/170 67/185/170
f 79/113/171 68/112/171 80/190/171
f 108/189/172 79/113/172 80/190/172
f 111/184/173 110/191/173 84/182/173
f 109/192/174 111/193/174 83/194/174
f 113/195/175 67/196/175 83/197/175
f 113/198/176 83/199/176 86/200/176
f 112/180/177 82/178/177 67/185/177
f 113/201/178 86/122/178 85/202/178
f 115/203/179 85/202/179 86/122/179
f 115/203/180 86/122/180 71/121/180
f 116/204/181 115/205/181 71/206/181
f 116/132/182 94/134/182 97/163/182
f 85/179/183 114/170/183 87/125/183
f 118/207/81 119/208/81 117/209/81
f 120/210/82 121/211/82 119/212/82
f 121/211/83 124/213/83 123/214/83
f 123/214/84 126/215/84 125/216/84
f 126/217/85 127/218/85 125/219/85
f 128/220/86 129/221/86 127/218/86
f 129/221/87 132/222/87 131/223/87
f 131/224/88 134/225/88 133/226/88
f 134/225/89 135/227/89 133/226/89
f 136/228/90 137/229/90 135/227/90
f 138/230/91 130/231/91 122/232/91
f 138/233/92 139/234/92 137/235/92
f 140/236/93 117/209/93 139/234/93
f 123/237/94 131/238/94 139/239/94
f 142/240/184 143/241/184 141/242/184
f 144/243/185 145/244/186 143/245/187
f 146/246/188 147/247/188 145/244/188
f 148/248/189 149/249/189 147/250/189
f 150/251/190 151/252/190 149/249/190
f 152/253/191 153/254/191 151/252/191
f 154/255/192 155/256/192 153/257/192
f 156/258/193 157/259/193 155/256/193
f 142/240/194 161/260/194 144/261/194
f 157/262/195 160/263/196 159/264/197
f 159/264/198 142/240/198 141/242/198
f 147/265/94 155/266/94 159/267/94
f 166/268/199 177/269/199 167/270/199
f 146/246/200 164/271/200 148/272/200
f 144/243/201 163/273/202 146/246/203
f 142/240/204 170/274/204 162/275/204
f 160/263/205 169/276/206 170/274/207
f 158/277/208 168/278/208 169/279/208
f 154/255/209 168/278/209 156/258/209
f 152/253/210 167/270/210 154/280/210
f 152/253/211 165/281/211 166/268/211
f 150/251/212 164/282/212 165/281/212
f 173/283/200 184/284/200 174/285/200
f 163/273/213 174/285/213 164/271/213
f 162/275/214 180/286/214 172/287/214
f 167/288/215 178/289/215 168/278/215
f 165/281/216 174/290/216 175/291/216
f 162/275/217 171/292/217 161/260/217
f 168/278/218 179/293/218 169/279/218
f 166/268/219 175/291/219 176/294/219
f 161/295/220 173/283/221 163/273/222
f 170/274/223 179/296/224 180/286/225
f 189/297/91 185/298/91 183/299/91
f 172/287/226 190/300/226 182/301/226
f 178/289/227 187/302/227 188/303/227
f 174/304/228 185/298/228 175/305/228
f 172/287/229 181/306/229 171/292/229
f 179/293/208 188/303/208 189/307/208
f 175/291/230 186/308/230 176/294/230
f 171/309/231 183/310/232 173/283/233
f 180/286/234 189/311/235 190/300/236
f 177/269/237 186/308/237 187/312/237
f 234/313/238 232/314/238 204/315/238
f 192/316/239 203/317/239 205/318/239
f 234/313/240 204/315/240 193/319/240
f 192/316/241 205/318/241 212/320/241
f 193/319/242 204/315/242 214/321/242
f 194/322/243 208/323/243 216/324/243
f 195/325/244 210/326/244 218/327/244
f 196/328/245 211/329/245 220/330/245
f 192/331/246 212/332/246 215/333/246
f 193/319/247 214/321/247 217/334/247
f 194/322/248 216/324/248 219/335/248
f 240/336/249 195/337/249 218/338/249
f 196/339/250 220/340/250 213/341/250
f 197/342/251 222/343/251 227/344/251
f 198/345/252 223/346/252 229/347/252
f 199/348/253 224/349/253 230/350/253
f 200/351/254 225/352/254 231/353/254
f 201/354/255 226/355/255 228/356/255
f 228/357/256 231/353/256 202/358/256
f 228/357/257 226/359/257 231/353/257
f 226/359/258 200/351/258 231/353/258
f 231/353/259 230/350/259 202/358/259
f 231/353/260 225/352/260 230/350/260
f 225/352/261 199/348/261 230/350/261
f 230/350/262 229/347/262 202/358/262
f 230/350/263 224/349/263 229/347/263
f 224/349/264 198/345/264 229/347/264
f 229/347/265 227/344/265 202/358/265
f 229/347/266 223/346/266 227/344/266
f 223/346/267 197/342/267 227/344/267
f 227/344/268 228/357/268 202/358/268
f 227/344/269 222/343/269 228/357/269
f 222/360/270 201/354/270 228/356/270
f 213/341/271 226/355/271 201/354/271
f 213/341/272 220/340/272 226/355/272
f 220/340/273 200/361/273 226/355/273
f 221/362/274 225/363/274 200/364/274
f 221/362/275 218/338/275 225/363/275
f 218/338/276 199/365/276 225/363/276
f 219/335/277 224/366/277 199/367/277
f 219/335/278 216/324/278 224/366/278
f 216/324/279 198/368/279 224/366/279
f 217/334/280 223/369/280 198/370/280
f 217/334/281 214/321/281 223/369/281
f 214/321/282 197/371/282 223/369/282
f 215/333/283 222/360/283 197/372/283
f 215/333/284 212/332/284 222/360/284
f 212/332/285 201/354/285 222/360/285
f 220/373/286 221/362/286 200/364/286
f 220/373/287 211/374/287 221/362/287
f 240/336/288 221/362/288 238/375/288
f 218/327/289 219/335/289 199/367/289
f 218/327/290 210/326/290 219/335/290
f 210/326/291 194/322/291 219/335/291
f 216/324/292 217/376/292 198/368/292
f 216/324/293 208/323/293 217/376/293
f 208/323/294 193/377/294 217/376/294
f 214/321/295 215/378/295 197/371/295
f 214/321/296 204/315/296 215/378/296
f 204/379/297 192/316/297 215/380/297
f 212/332/298 213/341/298 201/354/298
f 212/332/299 205/381/299 213/341/299
f 205/318/300 196/328/300 213/382/300
f 206/383/301 211/329/301 196/328/301
f 206/383/302 209/384/302 211/329/302
f 238/375/303 221/362/303 211/374/303
f 236/385/304 209/384/304 206/383/304
f 207/386/305 194/322/305 210/326/305
f 207/386/306 208/323/306 194/322/306
f 234/387/307 193/377/307 208/323/307
f 235/388/308 208/323/308 207/386/308
f 205/318/309 206/383/309 196/328/309
f 205/318/310 203/317/310 206/383/310
f 203/317/311 191/389/311 206/383/311
f 233/390/312 207/391/312 191/389/312
f 203/317/313 232/392/313 191/389/313
f 203/317/314 192/316/314 204/379/314
f 232/392/315 203/317/315 204/379/315
f 235/388/316 234/387/316 208/323/316
f 233/390/317 235/393/317 207/391/317
f 237/394/318 191/389/318 207/391/318
f 237/395/319 207/386/319 210/326/319
f 236/385/320 206/383/320 191/389/320
f 237/396/321 210/397/321 209/398/321
f 239/399/322 209/398/322 210/397/322
f 239/400/323 210/326/323 195/325/323
f 240/401/324 239/402/324 195/403/324
f 240/336/325 218/338/325 221/362/325
f 209/384/326 238/404/326 211/329/326
f 242/405/327 243/406/327 241/407/327
f 244/408/94 247/409/94 243/410/94
f 248/411/328 245/412/328 247/413/328
f 245/414/91 242/415/91 241/416/91
f 247/417/329 241/418/329 243/419/329
f 244/420/330 246/421/330 248/422/330
f 250/423/193 251/424/193 249/425/193
f 252/426/94 255/427/94 251/428/94
f 256/429/188 253/430/188 255/431/188
f 253/432/91 250/433/91 249/434/91
f 255/435/331 249/436/331 251/437/331
f 252/438/332 254/439/332 256/440/332
f 258/441/193 259/442/193 257/443/193
f 260/444/94 263/445/94 259/446/94
f 264/447/188 261/448/188 263/449/188
f 262/450/91 257/451/91 261/452/91
f 263/453/331 257/454/331 259/455/331
f 260/456/332 262/457/332 264/458/332
f 266/459/333 267/460/333 265/461/333
f 267/462/94 272/463/94 271/464/94
f 272/465/334 269/466/334 271/467/334
f 270/468/91 265/469/91 269/470/91
f 271/471/335 265/472/335 267/473/335
f 268/474/336 270/475/336 272/476/336
f 273/477/337 274/478/337 275/479/337
f 274/478/338 273/477/338 278/480/338
f 273/477/339 275/479/339 276/481/339
f 273/477/340 276/481/340 277/482/340
f 273/477/341 277/482/341 278/480/341
f 274/483/342 278/484/342 283/485/342
f 275/486/343 274/487/343 279/488/343
f 276/489/344 275/490/344 280/491/344
f 277/492/345 276/489/345 281/493/345
f 278/494/346 277/495/346 282/496/346
f 274/483/347 283/485/347 279/497/347
f 275/486/348 279/488/348 280/498/348
f 276/489/349 280/491/349 281/493/349
f 277/495/350 281/499/350 282/496/350
f 278/484/351 282/500/351 283/485/351
f 279/501/352 283/502/352 284/503/352
f 280/504/353 279/501/353 284/503/353
f 281/505/354 280/504/354 284/503/354
f 282/506/355 281/505/355 284/503/355
f 283/485/356 282/500/356 284/507/356
f 287/189/357 288/508/357 289/509/357
f 289/510/358 288/511/358 291/512/358
f 291/513/359 288/514/359 290/515/359
f 290/109/360 288/516/360 287/110/360
f 287/189/361 289/509/361 285/185/361
f 285/185/362 292/517/362 293/180/362
f 293/180/363 292/517/363 286/179/363
f 286/202/364 292/518/364 294/201/364
f 294/195/365 292/519/365 285/196/365
f 286/179/366 295/520/366 296/170/366
f 296/521/367 295/522/367 298/523/367
f 298/524/368 295/525/368 297/203/368
f 297/203/369 295/525/369 286/202/369
f 301/526/370 302/527/370 303/528/370
f 303/529/371 302/530/371 305/531/371
f 305/388/372 302/532/372 304/387/372
f 304/313/373 302/533/373 301/314/373
f 301/392/374 303/390/374 299/389/374
f 299/534/375 306/535/375 307/536/375
f 307/536/376 306/535/376 300/537/376
f 300/538/377 306/539/377 308/540/377
f 308/394/378 306/541/378 299/389/378
f 300/384/379 309/542/379 310/404/379
f 310/543/380 309/544/380 312/545/380
f 312/546/381 309/547/381 311/548/381
f 311/548/382 309/547/382 300/549/382
f 44/76/81 46/550/81 45/77/81
f 46/79/82 48/551/82 47/80/82
f 47/80/83 48/551/83 50/82/83
f 49/83/84 50/82/84 52/84/84
f 52/86/85 54/89/85 53/87/85
f 54/89/86 56/91/86 55/90/86
f 56/91/87 58/552/87 57/92/87
f 57/93/88 58/553/88 60/94/88
f 60/94/89 62/97/89 61/96/89
f 62/97/90 64/554/90 63/98/90
f 48/101/91 46/555/91 44/556/91
f 44/556/91 66/557/91 64/99/91
f 64/99/91 62/558/91 60/559/91
f 60/559/91 58/560/91 56/100/91
f 56/100/91 54/561/91 52/562/91
f 52/562/91 50/563/91 48/101/91
f 48/101/91 44/556/91 64/99/91
f 64/99/91 60/559/91 56/100/91
f 56/100/91 52/562/91 48/101/91
f 64/102/92 66/105/92 65/103/92
f 66/105/93 44/76/93 43/78/93
f 65/108/94 43/564/94 45/565/94
f 45/565/94 47/566/94 49/106/94
f 49/106/94 51/567/94 53/568/94
f 53/568/94 55/569/94 57/107/94
f 57/107/94 59/570/94 61/571/94
f 61/571/94 63/572/94 65/108/94
f 65/108/94 45/565/94 49/106/94
f 49/106/94 53/568/94 57/107/94
f 57/107/94 61/571/94 65/108/94
f 118/207/81 120/573/81 119/208/81
f 120/210/82 122/574/82 121/211/82
f 121/211/83 122/574/83 124/213/83
f 123/214/84 124/213/84 126/215/84
f 126/217/85 128/220/85 127/218/85
f 128/220/86 130/575/86 129/221/86
f 129/221/87 130/575/87 132/222/87
f 131/224/88 132/576/88 134/225/88
f 134/225/89 136/228/89 135/227/89
f 136/228/90 138/577/90 137/229/90
f 122/232/91 120/578/91 118/579/91
f 118/579/91 140/580/91 138/230/91
f 138/230/91 136/581/91 134/582/91
f 134/582/91 132/583/91 130/231/91
f 130/231/91 128/584/91 126/585/91
f 126/585/91 124/586/91 122/232/91
f 122/232/91 118/579/91 138/230/91
f 138/230/91 134/582/91 130/231/91
f 130/231/91 126/585/91 122/232/91
f 138/233/92 140/236/92 139/234/92
f 140/236/93 118/207/93 117/209/93
f 139/239/94 117/587/94 119/588/94
f 119/588/94 121/589/94 123/237/94
f 123/237/94 125/590/94 127/591/94
f 127/591/94 129/592/94 131/238/94
f 131/238/94 133/593/94 135/594/94
f 135/594/94 137/595/94 139/239/94
f 139/239/94 119/588/94 123/237/94
f 123/237/94 127/591/94 131/238/94
f 131/238/94 135/594/94 139/239/94
f 142/240/184 144/261/184 143/241/184
f 144/243/185 146/246/383 145/244/186
f 146/246/188 148/272/188 147/247/188
f 148/248/189 150/251/189 149/249/189
f 150/251/190 152/253/190 151/252/190
f 152/253/191 154/280/191 153/254/191
f 154/255/192 156/258/192 155/256/192
f 156/258/193 158/277/193 157/259/193
f 142/240/194 162/275/194 161/260/194
f 157/262/195 158/596/384 160/263/196
f 159/264/198 160/263/198 142/240/198
f 159/267/94 141/597/94 143/598/94
f 143/598/94 145/599/94 147/265/94
f 147/265/94 149/600/94 151/601/94
f 151/601/94 153/602/94 155/266/94
f 155/266/94 157/603/94 159/267/94
f 159/267/94 143/598/94 147/265/94
f 147/265/94 151/601/94 155/266/94
f 166/268/199 176/294/199 177/269/199
f 146/246/200 163/273/200 164/271/200
f 144/243/201 161/295/385 163/273/202
f 142/240/204 160/263/204 170/274/204
f 160/263/205 158/596/386 169/276/206
f 158/277/208 156/258/208 168/278/208
f 154/255/209 167/288/209 168/278/209
f 152/253/210 166/268/210 167/270/210
f 152/253/211 150/251/211 165/281/211
f 150/251/212 148/248/212 164/282/212
f 173/283/200 183/310/200 184/284/200
f 163/273/213 173/283/213 174/285/213
f 162/275/214 170/274/214 180/286/214
f 167/288/215 177/604/215 178/289/215
f 165/281/216 164/282/216 174/290/216
f 162/275/217 172/287/217 171/292/217
f 168/278/218 178/289/218 179/293/218
f 166/268/219 165/281/219 175/291/219
f 161/295/220 171/309/387 173/283/221
f 170/274/223 169/276/388 179/296/224
f 183/299/91 181/605/91 182/606/91
f 182/606/91 190/607/91 189/297/91
f 189/297/91 188/608/91 187/609/91
f 187/609/91 186/610/91 185/298/91
f 185/298/91 184/611/91 183/299/91
f 183/299/91 182/606/91 189/297/91
f 189/297/91 187/609/91 185/298/91
f 172/287/226 180/286/226 190/300/226
f 178/289/227 177/604/227 187/302/227
f 174/304/228 184/611/228 185/298/228
f 172/287/229 182/301/229 181/306/229
f 179/293/208 178/289/208 188/303/208
f 175/291/230 185/612/230 186/308/230
f 171/309/231 181/613/389 183/310/232
f 180/286/234 179/296/390 189/311/235
f 177/269/237 176/294/237 186/308/237
f 242/405/327 244/614/327 243/406/327
f 244/408/94 248/615/94 247/409/94
f 248/411/328 246/616/328 245/412/328
f 245/414/91 246/617/91 242/415/91
f 247/417/329 245/618/329 241/418/329
f 244/420/330 242/619/330 246/421/330
f 250/423/193 252/620/193 251/424/193
f 252/426/94 256/621/94 255/427/94
f 256/429/188 254/622/188 253/430/188
f 253/432/91 254/623/91 250/433/91
f 255/435/331 253/624/331 249/436/331
f 252/438/332 250/625/332 254/439/332
f 258/441/193 260/626/193 259/442/193
f 260/444/94 264/627/94 263/445/94
f 264/447/188 262/628/188 261/448/188
f 262/450/91 258/629/91 257/451/91
f 263/453/331 261/630/331 257/454/331
f 260/456/332 258/631/332 262/457/332
f 266/459/333 268/632/333 267/460/333
f 267/462/94 268/633/94 272/463/94
f 272/465/334 270/634/334 269/466/334
f 270/468/91 266/635/91 265/469/91
f 271/471/335 269/636/335 265/472/335
f 268/474/336 266/637/336 270/475/336
