# Blender 5.0.0
# www.blender.org
mtllib MoleNail.mtl
o RightHand.001
v 1.225000 0.410289 0.200000
v 1.261743 0.509104 0.499997
v 1.159045 0.370518 -0.178053
v 1.553112 0.032755 -0.060840
v 1.297858 0.450662 0.114749
v 1.344278 0.605583 -0.253896
v 1.462785 0.545882 0.063661
v 1.464827 0.105638 0.571932
v 1.195843 0.439509 0.404701
v 1.523190 0.596053 0.241350
v 1.308496 0.350914 0.945569
v 1.076838 0.594095 0.716469
v 1.400835 0.702157 0.625589
v 1.161271 0.760356 0.799702
vn -0.6506 -0.5954 0.4714
vn 0.3734 -0.1561 0.9144
vn 0.9242 0.2356 -0.3006
vn 0.0118 -0.3155 -0.9489
vn 0.4902 -0.8716 0.0062
vn -0.7737 -0.6333 -0.0198
vn -0.7087 -0.2383 0.6641
vn 0.5676 0.4127 0.7124
vn 0.4354 -0.5382 -0.7216
vn -0.6010 -0.7710 -0.2107
vn -0.7028 0.0007 0.7114
vn 0.5938 0.4509 0.6663
vn 0.8554 -0.4532 -0.2507
vt 0.391903 0.956956
vt 0.401881 0.979568
vt 0.401881 0.954544
vt 0.403832 0.913412
vt 0.402175 0.892254
vt 0.395451 0.913412
vt 0.311413 0.897517
vt 0.302544 0.873789
vt 0.300629 0.904552
vt 0.347758 0.948383
vt 0.365981 0.971861
vt 0.360860 0.947489
vt 0.094615 0.908150
vt 0.105213 0.904420
vt 0.103859 0.899767
vt 0.405072 0.942883
vt 0.405072 0.919143
vt 0.398070 0.939814
vt 0.394866 0.938581
vt 0.380992 0.962512
vt 0.391903 0.981168
vt 0.391903 0.954544
vt 0.365981 0.958578
vt 0.380992 0.979319
vt 0.380992 0.956271
vt 0.395451 0.877376
vt 0.406191 0.892254
vt 0.406191 0.873789
vt 0.367439 0.891005
vt 0.372823 0.873789
vt 0.360653 0.891552
vt 0.355191 0.881719
vt 0.409716 0.972406
vt 0.409716 0.954544
vt 0.401881 0.971214
s 1
usemtl molesAtlas
f 3/1/1 4/2/1 5/3/1
f 5/4/2 4/5/2 7/6/2
f 7/7/3 4/8/3 6/9/3
f 6/10/4 4/11/4 3/12/4
f 3/13/5 5/14/5 1/15/5
f 1/16/6 8/17/6 9/18/6
f 9/18/7 8/17/7 2/19/7
f 2/20/8 8/21/8 10/22/8
f 10/23/9 8/24/9 1/25/9
f 2/26/10 11/27/10 12/28/10
f 12/29/11 11/30/11 14/31/11
f 14/31/12 11/30/12 13/32/12
f 13/33/13 11/34/13 2/35/13
o LeftHand.001
v -1.194856 0.462500 0.425000
v -1.311100 0.423615 0.131592
v -1.034290 0.586601 0.753136
v -1.424867 0.254883 0.896399
v -1.246303 0.539958 0.499562
v -1.207994 0.841633 0.763340
v -1.398457 0.657300 0.543806
v -1.501959 0.041323 0.294771
v -1.219545 0.398455 0.227781
v -1.504172 0.628993 0.383299
v -1.458502 0.091095 -0.174098
v -1.191437 0.395605 -0.138906
v -1.488130 0.550956 -0.025995
v -1.303495 0.514016 -0.261873
vn 0.5455 -0.7775 -0.3131
vn -0.5805 -0.5147 -0.6310
vn -0.8318 0.3957 0.3893
vn 0.2441 0.1278 0.9613
vn -0.4248 -0.7582 0.4946
vn 0.7895 -0.6059 0.0979
vn 0.5327 -0.5430 -0.6491
vn -0.7506 0.0957 -0.6538
vn -0.2092 -0.1464 0.9669
vn 0.6783 -0.6372 0.3660
vn 0.5013 -0.3481 -0.7921
vn -0.7667 0.1515 -0.6239
vn -0.7378 -0.2495 0.6272
vt 0.393938 0.959133
vt 0.403845 0.981582
vt 0.403845 0.956738
vt 0.405782 0.915901
vt 0.404137 0.894895
vt 0.397461 0.915901
vt 0.314025 0.900120
vt 0.305220 0.876562
vt 0.303319 0.907104
vt 0.350110 0.950622
vt 0.368203 0.973931
vt 0.363118 0.949733
vt 0.089875 0.910660
vt 0.100397 0.906957
vt 0.099052 0.902336
vt 0.407013 0.945161
vt 0.407013 0.921591
vt 0.400061 0.942114
vt 0.396881 0.940889
vt 0.383106 0.964649
vt 0.393938 0.983171
vt 0.393938 0.956738
vt 0.368203 0.960743
vt 0.383106 0.981335
vt 0.383106 0.958452
vt 0.397461 0.880124
vt 0.408124 0.894895
vt 0.408124 0.876562
vt 0.369650 0.893655
vt 0.374995 0.876562
vt 0.362913 0.894198
vt 0.357490 0.884435
vt 0.411623 0.974472
vt 0.411623 0.956738
vt 0.403845 0.973288
s 1
usemtl molesAtlas
f 17/36/14 18/37/14 19/38/14
f 19/39/15 18/40/15 21/41/15
f 21/42/16 18/43/16 20/44/16
f 20/45/17 18/46/17 17/47/17
f 17/48/18 19/49/18 15/50/18
f 15/51/19 22/52/19 23/53/19
f 23/53/20 22/52/20 16/54/20
f 16/55/21 22/56/21 24/57/21
f 24/58/22 22/59/22 15/60/22
f 16/61/23 25/62/23 26/63/23
f 26/64/24 25/65/24 28/66/24
f 28/66/25 25/65/25 27/67/25
f 27/68/26 25/69/26 16/70/26
