# Blender 5.0.0
# www.blender.org
mtllib Pickaxe2.mtl
o Cilindro.008
v 0.000000 -0.002724 0.250000
v 0.000000 0.197276 0.350000
v -0.176777 -0.002724 0.176777
v -0.247487 0.197276 0.247487
v -0.250000 -0.002724 0.000000
v -0.350000 0.197276 -0.000000
v -0.176777 -0.002724 -0.176777
v -0.247487 0.197276 -0.247487
v 0.000000 -0.002724 -0.250000
v 0.000000 0.197276 -0.350000
v 0.176777 -0.002724 -0.176777
v 0.247487 0.197276 -0.247487
v 0.250000 -0.002724 0.000000
v 0.350000 0.197276 -0.000000
v 0.176777 -0.002724 0.176777
v 0.247487 0.197276 0.247487
v 0.000000 0.397276 0.241761
v -0.170951 0.397276 0.170951
v -0.241761 0.397276 -0.000000
v -0.170951 0.397276 -0.170951
v 0.000000 0.397276 -0.241761
v 0.170951 0.397276 -0.170951
v 0.241761 0.397276 -0.000000
v 0.170951 0.397276 0.170951
v -0.247487 0.397276 0.247487
v 0.000000 0.397276 0.350000
v -0.350000 0.397276 -0.000000
v -0.247487 0.397276 -0.247487
v 0.000000 0.397276 -0.350000
v 0.247487 0.397276 -0.247487
v 0.350000 0.397276 -0.000000
v 0.247487 0.397276 0.247487
v 0.000000 0.097276 0.315000
v -0.222739 0.097276 0.222739
v -0.315000 0.097276 -0.000000
v -0.222739 0.097276 -0.222739
v 0.000000 0.097276 -0.315000
v 0.222739 0.097276 -0.222739
v 0.315000 0.097276 -0.000000
v 0.222739 0.097276 0.222739
v 0.000000 0.947276 0.183522
v -0.129769 0.947276 0.129769
v -0.183522 0.947276 -0.000000
v -0.129769 0.947276 -0.129769
v 0.000000 0.947276 -0.183522
v 0.129769 0.947276 -0.129769
v 0.183522 0.947276 -0.000000
v 0.129769 0.947276 0.129769
v 0.000000 2.947276 0.183522
v -0.129769 2.947276 0.129769
v -0.183522 2.947276 -0.000000
v -0.129769 2.947276 -0.129769
v 0.000000 2.947276 -0.183522
v 0.129769 2.947276 -0.129769
v 0.183521 2.947276 -0.000000
v 0.129769 2.947276 0.129769
v 0.000000 3.442276 0.197342
v -0.139542 3.442276 0.139542
v -0.197342 3.442276 -0.000000
v -0.139542 3.442276 -0.139542
v 0.000000 3.442276 -0.197342
v 0.139542 3.442276 -0.139542
v 0.197342 3.442276 -0.000000
v 0.139542 3.442276 0.139542
v 0.000001 5.767276 0.197342
v -0.139541 5.767276 0.139542
v -0.197341 5.767276 -0.000000
v -0.139541 5.767276 -0.139542
v 0.000001 5.767276 -0.197342
v 0.139543 5.767276 -0.139542
v 0.197343 5.767276 -0.000000
v 0.139543 5.767276 0.139542
v 0.000001 5.767276 0.197342
v -0.139541 5.767276 0.139542
v -0.197341 5.767276 -0.000000
v -0.139541 5.767276 -0.139542
v 0.000001 5.767276 -0.197342
v 0.139543 5.767276 -0.139542
v 0.197343 5.767276 -0.000000
v 0.139543 5.767276 0.139542
v 0.000001 5.767276 0.247342
v -0.174896 5.767276 0.174897
v -0.247341 5.767276 0.000001
v -0.174896 5.767276 -0.174897
v 0.000001 5.767276 -0.247342
v 0.174898 5.767276 -0.174897
v 0.247343 5.767276 -0.000000
v 0.174898 5.767276 0.174897
v 0.000001 6.267276 0.247342
v -0.174896 6.267276 0.174898
v -0.247341 6.267276 0.000001
v -0.174896 6.267276 -0.174896
v 0.000001 6.267276 -0.247342
v 0.174899 6.267276 -0.174897
v 0.247343 6.267276 -0.000000
v 0.174899 6.267276 0.174897
v 0.000001 6.267276 0.297342
v -0.210251 6.267276 0.210254
v -0.297341 6.267276 0.000001
v -0.210251 6.267276 -0.210252
v 0.000001 6.267276 -0.297342
v 0.210254 6.267276 -0.210253
v 0.297343 6.267276 -0.000000
v 0.210254 6.267276 0.210253
v 0.000001 6.267276 0.297342
v -0.210251 6.267276 0.210254
v -0.297341 6.267276 0.000001
v -0.210251 6.267276 -0.210252
v 0.000001 6.267276 -0.297342
v 0.210254 6.267276 -0.210253
v 0.297343 6.267276 -0.000000
v 0.210254 6.267276 0.210253
v 0.000001 6.417276 0.297342
v -0.210251 6.417276 0.210254
v -0.297341 6.417276 0.000001
v -0.210251 6.417276 -0.210252
v 0.000001 6.417276 -0.297342
v 0.210254 6.417276 -0.210253
v 0.297343 6.417276 -0.000000
v 0.210254 6.417276 0.210253
v 0.000000 3.247276 0.194992
v -0.137880 3.247276 0.137880
v -0.194992 3.247276 -0.000000
v -0.137880 3.247276 -0.137880
v 0.000000 3.247276 -0.194992
v 0.137880 3.247276 -0.137880
v 0.194992 3.247276 -0.000000
v 0.137880 3.247276 0.137880
v 0.000000 3.267400 0.226942
v -0.160472 3.267400 0.160472
v -0.226942 3.267400 -0.000000
v -0.160472 3.267400 -0.160472
v 0.000000 3.267400 -0.226942
v 0.160472 3.267400 -0.160472
v 0.226942 3.267400 -0.000000
v 0.160472 3.267400 0.160472
v 0.000000 3.442276 0.197342
v -0.139542 3.442276 0.139542
v -0.197342 3.442276 -0.000000
v -0.139542 3.442276 -0.139542
v 0.000000 3.442276 -0.197342
v 0.139542 3.442276 -0.139542
v 0.197342 3.442276 -0.000000
v 0.139542 3.442276 0.139542
v -0.163975 3.406714 0.163975
v 0.000000 3.406714 0.231896
v -0.231896 3.406714 -0.000000
v -0.163975 3.406714 -0.163975
v 0.000000 3.406714 -0.231896
v 0.163975 3.406714 -0.163975
v 0.231896 3.406714 -0.000000
v 0.163975 3.406714 0.163975
v 0.251462 3.347276 -0.000000
v 0.177810 3.347276 0.177810
v 0.000000 3.347276 -0.251462
v 0.177810 3.347276 -0.177810
v -0.251462 3.347276 -0.000000
v -0.177810 3.347276 -0.177810
v 0.000000 3.347276 0.251462
v -0.177810 3.347276 0.177810
v 0.000000 2.947276 0.183522
v -0.129769 2.947276 0.129769
v -0.183522 2.947276 -0.000000
v -0.129769 2.947276 -0.129769
v 0.000000 2.947276 -0.183522
v 0.129769 2.947276 -0.129769
v 0.183521 2.947276 -0.000000
v 0.129769 2.947276 0.129769
v 0.000000 2.986687 0.263093
v -0.186035 2.986687 0.186035
v -0.263093 2.986687 -0.000000
v -0.186035 2.986687 -0.186035
v 0.000000 2.986687 -0.263093
v 0.186035 2.986687 -0.186035
v 0.263093 2.986687 -0.000000
v 0.186035 2.986687 0.186035
v 0.000000 3.147276 0.194992
v -0.137880 3.147276 0.137880
v -0.194992 3.147276 -0.000000
v -0.137880 3.147276 -0.137880
v 0.000000 3.147276 -0.194992
v 0.137880 3.147276 -0.137880
v 0.194992 3.147276 -0.000000
v 0.137880 3.147276 0.137880
v -0.183071 3.126618 0.183071
v 0.000000 3.126618 0.258901
v -0.258902 3.126618 -0.000000
v -0.183071 3.126618 -0.183071
v 0.000000 3.126618 -0.258902
v 0.183071 3.126618 -0.183071
v 0.258901 3.126618 -0.000000
v 0.183071 3.126618 0.183071
v 0.000000 3.057276 -0.283522
v 0.200480 3.057276 -0.200480
v -0.283522 3.057276 -0.000000
v -0.200480 3.057276 -0.200480
v 0.000000 3.057276 0.283522
v -0.200480 3.057276 0.200480
v 0.200480 3.057276 0.200480
v 0.283521 3.057276 -0.000000
v 0.000000 0.797276 0.191761
v -0.135595 0.797276 0.135595
v -0.191761 0.797276 -0.000000
v -0.135595 0.797276 -0.135595
v 0.000000 0.797276 -0.191761
v 0.135595 0.797276 -0.135595
v 0.191761 0.797276 -0.000000
v 0.135595 0.797276 0.135595
v 0.000000 0.797276 0.291761
v -0.206306 0.797276 0.206306
v -0.291761 0.797276 -0.000000
v -0.206306 0.797276 -0.206306
v 0.000000 0.797276 -0.291761
v 0.206306 0.797276 -0.206306
v 0.291761 0.797276 -0.000000
v 0.206306 0.797276 0.206306
v 0.000000 0.947276 0.183522
v -0.129769 0.947276 0.129769
v -0.183522 0.947276 -0.000000
v -0.129769 0.947276 -0.129769
v 0.000000 0.947276 -0.183522
v 0.129769 0.947276 -0.129769
v 0.183522 0.947276 -0.000000
v 0.129769 0.947276 0.129769
v -0.206306 0.947276 0.206306
v 0.000000 0.947276 0.291761
v -0.291761 0.947276 -0.000000
v -0.206306 0.947276 -0.206306
v 0.000000 0.947276 -0.291761
v 0.206306 0.947276 -0.206306
v 0.291761 0.947276 -0.000000
v 0.206306 0.947276 0.206306
v 0.000000 0.397276 0.241761
v -0.170951 0.397276 0.170951
v -0.241761 0.397276 -0.000000
v -0.170951 0.397276 -0.170951
v 0.000000 0.397276 -0.241761
v 0.170951 0.397276 -0.170951
v 0.241761 0.397276 -0.000000
v 0.170951 0.397276 0.170951
v 0.000000 0.797276 0.191761
v -0.135595 0.797276 0.135595
v -0.191761 0.797276 -0.000000
v -0.135595 0.797276 -0.135595
v 0.000000 0.797276 -0.191761
v 0.135595 0.797276 -0.135595
v 0.191761 0.797276 -0.000000
v 0.135595 0.797276 0.135595
v 0.000000 3.147276 0.194992
v -0.137880 3.147276 0.137880
v -0.194992 3.147276 -0.000000
v -0.137880 3.147276 -0.137880
v 0.000000 3.147276 -0.194992
v 0.137880 3.147276 -0.137880
v 0.194992 3.147276 -0.000000
v 0.137880 3.147276 0.137880
v 0.000000 3.247276 0.194992
v -0.137880 3.247276 0.137880
v -0.194992 3.247276 -0.000000
v -0.137880 3.247276 -0.137880
v 0.000000 3.247276 -0.194992
v 0.137880 3.247276 -0.137880
v 0.194992 3.247276 -0.000000
v 0.137880 3.247276 0.137880
vn -0.3641 -0.3077 0.8791
vn -0.8791 -0.3077 0.3641
vn -0.8791 -0.3077 -0.3641
vn -0.3641 -0.3077 -0.8791
vn 0.3641 -0.3077 -0.8791
vn 0.8791 -0.3077 -0.3641
vn -0.9239 -0.0000 -0.3827
vn 0.8791 -0.3077 0.3641
vn 0.3641 -0.3077 0.8791
vn -0.0000 -1.0000 -0.0000
vn 0.9239 -0.0000 -0.3827
vn -0.3827 -0.0000 -0.9239
vn 0.9239 -0.0000 0.3827
vn -0.9239 -0.0000 0.3827
vn 0.3827 -0.0000 -0.9239
vn 0.3827 -0.0000 0.9239
vn -0.3827 -0.0000 0.9239
vn -0.0000 1.0000 -0.0000
vn 0.3281 -0.5148 0.7920
vn 0.7920 -0.5148 0.3281
vn 0.7920 -0.5148 -0.3281
vn 0.3281 -0.5148 -0.7920
vn -0.3281 -0.5148 -0.7920
vn -0.7920 -0.5148 -0.3281
vn -0.7920 -0.5148 0.3281
vn -0.3281 -0.5148 0.7920
vn -0.2156 -0.8262 0.5204
vn 0.8839 0.2910 0.3661
vn 0.2156 -0.8262 0.5204
vn 0.2156 -0.8263 0.5204
vn 0.5204 -0.8263 -0.2156
vn -0.2156 -0.8263 -0.5204
vn -0.5204 -0.8263 0.2156
vn 0.5204 -0.8263 0.2156
vn 0.2156 -0.8263 -0.5204
vn -0.5204 -0.8263 -0.2156
vn 0.3661 0.2910 -0.8839
vn -0.8839 0.2910 -0.3661
vn -0.3661 0.2910 0.8839
vn 0.3661 0.2910 0.8839
vn 0.8839 0.2910 -0.3661
vn -0.3661 0.2910 -0.8839
vn -0.8839 0.2910 0.3661
vn -0.2848 0.6680 0.6875
vn -0.6875 0.6680 0.2848
vn -0.6875 0.6680 -0.2848
vn -0.2848 0.6680 -0.6875
vn 0.2848 0.6680 -0.6875
vn 0.6875 0.6680 -0.2848
vn 0.6875 0.6680 0.2848
vn 0.2848 0.6680 0.6875
vn -0.8888 -0.2728 0.3682
vn -0.3682 -0.2728 -0.8888
vn 0.8888 -0.2728 -0.3682
vn 0.3682 -0.2728 0.8888
vn -0.3682 -0.2728 0.8888
vn -0.8888 -0.2728 -0.3682
vn 0.3682 -0.2728 -0.8888
vn 0.8888 -0.2728 0.3682
vn -0.2156 -0.8263 0.5204
vn -0.2156 -0.8262 -0.5204
vn 0.2156 -0.8262 -0.5204
vn 0.1808 -0.8813 0.4365
vn 0.3636 0.3117 -0.8779
vn 0.4365 -0.8813 -0.1808
vn -0.1808 -0.8813 -0.4365
vn -0.4365 -0.8813 0.1808
vn 0.4365 -0.8813 0.1808
vn 0.1808 -0.8813 -0.4365
vn -0.4365 -0.8813 -0.1808
vn -0.1808 -0.8813 0.4365
vn -0.8779 0.3117 -0.3636
vn -0.3636 0.3117 0.8779
vn 0.3636 0.3117 0.8779
vn 0.8779 0.3117 -0.3636
vn -0.3636 0.3117 -0.8779
vn -0.8779 0.3117 0.3636
vn 0.8779 0.3117 0.3636
vn -0.1264 0.9439 0.3051
vn -0.3051 0.9439 0.1264
vn -0.3051 0.9439 -0.1264
vn -0.1264 0.9439 -0.3051
vn 0.1264 0.9439 -0.3051
vn 0.3051 0.9439 -0.1264
vn 0.3051 0.9439 0.1264
vn 0.1264 0.9439 0.3051
vn 0.8925 -0.2583 0.3697
vn -0.8925 -0.2583 0.3697
vn -0.3697 -0.2583 -0.8925
vn 0.8925 -0.2583 -0.3697
vn 0.3697 -0.2583 0.8925
vn -0.3697 -0.2583 0.8925
vn -0.8925 -0.2583 -0.3697
vn 0.3697 -0.2583 -0.8925
vn -0.9178 0.1147 0.3802
vn 0.9178 0.1147 0.3802
vn 0.3802 0.1147 -0.9178
vn -0.9178 0.1147 -0.3802
vn -0.3802 0.1147 0.9178
vn 0.3802 0.1147 0.9178
vn 0.9178 0.1147 -0.3802
vn -0.3802 0.1147 -0.9178
vt 0.243537 0.047380
vt 0.272321 0.006028
vt 0.270230 0.050906
vt 0.058998 0.300913
vt 0.085691 0.233920
vt 0.085691 0.297387
vt 0.058998 0.230394
vt 0.087782 0.189042
vt 0.437729 0.413245
vt 0.464422 0.480238
vt 0.437729 0.476712
vt 0.435638 0.521590
vt 0.404621 0.566605
vt 0.337628 0.539912
vt 0.401095 0.539912
vt 0.462098 0.359855
vt 0.517015 0.409720
vt 0.464422 0.409720
vt 0.334102 0.566605
vt 0.292750 0.537820
vt 0.270230 0.114373
vt 0.814817 0.644543
vt 0.900805 0.608926
vt 0.936422 0.694914
vt 0.334102 0.619198
vt 0.517015 0.480238
vt 0.245861 0.167763
vt 0.190944 0.117899
vt 0.243537 0.117899
vt 0.006405 0.230394
vt 0.454485 0.564281
vt 0.404621 0.619197
vt 0.190944 0.047380
vt 0.061322 0.350777
vt 0.006405 0.300913
vt 0.116145 0.032991
vt 0.176914 0.056531
vt 0.150589 0.067435
vt 0.067435 0.032991
vt 0.127049 0.006667
vt 0.032991 0.067435
vt 0.056531 0.006667
vt 0.032991 0.116145
vt 0.006667 0.056531
vt 0.067435 0.150589
vt 0.006667 0.127050
vt 0.116145 0.150589
vt 0.056531 0.176914
vt 0.150589 0.116145
vt 0.127050 0.176914
vt 0.176914 0.127049
vt 0.297263 0.057454
vt 0.297263 0.107825
vt 0.308559 0.511219
vt 0.344176 0.512879
vt 0.394547 0.512879
vt 0.410696 0.470164
vt 0.409036 0.505781
vt 0.410696 0.419794
vt 0.114384 0.204851
vt 0.112724 0.240468
vt 0.112724 0.290839
vt 0.298923 0.021837
vt 0.514691 0.359855
vt 0.900804 0.730531
vt 0.850434 0.730531
vt 0.814817 0.694914
vt 0.850434 0.608926
vt 0.936422 0.644543
vt 0.193268 0.167763
vt 0.454485 0.616874
vt 0.008729 0.350777
vt 0.957814 0.513234
vt 0.969975 0.558032
vt 0.957814 0.552995
vt 0.757983 0.607718
vt 0.757983 0.745427
vt 0.724338 0.618323
vt 0.889938 0.485119
vt 0.934736 0.472958
vt 0.929699 0.485119
vt 0.861823 0.513234
vt 0.884901 0.472958
vt 0.861823 0.552995
vt 0.884901 0.593270
vt 0.849662 0.558032
vt 0.929699 0.581110
vt 0.934736 0.593270
vt 0.969974 0.508197
vt 0.849662 0.508197
vt 0.889938 0.581110
vt 0.893759 0.103587
vt 0.863557 0.150987
vt 0.858520 0.138826
vt 0.007304 0.817796
vt 0.137143 0.782557
vt 0.138786 0.817796
vt 0.300127 0.819482
vt 0.429966 0.784243
vt 0.431608 0.819482
vt 0.286722 0.869317
vt 0.153598 0.834078
vt 0.285080 0.834078
vt 0.709807 0.758179
vt 0.676162 0.631075
vt 0.007304 0.867631
vt 0.138786 0.867631
vt 0.300127 0.869317
vt 0.431608 0.869317
vt 0.153598 0.784243
vt 0.285080 0.784243
vt 0.858520 0.018514
vt 0.905919 0.048715
vt 0.893759 0.053752
vt 0.773447 0.053752
vt 0.761286 0.108624
vt 0.761286 0.048715
vt 0.808685 0.138826
vt 0.803648 0.150987
vt 0.905919 0.108625
vt 0.808686 0.018514
vt 0.863557 0.006353
vt 0.803649 0.006353
vt 0.773447 0.103587
vt 0.137143 0.902869
vt 0.005662 0.782557
vt 0.298485 0.784243
vt 0.675322 0.765609
vt 0.767479 0.906135
vt 0.828139 0.944416
vt 0.768241 0.945572
vt 0.887618 0.848306
vt 0.785347 0.890668
vt 0.742985 0.788397
vt 0.942522 0.844154
vt 0.901929 0.785017
vt 0.941366 0.784256
vt 0.771918 0.521502
vt 0.811362 0.581411
vt 0.771918 0.581411
vt 0.486721 0.887618
vt 0.526165 0.827709
vt 0.526165 0.887618
vt 0.903085 0.742625
vt 0.942522 0.741863
vt 0.809388 0.623773
vt 0.769943 0.623773
vt 0.769943 0.479139
vt 0.811362 0.521502
vt 0.725087 0.904979
vt 0.725848 0.944416
vt 0.827377 0.904979
vt 0.785347 0.746035
vt 0.845256 0.746035
vt 0.887618 0.788397
vt 0.845256 0.890668
vt 0.742985 0.848306
vt 0.903085 0.844915
vt 0.486721 0.827709
vt 0.809388 0.479139
vt 0.960679 0.898187
vt 0.936117 0.862636
vt 0.968449 0.894968
vt 0.412473 0.883468
vt 0.428818 0.921587
vt 0.413450 0.919319
vt 0.932899 0.870406
vt 0.890393 0.862635
vt 0.865831 0.937474
vt 0.858060 0.894968
vt 0.865831 0.898186
vt 0.932898 0.965254
vt 0.890392 0.973025
vt 0.893611 0.965254
vt 0.968449 0.940692
vt 0.960679 0.937474
vt 0.893611 0.870406
vt 0.858060 0.940692
vt 0.936117 0.973025
vt 0.571592 0.947766
vt 0.540799 0.933300
vt 0.573860 0.932399
vt 0.973146 0.689353
vt 0.956800 0.651234
vt 0.972168 0.653502
vt 0.823684 0.126585
vt 0.807339 0.088465
vt 0.822706 0.090733
vt 0.427916 0.968301
vt 0.412472 0.969974
vt 0.622248 0.948744
vt 0.620574 0.933300
vt 0.973146 0.602846
vt 0.957702 0.604519
vt 0.808241 0.041751
vt 0.823684 0.040078
vt 0.015251 0.191734
vt 0.006847 0.148492
vt 0.015251 0.151973
vt 0.798448 0.084812
vt 0.057954 0.112428
vt 0.049551 0.069186
vt 0.057954 0.072667
vt 0.948677 0.607827
vt 0.947910 0.647580
vt 0.119706 0.065041
vt 0.128110 0.108283
vt 0.119706 0.104802
vt 0.577514 0.923508
vt 0.128857 0.240430
vt 0.137261 0.283672
vt 0.128857 0.280191
vt 0.436941 0.964994
vt 0.437709 0.925240
vt 0.844032 0.088675
vt 0.844915 0.042958
vt 0.993494 0.651443
vt 0.994376 0.605727
vt 0.573651 0.969092
vt 0.619367 0.969974
vt 0.392124 0.921378
vt 0.391242 0.967094
vt 0.844915 0.121030
vt 0.994376 0.683798
vt 0.535741 0.948744
vt 0.391242 0.889022
vt 0.427916 0.888525
vt 0.957702 0.684295
vt 0.808241 0.121527
vt 0.006847 0.195215
vt 0.799216 0.045059
vt 0.049551 0.115909
vt 0.128110 0.061561
vt 0.617267 0.924275
vt 0.137261 0.236949
vt 0.541296 0.969974
vt 0.620385 0.875672
vt 0.601032 0.830680
vt 0.620385 0.838696
vt 0.478262 0.028140
vt 0.520745 0.007478
vt 0.518612 0.025478
vt 0.683507 0.901818
vt 0.638515 0.921171
vt 0.646531 0.901818
vt 0.709653 0.875672
vt 0.729006 0.830680
vt 0.729006 0.883688
vt 0.646531 0.812550
vt 0.691523 0.793197
vt 0.683507 0.812549
vt 0.601032 0.883688
vt 0.691523 0.921171
vt 0.709653 0.838696
vt 0.638515 0.793197
vt 0.527334 0.600896
vt 0.507496 0.558023
vt 0.525451 0.560503
vt 0.221214 0.597397
vt 0.264462 0.578390
vt 0.261636 0.596294
vt 0.087964 0.080136
vt 0.070009 0.134780
vt 0.070009 0.082616
vt 0.572899 0.006471
vt 0.575725 0.024375
vt 0.507496 0.505859
vt 0.525451 0.503378
vt 0.318750 0.597397
vt 0.316616 0.579397
vt 0.609811 0.007478
vt 0.616147 0.025478
vt 0.460002 0.877847
vt 0.444459 0.832121
vt 0.460002 0.838560
vt 0.487783 0.905627
vt 0.444459 0.884285
vt 0.527070 0.905627
vt 0.481344 0.921171
vt 0.554850 0.877847
vt 0.533508 0.921171
vt 0.554850 0.838559
vt 0.570394 0.884285
vt 0.527070 0.810779
vt 0.570394 0.832121
vt 0.487782 0.810779
vt 0.533508 0.795236
vt 0.481344 0.795236
vt 0.574030 0.043205
vt 0.611540 0.044228
vt 0.263331 0.615124
vt 0.316329 0.616147
vt 0.544245 0.558445
vt 0.544245 0.505436
vt 0.106758 0.135203
vt 0.106758 0.082194
vt 0.225821 0.616147
vt 0.521032 0.044228
vt 0.483899 0.009909
vt 0.509215 0.594908
vt 0.071728 0.045731
vt 0.087964 0.137260
vt 0.545992 0.595928
vt 0.545992 0.467954
vt 0.785272 0.217796
vt 0.760951 0.266507
vt 0.760951 0.207722
vt 0.917202 0.123061
vt 0.957773 0.165419
vt 0.918336 0.164657
vt 0.851228 0.283753
vt 0.802518 0.308074
vt 0.812592 0.283753
vt 0.878548 0.217796
vt 0.902869 0.266507
vt 0.878548 0.256433
vt 0.812592 0.190476
vt 0.861302 0.166155
vt 0.851228 0.190476
vt 0.785272 0.256433
vt 0.861302 0.308074
vt 0.902869 0.207722
vt 0.802518 0.166155
vt 0.917202 0.238970
vt 0.957773 0.281328
vt 0.918336 0.280566
vt 0.956639 0.415938
vt 0.918336 0.356404
vt 0.957773 0.357165
vt 0.959689 0.065162
vt 0.921387 0.005627
vt 0.960824 0.006388
vt 0.956639 0.224192
vt 0.917202 0.223431
vt 0.956639 0.340101
vt 0.917202 0.339340
vt 0.957773 0.457535
vt 0.917202 0.415177
vt 0.960824 0.106758
vt 0.920252 0.064400
vt 0.850398 0.349567
vt 0.902869 0.364809
vt 0.876544 0.375713
vt 0.802518 0.323242
vt 0.861302 0.323242
vt 0.787276 0.375713
vt 0.813422 0.349567
vt 0.787276 0.412690
vt 0.760951 0.364809
vt 0.813422 0.438836
vt 0.760951 0.423594
vt 0.861302 0.465161
vt 0.802518 0.465161
vt 0.876544 0.412690
vt 0.850398 0.438836
vt 0.902869 0.423594
vt 0.956639 0.123822
vt 0.956639 0.239731
vt 0.918336 0.456774
vt 0.921387 0.105997
vt 0.721161 0.007866
vt 0.684185 0.533791
vt 0.684185 0.007866
vt 0.532572 0.744038
vt 0.006647 0.707062
vt 0.532572 0.707062
vt 0.533791 0.695453
vt 0.006647 0.669307
vt 0.532572 0.669307
vt 0.620723 0.262867
vt 0.594576 0.790011
vt 0.594576 0.264085
vt 0.747307 0.006647
vt 0.721161 0.533791
vt 0.007866 0.770184
vt 0.006647 0.744038
vt 0.006647 0.632331
vt 0.532572 0.632331
vt 0.557600 0.790011
vt 0.557600 0.264085
vt 0.632816 0.617672
vt 0.672577 0.006284
vt 0.672577 0.617672
vt 0.589952 0.159020
vt 0.184064 0.617966
vt 0.156052 0.589748
vt 0.458400 0.026500
vt 0.052513 0.485446
vt 0.024501 0.457228
vt 0.101110 0.532542
vt 0.563021 0.130031
vt 0.129122 0.560760
vt 0.137175 0.568872
vt 0.571074 0.138143
vt 0.005624 0.436352
vt 0.439523 0.005624
vt 0.507150 0.073748
vt 0.486412 0.054718
vt 0.080373 0.513512
vt 0.535010 0.101813
vt 0.007866 0.695453
vt 0.620723 0.788792
vt 0.747307 0.532572
vt 0.533791 0.770184
vt 0.632816 0.006284
vt 0.617963 0.187238
vt 0.073250 0.504477
vt 0.514272 0.082783
vt 0.153243 0.893821
vt 0.256999 0.939505
vt 0.152303 0.942522
vt 0.054393 0.505750
vt 0.071681 0.610047
vt 0.044331 0.610005
vt 0.129148 0.191709
vt 0.234868 0.191709
vt 0.134839 0.225717
vt 0.005892 0.895956
vt 0.111334 0.937479
vt 0.006832 0.930424
vt 0.152303 0.859353
vt 0.257745 0.900876
vt 0.005739 0.608147
vt 0.005739 0.503407
vt 0.376704 0.963874
vt 0.271262 0.922228
vt 0.375764 0.915172
vt 0.110588 0.976108
vt 0.005892 0.979125
vt 0.659617 0.673754
vt 0.634084 0.633966
vt 0.660376 0.634474
vt 0.315335 0.034943
vt 0.340868 0.074731
vt 0.314577 0.074223
vt 0.577655 0.085272
vt 0.603188 0.125060
vt 0.576897 0.124552
vt 0.237918 0.006503
vt 0.209610 0.033553
vt 0.210118 0.007261
vt 0.660376 0.701554
vt 0.633326 0.673246
vt 0.314577 0.007143
vt 0.341626 0.035451
vt 0.576897 0.057472
vt 0.603946 0.085780
vt 0.170330 0.032794
vt 0.170838 0.006503
vt 0.376704 0.880704
vt 0.539891 0.408731
vt 0.514727 0.306120
vt 0.539891 0.295408
vt 0.110588 0.910140
vt 0.256999 0.873537
vt 0.272008 0.960857
vt 0.237411 0.032794
vt 0.634084 0.701046
vt 0.340868 0.007651
vt 0.603188 0.057979
s 1
usemtl Material.001
f 2/1/1 34/2/1 33/3/1
f 4/4/2 35/5/2 34/6/2
f 6/7/3 36/8/3 35/5/3
f 36/9/4 10/10/4 37/11/4
f 10/10/5 38/12/5 37/11/5
f 12/13/6 39/14/6 38/15/6
f 6/16/7 28/17/7 8/18/7
f 14/19/8 40/20/8 39/14/8
f 40/21/9 2/1/9 33/3/9
f 7/22/10 11/23/10 15/24/10
f 12/13/11 31/25/11 14/19/11
f 8/18/12 29/26/12 10/10/12
f 14/27/13 32/28/13 16/29/13
f 4/4/14 27/30/14 6/7/14
f 10/31/15 30/32/15 12/13/15
f 16/29/16 26/33/16 2/1/16
f 2/34/17 25/35/17 4/4/17
f 18/36/18 26/37/18 17/38/18
f 19/39/18 25/40/18 18/36/18
f 20/41/18 27/42/18 19/39/18
f 21/43/18 28/44/18 20/41/18
f 22/45/18 29/46/18 21/43/18
f 23/47/18 30/48/18 22/45/18
f 24/49/18 31/50/18 23/47/18
f 17/38/18 32/51/18 24/49/18
f 40/21/19 1/52/19 15/53/19
f 39/14/20 15/54/20 13/55/20
f 11/56/21 39/14/21 13/55/21
f 9/57/22 38/12/22 11/58/22
f 36/9/23 9/57/23 7/59/23
f 35/5/24 7/60/24 5/61/24
f 3/62/25 35/5/25 5/61/25
f 33/3/26 3/63/26 1/52/26
f 2/34/1 4/4/1 34/6/1
f 4/4/2 6/7/2 35/5/2
f 6/16/3 8/18/3 36/9/3
f 36/9/4 8/18/4 10/10/4
f 10/31/5 12/13/5 38/15/5
f 12/13/6 14/19/6 39/14/6
f 6/16/7 27/64/7 28/17/7
f 14/27/8 16/29/8 40/21/8
f 40/21/9 16/29/9 2/1/9
f 15/24/10 1/65/10 3/66/10
f 3/66/10 5/67/10 7/22/10
f 7/22/10 9/68/10 11/23/10
f 11/23/10 13/69/10 15/24/10
f 15/24/10 3/66/10 7/22/10
f 12/13/11 30/32/11 31/25/11
f 8/18/12 28/17/12 29/26/12
f 14/27/13 31/70/13 32/28/13
f 4/4/14 25/35/14 27/30/14
f 10/31/15 29/71/15 30/32/15
f 16/29/16 32/28/16 26/33/16
f 2/34/17 26/72/17 25/35/17
f 18/36/18 25/40/18 26/37/18
f 19/39/18 27/42/18 25/40/18
f 20/41/18 28/44/18 27/42/18
f 21/43/18 29/46/18 28/44/18
f 22/45/18 30/48/18 29/46/18
f 23/47/18 31/50/18 30/48/18
f 24/49/18 32/51/18 31/50/18
f 17/38/18 26/37/18 32/51/18
f 40/21/19 33/3/19 1/52/19
f 39/14/20 40/20/20 15/54/20
f 11/56/21 38/15/21 39/14/21
f 9/57/22 37/11/22 38/12/22
f 36/9/23 37/11/23 9/57/23
f 35/5/24 36/8/24 7/60/24
f 3/62/25 34/6/25 35/5/25
f 33/3/26 34/2/26 3/63/26
f 75/73/10 84/74/10 76/75/10
f 87/76/13 96/77/13 88/78/13
f 73/79/10 82/80/10 74/81/10
f 80/82/10 81/83/10 73/79/10
f 79/84/10 86/85/10 87/86/10
f 77/87/10 84/74/10 85/88/10
f 74/81/10 83/89/10 75/73/10
f 79/84/10 88/90/10 80/82/10
f 78/91/10 85/88/10 86/85/10
f 92/92/10 101/93/10 93/94/10
f 86/95/15 93/96/15 94/97/15
f 84/98/7 91/99/7 92/100/7
f 81/101/17 90/102/17 82/103/17
f 88/78/16 89/104/16 81/105/16
f 87/106/11 94/97/11 95/107/11
f 85/108/12 92/100/12 93/109/12
f 82/103/14 91/110/14 83/111/14
f 90/112/10 99/113/10 91/114/10
f 96/115/10 103/116/10 104/117/10
f 94/118/10 101/93/10 102/119/10
f 91/114/10 100/120/10 92/92/10
f 89/121/10 98/122/10 90/112/10
f 96/115/10 97/123/10 89/121/10
f 94/118/10 103/116/10 95/124/10
f 75/73/10 83/89/10 84/74/10
f 87/106/13 95/107/13 96/125/13
f 73/79/10 81/83/10 82/80/10
f 80/82/10 88/90/10 81/83/10
f 79/84/10 78/91/10 86/85/10
f 77/87/10 76/75/10 84/74/10
f 74/81/10 82/80/10 83/89/10
f 79/84/10 87/86/10 88/90/10
f 78/91/10 77/87/10 85/88/10
f 92/92/10 100/120/10 101/93/10
f 86/95/15 85/126/15 93/96/15
f 84/98/7 83/127/7 91/99/7
f 81/105/17 89/104/17 90/128/17
f 88/78/16 96/77/16 89/104/16
f 87/106/11 86/95/11 94/97/11
f 85/108/12 84/98/12 92/100/12
f 82/103/14 90/102/14 91/110/14
f 90/112/10 98/122/10 99/113/10
f 96/115/10 95/124/10 103/116/10
f 94/118/10 93/94/10 101/93/10
f 91/114/10 99/113/10 100/120/10
f 89/121/10 97/123/10 98/122/10
f 96/115/10 104/117/10 97/123/10
f 94/118/10 102/119/10 103/116/10
f 105/129/16 120/130/16 113/131/16
f 119/132/18 117/133/18 115/134/18
f 110/135/11 119/136/11 111/137/11
f 108/138/12 117/139/12 109/140/12
f 107/141/14 114/142/14 115/143/14
f 111/137/13 120/144/13 112/145/13
f 109/140/15 118/146/15 110/147/15
f 107/148/7 116/149/7 108/138/7
f 106/150/17 113/131/17 114/151/17
f 105/129/16 112/152/16 120/130/16
f 115/134/18 114/153/18 113/154/18
f 113/154/18 120/155/18 119/132/18
f 119/132/18 118/156/18 117/133/18
f 117/133/18 116/157/18 115/134/18
f 115/134/18 113/154/18 119/132/18
f 110/135/11 118/158/11 119/136/11
f 108/138/12 116/149/12 117/139/12
f 107/141/14 106/159/14 114/142/14
f 111/137/13 119/136/13 120/144/13
f 109/140/15 117/139/15 118/146/15
f 107/148/7 115/160/7 116/149/7
f 106/150/17 105/129/17 113/131/17
f 122/161/27 129/162/27 130/163/27
f 153/164/28 152/165/28 154/166/28
f 121/167/29 136/168/30 129/162/29
f 126/169/31 135/170/31 127/171/31
f 124/172/32 133/173/32 125/174/32
f 122/161/33 131/175/33 123/176/33
f 127/171/34 136/168/34 128/177/34
f 125/174/35 134/178/35 126/169/35
f 124/172/36 131/175/36 132/179/36
f 156/180/37 149/181/37 150/182/37
f 157/183/38 148/184/38 158/185/38
f 159/186/39 145/187/39 160/188/39
f 154/166/40 146/189/40 159/190/40
f 153/191/41 150/182/41 151/192/41
f 155/193/42 148/184/42 149/194/42
f 160/188/43 147/195/43 157/196/43
f 138/197/44 146/198/44 137/199/44
f 138/200/45 147/195/45 145/187/45
f 140/201/46 147/202/46 139/203/46
f 141/204/47 148/184/47 140/205/47
f 142/206/48 149/207/48 141/208/48
f 142/209/49 151/192/49 150/182/49
f 144/210/50 151/211/50 143/212/50
f 137/213/51 152/165/51 144/214/51
f 130/215/52 157/196/52 131/216/52
f 132/217/53 155/193/53 133/218/53
f 134/219/54 153/191/54 135/220/54
f 136/221/55 159/190/55 129/222/55
f 129/223/56 160/188/56 130/215/56
f 131/224/57 158/185/57 132/217/57
f 134/219/58 155/225/58 156/180/58
f 135/226/59 154/166/59 136/221/59
f 122/161/27 121/167/60 129/162/27
f 153/164/28 151/227/28 152/165/28
f 121/167/29 128/177/30 136/168/30
f 126/169/31 134/178/31 135/170/31
f 124/172/61 132/179/61 133/173/61
f 122/161/33 130/163/33 131/175/33
f 127/171/34 135/170/34 136/168/34
f 125/174/62 133/173/62 134/178/62
f 124/172/36 123/176/36 131/175/36
f 156/180/37 155/225/37 149/181/37
f 157/183/38 147/228/38 148/184/38
f 159/186/39 146/229/39 145/187/39
f 154/166/40 152/165/40 146/189/40
f 153/191/41 156/180/41 150/182/41
f 155/193/42 158/185/42 148/184/42
f 160/188/43 145/187/43 147/195/43
f 138/197/44 145/230/44 146/198/44
f 138/200/45 139/231/45 147/195/45
f 140/201/46 148/232/46 147/202/46
f 141/204/47 149/194/47 148/184/47
f 142/206/48 150/233/48 149/207/48
f 142/209/49 143/234/49 151/192/49
f 144/210/50 152/235/50 151/211/50
f 137/213/51 146/189/51 152/165/51
f 130/215/52 160/188/52 157/196/52
f 132/217/53 158/185/53 155/193/53
f 134/219/54 156/180/54 153/191/54
f 136/221/55 154/166/55 159/190/55
f 129/223/56 159/186/56 160/188/56
f 131/224/57 157/183/57 158/185/57
f 134/219/58 133/236/58 155/225/58
f 135/226/59 153/164/59 154/166/59
f 168/237/63 169/238/63 161/239/63
f 193/240/64 190/241/64 194/242/64
f 166/243/65 175/244/65 167/245/65
f 165/246/66 172/247/66 173/248/66
f 162/249/67 171/250/67 163/251/67
f 168/237/68 175/244/68 176/252/68
f 166/243/69 173/248/69 174/253/69
f 164/254/70 171/250/70 172/247/70
f 161/239/71 170/255/71 162/249/71
f 195/256/72 188/257/72 196/258/72
f 197/259/73 185/260/73 198/261/73
f 197/262/74 192/263/74 186/264/74
f 194/242/75 191/265/75 200/266/75
f 196/258/76 189/267/76 193/268/76
f 195/269/77 185/260/77 187/270/77
f 200/266/78 192/271/78 199/272/78
f 178/273/79 186/274/79 177/275/79
f 179/276/80 185/277/80 178/273/80
f 180/278/81 187/279/81 179/276/81
f 181/280/82 188/281/82 180/278/82
f 182/282/83 189/283/83 181/280/83
f 183/284/84 190/285/84 182/282/84
f 184/286/85 191/287/85 183/284/85
f 184/286/86 186/274/86 192/288/86
f 175/289/87 199/272/87 176/290/87
f 170/291/88 195/269/88 171/292/88
f 172/293/89 193/268/89 173/294/89
f 175/289/90 194/242/90 200/266/90
f 176/295/91 197/262/91 169/296/91
f 169/297/92 198/261/92 170/291/92
f 172/293/93 195/256/93 196/258/93
f 174/298/94 193/240/94 194/242/94
f 168/237/63 176/252/63 169/238/63
f 193/240/64 189/299/64 190/241/64
f 166/243/65 174/253/65 175/244/65
f 165/246/66 164/254/66 172/247/66
f 162/249/67 170/255/67 171/250/67
f 168/237/68 167/245/68 175/244/68
f 166/243/69 165/246/69 173/248/69
f 164/254/70 163/251/70 171/250/70
f 161/239/71 169/238/71 170/255/71
f 195/256/72 187/300/72 188/257/72
f 197/262/73 186/264/73 185/301/73
f 197/262/74 199/302/74 192/263/74
f 194/242/75 190/241/75 191/265/75
f 196/258/76 188/257/76 189/267/76
f 195/269/77 198/261/77 185/260/77
f 200/266/78 191/265/78 192/271/78
f 178/273/79 185/277/79 186/274/79
f 179/276/80 187/279/80 185/277/80
f 180/278/81 188/281/81 187/279/81
f 181/280/82 189/283/82 188/281/82
f 182/282/83 190/285/83 189/283/83
f 183/284/84 191/287/84 190/285/84
f 184/286/85 192/288/85 191/287/85
f 184/286/86 177/275/86 186/274/86
f 175/289/87 200/266/87 199/272/87
f 170/291/88 198/261/88 195/269/88
f 172/293/89 196/258/89 193/268/89
f 175/289/90 174/298/90 194/242/90
f 176/295/91 199/302/91 197/262/91
f 169/297/92 197/259/92 198/261/92
f 172/293/93 171/303/93 195/256/93
f 174/304/94 173/294/94 193/268/94
f 201/305/10 216/306/10 209/307/10
f 211/308/7 228/309/7 212/310/7
f 206/311/10 215/312/10 207/313/10
f 204/314/10 213/315/10 205/316/10
f 202/317/10 211/318/10 203/319/10
f 208/320/10 215/312/10 216/306/10
f 205/316/10 214/321/10 206/311/10
f 204/314/10 211/318/10 212/322/10
f 202/317/10 209/307/10 210/323/10
f 209/324/17 225/325/17 210/326/17
f 216/327/16 226/328/16 209/329/16
f 214/330/11 231/331/11 215/332/11
f 212/310/12 229/333/12 213/334/12
f 210/326/14 227/335/14 211/336/14
f 215/337/13 232/338/13 216/327/13
f 213/339/15 230/340/15 214/330/15
f 218/341/18 226/342/18 217/343/18
f 218/341/18 227/344/18 225/345/18
f 220/346/18 227/344/18 219/347/18
f 221/348/18 228/349/18 220/346/18
f 222/350/18 229/351/18 221/348/18
f 222/350/18 231/352/18 230/353/18
f 224/354/18 231/352/18 223/355/18
f 217/343/18 232/356/18 224/354/18
f 201/305/10 208/320/10 216/306/10
f 211/308/7 227/357/7 228/309/7
f 206/311/10 214/321/10 215/312/10
f 204/314/10 212/322/10 213/315/10
f 202/317/10 210/323/10 211/318/10
f 208/320/10 207/313/10 215/312/10
f 205/316/10 213/315/10 214/321/10
f 204/314/10 203/319/10 211/318/10
f 202/317/10 201/305/10 209/307/10
f 209/324/17 226/358/17 225/325/17
f 216/327/16 232/338/16 226/328/16
f 214/330/11 230/340/11 231/331/11
f 212/310/12 228/309/12 229/333/12
f 210/326/14 225/325/14 227/335/14
f 215/337/13 231/359/13 232/338/13
f 213/339/15 229/360/15 230/340/15
f 218/341/18 225/345/18 226/342/18
f 218/341/18 219/347/18 227/344/18
f 220/346/18 228/349/18 227/344/18
f 221/348/18 229/351/18 228/349/18
f 222/350/18 230/353/18 229/351/18
f 222/350/18 223/355/18 231/352/18
f 224/354/18 232/356/18 231/352/18
f 217/343/18 226/342/18 232/356/18
f 44/361/12 53/362/12 45/363/12
f 42/364/14 51/365/14 43/366/14
f 47/367/13 56/368/13 48/369/13
f 45/370/15 54/371/15 46/372/15
f 43/373/7 52/374/7 44/361/7
f 42/364/17 49/375/17 50/376/17
f 48/369/16 49/377/16 41/378/16
f 46/372/11 55/379/11 47/380/11
f 64/381/16 65/382/16 57/383/16
f 63/384/11 70/385/11 71/386/11
f 61/387/12 68/388/12 69/389/12
f 58/390/14 67/391/14 59/392/14
f 63/384/13 72/393/13 64/394/13
f 61/387/15 70/395/15 62/396/15
f 59/397/7 68/388/7 60/398/7
f 57/399/17 66/400/17 58/390/17
f 44/361/12 52/374/12 53/362/12
f 42/364/14 50/376/14 51/365/14
f 47/367/13 55/401/13 56/368/13
f 45/370/15 53/402/15 54/371/15
f 43/373/7 51/403/7 52/374/7
f 42/364/17 41/404/17 49/375/17
f 48/369/16 56/368/16 49/377/16
f 46/372/11 54/371/11 55/379/11
f 64/381/16 72/405/16 65/382/16
f 63/384/11 62/406/11 70/385/11
f 61/387/12 60/398/12 68/388/12
f 58/390/14 66/400/14 67/391/14
f 63/384/13 71/386/13 72/393/13
f 61/387/15 69/389/15 70/395/15
f 59/397/7 67/407/7 68/388/7
f 57/399/17 65/408/17 66/400/17
f 234/409/95 243/410/95 235/411/95
f 240/412/96 247/413/96 248/414/96
f 237/415/97 246/416/97 238/417/97
f 235/418/98 244/419/98 236/420/98
f 233/421/99 242/422/99 234/409/99
f 240/412/100 241/423/100 233/424/100
f 238/425/101 247/426/101 239/427/101
f 236/420/102 245/428/102 237/429/102
f 254/430/11 263/431/11 255/432/11
f 252/433/12 261/434/12 253/435/12
f 250/436/14 259/437/14 251/438/14
f 255/439/13 264/440/13 256/441/13
f 253/442/15 262/443/15 254/430/15
f 251/444/7 260/445/7 252/433/7
f 249/446/17 258/447/17 250/436/17
f 256/441/16 257/448/16 249/449/16
f 234/409/95 242/422/95 243/410/95
f 240/450/96 239/427/96 247/426/96
f 237/451/97 245/452/97 246/453/97
f 235/418/98 243/454/98 244/419/98
f 233/421/99 241/455/99 242/422/99
f 240/412/100 248/414/100 241/423/100
f 238/425/101 246/456/101 247/426/101
f 236/420/102 244/419/102 245/428/102
f 254/430/11 262/443/11 263/431/11
f 252/433/12 260/445/12 261/434/12
f 250/436/14 258/447/14 259/437/14
f 255/439/13 263/457/13 264/440/13
f 253/442/15 261/458/15 262/443/15
f 251/444/7 259/459/7 260/445/7
f 249/446/17 257/460/17 258/447/17
f 256/441/16 264/440/16 257/448/16
