# Blender 5.0.0
# www.blender.org
mtllib Pickaxe.mtl
o Cilindro.001
v 0.000000 0.397276 0.241761
v -0.170951 0.397276 0.170951
v -0.241761 0.397276 0.000000
v -0.170951 0.397276 -0.170951
v -0.000000 0.397276 -0.241761
v 0.170951 0.397276 -0.170951
v 0.241761 0.397276 -0.000000
v 0.170951 0.397276 0.170951
v 0.000000 0.797276 0.191761
v -0.135595 0.797276 0.135595
v -0.191761 0.797276 0.000000
v -0.135595 0.797276 -0.135595
v -0.000000 0.797276 -0.191761
v 0.135595 0.797276 -0.135595
v 0.191761 0.797276 -0.000000
v 0.135595 0.797276 0.135595
v 0.000000 3.147276 0.194992
v -0.137880 3.147276 0.137880
v -0.194992 3.147276 0.000000
v -0.137880 3.147276 -0.137880
v -0.000000 3.147276 -0.194992
v 0.137880 3.147276 -0.137880
v 0.194992 3.147276 0.000000
v 0.137880 3.147276 0.137880
v 0.000000 3.247276 0.194992
v -0.137880 3.247276 0.137880
v -0.194992 3.247276 0.000000
v -0.137880 3.247276 -0.137880
v -0.000000 3.247276 -0.194992
v 0.137880 3.247276 -0.137880
v 0.194992 3.247276 0.000000
v 0.137880 3.247276 0.137880
vn -0.9178 0.1147 0.3802
vn 0.9178 0.1147 0.3802
vn 0.3802 0.1147 -0.9178
vn -0.9178 0.1147 -0.3802
vn -0.3802 0.1147 0.9178
vn 0.3802 0.1147 0.9178
vn 0.9178 0.1147 -0.3802
vn -0.3802 0.1147 -0.9178
vn 0.9239 -0.0000 -0.3827
vn -0.3827 -0.0000 -0.9239
vn -0.9239 -0.0000 0.3827
vn 0.9239 -0.0000 0.3827
vn 0.3827 -0.0000 -0.9239
vn -0.9239 -0.0000 -0.3827
vn -0.3827 -0.0000 0.9239
vn 0.3827 -0.0000 0.9239
vt 0.246715 0.815563
vt 0.260590 0.782066
vt 0.179722 0.815563
vt 0.165847 0.782066
vt 0.213218 0.734695
vt 0.179722 0.748570
vt 0.246715 0.748570
vt 0.213218 0.829438
vt 0.196170 0.765019
vt 0.189109 0.782066
vt 0.230266 0.765019
vt 0.213218 0.757957
vt 0.230266 0.799114
vt 0.237328 0.782066
vt 0.196170 0.799114
vt 0.213218 0.806176
s 1
usemtl molesAtlas.001
f 2/1/1 11/2/1 3/2/1
f 8/3/2 15/4/2 16/3/2
f 5/5/3 14/6/3 6/6/3
f 3/2/4 12/7/4 4/7/4
f 1/8/5 10/1/5 2/1/5
f 8/3/6 9/8/6 1/8/6
f 6/6/7 15/4/7 7/4/7
f 4/7/8 13/5/8 5/5/8
f 22/9/9 31/10/9 23/10/9
f 20/11/10 29/12/10 21/12/10
f 18/13/11 27/14/11 19/14/11
f 23/10/12 32/15/12 24/15/12
f 21/12/13 30/9/13 22/9/13
f 19/14/14 28/11/14 20/11/14
f 17/16/15 26/13/15 18/13/15
f 24/15/16 25/16/16 17/16/16
f 2/1/1 10/1/1 11/2/1
f 8/3/2 7/4/2 15/4/2
f 5/5/3 13/5/3 14/6/3
f 3/2/4 11/2/4 12/7/4
f 1/8/5 9/8/5 10/1/5
f 8/3/6 16/3/6 9/8/6
f 6/6/7 14/6/7 15/4/7
f 4/7/8 12/7/8 13/5/8
f 22/9/9 30/9/9 31/10/9
f 20/11/10 28/11/10 29/12/10
f 18/13/11 26/13/11 27/14/11
f 23/10/12 31/10/12 32/15/12
f 21/12/13 29/12/13 30/9/13
f 19/14/14 27/14/14 28/11/14
f 17/16/15 25/16/15 26/13/15
f 24/15/16 32/15/16 25/16/16
o Cubo
v -0.571250 5.998062 -0.799999
v -0.571250 6.198062 -0.999999
v -0.371250 6.398062 -0.399999
v -0.571250 7.798062 -0.999998
v -0.571250 7.998062 -0.799998
v -0.371250 7.598062 -0.399998
v -0.571250 5.998062 0.800001
v -0.371250 6.398062 0.400001
v -0.571250 6.198062 1.000001
v -0.571250 7.998062 0.800002
v -0.571250 7.798062 1.000002
v -0.371250 7.598062 0.400002
v -2.171250 5.998062 -0.799999
v -2.371250 6.198062 -0.799999
v -2.171250 6.198062 -0.999999
v -2.171250 7.998062 -0.799998
v -2.171250 7.798062 -0.999998
v -2.371250 7.798062 -0.799998
v -2.171250 5.998062 0.800001
v -2.171250 6.198062 1.000001
v -2.371250 6.198062 0.800001
v -2.171250 7.998062 0.800002
v -2.371250 7.798062 0.800002
v -2.171250 7.798062 1.000002
v -1.637916 5.998062 0.800001
v -1.104583 5.998062 0.800001
v -1.104583 6.198062 1.000001
v -1.637916 6.198062 1.000001
v -1.104583 7.998062 0.800002
v -1.637916 7.998062 0.800002
v -1.637916 7.798062 1.000002
v -1.104583 7.798062 1.000002
v -1.104583 5.998062 -0.799999
v -1.637916 5.998062 -0.799999
v -1.637916 6.198062 -0.999999
v -1.104583 6.198062 -0.999999
v -1.637916 7.998062 -0.799998
v -1.104583 7.998062 -0.799998
v -1.104583 7.798062 -0.999998
v -1.637916 7.798062 -0.999998
v -0.371250 6.198062 -0.799999
v -0.371250 6.198062 0.800001
v -0.371250 7.798062 -0.799998
v -0.371250 7.798062 0.800002
v 0.378750 6.398062 -0.400000
v 0.378750 6.398062 0.400000
v 0.378750 7.598062 -0.399999
v 0.378750 7.598062 0.400001
v 0.378750 6.002838 -0.663483
v 0.378750 6.002838 0.663484
v 0.378750 7.993286 -0.663482
v 0.378750 7.993286 0.663484
v 2.080146 6.318600 -0.000000
v 1.044479 6.468256 -0.546113
v 1.468067 6.524952 -0.319440
v 1.468067 6.524952 0.319441
v 1.044479 6.468256 0.546113
v 1.563720 7.489112 0.326170
v 1.089296 7.819386 0.554234
v 1.089296 7.819386 -0.554232
v 1.563720 7.489112 -0.326168
vn -0.0000 -0.0000 -1.0000
vn -1.0000 -0.0000 -0.0000
vn -0.0000 1.0000 -0.0000
vn -0.0000 -0.0000 1.0000
vn 0.5773 -0.5774 -0.5774
vn 0.5774 0.5774 -0.5773
vn 0.5774 -0.5774 0.5773
vn 0.5774 0.5774 0.5773
vn -0.5774 -0.5774 -0.5773
vn -0.5774 0.5773 -0.5773
vn -0.5774 -0.5774 0.5773
vn -0.5774 0.5773 0.5774
vn 0.7071 -0.7071 -0.0000
vn 0.7071 -0.0000 -0.7071
vn 0.7071 0.7071 -0.0000
vn 0.7071 -0.0000 0.7071
vn -0.0000 -0.7071 0.7071
vn -0.0000 0.7071 0.7071
vn -0.7071 -0.0000 0.7071
vn -0.7071 -0.7071 -0.0000
vn -0.7071 0.7071 -0.0000
vn -0.7071 -0.0000 -0.7071
vn -0.0000 -0.7071 -0.7071
vn -0.0000 0.7071 -0.7071
vn -0.0000 -1.0000 -0.0000
vn 1.0000 -0.0000 -0.0000
vn -0.3195 -0.9476 -0.0000
vn 0.4486 -0.0507 0.8923
vn 0.4486 -0.0507 -0.8923
vn 0.9149 0.4037 -0.0000
vn 0.2377 0.9713 -0.0000
vn 0.5713 0.8207 -0.0000
vn 0.1570 -0.0075 -0.9876
vn 0.1687 -0.0022 -0.9857
vn 0.1736 -0.0000 -0.9848
vn 0.4587 -0.0421 -0.8876
vn 0.4335 -0.0264 -0.9008
vn 0.4767 -0.0534 -0.8774
vn 0.1570 -0.0075 0.9876
vn 0.1687 -0.0022 0.9857
vn 0.1494 -0.0109 0.9887
vn 0.4587 -0.0421 0.8876
vn 0.4335 -0.0264 0.9008
vn 0.4221 -0.0194 0.9063
vn 0.5730 -0.8196 -0.0000
vn 0.1327 -0.9912 -0.0000
vn 0.1494 -0.0109 -0.9887
vn 0.4221 -0.0194 -0.9063
vn 0.1736 -0.0000 0.9848
vn 0.4767 -0.0534 0.8774
vt 0.226377 0.685289
vt 0.198910 0.694444
vt 0.198910 0.685289
vt 0.226022 0.790050
vt 0.204911 0.811161
vt 0.204911 0.790050
vt 0.260711 0.632644
vt 0.251555 0.660111
vt 0.251555 0.632644
vt 0.354677 0.665483
vt 0.370510 0.665483
vt 0.226377 0.616622
vt 0.198910 0.625778
vt 0.198910 0.616622
vt 0.178523 0.811161
vt 0.178523 0.813799
vt 0.175884 0.811161
vt 0.226022 0.837549
vt 0.228661 0.837549
vt 0.226022 0.840188
vt 0.178523 0.790050
vt 0.175884 0.790050
vt 0.178523 0.787411
vt 0.228661 0.763661
vt 0.226022 0.761022
vt 0.199634 0.811161
vt 0.202273 0.811161
vt 0.199634 0.813799
vt 0.228661 0.816438
vt 0.226022 0.813799
vt 0.199634 0.790050
vt 0.199634 0.787411
vt 0.202273 0.790050
vt 0.228661 0.790050
vt 0.226022 0.787411
vt 0.226022 0.734634
vt 0.204911 0.737273
vt 0.204911 0.734634
vt 0.228661 0.758384
vt 0.226022 0.737273
vt 0.228661 0.737273
vt 0.204911 0.763661
vt 0.226022 0.758384
vt 0.226022 0.763661
vt 0.164577 0.632644
vt 0.173732 0.629211
vt 0.173732 0.632644
vt 0.229810 0.625778
vt 0.229810 0.616622
vt 0.226022 0.784772
vt 0.231300 0.811161
vt 0.231300 0.790050
vt 0.204911 0.816438
vt 0.226022 0.811161
vt 0.226022 0.816438
vt 0.192044 0.660111
vt 0.182888 0.663544
vt 0.182888 0.660111
vt 0.229810 0.694444
vt 0.229810 0.685289
vt 0.192044 0.632644
vt 0.182888 0.632644
vt 0.164577 0.660111
vt 0.229810 0.676133
vt 0.226377 0.666978
vt 0.229810 0.666978
vt 0.173732 0.660111
vt 0.164577 0.663544
vt 0.229810 0.607466
vt 0.226377 0.598311
vt 0.229810 0.598311
vt 0.192044 0.629211
vt 0.198910 0.607466
vt 0.198910 0.598311
vt 0.242399 0.632644
vt 0.233244 0.660111
vt 0.233244 0.632644
vt 0.198910 0.676133
vt 0.198910 0.666978
vt 0.207550 0.755745
vt 0.207550 0.739912
vt 0.223383 0.739912
vt 0.223383 0.755745
vt 0.204911 0.758384
vt 0.370510 0.649650
vt 0.354677 0.649650
vt 0.226377 0.694444
vt 0.260711 0.660111
vt 0.226377 0.625778
vt 0.164577 0.629211
vt 0.204911 0.784772
vt 0.192044 0.663544
vt 0.226377 0.676133
vt 0.173732 0.663544
vt 0.226377 0.607466
vt 0.182888 0.629211
vt 0.242399 0.660111
s 1
usemtl molesAtlas.001
f 71/17/17 34/18/17 68/19/17
f 55/20/18 46/21/18 53/22/18
f 42/23/19 70/24/19 61/25/19
f 40/26/20 80/27/20 44/27/20
f 63/28/20 52/29/20 60/30/20
f 33/31/21 34/32/21 73/33/21
f 36/34/22 37/35/22 75/36/22
f 39/37/23 74/38/23 41/39/23
f 42/40/24 43/40/24 76/41/24
f 45/42/25 46/43/25 47/44/25
f 48/45/26 49/45/26 50/46/26
f 51/47/27 52/48/27 53/49/27
f 54/50/28 55/50/28 56/51/28
f 33/31/29 74/38/29 39/37/29
f 36/52/30 73/53/30 34/54/30
f 42/55/31 75/56/31 37/57/31
f 41/58/32 76/59/32 43/60/32
f 39/61/33 59/62/33 58/63/33
f 54/64/34 63/28/34 62/65/34
f 53/22/35 56/66/35 55/20/35
f 51/47/36 46/21/36 45/42/36
f 48/67/37 55/20/37 54/68/37
f 47/69/38 50/70/38 49/71/38
f 45/72/39 67/73/39 66/74/39
f 37/75/40 71/17/40 70/76/40
f 51/77/41 66/74/41 57/78/41
f 58/63/41 33/79/41 39/61/41
f 69/80/40 49/81/40 48/82/40
f 65/83/39 34/84/39 33/79/39
f 61/85/34 43/86/34 42/87/34
f 57/78/33 52/88/33 51/77/33
f 43/86/20 59/89/20 41/90/20
f 62/91/19 48/92/19 54/93/19
f 49/81/17 67/94/17 47/95/17
f 40/96/42 73/53/42 35/97/42
f 35/97/42 75/56/42 38/98/42
f 38/98/42 76/59/42 44/99/42
f 44/99/42 74/100/42 40/96/42
f 80/99/18 83/98/18 79/98/18
f 38/101/17 77/102/17 35/102/17
f 44/27/19 79/101/19 38/101/19
f 35/102/41 78/26/41 40/26/41
f 88/96/43 87/97/43 85/96/43
f 77/97/18 82/96/18 78/96/18
f 78/96/18 84/99/18 80/99/18
f 79/98/18 81/97/18 77/97/18
f 90/99/44 88/96/44 85/99/44
f 87/97/45 93/98/45 85/97/45
f 93/98/46 90/99/46 85/98/46
f 83/98/47 91/99/47 92/98/47
f 91/99/48 93/98/48 92/98/48
f 83/98/49 86/97/50 81/97/51
f 86/97/52 93/98/53 87/97/54
f 84/99/55 89/96/56 91/99/57
f 89/96/58 90/99/59 91/99/60
f 81/97/61 89/96/61 82/96/61
f 86/97/62 88/96/62 89/96/62
f 71/17/17 36/103/17 34/18/17
f 55/20/18 50/70/18 46/21/18
f 42/23/19 37/104/19 70/24/19
f 40/26/20 78/26/20 80/27/20
f 63/28/20 56/105/20 52/29/20
f 33/31/29 73/33/29 74/38/29
f 36/52/30 75/56/30 73/53/30
f 42/55/31 76/59/31 75/56/31
f 41/58/32 74/100/32 76/59/32
f 39/61/33 41/106/33 59/62/33
f 54/64/34 56/105/34 63/28/34
f 53/22/35 52/107/35 56/66/35
f 51/47/36 53/22/36 46/21/36
f 48/67/37 50/70/37 55/20/37
f 47/69/38 46/21/38 50/70/38
f 45/72/39 47/108/39 67/73/39
f 37/75/40 36/103/40 71/17/40
f 51/77/41 45/72/41 66/74/41
f 58/63/41 65/83/41 33/79/41
f 69/80/40 72/109/40 49/81/40
f 65/83/39 68/110/39 34/84/39
f 61/85/34 64/111/34 43/86/34
f 57/78/33 60/112/33 52/88/33
f 43/86/20 64/111/20 59/89/20
f 62/91/19 69/113/19 48/92/19
f 49/81/17 72/109/17 67/94/17
f 40/96/42 74/100/42 73/53/42
f 35/97/42 73/53/42 75/56/42
f 38/98/42 75/56/42 76/59/42
f 44/99/42 76/59/42 74/100/42
f 80/99/18 84/99/18 83/98/18
f 38/101/17 79/101/17 77/102/17
f 44/27/19 80/27/19 79/101/19
f 35/102/41 77/102/41 78/26/41
f 77/97/18 81/97/18 82/96/18
f 78/96/18 82/96/18 84/99/18
f 79/98/18 83/98/18 81/97/18
f 83/98/47 84/99/47 91/99/47
f 91/99/48 90/99/48 93/98/48
f 83/98/49 92/98/63 86/97/50
f 86/97/52 92/98/64 93/98/53
f 84/99/55 82/96/65 89/96/56
f 89/96/58 88/96/66 90/99/59
f 81/97/61 86/97/61 89/96/61
f 86/97/62 87/97/62 88/96/62
