# Blender 5.0.0
# www.blender.org
mtllib Pickaxe4.mtl
o Cilindro.024
v 0.000000 7.285673 0.425207
v 0.000000 7.372276 0.347332
v -0.199808 7.141475 0.425207
v -0.259808 7.184776 0.347332
v -0.199808 6.853077 0.425207
v -0.259808 6.809776 0.347332
v 0.000000 6.708879 0.425207
v 0.000000 6.622276 0.347331
v 0.199808 6.853077 0.425206
v 0.259808 6.809776 0.347331
v 0.199808 7.141475 0.425206
v 0.259808 7.184776 0.347331
v 0.000000 7.372276 0.425207
v -0.259808 7.184776 0.425207
v -0.259808 6.809776 0.425207
v 0.000000 6.622276 0.425207
v 0.259808 6.809776 0.425206
v 0.259808 7.184776 0.425206
v 0.000000 7.132351 0.503696
v -0.079023 7.075321 0.503696
v -0.079023 6.919230 0.503696
v 0.000000 6.862200 0.503696
v 0.079023 6.919230 0.503695
v 0.079023 7.075321 0.503696
v 0.000000 7.255673 0.453696
v -0.179023 7.126474 0.453696
v -0.179023 6.868077 0.453696
v 0.000000 6.738878 0.453696
v 0.179023 6.868077 0.453695
v 0.179023 7.126474 0.453695
vn -0.5852 0.8109 -0.0000
vn -1.0000 -0.0000 -0.0000
vn -0.5852 -0.8109 -0.0000
vn 0.5852 -0.8109 -0.0000
vn -0.0000 -0.0000 -1.0000
vn 1.0000 -0.0000 -0.0000
vn 0.5852 0.8109 -0.0000
vn -0.4450 -0.6167 0.6494
vn -0.0000 -0.0000 1.0000
vn -0.4450 0.6167 0.6494
vn 0.4450 0.6166 0.6494
vn 0.4450 0.6167 0.6494
vn 0.4450 -0.6167 0.6494
vn -0.8078 -0.0000 0.5894
vn 0.8078 -0.0000 0.5894
vn -0.2617 0.3626 0.8944
vn -0.4472 -0.0000 0.8944
vn -0.2617 -0.3626 0.8944
vn 0.2617 -0.3626 0.8944
vn 0.4472 -0.0000 0.8944
vn 0.2617 0.3626 0.8944
vn -0.4450 0.6166 0.6494
vt 0.548420 0.830846
vt 0.532280 0.782425
vt 0.548420 0.782425
vt 0.532280 0.830846
vt 0.516140 0.782425
vt 0.516140 0.830846
vt 0.500000 0.782425
vt 0.500000 0.830846
vt 0.483860 0.782425
vt 0.475790 0.781457
vt 0.455662 0.746594
vt 0.495918 0.746594
vt 0.483860 0.830846
vt 0.467720 0.782425
vt 0.467720 0.830846
vt 0.451580 0.782425
vt 0.933596 0.638549
vt 0.918116 0.629612
vt 0.924949 0.652885
vt 0.918116 0.638142
vt 0.911284 0.652885
vt 0.933596 0.656423
vt 0.918116 0.665360
vt 0.902637 0.656423
vt 0.902637 0.638549
vt 0.918116 0.656830
vt 0.924949 0.642087
vt 0.911284 0.642087
vt 0.495918 0.769836
vt 0.455662 0.769836
vt 0.475790 0.734973
vt 0.451580 0.830846
s 1
usemtl molesAtlas.003
f 2/1/1 14/2/1 13/3/1
f 4/4/2 15/5/2 14/2/2
f 6/6/3 16/7/3 15/5/3
f 8/8/4 17/9/4 16/7/4
f 2/10/5 10/11/5 6/12/5
f 10/13/6 18/14/6 17/9/6
f 12/15/7 13/16/7 18/14/7
f 5/17/8 28/18/8 27/17/8
f 20/19/9 22/20/9 24/21/9
f 3/22/10 25/23/10 1/23/10
f 11/24/11 25/23/12 30/24/11
f 9/25/13 28/18/13 7/18/13
f 5/17/14 26/22/14 3/22/14
f 11/24/15 29/25/15 9/25/15
f 19/26/16 26/22/16 20/19/16
f 20/19/17 27/17/17 21/27/17
f 22/20/18 27/17/18 28/18/18
f 22/20/19 29/25/19 23/28/19
f 23/28/20 30/24/20 24/21/20
f 19/26/21 30/24/21 25/23/21
f 2/1/1 4/4/1 14/2/1
f 4/4/2 6/6/2 15/5/2
f 6/6/3 8/8/3 16/7/3
f 8/8/4 10/13/4 17/9/4
f 6/12/5 4/29/5 2/10/5
f 2/10/5 12/30/5 10/11/5
f 10/11/5 8/31/5 6/12/5
f 10/13/6 12/15/6 18/14/6
f 12/15/7 2/32/7 13/16/7
f 5/17/8 7/18/8 28/18/8
f 24/21/9 19/26/9 20/19/9
f 20/19/9 21/27/9 22/20/9
f 22/20/9 23/28/9 24/21/9
f 3/22/22 26/22/22 25/23/22
f 11/24/11 1/23/12 25/23/12
f 9/25/13 29/25/13 28/18/13
f 5/17/14 27/17/14 26/22/14
f 11/24/15 30/24/15 29/25/15
f 19/26/16 25/23/16 26/22/16
f 20/19/17 26/22/17 27/17/17
f 22/20/18 21/27/18 27/17/18
f 22/20/19 28/18/19 29/25/19
f 23/28/20 29/25/20 30/24/20
f 19/26/21 24/21/21 30/24/21
