# Blender 5.0.0
# www.blender.org
mtllib Pickaxe3.mtl
o Cilindro.025
v 0.000000 0.947276 0.183522
v -0.129769 0.947276 0.129769
v -0.183522 0.947276 0.000000
v -0.129769 0.947276 -0.129769
v -0.000000 0.947276 -0.183522
v 0.129769 0.947276 -0.129769
v 0.183522 0.947276 0.000000
v 0.129769 0.947276 0.129769
v 0.000000 2.947276 0.183522
v -0.129769 2.947276 0.129769
v -0.183522 2.947276 0.000000
v -0.129769 2.947276 -0.129769
v -0.000000 2.947276 -0.183522
v 0.129769 2.947276 -0.129769
v 0.183521 2.947276 0.000000
v 0.129769 2.947276 0.129769
v 0.000000 3.442276 0.197342
v -0.139542 3.442276 0.139542
v -0.197342 3.442276 0.000000
v -0.139542 3.442276 -0.139542
v -0.000000 3.442276 -0.197342
v 0.139542 3.442276 -0.139542
v 0.197342 3.442276 0.000000
v 0.139542 3.442276 0.139542
v 0.000001 5.767276 0.197342
v -0.139541 5.767276 0.139542
v -0.197341 5.767276 0.000000
v -0.139541 5.767276 -0.139542
v 0.000001 5.767276 -0.197342
v 0.139543 5.767276 -0.139542
v 0.197343 5.767276 0.000000
v 0.139543 5.767276 0.139542
vn -0.3827 -0.0000 -0.9239
vn -0.9239 -0.0000 0.3827
vn 0.9239 -0.0000 0.3827
vn 0.3827 -0.0000 -0.9239
vn -0.9239 -0.0000 -0.3827
vn -0.3827 -0.0000 0.9239
vn 0.3827 -0.0000 0.9239
vn 0.9239 -0.0000 -0.3827
vt 0.522605 0.623062
vt 0.497640 0.612721
vt 0.522605 0.672992
vt 0.532946 0.648027
vt 0.462333 0.648027
vt 0.472674 0.672993
vt 0.472674 0.623062
vt 0.497640 0.683333
vt 0.043782 0.956319
vt 0.068391 0.966512
vt 0.033589 0.931710
vt 0.043782 0.907101
vt 0.068391 0.896908
vt 0.093000 0.907101
vt 0.093000 0.956319
vt 0.103193 0.931710
s 1
usemtl molesAtlas.002
f 4/1/1 13/2/1 5/2/1
f 2/3/2 11/4/2 3/4/2
f 7/5/3 16/6/3 8/6/3
f 5/2/4 14/7/4 6/7/4
f 3/4/5 12/1/5 4/1/5
f 2/3/6 9/8/6 10/3/6
f 8/6/7 9/8/7 1/8/7
f 6/7/8 15/5/8 7/5/8
f 24/9/7 25/10/7 17/10/7
f 23/11/8 30/12/8 31/11/8
f 21/13/1 28/14/1 29/13/1
f 18/15/2 27/16/2 19/16/2
f 23/11/3 32/9/3 24/9/3
f 21/13/4 30/12/4 22/12/4
f 19/16/5 28/14/5 20/14/5
f 17/10/6 26/15/6 18/15/6
f 4/1/1 12/1/1 13/2/1
f 2/3/2 10/3/2 11/4/2
f 7/5/3 15/5/3 16/6/3
f 5/2/4 13/2/4 14/7/4
f 3/4/5 11/4/5 12/1/5
f 2/3/6 1/8/6 9/8/6
f 8/6/7 16/6/7 9/8/7
f 6/7/8 14/7/8 15/5/8
f 24/9/7 32/9/7 25/10/7
f 23/11/8 22/12/8 30/12/8
f 21/13/1 20/14/1 28/14/1
f 18/15/2 26/15/2 27/16/2
f 23/11/3 31/11/3 32/9/3
f 21/13/4 29/13/4 30/12/4
f 19/16/5 27/16/5 28/14/5
f 17/10/6 25/10/6 26/15/6
