# Blender 5.0.0
# www.blender.org
mtllib Stone.mtl
o Sphere.001
v -3.537099 -0.943559 1.389730
v -3.155525 -0.388699 0.775748
v -3.380030 -1.442140 2.120784
v -4.051307 -0.495538 1.518227
v -3.904462 -1.116394 2.149272
v -3.611928 -1.339985 2.963744
v -4.217482 -0.573719 2.188172
v -4.101089 -0.400164 2.779131
v -3.893529 0.273864 1.478547
v -4.049296 0.218424 2.082968
v -3.419267 -0.698809 3.453107
v -3.715939 0.227011 2.755116
v -3.277526 0.856440 1.753054
v -2.715588 0.833478 1.912767
v -2.767517 0.330446 2.998637
v -2.888663 0.342030 0.503874
v -2.543606 -0.028926 3.368981
v -2.141892 0.493897 2.155691
v -2.278566 -0.107370 3.382207
v -2.217771 0.219190 1.126144
v -1.889125 -0.417806 2.860166
v -1.868318 -0.472104 1.616992
v -2.028493 -0.921280 1.842326
v -2.462990 -0.136131 0.702666
v -2.499401 -1.388430 2.856424
v -2.793197 -1.209951 1.596189
vn -0.0658 -0.7196 -0.6912
vn -0.1493 -0.8315 -0.5350
vn -0.5482 -0.4220 -0.7221
vn -0.6332 -0.0560 -0.7720
vn -0.8436 -0.4677 -0.2638
vn -0.8714 -0.3969 0.2882
vn -0.9557 0.1842 -0.2294
vn -0.9602 0.1749 -0.2178
vn -0.9670 0.2219 0.1253
vn -0.7340 -0.2587 0.6279
vn -0.7812 0.4944 0.3811
vn -0.4945 0.7387 -0.4581
vn -0.2106 0.8667 0.4522
vn -0.0091 0.1363 0.9906
vn 0.1350 0.9303 -0.3411
vn 0.4186 0.8163 0.3982
vn 0.5805 0.7440 -0.3308
vn 0.2643 -0.4048 0.8754
vn 0.8163 0.4775 0.3250
vn 0.4047 0.8757 -0.2635
vn 0.6131 -0.3881 0.6881
vn 0.9461 -0.3224 0.0299
vn 0.0491 -0.6153 0.7868
vn 0.4439 -0.6499 -0.6170
vn 0.0325 -0.3589 -0.9328
vn 0.1634 -0.6602 -0.7331
vn -0.0325 -0.9932 0.1114
vn -0.5288 -0.8476 -0.0428
vn -0.8488 -0.5016 0.1672
vn -0.6960 0.1061 -0.7102
vn -0.2588 0.6103 0.7487
vn -0.5638 0.3744 0.7362
vn -0.6593 0.7450 -0.1016
vn -0.5464 0.7959 0.2608
vn 0.9222 0.3513 -0.1617
vn -0.3105 0.5068 0.8042
vn -0.0812 0.9058 0.4158
vn 0.1940 0.7600 0.6202
vn 0.3083 0.8401 0.4462
vn 0.9628 0.2703 0.0043
vn -0.5591 -0.7080 -0.4315
vn -0.5941 -0.6730 -0.4405
vn -0.4965 -0.7631 -0.4138
vn 0.8372 -0.5270 0.1460
vn 0.8455 0.0500 -0.5316
vn 0.6180 -0.5174 -0.5920
vn 0.4057 -0.8871 -0.2202
vn 0.2136 -0.9591 -0.1856
vn 0.6745 0.3248 -0.6630
vn -0.6474 -0.6132 -0.4526
s 1
usemtl Material.139
f 26//1 1//1 2//1
f 26//2 3//2 1//2
f 1//3 4//3 2//3
f 2//4 4//4 16//4
f 4//5 5//5 7//5
f 7//6 6//6 8//6
f 9//7 4//7 10//7
f 4//8 7//8 10//8
f 10//9 7//9 8//9
f 6//10 11//10 8//10
f 10//11 8//11 12//11
f 16//12 9//12 13//12
f 13//13 12//13 15//13
f 11//14 19//14 17//14
f 13//15 14//15 16//15
f 15//16 19//16 14//16
f 14//17 18//17 16//17
f 19//18 11//18 25//18
f 18//19 19//19 21//19
f 16//20 18//20 20//20
f 19//21 25//21 21//21
f 22//22 21//22 23//22
f 11//23 6//23 25//23
f 24//24 23//24 26//24
f 24//25 2//25 16//25
f 24//26 26//26 2//26
f 25//27 6//27 3//27
f 3//28 6//28 5//28
f 5//29 6//29 7//29
f 4//30 9//30 16//30
f 17//31 15//31 12//31
f 11//32 12//32 8//32
f 9//33 10//33 13//33
f 10//34 12//34 13//34
f 22//35 20//35 18//35
f 11//36 17//36 12//36
f 13//37 15//37 14//37
f 15//38 17//38 19//38
f 14//39 19//39 18//39
f 18//40 21//40 22//40
f 1//41 3//43 5//42
f 21//44 25//44 23//44
f 20//45 22//45 24//45
f 22//46 23//46 24//46
f 25//47 26//47 23//47
f 25//48 3//48 26//48
f 24//49 16//49 20//49
f 1//41 5//42 4//50
o Sphere
v 5.939276 1.040475 -10.390298
v 7.074881 -0.132188 -11.308361
v 6.635992 0.671023 -10.770925
v 7.719802 -0.139649 -10.840906
v 6.968758 -0.679268 -11.358765
v 6.636400 -1.069809 -11.200834
v 6.466940 -1.530072 -10.341682
v 7.952079 0.065722 -10.210180
v 7.684227 -0.757939 -10.822503
v 7.477285 -1.239937 -10.436727
v 7.135491 -1.470527 -9.891656
v 8.104534 -0.666989 -10.165448
v 7.762973 0.308868 -9.729360
v 8.189520 -0.341213 -9.771025
v 7.955292 -0.993531 -9.410708
v 7.964735 -0.641182 -8.897800
v 7.534220 0.368172 -9.112358
v 7.924462 -0.085871 -8.876752
v 7.136864 -1.181630 -8.573286
v 7.328146 -0.459821 -8.185904
v 7.321818 -0.796559 -8.303155
v 6.857266 0.409249 -8.376059
v 6.505680 0.668220 -8.606992
v 6.423953 0.082139 -8.000926
v 5.936584 0.503780 -8.314640
v 5.798376 -0.690355 -7.808368
v 5.860393 -1.031591 -7.999733
v 6.701332 -1.512528 -9.111938
v 6.366908 1.004583 -10.152225
v 6.224895 0.822191 -9.286298
v 5.660002 0.099452 -8.020199
v 5.248068 -1.199706 -8.101553
v 4.823609 -0.926085 -8.125696
v 6.335015 -1.580305 -9.488940
v 4.943173 0.168930 -8.509434
v 4.643073 -0.249723 -8.371063
v 4.901118 -1.243209 -8.524852
v 5.563355 -1.418824 -8.944061
v 4.384917 -0.774651 -8.761686
v 4.886513 0.600905 -9.815653
v 4.328800 -0.099745 -9.991995
v 4.432051 -1.039383 -9.313657
v 4.308951 -0.316136 -10.347532
v 4.535269 0.176030 -10.504236
v 5.001256 -1.242919 -10.312654
v 5.714861 0.989237 -9.832846
v 5.401250 0.875820 -10.487708
v 4.643363 -0.253277 -10.871065
v 4.657397 -0.644381 -10.775512
v 5.414178 0.566567 -10.985181
v 5.849496 -0.699206 -11.401606
v 5.645304 -1.177893 -10.974339
v 5.611557 -1.510482 -10.156562
v 6.226764 0.442790 -11.206589
v 5.855925 -0.141396 -11.463339
vn 0.1162 0.3369 -0.9344
vn 0.1253 0.0669 -0.9899
vn 0.3573 0.6464 -0.6742
vn 0.4493 0.6533 -0.6094
vn 0.4882 0.8391 -0.2400
vn 0.4891 0.8402 -0.2341
vn 0.4884 0.8393 -0.2388
vn 0.9069 0.1650 -0.3877
vn 0.8447 -0.0644 -0.5314
vn 0.7027 -0.6931 -0.1609
vn 0.8544 0.5140 0.0761
vn 0.8201 0.5664 0.0814
vn 0.9488 -0.3115 0.0528
vn 0.9616 0.0596 0.2680
vn 0.4127 -0.8925 0.1817
vn 0.6053 -0.6612 0.4431
vn 0.2889 0.9261 0.2425
vn 0.7488 0.0292 0.6622
vn 0.6893 -0.2497 0.6800
vn 0.3166 0.9449 0.0833
vn 0.4100 0.8505 0.3295
vn 0.4079 0.4005 0.8205
vn 0.2315 0.0547 0.9713
vn 0.1203 0.7467 0.6542
vn -0.0193 -0.9229 0.3845
vn -0.0069 0.5918 0.8061
vn -0.1356 0.9527 0.2720
vn 0.2018 -0.9268 0.3166
vn 0.0842 0.9722 0.2186
vn -0.3446 0.1864 0.9201
vn -0.0102 -0.4905 0.8714
vn -0.3476 0.9166 0.1972
vn -0.1580 -0.9851 0.0682
vn -0.8247 -0.0151 0.5653
vn -0.6518 -0.7040 0.2820
vn -0.3993 0.8652 0.3034
vn -0.3792 -0.9252 -0.0136
vn -0.9987 0.0088 0.0504
vn -0.8134 -0.5176 -0.2653
vn -0.8225 -0.1627 -0.5449
vn -0.8336 0.2223 -0.5058
vn -0.5564 0.6991 -0.4491
vn -0.4819 -0.6923 -0.5371
vn -0.0368 -0.9972 -0.0644
vn -0.4411 0.2968 -0.8470
vn -0.0417 0.7991 -0.5998
vn -0.1615 0.4812 -0.8616
vn -0.1030 -0.9199 -0.3784
vn 0.0400 -0.1104 -0.9931
vn 0.0422 -0.4052 -0.9133
vn -0.0123 -0.8804 -0.4741
vn 0.2755 0.8911 -0.3606
vn 0.2119 -0.8782 -0.4287
vn 0.2467 -0.9383 -0.2423
vn 0.5897 -0.0515 -0.8060
vn 0.5922 -0.0478 -0.8044
vn 0.5855 -0.0578 -0.8086
vn 0.4221 -0.6436 -0.6385
vn 0.4212 -0.6583 -0.6238
vn 0.4203 -0.6701 -0.6118
vn 0.1359 -0.9907 0.0001
vn 0.1286 -0.9916 -0.0147
vn 0.1510 -0.9880 0.0309
vn 0.5222 0.7354 -0.4318
vn 0.7087 -0.6006 -0.3702
vn 0.4893 0.8405 -0.2326
vn 0.9243 0.1715 -0.3408
vn 0.2725 -0.4172 0.8670
vn 0.2480 -0.3415 0.9065
vn 0.2769 -0.4312 0.8587
vn 0.5184 -0.8544 -0.0363
vn 0.4274 0.9012 0.0718
vn 0.9539 -0.2553 0.1578
vn 0.6935 0.6948 0.1903
vn 0.4159 -0.8854 0.2076
vn 0.6032 -0.6315 0.4872
vn 0.5420 0.7040 0.4590
vn 0.5417 0.4490 0.7106
vn -0.7829 0.5824 0.2189
vn -0.7703 0.6021 0.2101
vn -0.7892 0.5720 0.2234
vn 0.2536 -0.6342 0.7304
vn 0.1026 -0.8824 0.4591
vn 0.1180 0.6769 0.7265
vn -0.0186 0.2560 0.9665
vn -0.3569 0.6970 0.6219
vn -0.0476 -0.9740 0.2213
vn -0.2347 -0.2819 0.9303
vn -0.4347 0.5479 0.7148
vn -0.3853 0.2221 0.8957
vn -0.1823 0.8798 0.4390
vn -0.4945 -0.7248 0.4798
vn -0.1279 -0.9705 0.2045
vn -0.9301 0.3024 0.2083
vn -0.7620 -0.5709 0.3056
vn -0.3649 0.9310 0.0135
vn -0.3656 0.9307 0.0139
vn -0.2879 0.9573 -0.0279
vn -0.2171 -0.9740 0.0650
vn -0.9853 -0.1708 -0.0022
vn -0.3933 -0.9187 -0.0369
vn -0.7844 0.6200 0.0176
vn -0.9147 0.3659 -0.1717
vn -0.7213 -0.6326 -0.2821
vn -0.4363 -0.1189 -0.8919
vn -0.4545 -0.1952 -0.8691
vn -0.4299 -0.0944 -0.8979
vn -0.6187 0.7694 -0.1591
vn -0.5738 0.4437 -0.6884
vn 0.0266 0.9944 0.1021
vn -0.2918 -0.8818 -0.3706
vn -0.4212 -0.4973 -0.7585
vn -0.1611 0.8363 -0.5241
vn -0.1051 -0.6369 -0.7638
vn 0.1325 0.8214 -0.5548
vn 0.5963 -0.0418 -0.8017
vn 0.4229 -0.6252 -0.6560
vn 0.1157 -0.9925 -0.0406
vn 0.2419 -0.3231 0.9149
vn -0.7623 0.6141 0.2046
vn -0.4232 0.9048 0.0460
vn -0.4611 -0.2262 -0.8581
s 1
usemtl Material.137
f 81//51 80//51 28//51
f 81//52 28//52 31//52
f 80//53 29//53 28//53
f 28//54 29//54 30//54
f 29//55 55//56 34//57
f 30//58 34//58 38//58
f 30//59 38//59 35//59
f 38//60 41//60 36//60
f 39//61 44//61 34//61
f 34//62 44//62 40//62
f 40//63 41//63 38//63
f 44//64 42//64 40//64
f 37//65 41//65 54//65
f 41//66 42//66 45//66
f 43//67 55//67 56//67
f 44//68 46//68 42//68
f 42//69 46//69 47//69
f 56//70 49//70 43//70
f 49//71 48//71 43//71
f 48//72 50//72 46//72
f 50//73 52//73 46//73
f 48//74 49//74 51//74
f 54//75 53//75 64//75
f 50//76 51//76 57//76
f 49//77 56//77 51//77
f 53//78 58//78 64//78
f 56//79 55//79 72//79
f 52//80 57//80 59//80
f 52//81 58//81 53//81
f 51//82 56//82 61//82
f 64//83 79//83 60//83
f 62//84 65//84 59//84
f 65//85 68//85 59//85
f 72//86 66//86 61//86
f 63//87 68//87 79//87
f 67//88 69//88 65//88
f 69//89 75//89 68//89
f 69//90 74//90 75//90
f 70//91 74//91 69//91
f 73//92 76//92 70//92
f 71//93 75//93 78//93
f 60//94 79//94 33//94
f 76//95 81//95 74//95
f 76//96 27//96 80//96
f 76//97 80//97 81//97
f 78//98 33//98 79//98
f 77//99 81//99 31//99
f 32//100 77//100 31//100
f 78//101 32//101 33//101
f 29//102 27//102 55//102
f 32//103 36//103 33//103
f 33//104 36//104 37//104
f 35//105 28//106 30//107
f 32//108 35//109 36//110
f 60//111 37//112 54//113
f 30//114 29//114 34//114
f 35//115 38//115 36//115
f 34//57 55//56 39//116
f 38//117 34//117 40//117
f 53//118 46//119 52//120
f 36//121 41//121 37//121
f 39//122 55//122 43//122
f 41//123 40//123 42//123
f 39//124 43//124 44//124
f 54//125 41//125 45//125
f 45//126 42//126 47//126
f 43//127 48//127 44//127
f 44//128 48//128 46//128
f 67//129 61//130 66//131
f 45//132 47//132 53//132
f 54//133 45//133 53//133
f 48//134 51//134 50//134
f 50//135 57//135 52//135
f 57//136 51//136 61//136
f 54//137 64//137 60//137
f 52//138 59//138 58//138
f 57//139 61//139 62//139
f 57//140 62//140 59//140
f 56//141 72//141 61//141
f 58//142 59//142 63//142
f 64//143 58//143 63//143
f 62//144 67//144 65//144
f 63//145 59//145 68//145
f 73//146 72//147 27//148
f 64//149 63//149 79//149
f 65//150 69//150 68//150
f 79//151 68//151 71//151
f 66//152 70//152 67//152
f 67//153 70//153 69//153
f 68//154 75//154 71//154
f 77//155 74//156 81//157
f 66//158 73//158 70//158
f 70//159 76//159 74//159
f 72//160 55//160 27//160
f 79//161 71//161 78//161
f 78//162 75//162 77//162
f 73//163 27//163 76//163
f 78//164 77//164 32//164
f 80//165 27//165 29//165
f 35//105 31//166 28//106
f 32//108 31//167 35//109
f 60//111 33//168 37//112
f 53//118 47//169 46//119
f 67//129 62//170 61//130
f 73//146 66//171 72//147
f 77//155 75//172 74//156
o Icosphere.001
v -0.711865 -0.300997 -6.910361
v -0.025355 0.144473 -8.038369
v -0.290904 0.518656 -7.595455
v -0.399012 -0.569984 -7.482801
v -0.305622 -0.224830 -6.787400
v 0.264070 -0.232017 -7.204941
v -1.017219 -0.213225 -7.293170
v -0.888930 -0.226944 -7.875452
v -0.003820 -0.183155 -8.099380
v 0.201942 0.179745 -7.691094
v -0.086897 0.355706 -7.066674
v -0.706216 0.499894 -7.125755
v -0.852869 0.299142 -7.740330
vn -0.1087 0.7263 -0.6788
vn 0.5706 0.8206 0.0327
vn 0.4699 0.7928 -0.3881
vn -0.3020 0.9251 -0.2301
vn 0.2017 0.9552 0.2165
vn 0.9350 -0.2026 -0.2911
vn 0.8190 0.1566 -0.5520
vn -0.3091 0.1544 -0.9384
vn -0.2490 0.2569 -0.9338
vn -0.9687 0.1220 -0.2163
vn -0.9205 0.3789 0.0959
vn -0.3229 0.2479 0.9134
vn 0.0138 0.4292 0.9031
vn 0.8535 0.4464 0.2690
vn -0.7492 0.1769 0.6382
vn 0.5847 0.1621 0.7949
vn -0.1057 -0.8105 -0.5762
vn -0.5192 -0.8495 -0.0944
vn -0.4553 -0.8754 0.1625
vn 0.5098 -0.8371 -0.1984
vn 0.0348 -0.8970 0.4406
vn 0.2796 -0.8744 0.3965
s 1
usemtl Material.138
f 83//173 94//173 84//173
f 92//174 91//174 84//174
f 91//175 83//175 84//175
f 94//176 93//176 84//176
f 93//177 92//177 84//177
f 87//178 90//178 91//178
f 90//179 83//179 91//179
f 90//180 94//180 83//180
f 90//181 89//181 94//181
f 89//182 88//182 94//182
f 88//183 93//183 94//183
f 82//184 86//184 93//184
f 86//185 92//185 93//185
f 87//186 91//186 92//186
f 88//187 82//187 93//187
f 86//188 87//188 92//188
f 85//189 89//189 90//189
f 85//190 88//190 89//190
f 85//191 82//191 88//191
f 87//192 85//192 90//192
f 82//193 85//193 86//193
f 85//194 87//194 86//194
o Icosphere
v -6.654177 -0.777150 -5.503635
v -7.490911 -0.333847 -4.666273
v -6.443623 0.209692 -6.431630
v -6.847137 0.778281 -5.758600
v -7.405901 -0.625303 -4.985456
v -7.327915 -0.748330 -5.773368
v -6.005001 -0.358261 -5.670007
v -6.869502 -0.351481 -4.530725
v -6.151189 -0.301948 -4.911083
v -7.950807 -0.333846 -5.299266
v -7.483485 -0.327447 -6.375694
v -7.884121 -0.353624 -5.938762
v -6.231877 -0.301341 -6.320196
v -6.739067 -0.328772 -6.539813
v -6.456521 0.255819 -4.809231
v -7.507834 0.409240 -4.832993
v -7.839302 0.266803 -5.786075
v -6.098236 0.263289 -5.903929
v -6.686252 0.694653 -5.159119
v -7.406083 0.806704 -5.211471
v -7.365539 0.473368 -6.151552
vn 0.5646 -0.8080 0.1687
vn -0.0997 -0.9846 0.1439
vn 0.0277 0.7717 -0.6354
vn 0.5616 0.8267 -0.0354
vn 0.4699 0.7928 -0.3881
vn -0.2788 0.9013 -0.3316
vn -0.5649 0.7697 -0.2973
vn -0.8646 0.4444 0.2343
vn 0.1461 0.9844 0.0981
vn 0.0530 0.6815 0.7299
vn 0.0771 0.6459 0.7595
vn 0.7597 0.5992 0.2527
vn 0.9445 0.0182 -0.3280
vn 0.8071 0.2145 -0.5501
vn -0.2050 0.2920 -0.9342
vn -0.1993 0.2965 -0.9340
vn -0.1989 0.2968 -0.9340
vn -0.2054 0.2917 -0.9342
vn -0.6607 0.2910 -0.6920
vn -0.9895 0.0976 -0.1062
vn -0.8925 0.3722 0.2548
vn -0.2027 0.2100 0.9565
vn 0.0370 0.3957 0.9176
vn 0.8618 0.4197 0.2849
vn 0.3987 -0.0346 -0.9164
vn -0.7264 0.2133 -0.6533
vn -0.8039 0.1127 0.5840
vn -0.6074 -0.6605 0.4413
vn 0.4611 0.0912 0.8827
vn 0.9631 0.2085 0.1701
vn 0.2223 -0.8880 -0.4025
vn 0.1224 -0.9072 -0.4026
vn -0.1221 -0.8281 -0.5471
vn -0.4288 -0.7888 -0.4404
vn -0.5716 -0.8198 -0.0342
vn -0.5071 -0.8578 0.0838
vn 0.4816 -0.8424 -0.2418
vn -0.1613 -0.7498 0.6417
vn 0.1060 -0.9022 0.4182
vn 0.2900 -0.8516 0.4368
s 1
usemtl Material.136
f 103//195 95//195 101//195
f 95//196 99//196 100//196
f 97//197 115//197 98//197
f 113//198 112//198 98//198
f 112//199 97//199 98//199
f 115//200 114//200 98//200
f 115//201 111//201 114//201
f 111//202 110//202 114//202
f 114//203 113//203 98//203
f 114//204 110//204 113//204
f 110//205 109//205 113//205
f 109//206 112//206 113//206
f 101//207 107//207 112//207
f 107//208 97//208 112//208
f 108//209 115//210 97//211
f 108//209 105//212 115//210
f 105//213 111//213 115//213
f 106//214 104//214 111//214
f 104//215 110//215 111//215
f 96//216 102//216 110//216
f 102//217 109//217 110//217
f 103//218 112//218 109//218
f 107//219 108//219 97//219
f 105//220 106//220 111//220
f 104//221 96//221 110//221
f 104//222 99//222 96//222
f 102//223 103//223 109//223
f 103//224 101//224 112//224
f 95//225 108//225 107//225
f 95//226 100//226 108//226
f 100//227 105//227 108//227
f 100//228 106//228 105//228
f 100//229 104//229 106//229
f 100//230 99//230 104//230
f 101//231 95//231 107//231
f 99//232 102//232 96//232
f 99//233 95//233 102//233
f 95//234 103//234 102//234
o Sphere.002
v 1.085662 -0.943559 -5.052793
v 1.802763 -0.388699 -4.961477
v 0.486367 -1.442140 -4.605627
v 0.754751 -0.495538 -5.466822
v 0.242131 -1.116394 -5.070588
v -0.376610 -1.339985 -4.465525
v 0.076445 -0.573719 -5.338995
v -0.412407 -0.400164 -4.987136
v 0.856516 0.273864 -5.339888
v 0.242118 0.218424 -5.229877
v -0.741337 -0.698809 -4.086620
v -0.230225 0.227011 -4.646951
v 0.863388 0.856440 -4.665524
v 0.952124 0.833478 -4.088109
v -0.056784 0.330446 -3.683247
v 2.161056 0.342030 -4.832030
v -0.300287 -0.028926 -3.325480
v 0.970099 0.493897 -3.465360
v -0.201969 -0.107370 -3.078995
v 1.874588 0.219190 -3.962978
v 0.434813 -0.417806 -2.942249
v 1.573789 -0.472104 -3.440897
v 1.302226 -0.921280 -3.492718
v 2.157530 -0.136131 -4.362239
v 0.184141 -1.388430 -3.498679
v 1.207651 -1.209951 -4.290472
vn 0.6011 -0.7196 -0.3477
vn 0.4243 -0.8315 -0.3585
vn 0.4283 -0.4220 -0.7990
vn 0.4383 -0.0560 -0.8971
vn -0.1113 -0.4677 -0.8769
vn -0.6248 -0.3969 -0.6723
vn -0.1893 0.1842 -0.9645
vn -0.2018 0.1749 -0.9637
vn -0.5165 0.2219 -0.8270
vn -0.8765 -0.2587 -0.4060
vn -0.6718 0.4944 -0.5516
vn 0.2107 0.7387 -0.6403
vn -0.4989 0.8667 -0.0032
vn -0.9045 0.1363 0.4042
vn 0.3663 0.9303 -0.0193
vn -0.1877 0.8163 0.5463
vn 0.5425 0.7440 0.3901
vn -0.6858 -0.4048 0.6047
vn 0.0443 0.4775 0.8775
vn 0.4080 0.8757 0.2583
vn -0.3704 -0.3881 0.8439
vn 0.3667 -0.3224 0.8727
vn -0.6949 -0.6153 0.3722
vn 0.7457 -0.6499 0.1467
vn 0.8616 -0.3589 -0.3588
vn 0.7346 -0.6602 -0.1566
vn -0.1148 -0.9932 0.0168
vn -0.1813 -0.8476 -0.4986
vn -0.5054 -0.5016 -0.7021
vn 0.3559 0.1061 -0.9285
vn -0.7885 0.6103 0.0764
vn -0.9041 0.3744 -0.2061
vn -0.1821 0.7450 -0.6417
vn -0.4646 0.7959 -0.3882
vn 0.5310 0.3513 0.7711
vn -0.8604 0.5068 0.0525
vn -0.4118 0.9058 0.0993
vn -0.4832 0.7600 0.4346
vn -0.2773 0.8401 0.4661
vn 0.3969 0.2703 0.8772
vn 0.1596 -0.7080 -0.6880
vn 0.1532 -0.6730 -0.7236
vn 0.1695 -0.7631 -0.6237
vn 0.2158 -0.5270 0.8220
vn 0.8353 0.0500 0.5475
vn 0.7955 -0.5174 0.3154
vn 0.3691 -0.8871 0.2772
vn 0.2577 -0.9591 0.1169
vn 0.8836 0.3248 0.3372
vn 0.1420 -0.6132 -0.7771
s 1
usemtl Material.150
f 141//235 116//235 117//235
f 141//236 118//236 116//236
f 116//237 119//237 117//237
f 117//238 119//238 131//238
f 119//239 120//239 122//239
f 122//240 121//240 123//240
f 124//241 119//241 125//241
f 119//242 122//242 125//242
f 125//243 122//243 123//243
f 121//244 126//244 123//244
f 125//245 123//245 127//245
f 131//246 124//246 128//246
f 128//247 127//247 130//247
f 126//248 134//248 132//248
f 128//249 129//249 131//249
f 130//250 134//250 129//250
f 129//251 133//251 131//251
f 134//252 126//252 140//252
f 133//253 134//253 136//253
f 131//254 133//254 135//254
f 134//255 140//255 136//255
f 137//256 136//256 138//256
f 126//257 121//257 140//257
f 139//258 138//258 141//258
f 139//259 117//259 131//259
f 139//260 141//260 117//260
f 140//261 121//261 118//261
f 118//262 121//262 120//262
f 120//263 121//263 122//263
f 119//264 124//264 131//264
f 132//265 130//265 127//265
f 126//266 127//266 123//266
f 124//267 125//267 128//267
f 125//268 127//268 128//268
f 137//269 135//269 133//269
f 126//270 132//270 127//270
f 128//271 130//271 129//271
f 130//272 132//272 134//272
f 129//273 134//273 133//273
f 133//274 136//274 137//274
f 116//275 118//277 120//276
f 136//278 140//278 138//278
f 135//279 137//279 139//279
f 137//280 138//280 139//280
f 140//281 141//281 138//281
f 140//282 118//282 141//282
f 139//283 131//283 135//283
f 116//275 120//276 119//284
o Icosphere.002
v 4.736666 -0.300997 8.885784
v 5.423177 0.144473 7.757777
v 5.157627 0.518656 8.200691
v 5.049519 -0.569984 8.313344
v 5.142910 -0.224830 9.008745
v 5.712601 -0.232017 8.591206
v 4.431312 -0.213225 8.502975
v 4.559602 -0.226944 7.920693
v 5.444711 -0.183155 7.696765
v 5.650473 0.179745 8.105052
v 5.361635 0.355706 8.729471
v 4.742315 0.499894 8.670391
v 4.595662 0.299142 8.055816
vn -0.1087 0.7263 -0.6788
vn 0.5706 0.8206 0.0327
vn 0.4699 0.7928 -0.3881
vn -0.3020 0.9251 -0.2301
vn 0.2017 0.9552 0.2165
vn 0.9350 -0.2026 -0.2911
vn 0.8190 0.1566 -0.5520
vn -0.3091 0.1544 -0.9384
vn -0.2490 0.2569 -0.9338
vn -0.9687 0.1220 -0.2163
vn -0.9205 0.3789 0.0959
vn -0.3229 0.2479 0.9134
vn 0.0138 0.4292 0.9031
vn 0.8535 0.4464 0.2690
vn -0.7492 0.1769 0.6382
vn 0.5847 0.1621 0.7949
vn -0.1057 -0.8105 -0.5762
vn -0.5192 -0.8495 -0.0944
vn -0.4553 -0.8754 0.1625
vn 0.5098 -0.8371 -0.1984
vn 0.0348 -0.8970 0.4406
vn 0.2796 -0.8744 0.3965
s 1
usemtl Material.151
f 143//285 154//285 144//285
f 152//286 151//286 144//286
f 151//287 143//287 144//287
f 154//288 153//288 144//288
f 153//289 152//289 144//289
f 147//290 150//290 151//290
f 150//291 143//291 151//291
f 150//292 154//292 143//292
f 150//293 149//293 154//293
f 149//294 148//294 154//294
f 148//295 153//295 154//295
f 142//296 146//296 153//296
f 146//297 152//297 153//297
f 147//298 151//298 152//298
f 148//299 142//299 153//299
f 146//300 147//300 152//300
f 145//301 149//301 150//301
f 145//302 148//302 149//302
f 145//303 142//303 148//303
f 147//304 145//304 150//304
f 142//305 145//305 146//305
f 145//306 147//306 146//306
o Icosphere.003
v -5.431280 -0.777150 8.684649
v -4.278143 -0.333847 8.952181
v -6.330295 0.209692 8.996543
v -5.545683 0.778281 8.983232
v -4.594015 -0.625303 9.048771
v -5.304039 -0.748330 9.399132
v -5.915709 -0.358261 8.221574
v -4.491617 -0.351481 8.353056
v -5.194234 -0.301948 7.944428
v -4.572298 -0.333846 9.677203
v -5.733056 -0.327447 9.849625
v -5.150370 -0.353624 9.958692
v -6.347655 -0.301341 8.757896
v -6.265926 -0.328772 9.304516
v -4.946355 0.255819 8.149753
v -4.410711 0.409240 9.054688
v -5.044461 0.266803 9.839924
v -6.064975 0.263289 8.424385
v -5.121891 0.694653 8.529733
v -4.785763 0.806704 9.168416
v -5.605156 0.473368 9.631009
vn -0.1553 -0.8080 -0.5684
vn 0.1748 -0.9846 0.0086
vn -0.5539 0.7717 0.3124
vn -0.3270 0.8267 -0.4580
vn -0.5778 0.7928 -0.1937
vn -0.1341 0.9013 0.4119
vn 0.0463 0.7697 0.6367
vn 0.6560 0.4444 0.6101
vn 0.0060 0.9844 -0.1759
vn 0.5915 0.6815 -0.4309
vn 0.6039 0.6459 -0.4670
vn -0.1871 0.5992 -0.7784
vn -0.7777 0.0182 -0.6283
vn -0.8936 0.2145 -0.3943
vn -0.6845 0.2920 0.6679
vn -0.6875 0.2965 0.6629
vn -0.6877 0.2968 0.6626
vn -0.6843 0.2917 0.6683
vn -0.2381 0.2910 0.9266
vn 0.4330 0.0976 0.8961
vn 0.6881 0.3722 0.6229
vn 0.9190 0.2100 -0.3336
vn 0.7594 0.3957 -0.5166
vn -0.2138 0.4197 -0.8821
vn -0.9887 -0.0346 0.1461
vn -0.1705 0.2133 0.9620
vn 0.9207 0.1127 0.3736
vn 0.6958 -0.6605 0.2823
vn 0.5054 0.0912 -0.8580
vn -0.3648 0.2085 -0.9074
vn -0.4592 -0.8880 0.0241
vn -0.4064 -0.9072 0.1090
vn -0.3999 -0.8281 0.3929
vn -0.1471 -0.7888 0.5968
vn 0.2731 -0.8198 0.5033
vn 0.3392 -0.8578 0.3861
vn -0.4598 -0.8424 -0.2810
vn 0.6300 -0.7498 -0.2024
vn 0.2989 -0.9022 -0.3111
vn 0.2174 -0.8516 -0.4771
s 1
usemtl Material.152
f 163//307 155//307 161//307
f 155//308 159//308 160//308
f 157//309 175//309 158//309
f 173//310 172//310 158//310
f 172//311 157//311 158//311
f 175//312 174//312 158//312
f 175//313 171//313 174//313
f 171//314 170//314 174//314
f 174//315 173//315 158//315
f 174//316 170//316 173//316
f 170//317 169//317 173//317
f 169//318 172//318 173//318
f 161//319 167//319 172//319
f 167//320 157//320 172//320
f 168//321 175//322 157//323
f 168//321 165//324 175//322
f 165//325 171//325 175//325
f 166//326 164//326 171//326
f 164//327 170//327 171//327
f 156//328 162//328 170//328
f 162//329 169//329 170//329
f 163//330 172//330 169//330
f 167//331 168//331 157//331
f 165//332 166//332 171//332
f 164//333 156//333 170//333
f 164//334 159//334 156//334
f 162//335 163//335 169//335
f 163//336 161//336 172//336
f 155//337 168//337 167//337
f 155//338 160//338 168//338
f 160//339 165//339 168//339
f 160//340 166//340 165//340
f 160//341 164//341 166//341
f 160//342 159//342 164//342
f 161//343 155//343 167//343
f 159//344 162//344 156//344
f 159//345 155//345 162//345
f 155//346 163//346 162//346
o Icosphere.004
v -1.836415 -0.777150 10.709644
v -1.759471 -0.333847 11.890906
v -2.394689 0.209692 9.939036
v -2.155317 0.778281 10.686360
v -1.943181 -0.625303 11.616397
v -2.483693 -0.748330 11.037834
v -1.533001 -0.358261 10.112107
v -1.247543 -0.351481 11.513478
v -1.059277 -0.301948 10.722781
v -2.538555 -0.333846 11.818705
v -3.038902 -0.327447 10.757224
v -2.975017 -0.353624 11.346578
v -2.171227 -0.301341 9.853485
v -2.670942 -0.328772 10.089617
v -1.184251 0.255819 11.019401
v -1.895900 0.409240 11.793597
v -2.830720 0.266803 11.413667
v -1.770282 0.263289 10.027784
v -1.598738 0.694653 10.961101
v -2.113111 0.806704 11.467380
v -2.792662 0.473368 10.816527
vn 0.4993 -0.8080 -0.3128
vn 0.0423 -0.9846 0.1699
vn -0.4591 0.7717 -0.4401
vn 0.3440 0.8267 -0.4453
vn 0.0185 0.7928 -0.6092
vn -0.4331 0.9013 -0.0094
vn -0.5962 0.7697 0.2283
vn -0.3946 0.4444 0.8042
vn 0.1701 0.9844 -0.0450
vn 0.5834 0.6815 0.4419
vn 0.6215 0.6459 0.4433
vn 0.6912 0.5992 -0.4040
vn 0.3769 0.0182 -0.9261
vn 0.1194 0.2145 -0.9694
vn -0.8372 0.2920 -0.4624
vn -0.8332 0.2965 -0.4667
vn -0.8330 0.2968 -0.4670
vn -0.8374 0.2917 -0.4621
vn -0.9559 0.2910 0.0397
vn -0.7328 0.0976 0.6734
vn -0.3976 0.3722 0.8387
vn 0.5849 0.2100 0.7835
vn 0.7139 0.3957 0.5778
vn 0.7828 0.4197 -0.4594
vn -0.4254 -0.0346 -0.9043
vn -0.9702 0.2133 0.1146
vn -0.0917 0.1127 0.9894
vn -0.0693 -0.6605 0.7476
vn 0.9674 0.0912 0.2361
vn 0.7634 0.2085 -0.6114
vn -0.1557 -0.8880 -0.4326
vn -0.2217 -0.9072 -0.3576
vn -0.4916 -0.8281 -0.2693
vn -0.6139 -0.7888 0.0315
vn -0.4029 -0.8198 0.4068
vn -0.2717 -0.8578 0.4362
vn 0.1362 -0.8424 -0.5214
vn 0.3757 -0.7498 0.5446
vn 0.3842 -0.9022 0.1963
vn 0.5195 -0.8516 0.0704
s 1
usemtl Material.153
f 184//347 176//347 182//347
f 176//348 180//348 181//348
f 178//349 196//349 179//349
f 194//350 193//350 179//350
f 193//351 178//351 179//351
f 196//352 195//352 179//352
f 196//353 192//353 195//353
f 192//354 191//354 195//354
f 195//355 194//355 179//355
f 195//356 191//356 194//356
f 191//357 190//357 194//357
f 190//358 193//358 194//358
f 182//359 188//359 193//359
f 188//360 178//360 193//360
f 189//361 196//362 178//363
f 189//361 186//364 196//362
f 186//365 192//365 196//365
f 187//366 185//366 192//366
f 185//367 191//367 192//367
f 177//368 183//368 191//368
f 183//369 190//369 191//369
f 184//370 193//370 190//370
f 188//371 189//371 178//371
f 186//372 187//372 192//372
f 185//373 177//373 191//373
f 185//374 180//374 177//374
f 183//375 184//375 190//375
f 184//376 182//376 193//376
f 176//377 189//377 188//377
f 176//378 181//378 189//378
f 181//379 186//379 189//379
f 181//380 187//380 186//380
f 181//381 185//381 187//381
f 181//382 180//382 185//382
f 182//383 176//383 188//383
f 180//384 183//384 177//384
f 180//385 176//385 183//385
f 176//386 184//386 183//386
o Icosphere.005
v 12.046174 -0.777150 6.762233
v 11.428580 -0.333847 7.772123
v 12.033764 0.209692 5.810733
v 11.798916 0.778281 6.559492
v 11.436552 -0.625303 7.441909
v 11.328029 -0.748330 6.657620
v 12.638408 -0.358261 6.448593
v 12.064456 -0.351481 7.758519
v 12.673841 -0.301948 7.220656
v 10.833349 -0.333846 7.264300
v 11.035851 -0.327447 6.108410
v 10.748563 -0.353624 6.626951
v 12.265704 -0.301341 5.869533
v 11.721209 -0.328772 5.774677
v 12.400813 0.255819 7.391119
v 11.373120 0.409240 7.613990
v 10.827863 0.266803 6.764915
v 12.493030 0.263289 6.242978
v 12.095596 0.694653 7.104692
v 11.383495 0.806704 7.222211
v 11.202966 0.473368 6.298736
vn 0.5884 -0.8080 0.0319
vn -0.0633 -0.9846 0.1632
vn -0.1217 0.7717 -0.6242
vn 0.5377 0.8267 -0.1658
vn 0.3661 0.7928 -0.4872
vn -0.3486 0.9013 -0.2572
vn -0.6188 0.7697 -0.1569
vn -0.7858 0.4444 0.4301
vn 0.1650 0.9844 0.0612
vn 0.2223 0.6815 0.6973
vn 0.2527 0.6459 0.7204
vn 0.7977 0.5992 0.0680
vn 0.8416 0.0182 -0.5399
vn 0.6560 0.2145 -0.7236
vn -0.4179 0.2920 -0.8603
vn -0.4123 0.2965 -0.8615
vn -0.4119 0.2968 -0.8616
vn -0.4183 0.2917 -0.8602
vn -0.8042 0.2910 -0.5182
vn -0.9869 0.0976 0.1283
vn -0.8081 0.3722 0.4565
vn 0.0267 0.2100 0.9773
vn 0.2507 0.3957 0.8835
vn 0.9045 0.4197 0.0754
vn 0.1732 -0.0346 -0.9843
vn -0.8591 0.2133 -0.4652
vn -0.6449 0.1127 0.7559
vn -0.4873 -0.6605 0.5712
vn 0.6548 0.0912 0.7503
vn 0.9762 0.2085 -0.0600
vn 0.1220 -0.8880 -0.4433
vn 0.0248 -0.9072 -0.4200
vn -0.2467 -0.8281 -0.5034
vn -0.5199 -0.7888 -0.3279
vn -0.5637 -0.8198 0.1004
vn -0.4734 -0.8578 0.2001
vn 0.4117 -0.8424 -0.3478
vn -0.0066 -0.7498 0.6616
vn 0.2009 -0.9022 0.3818
vn 0.3841 -0.8516 0.3568
s 1
usemtl Material.154
f 205//387 197//387 203//387
f 197//388 201//388 202//388
f 199//389 217//389 200//389
f 215//390 214//390 200//390
f 214//391 199//391 200//391
f 217//392 216//392 200//392
f 217//393 213//393 216//393
f 213//394 212//394 216//394
f 216//395 215//395 200//395
f 216//396 212//396 215//396
f 212//397 211//397 215//397
f 211//398 214//398 215//398
f 203//399 209//399 214//399
f 209//400 199//400 214//400
f 210//401 217//402 199//403
f 210//401 207//404 217//402
f 207//405 213//405 217//405
f 208//406 206//406 213//406
f 206//407 212//407 213//407
f 198//408 204//408 212//408
f 204//409 211//409 212//409
f 205//410 214//410 211//410
f 209//411 210//411 199//411
f 207//412 208//412 213//412
f 206//413 198//413 212//413
f 206//414 201//414 198//414
f 204//415 205//415 211//415
f 205//416 203//416 214//416
f 197//417 210//417 209//417
f 197//418 202//418 210//418
f 202//419 207//419 210//419
f 202//420 208//420 207//420
f 202//421 206//421 208//421
f 202//422 201//422 206//422
f 203//423 197//423 209//423
f 201//424 204//424 198//424
f 201//425 197//425 204//425
f 197//426 205//426 204//426
