# Blender 5.0.0
# www.blender.org
mtllib WoodenHammer2.mtl
o Cilindro.001
v -2.250000 7.000000 -0.682363
v 2.250000 7.000000 -0.682363
v -2.250000 6.658819 -0.590943
v 2.250000 6.658819 -0.590943
v -2.250000 6.409057 -0.341181
v 2.250000 6.409057 -0.341181
v -2.250000 6.317638 -0.000000
v 2.250000 6.317638 -0.000000
v -2.250000 6.409057 0.341181
v 2.250000 6.409057 0.341181
v -2.250000 6.658819 0.590943
v 2.250000 6.658819 0.590943
v -2.250000 7.000000 0.682361
v 2.250000 7.000000 0.682361
v -2.250000 7.341181 0.590942
v 2.250000 7.341181 0.590942
v -2.250000 7.590942 0.341180
v 2.250000 7.590942 0.341180
v -2.250000 7.682362 -0.000001
v 2.250000 7.682362 -0.000001
v -2.161269 7.590943 -0.341182
v 2.250000 7.590943 -0.341182
v -2.250000 7.341182 -0.590943
v 2.250000 7.341181 -0.590943
v -1.862080 7.000000 -1.200001
v -2.000000 6.400000 -1.039230
v 2.000000 6.400000 -1.039230
v 2.000000 7.000000 -1.200001
v -2.000000 5.960770 -0.600001
v 2.143845 5.960770 -0.600001
v -2.000000 5.800000 -0.000000
v 1.864583 5.800000 -0.000000
v -1.692556 6.070791 0.600000
v 2.000000 5.960770 0.600000
v -1.939488 6.400000 1.039230
v 2.000000 6.400000 1.039230
v -2.058707 7.078541 1.200000
v 1.829675 7.000000 1.073801
v -1.892273 7.511971 0.872175
v 2.000000 7.600000 1.039230
v -2.000000 8.039230 0.706173
v 2.000000 8.039230 0.599999
v -2.000000 8.200000 0.000000
v 2.000000 8.200000 0.000000
v -2.000000 8.039230 -0.600000
v 1.904243 7.902636 -0.600000
v -2.000000 7.600001 -1.039231
v 2.000000 7.600000 -1.039231
vn 1.0000 -0.0000 -0.0000
vn -1.0000 -0.0000 -0.0000
vn -0.9955 0.0821 -0.0474
vn -0.8510 -0.0432 -0.5234
vn -0.8368 -0.0233 -0.5471
vn -0.8944 -0.1157 -0.4320
vn 0.8944 -0.1157 -0.4320
vn -0.8944 -0.3162 -0.3162
vn 0.9421 -0.1393 -0.3049
vn 0.9352 -0.1380 -0.3262
vn 0.8961 -0.1308 -0.4242
vn -0.8944 -0.4320 -0.1157
vn 0.8971 -0.4309 0.0976
vn 0.8764 -0.4659 0.1219
vn 0.9782 -0.2006 -0.0538
vn -0.7630 -0.5247 0.3776
vn -0.7229 -0.5389 0.4324
vn -0.6038 -0.5636 0.5637
vn 0.8517 -0.5222 0.0443
vn 0.8378 -0.5454 0.0247
vn 0.8019 -0.5971 -0.0210
vn -0.7430 -0.5862 0.3229
vn -0.6840 -0.6668 0.2957
vn -0.8495 -0.3730 0.3730
vn 0.8944 -0.3162 0.3162
vn -0.8794 -0.1973 0.4334
vn -0.8825 -0.2049 0.4234
vn -0.8968 -0.2449 0.3686
vn 0.7579 0.0107 0.6522
vn 0.7721 0.0552 0.6331
vn 0.8040 0.1959 0.5615
vn -0.7924 0.3753 0.4810
vn -0.8056 0.4013 0.4358
vn -0.6619 0.1940 0.7241
vn 0.7579 -0.0104 0.6523
vn 0.7721 -0.0550 0.6331
vn 0.6688 0.1924 0.7181
vn -0.7807 0.2658 0.5655
vn -0.8004 0.1924 0.5678
vn -0.8289 0.0068 0.5594
vn 0.8944 0.3162 0.3162
vn -0.8980 0.4274 0.1049
vn -0.8985 0.4266 0.1033
vn -0.8944 0.4320 0.1157
vn 0.8944 0.4320 0.1157
vn -0.9127 0.3551 -0.2024
vn -0.9214 0.3446 -0.1797
vn -0.9517 0.2965 -0.0794
vn 0.8014 0.4789 -0.3583
vn 0.8216 0.4954 -0.2822
vn 0.8944 0.4320 -0.1157
vn -0.9126 0.3530 -0.2062
vn -0.9213 0.3281 -0.2085
vn -0.8497 0.4918 -0.1899
vn 0.8083 0.4926 -0.3225
vn 0.7935 0.5129 -0.3274
vn 0.8013 0.4789 -0.3586
vn -0.8509 0.0431 -0.5236
vn -0.8367 0.0231 -0.5472
vn -0.8000 -0.0233 -0.5995
vn 0.8944 0.1157 -0.4320
vn -0.7176 0.6032 -0.3482
vn -0.8508 -0.0430 -0.5237
vn -0.8000 0.0233 -0.5995
vn -0.8367 -0.0231 -0.5472
vn 0.9782 -0.1469 -0.1469
vn 0.8969 -0.4312 0.0978
vn 0.7844 -0.5841 0.2086
vn 0.8762 -0.4662 0.1222
vn -0.8944 -0.4320 0.1157
vn 0.8944 -0.4320 0.1157
vn -0.7427 -0.5866 0.3229
vn -0.5845 -0.7719 0.2500
vn -0.6838 -0.6672 0.2955
vn -0.8495 -0.1365 0.5096
vn 0.6688 -0.1924 0.7181
vn -0.7925 0.3755 0.4806
vn -0.8356 0.4973 0.2333
vn -0.8057 0.4015 0.4354
vn 0.7580 -0.0109 0.6522
vn 0.8040 -0.1959 0.5615
vn 0.7722 -0.0554 0.6330
vn -0.6663 0.5273 0.5273
vn -0.9006 0.4237 0.0965
vn -0.8497 0.4104 -0.3310
vn 0.8214 0.4954 -0.2826
vn -0.9127 0.3526 -0.2063
vn -0.9517 0.2171 -0.2171
vn -0.9215 0.3277 -0.2086
vn 0.8401 0.5146 -0.1714
vn -0.8944 0.1157 -0.4320
vt 0.040516 0.651727
vt 0.052148 0.631580
vt 0.063781 0.651727
vt 0.114790 0.645011
vt 0.094643 0.633379
vt 0.094643 0.656644
vt 0.101359 0.658443
vt 0.113169 0.665468
vt 0.108075 0.656644
vt 0.058864 0.656643
vt 0.052148 0.668632
vt 0.052148 0.658443
vt 0.112991 0.651727
vt 0.121815 0.656822
vt 0.072605 0.656822
vt 0.063959 0.665468
vt 0.124980 0.645011
vt 0.065580 0.645011
vt 0.112991 0.638296
vt 0.121815 0.633201
vt 0.072605 0.633201
vt 0.075769 0.645011
vt 0.113169 0.624555
vt 0.108075 0.633379
vt 0.058864 0.633379
vt 0.063781 0.638295
vt 0.101359 0.631580
vt 0.101359 0.621390
vt 0.052148 0.621390
vt 0.063959 0.624555
vt 0.089548 0.624555
vt 0.045433 0.633379
vt 0.089727 0.638296
vt 0.080902 0.633201
vt 0.040516 0.638295
vt 0.040338 0.624555
vt 0.077738 0.645011
vt 0.087927 0.645011
vt 0.038717 0.645011
vt 0.031692 0.633201
vt 0.089727 0.651727
vt 0.080902 0.656822
vt 0.028528 0.645011
vt 0.089548 0.665468
vt 0.045433 0.656644
vt 0.031692 0.656822
vt 0.101359 0.668632
vt 0.040338 0.665468
s 1
usemtl molesAtlas.003
f 22/1/1 14/2/1 6/3/1
f 7/4/2 15/5/2 23/6/3
f 1/7/4 26/8/5 3/9/6
f 4/10/7 28/11/7 2/12/7
f 5/13/8 26/8/8 29/14/8
f 4/10/9 30/15/10 27/16/11
f 5/13/12 31/17/12 7/4/12
f 8/18/13 30/15/14 6/3/15
f 9/19/16 31/17/17 33/20/18
f 8/18/19 34/21/20 32/22/21
f 9/19/22 35/23/23 11/24/24
f 12/25/25 34/21/25 10/26/25
f 13/27/26 35/23/27 37/28/28
f 12/25/29 38/29/30 36/30/31
f 13/27/32 39/31/33 15/5/34
f 16/32/35 38/29/36 14/2/37
f 17/33/38 39/31/39 41/34/40
f 18/35/41 40/36/41 16/32/41
f 17/33/42 43/37/43 19/38/44
f 20/39/45 42/40/45 18/35/45
f 21/41/46 43/37/47 45/42/48
f 22/1/49 44/43/50 20/39/51
f 21/41/52 47/44/53 23/6/54
f 24/45/55 46/46/56 22/1/57
f 1/7/58 47/44/59 25/47/60
f 2/12/61 48/48/61 24/45/61
f 6/3/1 4/10/1 2/12/1
f 2/12/1 24/45/1 22/1/1
f 22/1/1 20/39/1 18/35/1
f 18/35/1 16/32/1 14/2/1
f 14/2/1 12/25/1 10/26/1
f 10/26/1 8/18/1 6/3/1
f 6/3/1 2/12/1 22/1/1
f 22/1/1 18/35/1 14/2/1
f 14/2/1 10/26/1 6/3/1
f 23/6/3 1/7/2 3/9/2
f 3/9/2 5/13/2 7/4/2
f 7/4/2 9/19/2 11/24/2
f 11/24/2 13/27/2 15/5/2
f 15/5/2 17/33/2 19/38/3
f 19/38/3 21/41/62 23/6/3
f 23/6/3 3/9/2 7/4/2
f 7/4/2 11/24/2 15/5/2
f 15/5/2 19/38/3 23/6/3
f 1/7/63 25/47/64 26/8/65
f 4/10/7 27/16/7 28/11/7
f 5/13/8 3/9/8 26/8/8
f 4/10/9 6/3/66 30/15/10
f 5/13/12 29/14/12 31/17/12
f 8/18/67 32/22/68 30/15/69
f 9/19/16 7/4/70 31/17/17
f 8/18/19 10/26/71 34/21/20
f 9/19/72 33/20/73 35/23/74
f 12/25/25 36/30/25 34/21/25
f 13/27/26 11/24/75 35/23/27
f 12/25/29 14/2/76 38/29/30
f 13/27/77 37/28/78 39/31/79
f 16/32/80 40/36/81 38/29/82
f 17/33/38 15/5/83 39/31/39
f 18/35/41 42/40/41 40/36/41
f 17/33/42 41/34/84 43/37/43
f 20/39/45 44/43/45 42/40/45
f 21/41/46 19/38/85 43/37/47
f 22/1/57 46/46/56 44/43/86
f 21/41/87 45/42/88 47/44/89
f 24/45/55 48/48/90 46/46/56
f 1/7/58 23/6/91 47/44/59
f 2/12/61 28/11/61 48/48/61
o Cilindro.002
v 0.000000 8.388689 -0.331183
v 0.212132 8.388689 -0.212133
v 0.300000 8.444319 -0.000001
v 0.212132 8.388689 0.212131
v 0.000000 8.314228 0.229435
v -0.197295 8.385447 0.223773
v -0.352769 8.388689 -0.000001
v -0.212132 8.388689 -0.155368
vn 0.0156 0.9983 0.0559
vn -0.0460 0.9669 0.2511
vn -0.0984 0.9929 0.0670
vn 0.1785 0.9311 -0.3181
vn -0.0359 0.9910 -0.1286
vn -0.0000 1.0000 -0.0000
vn 0.3368 0.9154 -0.2207
vn -0.3208 0.9403 0.1137
vt 0.022783 0.636292
vt 0.047400 0.611674
vt 0.072018 0.636292
vt 0.064808 0.653700
vt 0.047400 0.660910
vt 0.029993 0.653700
vt 0.029993 0.618885
vt 0.064808 0.618885
s 1
usemtl molesAtlas.003
f 55/49/92 53/50/93 51/51/94
f 51/51/94 50/52/95 49/53/96
f 49/53/96 56/54/97 55/49/92
f 55/49/92 54/55/98 53/50/93
f 53/50/93 52/56/99 51/51/94
f 51/51/94 49/53/96 55/49/92
o Cilindro.003
v 1.100815 7.753332 0.821336
v 1.105233 7.804983 0.752265
v 1.254738 7.716318 0.905773
v 1.325309 7.736408 0.855193
v 1.299924 7.515279 1.047442
v 1.385647 7.491345 1.027884
v 1.082694 7.414760 1.104672
v 1.083143 7.323632 1.027273
v 0.874524 7.515279 1.020235
v 0.794156 7.491345 0.994719
v 0.883584 7.716318 0.878566
v 0.840432 7.736408 0.822027
vn -0.0005 0.8932 0.4497
vn -0.0223 0.8274 0.5612
vn 0.0118 0.9235 0.3833
vn 0.3365 0.5929 0.7316
vn 0.3463 0.5951 0.7252
vn 0.3328 0.5920 0.7340
vn 0.3987 -0.5298 0.7485
vn 0.1980 -0.3214 0.9260
vn 0.4472 -0.5777 0.6828
vn -0.4859 -0.5026 0.7151
vn -0.2911 -0.2834 0.9138
vn -0.2348 -0.2208 0.9466
vn -0.4252 0.5429 0.7242
vn -0.5393 0.5456 0.6415
vn -0.5619 0.5448 0.6225
vn -0.0574 0.9009 0.4302
vn -0.0519 0.8220 0.5671
vn -0.0505 0.8014 0.5960
vn -0.0674 0.6094 0.7900
vn -0.0017 0.6192 0.7852
vn -0.1062 0.6123 0.7834
vn -0.0297 0.8014 0.5974
vn 0.3489 0.5957 0.7234
vn 0.1441 -0.2634 0.9539
vn -0.5282 -0.5512 0.6459
vn -0.2911 -0.2834 0.9137
vn -0.3966 0.5407 0.7419
vn -0.5392 0.5456 0.6416
vn -0.0592 0.9255 0.3740
vn -0.0519 0.8221 0.5670
vn -0.3231 0.4955 0.8063
vn 0.1177 0.5685 0.8142
vn -0.0521 0.5768 0.8152
vt 0.105601 0.677688
vt 0.121076 0.685624
vt 0.107128 0.685624
vt 0.088598 0.677688
vt 0.104074 0.685624
vt 0.090125 0.685624
vt 0.071596 0.677688
vt 0.087071 0.685624
vt 0.073123 0.685624
vt 0.056120 0.685624
vt 0.054593 0.677688
vt 0.039117 0.685624
vt 0.037590 0.677688
vt 0.022115 0.685624
vt 0.020588 0.677688
vt 0.046092 0.629197
vt 0.028697 0.599069
vt 0.063486 0.599069
vt 0.122604 0.677688
vt 0.070068 0.685624
vt 0.053066 0.685624
vt 0.036063 0.685624
vt 0.063486 0.619154
vt 0.028697 0.619154
vt 0.046092 0.589026
s 1
usemtl molesAtlas.003
f 60/57/100 57/58/101 59/59/102
f 62/60/103 59/61/104 61/62/105
f 64/63/106 61/64/107 63/65/108
f 64/63/109 65/66/110 66/67/111
f 66/67/112 67/68/113 68/69/114
f 68/69/115 57/70/116 58/71/117
f 57/72/118 65/73/119 61/74/120
f 60/57/100 58/75/121 57/58/101
f 62/60/103 60/57/122 59/61/104
f 64/63/106 62/60/123 61/64/107
f 64/63/109 63/76/124 65/66/125
f 66/67/112 65/77/126 67/68/127
f 68/69/115 67/78/128 57/70/129
f 61/74/120 59/79/130 57/72/118
f 57/72/118 67/80/131 65/73/119
f 65/73/119 63/81/132 61/74/120
o Cilindro.012
v 1.118441 7.687817 0.545750
v 1.372196 7.565286 0.648678
v 1.361151 7.320223 0.821369
v 1.096351 7.197691 0.891132
v 0.842595 7.320223 0.788204
v 0.853640 7.565286 0.615513
v 1.105233 7.804983 0.752265
v 1.325309 7.736408 0.855193
v 1.385647 7.491345 1.027884
v 1.083143 7.323632 1.027273
v 0.794156 7.491345 0.994719
v 0.840432 7.736408 0.822027
vn -0.4032 0.7345 -0.5458
vn -0.4145 0.7385 -0.5317
vn -0.4699 0.7545 -0.4581
vn 0.4210 -0.6974 0.5800
vn 0.4343 -0.6740 0.5976
vn 0.4570 -0.6304 0.6275
vn -0.5101 -0.6829 0.5230
vn -0.4973 -0.7016 0.5104
vn -0.5334 -0.6461 0.5459
vn -0.9880 0.0016 -0.1547
vn -0.9882 0.0133 -0.1524
vn -0.9828 -0.0746 -0.1687
vn 0.4964 0.7452 -0.4452
vn 0.4932 0.7441 -0.4507
vn 0.5244 0.7545 -0.3946
vn 0.9950 0.0985 -0.0161
vn 0.9970 0.0739 -0.0209
vn 0.9954 -0.0809 -0.0511
vn 0.0521 -0.5768 -0.8152
vn -0.4031 0.7345 -0.5459
vn -0.3455 0.7116 -0.6118
vn -0.4144 0.7385 -0.5319
vn 0.4024 -0.7278 0.5553
vn -0.4779 -0.7282 0.4913
vn -0.9865 0.0895 -0.1373
vn 0.4623 0.7315 -0.5012
vn 0.9950 0.0988 -0.0161
vn 0.9686 0.2484 0.0141
vn 0.9970 0.0741 -0.0209
vt 0.039038 0.924906
vt 0.022036 0.967978
vt 0.022036 0.924906
vt 0.090046 0.924906
vt 0.073044 0.967979
vt 0.073044 0.924906
vt 0.056041 0.924906
vt 0.056041 0.967978
vt 0.124052 0.967978
vt 0.107049 0.924906
vt 0.124052 0.924906
vt 0.090046 0.967978
vt 0.119751 0.911644
vt 0.098548 0.874918
vt 0.077344 0.911644
vt 0.039038 0.967978
vt 0.090046 0.967979
vt 0.107049 0.967979
vt 0.107049 0.967978
vt 0.098548 0.923886
vt 0.119751 0.887160
vt 0.077344 0.887160
s 1
usemtl molesAtlas.003
f 74/82/133 75/83/134 69/84/135
f 71/85/136 78/86/137 72/87/138
f 78/86/139 73/88/140 72/87/141
f 79/89/142 74/82/143 73/88/144
f 75/90/145 70/91/146 69/92/147
f 70/91/148 77/93/149 71/85/150
f 70/94/151 72/95/151 74/96/151
f 74/82/152 80/97/153 75/83/154
f 71/85/136 77/98/155 78/86/137
f 78/86/139 79/89/156 73/88/140
f 79/89/142 80/97/157 74/82/143
f 75/90/145 76/99/158 70/91/146
f 70/91/159 76/100/160 77/93/161
f 74/96/151 69/101/151 70/94/151
f 70/94/151 71/102/151 72/95/151
f 72/95/151 73/103/151 74/96/151
