# Blender 5.0.0
# www.blender.org
mtllib WoodenHammer.mtl
o Cilindro.019
v -1.250000 7.000000 -1.050000
v 0.000000 7.000000 -1.000000
v 1.250000 7.000000 -1.050000
v 1.250000 6.475000 -0.909327
v 0.000000 6.500000 -0.866025
v -1.250000 6.475000 -0.909327
v 1.250000 6.090673 -0.525000
v 0.000000 6.133975 -0.500000
v -1.250000 6.090673 -0.525000
v 1.250000 5.950000 -0.000000
v 0.000000 6.000000 -0.000000
v -1.250000 5.950000 -0.000000
v 1.250000 6.090673 0.524999
v 0.000000 6.133975 0.500000
v -1.250000 6.090673 0.524999
v 1.250000 6.475000 0.820650
v 0.000000 6.500000 0.866024
v -1.250000 6.475000 0.909326
v 1.250000 7.000000 0.961321
v 0.000000 7.000000 0.999998
v -1.250000 7.000000 0.974475
v 1.250000 7.525000 0.909325
v 0.000000 7.500000 0.866023
v -1.250000 7.525000 0.999623
v 1.250000 7.835852 0.524998
v 0.000000 7.866025 0.499998
v -1.250000 7.909327 0.524998
v 1.250000 8.050000 -0.000002
v 0.000000 8.000000 -0.000002
v -1.250000 8.050000 -0.000002
v 1.250000 7.909327 -0.525001
v 0.000000 7.866025 -0.500001
v -1.250000 7.909327 -0.525001
v 1.443197 7.525001 -0.945996
v 0.000000 7.500000 -0.866027
v -1.153532 7.525001 -0.934829
v -1.862080 7.000000 -1.200001
v -2.000000 6.400000 -1.039230
v 2.000000 6.400000 -1.039230
v 2.000000 7.000000 -1.200001
v -2.000000 5.960770 -0.600001
v 2.143845 5.960770 -0.600001
v -2.000000 5.800000 -0.000000
v 1.864583 5.800000 -0.000000
v -1.692556 6.070791 0.600000
v 2.000000 5.960770 0.600000
v -1.939488 6.400000 1.039230
v 2.000000 6.400000 1.039230
v -2.058707 7.078541 1.200000
v 1.829675 7.000000 1.073801
v -1.892273 7.511971 0.872174
v 2.000000 7.600000 1.039229
v -2.000000 8.039230 0.706172
v 2.000000 8.039230 0.599998
v -2.000000 8.200000 -0.000001
v 2.000000 8.200000 -0.000001
v -2.000000 8.039230 -0.600001
v 1.904243 7.902636 -0.600001
v -2.000000 7.600001 -1.039232
v 2.000000 7.600000 -1.039232
v -2.250000 7.000000 -0.682365
v 2.250000 7.000000 -0.682365
v -2.250000 6.658819 -0.590943
v 2.250000 6.658819 -0.590943
v -2.250000 6.409057 -0.341181
v 2.250000 6.409057 -0.341181
v -2.250000 6.317638 -0.000000
v 2.250000 6.317638 -0.000000
v -2.250000 6.409057 0.341181
v 2.250000 6.409057 0.341181
v -2.250000 6.658819 0.590943
v 2.250000 6.658819 0.590943
v -2.250000 7.000000 0.682359
v 2.250000 7.000000 0.682359
v -2.250000 7.341181 0.590940
v 2.250000 7.341181 0.590940
v -2.250000 7.590942 0.341178
v 2.250000 7.590942 0.341178
v -2.250000 7.682362 -0.000003
v 2.250000 7.682362 -0.000003
v -2.161269 7.590943 -0.341184
v 2.250000 7.590943 -0.341184
v -2.250000 7.341182 -0.590945
v 2.250000 7.341181 -0.590945
v -1.862080 7.000000 -1.200001
v -2.000000 6.400000 -1.039230
v 2.000000 6.400000 -1.039230
v 2.000000 7.000000 -1.200001
v -2.000000 5.960770 -0.600001
v 2.143845 5.960770 -0.600001
v -2.000000 5.800000 -0.000000
v 1.864583 5.800000 -0.000000
v -1.692556 6.070791 0.600000
v 2.000000 5.960770 0.600000
v -1.939488 6.400000 1.039230
v 2.000000 6.400000 1.039230
v -2.058707 7.078541 1.200000
v 1.829675 7.000000 1.073801
v -1.892273 7.511971 0.872173
v 2.000000 7.600000 1.039228
v -2.000000 8.039230 0.706171
v 2.000000 8.039230 0.599997
v -2.000000 8.200000 -0.000002
v 2.000000 8.200000 -0.000002
v -2.000000 8.039230 -0.600002
v 1.904243 7.902636 -0.600002
v -2.000000 7.600001 -1.039233
v 2.000000 7.600000 -1.039233
v 1.100815 7.753332 0.821334
v 1.105233 7.804983 0.752263
v 1.254738 7.716318 0.905771
v 1.325309 7.736408 0.855191
v 1.299924 7.515279 1.047440
v 1.385647 7.491345 1.027882
v 1.082694 7.414760 1.104670
v 1.083143 7.323632 1.027271
v 0.874524 7.515279 1.020233
v 0.794156 7.491345 0.994717
v 0.883584 7.716318 0.878564
v 0.840432 7.736408 0.822025
v 1.118441 7.687817 0.545749
v 1.372196 7.565286 0.648677
v 1.361151 7.320223 0.821368
v 1.096351 7.197691 0.891131
v 0.842595 7.320223 0.788203
v 0.853640 7.565286 0.615512
v 1.105233 7.804983 0.752264
v 1.325309 7.736408 0.855192
v 1.385647 7.491345 1.027883
v 1.083143 7.323632 1.027272
v 0.794156 7.491345 0.994718
v 0.840432 7.736408 0.822026
v 1.118441 7.687817 0.545748
v 1.372196 7.565286 0.648676
v 1.361151 7.320223 0.821367
v 1.096351 7.197691 0.891130
v 0.842595 7.320223 0.788202
v 0.853640 7.565286 0.615511
v 1.105233 7.804983 0.752263
v 1.325309 7.736408 0.855191
v 1.385647 7.491345 1.027882
v 1.083143 7.323632 1.027271
v 0.794156 7.491345 0.994717
v 0.840432 7.736408 0.822025
vn -0.1897 -0.2541 -0.9484
vn -0.1712 -0.7138 -0.6791
vn -0.1776 -0.7072 -0.6844
vn -0.1897 -0.6943 -0.6943
vn -0.1970 -0.9371 -0.2882
vn -0.1866 -0.9356 -0.2996
vn -0.2295 -0.9402 -0.2519
vn -0.2067 -0.9382 0.2775
vn -0.2110 -0.9387 0.2728
vn -0.2295 -0.9402 0.2519
vn -0.2371 -0.6541 0.7183
vn -0.2189 -0.6366 0.7394
vn -0.1818 -0.5996 0.7794
vn -0.2376 -0.1963 0.9513
vn -0.2491 -0.1835 0.9509
vn -0.1842 -0.2544 0.9494
vn -0.1838 0.1033 0.9775
vn -0.1849 0.1021 0.9774
vn -0.1896 0.0968 0.9771
vn -0.2288 0.7144 0.6613
vn -0.2142 0.7311 0.6477
vn -0.1835 0.7643 0.6182
vn -0.2261 0.9270 0.2992
vn -0.2408 0.9172 0.3175
vn -0.2775 0.8896 0.3629
vn -0.1002 0.9354 -0.3390
vn -0.1162 0.9278 -0.3546
vn -0.0198 0.9657 -0.2588
vn -0.1386 0.7557 -0.6401
vn -0.1317 0.7523 -0.6455
vn -0.0718 0.7200 -0.6902
vn -0.1910 0.2559 -0.9476
vn -0.1913 0.2557 -0.9476
vn -0.1895 0.2574 -0.9475
vn 0.1891 0.2273 -0.9553
vn 0.1757 0.2445 -0.9536
vn 0.1422 0.2866 -0.9474
vn 0.0449 0.2196 -0.9745
vn 0.0565 0.2443 -0.9681
vn 0.0391 0.2073 -0.9775
vn -0.0435 0.2473 -0.9680
vn -0.0538 0.2235 -0.9732
vn -0.0386 0.2586 -0.9652
vn 0.1637 0.7216 -0.6727
vn 0.1723 0.7127 -0.6800
vn 0.1897 0.6943 -0.6943
vn 0.0521 0.7140 -0.6982
vn 0.0435 0.7269 -0.6854
vn 0.0390 0.7334 -0.6786
vn -0.0481 0.7220 -0.6902
vn -0.0418 0.7118 -0.7011
vn -0.0386 0.7066 -0.7066
vn 0.1897 0.9484 -0.2541
vn 0.0386 0.9652 -0.2586
vn -0.0386 0.9652 -0.2586
vn 0.2028 0.9503 0.2364
vn 0.2064 0.9507 0.2315
vn 0.2172 0.9518 0.2167
vn 0.0386 0.9652 0.2586
vn -0.0243 0.9564 0.2912
vn 0.0014 0.9373 0.3484
vn -0.0386 0.9652 0.2586
vn 0.1084 0.5491 0.8287
vn 0.0471 0.6130 0.7887
vn 0.2760 0.3395 0.8992
vn 0.0512 0.7269 0.6849
vn 0.0717 0.7585 0.6477
vn 0.0825 0.7745 0.6272
vn -0.0067 0.7246 0.6891
vn -0.0274 0.7606 0.6487
vn 0.0029 0.7071 0.7071
vn 0.0104 0.2084 0.9780
vn 0.1175 0.3343 0.9351
vn 0.2767 0.5099 0.8146
vn 0.0751 0.0285 0.9968
vn 0.0120 0.1833 0.9830
vn 0.1052 -0.0476 0.9933
vn -0.0200 0.1388 0.9901
vn 0.0131 0.2188 0.9757
vn 0.0299 0.2587 0.9655
vn 0.2292 -0.1597 0.9602
vn 0.2215 -0.1506 0.9635
vn 0.2477 -0.1819 0.9516
vn -0.0054 -0.2248 0.9744
vn 0.0228 -0.1572 0.9873
vn 0.0368 -0.1231 0.9917
vn 0.0299 -0.2587 0.9655
vn 0.1794 -0.7142 0.6766
vn 0.1793 -0.7142 0.6766
vn 0.2028 -0.7254 0.6577
vn 0.0386 -0.7066 0.7066
vn 0.0002 -0.6853 0.7283
vn -0.0250 -0.6346 0.7725
vn 0.0115 -0.7071 0.7071
vn 0.1477 -0.9428 0.2987
vn 0.1442 -0.9441 0.2964
vn 0.1856 -0.9278 0.3237
vn 0.0386 -0.9652 0.2586
vn -0.0386 -0.9652 0.2586
vn 0.1897 -0.9484 -0.2541
vn 0.0386 -0.9652 -0.2586
vn -0.0386 -0.9652 -0.2586
vn 0.1897 -0.6943 -0.6943
vn 0.0386 -0.7066 -0.7066
vn -0.0386 -0.7066 -0.7066
vn 0.2071 -0.2779 -0.9380
vn 0.2114 -0.2731 -0.9385
vn 0.1916 -0.2949 -0.9361
vn 0.0386 -0.2586 -0.9652
vn -0.0386 -0.2586 -0.9652
vn -0.1615 -0.7238 -0.6709
vn -0.1627 -0.9315 -0.3253
vn -0.1916 -0.9364 0.2941
vn -0.2668 -0.6815 0.6815
vn -0.2898 -0.1368 0.9473
vn -0.1801 0.1075 0.9778
vn -0.2539 0.6839 0.6839
vn -0.1897 0.9484 0.2541
vn -0.1785 0.8926 -0.4139
vn -0.2037 0.7849 -0.5852
vn -0.1929 0.2540 -0.9478
vn 0.2347 0.1670 -0.9576
vn 0.0631 0.2583 -0.9640
vn -0.0577 0.2144 -0.9750
vn 0.1466 0.7385 -0.6581
vn 0.0574 0.7059 -0.7059
vn -0.0506 0.7259 -0.6859
vn 0.1897 0.9484 0.2541
vn 0.0148 0.9258 0.3776
vn 0.1083 0.5491 0.8287
vn -0.1393 0.7696 0.6232
vn 0.0386 0.7066 0.7066
vn -0.0373 0.7770 0.6284
vn -0.1935 -0.0469 0.9800
vn -0.0197 0.2588 0.9657
vn -0.0364 0.0985 0.9945
vn 0.1965 -0.1208 0.9730
vn -0.0197 -0.2588 0.9657
vn 0.1499 -0.6991 0.6991
vn -0.0369 -0.6093 0.7921
vn 0.0869 -0.9623 0.2578
vn 0.2304 -0.2519 -0.9399
vn 1.0000 -0.0000 -0.0000
vn -1.0000 -0.0000 -0.0000
vn -0.9955 0.0821 -0.0474
vn -0.8510 -0.0432 -0.5234
vn -0.8368 -0.0233 -0.5471
vn -0.8944 -0.1157 -0.4320
vn 0.8944 -0.1158 -0.4320
vn -0.8944 -0.3162 -0.3162
vn 0.9421 -0.1393 -0.3049
vn 0.9352 -0.1380 -0.3262
vn 0.8961 -0.1308 -0.4242
vn -0.8944 -0.4320 -0.1157
vn 0.8971 -0.4309 0.0976
vn 0.8764 -0.4659 0.1219
vn 0.9782 -0.2006 -0.0538
vn -0.7630 -0.5247 0.3776
vn -0.7229 -0.5389 0.4324
vn -0.6038 -0.5636 0.5637
vn 0.8517 -0.5222 0.0443
vn 0.8378 -0.5454 0.0247
vn 0.8019 -0.5971 -0.0210
vn -0.7431 -0.5861 0.3229
vn -0.6840 -0.6668 0.2957
vn -0.8495 -0.3730 0.3730
vn 0.8944 -0.3162 0.3162
vn -0.8794 -0.1973 0.4334
vn -0.8825 -0.2049 0.4234
vn -0.8968 -0.2449 0.3686
vn 0.7579 0.0107 0.6522
vn 0.7721 0.0552 0.6331
vn 0.8040 0.1959 0.5615
vn -0.7923 0.3753 0.4810
vn -0.8056 0.4013 0.4358
vn -0.6619 0.1940 0.7241
vn 0.7579 -0.0104 0.6523
vn 0.7721 -0.0550 0.6331
vn 0.6688 0.1924 0.7181
vn -0.7807 0.2658 0.5655
vn -0.8004 0.1924 0.5678
vn -0.8289 0.0068 0.5594
vn 0.8944 0.3162 0.3162
vn -0.8980 0.4274 0.1049
vn -0.8985 0.4266 0.1033
vn -0.8944 0.4320 0.1157
vn 0.8944 0.4320 0.1157
vn -0.9127 0.3551 -0.2024
vn -0.9214 0.3446 -0.1797
vn -0.9517 0.2965 -0.0794
vn 0.8014 0.4789 -0.3583
vn 0.8216 0.4954 -0.2822
vn 0.8944 0.4320 -0.1157
vn -0.9126 0.3530 -0.2062
vn -0.9213 0.3283 -0.2085
vn -0.8497 0.4918 -0.1899
vn 0.8083 0.4926 -0.3225
vn 0.7935 0.5129 -0.3274
vn 0.8013 0.4789 -0.3586
vn -0.8509 0.0431 -0.5236
vn -0.8367 0.0231 -0.5472
vn -0.8000 -0.0233 -0.5995
vn 0.8944 0.1157 -0.4320
vn -0.7176 0.6032 -0.3482
vn -0.8508 -0.0430 -0.5237
vn -0.8000 0.0232 -0.5995
vn -0.8367 -0.0231 -0.5472
vn 0.8944 -0.1157 -0.4320
vn 0.9782 -0.1469 -0.1469
vn 0.8969 -0.4312 0.0978
vn 0.7844 -0.5841 0.2086
vn 0.8762 -0.4662 0.1222
vn -0.8944 -0.4320 0.1157
vn 0.8944 -0.4320 0.1157
vn -0.7427 -0.5867 0.3229
vn -0.5845 -0.7719 0.2500
vn -0.6837 -0.6673 0.2955
vn -0.8495 -0.1365 0.5096
vn 0.6688 -0.1924 0.7181
vn -0.7925 0.3755 0.4805
vn -0.8356 0.4973 0.2333
vn -0.8057 0.4015 0.4354
vn 0.7580 -0.0109 0.6522
vn 0.8040 -0.1959 0.5615
vn 0.7722 -0.0554 0.6330
vn -0.6663 0.5273 0.5273
vn -0.9006 0.4237 0.0965
vn -0.8497 0.4104 -0.3310
vn 0.8214 0.4954 -0.2826
vn -0.9127 0.3526 -0.2063
vn -0.9517 0.2171 -0.2171
vn -0.9215 0.3277 -0.2086
vn 0.8401 0.5146 -0.1714
vn -0.8944 0.1157 -0.4320
vn -0.0005 0.8932 0.4497
vn -0.0223 0.8274 0.5612
vn 0.0118 0.9235 0.3833
vn 0.3365 0.5929 0.7316
vn 0.3463 0.5951 0.7252
vn 0.3328 0.5920 0.7340
vn 0.3987 -0.5298 0.7485
vn 0.1980 -0.3214 0.9260
vn 0.4472 -0.5777 0.6828
vn -0.4859 -0.5026 0.7151
vn -0.2911 -0.2834 0.9138
vn -0.2348 -0.2208 0.9466
vn -0.4252 0.5429 0.7242
vn -0.5393 0.5456 0.6415
vn -0.5619 0.5448 0.6225
vn -0.0574 0.9009 0.4302
vn -0.0519 0.8220 0.5671
vn -0.0505 0.8014 0.5960
vn -0.0674 0.6094 0.7900
vn -0.0017 0.6192 0.7852
vn -0.1062 0.6123 0.7834
vn -0.0297 0.8014 0.5974
vn 0.3489 0.5957 0.7234
vn 0.1441 -0.2634 0.9539
vn -0.5282 -0.5512 0.6459
vn -0.2912 -0.2834 0.9137
vn -0.3966 0.5407 0.7419
vn -0.5392 0.5456 0.6416
vn -0.0592 0.9255 0.3740
vn -0.0519 0.8221 0.5669
vn -0.3231 0.4955 0.8063
vn 0.1177 0.5685 0.8142
vn -0.0521 0.5768 0.8152
vn -0.4031 0.7345 -0.5459
vn -0.4145 0.7385 -0.5318
vn -0.4699 0.7545 -0.4581
vn 0.4210 -0.6974 0.5800
vn 0.4343 -0.6740 0.5976
vn 0.4570 -0.6304 0.6275
vn -0.5101 -0.6829 0.5230
vn -0.4973 -0.7016 0.5104
vn -0.5334 -0.6461 0.5459
vn -0.9880 0.0016 -0.1547
vn -0.9882 0.0133 -0.1524
vn -0.9828 -0.0746 -0.1687
vn 0.4964 0.7452 -0.4452
vn 0.4932 0.7441 -0.4507
vn 0.5244 0.7545 -0.3946
vn 0.9950 0.0985 -0.0161
vn 0.9970 0.0740 -0.0209
vn 0.9954 -0.0809 -0.0511
vn 0.0521 -0.5768 -0.8152
vn -0.3455 0.7116 -0.6118
vn 0.4024 -0.7278 0.5553
vn -0.4779 -0.7282 0.4913
vn -0.9865 0.0895 -0.1373
vn 0.4623 0.7315 -0.5012
vn 0.9950 0.0988 -0.0161
vn 0.9686 0.2484 0.0141
vn -0.4032 0.7345 -0.5458
vn -0.4145 0.7386 -0.5317
vn 0.9950 0.0984 -0.0161
vn 0.9970 0.0739 -0.0209
vn -0.4144 0.7385 -0.5319
vn 0.9970 0.0741 -0.0209
vt 0.056931 0.127722
vt 0.128913 0.023718
vt 0.129649 0.128188
vt 0.203747 0.127830
vt 0.277167 0.041008
vt 0.259372 0.126743
vt 0.527802 0.551577
vt 0.445830 0.465266
vt 0.513907 0.465898
vt 0.450000 0.569798
vt 0.379227 0.465507
vt 0.304049 0.547185
vt 0.315843 0.466290
vt 0.776718 0.028151
vt 0.838380 0.108584
vt 0.789475 0.109378
vt 0.829791 0.003386
vt 0.907436 0.108530
vt 0.915590 0.003187
vt 0.984525 0.108799
vt 0.757116 0.457285
vt 0.678947 0.549793
vt 0.687683 0.458131
vt 0.608063 0.485025
vt 0.534177 0.561954
vt 0.550470 0.456699
vt 0.609276 0.121822
vt 0.534177 0.021807
vt 0.604549 0.003909
vt 0.555902 0.281755
vt 0.550471 0.107051
vt 0.614545 0.282914
vt 0.687683 0.108483
vt 0.690992 0.004154
vt 0.686581 0.283118
vt 0.757116 0.107637
vt 0.770343 0.003187
vt 0.752707 0.282313
vt 0.913455 0.458151
vt 0.996813 0.563218
vt 0.903548 0.562649
vt 0.912743 0.283381
vt 0.984525 0.458540
vt 0.980429 0.283751
vt 0.841527 0.548242
vt 0.841244 0.283546
vt 0.828139 0.458219
vt 0.396512 0.838069
vt 0.396512 0.734086
vt 0.470977 0.751281
vt 0.477352 0.755622
vt 0.483612 0.576272
vt 0.527802 0.746427
vt 0.785088 0.284204
vt 0.363258 0.018815
vt 0.314464 0.116551
vt 0.283542 0.003187
vt 0.372154 0.290619
vt 0.369930 0.115637
vt 0.311788 0.291365
vt 0.439808 0.053473
vt 0.444439 0.290536
vt 0.445830 0.115549
vt 0.513907 0.116181
vt 0.527802 0.010973
vt 0.509275 0.291137
vt 0.213596 0.582830
vt 0.259372 0.476444
vt 0.277167 0.581588
vt 0.203747 0.477531
vt 0.253440 0.301516
vt 0.200464 0.302551
vt 0.129649 0.477889
vt 0.128913 0.583239
vt 0.129894 0.302892
vt 0.045807 0.563414
vt 0.056931 0.477423
vt 0.060639 0.302448
vt 0.045807 0.023185
vt 0.213597 0.003187
vt 0.363258 0.569898
vt 0.996813 0.003632
vt 0.770343 0.562623
vt 0.604549 0.563345
vt 0.003187 0.462827
vt 0.527802 0.837254
vt 0.787983 0.459104
vt 0.606614 0.756073
vt 0.722057 0.638035
vt 0.766597 0.797270
vt 0.067019 0.785778
vt 0.156251 0.646728
vt 0.232183 0.793309
vt 0.195657 0.826568
vt 0.144517 0.911400
vt 0.147384 0.837149
vt 0.724138 0.822394
vt 0.655049 0.893932
vt 0.674789 0.822884
vt 0.100299 0.822219
vt 0.061714 0.885145
vt 0.817545 0.848350
vt 0.741835 0.893071
vt 0.003187 0.821060
vt 0.790789 0.754245
vt 0.470977 0.629319
vt 0.470977 0.727712
vt 0.400417 0.660106
vt 0.858066 0.686352
vt 0.858066 0.773731
vt 0.056460 0.737591
vt 0.011104 0.654113
vt 0.071452 0.690568
vt 0.765073 0.662310
vt 0.790231 0.704846
vt 0.107978 0.657310
vt 0.084862 0.589614
vt 0.732570 0.586589
vt 0.813824 0.611549
vt 0.160117 0.603773
vt 0.672707 0.638525
vt 0.203335 0.661658
vt 0.236092 0.589614
vt 0.630248 0.663648
vt 0.651388 0.569720
vt 0.301440 0.666867
vt 0.236616 0.698099
vt 0.606056 0.706674
vt 0.576720 0.613902
vt 0.247351 0.747005
vt 0.320009 0.751610
vt 0.534177 0.689566
vt 0.293644 0.834304
vt 0.631772 0.798608
vt 0.552954 0.781559
vt 0.229683 0.893909
vt 0.579400 0.851242
vt 0.406151 0.576272
vt 0.394042 0.677461
vt 0.369625 0.644282
vt 0.394042 0.576272
vt 0.363251 0.659954
vt 0.333694 0.621137
vt 0.363251 0.576272
vt 0.891003 0.742153
vt 0.875610 0.714269
vt 0.894684 0.730410
vt 0.931146 0.736716
vt 0.927416 0.725382
vt 0.350347 0.866560
vt 0.368723 0.834978
vt 0.366886 0.865785
vt 0.368723 0.894508
vt 0.364375 0.905974
vt 0.900026 0.659910
vt 0.874470 0.682449
vt 0.864850 0.679409
vt 0.864440 0.718873
vt 0.904674 0.670265
vt 0.363886 0.823218
vt 0.931146 0.691731
vt 0.902242 0.910194
vt 0.868061 0.872881
vt 0.900884 0.872514
vt 0.352808 0.739064
vt 0.376342 0.777347
vt 0.350347 0.776602
vt 0.352379 0.811627
vt 0.703672 0.902809
vt 0.666194 0.942275
vt 0.665922 0.900307
vt 0.902242 0.837659
vt 0.615356 0.942092
vt 0.577987 0.902996
vt 0.615422 0.900307
vt 0.864440 0.632649
vt 0.900770 0.569720
vt 0.937100 0.632514
vt 0.864674 0.910165
vt 0.390137 0.734086
vt 0.390137 0.816844
vt 0.703672 0.944887
vt 0.864440 0.842335
vt 0.577987 0.945359
vt 0.900770 0.653535
vt 0.864440 0.590741
vt 0.937100 0.590606
vt 0.515153 0.916163
vt 0.480973 0.878851
vt 0.513796 0.878483
vt 0.866902 0.753505
vt 0.890436 0.791788
vt 0.864440 0.791043
vt 0.866473 0.826068
vt 0.659547 0.902809
vt 0.622069 0.942275
vt 0.621797 0.900307
vt 0.515153 0.843629
vt 0.571546 0.942092
vt 0.534177 0.902996
vt 0.571612 0.900307
vt 0.396512 0.907373
vt 0.432842 0.844444
vt 0.469172 0.907238
vt 0.477586 0.916134
vt 0.904231 0.748527
vt 0.904231 0.831285
vt 0.659547 0.944887
vt 0.477352 0.848304
vt 0.534177 0.945359
vt 0.432842 0.928259
vt 0.396512 0.865465
vt 0.469172 0.865330
s 1
usemtl molesAtlas
f 3/1/1 39/2/1 4/3/1
f 39/2/2 7/4/3 4/3/4
f 7/4/5 44/5/6 10/6/7
f 44/7/8 13/8/9 10/9/10
f 46/10/11 16/11/12 13/8/13
f 16/11/14 50/12/15 19/13/16
f 50/14/17 22/15/18 19/16/19
f 52/17/20 25/18/21 22/15/22
f 54/19/23 28/20/24 25/18/25
f 28/21/26 58/22/27 31/23/28
f 58/22/29 34/24/30 31/23/31
f 34/24/32 40/25/33 3/26/34
f 36/27/35 37/28/36 59/29/37
f 36/27/38 2/30/39 1/31/40
f 35/32/41 3/26/42 2/30/43
f 33/33/44 59/29/45 57/34/46
f 32/35/47 36/27/48 33/33/49
f 31/23/50 35/32/51 32/35/52
f 30/36/53 57/34/53 55/37/53
f 29/38/54 33/33/54 30/36/54
f 29/38/55 31/23/55 32/35/55
f 27/39/56 55/40/57 53/41/58
f 26/42/59 30/43/59 27/39/59
f 26/42/60 28/20/61 29/44/62
f 51/45/63 27/39/64 53/41/65
f 23/46/66 27/39/67 24/47/68
f 23/46/69 25/18/70 26/42/71
f 21/48/72 51/49/73 49/50/74
f 21/51/75 23/52/76 24/53/77
f 19/16/78 23/46/79 20/54/80
f 47/55/81 21/56/82 49/57/83
f 17/58/84 21/56/85 18/59/86
f 17/58/87 19/13/87 20/60/87
f 45/61/88 18/59/89 47/55/90
f 14/62/91 18/59/91 15/63/91
f 14/62/92 16/11/93 17/58/94
f 12/64/95 45/61/96 43/65/97
f 12/64/98 14/62/98 15/63/98
f 10/9/99 14/62/99 11/66/99
f 41/67/100 12/68/100 43/69/100
f 9/70/101 11/71/101 12/68/101
f 7/4/102 11/71/102 8/72/102
f 6/73/103 41/67/103 38/74/103
f 5/75/104 9/70/104 6/73/104
f 5/75/105 7/4/105 8/72/105
f 37/76/106 6/73/107 38/74/108
f 1/77/109 5/75/109 6/73/109
f 3/1/110 5/75/110 2/78/110
f 3/1/1 40/79/1 39/2/1
f 39/2/2 42/80/111 7/4/3
f 7/4/5 42/80/112 44/5/6
f 44/7/8 46/10/113 13/8/9
f 46/10/11 48/81/114 16/11/12
f 16/11/14 48/81/115 50/12/15
f 50/14/17 52/17/116 22/15/18
f 52/17/20 54/19/117 25/18/21
f 54/19/23 56/82/118 28/20/24
f 28/21/26 56/83/119 58/22/27
f 58/22/29 60/84/120 34/24/30
f 34/24/32 60/84/121 40/25/33
f 36/85/35 1/77/122 37/76/36
f 36/27/38 35/32/123 2/30/39
f 35/32/41 34/24/124 3/26/42
f 33/33/44 36/27/125 59/29/45
f 32/35/47 35/32/126 36/27/48
f 31/23/50 34/24/127 35/32/51
f 30/36/53 33/33/53 57/34/53
f 29/38/54 32/35/54 33/33/54
f 29/38/55 28/21/55 31/23/55
f 27/39/56 30/43/128 55/40/57
f 26/42/59 29/44/59 30/43/59
f 26/42/60 25/18/129 28/20/61
f 51/45/130 24/47/131 27/39/64
f 23/46/66 26/42/132 27/39/67
f 23/46/69 22/15/133 25/18/70
f 21/51/72 24/53/134 51/86/73
f 21/87/75 20/54/135 23/46/76
f 19/16/78 22/15/136 23/46/79
f 47/55/81 18/59/137 21/56/82
f 17/58/84 20/60/138 21/56/85
f 17/58/87 16/11/87 19/13/87
f 45/61/88 15/63/139 18/59/89
f 14/62/91 17/58/91 18/59/91
f 14/62/92 13/8/140 16/11/93
f 12/64/95 15/63/141 45/61/96
f 12/64/98 11/66/98 14/62/98
f 10/9/99 13/8/99 14/62/99
f 41/67/100 9/70/100 12/68/100
f 9/70/101 8/72/101 11/71/101
f 7/4/102 10/6/102 11/71/102
f 6/73/103 9/70/103 41/67/103
f 5/75/104 8/72/104 9/70/104
f 5/75/105 4/3/105 7/4/105
f 37/76/106 1/77/142 6/73/107
f 1/77/109 2/78/109 5/75/109
f 3/1/110 4/3/110 5/75/110
f 126/162/268 127/163/269 121/164/270
f 123/165/271 130/166/272 124/167/273
f 130/166/274 125/168/275 124/167/276
f 131/169/277 126/170/278 125/171/279
f 127/163/280 122/172/281 121/164/282
f 122/173/283 129/174/284 123/175/285
f 122/176/286 124/177/286 126/178/286
f 126/162/268 132/179/287 127/163/269
f 123/165/271 129/180/288 130/166/272
f 130/166/274 131/181/289 125/168/275
f 131/169/277 132/182/290 126/170/278
f 127/163/280 128/183/291 122/172/281
f 122/173/292 128/184/293 129/174/284
f 126/178/286 121/185/286 122/176/286
f 122/176/286 123/186/286 124/177/286
f 124/177/286 125/187/286 126/178/286
usemtl molesAtlas.003
f 82/88/143 74/89/143 66/90/143
f 67/91/144 75/92/144 83/93/145
f 61/94/146 86/95/147 63/96/148
f 64/97/149 88/98/149 62/99/149
f 65/100/150 86/95/150 89/101/150
f 64/97/151 90/102/152 87/103/153
f 65/100/154 91/104/154 67/91/154
f 68/105/155 90/102/156 66/90/157
f 69/106/158 91/107/159 93/108/160
f 68/105/161 94/109/162 92/110/163
f 69/111/164 95/112/165 71/113/166
f 72/114/167 94/109/167 70/115/167
f 73/116/168 95/112/169 97/117/170
f 72/114/171 98/118/172 96/119/173
f 73/116/174 99/120/175 75/92/176
f 76/121/177 98/118/178 74/89/179
f 77/122/180 99/120/181 101/123/182
f 78/124/183 100/125/183 76/121/183
f 77/122/184 103/126/185 79/127/186
f 80/128/187 102/129/187 78/124/187
f 81/130/188 103/126/189 105/131/190
f 82/88/191 104/132/192 80/128/193
f 81/130/194 107/133/195 83/93/196
f 84/134/197 106/135/198 82/88/199
f 61/94/200 107/133/201 85/136/202
f 62/99/203 108/137/203 84/134/203
f 66/90/143 64/97/143 62/99/143
f 62/99/143 84/134/143 82/88/143
f 82/88/143 80/128/143 78/124/143
f 78/124/143 76/121/143 74/89/143
f 74/89/143 72/114/143 70/115/143
f 70/115/143 68/105/143 66/90/143
f 66/90/143 62/99/143 82/88/143
f 82/88/143 78/124/143 74/89/143
f 74/89/143 70/115/143 66/90/143
f 83/93/145 61/94/144 63/96/144
f 63/96/144 65/100/144 67/91/144
f 67/91/144 69/111/144 71/113/144
f 71/113/144 73/116/144 75/92/144
f 75/92/144 77/122/144 79/127/145
f 79/127/145 81/130/204 83/93/145
f 83/93/145 63/96/144 67/91/144
f 67/91/144 71/113/144 75/92/144
f 75/92/144 79/127/145 83/93/145
f 61/94/205 85/136/206 86/95/207
f 64/97/208 87/103/208 88/98/208
f 65/100/150 63/96/150 86/95/150
f 64/97/151 66/90/209 90/102/152
f 65/100/154 89/101/154 91/104/154
f 68/105/210 92/110/211 90/102/212
f 69/111/158 67/91/213 91/104/159
f 68/105/161 70/115/214 94/109/162
f 69/106/215 93/108/216 95/138/217
f 72/114/167 96/119/167 94/109/167
f 73/116/168 71/113/218 95/112/169
f 72/139/171 74/140/219 98/141/172
f 73/116/220 97/117/221 99/120/222
f 76/121/223 100/125/224 98/118/225
f 77/142/180 75/143/226 99/144/181
f 78/124/183 102/129/183 100/125/183
f 77/122/184 101/123/227 103/126/185
f 80/128/187 104/132/187 102/129/187
f 81/130/188 79/127/228 103/126/189
f 82/88/199 106/135/198 104/132/229
f 81/130/230 105/131/231 107/133/232
f 84/134/197 108/137/233 106/135/198
f 61/94/200 83/93/234 107/133/201
f 62/99/203 88/98/203 108/137/203
f 112/145/235 109/146/236 111/147/237
f 114/148/238 111/147/239 113/149/240
f 116/150/241 113/151/242 115/152/243
f 116/150/244 117/153/245 118/154/246
f 118/155/247 119/156/248 120/157/249
f 120/157/250 109/146/251 110/158/252
f 109/146/253 117/159/254 113/149/255
f 112/145/235 110/158/256 109/146/236
f 114/148/238 112/145/257 111/147/239
f 116/150/241 114/160/258 113/151/242
f 116/150/244 115/152/259 117/153/260
f 118/155/247 117/159/261 119/156/262
f 120/157/250 119/156/263 109/146/264
f 113/149/255 111/147/265 109/146/253
f 109/146/253 119/156/266 117/159/254
f 117/159/254 115/161/267 113/149/255
f 138/188/294 139/189/295 133/190/270
f 135/191/271 142/192/272 136/193/273
f 142/192/274 137/194/275 136/193/276
f 143/195/277 138/196/278 137/197/279
f 139/189/280 134/198/281 133/190/282
f 134/199/296 141/200/297 135/201/285
f 134/202/286 136/203/286 138/204/286
f 138/188/268 144/205/287 139/189/298
f 135/191/271 141/206/288 142/192/272
f 142/192/274 143/207/289 137/194/275
f 143/195/277 144/208/290 138/196/278
f 139/189/280 140/209/291 134/198/281
f 134/199/292 140/210/293 141/200/299
f 138/204/286 133/211/286 134/202/286
f 134/202/286 135/212/286 136/203/286
f 136/203/286 137/213/286 138/204/286
